<svg width="200" height="100" viewBox="0 0 200 100" fill="none" xmlns="http://www.w3.org/2000/svg">
<path fill-rule="evenodd" clip-rule="evenodd" d="M58.0694 50C58.0694 42.9094 52.2334 37.167 45.0347 37.167C37.836 37.167 32 42.9094 32 50C32 57.0906 37.836 62.8331 45.0347 62.8331C52.2334 62.8331 58.0694 57.0906 58.0694 50ZM42.6588 42.8686C42.5581 43.067 42.5581 43.3238 42.5581 43.8432V46.7786C42.5581 46.907 42.5581 46.9712 42.5759 47.0354C42.5877 47.0879 42.6174 47.1404 42.647 47.1813C42.6825 47.2338 42.7359 47.2747 42.8366 47.3564L43.5891 47.9575C43.7135 48.0567 43.7727 48.1034 43.7964 48.1617C43.8142 48.2142 43.8142 48.2726 43.7964 48.3251C43.7727 48.3835 43.7135 48.436 43.5891 48.5294L42.8366 49.1305C42.7359 49.2122 42.6825 49.253 42.647 49.3055C42.6174 49.3522 42.5877 49.3989 42.5759 49.4514C42.5581 49.5098 42.5581 49.574 42.5581 49.7082V56.1452C42.5581 56.6646 42.5581 56.9213 42.6588 57.1198C42.7477 57.2948 42.8899 57.4349 43.0677 57.5224C43.2691 57.6216 43.5298 57.6216 44.0571 57.6216H46.0005C46.5278 57.6216 46.7885 57.6216 46.9899 57.5224C47.1677 57.4349 47.3099 57.2948 47.3987 57.1198C47.4995 56.9213 47.4995 56.6646 47.4995 56.1452V53.2097C47.4995 53.0813 47.4995 53.0172 47.4817 52.953C47.4698 52.9004 47.4402 52.8479 47.4106 52.8071C47.375 52.7545 47.3217 52.7137 47.221 52.632L46.4685 52.0309C46.3441 51.9317 46.2849 51.885 46.2612 51.8266C46.2434 51.7741 46.2434 51.7158 46.2612 51.6632C46.2849 51.6049 46.3441 51.5524 46.4685 51.459L47.221 50.8579C47.3217 50.7762 47.375 50.7353 47.4106 50.6828C47.4402 50.6361 47.4698 50.5894 47.4817 50.5369C47.4995 50.4786 47.4995 50.4144 47.4995 50.2801V43.8432C47.4995 43.3238 47.4995 43.067 47.3987 42.8686C47.3099 42.6935 47.1677 42.5535 46.9899 42.4659C46.7885 42.3667 46.5278 42.3667 46.0005 42.3667H44.0571C43.5298 42.3667 43.2691 42.3667 43.0677 42.4659C42.8899 42.5535 42.7477 42.6935 42.6588 42.8686Z" fill="#1A285F"/>
<path d="M68.5314 57.6735C68.6617 57.6735 68.7625 57.5684 68.7625 57.4459V42.3719C68.7625 42.2435 68.6558 42.1443 68.5314 42.1443H66.274C66.1911 42.1443 66.1141 42.191 66.0667 42.2552C65.5512 43.0313 64.5854 43.4223 63.2701 43.4573C63.1398 43.4573 63.039 43.5624 63.039 43.6908V45.9434C63.039 46.0718 63.1457 46.171 63.2701 46.171H65.095C65.2253 46.171 65.326 46.2761 65.326 46.3986V57.4342C65.326 57.5626 65.4327 57.6618 65.5571 57.6618H68.5255L68.5314 57.6735Z" fill="#1A285F"/>
<path d="M77.5384 45.2547C78.753 45.2547 79.7366 45.8908 79.7366 47.4957C79.7366 49.1005 78.759 49.7366 77.5384 49.7366H74.89V45.2489H77.5384V45.2547ZM77.5384 52.6429C81.117 52.6429 83.1967 50.4953 83.1967 47.4023C83.1967 44.4727 81.123 42.3251 77.5384 42.3251H71.7084C71.578 42.3251 71.4773 42.4301 71.4773 42.5527V57.4341C71.4773 57.5625 71.5839 57.6617 71.7084 57.6617H74.653C74.7834 57.6617 74.8841 57.5567 74.8841 57.4341V52.8646C74.8841 52.7363 74.9907 52.637 75.1152 52.637H77.5325L77.5384 52.6429Z" fill="#1A285F"/>
<path d="M88.4866 55.5034C87.4853 55.5034 86.8632 55.054 86.8632 54.2545C86.8632 53.5484 87.2898 53.0757 88.3207 53.0757H91.1113V53.3091C91.1113 54.6805 89.9204 55.5034 88.4866 55.5034ZM91.3779 57.4409C91.3779 57.5693 91.4846 57.6685 91.609 57.6685H94.1745C94.3048 57.6685 94.4055 57.5635 94.4055 57.4409V50.7764C94.4055 47.5666 92.5688 45.6992 89.2509 45.6992C86.7861 45.6992 84.902 46.9947 84.1259 49.0781C84.0785 49.2007 84.1555 49.3407 84.2858 49.3699L86.8691 49.9943C86.9876 50.0235 87.1061 49.9593 87.1476 49.8485C87.5386 48.903 88.1903 48.3428 89.245 48.3428C90.2996 48.3428 91.1054 49.0489 91.1054 50.327V50.4904C91.1054 50.8464 90.9869 50.9864 90.5544 50.9864H87.5682C85.0857 50.9864 83.5808 52.282 83.5808 54.3362C83.5808 56.5305 85.299 57.9486 87.6867 57.9486C88.8895 57.9486 90.0389 57.5576 90.8565 56.6939C91.0165 56.5247 91.3661 56.6297 91.3661 56.8573V57.4351L91.3779 57.4409Z" fill="#1A285F"/>
<path d="M100.76 55.595C99.5984 55.595 98.7511 55.1223 98.3364 54.2469C98.2831 54.1419 98.1705 54.0777 98.052 54.1069L95.6406 54.708C95.5162 54.7371 95.4391 54.8655 95.4747 54.9822C96.085 56.9839 98.129 57.9469 100.641 57.9469C103.864 57.9469 105.701 56.3187 105.701 54.101C105.701 49.8058 98.8045 51.2706 98.8045 49.1464C98.8045 48.4403 99.4029 47.9909 100.475 47.9909C101.548 47.9909 102.259 48.5686 102.602 49.4499C102.644 49.5607 102.756 49.6308 102.875 49.6074L105.34 49.1464C105.47 49.123 105.553 48.9947 105.517 48.8663C104.954 46.9871 103.367 45.7032 100.499 45.7032C97.347 45.7032 95.6761 47.3548 95.6761 49.4323C95.6761 53.8676 102.596 52.5487 102.596 54.387C102.596 55.1165 101.974 55.5892 100.76 55.5892V55.595Z" fill="#1A285F"/>
<path d="M111.482 55.595C110.32 55.595 109.473 55.1223 109.058 54.2469C109.005 54.1419 108.893 54.0777 108.774 54.1069L106.363 54.708C106.238 54.7371 106.161 54.8655 106.197 54.9822C106.807 56.9839 108.851 57.9469 111.363 57.9469C114.586 57.9469 116.423 56.3187 116.423 54.101C116.423 49.8058 109.527 51.2706 109.527 49.1464C109.527 48.4403 110.125 47.9909 111.197 47.9909C112.27 47.9909 112.981 48.5686 113.324 49.4499C113.366 49.5607 113.478 49.6308 113.597 49.6074L116.062 49.1464C116.192 49.123 116.275 48.9947 116.239 48.8663C115.677 46.9871 114.089 45.7032 111.221 45.7032C108.069 45.7032 106.398 47.3548 106.398 49.4323C106.398 53.8676 113.318 52.5487 113.318 54.387C113.318 55.1165 112.696 55.5892 111.482 55.5892V55.595Z" fill="#1A285F"/>
<path d="M119.439 57.4989C119.463 57.6039 119.558 57.674 119.664 57.674H123.379C123.486 57.674 123.581 57.5981 123.604 57.4989L125.494 49.5796L127.385 57.4989C127.408 57.6039 127.503 57.674 127.61 57.674H131.443C131.55 57.674 131.644 57.6039 131.668 57.4989L134.465 46.2765C134.5 46.1306 134.388 45.9906 134.24 45.9906H131.603C131.49 45.9906 131.396 46.0664 131.372 46.1715L129.5 55.077L127.183 46.1598C127.159 46.0606 127.065 45.9847 126.958 45.9847H124.007C123.901 45.9847 123.806 46.0606 123.782 46.1598L121.631 55.0712L119.783 46.1656C119.759 46.0606 119.664 45.9789 119.552 45.9789H116.892C116.738 45.9789 116.631 46.119 116.666 46.2649L119.439 57.4872V57.4989Z" fill="#1A285F"/>
<path d="M140.775 57.9545C144.354 57.9545 146.813 55.2174 146.813 51.8385C146.813 48.4595 144.354 45.6992 140.775 45.6992C137.197 45.6992 134.738 48.4362 134.738 51.8385C134.738 55.2408 137.22 57.9545 140.775 57.9545ZM140.775 55.1474C139.294 55.1474 138.151 53.9219 138.151 51.8443C138.151 49.7668 139.294 48.5179 140.775 48.5179C142.256 48.5179 143.424 49.7668 143.424 51.8443C143.424 53.9219 142.256 55.1474 140.775 55.1474Z" fill="#1A285F"/>
<path d="M151.522 51.4866C151.522 49.4791 152.547 49.0064 154.123 49.0064C154.426 49.0064 154.757 49.0356 155.071 49.0939C155.202 49.1173 155.338 49.0356 155.362 48.9013L155.859 46.1235C155.877 46.0243 155.83 45.9251 155.735 45.89C155.451 45.7675 155.095 45.7033 154.668 45.7033C153.069 45.7033 151.83 46.6254 151.232 48.487V46.2168C151.232 46.0885 151.125 45.9892 151.001 45.9892H148.412C148.281 45.9892 148.181 46.0943 148.181 46.2168V57.4392C148.181 57.5676 148.287 57.6668 148.412 57.6668H151.285C151.416 57.6668 151.516 57.5618 151.516 57.4392V51.4866H151.522Z" fill="#1A285F"/>
<path d="M162.034 55.218C160.315 55.218 159.409 53.8232 159.409 51.8449C159.409 49.8665 160.315 48.4484 162.034 48.4484C163.752 48.4484 164.658 49.8665 164.658 51.8449C164.658 53.8232 163.752 55.218 162.034 55.218ZM164.854 57.4415C164.854 57.5699 164.961 57.6691 165.085 57.6691H167.769C167.899 57.6691 168 57.564 168 57.4415V42.595C168 42.4667 167.893 42.3674 167.769 42.3674H164.99C164.86 42.3674 164.759 42.4725 164.759 42.595V47.6197C164.019 46.2483 162.78 45.7056 161.204 45.7056C158.123 45.7056 156.026 48.3492 156.026 51.8449C156.026 55.3406 158.123 57.9609 161.204 57.9609C162.875 57.9609 164.161 57.3014 164.854 55.5973V57.4473V57.4415Z" fill="#1A285F"/>
</svg>
