<svg width="200" height="100" viewBox="0 0 200 100" fill="none" xmlns="http://www.w3.org/2000/svg">
<path d="M106.96 30.6998C107.628 30.7672 108.289 30.908 108.932 31.0917C109.992 31.3857 110.99 31.8082 111.878 32.4573C113.066 33.3207 113.862 34.4475 114.186 35.8927C114.297 36.3948 114.345 37.0011 114.315 37.595C114.382 37.5706 114.382 37.5093 114.407 37.4603C115.148 35.6845 116.336 34.2699 117.885 33.1431C119.342 32.0838 120.965 31.3918 122.692 30.9264C123.715 30.6508 124.762 30.4732 125.815 30.3569C125.858 30.3569 125.901 30.3569 125.944 30.3569C125.956 30.3691 125.974 30.3691 125.987 30.3569C126.134 30.3263 126.281 30.3018 126.427 30.314C126.44 30.3263 126.458 30.3263 126.47 30.314C126.691 30.2834 126.911 30.2589 127.132 30.2711C127.144 30.2834 127.162 30.2834 127.175 30.2711C128.038 30.2099 128.901 30.2099 129.771 30.2711C129.802 30.2956 129.826 30.2956 129.857 30.2711C130.096 30.2589 130.328 30.2773 130.561 30.314C130.592 30.3385 130.616 30.3385 130.647 30.314C130.812 30.3018 130.971 30.3263 131.13 30.3569C131.143 30.3691 131.161 30.3691 131.173 30.3569C131.308 30.3446 131.437 30.3691 131.571 30.3997C131.584 30.412 131.602 30.412 131.614 30.3997C131.957 30.4181 132.294 30.461 132.625 30.5283C132.637 30.5406 132.655 30.5406 132.667 30.5283C133.115 30.5712 133.549 30.6569 133.984 30.7488C135.037 30.9631 136.072 31.2448 137.083 31.6184C137.303 31.698 137.272 31.6735 137.272 31.8755C137.272 33.7984 137.272 35.7273 137.272 37.6502C137.272 37.6991 137.291 37.7481 137.248 37.8032C137.162 37.8032 137.089 37.742 137.015 37.6991C135.98 37.1664 134.915 36.7071 133.794 36.3887C132.38 35.9845 130.941 35.8253 129.477 35.8559C128.209 35.8865 126.972 36.0703 125.772 36.4867C124.792 36.8235 123.892 37.295 123.127 38.0053C122.465 38.6238 121.988 39.3587 121.804 40.2588C121.553 41.4774 121.822 42.5858 122.588 43.5656C123.225 44.3801 124.058 44.9373 124.988 45.366C125.925 45.7946 126.911 46.0579 127.928 46.2049C128.13 46.2355 128.332 46.2661 128.534 46.2906C128.546 46.3029 128.565 46.3029 128.577 46.2906C128.742 46.2784 128.901 46.3151 129.061 46.3335C129.091 46.358 129.116 46.358 129.146 46.3335C129.691 46.3335 130.23 46.3335 130.775 46.3335C130.806 46.3519 130.83 46.3519 130.861 46.3335C131.051 46.3151 131.241 46.2784 131.437 46.2906C131.449 46.3029 131.467 46.3029 131.479 46.2906C131.712 46.2478 131.945 46.2233 132.184 46.2049C132.196 46.2172 132.214 46.2172 132.227 46.2049C132.563 46.1376 132.9 46.0824 133.237 46.009C134.505 45.7334 135.717 45.2864 136.905 44.7597C137.083 44.6801 137.266 44.6005 137.438 44.527C137.511 44.5638 137.487 44.625 137.487 44.674C137.487 46.456 137.487 48.2318 137.487 50.0138C137.487 50.1547 137.432 50.2159 137.309 50.271C136.238 50.7548 135.129 51.1161 133.99 51.3855C132.851 51.655 131.694 51.8326 130.524 51.9305C129.208 52.0469 127.891 52.0775 126.574 52.004C124.59 51.8938 122.649 51.5754 120.788 50.865C119.091 50.2159 117.573 49.2851 116.33 47.9502C115.025 46.5478 114.199 44.9006 113.849 43.0206C113.684 42.1388 113.635 41.2509 113.715 40.3568C113.721 40.265 113.727 40.167 113.733 40.069C113.721 40.02 113.819 39.9343 113.684 39.9343C112.888 41.453 111.614 42.4266 110.071 43.0818C109.073 43.5105 108.02 43.7677 106.948 43.933C105.809 44.1106 104.664 44.1657 103.513 44.1657C102.429 44.1657 101.345 44.1657 100.261 44.1657C100.2 44.1657 100.145 44.1657 100.083 44.1657C100.004 44.1657 99.961 44.1964 99.9671 44.2821C99.9671 44.3433 99.9671 44.3984 99.9671 44.4597C99.9671 46.7867 99.9671 49.1137 99.9671 51.4468C99.9671 51.4896 99.9671 51.5325 99.9671 51.5815C99.9671 51.8203 99.9733 51.7958 99.7528 51.7958C96.9114 51.7958 94.07 51.7958 91.2287 51.7958C87.2667 51.7958 83.3046 51.7958 79.3426 51.7958C77.1626 51.7958 74.9765 51.7958 72.7964 51.7958C72.625 51.7958 72.527 51.7468 72.4413 51.5937C71.6023 50.0812 70.7573 48.5809 69.9122 47.0745C69.8632 46.9826 69.8203 46.8908 69.7714 46.7989C69.8755 46.6948 70.0041 46.7315 70.1265 46.7315C73.1884 46.7315 76.2502 46.7315 79.312 46.7315C79.7529 46.7315 79.7652 46.7316 79.5815 46.3335C79.1773 45.4701 78.767 44.6128 78.3628 43.7493C77.6831 42.298 76.9973 40.8528 76.3114 39.4015C75.895 38.5136 75.4847 37.6257 75.05 36.7439C74.9642 36.5724 74.903 36.3948 74.7989 36.2111C74.707 36.3091 74.6703 36.4193 74.6213 36.5234C74.0334 37.791 73.4272 39.0525 72.8332 40.314C72.0555 41.9796 71.2594 43.633 70.4878 45.2986C70.298 45.7028 70.1143 46.1069 69.9122 46.505C69.8755 46.5785 69.851 46.6519 69.7775 46.7009C69.5815 47.05 69.4223 47.4235 69.2508 47.7848C68.6446 49.0585 68.0445 50.3384 67.4444 51.6182C67.3831 51.7529 67.3158 51.7958 67.1627 51.7958C64.3274 51.7958 61.4922 51.7958 58.6569 51.7958H58.5038C58.4732 51.7162 58.5283 51.6672 58.5589 51.6121C60.3103 48.4094 62.0678 45.2068 63.8192 42.0041C65.7297 38.5197 67.6342 35.0354 69.5448 31.551C69.7101 31.2509 69.8755 30.9509 70.0408 30.6447C70.0837 30.5651 70.1326 30.5161 70.2245 30.5283C70.2674 30.5345 70.3102 30.5283 70.3592 30.5283C73.317 30.5283 76.2808 30.5283 79.2385 30.5283C79.4161 30.5283 79.508 30.5773 79.5937 30.7365C82.4535 36.0029 85.3132 41.2631 88.1791 46.5295C89.0854 48.2012 89.9978 49.873 90.9041 51.5447C90.9347 51.5999 90.9531 51.6672 91.0388 51.7285V51.4835C91.0388 47.5644 91.0388 43.6452 91.0388 39.7322C91.0388 39.4076 90.9898 39.4505 91.3144 39.4505C94.958 39.4505 98.5954 39.4505 102.239 39.4505C102.717 39.4505 103.188 39.4321 103.666 39.4199C103.696 39.4383 103.721 39.4383 103.752 39.4199C104.107 39.3648 104.468 39.3525 104.811 39.2423C104.848 39.2301 104.878 39.2239 104.915 39.2117C105.558 39.0219 105.919 38.5871 106.03 37.9318C106.109 37.4481 106.103 36.9704 105.999 36.4928C105.889 35.9968 105.601 35.6538 105.129 35.4701C104.762 35.3293 104.382 35.2803 103.99 35.2436C103.36 35.1823 102.729 35.1946 102.104 35.1946C98.4974 35.1946 94.8967 35.1946 91.2899 35.1946C91.1001 35.1946 91.0082 35.1395 90.9164 34.9741C90.1693 33.5657 89.4099 32.1634 88.6567 30.7549C88.6261 30.6937 88.571 30.6386 88.571 30.5528C88.6445 30.5283 88.718 30.5406 88.7853 30.5406C93.9414 30.5406 99.0976 30.5406 104.254 30.5406C104.658 30.5406 105.062 30.5406 105.46 30.5896C105.491 30.6141 105.515 30.6141 105.546 30.5896C105.723 30.5773 105.901 30.5957 106.072 30.6324C106.103 30.6569 106.128 30.6569 106.158 30.6324C106.409 30.6447 106.66 30.6631 106.905 30.7182C106.917 30.7304 106.936 30.7304 106.948 30.7182L106.96 30.6998Z" fill="#EE1C24"/>
<path d="M69.7762 46.6888C69.8742 46.4072 70.0211 46.1438 70.1497 45.8744C71.6623 42.6656 73.1748 39.4629 74.6935 36.2541C74.7241 36.1868 74.7425 36.1194 74.8098 36.0582C76.4938 39.6283 78.1717 43.1861 79.8619 46.7807C79.7455 46.7807 79.6598 46.7807 79.574 46.7807C76.402 46.7807 73.2361 46.7807 70.064 46.7807C69.966 46.7807 69.8742 46.7807 69.7762 46.7807C69.7762 46.7501 69.7762 46.7195 69.7762 46.6888Z" fill="white"/>
<path d="M98.1003 57.9022C85.112 57.9022 72.1298 57.9022 59.1415 57.9022C58.817 57.9022 58.8231 57.9022 58.8353 57.5838C58.8353 57.4797 58.8782 57.4552 58.9701 57.4613C59.019 57.4613 59.0742 57.4613 59.1231 57.4613C85.112 57.4613 111.101 57.4613 137.09 57.4613C137.42 57.4613 137.377 57.3939 137.384 57.7736C137.384 57.8654 137.365 57.9144 137.261 57.9022C137.194 57.9022 137.126 57.9022 137.065 57.9022C124.077 57.9022 111.095 57.9022 98.1064 57.9022H98.1003Z" fill="#030303"/>
<path d="M96.5799 68.2622C96.5187 68.25 96.4881 68.299 96.4513 68.3296C95.7471 68.8807 94.3203 68.6786 93.91 67.4845C93.7079 66.8966 93.7386 66.3026 93.9835 65.727C94.2774 65.0412 94.9143 64.6554 95.7594 64.7166C96.0472 64.735 96.3166 64.8207 96.5861 64.9861C96.5861 64.8881 96.5983 64.8207 96.5983 64.7534C96.5983 64.3553 96.5983 63.9634 96.5983 63.5654C96.5983 63.4429 96.6412 63.4184 96.7514 63.4184C97.1004 63.4184 97.4556 63.4184 97.8047 63.4184C97.9149 63.4184 97.9394 63.4551 97.9394 63.5592C97.9394 64.0736 97.9394 64.5819 97.9394 65.0963C97.9394 66.1557 97.9394 67.2212 97.9394 68.2806C97.9394 68.3296 97.9394 68.3847 97.9394 68.4337C97.9455 68.5317 97.8965 68.5561 97.8047 68.5561C97.4617 68.5561 97.1188 68.5561 96.7698 68.5561C96.6044 68.5561 96.6044 68.5561 96.5983 68.3908C96.5983 68.3479 96.6106 68.3051 96.5799 68.2622Z" fill="black"/>
<path d="M72.5464 64.9796C72.3076 64.8326 72.0994 64.7101 71.885 64.606C71.6462 64.4897 71.389 64.4345 71.1257 64.4101C71.0032 64.3978 70.8746 64.4101 70.7583 64.4468C70.6174 64.4897 70.5133 64.5815 70.4888 64.7346C70.4643 64.8816 70.5195 64.9918 70.6358 65.0775C70.746 65.1633 70.8685 65.2245 70.9971 65.2857C71.3217 65.4511 71.6585 65.6042 71.9708 65.794C72.0932 65.8736 72.2157 65.9593 72.3259 66.0512C73.0057 66.6146 72.8771 67.7046 72.2831 68.1761C71.9279 68.4578 71.5237 68.5803 71.0828 68.6109C70.4215 68.6538 69.7907 68.5129 69.1784 68.268C69.0988 68.2373 69.0436 68.2067 69.0436 68.1026C69.0498 67.7352 69.0436 67.3739 69.0436 67.0004C69.1416 66.9881 69.1967 67.0494 69.2641 67.0861C69.6009 67.2698 69.9316 67.4474 70.3174 67.4964C70.5133 67.5209 70.7093 67.527 70.9052 67.4841C71.0767 67.4474 71.1808 67.3433 71.2176 67.1841C71.2543 67.0249 71.1686 66.9024 71.0461 66.8044C70.8807 66.6758 70.697 66.5901 70.5072 66.5166C70.2806 66.4247 70.0663 66.3206 69.8581 66.1982C69.7234 66.1186 69.6009 66.0267 69.4846 65.9287C68.713 65.2674 68.811 63.8773 69.9989 63.4731C70.2623 63.3813 70.5378 63.3445 70.8195 63.3445C71.3706 63.3445 71.8912 63.4548 72.3933 63.6875C72.5158 63.7426 72.5586 63.8222 72.5586 63.9569C72.5464 64.2815 72.5586 64.6121 72.5586 64.9734L72.5464 64.9796Z" fill="black"/>
<path d="M78.8106 65.2742C78.9024 65.2497 78.9392 65.1884 78.9882 65.1456C79.4597 64.7292 80.0108 64.6312 80.6048 64.772C81.058 64.8823 81.309 65.1884 81.4254 65.6293C81.4744 65.8314 81.4928 66.0335 81.4989 66.2356C81.4989 66.9459 81.4989 67.6563 81.4989 68.3666C81.4989 68.5565 81.4989 68.5565 81.3029 68.5565C80.9967 68.5565 80.6906 68.5565 80.3782 68.5565C80.1517 68.5565 80.1578 68.5748 80.1578 68.3483C80.1578 67.742 80.1578 67.1358 80.1578 66.5234C80.1578 66.4009 80.1578 66.2785 80.1211 66.156C80.0108 65.7947 79.723 65.6477 79.3678 65.7947C79.1229 65.8988 78.9698 66.107 78.8228 66.3213C78.7861 66.3764 78.8045 66.4499 78.8045 66.5173C78.8045 67.1296 78.8045 67.7481 78.8045 68.3605C78.8045 68.5565 78.8045 68.5626 78.5963 68.5626C78.2656 68.5626 77.9349 68.5626 77.6104 68.5626C77.5063 68.5626 77.4695 68.5258 77.4695 68.4217C77.4756 68.189 77.4695 67.9563 77.4695 67.7175C77.4695 66.3764 77.4695 65.0415 77.4695 63.7004C77.4695 63.6514 77.4695 63.5963 77.4695 63.5473C77.4573 63.4493 77.5001 63.4187 77.5981 63.4248C77.7267 63.4248 77.8614 63.4248 77.9961 63.4248C78.2166 63.4248 78.437 63.4248 78.6575 63.4248C78.8045 63.4248 78.8106 63.4248 78.8106 63.584C78.8106 64.0249 78.8106 64.4597 78.8106 64.9006C78.8106 65.0231 78.8106 65.1456 78.8106 65.2742Z" fill="black"/>
<path d="M59.6011 68.0662C59.595 68.152 59.5889 68.2071 59.5828 68.2683C59.5583 68.4092 59.4725 68.5133 59.3378 68.55C59.1541 68.6051 58.9643 68.6051 58.7744 68.5378C58.6642 68.501 58.5968 68.4214 58.5601 68.3051C58.5356 68.2132 58.5295 68.1152 58.5295 68.0234C58.5295 66.5415 58.5295 65.0657 58.5295 63.5837C58.5295 63.3755 58.5601 63.3327 58.7683 63.2959C59.2276 63.2163 59.5521 63.4735 59.5828 63.9573C59.6011 64.2941 59.595 64.6309 59.595 64.9677C59.595 65.0779 59.595 65.182 59.595 65.28C59.6624 65.3167 59.6807 65.2739 59.6991 65.2494C60.2931 64.5268 61.5974 64.637 62.1486 65.4514C62.4241 65.8556 62.5221 66.3088 62.5099 66.7864C62.5037 67.1355 62.4303 67.4661 62.2649 67.7784C61.8852 68.501 61.0708 68.8011 60.3176 68.5929C60.0665 68.5255 59.8889 68.3908 59.595 68.0662H59.6011Z" fill="#04A551"/>
<path d="M83.6235 65.3108C83.7276 65.219 83.7827 65.1639 83.844 65.1149C84.3033 64.7291 84.836 64.6372 85.4055 64.7781C85.9077 64.9006 86.1404 65.268 86.2506 65.7456C86.2935 65.9416 86.3057 66.1375 86.3057 66.3335C86.3057 67.0132 86.3057 67.693 86.3057 68.3727C86.3057 68.5625 86.3057 68.5625 86.1159 68.5625C85.7852 68.5625 85.4545 68.5625 85.13 68.5625C85.0136 68.5625 84.983 68.5258 84.983 68.4094C84.983 67.8032 84.983 67.1969 84.983 66.5846C84.983 66.4498 84.9707 66.3213 84.9462 66.1927C84.885 65.8314 84.6768 65.6538 84.2114 65.7885C83.9358 65.8681 83.7827 66.1069 83.6358 66.3335C83.6052 66.3825 83.6174 66.4621 83.6174 66.5295C83.6174 67.1357 83.6174 67.7419 83.6174 68.3543C83.6174 68.5686 83.6358 68.5625 83.4215 68.5625C83.1153 68.5625 82.8091 68.5625 82.4968 68.5625C82.2886 68.5625 82.2886 68.587 82.2886 68.3666C82.2886 67.6685 82.2886 66.9765 82.2886 66.2784C82.2886 65.8375 82.2886 65.4027 82.2886 64.9618C82.2886 64.7658 82.2886 64.7903 82.4723 64.7903C82.8091 64.7903 83.1459 64.7903 83.4827 64.7903C83.5868 64.7903 83.6235 64.821 83.6174 64.9251C83.6113 65.0414 83.6174 65.1516 83.6174 65.317L83.6235 65.3108Z" fill="black"/>
<path d="M99.9964 66.9885C100.027 67.2457 100.174 67.411 100.364 67.5518C100.639 67.7539 100.952 67.8029 101.282 67.7662C101.644 67.7233 101.987 67.6315 102.317 67.4967C102.385 67.4722 102.44 67.4171 102.544 67.4416C102.544 67.6743 102.544 67.9193 102.544 68.1581C102.544 68.2438 102.477 68.2622 102.415 68.2867C102.011 68.4704 101.595 68.5929 101.148 68.6174C100.78 68.6357 100.419 68.6357 100.058 68.5439C98.9309 68.2622 98.5084 67.3192 98.6309 66.37C98.7656 65.2983 99.5494 64.8513 100.327 64.7533C100.652 64.7105 100.97 64.7105 101.289 64.7901C102.017 64.9799 102.507 65.5188 102.605 66.2659C102.63 66.4496 102.648 66.6272 102.642 66.8109C102.642 66.9885 102.642 66.9946 102.464 66.9946C102.03 66.9946 101.601 66.9946 101.166 66.9946C100.78 66.9946 100.388 66.9946 99.9903 66.9946L99.9964 66.9885Z" fill="black"/>
<path d="M88.3335 66.9884C88.456 67.4661 88.8724 67.7722 89.3868 67.7722C89.8216 67.7722 90.238 67.6559 90.6422 67.4967C90.7095 67.4722 90.7707 67.4232 90.8749 67.4293C90.8749 67.6743 90.8749 67.9192 90.8749 68.1642C90.8749 68.2499 90.8014 68.2621 90.7401 68.2866C90.3421 68.4642 89.9318 68.5867 89.497 68.6112C89.1112 68.6295 88.7193 68.6357 88.3397 68.5316C87.5007 68.2989 86.9802 67.6436 86.9496 66.768C86.9435 66.5353 86.9496 66.2964 87.0169 66.0699C87.1639 65.5432 87.4823 65.1574 87.9784 64.937C88.5234 64.6982 89.0929 64.6369 89.6746 64.7961C90.3605 64.986 90.7585 65.4514 90.9177 66.1372C90.9667 66.3638 90.9667 66.5904 90.9667 66.8169C90.9667 66.9823 90.9667 66.9884 90.8014 66.9884C90.1584 66.9884 89.5154 66.9884 88.8663 66.9884C88.6887 66.9884 88.5172 66.9884 88.3213 66.9884H88.3335Z" fill="black"/>
<path d="M64.2956 68.3113C64.0568 68.2991 63.965 68.1399 63.8915 67.9501C63.5118 67.0621 63.1322 66.1742 62.7525 65.2924C62.6606 65.0719 62.6729 65.0291 62.8872 64.9127C62.9301 64.8882 62.9791 64.8637 63.028 64.8454C63.3526 64.7229 63.6527 64.8453 63.7935 65.1577C63.916 65.4332 64.014 65.7149 64.1181 65.9966C64.2957 66.462 64.4732 66.9274 64.6569 67.4234C64.6937 67.3377 64.7182 67.2826 64.7366 67.2275C64.9386 66.6273 65.1468 66.0211 65.3489 65.421C65.3795 65.3291 65.4102 65.2434 65.4469 65.1577C65.649 64.7106 66.1634 64.7168 66.494 65.0291C66.5553 65.0903 66.5247 65.1454 66.5002 65.2066C66.3777 65.5312 66.2552 65.8619 66.1266 66.1926C65.8204 66.9886 65.5143 67.7908 65.2081 68.5869C65.0795 68.9237 64.908 69.236 64.608 69.4565C64.0507 69.8668 63.4628 69.8545 62.8688 69.5667C62.532 69.4075 62.483 69.0768 62.7096 68.7767C62.7586 68.7094 62.8076 68.691 62.8933 68.7216C63.1199 68.8135 63.3526 68.8686 63.5976 68.8686C63.9588 68.8625 64.1732 68.7033 64.2956 68.3052V68.3113Z" fill="#04A551"/>
<path d="M76.7707 65.9723C76.4584 65.8926 76.1706 65.8008 75.8705 65.7763C75.7236 65.7641 75.5766 65.7763 75.4358 65.8192C75.001 65.9661 74.805 66.2723 74.854 66.75C74.8969 67.2154 75.2398 67.5215 75.6929 67.5522C75.9318 67.5644 76.1583 67.5093 76.3849 67.4481C76.5258 67.4113 76.6666 67.3685 76.8258 67.3256C76.8258 67.6563 76.8258 67.9686 76.8258 68.2809C76.8258 68.3544 76.7891 68.385 76.7278 68.4034C76.0849 68.6299 75.4235 68.6973 74.7683 68.4952C74.0151 68.2625 73.6048 67.7236 73.4701 66.9582C73.4088 66.603 73.4578 66.2539 73.5803 65.9233C73.8375 65.2374 74.3519 64.8578 75.0622 64.7414C75.5827 64.6557 76.0971 64.6924 76.5993 64.8578C76.7217 64.8945 76.7768 64.9435 76.7707 65.0782C76.7585 65.3599 76.7707 65.6477 76.7707 65.96V65.9723Z" fill="black"/>
<path d="M106.117 66.3034C106.019 66.2361 105.94 66.1748 105.848 66.1258C105.517 65.9483 105.156 66.0156 104.929 66.3218C104.739 66.579 104.605 66.8546 104.617 67.1914C104.635 67.5772 104.617 67.9691 104.617 68.3549C104.617 68.5631 104.617 68.5631 104.421 68.5631C104.121 68.5631 103.821 68.5631 103.521 68.5631C103.264 68.5631 103.282 68.5876 103.282 68.3304C103.282 67.2832 103.282 66.2361 103.282 65.1889C103.282 65.0909 103.282 64.9991 103.282 64.9011C103.282 64.8215 103.3 64.7786 103.392 64.7786C103.766 64.7786 104.139 64.7786 104.513 64.7786C104.599 64.7786 104.623 64.8154 104.623 64.895C104.623 65.1154 104.623 65.3359 104.623 65.5564C104.703 65.5564 104.703 65.4951 104.727 65.4584C104.813 65.3298 104.899 65.2073 105.003 65.0909C105.376 64.6929 105.848 64.6011 106.338 64.8338C106.521 64.9195 106.579 65.0562 106.509 65.244C106.381 65.5931 106.252 65.936 106.117 66.2912V66.3034Z" fill="black"/>
<path d="M110.207 66.3581C110.207 65.6845 110.207 65.0109 110.207 64.3373C110.207 64.1904 110.188 64.172 110.354 64.172C111.076 64.172 111.805 64.172 112.527 64.172C112.674 64.172 112.68 64.172 112.674 64.3312C112.674 64.4598 112.736 64.619 112.638 64.7109C112.558 64.7905 112.399 64.7354 112.276 64.7354C111.842 64.7354 111.413 64.7354 110.978 64.7354C110.825 64.7354 110.825 64.7354 110.825 64.8946C110.825 65.2375 110.825 65.5804 110.825 65.9234C110.825 66.0397 110.862 66.0703 110.972 66.0703C111.462 66.0703 111.952 66.0703 112.442 66.0703C112.619 66.0703 112.619 66.0703 112.625 66.2479C112.625 66.3275 112.619 66.4071 112.625 66.4867C112.638 66.6031 112.595 66.6337 112.478 66.6337C112.013 66.6337 111.541 66.6337 111.076 66.6337C110.794 66.6337 110.831 66.597 110.831 66.8725C110.831 67.1787 110.831 67.4849 110.831 67.7972C110.831 68.0115 110.819 67.9932 111.039 67.9932C111.541 67.9932 112.05 67.9932 112.552 67.9932C112.742 67.9932 112.742 67.9932 112.748 68.1769C112.748 68.4259 112.627 68.5504 112.387 68.5504C111.719 68.5504 111.052 68.5504 110.39 68.5504C110.213 68.5504 110.213 68.5504 110.213 68.3728C110.213 67.6992 110.213 67.0256 110.213 66.352L110.207 66.3581Z" fill="black"/>
<path d="M93.0283 66.6768C93.0283 67.2402 93.0283 67.8035 93.0283 68.3669C93.0283 68.5567 93.0283 68.5567 92.8324 68.5567C92.5017 68.5567 92.171 68.5567 91.8465 68.5567C91.7301 68.5567 91.6934 68.52 91.6995 68.4098C91.6995 67.2463 91.6995 66.0828 91.6995 64.9193C91.6995 64.7968 91.7424 64.7723 91.8526 64.7784C92.1894 64.7784 92.5262 64.7784 92.863 64.7784C93.0345 64.7784 93.0345 64.7785 93.0345 64.9622C93.0345 65.5317 93.0345 66.1012 93.0345 66.6707L93.0283 66.6768Z" fill="black"/>
<path d="M117.615 67.1613C117.651 67.7614 118.055 68.1166 118.637 68.0737C118.968 68.0492 119.262 67.939 119.568 67.7308C119.58 67.9145 119.568 68.0737 119.568 68.2268C119.568 68.2942 119.519 68.3125 119.476 68.337C118.968 68.631 118.423 68.6983 117.872 68.4962C117.449 68.3431 117.21 68.0002 117.094 67.5777C116.984 67.1796 116.996 66.7755 117.168 66.3958C117.504 65.6365 118.239 65.4895 118.833 65.6916C119.164 65.8018 119.372 66.0529 119.507 66.3774C119.593 66.5918 119.629 66.8122 119.629 67.0388C119.629 67.1307 119.599 67.1674 119.507 67.1674C119.084 67.1674 118.656 67.1674 118.233 67.1674C118.031 67.1674 117.823 67.1674 117.621 67.1674L117.615 67.1613Z" fill="black"/>
<path d="M123.623 67.9008C123.623 68.0661 123.623 68.2192 123.623 68.3723C123.623 68.4335 123.592 68.4641 123.537 68.4825C123.072 68.6295 122.607 68.6846 122.141 68.4948C121.627 68.2927 121.37 67.8885 121.302 67.3558C121.265 67.0863 121.29 66.8169 121.376 66.5535C121.553 66.0024 122.019 65.6472 122.6 65.6166C122.9 65.5983 123.182 65.6473 123.458 65.7575C123.543 65.7942 123.58 65.8432 123.574 65.9351C123.568 66.082 123.574 66.229 123.574 66.3698C123.494 66.4005 123.445 66.3392 123.39 66.3086C123.243 66.2351 123.096 66.1739 122.937 66.1494C122.362 66.0637 121.908 66.4188 121.872 67.0067C121.817 67.8211 122.429 68.1457 123.035 68.0661C123.231 68.0416 123.415 67.9681 123.623 67.9008Z" fill="black"/>
<path d="M137.33 66.4066C137.213 66.3514 137.128 66.3086 137.048 66.2657C136.846 66.1677 136.638 66.1249 136.411 66.1432C136.301 66.1555 136.197 66.1861 136.099 66.2351C135.768 66.4127 135.578 66.823 135.634 67.2455C135.683 67.6558 135.934 67.9375 136.319 68.0355C136.601 68.1089 136.871 68.0599 137.14 67.9742C137.213 67.9497 137.281 67.9007 137.367 67.9069C137.403 67.9803 137.385 68.0538 137.385 68.1212C137.385 68.458 137.385 68.458 137.066 68.5315C136.773 68.5988 136.479 68.6172 136.172 68.5621C135.609 68.4519 135.199 68.0538 135.089 67.4904C135.021 67.1353 135.033 66.7862 135.168 66.4555C135.382 65.935 135.774 65.6472 136.344 65.6044C136.65 65.5799 136.944 65.6289 137.22 65.7452C137.293 65.7758 137.336 65.8126 137.33 65.9044C137.324 66.0575 137.33 66.2106 137.33 66.3943V66.4066Z" fill="black"/>
<path d="M125.074 66.1374C125.417 65.7883 125.766 65.4454 126.152 65.078V65.6291C126.231 65.6842 126.299 65.6659 126.36 65.6659C126.556 65.6659 126.758 65.6659 126.954 65.6659C127.027 65.6659 127.052 65.6842 127.058 65.7639C127.089 66.1864 127.095 66.1864 126.678 66.1864C126.544 66.1864 126.415 66.1864 126.28 66.1864C126.182 66.1864 126.158 66.2231 126.158 66.315C126.158 66.7681 126.158 67.2213 126.158 67.6744C126.158 67.9806 126.311 68.1031 126.623 68.0908C126.758 68.0908 126.88 68.0419 127.003 67.9929C127.064 67.9684 127.119 67.9439 127.199 67.9071C127.199 68.0663 127.199 68.2011 127.199 68.3419C127.199 68.4154 127.162 68.446 127.107 68.4705C126.795 68.6052 126.476 68.6603 126.146 68.5562C125.809 68.4521 125.613 68.2011 125.594 67.8459C125.582 67.5275 125.582 67.2029 125.582 66.8784C125.582 66.6947 125.576 66.5109 125.582 66.3272C125.588 66.2048 125.539 66.1741 125.429 66.1803C125.313 66.1864 125.202 66.1803 125.086 66.1803C125.08 66.1619 125.074 66.1496 125.068 66.1313L125.074 66.1374Z" fill="black"/>
<path d="M115.141 66.3708C115.141 67.0444 115.141 67.718 115.141 68.3916C115.141 68.5569 115.141 68.563 114.969 68.5569C114.841 68.5569 114.675 68.612 114.589 68.5263C114.51 68.4467 114.565 68.2875 114.565 68.165C114.565 66.928 114.565 65.691 114.565 64.4541C114.565 64.4112 114.565 64.3683 114.565 64.3255C114.547 64.203 114.602 64.1724 114.712 64.1846C114.804 64.1907 114.902 64.1969 115 64.1846C115.122 64.1724 115.141 64.2275 115.141 64.3377C115.141 65.0174 115.141 65.6972 115.141 66.383V66.3708Z" fill="#010101"/>
<path d="M130.682 66.426C130.591 66.3587 130.505 66.2974 130.419 66.2484C130.15 66.0954 129.899 66.1382 129.69 66.3709C129.556 66.524 129.476 66.7016 129.458 66.9037C129.427 67.2405 129.452 67.5773 129.445 67.9141C129.445 68.0794 129.445 68.2509 129.445 68.4162C129.445 68.5142 129.421 68.5571 129.311 68.5632C128.87 68.5816 128.87 68.5816 128.87 68.1345C128.87 67.3752 128.87 66.6097 128.87 65.8504C128.87 65.6545 128.87 65.6667 129.047 65.6728C129.176 65.6728 129.347 65.6116 129.421 65.7096C129.482 65.7892 129.439 65.9484 129.445 66.0709C129.445 66.126 129.433 66.1872 129.458 66.2423C129.525 66.2423 129.531 66.1872 129.562 66.1505C129.654 66.028 129.746 65.9055 129.862 65.8014C130.125 65.581 130.389 65.5503 130.695 65.7157C130.738 65.7402 130.78 65.7708 130.823 65.8014C130.938 65.8831 130.958 65.9851 130.885 66.1076C130.823 66.2117 130.756 66.3158 130.689 66.426H130.682Z" fill="#010101"/>
<path d="M140.152 32.0955C140.911 32.0955 141.511 32.6895 141.505 33.4427C141.505 34.1898 140.899 34.7838 140.14 34.7838C139.386 34.7838 138.786 34.1837 138.786 33.4366C138.786 32.6895 139.386 32.1016 140.152 32.1016V32.0955Z" fill="#010101"/>
<path d="M132.607 67.0807C132.607 66.6643 132.607 66.2479 132.607 65.8315C132.607 65.6723 132.607 65.6723 132.76 65.6723C132.87 65.6723 132.98 65.6723 133.09 65.6723C133.17 65.6723 133.194 65.7029 133.188 65.7764C133.188 65.8131 133.188 65.8499 133.188 65.8866C133.188 66.7072 133.188 67.5216 133.188 68.3422C133.188 68.5872 133.188 68.5688 132.98 68.5627C132.864 68.5627 132.723 68.6117 132.643 68.5382C132.551 68.4524 132.613 68.2993 132.607 68.183C132.607 67.8156 132.607 67.4543 132.607 67.0869V67.0807Z" fill="#020202"/>
<path d="M92.9163 63.9262C92.9102 64.2321 92.6532 64.4769 92.3473 64.4646C92.0413 64.4585 91.8027 64.2076 91.8088 63.8956C91.8088 63.5897 92.0658 63.3388 92.3656 63.3388C92.6715 63.3388 92.9285 63.608 92.9224 63.9201L92.9163 63.9262Z" fill="#010101"/>
<path d="M132.892 65.1387C132.721 65.1387 132.562 64.9735 132.562 64.796C132.562 64.6186 132.715 64.4656 132.899 64.4656C133.088 64.4656 133.247 64.6247 133.241 64.8144C133.229 64.9918 133.07 65.1448 132.892 65.1387Z" fill="#030303"/>
<path d="M113.689 39.9229C113.689 39.88 113.714 39.8433 113.775 39.7944C113.775 39.9045 113.787 39.984 113.738 40.0636C113.714 40.0208 113.738 39.9596 113.689 39.929V39.9229Z" fill="#F6BDC0"/>
<path d="M130.873 46.3403C130.842 46.3839 130.817 46.3839 130.786 46.3403C130.817 46.3403 130.842 46.3403 130.873 46.3403Z" fill="#EE1C24"/>
<path d="M129.864 30.259C129.833 30.2964 129.802 30.2964 129.777 30.259C129.808 30.259 129.833 30.259 129.864 30.259Z" fill="#EE1C24"/>
<path d="M129.161 46.3403C129.13 46.3777 129.099 46.3777 129.074 46.3403C129.105 46.3403 129.13 46.3403 129.161 46.3403Z" fill="#EE1C24"/>
<path d="M130.656 30.3027C130.625 30.3401 130.594 30.3401 130.569 30.3027C130.6 30.3027 130.625 30.3027 130.656 30.3027Z" fill="#EE1C24"/>
<path d="M103.755 39.3953C103.724 39.4389 103.699 39.4389 103.668 39.3953C103.699 39.3953 103.724 39.3953 103.755 39.3953Z" fill="#EE1C24"/>
<path d="M106.175 30.6078C106.144 30.6452 106.112 30.6452 106.087 30.6078H106.175Z" fill="#EE1C24"/>
<path d="M105.557 30.5652C105.526 30.6026 105.494 30.6026 105.47 30.5652C105.501 30.5652 105.526 30.5652 105.557 30.5652Z" fill="#EE1C24"/>
<path d="M126.478 30.3027C126.478 30.3027 126.446 30.3281 126.433 30.3027C126.446 30.3027 126.465 30.3027 126.478 30.3027Z" fill="#EE1C24"/>
<path d="M131.181 30.3453C131.181 30.3453 131.15 30.3643 131.137 30.3453C131.15 30.3453 131.169 30.3453 131.181 30.3453Z" fill="#EE1C24"/>
<path d="M131.493 46.291C131.493 46.291 131.468 46.3163 131.449 46.291C131.461 46.291 131.48 46.291 131.493 46.291Z" fill="#EE1C24"/>
<path d="M128.59 46.2967C128.59 46.2967 128.559 46.3157 128.546 46.2967C128.559 46.2967 128.578 46.2967 128.59 46.2967Z" fill="#EE1C24"/>
<path d="M132.24 46.2057C132.24 46.2057 132.215 46.2311 132.196 46.2057H132.24Z" fill="#EE1C24"/>
<path d="M125.994 30.3453C125.994 30.3453 125.969 30.3706 125.95 30.3453C125.963 30.3453 125.982 30.3453 125.994 30.3453Z" fill="#EE1C24"/>
<path d="M127.183 30.259C127.183 30.259 127.151 30.2843 127.138 30.259C127.151 30.259 127.17 30.259 127.183 30.259Z" fill="#EE1C24"/>
<path d="M106.964 30.7006C106.964 30.7006 106.932 30.7196 106.92 30.7006H106.964Z" fill="#EE1C24"/>
<path d="M132.676 30.5236C132.676 30.5236 132.645 30.5426 132.632 30.5236C132.645 30.5236 132.664 30.5236 132.676 30.5236Z" fill="#EE1C24"/>
<path d="M131.622 30.389C131.622 30.389 131.591 30.408 131.578 30.389C131.591 30.389 131.61 30.389 131.622 30.389Z" fill="#EE1C24"/>
<path d="M96.5992 66.6575C96.5992 66.8534 96.5992 67.0494 96.5992 67.2515C96.5992 67.3188 96.587 67.374 96.5258 67.4229C96.2931 67.6005 96.0297 67.674 95.7419 67.6005C95.4909 67.5332 95.3255 67.3617 95.252 67.1168C95.1602 66.8167 95.1602 66.5105 95.2643 66.2105C95.4296 65.7328 95.8399 65.5613 96.2992 65.7634C96.4992 65.8532 96.5992 66.0063 96.5992 66.2227C96.5992 66.3697 96.5992 66.5166 96.5992 66.6636V66.6575Z" fill="white"/>
<path d="M61.4682 66.7253C61.4744 67.0376 61.4009 67.3193 61.1743 67.5458C60.9049 67.8153 60.5681 67.8643 60.219 67.7601C59.8761 67.656 59.6618 67.4172 59.6066 67.0559C59.5699 66.7987 59.5577 66.5354 59.6005 66.2905C59.6556 65.9598 59.9067 65.7638 60.219 65.672C60.8742 65.4883 61.4131 65.8741 61.4682 66.5477C61.4682 66.6028 61.4682 66.664 61.4682 66.7253Z" fill="white"/>
<path d="M101.376 66.3094C101.339 66.3339 101.29 66.3278 101.247 66.3278C100.819 66.3278 100.39 66.3278 99.9612 66.3278C99.949 65.8501 100.249 65.5317 100.696 65.5378C101.131 65.5378 101.394 65.8379 101.376 66.3094Z" fill="#FCFCFC"/>
<path d="M89.7313 66.3207H88.3045C88.28 65.8798 88.5739 65.5553 88.9965 65.5369C89.4496 65.5247 89.7068 65.7941 89.7252 66.3207H89.7313Z" fill="#FCFCFC"/>
<path d="M117.636 66.8119C117.703 66.3343 117.997 66.0832 118.444 66.1077C118.811 66.1322 119.044 66.4017 119.044 66.8119H117.636Z" fill="#FEFFFF"/>
<path d="M140.158 32.3165C140.764 32.3165 141.248 32.8248 141.235 33.4433C141.229 34.074 140.752 34.5578 140.145 34.5578C139.527 34.5578 139.049 34.0557 139.055 33.4188C139.061 32.7942 139.545 32.3165 140.158 32.3165Z" fill="white"/>
<path d="M140.788 34.1908C140.61 34.2398 140.506 34.1908 140.433 34.0377C140.366 33.8907 140.274 33.7621 140.188 33.6274C140.139 33.5539 139.961 33.5049 139.9 33.5539C139.857 33.5845 139.87 33.6335 139.87 33.6764C139.863 33.8478 139.882 34.0254 139.857 34.203C139.814 34.203 139.778 34.2091 139.747 34.2153C139.667 34.2214 139.631 34.203 139.631 34.105C139.631 33.6641 139.631 33.2294 139.631 32.7884C139.631 32.6905 139.667 32.6598 139.759 32.666C139.937 32.666 140.108 32.666 140.286 32.666C140.58 32.6721 140.739 32.7884 140.77 33.015C140.806 33.2783 140.702 33.4314 140.39 33.5355C140.525 33.7499 140.659 33.9642 140.8 34.1908H140.788Z" fill="#030202"/>
<path d="M140.168 33.3326C140.089 33.3326 140.058 33.3326 140.034 33.3326C139.874 33.3326 139.868 33.3326 139.868 33.1613C139.874 32.8125 139.789 32.8493 140.199 32.8554C140.254 32.8554 140.315 32.8676 140.37 32.886C140.48 32.9166 140.517 32.9961 140.511 33.1062C140.511 33.2164 140.456 33.2898 140.352 33.3143C140.272 33.3326 140.193 33.3326 140.162 33.3326H140.168Z" fill="#FCFDFD"/>
</svg>
