<svg width="200" height="100" viewBox="0 0 200 100" fill="none" xmlns="http://www.w3.org/2000/svg">
<path d="M100.003 59.2482C81.3319 59.2482 62.6667 59.2482 43.9956 59.2482C43.8149 59.2482 43.7847 59.2121 43.7847 59.0374C43.7847 53.0064 43.7847 46.9695 43.7847 40.9386C43.7847 40.7819 43.8149 40.7458 43.9715 40.7458C81.3258 40.7458 118.68 40.7458 156.035 40.7458C156.185 40.7458 156.215 40.7759 156.215 40.9265C156.215 46.9695 156.215 53.0064 156.215 59.0494C156.215 59.2121 156.185 59.2543 156.016 59.2543C137.345 59.2543 118.68 59.2543 100.009 59.2543L100.003 59.2482Z" fill="#FEFEFE"/>
<path d="M72.7167 59.1573C71.6623 59.1573 70.608 59.1573 69.5596 59.1694C69.4512 59.1694 69.415 59.1332 69.4271 59.0308C69.4271 58.9886 69.4271 58.9404 69.4271 58.8983C69.4271 52.9577 69.4271 47.0232 69.4271 41.0826C69.4271 40.8597 69.4753 40.8115 69.6982 40.8115C73.518 40.8356 77.3378 40.8175 81.1515 40.8778C81.2118 40.8778 81.266 40.8778 81.3263 40.8838C81.5673 40.9621 81.8082 40.9019 82.0492 40.92C82.3204 40.938 82.5975 40.8778 82.8626 40.9561C83.8748 40.9561 84.8568 41.0826 85.7967 41.4803C86.4474 41.7574 87.0198 42.1731 87.4837 42.6913C88.2971 43.601 88.7188 44.6916 88.779 45.9086C88.8393 47.1618 88.5622 48.3185 87.8572 49.3729C87.2306 50.3068 86.3811 50.9213 85.3268 51.3129C84.0977 51.7708 82.8626 51.7226 81.6034 51.4997C81.6215 51.5238 81.6395 51.5539 81.6636 51.578C82.1517 52.066 82.6517 52.548 83.1277 53.0481C83.8025 53.747 84.4833 54.4278 85.1641 55.1146C85.7365 55.693 86.3028 56.2774 86.8752 56.8558C87.5379 57.5306 88.1886 58.2174 88.8694 58.8742C88.9116 58.9163 88.9658 58.9645 88.9477 59.0188C88.9236 59.0911 88.8453 59.0489 88.7971 59.0489C87.568 59.0489 86.339 59.0489 85.1099 59.0489C85.0135 59.0489 84.9231 59.0489 84.8809 58.9284C84.8689 58.8983 84.8327 58.8742 84.8086 58.8501C84.2544 58.3018 83.688 57.7656 83.1458 57.2053C82.5132 56.5606 81.8745 55.928 81.2359 55.2893C80.6033 54.6567 79.9767 54.0181 79.3441 53.3855C78.7054 52.7468 78.0728 52.1082 77.4342 51.4696C76.8076 50.843 76.181 50.2164 75.5604 49.5777C75.2592 49.2705 74.9459 48.9813 74.6507 48.668C74.729 48.6017 74.8133 48.6318 74.8917 48.6318C77.6149 48.6318 80.3321 48.6318 83.0554 48.6318C83.2241 48.6318 83.3928 48.6198 83.5615 48.6258C84.0616 48.6318 84.5134 48.4631 84.9532 48.2402C85.5919 47.9149 85.8931 47.3485 85.9714 46.6798C86.0498 45.9929 86.0196 45.3121 85.6401 44.6855C85.4654 44.3963 85.2244 44.2035 84.9352 44.0589C84.6038 43.8963 84.2423 43.836 83.8808 43.7878C83.8025 43.7276 83.7121 43.7577 83.6278 43.7517C80.1333 43.7517 76.6389 43.7517 73.1384 43.7517C73.0661 43.7517 72.9938 43.7517 72.9215 43.7517C72.8071 43.7517 72.7408 43.7878 72.7528 43.9143C72.7528 43.9746 72.7528 44.0288 72.7528 44.0891C72.7528 49.0174 72.7528 53.9458 72.7528 58.8742C72.7528 58.9585 72.7769 59.0489 72.7348 59.1332L72.7167 59.1573Z" fill="#16325B"/>
<path d="M112.789 51.3611C112.487 51.3491 112.192 51.325 111.891 51.325C109.192 51.325 106.493 51.325 103.793 51.3129C102.896 51.3129 102.028 51.1081 101.251 50.6562C99.7206 49.7705 98.8049 48.4631 98.6542 46.6798C98.5398 45.288 98.8832 44.0107 99.7327 42.8781C99.9918 42.5346 100.299 42.2575 100.618 41.9804C101.251 41.42 102.01 41.167 102.805 40.9501C103.221 40.8356 103.637 40.8115 104.053 40.8115C108.155 40.8115 112.258 40.8115 116.367 40.8115C116.669 40.8115 116.669 40.8115 116.53 41.0766C116.12 41.8659 115.705 42.6491 115.307 43.4444C115.229 43.601 115.132 43.6372 114.97 43.6372C111.379 43.6372 107.788 43.6372 104.191 43.6372C104.016 43.6372 103.842 43.6372 103.667 43.6492C103.179 43.6854 102.733 43.8722 102.335 44.1373C101.715 44.547 101.498 45.1796 101.438 45.8785C101.384 46.5111 101.492 47.1196 101.884 47.6377C102.155 47.9932 102.552 48.1739 102.974 48.2824C103.354 48.3788 103.739 48.4029 104.125 48.4089C106.896 48.4089 109.668 48.3908 112.445 48.427C113.572 48.4451 114.668 48.7343 115.602 49.3849C117.253 50.5417 118.024 52.1443 117.874 54.1687C117.789 55.2652 117.434 56.2714 116.801 57.1751C116.735 57.2715 116.657 57.3559 116.578 57.4463C115.952 58.1451 115.199 58.6271 114.295 58.9103C113.668 59.1091 113.048 59.1633 112.403 59.1633C108.125 59.1633 103.842 59.1633 99.564 59.1633C99.4736 59.1633 99.3893 59.1633 99.2808 59.1633C99.329 59.0549 99.3591 58.9645 99.4073 58.8802C99.8592 58.0849 100.323 57.2896 100.769 56.4883C100.871 56.3076 100.98 56.2413 101.191 56.2413C104.812 56.2473 108.433 56.2413 112.054 56.2413C112.355 56.2413 112.662 56.2594 112.945 56.169C113.421 56.0244 113.915 55.8979 114.307 55.5605C114.982 54.9881 115.181 54.247 115.072 53.3975C114.927 52.2709 114.144 51.5358 112.981 51.4334C112.927 51.3852 112.849 51.4033 112.795 51.3551L112.789 51.3611Z" fill="#16325B"/>
<path d="M56.4342 40.9632C57.0307 41.0837 57.4946 41.3849 57.8079 41.9151C58.1332 42.4574 58.4706 42.9936 58.802 43.5358C59.4045 44.5299 60.007 45.5301 60.6094 46.5242C60.9649 47.1146 61.3204 47.7111 61.6819 48.3015C62.2904 49.3016 62.8989 50.3078 63.5014 51.3079C63.8508 51.8863 64.2003 52.4647 64.5497 53.0431C65.1522 54.0372 65.7547 55.0313 66.3632 56.0314C66.7428 56.658 67.1344 57.2846 67.5019 57.9172C67.6947 58.2426 67.8935 58.5619 68.0924 58.8872C68.1647 59.0017 68.2008 59.08 68.002 59.074C66.9717 59.074 65.9415 59.074 64.9052 59.074C64.7967 59.074 64.7485 59.0379 64.6943 58.9354C64.5136 58.5981 64.2967 58.2727 64.0979 57.9413C63.5918 57.0737 63.0555 56.2242 62.5374 55.3627C61.947 54.3866 61.3565 53.4046 60.7781 52.4225C60.4166 51.808 60.0552 51.1935 59.6816 50.5849C59.0912 49.621 58.5188 48.651 57.9404 47.687C57.5669 47.0604 57.1933 46.4398 56.8198 45.8132C56.5667 45.3915 56.3197 44.9637 56.0606 44.5239C54.8195 46.6206 53.5844 48.7052 52.3252 50.8259H59.1454C59.0068 51.073 58.8863 51.2959 58.7538 51.5128C58.3441 52.1996 57.9284 52.8804 57.5187 53.5733C57.4464 53.6998 57.356 53.748 57.2054 53.748C55.0665 53.748 52.9337 53.748 50.7949 53.742C50.6262 53.742 50.5298 53.7842 50.4454 53.9348C49.843 54.965 49.2284 55.9893 48.6199 57.0135C48.2584 57.628 47.8668 58.2245 47.5414 58.8571C47.3908 59.1523 47.2101 59.1885 46.9329 59.1825C46.0171 59.1704 45.1014 59.1825 44.1916 59.1825H43.9566C44.0109 59.074 44.047 58.9776 44.0952 58.8933C44.3422 58.4896 44.5892 58.0859 44.8363 57.6823C45.3122 56.899 45.7942 56.1158 46.2702 55.3326C46.6498 54.706 47.0293 54.0734 47.4089 53.4468C47.9933 52.4828 48.5777 51.5188 49.1621 50.5488C49.5357 49.9343 49.9092 49.3137 50.2767 48.6991C50.8672 47.7231 51.4576 46.7471 52.0481 45.765C52.4156 45.1625 52.7771 44.554 53.1446 43.9515C53.5724 43.2406 53.9821 42.5176 54.44 41.8308C54.7472 41.3729 55.2111 41.0957 55.7534 40.9873C55.898 40.9572 56.0365 40.8608 56.1932 40.8969C56.2595 40.9572 56.3559 40.909 56.4221 40.9692L56.4342 40.9632Z" fill="#16325B"/>
<path d="M155.991 59.1688C154.87 59.1688 153.792 59.1688 152.707 59.1688C152.599 59.1688 152.551 59.1206 152.508 59.0363C152.304 58.6688 152.105 58.3013 151.888 57.9337C151.382 57.0662 150.864 56.2046 150.358 55.337C149.791 54.373 149.225 53.403 148.665 52.433C148.116 51.4931 147.568 50.5472 147.014 49.6073C146.453 48.6434 145.893 47.6854 145.333 46.7274C144.965 46.1008 144.604 45.4682 144.23 44.8416C144.152 44.7031 144.116 44.5404 143.983 44.4259C142.748 46.5105 141.513 48.5891 140.266 50.6978H147.086C146.923 50.981 146.779 51.2461 146.622 51.5052C146.236 52.1498 145.845 52.7885 145.465 53.4331C145.381 53.5838 145.285 53.638 145.104 53.638C142.941 53.632 140.772 53.638 138.609 53.632C138.452 53.632 138.362 53.6741 138.278 53.8127C137.651 54.8791 137.012 55.9395 136.386 57.0059C135.994 57.6686 135.603 58.3374 135.223 59.0062C135.181 59.0845 135.121 59.0724 135.054 59.0724C134.018 59.0724 132.976 59.0724 131.939 59.0724C131.759 59.0724 131.783 59.0001 131.849 58.8977C132.042 58.5784 132.241 58.2711 132.427 57.9458C132.94 57.0782 133.476 56.2287 133.994 55.3732C134.59 54.3911 135.187 53.409 135.783 52.427C136.157 51.8124 136.524 51.1919 136.898 50.5773C137.476 49.6194 138.061 48.6614 138.639 47.7035C139.025 47.0709 139.404 46.4322 139.79 45.7996C140.368 44.8416 140.965 43.8897 141.525 42.9197C141.742 42.5401 141.977 42.1726 142.206 41.8051C142.429 41.4496 142.778 41.2086 143.158 41.0158C143.435 40.8773 143.712 40.7929 144.013 40.8411C144.652 40.9375 145.158 41.2689 145.495 41.8051C145.73 42.1726 145.959 42.5401 146.17 42.9257C146.441 43.4198 146.749 43.8837 147.044 44.3657C147.676 45.408 148.315 46.4563 148.948 47.4986C149.321 48.1132 149.695 48.7337 150.062 49.3483C150.641 50.3062 151.225 51.2642 151.803 52.2221C152.189 52.8548 152.569 53.4934 152.954 54.126C153.533 55.084 154.117 56.0419 154.695 56.9999C155.075 57.6204 155.449 58.241 155.822 58.8676C155.876 58.958 155.918 59.0604 155.979 59.1809L155.991 59.1688Z" fill="#16325B"/>
<path d="M118.539 43.6373C118.563 43.5891 118.575 43.559 118.587 43.5409C118.87 43.1192 119.153 42.6914 119.436 42.2697C119.738 41.8118 120.033 41.3599 120.328 40.902C120.364 40.8478 120.406 40.8177 120.473 40.8237C120.521 40.8237 120.575 40.8237 120.623 40.8237C125.702 40.8237 130.775 40.8237 135.854 40.8237C136.065 40.8237 136.137 40.8659 136.131 41.0948C136.113 41.8781 136.119 42.6553 136.131 43.4385C136.131 43.6132 136.083 43.6554 135.914 43.6554C133.788 43.6554 131.655 43.6554 129.528 43.6433C129.329 43.6433 129.293 43.6976 129.293 43.8843C129.293 48.8971 129.293 53.9037 129.299 58.9165C129.299 59.1213 129.263 59.1876 129.04 59.1816C128.154 59.1695 127.269 59.1816 126.383 59.1816C126.178 59.1816 126.076 59.0831 126.076 58.8863C126.076 53.9037 126.076 48.9272 126.076 43.9446C126.076 43.7518 125.979 43.6554 125.787 43.6554C123.455 43.6554 121.117 43.6554 118.786 43.6554H118.533L118.539 43.6373Z" fill="#16325B"/>
<path d="M92.2098 49.9822C92.2098 47.0119 92.2098 44.0357 92.2098 41.0654C92.2098 40.8605 92.264 40.8184 92.4628 40.8184C93.3786 40.8304 94.2944 40.8244 95.2041 40.8184C95.3608 40.8184 95.427 40.8425 95.427 41.0292C95.427 47.0119 95.427 52.9947 95.427 58.9774C95.427 59.1461 95.3788 59.1822 95.2222 59.1762C94.2944 59.1702 93.3665 59.1642 92.4327 59.1762C92.2459 59.1762 92.2098 59.122 92.2098 58.9473C92.2098 55.9589 92.2098 52.9706 92.2098 49.9822Z" fill="#16325B"/>
<path d="M72.7172 59.1579C72.7172 54.1392 72.7172 49.1205 72.7172 44.1017C72.7172 43.8487 72.8457 43.7222 73.1028 43.7222C76.4406 43.7222 79.7724 43.7222 83.1102 43.7222C83.3029 43.7222 83.4897 43.7282 83.6825 43.7342C83.7187 43.7523 83.7187 43.7764 83.6946 43.8065C83.5138 43.8065 83.327 43.8065 83.1463 43.8065C79.7724 43.8065 76.4044 43.8065 73.0305 43.8065C72.8076 43.8065 72.7534 43.8607 72.7534 44.0837C72.7594 49.018 72.7534 53.9585 72.7534 58.8928C72.7534 58.9832 72.7955 59.0796 72.7112 59.1579H72.7172Z" fill="#9BA7B8"/>
<path d="M82.8616 40.9621C82.5847 40.9621 82.3138 40.9621 82.0369 40.9621C82.0008 40.944 82.0008 40.9199 82.0189 40.8898C82.2657 40.8898 82.5065 40.8898 82.7533 40.8898C82.8075 40.8898 82.8556 40.9019 82.8677 40.9621H82.8616Z" fill="#A9B3C2"/>
<path d="M82.0141 40.8902C82.0141 40.8902 82.0262 40.9384 82.0322 40.9625C81.8456 40.9625 81.659 40.9625 81.4723 40.9625C81.4061 40.9625 81.3399 40.9745 81.3218 40.8842C81.5506 40.8842 81.7854 40.8842 82.0141 40.8842V40.8902Z" fill="#253F65"/>
<path d="M56.4312 40.9625C56.3469 40.9625 56.2506 41.0046 56.2024 40.8903C56.2867 40.8842 56.389 40.8361 56.4312 40.9625Z" fill="#A3AFBF"/>
<path d="M83.6934 43.8114C83.6934 43.8114 83.6813 43.7633 83.6813 43.7392C83.7535 43.7392 83.8378 43.7031 83.8679 43.8114C83.8077 43.8114 83.7535 43.8114 83.6934 43.8114Z" fill="#3D5576"/>
<path d="M112.79 51.3616C112.868 51.3556 112.946 51.3376 112.976 51.4399C112.898 51.4519 112.82 51.47 112.79 51.3616Z" fill="#B6BFCC"/>
</svg>
