<svg width="200" height="100" viewBox="0 0 200 100" fill="none" xmlns="http://www.w3.org/2000/svg">
<path d="M24.847 58.2777V41.7222H175.153V58.2777H24.847ZM25.4289 57.317C25.6048 57.2155 25.7131 57.1546 25.8145 57.0938C29.9687 54.516 34.1228 51.9315 38.2836 49.3606C38.4596 49.2523 38.6964 49.1779 38.9061 49.1779C40.9493 49.1644 42.9925 49.1712 45.0358 49.1712C45.3064 49.1712 45.6176 49.117 45.7123 49.4756C45.8071 49.8274 45.5026 49.9222 45.2861 50.0507C43.297 51.2482 41.3011 52.4457 39.3053 53.623C38.8046 53.9207 38.5746 54.3334 38.5746 54.8949C38.5746 55.6053 38.5746 56.3157 38.5746 57.0329C38.5746 57.1073 38.5881 57.1817 38.5949 57.2561H46.7069V56.9246C46.7069 52.439 46.7069 47.9533 46.7069 43.4745C46.7069 42.8859 46.5648 42.7438 45.983 42.7438C43.5473 42.7438 41.1117 42.7438 38.6761 42.7438C38.5204 42.7438 38.3445 42.7911 38.216 42.8723C34.0213 45.4636 29.8333 48.0616 25.6386 50.6528C25.4763 50.7543 25.4221 50.8558 25.4221 51.0453C25.4289 53.0208 25.4221 55.0032 25.4221 56.9787C25.4221 57.0667 25.4221 57.1479 25.4221 57.3102L25.4289 57.317ZM98.7483 50.0575C98.7619 50.2943 98.7754 50.6258 98.8025 50.9505C98.8295 51.2144 98.8634 51.4715 98.9175 51.7286C99.452 54.3807 100.94 56.2345 103.532 57.1073C105.67 57.8244 107.841 57.8177 109.986 57.1343C112.077 56.4713 113.545 55.1046 114.316 53.0479C114.864 51.5933 114.979 50.0845 114.742 48.5555C114.316 45.7816 112.841 43.8128 110.148 42.8723C108.22 42.1958 106.238 42.1755 104.256 42.6288C102.767 42.9671 101.482 43.6707 100.48 44.8411C99.2152 46.3161 98.7686 48.0684 98.7416 50.0575H98.7483ZM116.894 42.7641V57.2561C116.995 57.2561 117.083 57.2697 117.164 57.2697C119.377 57.2697 121.582 57.2832 123.795 57.2629C124.505 57.2629 125.222 57.1952 125.926 57.1005C128.24 56.7758 129.539 55.6121 130.019 53.3456C130.222 52.3984 130.29 51.4174 130.33 50.4499C130.391 49.0561 130.33 47.6624 129.965 46.3025C129.566 44.8344 128.707 43.7722 127.245 43.2444C126.44 42.9535 125.601 42.7979 124.749 42.7844C122.198 42.7505 119.647 42.7573 117.097 42.7438C117.029 42.7438 116.962 42.7573 116.894 42.7708V42.7641ZM159.281 47.3106C159.193 46.8844 159.145 46.4987 159.03 46.1266C158.496 44.3743 157.251 43.3324 155.56 42.7708C153.807 42.189 152.014 42.2431 150.228 42.5679C149.761 42.6558 149.295 42.7911 148.855 42.9671C146.642 43.8534 145.817 45.6598 146.02 47.8451C146.169 49.4486 147.082 50.4363 148.571 50.9302C149.004 51.0723 149.457 51.1873 149.903 51.2482C151.29 51.4241 152.677 51.5662 154.071 51.7218C154.579 51.7827 155.079 51.8842 155.499 52.2089C156.053 52.6352 156.081 53.3591 155.526 53.7853C155.262 53.9883 154.937 54.1372 154.612 54.2319C153.719 54.4957 152.792 54.4822 151.879 54.374C151.365 54.3131 150.844 54.171 150.357 53.9883C149.843 53.7989 149.525 53.3794 149.403 52.8381C149.355 52.6284 149.281 52.5743 149.078 52.5811C148.07 52.5878 147.062 52.5811 146.054 52.5811C145.973 52.5811 145.885 52.5946 145.797 52.6014C145.797 52.6758 145.797 52.7231 145.797 52.7705C145.878 54.922 147.103 56.4984 149.227 57.1479C150.898 57.6621 152.61 57.7162 154.335 57.5268C155.533 57.3914 156.683 57.0802 157.677 56.3698C159.26 55.24 159.714 53.6636 159.348 51.8301C159.003 50.1184 157.84 49.1712 156.189 48.8599C154.788 48.5961 153.361 48.4946 151.947 48.3119C151.277 48.2307 150.6 48.1563 150.012 47.791C149.396 47.4121 149.328 46.6746 149.89 46.2281C150.154 46.0184 150.492 45.856 150.817 45.7545C151.541 45.5245 152.299 45.4906 153.05 45.5583C154.234 45.6598 155.275 45.9845 155.627 47.2971H159.281V47.3106ZM136.149 51.4783H142.563V48.3322H136.156V45.8695H144.126V42.7573H132.441V57.2494H144.132V54.1169H136.149V51.4783ZM69.6289 42.71C69.6289 42.7911 69.6154 42.8588 69.6154 42.9265C69.6154 46.0184 69.6019 49.1103 69.6154 52.2022C69.6289 54.4348 70.7115 55.9909 72.7479 56.8772C74.5611 57.6621 76.4623 57.7432 78.3905 57.4253C79.4527 57.2494 80.454 56.8908 81.3335 56.2548C82.6799 55.2873 83.3362 53.9477 83.3497 52.324C83.3768 49.1847 83.3565 46.0454 83.3565 42.9062C83.3565 42.8385 83.3429 42.7776 83.3362 42.7167H79.6489C79.6489 42.825 79.6489 42.9129 79.6489 43.0009C79.6489 45.9236 79.6489 48.8532 79.6557 51.7759C79.6557 53.0547 78.9926 53.9071 77.7477 54.1845C76.9156 54.374 76.0766 54.374 75.2512 54.171C74.2905 53.9409 73.6207 53.3862 73.4042 52.3916C73.3433 52.1007 73.323 51.7895 73.323 51.4918C73.323 48.684 73.323 45.8763 73.323 43.0685V42.71H69.6289ZM69.1283 57.2697C69.0877 57.1343 69.0674 57.0532 69.0336 56.972C67.2204 52.3104 65.4004 47.6489 63.594 42.9806C63.5128 42.7776 63.4113 42.7303 63.2083 42.7303C61.8214 42.737 60.4344 42.737 59.0407 42.7303C58.8107 42.7303 58.7227 42.8182 58.6483 43.0144C56.8689 47.6624 55.0828 52.3037 53.2966 56.9449C53.2628 57.0396 53.2222 57.1411 53.1816 57.2697C54.4333 57.2697 55.6443 57.2697 56.8554 57.2629C56.9298 57.2629 57.0448 57.1479 57.0786 57.0599C57.3628 56.3022 57.6334 55.5444 57.8973 54.7799C57.9582 54.6108 58.0326 54.5363 58.2288 54.5363C60.157 54.5431 62.0785 54.5431 64.0067 54.5363C64.1758 54.5363 64.2435 54.5905 64.2976 54.7461C64.5141 55.382 64.7374 56.018 64.9606 56.6472C65.105 57.0622 65.3959 57.2697 65.8334 57.2697C66.9159 57.2697 68.0052 57.2697 69.1283 57.2697ZM174.774 42.7573C174.646 42.7438 174.585 42.737 174.517 42.737C173.204 42.737 171.899 42.737 170.586 42.7438C170.458 42.7438 170.295 42.8385 170.2 42.94C168.57 44.7397 166.946 46.5529 165.322 48.3593C165.255 48.4337 165.214 48.5352 165.167 48.6231C165.133 48.5961 165.092 48.569 165.059 48.5352V42.7506H161.385V57.2494H165.079V51.7489C165.268 51.9518 165.397 52.0939 165.532 52.2428C167 53.853 168.462 55.4632 169.93 57.0667C170.025 57.1682 170.187 57.2561 170.315 57.2561C171.723 57.2697 173.13 57.2629 174.537 57.2629C174.598 57.2629 174.659 57.2426 174.761 57.2291C172.494 54.8273 170.261 52.466 168.015 50.0913C170.268 47.6421 172.494 45.2268 174.767 42.7573H174.774ZM93.4711 57.2561V45.883H98.1394V42.7641H85.0817V45.883H89.7771V57.2697C90.9543 57.2697 92.0977 57.2697 93.2411 57.2697C93.3088 57.2697 93.3764 57.2629 93.4779 57.2561H93.4711Z" fill="white"/>
<path d="M25.43 57.3182C25.43 57.1558 25.43 57.0679 25.43 56.9867C25.43 55.0111 25.43 53.0288 25.43 51.0532C25.43 50.8637 25.4841 50.7623 25.6465 50.6608C29.8412 48.0695 34.0291 45.4715 38.2239 42.8803C38.3524 42.7991 38.5283 42.7517 38.6839 42.7517C41.1196 42.745 43.5552 42.7517 45.9908 42.7517C46.5727 42.7517 46.7148 42.9006 46.7148 43.4824C46.7148 47.968 46.7148 52.4537 46.7148 56.9325V57.2641H38.6027C38.596 57.1896 38.5824 57.1152 38.5824 57.0408C38.5824 56.3304 38.5824 55.62 38.5824 54.9028C38.5824 54.3413 38.8125 53.9286 39.3131 53.6309C41.3158 52.4537 43.3049 51.2494 45.294 50.0586C45.5105 49.9301 45.8149 49.8354 45.7202 49.4836C45.6187 49.125 45.3143 49.1791 45.0436 49.1791C43.0004 49.1791 40.9572 49.1791 38.914 49.1859C38.7042 49.1859 38.4674 49.2535 38.2915 49.3685C34.1306 51.9395 29.9765 54.5172 25.8224 57.1017C25.7142 57.1693 25.6059 57.2235 25.4368 57.325L25.43 57.3182Z" fill="black"/>
<path d="M98.7476 50.0583C98.7814 48.0692 99.2212 46.3169 100.486 44.8419C101.488 43.6782 102.773 42.9679 104.262 42.6296C106.244 42.1763 108.226 42.1966 110.154 42.8731C112.847 43.8203 114.322 45.7891 114.748 48.5563C114.985 50.0786 114.87 51.5941 114.322 53.0487C113.544 55.1054 112.076 56.4721 109.992 57.1351C107.847 57.8117 105.676 57.8252 103.538 57.1081C100.946 56.2353 99.458 54.3815 98.9235 51.7294C98.8694 51.4723 98.8356 51.2084 98.8085 50.9513C98.7747 50.6198 98.7679 50.2883 98.7544 50.0583H98.7476ZM106.805 45.5659V45.5997C106.582 45.6132 106.372 45.62 106.156 45.6403C104.424 45.7756 103.152 46.831 102.719 48.5089C102.462 49.5238 102.469 50.5386 102.746 51.5399C103.132 52.9404 104.038 53.8403 105.466 54.1989C106.197 54.3815 106.934 54.3883 107.678 54.2936C109.268 54.0906 110.412 53.1096 110.845 51.567C111.068 50.7687 111.088 49.9568 111 49.1314C110.811 47.4332 109.803 46.1951 108.213 45.7824C107.753 45.6606 107.272 45.6335 106.799 45.5591L106.805 45.5659Z" fill="black"/>
<path d="M116.893 42.7642C116.961 42.7574 117.029 42.7371 117.096 42.7371C119.647 42.7439 122.198 42.7439 124.748 42.7777C125.601 42.7913 126.44 42.9469 127.245 43.2378C128.706 43.7655 129.565 44.8277 129.965 46.2959C130.337 47.6558 130.391 49.0495 130.33 50.4432C130.289 51.4107 130.222 52.3917 130.019 53.3389C129.538 55.6054 128.239 56.7759 125.925 57.0939C125.222 57.1953 124.505 57.2495 123.794 57.2562C121.582 57.2765 119.376 57.263 117.164 57.263C117.076 57.263 116.995 57.2562 116.893 57.2495V42.7574V42.7642ZM120.601 45.8764V54.1034C121.744 54.1034 122.874 54.1643 123.99 54.0899C125.391 53.9952 126.074 53.366 126.365 52.0061C126.656 50.6191 126.656 49.2119 126.406 47.8249C126.169 46.4921 125.607 46.0049 124.248 45.9237C123.158 45.8629 122.062 45.8899 120.966 45.8764C120.851 45.8764 120.736 45.8764 120.608 45.8764H120.601Z" fill="black"/>
<path d="M159.279 47.3114H155.625C155.273 45.9989 154.232 45.6741 153.048 45.5727C152.29 45.505 151.539 45.5321 150.815 45.7689C150.49 45.8771 150.152 46.0327 149.888 46.2425C149.32 46.6958 149.387 47.4264 150.01 47.8053C150.598 48.1707 151.275 48.2383 151.945 48.3263C153.359 48.5022 154.786 48.6104 156.187 48.8743C157.838 49.1788 159.008 50.1259 159.346 51.8444C159.712 53.6779 159.258 55.2543 157.675 56.3842C156.681 57.0946 155.531 57.4058 154.333 57.5411C152.608 57.7305 150.896 57.6764 149.225 57.1622C147.101 56.5127 145.876 54.9296 145.795 52.7848C145.795 52.7375 145.795 52.6901 145.795 52.6157C145.883 52.6089 145.971 52.5954 146.052 52.5954C147.06 52.5954 148.068 52.5954 149.076 52.5954C149.279 52.5954 149.36 52.6428 149.401 52.8525C149.516 53.387 149.841 53.8065 150.355 54.0027C150.842 54.1853 151.363 54.3274 151.877 54.3883C152.79 54.4966 153.717 54.5101 154.61 54.2462C154.928 54.1515 155.253 54.0027 155.524 53.7997C156.079 53.3735 156.052 52.6495 155.497 52.2233C155.077 51.9053 154.583 51.7971 154.069 51.7362C152.682 51.5738 151.289 51.4385 149.902 51.2626C149.448 51.2017 149.002 51.0867 148.569 50.9446C147.074 50.4507 146.167 49.4697 146.018 47.8594C145.815 45.6741 146.641 43.8677 148.853 42.9814C149.293 42.8055 149.759 42.6702 150.226 42.5822C152.019 42.2575 153.805 42.2034 155.558 42.7852C157.249 43.3468 158.494 44.3887 159.028 46.141C159.143 46.5131 159.191 46.8987 159.279 47.325V47.3114Z" fill="black"/>
<path d="M136.148 51.4789V54.1175H144.131V57.25H132.44V42.758H144.125V45.8702H136.155V48.3329H142.562V51.4789H136.148Z" fill="black"/>
<path d="M69.6269 42.7108H73.3209V43.0694C73.3209 45.8771 73.3209 48.6849 73.3209 51.4926C73.3209 51.7903 73.3345 52.1015 73.4021 52.3925C73.6186 53.387 74.2884 53.9418 75.2492 54.1718C76.0813 54.3748 76.9135 54.368 77.7457 54.1854C78.9906 53.9012 79.6536 53.0555 79.6536 51.7768C79.6536 48.854 79.6536 45.9245 79.6468 43.0017C79.6468 42.9138 79.6468 42.8258 79.6468 42.7176H83.3341C83.3409 42.7785 83.3544 42.8394 83.3544 42.907C83.3544 46.0463 83.3747 49.1856 83.3477 52.3248C83.3341 53.9486 82.6779 55.2882 81.3315 56.2557C80.452 56.8916 79.4506 57.2502 78.3884 57.4261C76.4602 57.7441 74.5658 57.6629 72.7459 56.8781C70.7094 55.9918 69.6269 54.4357 69.6134 52.203C69.5931 49.1111 69.6134 46.0192 69.6134 42.9273C69.6134 42.8597 69.6201 42.792 69.6269 42.7108Z" fill="black"/>
<path d="M69.1295 57.2698C67.9996 57.2698 66.9171 57.2698 65.8346 57.2698C65.4016 57.2698 65.1107 57.0623 64.9618 56.6474C64.7386 56.0114 64.5153 55.3822 64.2988 54.7462C64.2447 54.5974 64.177 54.5365 64.0079 54.5365C62.0797 54.5365 60.1582 54.5433 58.23 54.5365C58.0338 54.5365 57.9594 54.6109 57.8985 54.78C57.6346 55.5446 57.364 56.3023 57.0798 57.0601C57.046 57.148 56.931 57.2563 56.8566 57.263C55.6455 57.2766 54.4345 57.2698 53.1828 57.2698C53.2302 57.1413 53.264 57.0465 53.2978 56.9451C55.084 52.3038 56.8701 47.6626 58.6495 43.0146C58.7239 42.8116 58.8118 42.7304 59.0419 42.7304C60.4288 42.7439 61.8158 42.7372 63.2095 42.7304C63.4125 42.7304 63.514 42.7778 63.5952 42.9807C65.4016 47.6423 67.2216 52.3038 69.0348 56.9721C69.0686 57.0533 69.0889 57.1345 69.1295 57.2698ZM63.1283 51.431C62.4653 49.5502 61.8158 47.6964 61.1325 45.7682C60.4424 47.6964 59.7726 49.5502 59.1028 51.431H63.1351H63.1283Z" fill="black"/>
<path d="M174.774 42.758C172.501 45.2275 170.275 47.6428 168.022 50.092C170.268 52.4667 172.501 54.8347 174.767 57.2298C174.666 57.2433 174.605 57.2636 174.544 57.2636C173.137 57.2636 171.73 57.2636 170.322 57.2568C170.194 57.2568 170.025 57.1689 169.937 57.0674C168.462 55.4639 167 53.8537 165.539 52.2435C165.411 52.1014 165.275 51.9593 165.086 51.7496V57.2501H161.392V42.7512H165.066V48.5359C165.099 48.5629 165.14 48.59 165.174 48.6238C165.228 48.5359 165.262 48.4344 165.329 48.36C166.953 46.5468 168.577 44.7404 170.207 42.9407C170.302 42.8392 170.464 42.7445 170.593 42.7445C171.906 42.7309 173.211 42.7377 174.524 42.7377C174.592 42.7377 174.652 42.7445 174.781 42.758H174.774Z" fill="black"/>
<path d="M93.4728 57.2558C93.3713 57.2626 93.3037 57.2694 93.236 57.2694C92.0926 57.2694 90.9492 57.2694 89.772 57.2694V45.8828H85.0766V42.7638H98.1344V45.8828H93.466V57.2558H93.4728Z" fill="black"/>
<path d="M106.807 45.5662C107.28 45.6406 107.761 45.6676 108.221 45.7894C109.811 46.2021 110.819 47.4402 111.008 49.1384C111.096 49.9571 111.076 50.7757 110.852 51.5741C110.419 53.1166 109.276 54.0909 107.686 54.3006C106.942 54.3954 106.204 54.3886 105.474 54.2059C104.046 53.8473 103.14 52.9475 102.754 51.547C102.477 50.5457 102.47 49.5241 102.727 48.516C103.16 46.8449 104.432 45.7827 106.164 45.6474C106.38 45.6338 106.59 45.6203 106.807 45.6068V45.5729V45.5662Z" fill="white"/>
<path d="M120.6 45.8782C120.729 45.8782 120.844 45.8782 120.959 45.8782C122.055 45.8917 123.151 45.8646 124.24 45.9255C125.6 46 126.161 46.4938 126.398 47.8267C126.648 49.2136 126.655 50.6209 126.358 52.0079C126.067 53.3678 125.383 53.997 123.983 54.0917C122.866 54.1661 121.737 54.1052 120.593 54.1052V45.8782H120.6Z" fill="white"/>
<path d="M63.1275 51.4315H59.0952C59.7717 49.5507 60.4348 47.6969 61.1249 45.7687C61.8082 47.7037 62.4577 49.5507 63.1207 51.4315H63.1275Z" fill="white"/>
</svg>
