<svg width="200" height="100" viewBox="0 0 200 100" fill="none" xmlns="http://www.w3.org/2000/svg">
<path d="M84.4711 44.1786C84.4711 45.0556 84.5643 45.7628 84.7343 46.2835C84.9261 46.8043 85.1618 47.3744 85.4907 47.9883C85.6113 48.1802 85.6552 48.3666 85.6552 48.531C85.6552 48.7667 85.5127 49.0024 85.2057 49.2436L83.7147 50.2358C83.5009 50.3783 83.2871 50.4496 83.1007 50.4496C82.865 50.4496 82.6293 50.329 82.3881 50.1207C82.0592 49.7644 81.7742 49.3862 81.5384 49.0079C81.3027 48.6078 81.067 48.1583 80.8039 47.6101C78.9566 49.7863 76.6378 50.8772 73.8422 50.8772C71.8523 50.8772 70.2681 50.3071 69.106 49.1724C67.9439 48.0377 67.3519 46.5192 67.3519 44.6281C67.3519 42.6163 68.0645 40.9828 69.5062 39.7494C70.9479 38.516 72.8665 37.9021 75.3058 37.9021C76.1116 37.9021 76.9393 37.9733 77.8164 38.0939C78.6935 38.2145 79.5925 38.4009 80.5408 38.6147V36.888C80.5408 35.09 80.1626 33.8347 79.428 33.1001C78.6715 32.3656 77.3943 32.0093 75.5689 32.0093C74.7412 32.0093 73.886 32.1025 73.0145 32.3162C72.1429 32.53 71.2877 32.7877 70.46 33.1221C70.0818 33.2865 69.7967 33.3852 69.6323 33.429C69.4678 33.4784 69.3472 33.5003 69.254 33.5003C68.9251 33.5003 68.7552 33.2646 68.7552 32.7657V31.6036C68.7552 31.2254 68.8045 30.9404 68.9197 30.7759C69.0348 30.6115 69.2486 30.447 69.5829 30.2771C70.4107 29.8495 71.4083 29.4932 72.565 29.2136C73.7271 28.9067 74.955 28.7641 76.2596 28.7641C79.0772 28.7641 81.1383 29.4055 82.4594 30.6827C83.764 31.9599 84.4218 33.9004 84.4218 36.5042V44.1731H84.4711V44.1786ZM74.8618 47.7745C75.6457 47.7745 76.446 47.632 77.3011 47.347C78.1508 47.0619 78.9127 46.5412 79.5486 45.834C79.9268 45.3845 80.2119 44.8857 80.3544 44.3211C80.4969 43.751 80.5901 43.0658 80.5901 42.26V41.2678C79.9049 41.1034 79.1704 40.9608 78.4139 40.8676C77.6574 40.7745 76.9229 40.7251 76.1883 40.7251C74.6041 40.7251 73.442 41.0321 72.6636 41.6735C71.8798 42.3148 71.5015 43.2138 71.5015 44.3978C71.5015 45.5106 71.7866 46.3383 72.3786 46.9084C72.9487 47.5005 73.7764 47.7855 74.8618 47.7855V47.7745ZM93.8667 50.329C93.4391 50.329 93.1541 50.2577 92.9677 50.0933C92.7759 49.9508 92.6114 49.6219 92.4689 49.1724L86.905 30.8746C86.7625 30.4031 86.6912 30.0907 86.6912 29.9262C86.6912 29.548 86.8831 29.3342 87.2613 29.3342H89.5801C90.0295 29.3342 90.3365 29.4055 90.501 29.5699C90.6928 29.7125 90.8299 30.0414 90.9724 30.4909L94.9466 46.1629L98.6412 30.4909C98.7618 30.0194 98.9044 29.707 99.0907 29.5699C99.2826 29.4274 99.6115 29.3342 100.039 29.3342H101.93C102.38 29.3342 102.687 29.4055 102.879 29.5699C103.07 29.7125 103.235 30.0414 103.328 30.4909L107.067 46.3493L111.161 30.4909C111.304 30.0194 111.468 29.707 111.633 29.5699C111.825 29.4274 112.132 29.3342 112.554 29.3342H114.757C115.136 29.3342 115.349 29.5261 115.349 29.9262C115.349 30.0468 115.327 30.162 115.3 30.3045C115.273 30.447 115.229 30.6334 115.136 30.8965L109.429 49.1943C109.287 49.6657 109.122 49.9782 108.93 50.1152C108.738 50.2577 108.431 50.3509 108.031 50.3509H105.998C105.548 50.3509 105.241 50.2797 105.049 50.1152C104.857 49.9508 104.693 49.6438 104.6 49.1669L100.933 33.9004L97.2873 49.145C97.1667 49.6164 97.0242 49.9288 96.8378 50.0933C96.6459 50.2577 96.317 50.329 95.8894 50.329H93.8558H93.8667ZM124.284 50.9704C123.051 50.9704 121.823 50.8278 120.639 50.5428C119.455 50.2577 118.534 49.9508 117.915 49.5945C117.537 49.3807 117.273 49.145 117.18 48.9312C117.087 48.7174 117.038 48.4817 117.038 48.2679V47.0619C117.038 46.5631 117.23 46.3274 117.58 46.3274C117.723 46.3274 117.865 46.3493 118.008 46.3986C118.15 46.448 118.364 46.5412 118.6 46.6344C119.406 46.9907 120.283 47.2757 121.204 47.4621C122.152 47.6539 123.073 47.7471 124.021 47.7471C125.512 47.7471 126.674 47.484 127.475 46.9633C128.281 46.4425 128.708 45.686 128.708 44.7158C128.708 44.0525 128.494 43.5098 128.067 43.0603C127.639 42.6108 126.833 42.2107 125.677 41.8269L122.245 40.7635C120.519 40.2208 119.241 39.415 118.457 38.3516C117.674 37.31 117.273 36.1479 117.273 34.92C117.273 33.9279 117.487 33.0508 117.915 32.2943C118.342 31.5379 118.907 30.8746 119.62 30.3538C120.332 29.8111 121.133 29.4055 122.081 29.1204C123.029 28.8354 124.021 28.7203 125.063 28.7203C125.584 28.7203 126.126 28.7422 126.647 28.8135C127.19 28.8847 127.689 28.9779 128.187 29.0766C128.659 29.1972 129.108 29.3123 129.536 29.4548C129.963 29.5973 130.292 29.7399 130.528 29.8824C130.857 30.0742 131.098 30.2606 131.241 30.4744C131.383 30.6663 131.454 30.9239 131.454 31.2583V32.3711C131.454 32.8699 131.263 33.1275 130.912 33.1275C130.72 33.1275 130.413 33.0343 130.013 32.8425C128.664 32.2285 127.146 31.9216 125.469 31.9216C124.12 31.9216 123.057 32.1354 122.322 32.5849C121.587 33.0343 121.209 33.7196 121.209 34.6898C121.209 35.3531 121.445 35.9232 121.922 36.3727C122.393 36.8222 123.27 37.2717 124.526 37.6773L127.886 38.7408C129.591 39.2834 130.819 40.0454 131.553 41.0157C132.288 41.9859 132.644 43.0987 132.644 44.3321C132.644 45.3517 132.43 46.2726 132.03 47.0784C131.602 47.8842 131.038 48.5913 130.303 49.1614C129.569 49.7534 128.692 50.181 127.678 50.488C126.614 50.8169 125.501 50.9868 124.29 50.9868L124.284 50.9704Z" fill="#252F3E"/>
<path d="M128.764 62.4762C120.974 68.2265 109.66 71.2798 99.9303 71.2798C86.2974 71.2798 74.0075 66.2366 64.7325 57.8606C63.998 57.1974 64.6613 56.2984 65.5383 56.8191C75.5753 62.6407 87.9529 66.1708 100.764 66.1708C109.403 66.1708 118.897 64.3729 127.629 60.6782C128.934 60.0862 130.041 61.5279 128.764 62.4762ZM132.004 58.7816C131.011 57.5043 125.426 58.1676 122.888 58.4746C122.131 58.5678 122.01 57.9045 122.696 57.4111C127.147 54.2866 134.459 55.1856 135.314 56.2271C136.164 57.2906 135.079 64.6086 130.913 68.1114C130.271 68.654 129.657 68.3745 129.942 67.6619C130.891 65.3157 132.996 60.0369 132.004 58.787V58.7816Z" fill="#FF9900"/>
</svg>
