<svg width="200" height="100" viewBox="0 0 200 100" fill="none" xmlns="http://www.w3.org/2000/svg">
<path d="M85.349 44.7092C84.9799 45.691 84.6387 46.5683 84.3115 47.4526C83.8101 48.7757 83.3088 50.1056 82.8213 51.4356C82.7239 51.7002 82.5985 51.8186 82.2991 51.8046C81.7629 51.7768 81.2268 51.7768 80.6906 51.8046C80.3773 51.8186 80.2519 51.7211 80.1405 51.4286C78.8454 47.9261 77.5293 44.4306 76.2202 40.9351C76.0183 40.392 75.8094 39.8488 75.6144 39.3057C75.4543 38.867 75.5657 38.7138 76.0253 38.7069C77.0349 38.7069 78.0446 38.7138 79.0543 38.6999C79.3467 38.6999 79.472 38.7835 79.5626 39.069C80.245 41.2345 80.9413 43.3931 81.6376 45.5587C81.6515 45.6144 81.6794 45.6631 81.7351 45.8233C81.9997 45.0643 82.2295 44.4028 82.4523 43.7413C82.9815 42.1815 83.5107 40.6287 84.0121 39.062C84.1026 38.7765 84.2349 38.686 84.5273 38.6999C85.0496 38.7208 85.5718 38.7278 86.0871 38.6999C86.4074 38.686 86.5675 38.7765 86.672 39.1038C87.4031 41.332 88.1621 43.5533 88.9141 45.7815C89.0604 45.7327 89.0534 45.6004 89.0813 45.496C89.7637 43.3583 90.446 41.2276 91.1145 39.0899C91.205 38.7974 91.3443 38.693 91.6646 38.6999C92.6603 38.7278 93.6561 38.7069 94.6518 38.7069C95.1392 38.7069 95.2367 38.8531 95.0626 39.3266C93.5516 43.3792 92.0337 47.4387 90.5296 51.4913C90.4391 51.742 90.3137 51.8047 90.0631 51.7907C89.499 51.7698 88.9281 51.7698 88.364 51.7907C88.0855 51.8047 87.9741 51.6932 87.8766 51.4495C87.048 49.2352 86.2124 47.0279 85.3281 44.7022L85.349 44.7092Z" fill="black"/>
<path d="M68.3458 38.4558C70.8943 38.5324 73.039 39.4306 74.4525 41.6379C77.0289 45.6766 74.6266 51.0522 69.8986 51.8738C67.4057 52.3056 65.0939 51.8738 63.2069 50.0913C61.292 48.2808 60.7419 46.0039 61.3756 43.4971C62.0023 41.0112 63.6943 39.4793 66.1315 38.7482C66.8556 38.5324 67.5937 38.4488 68.3527 38.4488L68.3458 38.4558Z" fill="black"/>
<path d="M96.7053 45.224C96.7053 43.1907 96.7123 41.1575 96.6984 39.1242C96.6984 38.7761 96.7819 38.6925 97.1231 38.6995C99.2469 38.7343 101.378 38.6368 103.501 38.7482C107.067 38.9432 109.469 41.5265 109.483 45.1126C109.483 47.0066 109.009 48.7056 107.596 50.0564C106.322 51.268 104.748 51.7485 103.035 51.7903C101.029 51.8321 99.0241 51.7903 97.0257 51.8112C96.6914 51.8112 96.7053 51.6649 96.7053 51.4282C96.7053 49.3671 96.7053 47.299 96.7053 45.2379V45.224Z" fill="black"/>
<path d="M57.1782 46.6586C57.6726 47.0415 57.972 47.5011 58.2715 47.9607C58.55 48.3994 58.8703 48.7406 59.4761 48.4899C59.6989 48.3994 59.8103 48.5595 59.8591 48.7684C60.0262 49.5135 60.1933 50.2585 60.3674 51.0036C60.4579 51.3935 60.2142 51.5607 59.9357 51.7139C58.8007 52.3614 56.9415 52.0481 56.0084 51.0454C55.6394 50.6554 55.3469 50.2028 55.0684 49.7502C54.6645 49.0818 54.2537 48.4203 53.7245 47.8423C53.4669 47.5568 53.1744 47.3062 52.7845 47.2226C52.4711 47.153 52.3667 47.2574 52.3736 47.5986C52.3945 48.8659 52.3736 50.1402 52.3876 51.4075C52.3876 51.7208 52.3179 51.8253 51.9907 51.8183C50.9323 51.7974 49.8808 51.8044 48.8224 51.8183C48.5648 51.8183 48.4534 51.7974 48.4534 51.4841C48.4673 47.3549 48.4603 43.2257 48.4534 39.0965C48.4534 38.8876 48.4255 38.7205 48.7458 38.7205C50.9183 38.7623 53.0908 38.6509 55.2634 38.7832C56.4123 38.8528 57.4846 39.2079 58.3341 40.0435C60.2978 41.9723 59.8312 45.245 57.415 46.5472C57.3523 46.582 57.2897 46.6168 57.1782 46.6795V46.6586Z" fill="black"/>
<path d="M135.471 45.2735C135.471 43.2263 135.478 41.1722 135.464 39.125C135.464 38.7838 135.547 38.6863 135.896 38.6933C138.019 38.7351 140.15 38.6237 142.274 38.756C143.541 38.8395 144.697 39.2434 145.574 40.2322C147.253 42.1262 146.772 45.1969 144.579 46.4364C144.23 46.6313 144.272 46.7636 144.425 47.0422C145.164 48.393 145.867 49.7648 146.633 51.1017C146.911 51.5891 146.716 51.8328 146.194 51.805C145.184 51.7563 144.175 51.7771 143.165 51.805C142.824 51.812 142.664 51.6936 142.511 51.3942C141.849 50.106 141.167 48.8317 140.484 47.5505C140.331 47.265 139.76 47.0631 139.489 47.2093C139.328 47.2998 139.405 47.46 139.405 47.5783C139.405 48.8456 139.391 50.1199 139.405 51.3872C139.405 51.6936 139.349 51.805 139.015 51.798C137.957 51.7771 136.905 51.7771 135.847 51.798C135.547 51.798 135.471 51.7145 135.471 51.422C135.485 49.3748 135.478 47.3207 135.478 45.2735H135.471Z" fill="black"/>
<path d="M159.187 43.3102C160.357 41.8061 161.45 40.4135 162.53 39.0069C162.697 38.791 162.864 38.7005 163.135 38.7005C164.284 38.7145 165.433 38.7005 166.582 38.7075C166.756 38.7075 166.951 38.6587 167.063 38.8816C167.181 39.1183 166.979 39.2228 166.875 39.3481C165.573 40.9914 164.27 42.6347 162.954 44.2641C162.773 44.487 162.752 44.6332 162.933 44.8839C164.389 46.9798 165.83 49.0827 167.272 51.1925C167.355 51.3178 167.508 51.4153 167.39 51.6312C167.279 51.8331 167.118 51.7983 166.958 51.7983C165.809 51.7983 164.66 51.7913 163.511 51.8053C163.24 51.8053 163.101 51.7008 162.968 51.4989C161.952 49.9948 160.928 48.4908 159.904 46.9867C159.382 47.4045 159.125 47.8711 159.173 48.5604C159.243 49.5353 159.18 50.5171 159.194 51.4989C159.194 51.7356 159.132 51.8053 158.888 51.8053C157.788 51.7913 156.681 51.7844 155.58 51.8053C155.267 51.8053 155.246 51.6799 155.246 51.4293C155.253 49.0757 155.246 46.7152 155.246 44.3616C155.246 42.6139 155.26 40.873 155.239 39.1253C155.239 38.7632 155.344 38.6936 155.678 38.7005C156.701 38.7214 157.732 38.7284 158.756 38.7005C159.139 38.6866 159.194 38.8259 159.194 39.1671C159.173 40.511 159.187 41.8479 159.187 43.3171V43.3102Z" fill="black"/>
<path d="M168.511 45.2384C168.511 43.2051 168.518 41.1649 168.504 39.1317C168.504 38.7905 168.58 38.693 168.928 38.693C171.902 38.7069 174.868 38.7069 177.841 38.693C178.217 38.693 178.301 38.8044 178.287 39.1526C178.259 39.9324 178.259 40.7123 178.287 41.4922C178.301 41.8404 178.217 41.9587 177.841 41.9518C176.191 41.9309 174.534 41.9518 172.884 41.9309C172.535 41.9309 172.389 42.0005 172.424 42.3765C172.466 42.8013 172.285 43.3653 172.501 43.616C172.751 43.9084 173.329 43.6995 173.768 43.7065C174.673 43.7204 175.578 43.7204 176.477 43.7065C176.762 43.7065 176.887 43.7552 176.873 44.0755C176.853 44.8554 176.853 45.6353 176.873 46.4152C176.873 46.6798 176.797 46.7494 176.539 46.7494C175.314 46.7355 174.088 46.7494 172.863 46.7355C172.535 46.7355 172.375 46.7842 172.424 47.1533C172.48 47.6059 172.236 48.1908 172.521 48.4763C172.786 48.7339 173.364 48.5459 173.81 48.5459C175.188 48.5529 176.567 48.5598 177.946 48.5459C178.266 48.5459 178.364 48.6295 178.35 48.9498C178.329 49.7923 178.336 50.6349 178.35 51.4774C178.35 51.7142 178.294 51.7908 178.043 51.7908C174.966 51.7838 171.888 51.7768 168.81 51.7908C168.455 51.7908 168.511 51.5888 168.511 51.3799C168.511 49.3258 168.511 47.2786 168.511 45.2245V45.2384Z" fill="black"/>
<path d="M115.958 51.9577C114.176 51.9229 112.24 51.4563 110.652 49.9941C110.339 49.7086 110.325 49.4649 110.596 49.1376C111.07 48.5736 111.523 48.0026 111.961 47.4107C112.212 47.0695 112.414 47.0556 112.741 47.3202C113.73 48.114 114.823 48.6502 116.139 48.5875C116.418 48.5736 116.682 48.5248 116.94 48.4065C117.205 48.2811 117.399 48.107 117.399 47.7867C117.399 47.4804 117.205 47.3132 116.961 47.2018C116.571 47.0208 116.153 46.9372 115.735 46.8328C114.684 46.5612 113.653 46.22 112.748 45.6073C110.186 43.8595 110.381 40.4754 113.131 39.034C115.345 37.8711 118.994 38.3168 120.874 39.974C121.362 40.4057 121.369 40.4684 120.958 40.9698C120.512 41.5129 120.046 42.0421 119.614 42.5991C119.377 42.9055 119.175 42.9195 118.897 42.6757C118.256 42.1117 117.525 41.7148 116.675 41.5616C116.327 41.499 115.979 41.499 115.631 41.5965C115.324 41.687 115.046 41.8053 114.99 42.1674C114.928 42.5434 115.157 42.7663 115.443 42.9473C115.84 43.191 116.278 43.3164 116.717 43.4487C117.49 43.6854 118.27 43.9082 119.008 44.2494C120.603 44.9875 121.508 46.1643 121.431 47.9817C121.362 49.6947 120.408 50.767 118.904 51.4285C118.068 51.7975 117.177 51.9229 115.965 51.9716L115.958 51.9577Z" fill="black"/>
<path d="M128.209 38.7066C130.012 38.7066 131.823 38.7136 133.626 38.6996C133.954 38.6996 134.086 38.7484 134.072 39.1174C134.044 39.9252 134.051 40.7399 134.072 41.5476C134.079 41.8609 133.995 41.9654 133.668 41.9584C132.631 41.9375 131.586 41.9654 130.549 41.9445C130.214 41.9375 130.152 42.035 130.152 42.3484C130.166 45.3495 130.152 48.3437 130.173 51.3448C130.173 51.7417 130.061 51.8113 129.692 51.8044C128.669 51.7765 127.638 51.7835 126.614 51.8044C126.287 51.8113 126.217 51.7139 126.217 51.4005C126.231 48.3994 126.217 45.4052 126.231 42.4041C126.231 42.0629 126.176 41.9375 125.793 41.9445C124.769 41.9724 123.739 41.9445 122.715 41.9654C122.409 41.9654 122.332 41.8749 122.339 41.5824C122.36 40.7399 122.36 39.8973 122.339 39.0617C122.332 38.7693 122.423 38.7066 122.701 38.7066C124.539 38.7205 126.371 38.7066 128.209 38.7066Z" fill="black"/>
<path d="M41.2573 38.4633C43.2975 38.4842 45.0453 39.1944 46.4449 40.6985C46.8209 41.0954 46.8139 41.165 46.3961 41.534C45.8112 42.0493 45.2054 42.5437 44.6345 43.0729C44.3142 43.3654 44.0983 43.3862 43.7501 43.0729C42.6778 42.1259 41.4453 41.7569 40.0596 42.3069C38.4163 42.9615 37.6852 44.8624 38.3885 46.5615C39.05 48.163 40.9231 48.8663 42.6291 48.156C43.0886 47.968 43.4995 47.7034 43.8476 47.3553C44.0774 47.1255 44.2654 47.1046 44.5091 47.3205C45.1706 47.9123 45.8391 48.4903 46.5215 49.0613C46.7652 49.2702 46.7652 49.4512 46.5633 49.681C45.665 50.6906 44.5718 51.373 43.2766 51.756C43.1165 51.8048 43.019 51.756 42.9076 51.6655C40.366 49.5905 37.539 47.9402 34.8094 46.1437C34.2732 45.7886 34.1061 45.4125 34.1409 44.7998C34.2941 41.8752 36.4875 39.3197 39.4538 38.6652C40.0527 38.5329 40.6585 38.4563 41.2712 38.4633H41.2573Z" fill="black"/>
<path d="M21.6491 36.2076C21.9067 36.138 21.9763 36.3051 22.0669 36.4096C26.4397 41.1933 31.4184 45.2319 36.9194 48.6578C39.454 50.2385 41.9259 51.8957 44.1123 53.9499C45.8114 55.5514 47.2388 57.3409 48.0814 59.5483C48.1231 59.6597 48.1649 59.7781 48.1997 59.8964C48.2137 59.9382 48.1928 59.9869 48.1788 60.0844C45.8322 56.7142 42.4829 54.6601 39.0362 52.7035C34.8234 50.3151 30.8057 47.6412 27.2753 44.3058C25.2421 42.384 23.4247 40.2881 22.2479 37.7117C22.0251 37.2312 21.858 36.7229 21.656 36.2146L21.6491 36.2076Z" fill="#EC1C24"/>
<path d="M148.895 45.2732C148.895 43.226 148.902 41.1718 148.888 39.1247C148.888 38.7765 148.972 38.686 149.313 38.6999C150.371 38.7208 151.423 38.7208 152.481 38.6999C152.767 38.6999 152.836 38.7835 152.836 39.062C152.829 43.1912 152.829 47.3203 152.836 51.4495C152.836 51.7489 152.739 51.7977 152.474 51.7977C151.402 51.7837 150.329 51.7768 149.264 51.7977C148.958 51.7977 148.888 51.7141 148.895 51.4217C148.909 49.3745 148.895 47.3203 148.895 45.2732Z" fill="black"/>
<path d="M24.0601 44.479C24.7216 45.1683 25.3483 45.8925 26.0447 46.5401C29.3661 49.6317 33.175 52.041 37.144 54.2065C39.7064 55.6061 42.2759 56.9918 44.5737 58.8092C46.1544 60.0626 47.5749 61.4622 48.494 63.2935C48.5636 63.4397 48.6959 63.5651 48.6402 63.8088C46.036 60.6545 42.4708 58.9972 38.9196 57.2912C34.9227 55.3764 31.1347 53.1133 27.8412 50.1122C26.4416 48.8379 25.1882 47.4453 24.3665 45.7114C24.1924 45.3424 24.0323 44.9664 23.9487 44.5625C23.9835 44.5277 24.0184 44.4998 24.0601 44.465V44.479Z" fill="#EC1C24"/>
<path d="M71.4573 45.2876C71.4503 47.0841 70.0437 48.4698 68.2751 48.435C66.4786 48.4001 65.1277 47.0145 65.1486 45.2249C65.1625 43.4215 66.5343 42.0497 68.3169 42.0567C70.1203 42.0567 71.4712 43.4423 71.4573 45.2876Z" fill="#FEFEFE"/>
<path d="M100.645 45.2388C100.645 44.257 100.659 43.2822 100.638 42.3004C100.638 42.0149 100.707 41.9313 100.993 41.9452C101.466 41.9731 101.94 41.9452 102.413 41.9522C104.043 41.9522 105.066 42.7669 105.394 44.3545C105.54 45.0787 105.519 45.8168 105.296 46.527C104.892 47.8222 103.904 48.5394 102.518 48.5603C102.03 48.5672 101.536 48.5394 101.049 48.5672C100.735 48.5812 100.631 48.4976 100.638 48.1703C100.659 47.1955 100.645 46.2137 100.645 45.2319V45.2388Z" fill="#FEFEFE"/>
<path d="M52.3778 43.1358C52.4196 42.8016 52.1967 42.2445 52.4613 42.0287C52.712 41.8198 53.2482 41.9591 53.659 41.9521C53.8749 41.9521 54.0907 41.9451 54.2996 41.9521C55.0377 42.0008 55.56 42.5927 55.5321 43.3378C55.5042 44.0619 55.0099 44.5354 54.2509 44.5494C53.7495 44.5563 53.2412 44.5285 52.7399 44.5563C52.4126 44.5772 52.3569 44.4449 52.3778 44.1664C52.3987 43.8461 52.3778 43.5258 52.3778 43.1358Z" fill="#FEFEFE"/>
<path d="M139.39 43.1695C139.432 42.8214 139.202 42.2643 139.481 42.0206C139.718 41.8117 140.261 41.9579 140.672 41.951C140.853 41.951 141.041 41.951 141.222 41.951C141.995 41.9718 142.517 42.4802 142.545 43.2392C142.572 43.9912 142.127 44.4925 141.326 44.5482C140.776 44.59 140.226 44.5691 139.676 44.583C139.46 44.59 139.376 44.5134 139.383 44.2976C139.397 43.9494 139.383 43.5943 139.383 43.1695H139.39Z" fill="#FEFEFE"/>
</svg>
