<svg width="200" height="100" viewBox="0 0 200 100" fill="none" xmlns="http://www.w3.org/2000/svg">
<path d="M173.334 51.8094C173.334 51.8094 173.284 51.8094 173.265 51.8032C173.122 51.3742 173.104 50.9514 173.284 50.5286C173.303 50.5224 173.321 50.5286 173.34 50.5349V51.8094H173.334Z" fill="#8F8F8F"/>
<path d="M93.388 58.6427C93.2386 58.6427 93.1329 58.6427 93.0333 58.6427C91.9506 58.6427 90.8617 58.6302 89.779 58.6427C89.1443 58.6551 88.6838 58.3938 88.3167 57.9022C86.8295 55.8862 85.3424 53.8701 83.8614 51.8602C83.4881 51.3562 83.1147 50.8522 82.7414 50.3544C82.6978 50.2984 82.6792 50.2175 82.5609 50.2113C82.5609 50.398 82.5609 50.5846 82.5609 50.7713C82.5609 53.2914 82.5609 55.8115 82.5609 58.3316C82.5609 58.5742 82.5112 58.6551 82.256 58.6427C81.7769 58.6178 81.2978 58.6054 80.8187 58.6427C79.848 58.7174 79.0328 57.8151 79.0204 56.8569C79.0079 56.0293 79.0204 55.1955 79.0204 54.3679C79.0204 50.1242 79.0204 45.8805 79.0142 41.6368C79.0142 41.3755 79.0702 41.2946 79.3377 41.307C79.8791 41.3319 80.4267 41.2946 80.9618 41.3319C81.7894 41.3879 82.4801 42.1097 82.5236 42.9435C82.5921 44.2627 82.5423 45.5818 82.5485 46.8948C82.5547 47.7534 82.5485 48.6121 82.5485 49.5642C83.0214 48.9668 83.4383 48.4441 83.8552 47.9214C85.4108 45.9552 86.9602 43.9889 88.5096 42.0164C88.8954 41.5248 89.3932 41.2946 90.0279 41.3008C91.0981 41.3194 92.1746 41.3008 93.3195 41.3008C93.0146 41.6928 92.7471 42.0413 92.4733 42.3897C90.6003 44.7667 88.7212 47.1374 86.842 49.5082C86.6926 49.7011 86.6491 49.8131 86.8233 50.0371C88.9763 52.8372 91.1168 55.6559 93.2573 58.4622C93.2884 58.4996 93.3195 58.5431 93.3818 58.624L93.388 58.6427Z" fill="black"/>
<path d="M37.8218 46.2795C38.9107 46.6777 39.8566 47.1693 40.5597 48.0466C41.6611 49.4218 42.1775 50.9898 42.0406 52.7508C41.8291 55.358 39.9312 57.6603 37.4111 58.3821C36.8076 58.5563 36.1915 58.6434 35.5631 58.6434C33.267 58.6434 30.9647 58.6185 28.6686 58.6683C27.2935 58.6994 26.6774 57.6541 26.6774 56.6585C26.6774 53.093 26.6774 49.5338 26.6774 45.9683C26.6774 45.7381 26.7148 45.6323 26.9823 45.6323C27.9717 45.651 28.9611 45.6448 29.9504 45.6323C30.1931 45.6323 30.2491 45.7008 30.2491 45.9372C30.2429 49.0547 30.2491 52.1721 30.2367 55.2833C30.2367 55.5447 30.2927 55.6193 30.5665 55.6193C32.0536 55.5944 33.547 55.6069 35.0342 55.5882C36.6582 55.5633 37.5107 54.7731 37.9587 53.3419C38.4067 51.917 38.4254 50.4423 38.3134 48.9613C38.2512 48.0777 38.1827 47.1879 37.8343 46.2795H37.8218Z" fill="black"/>
<path d="M173.277 50.529C173.277 50.9521 173.265 51.3815 173.259 51.8046C170.092 51.8046 166.918 51.8046 163.751 51.8108C163.334 51.8108 163.328 51.8108 163.427 52.2339C163.682 53.3042 164.099 54.2811 164.977 55.0029C165.45 55.3887 165.997 55.5692 166.588 55.5754C168.654 55.6003 170.714 55.6127 172.78 55.6127C173.047 55.6127 173.159 55.6687 173.134 55.9612C173.103 56.4465 173.159 56.9381 173.01 57.411C172.761 58.2075 172.114 58.699 171.286 58.699C169.818 58.699 168.349 58.7239 166.881 58.6928C165.381 58.6555 163.894 58.4999 162.575 57.6848C160.335 56.3034 159.265 54.2873 159.42 51.6615C159.569 49.1165 161.635 46.6711 164.081 46.08C164.087 46.08 164.099 46.0862 164.13 46.1048C163.726 46.9386 163.452 47.816 163.315 48.7556C163.745 48.7556 164.168 48.7556 164.591 48.7556C166.856 48.7556 169.121 48.7556 171.386 48.7556C172.462 48.7556 173.203 49.4525 173.271 50.5352L173.277 50.529Z" fill="black"/>
<path d="M125.803 58.6426H123.37C123.177 58.6426 122.984 58.6177 122.797 58.6426C122.101 58.7421 121.721 58.4123 121.41 57.8025C120.42 55.8674 119.375 53.9571 118.355 52.0344C118.268 51.8663 118.174 51.7855 117.969 51.7855C116.78 51.7979 115.586 51.7979 114.391 51.7855C114.154 51.7855 114.123 51.8663 114.123 52.0717C114.13 54.1562 114.123 56.2407 114.136 58.3252C114.136 58.5866 114.061 58.6426 113.818 58.6364C113.37 58.6177 112.922 58.599 112.481 58.6364C111.373 58.7235 110.626 57.815 110.57 56.8132C110.57 56.7198 110.57 56.6203 110.57 56.5269C110.57 53.0051 110.57 49.4894 110.564 45.9675C110.564 45.6875 110.62 45.5941 110.913 45.619C111.485 45.6564 112.064 45.5692 112.63 45.6626C113.389 45.787 113.955 46.3906 114.086 47.1497C114.161 47.5729 114.142 47.996 114.13 48.4191C114.13 48.6431 114.179 48.6991 114.41 48.6991C115.654 48.6805 116.899 48.7178 118.143 48.668C119.313 48.6245 120.159 49.1409 120.806 50.0494C121.46 50.9641 121.97 51.9659 122.536 52.9304C123.613 54.7598 124.683 56.5954 125.747 58.4372C125.778 58.487 125.846 58.5244 125.803 58.6301V58.6426Z" fill="black"/>
<path d="M76.9556 58.6433C75.736 58.6433 74.5786 58.6433 73.415 58.6433C73.0665 58.6433 72.855 58.4317 72.6994 58.1455C71.6229 56.1232 70.5402 54.1071 69.47 52.0786C69.358 51.867 69.2397 51.7986 69.0095 51.7986C67.8397 51.811 66.6699 51.811 65.5001 51.7986C65.2761 51.7986 65.2201 51.8546 65.2201 52.0786C65.2263 54.1631 65.2201 56.2476 65.2325 58.3321C65.2325 58.5997 65.1703 58.6744 64.9027 58.6619C64.4485 58.637 63.988 58.637 63.5276 58.6619C62.3391 58.7179 61.6857 57.685 61.6857 56.8201C61.6857 53.1924 61.6857 49.5647 61.6857 45.9371C61.6857 45.7068 61.7604 45.6571 61.9782 45.6633C62.4324 45.6819 62.8929 45.6944 63.3533 45.6633C64.4547 45.5948 65.1827 46.5095 65.2263 47.4865C65.2387 47.8162 65.2449 48.146 65.2263 48.4758C65.2138 48.6998 65.3009 48.7372 65.4938 48.7372C66.6637 48.7185 67.8397 48.7683 69.0033 48.6936C70.4905 48.594 71.4736 49.291 72.1892 50.4919C73.2408 52.2653 74.2737 54.0511 75.3191 55.8307C75.8231 56.6894 76.3209 57.5481 76.8187 58.4068C76.8622 58.4753 76.8996 58.5499 76.9556 58.6619V58.6433Z" fill="black"/>
<path d="M53.6021 51.3562C53.0795 49.9872 52.6003 48.6183 52.0341 47.2805C51.7976 46.7142 51.8287 46.2413 52.0652 45.7062C52.4759 44.779 52.899 43.8643 53.4217 42.9932C53.4964 42.8688 53.5835 42.7505 53.6893 42.6012C54.2368 43.939 54.7782 45.2395 55.3071 46.54C56.5827 49.6512 57.8583 52.7624 59.1339 55.8736C59.5072 56.7883 59.277 57.8026 58.5801 58.3191C58.3001 58.5244 57.9952 58.6551 57.6405 58.6488C57.2796 58.6426 56.9187 58.6426 56.5578 58.6613C56.3711 58.6737 56.3027 58.5991 56.2467 58.4373C55.8111 57.2488 55.3569 56.0665 54.9275 54.8781C54.8404 54.6354 54.7346 54.542 54.4608 54.5483C52.7248 54.5607 50.9949 54.5483 49.2589 54.5607C48.9664 54.5607 48.9291 54.4985 49.0287 54.2371C49.2278 53.7145 49.3958 53.1793 49.5762 52.6504C49.8562 51.8353 50.4723 51.3935 51.3247 51.3935C52.059 51.3935 52.7932 51.3935 53.5275 51.3935C53.5399 51.3935 53.5461 51.3873 53.5959 51.3686L53.6021 51.3562Z" fill="black"/>
<path d="M138.396 42.5767C138.85 43.6843 139.273 44.7234 139.696 45.7688C141.071 49.1227 142.446 52.4765 143.828 55.8304C144.238 56.8323 143.952 57.9149 143.143 58.419C142.807 58.6243 142.446 58.6554 142.073 58.6492C141.731 58.643 141.314 58.755 141.077 58.5994C140.847 58.4439 140.804 58.0083 140.685 57.6972C140.331 56.7514 139.957 55.8118 139.628 54.8597C139.534 54.5922 139.397 54.5424 139.142 54.5486C137.481 54.5548 135.826 54.5486 134.164 54.5486C133.81 54.5486 133.81 54.5486 133.909 54.1877C134.046 53.6775 134.171 53.1672 134.32 52.6632C134.569 51.8543 135.21 51.3938 136.05 51.3876C136.691 51.3876 137.325 51.3752 137.966 51.3876C138.234 51.3938 138.321 51.3627 138.203 51.0703C137.649 49.6578 137.12 48.2328 136.566 46.8204C136.485 46.6088 136.479 46.4221 136.566 46.2106C137.058 44.9598 137.618 43.7465 138.396 42.5767Z" fill="black"/>
<path d="M149.601 53.9267C148.257 53.5471 147.162 52.8813 146.31 51.8235C144.182 49.1976 144.362 45.6135 146.764 43.2427C147.791 42.2285 149.048 41.6622 150.479 41.4756C152.619 41.1893 154.766 41.3573 156.913 41.3324C157.834 41.3262 158.531 42.1663 158.549 43.1805C158.549 43.4916 158.537 43.7965 158.549 44.1077C158.562 44.3317 158.475 44.3628 158.282 44.3628C157.23 44.3628 156.178 44.3628 155.121 44.3752C154.175 44.3814 153.229 44.4126 152.283 44.4001C150.989 44.3877 150.093 45.0099 149.489 46.1051C148.768 47.4242 148.562 48.8554 148.656 50.3363C148.736 51.5808 149.016 52.7693 149.601 53.9329V53.9267Z" fill="black"/>
<path d="M42.6069 58.6486C43.055 57.4228 43.4843 56.2343 43.9199 55.052C45.5564 50.5905 47.1991 46.1291 48.8294 41.6676C48.9227 41.4187 49.0347 41.3191 49.3209 41.3253C50.5094 41.3502 51.7041 41.3378 52.8926 41.3316C52.9735 41.3316 53.0544 41.3316 53.154 41.3316C51.5548 43.105 50.8766 45.3077 50.0988 47.4482C48.904 50.7461 47.7529 54.0627 46.5831 57.373C46.272 58.2441 45.7119 58.6486 44.791 58.6486C44.0692 58.6486 43.3536 58.6486 42.6007 58.6486H42.6069Z" fill="black"/>
<path d="M137.879 41.3316C136.554 42.7192 135.907 44.4303 135.284 46.1291C133.928 49.8376 132.634 53.5711 131.315 57.2983C131.091 57.933 130.723 58.4184 130.045 58.605C129.995 58.6175 129.946 58.6361 129.89 58.6361C129.037 58.6361 128.191 58.6361 127.307 58.6361C127.569 57.9206 127.818 57.2174 128.073 56.5205C129.896 51.555 131.725 46.5895 133.542 41.624C133.623 41.4 133.723 41.3191 133.965 41.3253C135.253 41.3378 136.541 41.3316 137.873 41.3316H137.879Z" fill="black"/>
<path d="M115.923 41.3005C117.18 41.3254 118.741 41.2382 120.303 41.3502C121.485 41.4311 122.637 41.6489 123.558 42.5014C124.342 43.2294 124.771 44.1441 124.926 45.1895C125.082 46.2224 125.157 47.2553 124.87 48.282C124.572 49.3585 124.049 50.267 123.06 50.8643C122.886 50.9701 122.805 50.9701 122.705 50.7772C122.307 50.0243 121.884 49.2963 121.293 48.6741C121.168 48.5434 120.969 48.4314 120.938 48.282C120.913 48.1763 121.118 48.0269 121.205 47.8838C121.622 47.2118 121.566 45.818 121.112 45.177C120.801 44.7353 120.341 44.5672 119.843 44.4739C119.401 44.393 118.959 44.3681 118.511 44.3681C116.508 44.3681 114.51 44.3432 112.507 44.3743C111.175 44.393 110.546 43.4223 110.565 42.4329C110.565 42.1592 110.584 41.8792 110.565 41.6054C110.54 41.3378 110.652 41.2942 110.889 41.2942C112.463 41.3067 114.037 41.2942 115.923 41.2942V41.3005Z" fill="black"/>
<path d="M66.7134 41.3445C68.2255 41.3445 69.7313 41.3382 71.2434 41.3445C71.9901 41.3507 72.7181 41.4876 73.415 41.7489C74.6284 42.2032 75.4311 43.0992 75.8044 44.3001C76.2151 45.6317 76.3271 47.0069 75.9475 48.3696C75.6675 49.3776 75.1511 50.2301 74.2488 50.815C74.0186 50.9644 73.9004 50.9768 73.7572 50.703C73.4088 50.0372 73.0354 49.3838 72.5252 48.8238C72.3696 48.6496 72.127 48.5127 72.0585 48.3136C71.9838 48.0958 72.3074 47.9776 72.3821 47.7598C72.6808 46.926 72.687 46.0922 72.2887 45.3019C72.0025 44.7295 71.43 44.5552 70.8389 44.4619C70.31 44.3748 69.7811 44.381 69.2522 44.381C67.3046 44.381 65.3632 44.3748 63.4156 44.3623C62.4511 44.3623 61.7293 43.6343 61.6982 42.6512C61.6857 42.2903 61.7106 41.9294 61.6919 41.5685C61.6795 41.3507 61.7728 41.3071 61.9657 41.3134C63.5524 41.3196 65.1329 41.3134 66.7197 41.3134C66.7197 41.3196 66.7197 41.332 66.7197 41.3382L66.7134 41.3445Z" fill="black"/>
<path d="M99.5154 52.1592C99.5154 50.0996 99.5154 48.0337 99.5154 45.9741C99.5154 45.7314 99.5589 45.6505 99.8203 45.6505C100.853 45.6692 101.886 45.663 102.913 45.6505C103.106 45.6505 103.187 45.6878 103.187 45.9056C103.18 49.496 103.187 53.0925 103.174 56.6829C103.174 57.6536 102.664 58.3816 101.855 58.5932C101.5 58.6865 101.133 58.6367 100.779 58.6429C100.449 58.6429 100.119 58.6305 99.7892 58.6429C99.5652 58.6554 99.5092 58.5932 99.5092 58.3629C99.5216 56.8882 99.5092 55.4073 99.5092 53.9326C99.5092 53.3352 99.5092 52.7441 99.5092 52.1467L99.5154 52.1592Z" fill="black"/>
<path d="M102.074 41.3445C104.14 41.3445 106.199 41.3445 108.265 41.3383C108.539 41.3383 108.607 41.4192 108.589 41.6743C108.545 42.1783 108.651 42.6886 108.464 43.1864C108.184 43.9268 107.593 44.3873 106.803 44.3873C102.677 44.3873 98.552 44.3873 94.4265 44.3873C94.2149 44.3873 94.1465 44.3251 94.1589 44.1135C94.1901 43.6904 94.1341 43.2673 94.2149 42.8441C94.383 41.9543 95.1421 41.3196 95.9821 41.3321C98.0106 41.357 100.045 41.3383 102.074 41.3383V41.3445Z" fill="black"/>
<path d="M159.652 47.5916C160.013 46.1729 160.349 44.7729 161.326 43.6342C162.153 42.6697 163.143 41.9541 164.387 41.6368C165.296 41.4065 166.223 41.3319 167.162 41.3256C168.587 41.3194 170.012 41.3256 171.437 41.3256C172.489 41.3256 173.26 42.0972 173.267 43.1488C173.267 43.4786 173.254 43.8084 173.267 44.1382C173.279 44.3497 173.211 44.4057 173.005 44.4057C171.419 44.3995 169.838 44.3933 168.251 44.4057C167.306 44.4057 166.36 44.3684 165.414 44.4804C163.18 44.7542 161.27 45.6253 159.857 47.4361C159.82 47.4858 159.776 47.5356 159.733 47.5792C159.72 47.5916 159.695 47.5916 159.639 47.6041L159.652 47.5916Z" fill="black"/>
<path d="M145.072 52.3706C145.265 52.4328 145.315 52.6008 145.408 52.7191C146.515 54.088 147.99 54.8347 149.664 55.264C150.933 55.5876 152.228 55.5938 153.522 55.6C154.542 55.6 155.569 55.6623 156.583 55.6063C157.847 55.544 158.568 56.5521 158.55 57.5663C158.55 57.8339 158.531 58.1015 158.55 58.3628C158.568 58.5806 158.506 58.649 158.276 58.6428C156.733 58.6366 155.19 58.6428 153.646 58.6428C152.514 58.6428 151.381 58.649 150.255 58.4001C147.76 57.8401 146.192 56.3094 145.439 53.8951C145.283 53.3973 145.171 52.8933 145.072 52.3582V52.3706Z" fill="black"/>
<path d="M39.5704 42.8755C39.6077 42.9128 39.6513 42.9501 39.6886 42.9875C39.7508 43.0808 39.8442 43.1368 39.9251 43.2052C39.95 43.2239 39.9686 43.2426 39.9811 43.2612C40.0371 43.3546 40.1242 43.423 40.2113 43.4977C40.23 43.5226 40.2424 43.5475 40.2549 43.5724C40.6344 44.1386 40.9767 44.7297 41.3438 45.3022C41.4682 45.5138 41.5678 45.7378 41.6051 45.9867C41.6051 46.2542 41.8291 46.4845 41.7545 46.7769C41.7545 46.7956 41.8291 46.8018 41.854 46.8329C41.8665 46.8454 41.8727 46.8578 41.8602 46.8765C41.91 47.0134 41.8914 47.1254 41.7669 47.2125C41.6549 47.2934 41.5678 47.2125 41.4807 47.1565C41.3376 47.088 41.238 46.9636 41.1447 46.8391C40.3171 45.968 39.2779 45.4391 38.1641 45.0533C37.8654 44.9475 37.5605 44.8666 37.2556 44.7795C37.013 44.5742 37.2059 44.5244 37.3863 44.4497C37.2494 44.3813 37.2183 44.2693 37.2308 44.1262C37.2619 43.5973 37.1934 43.0621 37.2868 42.5394C37.3054 42.4337 37.2868 42.3279 37.2494 42.2283C37.181 42.0292 37.2494 41.8985 37.4548 41.8425C37.8343 41.9234 38.1641 42.1412 38.5437 42.2345C38.861 42.4834 39.2282 42.6577 39.5642 42.8817L39.5704 42.8755Z" fill="#EE562E"/>
<path d="M34.3762 44.3871C31.8873 44.3871 29.4045 44.3871 26.9155 44.3995C26.7226 44.3995 26.6542 44.3435 26.6604 44.1506C26.6729 43.2919 26.6666 42.427 26.6604 41.5683C26.6604 41.3941 26.7164 41.3008 26.8906 41.307C27.6 41.3194 28.3094 41.3319 29.0187 41.3443C29.0561 41.3879 29.0561 41.4314 29.0312 41.4812C28.832 41.5994 28.6143 41.7052 28.7636 42.0164C28.8072 42.0972 28.7512 42.1968 28.6827 42.2777C28.4276 42.5515 28.4774 42.8875 28.6143 43.1613C28.7387 43.4102 28.8009 43.6466 28.7885 43.9142C28.7885 44.02 28.776 44.1258 28.8694 44.2066C29.0063 44.2875 29.1618 44.2564 29.305 44.2502C30.0143 44.2502 30.7237 44.2378 31.4268 44.2502C31.545 44.244 31.6633 44.244 31.7877 44.2502C32.4908 44.2626 33.1877 44.2253 33.8909 44.2502C34.0527 44.2502 34.258 44.1818 34.37 44.3871H34.3762Z" fill="#F48B27"/>
<path d="M36.8146 44.6545C36.1985 44.5674 35.5825 44.4865 34.9603 44.3994C34.7425 44.2874 34.4998 44.3309 34.2758 44.3247C34.0145 44.3123 33.9771 44.1754 33.9771 43.9825C33.9647 43.3229 33.9647 42.6695 34.002 42.01C34.0145 41.7984 33.9834 41.6864 33.7531 41.6864C33.6598 41.6864 33.5229 41.6864 33.5167 41.5806C33.5167 41.4375 33.666 41.4686 33.7594 41.4499C33.834 41.4375 33.9025 41.4251 33.9771 41.4126C34.5434 41.4126 35.1096 41.3877 35.6696 41.4437C35.7505 41.45 35.8439 41.4188 35.8812 41.5308C35.8625 41.6864 35.7568 41.6553 35.651 41.6428C35.763 41.7922 35.9248 41.8606 36.099 41.9104C36.1674 41.9291 36.2545 41.954 36.2545 42.0473C36.2545 42.1406 36.1799 42.178 36.1052 42.1842C35.8128 42.1966 35.8128 42.3958 35.8128 42.6135C35.8128 43.0304 35.8128 43.4411 35.8128 43.858C35.8128 44.0136 35.819 44.1754 35.7132 44.362C36.0803 44.2625 36.3541 44.4803 36.6715 44.4927C36.7586 44.4927 36.883 44.5114 36.8146 44.6607V44.6545Z" fill="#F0682A"/>
<path d="M36.8141 44.6551C36.8079 44.5805 36.7705 44.568 36.6896 44.5556C36.2976 44.5058 35.9243 44.3627 35.4949 44.3813C35.7936 44.2693 35.7252 44.0329 35.7252 43.8275C35.7252 43.4355 35.7252 43.0435 35.7252 42.6515C35.7252 42.3196 35.8973 42.1226 36.2416 42.0604C35.9678 41.9235 35.6318 41.9359 35.5447 41.5937H35.8558C35.9865 41.4879 36.1483 41.5066 36.279 41.5377C36.671 41.6373 37.0879 41.6373 37.4488 41.855C37.3368 41.967 37.231 42.0542 37.3492 42.2471C37.4488 42.4026 37.3492 42.5955 37.3368 42.7697C37.3057 43.2551 37.3119 43.7404 37.3119 44.232C37.3119 44.4311 37.5732 44.3191 37.6168 44.4809C37.2559 44.5369 37.2061 44.5805 37.2621 44.7671C37.1065 44.7422 36.951 44.7236 36.8141 44.6489V44.6551Z" fill="#EF5F2C"/>
<path d="M29.0244 41.4687C29.0244 41.4252 29.0244 41.3816 29.0244 41.3443C29.404 41.3131 29.7898 41.3131 30.1693 41.3443C30.2689 41.3318 30.02 41.4563 30.2067 41.4314C30.4307 41.394 30.6609 41.394 30.8849 41.4376C31.0156 41.5372 31.196 41.5123 31.3267 41.6056C31.4574 41.6989 31.5445 41.7923 31.3889 41.9354C31.3143 42.0038 31.2832 42.0972 31.2894 42.1967C31.308 42.8128 31.3392 43.4226 31.3578 44.0386C31.3578 44.1444 31.4574 44.2252 31.4449 44.3372C30.5987 44.3372 29.7587 44.3435 28.9124 44.3497C28.8377 44.3497 28.7631 44.3559 28.7133 44.2875C28.8564 44.163 29.0369 44.2004 29.1986 44.1941C29.5533 44.1817 29.572 44.1692 29.572 43.8083C29.572 43.4039 29.5782 43.0056 29.572 42.6012C29.572 42.3585 29.7027 42.147 29.6529 41.8856C29.6093 41.6678 29.5533 41.5558 29.3231 41.5683C29.2173 41.5683 29.1115 41.5683 29.0306 41.4749L29.0244 41.4687Z" fill="#F38129"/>
<path d="M33.938 41.4749C33.8385 41.6055 33.6705 41.4873 33.5336 41.5869C33.6082 41.5931 33.6518 41.5993 33.7016 41.5993C34.1122 41.6055 34.0874 41.6055 34.0687 42.01C34.0438 42.7069 34.0687 43.4038 34.0625 44.0945C34.0625 44.2314 34.1309 44.2812 34.2616 44.2812C34.4234 44.2812 34.5789 44.2812 34.7407 44.2812C34.8341 44.2812 34.9398 44.2625 34.9585 44.3994C34.7656 44.3994 34.5665 44.3932 34.3736 44.387C34.1185 44.2874 33.8509 44.3496 33.5896 44.3434C32.986 44.331 32.3824 44.331 31.7726 44.331C31.8348 44.1256 32.0153 44.2003 32.146 44.1941C32.3637 44.1941 32.4446 44.107 32.4446 43.8892C32.4446 43.3914 32.3326 42.8936 32.4446 42.3958C32.4509 42.3522 32.4571 42.2962 32.426 42.2713C32.1211 42.0224 32.3389 41.9104 32.5566 41.8109C32.5069 41.6927 32.4073 41.7051 32.3326 41.6864C32.2455 41.6615 32.1024 41.6802 32.1024 41.562C32.1024 41.4438 32.2393 41.4189 32.3451 41.4064C32.7744 41.4002 33.21 41.4064 33.6393 41.4064C33.7389 41.4064 33.8509 41.3815 33.938 41.4687V41.4749Z" fill="#F0722A"/>
<path d="M33.9387 41.4747C33.3849 41.4747 32.8311 41.4747 32.2773 41.4747C31.8106 41.624 31.3439 41.6054 30.871 41.4747H29.9812C29.9999 41.3689 30.143 41.4374 30.1617 41.344C31.5617 41.3067 32.968 41.3253 34.368 41.3378C35.5192 41.344 36.6517 41.4747 37.7468 41.8605C38.0206 41.96 38.3131 42.0347 38.5433 42.2338C38.1264 42.2649 37.809 41.9974 37.4481 41.8667C37.1308 41.736 36.7761 41.7796 36.4526 41.624C36.2846 41.5431 36.0543 41.6054 35.8552 41.6054C35.8241 41.4311 35.681 41.4809 35.5752 41.4809C35.0276 41.4809 34.48 41.4809 33.9387 41.4809V41.4747Z" fill="#D2653B"/>
<path d="M33.7667 45.016H29.7719C29.7719 45.016 29.7719 44.9725 29.7719 44.9538H33.7667C33.7667 44.9538 33.7667 44.9974 33.7667 45.016Z" fill="#FEFEF4"/>
<path d="M41.3413 45.302C41.2044 45.2772 41.136 45.1714 41.0862 45.0531C40.9991 44.8291 40.8 44.6549 40.7129 44.4558C40.576 44.1198 40.24 43.8896 40.1964 43.51C40.3084 43.4913 40.3271 43.5909 40.3769 43.6469C40.7502 44.1696 41.1298 44.686 41.3351 45.302H41.3413Z" fill="#D6613C"/>
<path d="M41.4508 47.0936C41.6995 47.2242 41.8549 47.1931 41.8674 46.876C41.9109 46.9879 41.9544 47.1061 41.9917 47.218C42.0228 47.2988 42.0415 47.3796 42.0477 47.4667C42.0352 47.5599 41.9979 47.6283 41.8922 47.647C41.6622 47.591 41.5752 47.3921 41.4757 47.2118C41.4322 47.1807 41.426 47.1434 41.4446 47.0999L41.4508 47.0936Z" fill="#DB633E"/>
<path d="M39.5692 42.8742C39.1776 42.7312 38.7983 42.5758 38.5496 42.2214C38.9413 42.3582 39.2708 42.5882 39.5692 42.8742Z" fill="#CC6B52"/>
<path d="M40.3859 43.6464C40.3237 43.6029 40.2678 43.5532 40.2056 43.5096C40.1123 43.435 40.0191 43.3542 39.9569 43.2485C39.8761 43.1926 39.789 43.1366 39.8015 43.0123C40.1807 43.0123 40.2367 43.0744 40.3859 43.6464Z" fill="#FAF3E6"/>
<path d="M41.8554 46.8384C41.7622 46.8198 41.7124 46.9752 41.644 46.9131C41.557 46.8322 41.644 46.7514 41.7 46.6706C41.7808 46.5587 41.6751 46.4841 41.644 46.3908C41.6067 46.2603 41.5881 46.1297 41.6129 45.9929C41.7497 46.2603 41.8368 46.54 41.8616 46.8384H41.8554Z" fill="#DB633E"/>
<path d="M42.0042 47.4609C42.0042 47.38 42.0042 47.2992 41.998 47.2184C42.0726 47.3552 42.2032 47.4484 42.2591 47.6039C42.3213 47.7779 42.3089 47.8712 42.1286 47.9209C42.1161 47.9147 42.1037 47.9023 42.0851 47.8961C41.9421 47.7717 42.0415 47.6039 42.0042 47.4546V47.4609Z" fill="#FDF6EF"/>
<path d="M41.48 47.2123C41.6416 47.3056 41.7038 47.4921 41.8406 47.6102C41.9525 47.6475 41.996 47.7284 42.0022 47.8341C41.9898 47.8465 41.9835 47.8527 41.9711 47.8651C41.7349 47.7035 41.4675 47.5605 41.48 47.2123Z" fill="#FDF6EF"/>
<path d="M41.4489 47.0935C41.4614 47.1308 41.4738 47.1681 41.48 47.2054C41.3059 47.137 41.1629 47.0438 41.1505 46.8324C41.25 46.9194 41.3495 47.0065 41.4489 47.0873V47.0935Z" fill="#F9EEDD"/>
<path d="M39.801 43.0117C39.8383 43.0988 39.9502 43.1361 39.9565 43.248C39.7824 43.248 39.7016 43.1547 39.6953 42.9869C39.7326 42.9931 39.77 43.0055 39.801 43.0117Z" fill="#D46A50"/>
<path d="M42.1196 47.9215C42.1258 47.9837 42.2128 48.077 42.0947 48.0894C41.9331 48.1018 42.0077 47.9464 41.9704 47.8594L41.9828 47.8531C42.0512 47.8096 42.0698 47.8656 42.1009 47.9029L42.1196 47.9215Z" fill="#FDF6EF"/>
<path d="M39.9551 43.2484C40.0856 43.2857 40.1665 43.3789 40.2038 43.5095C40.0359 43.5033 39.9489 43.4162 39.9551 43.2484Z" fill="#D06B52"/>
<path d="M30.8782 41.4749C31.3448 41.4749 31.8115 41.4749 32.2844 41.4749C32.2409 41.506 32.2035 41.5371 32.1102 41.5993C32.3778 41.5869 32.6018 41.5993 32.776 41.7984C32.6453 41.9104 32.5022 42.0038 32.2844 42.0349C32.6516 42.0722 32.5769 42.3211 32.5333 42.5016C32.4089 42.9869 32.5582 43.466 32.5458 43.9452C32.5395 44.2003 32.4835 44.3123 32.2098 44.2874C32.0729 44.275 31.9111 44.2314 31.7804 44.3372C31.6684 44.3372 31.5564 44.3372 31.4444 44.3372C31.3946 44.2687 31.2453 44.2812 31.2639 44.1505C31.3075 43.7336 31.2017 43.3167 31.2391 42.8998C31.2577 42.6633 31.2079 42.4207 31.2017 42.1842C31.2017 42.0224 31.1395 41.8171 31.5066 41.8544C31.3013 41.6926 31.1831 41.5869 31.0026 41.5993C30.9279 41.6055 30.8968 41.5495 30.8844 41.4749H30.8782Z" fill="#F27829"/>
<path d="M29.0247 41.4687C29.1181 41.4687 29.2176 41.4811 29.311 41.4687C29.6345 41.4189 29.7901 41.5371 29.7279 41.8793C29.6968 42.0287 29.7963 42.1033 29.9643 42.2091C29.6657 42.2153 29.6594 42.3709 29.6657 42.5389C29.6657 43.0367 29.6657 43.5345 29.6657 44.0323C29.6657 44.2314 29.5972 44.2936 29.4043 44.2874C29.1741 44.275 28.9376 44.2874 28.7074 44.2874C28.7074 44.0883 28.7012 43.883 28.7074 43.6838C28.7074 43.5283 28.695 43.3914 28.5643 43.2856C28.3776 43.13 28.4523 42.906 28.4585 42.7131C28.4647 42.5389 28.3341 42.3149 28.6452 42.2153C28.7945 42.1656 28.7074 41.9291 28.4523 41.8047C28.7074 41.7611 28.7136 41.3878 29.031 41.4811L29.0247 41.4687Z" fill="#F38627"/>
<path d="M42.1022 47.909C42.0649 47.8904 42.0214 47.8779 41.9841 47.8593C41.9343 47.7784 41.8908 47.6914 41.8411 47.6106C41.9406 47.6106 41.9779 47.5422 41.9965 47.4614C42.0276 47.6106 42.0649 47.7598 42.096 47.909H42.1022Z" fill="#AC887F"/>
</svg>
