<svg width="200" height="100" viewBox="0 0 200 100" fill="none" xmlns="http://www.w3.org/2000/svg">
<path d="M59.7286 59.4169C59.2819 59.7235 58.8552 60.0035 58.4152 60.2636C57.4485 60.8302 56.4418 61.2769 55.3351 61.4903C54.2217 61.7036 53.1083 61.7303 52.0016 61.4436C50.5149 61.0636 49.3949 60.1836 48.5548 58.9102C47.9348 57.9635 47.5415 56.9168 47.2881 55.8234C46.9481 54.3434 46.8548 52.8366 46.9081 51.3233C46.9415 50.2766 47.0481 49.2432 47.2881 48.2232C47.6148 46.8231 48.1748 45.5364 49.1349 44.443C50.3549 43.0496 51.8883 42.2496 53.735 42.0429C55.3484 41.8696 56.8751 42.1696 58.3352 42.8496C58.5485 42.9496 58.7619 43.0496 59.0019 43.163C59.0019 43.043 59.0019 42.9496 59.0019 42.863C59.0019 40.2229 59.0019 37.5828 59.0019 34.9427C59.0019 34.376 59.0619 34.3094 59.6086 34.2027C60.6086 34.016 61.6086 33.8293 62.6087 33.6427C62.7153 33.6227 62.8287 33.616 62.9353 33.616C63.1353 33.6227 63.202 33.696 63.242 33.8893C63.2687 34.0293 63.2687 34.176 63.2687 34.3227C63.2687 41.5896 63.2687 48.8565 63.2687 56.1168C63.2687 56.7368 63.282 57.3568 63.4087 57.9635C63.5354 58.5635 63.8087 59.0969 64.1554 59.5969C64.2087 59.6769 64.2687 59.7502 64.3087 59.8302C64.4154 60.0369 64.3754 60.1569 64.1554 60.2569C63.7687 60.4236 63.3754 60.5836 62.982 60.7502C62.462 60.9703 61.9353 61.1903 61.4153 61.4103C61.0219 61.5769 60.7086 61.5036 60.4486 61.1569C60.1486 60.7569 59.9486 60.3102 59.8219 59.8302C59.7886 59.6969 59.7486 59.5702 59.7086 59.4102L59.7286 59.4169Z" fill="black"/>
<path d="M131.486 59.2831C131.266 59.4631 131.053 59.6498 130.833 59.8231C129.913 60.5431 128.906 61.0965 127.752 61.3298C126.132 61.6632 124.526 61.6498 122.972 61.0031C121.179 60.2564 120.152 58.8897 119.879 56.9697C119.746 56.0496 119.799 55.1429 120.052 54.2496C120.419 52.9895 121.186 52.0295 122.279 51.3161C123.192 50.7228 124.206 50.3628 125.252 50.1094C126.292 49.8561 127.352 49.7161 128.419 49.6428C129.166 49.5894 129.913 49.5561 130.659 49.5494C130.853 49.5494 130.859 49.5494 130.859 49.3561C130.859 48.6761 130.893 47.996 130.786 47.3227C130.759 47.136 130.713 46.956 130.659 46.776C130.419 46.0226 129.899 45.576 129.146 45.3693C128.499 45.1959 127.839 45.1759 127.172 45.2026C125.999 45.2426 124.879 45.5293 123.772 45.896C123.432 46.0093 123.106 46.136 122.766 46.256C122.679 46.2893 122.592 46.316 122.499 46.336C122.146 46.416 121.992 46.336 121.872 45.996C121.692 45.5093 121.519 45.0226 121.346 44.5359C121.292 44.3826 121.232 44.2359 121.186 44.0826C121.099 43.7959 121.186 43.5692 121.419 43.3892C121.526 43.3159 121.639 43.2625 121.759 43.2159C123.332 42.6225 124.946 42.2225 126.626 42.0958C127.766 42.0092 128.899 42.0092 130.033 42.1625C130.746 42.2558 131.446 42.4292 132.113 42.7159C133.559 43.3359 134.446 44.4226 134.799 45.9493C134.946 46.5693 134.993 47.2027 134.999 47.8427C134.999 50.3895 134.999 52.9362 134.999 55.483C134.999 56.2963 135.053 57.1097 135.253 57.903C135.393 58.4631 135.626 58.9897 135.906 59.4964C135.966 59.6098 136.026 59.7231 136.073 59.8364C136.179 60.1098 136.133 60.2231 135.873 60.3364C135.213 60.6298 134.553 60.9165 133.899 61.2098C133.699 61.2965 133.499 61.3898 133.293 61.4765C132.866 61.6498 132.619 61.5832 132.353 61.1965C132.046 60.7431 131.826 60.2498 131.639 59.7364C131.586 59.5898 131.559 59.4298 131.473 59.2831H131.486Z" fill="black"/>
<path d="M94.068 59.4236C93.6947 59.7102 93.3414 59.9702 92.9747 60.2103C92.028 60.8303 91.0146 61.2903 89.9012 61.4903C89.2612 61.6036 88.6212 61.6503 87.9745 61.6436C87.1745 61.6436 86.3811 61.5703 85.6078 61.357C85.1011 61.217 84.6144 61.017 84.1677 60.7303C83.2477 60.1369 82.6877 59.2836 82.3743 58.2502C82.1277 57.4435 82.021 56.6101 82.021 55.7634C82.0143 51.6433 82.021 47.5298 82.0143 43.4097C82.0143 43.383 82.0143 43.3564 82.0143 43.3364C82.021 42.9697 82.121 42.8497 82.4677 42.7697C82.781 42.6963 83.0944 42.6363 83.4144 42.563C84.0944 42.4163 84.7744 42.263 85.4544 42.1163C85.6144 42.083 85.7678 42.0496 85.9344 42.063C86.1811 42.083 86.2811 42.183 86.3145 42.4297C86.3278 42.5363 86.3278 42.6497 86.3278 42.763C86.3278 46.7165 86.3278 50.6766 86.3278 54.6301C86.3278 55.1901 86.3478 55.7501 86.4478 56.3035C86.4878 56.5235 86.5411 56.7368 86.6078 56.9435C86.8945 57.8235 87.5078 58.2902 88.4079 58.4035C89.6879 58.5702 90.8813 58.2702 92.028 57.7035C92.5013 57.4702 92.9413 57.1835 93.368 56.8768C93.4614 56.8101 93.508 56.7368 93.4947 56.6235C93.4947 56.5701 93.4947 56.5235 93.4947 56.4701C93.4947 52.1233 93.4947 47.7765 93.4947 43.4297C93.4947 42.9297 93.5547 42.8563 94.048 42.7497C95.0814 42.523 96.1148 42.2963 97.1548 42.0696C97.6148 41.9696 97.7615 42.083 97.7615 42.5697C97.7615 43.0763 97.7615 43.5897 97.7615 44.0964C97.7615 48.0965 97.7615 52.09 97.7615 56.0901C97.7615 56.7501 97.7815 57.4102 97.9082 58.0635C98.0415 58.7435 98.3082 59.3569 98.6882 59.9236C98.7215 59.9702 98.7615 60.0169 98.7882 60.0702C98.9015 60.2703 98.8615 60.4303 98.6482 60.5303C98.5415 60.5836 98.4282 60.6103 98.3149 60.6503C97.5282 60.9169 96.7415 61.1836 95.9548 61.4503C95.8814 61.477 95.8081 61.4903 95.7348 61.517C95.4214 61.6236 95.1681 61.5303 94.9547 61.2903C94.7414 61.0436 94.5814 60.7636 94.4481 60.4703C94.2947 60.1369 94.1947 59.7902 94.0747 59.4102L94.068 59.4236Z" fill="black"/>
<path d="M109.71 57.1499C109.91 56.3899 110.083 55.6965 110.27 55.0032C110.577 53.8631 111.03 52.7764 111.443 51.6697C112.537 48.7496 113.637 45.8362 114.737 42.9161C114.777 42.8161 114.817 42.7094 114.864 42.6094C114.964 42.3828 115.137 42.2694 115.39 42.3028C115.677 42.3428 115.964 42.3761 116.25 42.4228C116.93 42.5361 117.604 42.6494 118.284 42.7694C118.39 42.7894 118.504 42.8094 118.604 42.8428C118.87 42.9295 118.917 43.0228 118.83 43.3028C118.79 43.4228 118.75 43.5428 118.704 43.6628C117.257 47.1696 115.81 50.6764 114.364 54.1898C113.41 56.5099 112.45 58.8233 111.49 61.1434C111.337 61.5167 111.263 61.5634 110.863 61.5701C109.983 61.5701 109.097 61.5634 108.217 61.5701C107.923 61.5701 107.763 61.4634 107.663 61.1967C107.223 60.0634 106.77 58.93 106.317 57.7966C104.417 53.0165 102.516 48.243 100.623 43.4628C100.59 43.3761 100.556 43.2895 100.536 43.1961C100.49 42.9761 100.55 42.8894 100.756 42.8094C100.896 42.7561 101.036 42.7561 101.183 42.7294C102.15 42.5894 103.116 42.4494 104.083 42.3161C104.217 42.2961 104.357 42.3028 104.49 42.3028C104.703 42.2961 104.843 42.3961 104.937 42.5828C104.977 42.6628 105.017 42.7494 105.043 42.8428C106.243 46.3229 107.45 49.8097 108.65 53.2898C109.05 54.4632 109.357 55.6565 109.65 56.8633C109.67 56.9433 109.69 57.0233 109.73 57.1566L109.71 57.1499Z" fill="black"/>
<path d="M72.2811 45.0625C72.4211 44.9225 72.5278 44.8091 72.6278 44.7025C73.1678 44.1491 73.7078 43.5958 74.3212 43.1224C75.1078 42.5224 75.9745 42.1224 76.9612 42.0224C77.7146 41.949 78.4546 41.9957 79.1747 42.2491C79.3347 42.3024 79.488 42.3757 79.628 42.4691C79.808 42.5891 79.8547 42.7224 79.8013 42.9291C79.7747 43.0157 79.7413 43.1024 79.7013 43.1891C79.3613 43.9358 79.028 44.6891 78.6813 45.4358C78.6413 45.5292 78.588 45.6158 78.5346 45.7025C78.4013 45.9025 78.2946 45.9358 78.0546 45.8825C77.7546 45.8158 77.4679 45.7025 77.1679 45.6558C76.5346 45.5492 75.9345 45.6158 75.3612 45.9025C74.8012 46.1825 74.3078 46.5559 73.8478 46.9692C73.5611 47.2226 73.3011 47.5026 73.0144 47.7559C72.8944 47.8626 72.8611 47.9826 72.8611 48.1359C72.8611 51.516 72.8611 54.8895 72.8611 58.2696C72.8611 59.0363 72.8611 59.7963 72.8611 60.563C72.8611 61.0097 72.8211 61.063 72.3678 61.063C71.2811 61.0697 70.1944 61.063 69.1076 61.063C69.041 61.063 68.9743 61.063 68.9076 61.0497C68.7476 61.0297 68.6476 60.9363 68.6143 60.7763C68.5876 60.6563 68.5943 60.543 68.5943 60.423C68.5943 56.5762 68.5943 52.7294 68.5943 48.8893C68.5943 48.0759 68.5676 47.2626 68.441 46.4559C68.301 45.5825 68.0409 44.7558 67.5609 44.0091C67.4943 43.9024 67.4276 43.7891 67.3943 43.6691C67.3409 43.4824 67.3943 43.3358 67.5609 43.2358C67.6276 43.1958 67.6943 43.1624 67.7676 43.1358C68.5476 42.8091 69.3343 42.4891 70.1143 42.1691C70.2477 42.1157 70.381 42.0691 70.5277 42.0491C70.781 42.0157 70.981 42.1024 71.1344 42.2957C71.1944 42.3757 71.2544 42.4624 71.3011 42.5491C71.6944 43.3358 72.1077 44.1225 72.2744 45.0625H72.2811Z" fill="black"/>
<path d="M135.986 37.582C136.172 37.5686 136.319 37.6286 136.466 37.6553C137.406 37.8153 138.346 37.8887 139.306 37.8553C141.459 37.7686 143.513 37.2286 145.533 36.5353C145.806 36.4419 146.073 36.3419 146.313 36.2619C146.379 36.2819 146.379 36.3086 146.379 36.3353C146.426 37.7953 146.299 39.2354 145.946 40.6487C145.746 41.4554 145.446 42.2355 145.086 42.9822C144.913 43.3488 144.726 43.7155 144.539 44.0755C144.386 44.3822 144.379 44.3822 144.059 44.2822C143.079 43.9689 142.126 43.6022 141.192 43.1755C140.626 42.9155 140.086 42.6155 139.572 42.2755C138.672 41.6888 137.952 40.9154 137.306 40.0621C136.786 39.3687 136.372 38.6087 136.059 37.7953C136.039 37.742 136.019 37.682 135.992 37.5953L135.986 37.582Z" fill="#F99D2A"/>
<path d="M150.25 30.822C149.903 30.7554 149.563 30.682 149.223 30.622C148.123 30.4287 147.023 30.3153 145.903 30.3553C143.903 30.4287 142.023 30.9354 140.256 31.8821C140.19 31.9154 140.136 31.9754 140.036 31.9621C139.936 31.6554 139.943 31.3354 139.93 31.0154C139.883 29.7953 139.936 28.5753 140.216 27.3752C140.463 26.3285 140.91 25.3618 141.43 24.4218C141.523 24.2485 141.636 24.0885 141.723 23.9151C141.783 23.7885 141.863 23.7751 141.983 23.8151C142.516 23.9885 143.043 24.1685 143.563 24.3818C144.49 24.7552 145.403 25.1685 146.257 25.7019C147.41 26.4152 148.317 27.3752 149.077 28.4886C149.537 29.162 149.917 29.882 150.217 30.642C150.237 30.6887 150.27 30.7287 150.243 30.822H150.25Z" fill="#F99D2A"/>
<path d="M139.413 26.6427C139.386 26.9827 139.293 27.2761 139.233 27.5694C139.006 28.7094 138.879 29.8695 138.913 31.0295C138.946 32.2229 139.193 33.3829 139.579 34.5096C139.826 35.2363 140.159 35.923 140.486 36.6097C140.519 36.683 140.579 36.7497 140.586 36.843C140.539 36.903 140.466 36.903 140.399 36.9164C139.539 37.0564 138.679 37.1164 137.812 37.0764C136.706 37.0164 135.652 36.763 134.639 36.3164C134.012 36.0363 133.392 35.7363 132.792 35.403C132.599 35.2963 132.599 35.2963 132.672 35.0963C132.999 34.143 133.412 33.2229 133.852 32.3096C134.272 31.4429 134.752 30.6162 135.386 29.8895C136.506 28.6028 137.792 27.5294 139.286 26.7027C139.313 26.6894 139.346 26.676 139.413 26.6494V26.6427Z" fill="#F99D2A"/>
<path d="M146.806 41.0697C146.786 40.903 146.846 40.7497 146.88 40.5897C147.046 39.683 147.173 38.763 147.266 37.8429C147.32 37.3429 147.333 36.8429 147.32 36.3429C147.273 34.8028 146.806 33.3761 146.04 32.0494C145.88 31.7761 145.706 31.5161 145.546 31.2494C145.513 31.1961 145.46 31.1494 145.466 31.036C145.686 31.036 145.9 31.036 146.12 31.036C148.586 31.0427 150.847 31.7694 152.953 33.0161C153.127 33.1161 153.133 33.1228 153.067 33.3428C152.873 33.9828 152.62 34.6028 152.36 35.2229C151.76 36.6429 150.953 37.9296 149.84 39.0163C148.973 39.863 147.986 40.523 146.9 41.043C146.88 41.0564 146.853 41.0564 146.82 41.063L146.806 41.0697Z" fill="#F99D2A"/>
<path d="M49.1083 69.8036C49.3883 69.8036 49.6683 69.8036 49.9483 69.8036C50.3817 69.8036 50.7883 69.8903 51.175 70.0837C52.2017 70.5837 52.6417 71.5837 52.5684 72.6171C52.4551 74.1771 51.2484 74.9972 50.015 75.0172C49.3416 75.0305 48.6749 75.0172 48.0016 75.0305C47.8682 75.0305 47.8282 74.9972 47.8282 74.8638C47.8282 73.2371 47.8282 71.6037 47.8282 69.977C47.8282 69.837 47.8749 69.8103 48.0016 69.8103C48.3683 69.817 48.7349 69.8103 49.095 69.8103L49.1083 69.8036Z" fill="black"/>
<path d="M108.304 75.0175C107.97 75.0175 107.637 75.0242 107.297 75.0175C107.13 75.0108 107.03 74.8842 106.983 74.7242C106.903 74.4842 106.81 74.2441 106.737 74.0041C106.703 73.8975 106.657 73.8575 106.543 73.8575C105.983 73.8575 105.423 73.8575 104.863 73.8575C104.75 73.8575 104.697 73.8841 104.663 73.9975C104.597 74.2241 104.517 74.4442 104.437 74.6708C104.343 74.9442 104.237 75.0242 103.957 75.0308C103.67 75.0308 103.383 75.0308 103.09 75.0308C103.07 74.9375 103.117 74.8708 103.143 74.8042C103.757 73.2108 104.377 71.6174 104.997 70.024C105.05 69.8818 105.15 69.8107 105.297 69.8107C105.57 69.8107 105.837 69.8107 106.11 69.8107C106.323 69.8107 106.323 69.8107 106.403 70.004C106.737 70.8574 107.063 71.7107 107.39 72.5641C107.684 73.3108 107.97 74.0641 108.257 74.8108C108.284 74.8708 108.324 74.9308 108.304 75.0175Z" fill="black"/>
<path d="M121.066 74.8115C121.066 75.2382 121.066 75.6315 121.066 76.0182C121.066 76.2049 121.066 76.2049 120.872 76.2049C120.612 76.2049 120.346 76.2049 120.086 76.2049C119.992 76.2049 119.939 76.1782 119.952 76.0715C119.952 76.0182 119.952 75.9715 119.952 75.9182C119.952 74.4648 119.952 73.0181 119.952 71.5647C119.952 71.5047 119.952 71.4447 119.952 71.3847C119.952 71.3247 119.986 71.2914 120.046 71.2914C120.259 71.2914 120.472 71.2914 120.679 71.2914C120.799 71.2914 120.879 71.3647 120.926 71.4847C120.952 71.5514 120.946 71.6381 121.026 71.7047C121.086 71.6581 121.152 71.6047 121.212 71.5514C121.539 71.2847 121.912 71.178 122.332 71.2314C122.732 71.2781 123.012 71.5114 123.219 71.8447C123.372 72.1047 123.452 72.3847 123.492 72.6848C123.559 73.1781 123.519 73.6648 123.312 74.1248C123.006 74.7915 122.439 75.1182 121.719 75.0515C121.492 75.0315 121.306 74.9182 121.086 74.7915L121.066 74.8115Z" fill="black"/>
<path d="M66.7489 69.7502C67.2956 69.7502 67.7623 69.8768 68.1823 70.1635C68.3623 70.2902 68.3623 70.2902 68.2623 70.4768C68.1956 70.6035 68.129 70.7369 68.0556 70.8569C67.9356 71.0502 67.8156 71.0835 67.6023 70.9902C67.4823 70.9302 67.3623 70.8635 67.2423 70.8035C67.0023 70.6969 66.7489 70.6768 66.4956 70.7368C66.2889 70.7835 66.1489 70.9102 66.1089 71.1302C66.0689 71.3502 66.1356 71.4835 66.3489 71.6169C66.4956 71.7102 66.6556 71.7636 66.8156 71.8102C67.0489 71.8836 67.2823 71.9636 67.509 72.0569C68.2957 72.3702 68.5623 72.9969 68.369 73.8103C68.1956 74.537 67.689 74.937 66.9823 75.057C66.2289 75.1837 65.5356 74.997 64.9155 74.5436C64.7489 74.4236 64.7555 74.417 64.8622 74.2436C64.9422 74.117 65.0222 73.9836 65.1089 73.857C65.2289 73.6836 65.3822 73.6436 65.5756 73.7436C65.6956 73.8036 65.8089 73.8836 65.9289 73.9503C66.2022 74.1103 66.5023 74.1636 66.8156 74.1103C67.0756 74.0703 67.2356 73.917 67.2823 73.677C67.329 73.4103 67.2423 73.2236 66.9956 73.0836C66.8423 72.9969 66.6689 72.9436 66.4956 72.8969C66.2889 72.8369 66.0889 72.7769 65.8889 72.7036C65.3822 72.5036 65.0555 72.1636 64.9889 71.6102C64.9089 70.9969 65.0889 70.4835 65.5956 70.1102C65.9489 69.8502 66.3623 69.7568 66.7556 69.7702L66.7489 69.7502Z" fill="black"/>
<path d="M95.4958 75.0834C95.1625 75.0834 94.8958 75.0501 94.6358 74.9434C93.9424 74.6567 93.6091 74.1167 93.5291 73.39C93.5024 73.11 93.5224 72.83 93.5957 72.5567C93.8024 71.79 94.4158 71.31 95.2558 71.25C95.5025 71.23 95.7491 71.25 95.9892 71.31C96.7025 71.49 97.1892 72.0433 97.2959 72.77C97.3492 73.1234 97.3359 73.4634 97.2359 73.8034C97.0292 74.5301 96.4358 75.0101 95.6825 75.0634C95.5958 75.0634 95.5158 75.0768 95.4891 75.0768L95.4958 75.0834Z" fill="black"/>
<path d="M129.872 75.0839C129.258 75.0839 128.752 74.9172 128.358 74.4706C127.778 73.8039 127.765 72.5638 128.338 71.8905C128.805 71.3438 129.425 71.1838 130.112 71.2705C131.152 71.3971 131.778 72.1705 131.732 73.2305C131.725 73.4172 131.705 73.6039 131.658 73.7839C131.458 74.5172 130.858 75.0172 130.098 75.0706C130.012 75.0706 129.932 75.0839 129.878 75.0839H129.872Z" fill="black"/>
<path d="M117.464 75.0851C117.23 75.0784 117.01 75.0651 116.797 74.9984C116.097 74.7851 115.623 74.1984 115.557 73.4517C115.53 73.145 115.537 72.8384 115.617 72.545C115.824 71.7983 116.444 71.325 117.27 71.2583C117.517 71.2383 117.764 71.2583 118.004 71.3183C118.75 71.505 119.257 72.105 119.33 72.8784C119.364 73.2384 119.35 73.5917 119.224 73.9317C118.964 74.6184 118.45 74.9851 117.737 75.0718C117.644 75.0851 117.55 75.0851 117.47 75.0918L117.464 75.0851Z" fill="black"/>
<path d="M78.675 74.6631C78.5816 74.6831 78.5283 74.7565 78.4616 74.8031C78.0883 75.0765 77.6683 75.1365 77.2283 75.0365C76.7282 74.9165 76.3882 74.4765 76.3482 73.9164C76.3282 73.6364 76.3349 73.3564 76.3349 73.0764C76.3349 72.5431 76.3349 72.0097 76.3349 71.4697C76.3349 71.343 76.3616 71.283 76.5016 71.2897C76.7616 71.303 77.0283 71.303 77.2883 71.2897C77.4283 71.2897 77.4549 71.343 77.4549 71.4697C77.4549 72.1631 77.4549 72.8631 77.4549 73.5564C77.4549 73.6431 77.4549 73.7298 77.4616 73.8098C77.4949 74.0898 77.6883 74.2498 77.9683 74.2298C78.1816 74.2165 78.355 74.1231 78.5216 73.9964C78.6083 73.9298 78.5883 73.8498 78.5883 73.7631C78.5883 73.0364 78.5883 72.3031 78.5883 71.5764C78.5883 71.523 78.5883 71.4764 78.5883 71.423C78.5816 71.3297 78.615 71.283 78.715 71.2897C79.0017 71.2897 79.295 71.2897 79.5817 71.2897C79.6683 71.2897 79.7083 71.3164 79.7017 71.4097C79.7017 71.443 79.7017 71.4764 79.7017 71.5097C79.7017 72.6031 79.7017 73.6964 79.7017 74.7965C79.7017 75.0098 79.735 75.0231 79.4817 75.0165C79.3483 75.0165 79.2083 75.0165 79.075 75.0165C78.8216 75.0165 78.795 74.9898 78.7016 74.7498C78.6883 74.7165 78.6816 74.6898 78.6683 74.6565L78.675 74.6631Z" fill="black"/>
<path d="M111.044 74.6702C110.97 74.6702 110.93 74.7235 110.89 74.7635C110.53 75.0569 110.117 75.1302 109.67 75.0569C109.184 74.9769 108.81 74.5569 108.73 74.0168C108.717 73.9102 108.704 73.7968 108.704 73.6902C108.704 72.9635 108.704 72.2301 108.704 71.5034C108.704 71.3101 108.704 71.3101 108.897 71.3101C109.137 71.3101 109.37 71.3101 109.61 71.3101C109.81 71.3101 109.81 71.3101 109.81 71.5234C109.81 72.1968 109.81 72.8635 109.81 73.5368C109.81 73.6502 109.81 73.7568 109.837 73.8635C109.897 74.1302 110.077 74.2702 110.35 74.2502C110.55 74.2369 110.724 74.1435 110.884 74.0302C110.977 73.9568 110.964 73.8702 110.964 73.7768C110.964 73.0835 110.964 72.3835 110.964 71.6901C110.964 71.4368 111.086 71.3101 111.33 71.3101C111.537 71.3101 111.737 71.3101 111.944 71.3101C112.057 71.3101 112.097 71.3501 112.084 71.4568C112.084 71.4901 112.084 71.5234 112.084 71.5568C112.084 72.6368 112.084 73.7102 112.084 74.7902C112.084 75.0435 112.117 75.0369 111.837 75.0302C111.71 75.0302 111.584 75.0302 111.457 75.0302C111.204 75.0302 111.177 75.0035 111.09 74.7635C111.077 74.7369 111.07 74.7035 111.057 74.6769L111.044 74.6702Z" fill="black"/>
<path d="M98.9713 71.6908C99.2246 71.4842 99.4713 71.3308 99.778 71.2775C100.538 71.1375 101.158 71.5575 101.285 72.3175C101.305 72.4375 101.318 72.5509 101.318 72.6709C101.318 73.3909 101.318 74.1109 101.318 74.8376C101.318 75.0309 101.318 75.0376 101.131 75.0376C100.878 75.0376 100.625 75.031 100.365 75.0376C100.225 75.0376 100.198 74.9843 100.198 74.8576C100.198 74.1709 100.198 73.4842 100.198 72.7975C100.198 72.6775 100.198 72.5642 100.165 72.4442C100.091 72.2175 99.958 72.1108 99.718 72.0975C99.4913 72.0908 99.3113 72.1842 99.1313 72.3109C99.0379 72.3775 99.0513 72.4709 99.0513 72.5642C99.0513 73.2842 99.0513 74.0043 99.0513 74.7309C99.0513 74.7909 99.0513 74.8509 99.0513 74.9109C99.0513 74.9976 99.0246 75.031 98.9379 75.031C98.6379 75.031 98.3446 75.031 98.0446 75.031C97.9512 75.031 97.9246 74.991 97.9312 74.9043C97.9312 74.8643 97.9312 74.8176 97.9312 74.7776C97.9312 73.7109 97.9312 72.6375 97.9312 71.5708C97.9312 71.5175 97.9312 71.4708 97.9312 71.4175C97.9312 71.3508 97.9512 71.3042 98.0312 71.3042C98.2379 71.3042 98.4379 71.3042 98.6446 71.3042C98.7646 71.3042 98.8513 71.3642 98.8979 71.4842C98.9179 71.5375 98.9379 71.5975 98.9646 71.6842L98.9713 71.6908Z" fill="black"/>
<path d="M69.9084 73.3707C69.9751 74.0708 70.4751 74.4041 71.1085 74.1908C71.2551 74.1441 71.3818 74.0641 71.5218 73.9974C71.7418 73.8974 71.8352 73.9174 71.9885 74.0974C72.0152 74.1308 72.0418 74.1641 72.0685 74.1974C72.2885 74.4708 72.2885 74.4708 72.0152 74.6775C71.6018 74.9908 71.1285 75.0908 70.6218 75.0775C69.5818 75.0575 68.8951 74.4108 68.7817 73.3774C68.7551 73.1107 68.7617 72.8507 68.8284 72.5974C69.0684 71.644 69.9351 71.1373 70.8818 71.264C71.8952 71.404 72.3552 72.204 72.2618 73.1507C72.2485 73.3174 72.1818 73.3641 71.9818 73.3707C71.5885 73.3707 71.2018 73.3707 70.8085 73.3707C70.5151 73.3707 70.2151 73.3707 69.8951 73.3707H69.9084Z" fill="black"/>
<path d="M55.2684 74.6179C55.1617 74.6979 55.0751 74.7579 54.9817 74.8246C54.5684 75.1046 54.115 75.1446 53.6417 75.0179C53.3017 74.9246 53.0817 74.6979 53.0083 74.3579C52.9216 73.9779 52.9883 73.6312 53.3017 73.3646C53.6017 73.1112 53.9683 72.9979 54.3484 72.9312C54.5684 72.8912 54.7884 72.8712 55.0084 72.8779C55.1217 72.8779 55.1551 72.8312 55.1484 72.7245C55.1484 72.6112 55.1417 72.5045 55.1017 72.3979C55.0417 72.2312 54.9217 72.1312 54.7484 72.1112C54.5484 72.0845 54.3617 72.1112 54.175 72.1912C54.0817 72.2379 53.995 72.2845 53.9017 72.3245C53.635 72.4312 53.4683 72.3779 53.3217 72.1379C53.1216 71.8112 53.1217 71.8112 53.4483 71.6045C53.935 71.2978 54.4684 71.1978 55.035 71.2578C55.6884 71.3312 56.1684 71.8378 56.2218 72.4912C56.2418 72.7712 56.2351 73.0512 56.2351 73.3312C56.2351 73.8379 56.2351 74.3513 56.2351 74.8579C56.2351 74.9846 56.2084 75.0446 56.0684 75.0313C55.9484 75.0179 55.8284 75.0246 55.7151 75.0313C55.5151 75.038 55.3884 74.9579 55.3351 74.7646C55.3217 74.7246 55.3017 74.6846 55.2751 74.6246L55.2684 74.6179Z" fill="black"/>
<path d="M62.0037 74.6236C61.9103 74.6903 61.817 74.7569 61.7303 74.8169C61.317 75.1036 60.8636 75.1436 60.3903 75.0236C59.6103 74.8236 59.5302 73.7969 60.0036 73.3902C60.3103 73.1236 60.6769 73.0102 61.0636 72.9302C61.2903 72.8835 61.517 72.8636 61.7503 72.8702C61.8503 72.8702 61.8903 72.8369 61.8837 72.7369C61.8837 72.6169 61.8837 72.5035 61.837 72.3835C61.7703 72.2169 61.657 72.1169 61.4836 72.0969C61.2836 72.0702 61.097 72.0969 60.917 72.1835C60.8636 72.2102 60.8103 72.2369 60.757 72.2635C60.3769 72.4502 60.2236 72.4035 60.0103 72.0369C59.9703 71.9702 59.9369 71.9035 59.8903 71.8235C60.2769 71.4702 60.7303 71.2902 61.2436 71.2435C61.477 71.2235 61.717 71.2168 61.9503 71.2835C62.5037 71.4302 62.8904 71.8635 62.957 72.4302C62.9704 72.5635 62.977 72.7035 62.977 72.8369C62.977 73.4969 62.977 74.1569 62.977 74.8236C62.977 75.017 62.977 75.0236 62.7904 75.0236C62.677 75.0236 62.5703 75.0236 62.457 75.0236C62.2637 75.0303 62.1303 74.957 62.0703 74.7636C62.057 74.7169 62.0303 74.6703 62.0037 74.617V74.6236Z" fill="black"/>
<path d="M88.7688 76.2036C88.9688 75.7836 89.1355 75.3969 89.3355 75.0236C89.4622 74.7903 89.4555 74.6036 89.3488 74.3636C88.9222 73.4302 88.5221 72.4902 88.1088 71.5501C88.0755 71.4768 88.0155 71.4035 88.0355 71.2968C88.3555 71.2968 88.6755 71.2968 88.9955 71.2968C89.1755 71.2968 89.2622 71.4101 89.3222 71.5701C89.5555 72.1968 89.7955 72.8235 90.0355 73.4502C90.1155 73.3835 90.1289 73.2835 90.1555 73.1902C90.3422 72.6635 90.5222 72.1368 90.7089 71.6101C90.8022 71.3435 90.8689 71.2968 91.1556 71.2901C91.4089 71.2901 91.6622 71.2901 91.9089 71.2901C91.9223 71.3968 91.8689 71.4701 91.8356 71.5501C91.2289 72.9835 90.6155 74.4169 90.0155 75.8503C89.9155 76.097 89.7688 76.217 89.5022 76.197C89.2755 76.1836 89.0488 76.197 88.7688 76.197V76.2036Z" fill="black"/>
<path d="M113.139 73.1779C113.139 72.8913 113.139 72.5979 113.139 72.3112C113.139 72.0912 113.139 72.0912 112.899 72.0779C112.859 72.0779 112.812 72.0712 112.772 72.0646C112.719 72.0579 112.672 72.0312 112.652 71.9846C112.579 71.8112 112.605 71.6312 112.619 71.4579C112.619 71.4112 112.679 71.4045 112.719 71.3979C112.825 71.3779 112.932 71.3512 113.045 71.3379C113.165 71.3245 113.225 71.2645 113.245 71.1512C113.292 70.9245 113.345 70.7045 113.405 70.4845C113.465 70.2578 113.499 70.2245 113.739 70.2312C113.905 70.2312 114.119 70.1512 114.225 70.2712C114.325 70.3778 114.252 70.5778 114.259 70.7379C114.259 70.8845 114.265 71.0245 114.259 71.1712C114.252 71.2845 114.299 71.3179 114.405 71.3112C114.599 71.3112 114.799 71.3112 114.992 71.3112C115.105 71.3112 115.165 71.3379 115.159 71.4645C115.152 71.6245 115.152 71.7846 115.159 71.9512C115.159 72.0712 115.105 72.0912 115.005 72.0912C114.799 72.0912 114.599 72.0912 114.392 72.0912C114.292 72.0912 114.252 72.1246 114.259 72.2246C114.259 72.8046 114.259 73.3779 114.259 73.958C114.259 74.1846 114.399 74.2646 114.625 74.2046C114.785 74.1602 114.908 74.2024 114.992 74.3313C115.065 74.4446 115.139 74.5646 115.212 74.6713C115.259 74.7446 115.259 74.7913 115.179 74.838C114.705 75.1113 114.205 75.1913 113.692 74.9847C113.345 74.8447 113.179 74.5446 113.152 74.1846C113.132 73.858 113.152 73.5246 113.152 73.1913C113.152 73.1913 113.145 73.1913 113.139 73.1913V73.1779Z" fill="black"/>
<path d="M58.3535 70.7766C58.3535 70.8966 58.3601 71.0166 58.3535 71.1299C58.3468 71.2566 58.3801 71.3166 58.5201 71.3032C58.7135 71.2899 58.9135 71.3032 59.1068 71.3032C59.2335 71.3032 59.2735 71.3432 59.2668 71.4632C59.2602 71.6166 59.2602 71.7699 59.2668 71.9233C59.2735 72.0499 59.2202 72.0833 59.1002 72.0833C58.8935 72.0833 58.6935 72.0833 58.4868 72.0833C58.3868 72.0833 58.3535 72.1233 58.3535 72.2166C58.3535 72.7833 58.3535 73.35 58.3535 73.9233C58.3535 74.1833 58.4868 74.2633 58.7468 74.19C58.9535 74.13 58.9602 74.13 59.0735 74.3033C59.1535 74.4234 59.2268 74.55 59.3068 74.6634C59.3535 74.73 59.3602 74.7834 59.2802 74.8234C58.8068 75.0967 58.3068 75.1834 57.7935 74.9767C57.3934 74.8167 57.2401 74.4633 57.2334 74.0567C57.2268 73.4966 57.2334 72.9366 57.2334 72.3766C57.2334 72.3233 57.2334 72.2766 57.2334 72.2233C57.2468 72.1099 57.1934 72.0699 57.0868 72.0766C57.0334 72.0766 56.9868 72.0766 56.9334 72.0766C56.7667 72.0566 56.7267 72.0166 56.7134 71.8566C56.6801 71.4299 56.6801 71.4232 57.1068 71.3499C57.2534 71.3232 57.3268 71.2699 57.3468 71.1166C57.3801 70.8966 57.4401 70.6899 57.5001 70.4766C57.5468 70.2832 57.6068 70.2432 57.8001 70.2365C57.9468 70.2365 58.0868 70.2365 58.2335 70.2365C58.3201 70.2365 58.3601 70.2699 58.3535 70.3566C58.3535 70.3632 58.3535 70.3765 58.3535 70.3832C58.3535 70.5166 58.3535 70.6566 58.3535 70.7899V70.7766Z" fill="black"/>
<path d="M87.9085 74.75C87.7218 74.9234 87.5018 74.9967 87.2685 75.0434C87.0151 75.0967 86.7618 75.1034 86.5085 75.0434C86.0618 74.93 85.7884 74.57 85.7818 74.0633C85.7751 73.53 85.7818 72.9966 85.7818 72.4633C85.7818 72.3966 85.7818 72.3299 85.7818 72.2633C85.7951 72.1299 85.7484 72.0766 85.6084 72.0899C85.5484 72.0899 85.4884 72.0899 85.4284 72.0833C85.3218 72.0699 85.2617 72.0033 85.2551 71.8966C85.2551 71.8899 85.2551 71.8766 85.2551 71.8699C85.2151 71.4366 85.2151 71.4299 85.6418 71.3566C85.7884 71.3299 85.8618 71.2832 85.8884 71.1232C85.9151 70.9232 85.9818 70.7299 86.0284 70.5299C86.0951 70.2632 86.1284 70.2365 86.4151 70.2365C86.5285 70.2365 86.6351 70.2365 86.7485 70.2365C86.8551 70.2365 86.9018 70.2632 86.8951 70.3766C86.8885 70.6232 86.8951 70.8699 86.8951 71.1166C86.8951 71.3366 86.8818 71.3166 87.1085 71.3166C87.2951 71.3166 87.4818 71.3166 87.6685 71.3166C87.7618 71.3166 87.8085 71.3499 87.8018 71.4499C87.8018 71.6166 87.8018 71.7899 87.8018 71.9566C87.8018 72.0566 87.7618 72.0899 87.6685 72.0899C87.4552 72.0899 87.2418 72.0899 87.0351 72.0899C86.9418 72.0899 86.8951 72.1166 86.8951 72.2166C86.8951 72.7833 86.8951 73.35 86.8951 73.9233C86.8951 74.1833 87.0285 74.2633 87.2818 74.19C87.4952 74.13 87.4952 74.13 87.6152 74.3033C87.7152 74.45 87.8085 74.6034 87.9018 74.7567L87.9085 74.75Z" fill="black"/>
<path d="M132.552 73.203C132.552 72.843 132.552 72.5363 132.552 72.2297C132.552 72.123 132.518 72.0696 132.405 72.0763C132.338 72.0763 132.272 72.0763 132.205 72.0696C132.118 72.063 132.058 72.0096 132.038 71.9296C132.005 71.7763 132.025 71.623 132.025 71.4763C132.025 71.4296 132.072 71.4096 132.112 71.403C132.205 71.383 132.292 71.3563 132.385 71.3496C132.578 71.3496 132.638 71.2363 132.672 71.0696C132.712 70.8629 132.765 70.6563 132.818 70.4496C132.865 70.2629 132.912 70.2229 133.098 70.2229C133.278 70.2229 133.498 70.1496 133.618 70.2496C133.738 70.3563 133.652 70.5829 133.658 70.7563C133.672 70.9229 133.592 71.143 133.692 71.2496C133.805 71.3696 134.025 71.2896 134.198 71.2963C134.552 71.303 134.559 71.2963 134.552 71.663C134.552 71.7896 134.605 71.943 134.525 72.0296C134.432 72.1296 134.272 72.0563 134.138 72.063C134.032 72.0696 133.918 72.063 133.805 72.063C133.698 72.063 133.652 72.0897 133.652 72.2097C133.652 72.7697 133.652 73.3297 133.652 73.8897C133.652 74.1697 133.778 74.2431 134.052 74.163C134.245 74.103 134.252 74.1097 134.359 74.2764C134.432 74.3897 134.498 74.5097 134.578 74.6164C134.645 74.7097 134.652 74.7697 134.538 74.8364C134.138 75.0631 133.705 75.1298 133.258 75.0297C132.845 74.9364 132.592 74.6297 132.538 74.203C132.498 73.8497 132.532 73.4897 132.518 73.1897L132.552 73.203Z" fill="black"/>
<path d="M74.4398 75.0772C73.6198 75.0972 72.9597 74.5972 72.7464 73.7771C72.6397 73.3705 72.6331 72.9504 72.7464 72.5438C72.9464 71.8304 73.4131 71.3971 74.1464 71.2771C74.7531 71.177 75.3132 71.2771 75.7932 71.6971C75.8732 71.7637 75.8998 71.8171 75.8198 71.9037C75.7398 71.9904 75.6798 72.0971 75.5998 72.1837C75.4732 72.3371 75.3598 72.3571 75.1798 72.2637C75.1065 72.2237 75.0331 72.1771 74.9531 72.1437C74.4665 71.9304 74.0198 72.1437 73.8798 72.6504C73.7798 73.0038 73.7864 73.3571 73.8931 73.7038C74.0664 74.2505 74.5998 74.4305 75.0731 74.1105C75.0931 74.0971 75.1131 74.0772 75.1331 74.0638C75.3998 73.8771 75.4798 73.8905 75.6798 74.1372C75.6932 74.1505 75.6998 74.1638 75.7132 74.1772C75.8732 74.3727 75.8532 74.5461 75.6532 74.6972C75.3332 74.9438 74.9465 75.0638 74.4331 75.0772H74.4398Z" fill="black"/>
<path d="M127.285 72.3434C127.285 73.1768 127.285 74.0034 127.285 74.8368C127.285 75.0168 127.285 75.0168 127.112 75.0235C126.852 75.0235 126.585 75.0235 126.325 75.0235C126.219 75.0235 126.165 74.9968 126.179 74.8768C126.179 74.8368 126.179 74.7901 126.179 74.7501C126.179 73.1368 126.179 71.5234 126.179 69.91C126.179 69.87 126.179 69.8233 126.179 69.7833C126.165 69.6833 126.212 69.65 126.312 69.65C126.592 69.65 126.872 69.65 127.152 69.65C127.265 69.65 127.299 69.6833 127.299 69.7966C127.299 70.2367 127.299 70.6767 127.299 71.1234C127.299 71.53 127.299 71.9367 127.299 72.3434H127.285Z" fill="black"/>
<path d="M81.6161 71.8841C81.7561 71.7108 81.8694 71.5708 82.0161 71.4574C82.2361 71.2841 82.4761 71.2174 82.7561 71.2508C83.0028 71.2841 83.0428 71.3374 82.9961 71.5774C82.9695 71.7241 82.9428 71.8775 82.9228 72.0308C82.8761 72.3241 82.8495 72.3441 82.5628 72.3108C82.5028 72.3041 82.4428 72.2975 82.3828 72.2908C82.1561 72.2908 81.9694 72.3708 81.8228 72.5441C81.7228 72.6575 81.6694 72.7775 81.6761 72.9308C81.6828 73.5642 81.6761 74.2042 81.6761 74.8375C81.6761 75.0242 81.6761 75.0309 81.4828 75.0309C81.2294 75.0309 80.9761 75.0309 80.7227 75.0309C80.5961 75.0309 80.5694 74.9842 80.5694 74.8709C80.5694 74.3175 80.5694 73.7708 80.5694 73.2175C80.5694 72.6441 80.5694 72.0641 80.5694 71.4908C80.5694 71.3108 80.5694 71.3108 80.7494 71.3041C80.9094 71.3041 81.0694 71.3041 81.2294 71.3041C81.4494 71.3108 81.5094 71.3708 81.5494 71.5841C81.5694 71.6708 81.5894 71.7575 81.6161 71.8775V71.8841Z" fill="black"/>
<path d="M125.246 73.1774C125.246 73.7375 125.246 74.2975 125.246 74.8575C125.246 74.9842 125.219 75.0375 125.079 75.0308C124.819 75.0175 124.553 75.0308 124.293 75.0308C124.126 75.0308 124.126 75.0308 124.126 74.8375C124.126 73.9708 124.126 73.1108 124.126 72.2441C124.126 71.9841 124.126 71.7174 124.126 71.4574C124.126 71.3507 124.159 71.304 124.273 71.3107C124.546 71.3107 124.813 71.324 125.086 71.3107C125.233 71.3107 125.253 71.364 125.253 71.484C125.253 72.0507 125.253 72.6174 125.253 73.1841L125.246 73.1774Z" fill="black"/>
<path d="M84.677 73.171C84.677 73.731 84.677 74.291 84.677 74.851C84.677 75.0243 84.677 75.0244 84.497 75.031C84.2436 75.031 83.9903 75.031 83.7369 75.031C83.6103 75.031 83.5569 75.0044 83.5569 74.8643C83.5569 73.7376 83.5569 72.6109 83.5569 71.4842C83.5569 71.3109 83.5569 71.3042 83.7436 71.3042C83.997 71.3042 84.2503 71.3109 84.5036 71.3042C84.637 71.3042 84.677 71.3442 84.677 71.4776C84.677 72.0443 84.677 72.6109 84.677 73.1776V73.171Z" fill="black"/>
<path d="M124.697 69.6372C125.063 69.6372 125.377 69.9372 125.377 70.2906C125.377 70.6439 125.05 70.9506 124.67 70.9439C124.317 70.9372 124.016 70.6372 124.016 70.2906C124.016 69.9305 124.33 69.6372 124.69 69.6372H124.697Z" fill="#010101"/>
<path d="M84.1089 69.638C84.4752 69.6313 84.7883 69.9178 84.8016 70.2708C84.8149 70.6172 84.5085 70.9236 84.1422 70.9369C83.7758 70.9503 83.4627 70.6572 83.4494 70.3041C83.4427 69.9444 83.7358 69.6446 84.1022 69.6313L84.1089 69.638Z" fill="#010000"/>
<path d="M135.623 75.0688C135.257 75.0688 134.984 74.809 134.984 74.4626C134.984 74.1162 135.27 73.8431 135.623 73.8431C135.97 73.8431 136.243 74.1096 136.25 74.4493C136.25 74.809 135.997 75.0688 135.623 75.0688Z" fill="#010101"/>
<path d="M59.0151 51.443C59.0151 53.1297 59.0151 54.8231 59.0151 56.5098C59.0151 56.6898 58.9618 56.8032 58.8218 56.9165C58.0884 57.5165 57.2951 58.0232 56.375 58.2832C55.6217 58.4966 54.8616 58.5699 54.0816 58.4232C53.2949 58.2765 52.6949 57.8565 52.2682 57.1832C51.9415 56.6698 51.7549 56.0965 51.6215 55.5098C51.3815 54.4564 51.3215 53.3831 51.3015 52.303C51.2882 51.483 51.3015 50.6563 51.3682 49.8363C51.4415 49.0162 51.5682 48.2029 51.8682 47.4295C51.9482 47.2162 52.0482 47.0095 52.1615 46.8095C52.6616 45.9295 53.4216 45.4295 54.4083 45.2761C55.7417 45.0694 57.0284 45.2894 58.2618 45.8095C58.4618 45.8961 58.6618 45.9961 58.8618 46.0761C58.9751 46.1228 59.0151 46.1828 59.0084 46.3028C59.0018 46.6362 59.0084 46.9628 59.0084 47.2962C59.0084 48.6762 59.0084 50.0629 59.0084 51.443H59.0151Z" fill="white"/>
<path d="M130.863 54.6101C130.863 55.2768 130.863 55.9501 130.863 56.6168C130.863 56.7635 130.816 56.8635 130.703 56.9635C129.996 57.5502 129.249 58.0769 128.369 58.3769C127.669 58.6169 126.956 58.7302 126.216 58.5769C124.843 58.2835 123.969 57.1635 123.989 55.7568C124.003 54.6501 124.496 53.8301 125.443 53.2767C126.036 52.93 126.683 52.7367 127.349 52.6034C128.369 52.4033 129.403 52.35 130.436 52.33C130.47 52.33 130.503 52.33 130.536 52.33C130.883 52.31 130.85 52.27 130.856 52.65C130.856 53.3034 130.856 53.9567 130.856 54.6101H130.863Z" fill="white"/>
<path d="M49.061 72.4105C49.061 71.9104 49.061 71.4104 49.061 70.9104C49.061 70.7371 49.061 70.7304 49.241 70.7371C49.561 70.7437 49.881 70.7104 50.201 70.7704C50.6477 70.8637 50.9744 71.1171 51.1477 71.5304C51.3877 72.1038 51.3877 72.6838 51.161 73.2638C50.9477 73.7905 50.5277 74.0438 49.981 74.0838C49.721 74.1038 49.4543 74.0838 49.1943 74.0905C49.0676 74.0905 49.0543 74.0305 49.0543 73.9372C49.0543 73.4305 49.0543 72.9238 49.0543 72.4105H49.061Z" fill="white"/>
<path d="M106.403 73.018H104.996C105.23 72.3379 105.456 71.6646 105.696 70.9445C105.956 71.6446 106.17 72.3179 106.403 73.018Z" fill="#FEFEFE"/>
<path d="M122.342 73.137C122.342 73.3636 122.329 73.5903 122.242 73.8103C122.096 74.177 121.809 74.3437 121.436 74.237C121.102 74.137 121.042 74.057 121.056 73.7703C121.076 73.3903 121.069 73.0103 121.056 72.6303C121.056 72.4769 121.109 72.3769 121.216 72.2836C121.369 72.1569 121.536 72.1036 121.729 72.0969C121.969 72.0969 122.129 72.1969 122.229 72.4169C122.329 72.6503 122.336 72.8903 122.342 73.137Z" fill="white"/>
<path d="M94.6813 73.1842C94.6813 72.9642 94.6947 72.7575 94.7547 72.5642C94.8613 72.2442 95.0813 72.0842 95.4214 72.0842C95.7614 72.0842 95.988 72.2308 96.088 72.5575C96.2147 72.9642 96.2147 73.3775 96.088 73.7842C95.988 74.1109 95.768 74.2576 95.4214 74.2576C95.0813 74.2576 94.868 74.0976 94.7547 73.7709C94.688 73.5776 94.688 73.3709 94.6813 73.1842Z" fill="white"/>
<path d="M129.084 73.1705C129.084 72.9572 129.097 72.7439 129.171 72.5439C129.284 72.2305 129.511 72.0772 129.851 72.0772C130.184 72.0772 130.391 72.2239 130.497 72.5439C130.631 72.9572 130.631 73.3772 130.497 73.7906C130.391 74.1039 130.177 74.2439 129.844 74.2439C129.511 74.2439 129.291 74.0906 129.184 73.7906C129.111 73.5906 129.104 73.3772 129.097 73.1639L129.084 73.1705Z" fill="white"/>
<path d="M118.197 73.1639C118.197 73.3839 118.177 73.6039 118.097 73.8106C117.984 74.1106 117.777 74.2439 117.451 74.2506C117.117 74.2506 116.884 74.1106 116.784 73.8039C116.651 73.3839 116.644 72.9505 116.784 72.5305C116.884 72.2239 117.111 72.0772 117.444 72.0772C117.777 72.0772 117.991 72.2239 118.097 72.5372C118.171 72.7372 118.191 72.9505 118.191 73.1639H118.197Z" fill="white"/>
<path d="M69.9359 72.7028C69.9492 72.2898 70.2157 72.0233 70.622 72.0167C71.0217 72.0167 71.2415 72.2365 71.2748 72.7028H69.9359Z" fill="#FDFDFD"/>
<path d="M55.1475 73.8306C55.1941 74.0038 55.0809 74.117 54.9277 74.2103C54.7478 74.3235 54.5546 74.3635 54.3415 74.3369C54.2016 74.3169 54.0817 74.2569 54.055 74.0904C54.0284 73.9305 54.0684 73.804 54.2016 73.7107C54.3614 73.6041 54.548 73.5708 54.7278 73.5375C54.7678 73.5308 54.8144 73.5308 54.8544 73.5308C55.2008 73.5175 55.1342 73.4909 55.1475 73.8239V73.8306Z" fill="#FDFDFD"/>
<path d="M61.8797 73.817C61.933 74.0102 61.7997 74.1168 61.6465 74.2167C61.48 74.3166 61.3068 74.3566 61.1136 74.3432C60.9204 74.3299 60.8272 74.2566 60.7939 74.1101C60.7472 73.9236 60.8139 73.7837 60.9804 73.6904C61.1469 73.5972 61.3268 73.5705 61.5133 73.5439C61.5466 73.5439 61.5799 73.5439 61.6132 73.5439C61.9196 73.5439 61.873 73.4973 61.8797 73.8303V73.817Z" fill="#FDFEFE"/>
</svg>
