<svg width="200" height="100" viewBox="0 0 200 100" fill="none" xmlns="http://www.w3.org/2000/svg">
<path d="M82.6245 44.2039C82.6245 43.9372 82.6245 43.7446 82.6245 43.552C82.6245 38.2926 82.6245 33.0332 82.6245 27.7737C82.6245 27.2626 82.6245 27.2552 83.106 27.0922C86.1209 26.0403 89.1432 24.981 92.1581 23.9366C92.2989 23.8847 92.4396 23.7884 92.61 23.8329C92.6841 24.018 92.6471 24.2032 92.6471 24.3958C92.6471 31.9665 92.6471 39.5445 92.6471 47.1151C92.6471 47.8188 92.5137 47.6485 93.2026 47.9003C94.099 48.2263 95.0027 48.5226 95.9435 48.8485C96.0175 48.6189 95.9879 48.4189 95.9879 48.2189C95.9879 39.8926 95.9879 31.5739 95.9879 23.2476C95.9879 22.4476 95.8472 22.6476 96.5805 22.3884C97.9213 21.9069 99.2695 21.455 100.61 20.9735C100.87 20.8772 101.099 20.8698 101.358 20.9735C102.766 21.4772 104.181 21.9587 105.588 22.455C106.077 22.6254 105.996 22.5587 106.003 23.0328C106.003 26.4107 106.003 29.7886 106.003 33.1665V48.7818C106.166 48.8485 106.292 48.7744 106.41 48.73C107.248 48.4411 108.085 48.1448 108.922 47.8485C109.344 47.7003 109.344 47.7003 109.344 47.2336C109.344 42.8261 109.344 38.4259 109.344 34.0184C109.344 30.8109 109.344 27.6108 109.344 24.4032C109.344 24.2106 109.314 24.018 109.374 23.8329C109.544 23.781 109.685 23.8847 109.825 23.9366C112.848 24.981 115.863 26.0403 118.878 27.0922C119.366 27.2626 119.366 27.2626 119.366 27.7737C119.366 33.0332 119.366 38.2926 119.366 43.552C119.366 43.7446 119.366 43.9298 119.366 44.1002C119.522 44.2187 119.626 44.115 119.729 44.078C120.581 43.7891 121.433 43.4854 122.285 43.1891C122.7 43.0409 122.7 43.0409 122.7 42.6113C122.7 40.7668 122.7 38.9222 122.7 37.0777C122.7 34.3814 122.7 31.6776 122.7 28.9812C122.7 28.8256 122.67 28.67 122.737 28.5219C122.893 28.47 123.018 28.5515 123.144 28.596C123.967 28.8849 124.781 29.1664 125.604 29.4553C126.107 29.633 126.033 29.5738 126.033 30.0701C126.033 33.6258 126.033 37.174 126.033 40.7297C126.033 42.1742 126.033 43.6187 126.033 45.0632C126.033 45.3299 125.952 45.4558 125.693 45.5447C122.507 46.6484 119.329 47.7596 116.144 48.8633C116.129 48.8633 116.107 48.8633 116.048 48.8559C115.974 48.6781 116.011 48.4781 116.011 48.2781C116.011 42.2705 116.011 36.2629 116.011 30.2553C116.011 30.1145 116.011 29.9738 116.011 29.8405C116.011 29.6997 115.944 29.6182 115.818 29.5738C114.789 29.2182 113.759 28.8552 112.729 28.4997C112.64 28.7293 112.677 28.9219 112.677 29.1071C112.677 35.8629 112.677 42.6187 112.677 49.3744C112.677 49.493 112.67 49.6189 112.677 49.7374C112.7 49.9745 112.633 50.1078 112.374 50.1967C109.188 51.293 106.01 52.4042 102.825 53.5153C102.796 53.5227 102.759 53.5227 102.684 53.5375C102.61 53.3449 102.647 53.1449 102.647 52.9449C102.647 43.8187 102.647 34.6999 102.647 25.5736C102.647 24.9736 102.625 25.0181 102.099 24.7736C101.336 24.4255 100.61 24.3884 99.8621 24.781C99.7732 24.8255 99.6695 24.8551 99.5658 24.8847C99.3732 24.9366 99.2769 25.0477 99.2991 25.2625C99.3139 25.3811 99.2991 25.507 99.2991 25.6255C99.2991 34.7147 99.2991 43.8039 99.2991 52.8931C99.2991 53.1005 99.2991 53.3079 99.2991 53.5153C99.1287 53.5598 99.0028 53.4857 98.8769 53.4413C95.8101 52.3746 92.7433 51.3004 89.6766 50.2337C89.2766 50.093 89.2766 50.093 89.2766 49.5893C89.2766 42.7816 89.2766 35.974 89.2766 29.1664C89.2766 28.9589 89.3136 28.7515 89.2395 28.5441C89.1877 28.5441 89.1284 28.5293 89.084 28.5441C88.1358 28.8775 87.1876 29.2182 86.232 29.5367C86.0098 29.6108 85.9061 29.7071 85.9357 29.9442C85.9505 30.0627 85.9357 30.1886 85.9357 30.3071C85.9357 36.2999 85.9357 42.2853 85.9357 48.2781C85.9357 48.4707 85.9357 48.6559 85.9357 48.8337C85.7579 48.9152 85.6394 48.8115 85.5135 48.767C82.4615 47.7077 79.4096 46.641 76.365 45.5743C75.8094 45.3817 75.9132 45.478 75.9132 44.9299C75.9132 39.9815 75.9132 35.0406 75.9132 30.0923C75.9132 29.7713 76.0662 29.5565 76.3724 29.4479C77.3058 29.1219 78.2392 28.796 79.1947 28.4626C79.291 28.6701 79.254 28.8626 79.254 29.0404C79.254 33.5295 79.254 38.0259 79.254 42.515C79.254 43.1817 79.2096 43.0261 79.7725 43.2335C80.6837 43.5668 81.6022 43.8706 82.5949 44.2187L82.6245 44.2039Z" fill="#FF0000"/>
<path d="M122.959 75.383C122.959 75.2126 122.959 75.0497 122.959 74.8793C122.959 72.0792 122.959 69.2791 122.959 66.4716C122.959 66.3531 122.959 66.2271 122.959 66.1086C122.959 65.9456 123.041 65.9012 123.182 65.9012C123.619 65.9012 124.056 65.9012 124.485 65.9012C124.671 65.9012 124.73 65.9827 124.722 66.1531C124.715 66.2568 124.722 66.3605 124.722 66.4642C124.722 70.168 124.722 73.8793 124.722 77.5831C124.722 77.6497 124.722 77.7238 124.722 77.7905C124.715 78.1831 124.715 78.1905 124.315 78.1905C123.878 78.1905 123.411 78.309 123.026 78.1461C122.656 77.9905 122.441 77.5683 122.159 77.2571C119.663 74.4941 117.174 71.7236 114.685 68.9532C114.574 68.8272 114.463 68.7087 114.329 68.5606C114.226 68.7754 114.263 68.9458 114.263 69.1161C114.263 71.9384 114.263 74.7534 114.263 77.5757C114.263 77.6942 114.263 77.8201 114.263 77.9386C114.27 78.1164 114.189 78.1905 114.018 78.1905C113.581 78.1905 113.152 78.1905 112.715 78.1905C112.559 78.1905 112.5 78.1164 112.5 77.9683C112.5 77.8646 112.5 77.7609 112.5 77.6572C112.5 73.9163 112.5 70.1754 112.5 66.4346C112.5 66.3457 112.5 66.2568 112.5 66.1753C112.478 65.9827 112.552 65.8938 112.759 65.9012C113.174 65.916 113.596 65.9234 114.011 65.9012C114.27 65.8864 114.381 66.0568 114.515 66.2123C115.633 67.4494 116.759 68.6865 117.878 69.9236C119.433 71.6421 120.989 73.3533 122.537 75.0719C122.641 75.1904 122.752 75.3015 122.856 75.4126C122.893 75.4052 122.922 75.3978 122.959 75.3904V75.383Z" fill="black"/>
<path d="M39.7591 72.0198C39.7591 70.1234 39.7591 68.2271 39.7591 66.3307C39.7591 65.8862 39.7221 65.9011 40.1739 65.9011C43.4481 65.9011 46.7223 65.9011 49.9891 65.9011C50.4113 65.9011 50.4113 65.9011 50.4113 66.3233C50.4113 66.5678 50.4113 66.8122 50.4113 67.0567C50.4113 67.4937 50.4113 67.4937 49.9446 67.4937C47.3372 67.4937 44.7222 67.4937 42.1148 67.4937C41.9962 67.4937 41.8703 67.4937 41.7518 67.4937C41.5962 67.4937 41.5444 67.5752 41.5444 67.7233C41.5444 68.7308 41.5444 69.7382 41.5444 70.7531C41.5444 70.9309 41.6184 70.9975 41.7962 70.9975C42.1296 70.9975 42.4555 70.9975 42.7889 70.9975C44.2333 70.9975 45.6778 70.9975 47.1223 70.9975C47.4853 70.9975 47.4927 71.0049 47.4927 71.3679C47.4927 71.679 47.4779 71.9976 47.4927 72.3087C47.5075 72.5383 47.4186 72.605 47.1964 72.605C46.5371 72.5976 45.8704 72.605 45.2112 72.605C44.1296 72.605 43.0555 72.605 41.974 72.605C41.5444 72.605 41.5444 72.605 41.5444 73.0198C41.5444 74.0643 41.5444 75.1088 41.5444 76.1533C41.5444 76.5977 41.4851 76.6051 41.9962 76.6051C44.6926 76.6051 47.389 76.6051 50.0928 76.6051C50.8336 76.6051 50.7299 76.531 50.7299 77.2422C50.7299 77.5459 50.8706 77.9311 50.6484 78.1385C50.4484 78.3237 50.0854 78.1978 49.7891 78.1978C46.6408 78.1978 43.4852 78.1978 40.3369 78.1978C40.2184 78.1978 40.0925 78.1978 39.9739 78.1978C39.8184 78.1978 39.7591 78.1237 39.7591 77.9755C39.7591 77.857 39.7591 77.7311 39.7591 77.6126C39.7591 75.7532 39.7591 73.8865 39.7591 72.0272V72.0198Z" fill="black"/>
<path d="M146.982 65.8938C147.782 65.8938 148.456 65.8938 149.13 65.8938C149.345 65.8938 149.426 66.0568 149.538 66.1827C150.641 67.4124 151.745 68.6494 152.849 69.8791C152.967 70.005 153.086 70.1384 153.197 70.2643C153.397 70.1902 153.493 70.0124 153.627 69.8791C154.76 68.6494 155.893 67.4272 157.019 66.1827C157.212 65.9679 157.404 65.879 157.693 65.8864C158.242 65.9086 158.797 65.8864 159.36 65.8864C159.353 66.0864 159.219 66.1605 159.13 66.2568C157.634 67.9087 156.13 69.5532 154.634 71.2051C154.36 71.5088 154.293 71.4421 154.634 71.8199C156.39 73.7755 158.145 75.7312 159.901 77.6868C160.019 77.8127 160.13 77.946 160.242 78.0646C160.16 78.2423 160.019 78.1683 159.916 78.1683C159.375 78.1757 158.834 78.1609 158.293 78.1757C158.004 78.1831 157.812 78.0868 157.627 77.872C156.241 76.2867 154.841 74.7089 153.449 73.1311C153.064 72.7014 153.064 72.7014 152.664 73.1311C151.234 74.6793 149.789 76.2126 148.375 77.7757C148.1 78.0794 147.819 78.1979 147.426 78.1757C146.908 78.146 146.397 78.1757 145.745 78.1757C147.856 75.8941 149.886 73.7015 151.923 71.5088C150.293 69.6495 148.693 67.8198 146.997 65.879L146.982 65.8938Z" fill="black"/>
<path d="M79.6552 70.1382C79.6552 68.8863 79.6552 67.6344 79.6552 66.3825C79.6552 65.9232 79.6552 65.9232 80.0923 65.9158C80.4256 65.9158 80.7515 65.9306 81.0849 65.9158C81.3664 65.901 81.4405 66.0047 81.4405 66.2714C81.4256 67.3825 81.4405 68.5011 81.4405 69.6122C81.4405 70.7974 81.4405 71.9753 81.4405 73.1605C81.4405 73.7531 81.4923 74.3383 81.7145 74.9013C82.2183 76.1976 83.4035 76.9606 84.8776 76.9458C86.611 76.931 87.9073 75.9754 88.3222 74.3827C88.4259 73.9753 88.4703 73.5605 88.4703 73.1457C88.4703 70.953 88.4703 68.7603 88.4703 66.5677C88.4703 66.464 88.4851 66.3603 88.4703 66.2565C88.4333 65.9751 88.5592 65.901 88.8259 65.9158C89.174 65.938 89.5222 65.9158 89.8704 65.9158C90.2259 65.9158 90.2333 65.9232 90.2333 66.301C90.2333 66.8566 90.2333 67.4121 90.2333 67.9677C90.2333 69.7085 90.2333 71.4493 90.2333 73.1901C90.2333 74.0124 90.1296 74.8198 89.8111 75.5902C89.1666 77.168 87.9592 78.0718 86.3147 78.4051C85.1221 78.6496 83.922 78.6273 82.7738 78.168C80.8997 77.4125 79.8626 75.9902 79.7145 73.9975C79.6182 72.716 79.6997 71.4271 79.6997 70.1382C79.6922 70.1382 79.6774 70.1382 79.67 70.1382H79.6552Z" fill="black"/>
<path d="M101.871 72.0717C101.871 73.9681 101.871 75.8644 101.871 77.7608C101.871 78.183 101.871 78.1905 101.449 78.1905C101.116 78.1905 100.79 78.1756 100.456 78.1905C100.175 78.2053 100.079 78.0867 100.108 77.8201C100.116 77.7312 100.108 77.6497 100.108 77.5608C100.108 73.8718 100.108 70.1828 100.108 66.4938C100.108 66.4271 100.108 66.353 100.108 66.2863C100.116 65.9011 100.116 65.8937 100.516 65.8937C100.849 65.8937 101.175 65.8937 101.508 65.8937C101.864 65.8937 101.871 65.8937 101.871 66.2715C101.871 67.9086 101.871 69.5457 101.871 71.1754C101.871 71.4717 101.871 71.768 101.871 72.0643V72.0717Z" fill="#010101"/>
<path d="M137.183 72.0199C137.183 73.9385 137.183 75.8496 137.183 77.7682C137.183 78.1905 137.183 78.1905 136.753 78.1905C136.405 78.1905 136.057 78.1831 135.708 78.1905C135.479 78.1905 135.397 78.1016 135.42 77.8793C135.427 77.7904 135.42 77.709 135.42 77.6201C135.42 73.894 135.42 70.168 135.42 66.4419C135.42 66.353 135.427 66.2641 135.42 66.1827C135.39 65.9456 135.516 65.8863 135.731 65.8938C136.094 65.9012 136.464 65.8938 136.827 65.8938C137.183 65.8938 137.19 65.9012 137.19 66.2715C137.19 67.8568 137.19 69.442 137.19 71.0273V72.0199H137.183Z" fill="#000101"/>
<path d="M69.5491 75.8348C70.9121 73.7088 71.0973 71.4495 70.1121 69.1605C69.1565 66.9308 67.349 65.7307 64.9564 65.4418C62.3785 65.1307 59.6303 66.316 58.3561 68.9531C57.7191 70.2791 57.5117 71.6717 57.7339 73.1236C58.1191 75.6051 59.4673 77.3385 61.8155 78.2275C63.4452 78.8423 65.0971 78.7756 66.7046 78.1089C66.9861 77.9904 67.1416 78.0201 67.3194 78.2571C67.4824 78.4793 67.6824 78.6793 67.8676 78.8867C67.9491 78.9756 68.0083 79.0942 68.1491 79.0942C68.7639 79.0942 69.3787 79.1238 70.0751 79.0645C69.4824 78.383 68.9343 77.7534 68.3639 77.0941C68.838 76.7163 69.2454 76.3163 69.5565 75.8348H69.5491ZM67.2898 75.8274C66.9861 75.5977 66.7861 75.2718 66.5268 74.9977C66.4305 74.9014 66.3638 74.7681 66.2009 74.7681C65.6008 74.7681 64.9934 74.7681 64.2971 74.7681C64.8749 75.4422 65.386 76.0348 65.9342 76.6719C63.6674 77.62 60.8525 76.657 59.8525 73.9977C59.3043 72.5384 59.3488 71.0568 60.0006 69.6272C61.2748 66.8123 64.9341 66.0863 67.2527 68.1456C69.3639 70.0124 69.4306 74.0495 67.2972 75.8348L67.2898 75.8274Z" fill="black"/>
</svg>
