<svg width="200" height="100" viewBox="0 0 200 100" fill="none" xmlns="http://www.w3.org/2000/svg">
<path d="M117.404 34.8282C116.494 34.6749 115.579 34.5216 114.674 34.3635C112.332 33.9515 109.97 33.6976 107.599 33.5204C106.53 33.4438 105.457 33.3959 104.389 33.3192C104.145 33.3001 104.049 33.3815 103.968 33.6066C101.812 39.7526 99.8049 45.9512 97.7499 52.1355C97.6349 52.4756 97.8217 52.4468 98.0229 52.466C100.528 52.672 103.01 53.0121 105.453 53.6204C107.527 54.1378 109.544 54.8132 111.316 56.0491C112.504 56.8778 113.457 57.9077 113.888 59.3305C114.554 61.51 113.778 63.6369 111.829 65.0548C110.473 66.0369 108.945 66.3626 107.302 66.2428C106.267 66.1662 105.275 65.9458 104.37 65.4093C103.532 64.9159 102.899 64.2213 102.377 63.4166C101.448 61.9843 100.519 60.5568 99.5893 59.1245C99.3786 58.7987 99.2492 58.7652 98.8995 58.9472C98.7031 59.0526 98.5211 59.182 98.3582 59.3353C97.6876 59.958 97.0697 60.6382 96.4278 61.2897C96.126 61.5963 96.0541 61.9507 96.2218 62.334C96.8637 63.8142 97.5152 65.2944 98.1618 66.7746C98.2433 66.9662 98.4253 67.0045 98.5882 67.0668C99.551 67.4356 100.557 67.632 101.573 67.7901C103.56 68.1063 105.568 68.3075 107.575 68.1302C111.517 67.7805 115.038 66.4345 117.845 63.5411C119.574 61.7591 120.509 59.5843 120.863 57.1461C121.146 55.206 121.04 53.2899 120.365 51.4409C119.469 48.9882 117.773 47.2063 115.565 45.8793C113.563 44.677 111.354 44.0159 109.079 43.5656C107.489 43.2543 105.889 43.0531 104.269 42.9525C104.03 42.9381 103.968 42.8902 104.049 42.6411C104.408 41.5729 104.748 40.5046 105.084 39.4316C105.146 39.2256 105.232 39.1634 105.457 39.1777C107.809 39.2879 110.162 39.4316 112.509 39.6184C114.233 39.7574 115.953 39.9106 117.668 40.131C117.912 40.1645 118.018 40.1262 118.065 39.8532C118.248 38.7418 118.458 37.6353 118.664 36.5239C124.312 44.4375 125.107 58.6694 114.722 68.1446C104.356 77.6054 88.8639 76.1204 80.2558 66.6596C80.7971 66.7458 81.2809 66.8225 81.7647 66.8991C84.3227 67.2967 86.8951 67.5697 89.4771 67.7518C91.168 67.8715 92.8638 67.9338 94.5595 68.0057C94.847 68.02 94.9236 67.9338 94.9044 67.656C94.8805 67.3111 94.8901 66.9614 94.9044 66.6165C94.914 66.4057 94.8565 66.3339 94.6314 66.3147C93.5296 66.2285 92.4279 66.147 91.3548 65.874C89.9417 65.5195 89.7166 65.2225 89.5777 63.7806C89.41 62.0801 89.3908 60.37 89.3381 58.6646C89.2136 54.7797 89.2136 50.8948 89.2567 47.0098C89.2567 46.7608 89.3142 46.6697 89.5872 46.6649C91.283 46.6554 92.9788 46.6649 94.6745 46.5691C94.8086 46.5596 94.938 46.55 95.0625 46.4877C95.8625 46.0997 96.6673 45.7117 97.472 45.3333C97.6253 45.2614 97.6828 45.1704 97.678 45.0027C97.6684 44.5476 97.6637 44.0878 97.678 43.6279C97.6876 43.4028 97.6157 43.3453 97.3954 43.3501C95.1871 43.3884 92.974 43.4219 90.7656 43.4507C90.3393 43.4555 89.9178 43.4555 89.4914 43.4698C89.3142 43.4746 89.2663 43.4123 89.2759 43.2351C89.386 41.1274 89.4818 39.0197 89.592 36.9167C89.616 36.4904 89.7166 36.0784 89.9034 35.6952C90.3872 34.7036 91.1393 34.2964 92.2698 34.4018C93.271 34.4928 94.2099 34.8138 95.1152 35.221C96.1068 35.6712 97.0936 36.1455 98.0804 36.6101C98.272 36.7012 98.4684 36.773 98.6792 36.8161C99.0193 36.8784 99.2924 36.7874 99.5127 36.5191C99.8911 36.0497 100.27 35.585 100.686 35.1443C100.998 34.8138 100.959 34.5599 100.591 34.2773C99.7953 33.6641 98.981 33.0749 98.2097 32.433C97.6924 32.0019 97.1128 31.8055 96.4613 31.7767C91.9967 31.566 87.925 32.7492 84.2748 35.3072C82.6844 36.4233 81.4246 37.8317 80.6821 39.6616C80.2318 40.7777 80.1456 41.9561 80.0737 43.1345C80.0162 44.0303 80.0258 44.0207 79.1396 44.0926C78.3636 44.1548 77.5876 44.2506 76.8068 44.3177C76.6103 44.3369 76.5433 44.4135 76.5289 44.6051C76.481 45.4051 76.4283 46.2099 76.3613 47.0098C76.3421 47.2254 76.4331 47.211 76.5912 47.2015C77.5492 47.1344 78.5073 47.0913 79.4654 47.0194C79.7049 47.0003 79.7671 47.0625 79.7576 47.3021C79.633 50.3918 79.6713 53.4863 79.815 56.576C79.9204 58.7939 80.0977 61.0071 80.2989 63.2202C80.3132 63.3878 80.3228 63.5555 80.3228 63.7231C80.3372 64.2932 80.2079 64.4704 79.657 64.6333C78.7851 64.8968 78.6989 64.8632 78.1816 64.1255C75.8918 60.8634 74.426 57.2658 73.9326 53.3139C73.0368 46.1715 74.8571 39.7765 79.4606 34.2246C82.6317 30.4019 86.6508 27.82 91.4171 26.4308C94.6266 25.4919 97.9032 25.2332 101.223 25.6548C107.215 26.4164 112.245 29.0463 116.351 33.4629C116.729 33.8701 117.079 34.3012 117.443 34.7228L117.404 34.8138V34.8282Z" fill="#E11D38"/>
<path d="M124.459 63.3893C125.47 63.3893 126.284 64.2084 126.289 65.2192C126.289 66.2395 125.45 67.0778 124.44 67.073C123.438 67.0634 122.61 66.2347 122.61 65.2335C122.61 64.2132 123.438 63.3893 124.464 63.3941L124.459 63.3893Z" fill="#E11E39"/>
<path d="M124.457 66.757C123.599 66.757 122.928 66.0911 122.924 65.2337C122.924 64.3714 123.623 63.6672 124.471 63.6816C125.314 63.696 125.994 64.3858 125.994 65.2289C125.994 66.0768 125.314 66.7522 124.461 66.7522L124.457 66.757Z" fill="#FEFEFE"/>
<path d="M125.255 66.0428C124.977 66.1626 124.944 65.9326 124.848 65.8033C124.709 65.6213 124.666 65.353 124.326 65.3865C124.115 65.4057 124.082 65.468 124.067 65.6596C124.058 65.7937 124.201 66.0572 123.952 66.0572C123.751 66.0572 123.861 65.8033 123.856 65.6692C123.837 65.3243 123.856 64.9794 123.847 64.6345C123.847 64.462 123.895 64.3902 124.072 64.4045C124.273 64.4189 124.474 64.4045 124.671 64.4093C124.905 64.4237 125.111 64.5099 125.183 64.759C125.255 65.0033 125.178 65.2093 124.939 65.3147C124.805 65.377 124.858 65.4344 124.901 65.5111C125.011 65.6883 125.126 65.8656 125.246 66.0476L125.255 66.0428Z" fill="#E2213B"/>
<path d="M124.451 65.2035C124.087 65.2035 123.972 65.0503 124.077 64.7009C124.082 64.6818 124.082 64.6435 124.096 64.6435C124.336 64.5669 124.575 64.5765 124.81 64.6435C124.963 64.6866 125.001 64.8206 124.967 64.969C124.91 65.2178 124.704 65.2035 124.518 65.2083C124.494 65.2083 124.474 65.2083 124.451 65.2083V65.2035Z" fill="#FEFDFD"/>
</svg>
