<svg width="200" height="100" viewBox="0 0 200 100" fill="none" xmlns="http://www.w3.org/2000/svg">
<path d="M20.6976 44.1116C20.6976 36.1457 27.1943 29.6212 35.0418 29.5168C43.1818 29.4123 49.9848 36.0273 49.9082 44.3066C49.8386 52.1889 43.2723 58.7204 35.2855 58.7065C27.2221 58.6925 20.7046 52.175 20.6976 44.1116Z" fill="#144444"/>
<path d="M110.913 51.298C110.154 51.298 109.367 51.2283 108.601 51.3189C107.703 51.4163 107.167 51.0821 106.658 50.351C105.628 48.8609 104.486 47.4473 103.406 45.992C103.253 45.7901 103.1 45.7065 102.849 45.7274C102.411 45.7622 101.812 45.5464 101.561 45.8179C101.345 46.0547 101.499 46.6396 101.499 47.0713C101.499 48.3386 101.485 49.6129 101.505 50.8802C101.505 51.2423 101.394 51.3258 101.06 51.3119C100.377 51.284 99.6881 51.298 99.0057 51.3119C98.762 51.3119 98.6645 51.2632 98.6645 50.9916C98.6715 46.3054 98.6715 41.6122 98.6645 36.9259C98.6645 36.6961 98.7202 36.6126 98.9639 36.6126C101.241 36.6195 103.518 36.5847 105.795 36.6265C107.953 36.6683 109.82 37.9913 110.453 39.8505C111.17 41.9325 110.189 44.1398 108.058 45.2261C107.821 45.3444 107.577 45.4489 107.327 45.5394C106.867 45.7135 106.839 45.7901 107.125 46.1731C107.731 46.9738 108.336 47.7746 108.942 48.5754C109.576 49.4109 110.203 50.2465 110.836 51.0751C110.878 51.1309 110.934 51.1726 110.899 51.3049L110.913 51.298Z" fill="#144444"/>
<path d="M83.498 51.2969C83.1081 51.2969 82.7182 51.283 82.3282 51.2969C82.0636 51.3109 81.9313 51.2273 81.8338 50.9766C81.6389 50.4683 81.3952 49.9879 81.1932 49.4796C81.1097 49.2776 81.0052 49.215 80.7894 49.215C78.6099 49.2219 76.4304 49.2219 74.2509 49.215C73.9863 49.215 73.8819 49.3124 73.7983 49.5353C73.6173 50.0018 73.3944 50.4544 73.2204 50.9209C73.1159 51.1925 72.9906 51.3109 72.6772 51.2969C71.9113 51.2691 71.1384 51.2761 70.3724 51.2969C70.0173 51.3039 69.9477 51.2412 70.0939 50.8931C71.208 48.3446 72.3082 45.7891 73.4153 43.2336C74.3136 41.1516 75.2258 39.0765 76.1101 36.9876C76.2424 36.6742 76.4025 36.5767 76.7298 36.5907C77.259 36.6185 77.7952 36.6185 78.3244 36.5907C78.6377 36.5767 78.7909 36.6742 78.9093 36.9667C80.4342 40.5249 81.9731 44.0691 83.512 47.6204C83.9855 48.7206 84.452 49.8208 84.9394 50.914C85.0926 51.2482 85.0021 51.3109 84.6748 51.2969C84.2849 51.2761 83.8949 51.2969 83.505 51.2969H83.498Z" fill="#144444"/>
<path d="M113.119 51.298C112.701 51.298 112.283 51.2841 111.858 51.298C111.552 51.3119 111.545 51.2214 111.656 50.9638C112.422 49.216 113.174 47.4682 113.933 45.7135C115.194 42.8029 116.454 39.8923 117.707 36.9747C117.833 36.6892 117.972 36.5708 118.285 36.5917C118.842 36.6196 119.406 36.6196 119.963 36.5917C120.256 36.5778 120.374 36.6892 120.486 36.9399C122.296 41.1457 124.113 45.3445 125.931 49.5502C126.14 50.0377 126.342 50.5251 126.558 51.0055C126.662 51.2284 126.62 51.298 126.37 51.298C125.52 51.291 124.664 51.291 123.814 51.298C123.612 51.298 123.515 51.2214 123.445 51.0473C123.236 50.5321 122.992 50.0307 122.79 49.5154C122.707 49.3065 122.602 49.223 122.366 49.223C120.186 49.2369 118.007 49.2369 115.827 49.223C115.591 49.223 115.479 49.2996 115.396 49.5154C115.194 50.0237 114.971 50.5181 114.769 51.0195C114.685 51.2284 114.574 51.3189 114.337 51.305C113.933 51.2841 113.529 51.305 113.126 51.305L113.119 51.298Z" fill="#144444"/>
<path d="M69.0562 36.6033C67.8516 37.9681 66.7166 39.2563 65.5816 40.5445C64.9061 41.3104 64.2307 42.0694 63.5553 42.8354C63.1445 43.2949 63.1445 43.3367 63.5414 43.8102C65.5468 46.1847 67.5591 48.5661 69.5645 50.9405C69.6481 51.038 69.7177 51.1355 69.85 51.2957C69.279 51.2957 68.7707 51.2957 68.2624 51.2957C67.6636 51.2957 67.0578 51.2817 66.4589 51.3026C66.1595 51.3166 65.9785 51.2051 65.7905 50.9823C64.4118 49.332 63.0191 47.6957 61.6334 46.0524C61.2992 45.6555 61.2505 45.6972 60.8327 46.0106C60.213 46.4771 60.0389 47.0551 60.0876 47.8141C60.1503 48.8585 60.0876 49.91 60.1085 50.9545C60.1085 51.233 60.0319 51.3096 59.7603 51.3026C59.0501 51.2887 58.3329 51.2887 57.6226 51.3026C57.372 51.3026 57.2606 51.2608 57.2606 50.9614C57.2675 46.2891 57.2675 41.6099 57.2606 36.9375C57.2606 36.6869 57.3163 36.5964 57.5878 36.6033C58.312 36.6242 59.0431 36.6242 59.7673 36.6033C60.0458 36.5964 60.1155 36.6799 60.1155 36.9515C60.1015 38.5112 60.1085 40.0779 60.1155 41.6377C60.1155 41.77 60.011 41.958 60.213 42.0276C60.394 42.0903 60.4845 41.9371 60.589 41.8188C62.0234 40.1824 63.4648 38.553 64.8922 36.9097C65.0802 36.6938 65.2613 36.5894 65.5607 36.5894C66.6887 36.6103 67.8168 36.5964 69.0493 36.5964L69.0562 36.6033Z" fill="#144444"/>
<path d="M139.482 36.6056C139.468 36.8005 139.35 36.905 139.266 37.0303C137.386 39.8504 135.506 42.6635 133.612 45.4767C133.459 45.7065 133.389 45.9362 133.396 46.2148C133.41 47.7745 133.396 49.3412 133.41 50.901C133.41 51.1935 133.368 51.3188 133.034 51.3049C132.324 51.277 131.607 51.284 130.897 51.3049C130.625 51.3049 130.548 51.2352 130.548 50.9567C130.562 49.3691 130.548 47.7745 130.562 46.1869C130.562 45.9362 130.5 45.7343 130.36 45.5324C128.466 42.7053 126.572 39.8783 124.685 37.0512C124.602 36.9259 124.525 36.8005 124.407 36.6125C125.465 36.6125 126.461 36.6125 127.464 36.6125C127.68 36.6125 127.735 36.7727 127.826 36.9119C129.079 38.7781 130.326 40.6442 131.572 42.5034C131.969 43.0953 132.004 43.0953 132.408 42.4825C133.633 40.6373 134.872 38.799 136.084 36.9468C136.251 36.6961 136.425 36.6056 136.725 36.6056C137.644 36.6264 138.556 36.6125 139.482 36.6125V36.6056Z" fill="#144444"/>
<path d="M86.4008 43.9229C86.4008 41.6181 86.4008 39.3203 86.3939 37.0155C86.3939 36.6812 86.4844 36.5907 86.8117 36.6046C87.4801 36.6325 88.1555 36.6325 88.824 36.6046C89.1652 36.5907 89.2348 36.7021 89.2348 37.0224C89.2209 40.7477 89.2348 44.473 89.2209 48.1983C89.2209 48.5744 89.3045 48.6858 89.6944 48.6788C92.0689 48.6579 94.4433 48.6788 96.8178 48.6579C97.2216 48.6579 97.3052 48.7833 97.2843 49.1453C97.2564 49.7581 97.2704 50.3709 97.2843 50.9836C97.2843 51.2134 97.2286 51.297 96.9849 51.297C93.5659 51.29 90.1401 51.29 86.7211 51.297C86.3869 51.297 86.4078 51.1229 86.4078 50.907C86.4078 48.5744 86.4078 46.2487 86.4078 43.916L86.4008 43.9229Z" fill="#144444"/>
<path d="M103.67 63.8242C103.364 65.2865 103.086 66.6443 102.8 68.0021C102.661 68.6706 102.508 69.3391 102.389 70.0075C102.34 70.2652 102.25 70.3557 101.985 70.3487C101.317 70.3278 100.641 70.3278 99.973 70.3487C99.6875 70.3627 99.597 70.2513 99.5483 69.9936C99.1235 67.7375 98.6918 65.4745 98.2601 63.2184C98.1765 62.7658 98.0929 62.3132 98.0024 61.8676C97.9606 61.6796 98.0163 61.6239 98.2044 61.6308C98.5247 61.6447 98.845 61.6308 99.1653 61.6308C99.8546 61.6308 99.8407 61.6308 99.9382 62.2923C100.245 64.3743 100.558 66.4563 100.864 68.5383C100.878 68.6288 100.864 68.7681 100.976 68.782C101.136 68.7959 101.108 68.6358 101.129 68.5383C101.602 66.3728 102.083 64.2142 102.535 62.0486C102.605 61.7353 102.703 61.603 103.044 61.6308C103.489 61.6656 103.935 61.6587 104.381 61.6308C104.652 61.6169 104.736 61.7283 104.785 61.965C105.23 64.061 105.683 66.1569 106.149 68.2528C106.191 68.4339 106.128 68.7681 106.365 68.7681C106.56 68.7681 106.491 68.4339 106.518 68.2598C106.846 66.1639 107.159 64.0749 107.458 61.979C107.493 61.7144 107.577 61.6238 107.841 61.6378C108.217 61.6587 108.593 61.6656 108.969 61.6378C109.297 61.6169 109.394 61.6935 109.325 62.0416C108.935 63.9913 108.566 65.955 108.19 67.9047C108.057 68.587 107.925 69.2694 107.807 69.9588C107.758 70.2304 107.681 70.3905 107.34 70.3696C106.699 70.3348 106.052 70.3418 105.411 70.3696C105.126 70.3766 105.007 70.307 104.945 70.0006C104.576 68.1135 104.172 66.2335 103.782 64.3534C103.754 64.2211 103.719 64.0888 103.657 63.8451L103.67 63.8242Z" fill="#144444"/>
<path d="M148.249 63.6143C148.096 63.7536 148.165 63.9138 148.165 64.053C148.165 66.0236 148.151 67.9872 148.165 69.9578C148.165 70.2712 148.089 70.3686 147.775 70.3478C147.413 70.3199 147.051 70.3269 146.689 70.3478C146.438 70.3617 146.348 70.2851 146.355 70.0205C146.369 69.4217 146.355 68.8228 146.355 68.217C146.355 66.1489 146.355 64.0878 146.355 62.0198C146.355 61.7204 146.411 61.6089 146.738 61.6159C147.504 61.6438 148.277 61.6438 149.043 61.6159C149.321 61.6089 149.426 61.6995 149.488 61.9571C149.941 63.879 150.407 65.8008 150.874 67.7296C151.069 67.6251 151.041 67.4163 151.083 67.2491C151.515 65.5083 151.939 63.7606 152.343 62.0128C152.413 61.7134 152.517 61.6089 152.838 61.6159C153.604 61.6438 154.377 61.6298 155.142 61.6159C155.386 61.6159 155.484 61.6507 155.477 61.9293C155.463 64.624 155.47 67.3188 155.477 70.0135C155.477 70.2712 155.407 70.3547 155.149 70.3408C154.787 70.3199 154.418 70.3129 154.063 70.3408C153.764 70.3617 153.694 70.2642 153.694 69.9717C153.708 67.9733 153.701 65.9818 153.694 63.9834C153.694 63.865 153.799 63.6561 153.597 63.6352C153.457 63.6213 153.464 63.8232 153.436 63.9347C152.935 65.8008 152.427 67.6739 151.939 69.547C151.856 69.8534 151.737 69.9857 151.403 69.9439C150.951 69.8952 150.366 70.1249 150.066 69.8534C149.788 69.6097 149.795 69.0317 149.676 68.607C149.259 67.0611 148.841 65.5153 148.43 63.9695C148.395 63.8372 148.381 63.6979 148.256 63.6074L148.249 63.6143Z" fill="#144444"/>
<path d="M124.051 70.3432C123.508 70.3432 122.958 70.3292 122.415 70.3432C122.192 70.3432 122.101 70.2596 122.039 70.0577C121.781 69.2639 121.496 68.484 121.224 67.6902C121.161 67.4952 121.071 67.3977 120.848 67.4117C120.472 67.4325 120.096 67.4325 119.72 67.4117C119.497 67.4047 119.434 67.4813 119.441 67.6971C119.455 68.4213 119.421 69.1525 119.455 69.8697C119.476 70.2735 119.33 70.371 118.961 70.3362C118.655 70.3083 118.348 70.3083 118.042 70.3362C117.728 70.3641 117.645 70.2596 117.645 69.9463C117.659 67.2933 117.652 64.6473 117.652 61.9943C117.652 61.9386 117.652 61.8829 117.652 61.8272C117.638 61.6879 117.694 61.6183 117.84 61.6183C119.191 61.6461 120.556 61.4999 121.899 61.6879C123.717 61.9386 124.155 63.1989 124.135 64.5985C124.121 65.5177 123.814 66.3254 123.027 66.8755C122.846 67.0008 122.902 67.1192 122.958 67.2654C123.292 68.1498 123.619 69.041 123.947 69.9254C123.995 70.0507 124.072 70.176 124.051 70.3362V70.3432Z" fill="#144444"/>
<path d="M172.106 70.3429C171.514 70.3429 170.985 70.329 170.456 70.3429C170.233 70.3499 170.143 70.2663 170.073 70.0644C169.815 69.2845 169.537 68.5116 169.279 67.7317C169.202 67.5089 169.105 67.3835 168.84 67.4114C168.402 67.4532 167.81 67.2303 167.552 67.5019C167.336 67.7387 167.49 68.3236 167.483 68.7553C167.483 69.187 167.476 69.6187 167.483 70.0504C167.483 70.2663 167.42 70.3499 167.197 70.3429C166.779 70.329 166.361 70.322 165.944 70.3429C165.707 70.3499 165.672 70.2524 165.672 70.0504C165.672 67.3278 165.672 64.6122 165.672 61.8896C165.672 61.7712 165.63 61.625 165.839 61.6319C167.302 61.6807 168.778 61.4787 170.226 61.7573C171.215 61.9453 171.862 62.5789 172.05 63.5956C172.287 64.8698 172.169 66.0536 171.027 66.9031C170.839 67.0423 170.929 67.1677 170.978 67.3C171.312 68.1982 171.647 69.0965 171.981 69.9947C172.016 70.0992 172.043 70.2036 172.085 70.3499L172.106 70.3429Z" fill="#144444"/>
<path d="M135.256 66.051C135.263 66.8099 135.201 67.555 134.985 68.2792C134.588 69.63 133.738 70.3124 132.332 70.4447C131.775 70.5004 131.218 70.5004 130.661 70.4099C129.4 70.208 128.599 69.4838 128.286 68.2513C127.91 66.7821 127.896 65.2989 128.272 63.8297C128.655 62.3535 129.449 61.6711 130.967 61.497C131.475 61.4344 131.998 61.4552 132.513 61.5249C133.864 61.7129 134.651 62.4928 134.999 63.781C135.201 64.526 135.263 65.285 135.256 66.0579V66.051Z" fill="#144444"/>
<path d="M164.18 65.9962C164.201 66.79 164.138 67.556 163.915 68.2941C163.526 69.624 162.676 70.3134 161.297 70.4457C160.726 70.5014 160.155 70.5014 159.584 70.4109C158.324 70.209 157.523 69.4778 157.21 68.2453C156.827 66.7483 156.827 65.2372 157.217 63.7401C157.544 62.4728 158.359 61.6999 159.689 61.5258C160.385 61.4353 161.081 61.4284 161.764 61.5885C163.087 61.8949 163.832 62.828 164.069 64.4365C164.145 64.9587 164.18 65.4879 164.166 65.9962H164.18Z" fill="#144444"/>
<path d="M97.1787 65.9131C97.1787 66.7835 97.116 67.5216 96.9141 68.2388C96.5311 69.6036 95.6677 70.3139 94.2541 70.4462C93.6971 70.5019 93.14 70.5019 92.583 70.4114C91.26 70.2094 90.4592 69.4226 90.1667 68.1413C89.8325 66.693 89.8186 65.2377 90.1946 63.7963C90.5845 62.3271 91.3992 61.6516 92.9102 61.4915C93.5091 61.4288 94.1079 61.4427 94.6998 61.5681C96.0924 61.8605 96.7261 62.8354 96.9976 64.1305C97.1299 64.7572 97.1856 65.3978 97.1717 65.9062L97.1787 65.9131Z" fill="#144444"/>
<path d="M64.2094 65.9968C64.2094 64.6598 64.2094 63.3159 64.2094 61.979C64.2094 61.7214 64.2581 61.603 64.5506 61.6239C64.9127 61.6517 65.2747 61.6517 65.6368 61.6239C65.9223 61.603 66.0198 61.6865 66.0128 61.986C65.992 62.933 66.0128 63.8869 65.9989 64.8339C65.9989 65.1124 66.0755 65.189 66.3471 65.1821C67.1827 65.1612 68.0252 65.1612 68.8608 65.1821C69.1672 65.189 69.2229 65.0776 69.2229 64.7991C69.209 63.8521 69.2229 62.8981 69.209 61.9511C69.209 61.6935 69.2716 61.603 69.5362 61.6169C69.9262 61.6378 70.3161 61.6308 70.706 61.6169C70.908 61.6169 71.0055 61.6448 71.0055 61.8885C70.9985 64.6111 70.9985 67.3337 71.0055 70.0563C71.0055 70.2791 70.9358 70.3488 70.72 70.3418C70.3161 70.3279 69.9122 70.3209 69.5084 70.3418C69.2507 70.3557 69.209 70.2374 69.2159 70.0215C69.2229 69.0606 69.209 68.0927 69.2229 67.1318C69.2229 66.8393 69.1811 66.714 68.8469 66.7279C68.0113 66.7558 67.1687 66.7488 66.3332 66.7279C66.0825 66.7279 65.9989 66.7906 65.9989 67.0552C66.0128 68.03 65.9989 69.0118 66.0128 69.9867C66.0128 70.2513 65.9641 70.3627 65.6717 70.3418C65.2956 70.3139 64.9196 70.3209 64.5436 70.3418C64.279 70.3557 64.2163 70.2652 64.2163 70.0145C64.2303 68.6776 64.2163 67.3337 64.2163 65.9968H64.2094Z" fill="#144444"/>
<path d="M82.7662 65.9678C82.7662 64.6448 82.7732 63.3149 82.7662 61.9918C82.7662 61.6994 82.8428 61.6158 83.1353 61.6228C84.1519 61.6437 85.1755 61.6228 86.1921 61.6298C88.1139 61.6507 89.1863 62.7857 89.1097 64.7145C89.0958 65.0069 89.0749 65.2994 89.0122 65.5849C88.7128 67.0123 87.7379 67.7643 86.1434 67.7992C85.7116 67.8061 85.2799 67.8131 84.8482 67.7992C84.6254 67.7992 84.5557 67.8758 84.5627 68.0916C84.5766 68.7322 84.5627 69.3728 84.5697 70.0135C84.5697 70.2641 84.507 70.3616 84.2424 70.3477C83.8664 70.3268 83.4904 70.3268 83.1144 70.3477C82.8219 70.3686 82.7662 70.2502 82.7732 69.9856C82.7871 68.6487 82.7732 67.3048 82.7732 65.9678H82.7662Z" fill="#144444"/>
<path d="M72.8799 65.9747C72.8799 64.6517 72.8868 63.3218 72.8799 61.9988C72.8799 61.7133 72.9425 61.6158 73.2489 61.6228C74.8992 61.6367 76.5425 61.6367 78.1928 61.6228C78.4713 61.6228 78.5618 61.7063 78.5409 61.9779C78.5061 62.3609 78.7081 62.8761 78.4574 63.099C78.2415 63.287 77.7402 63.1616 77.3642 63.1616C76.5982 63.1616 75.8253 63.1755 75.0593 63.1616C74.7808 63.1616 74.6555 63.2173 74.6764 63.5237C74.7042 63.9554 74.7042 64.3871 74.6764 64.8189C74.6555 65.1252 74.7738 65.1879 75.0593 65.1809C75.8392 65.1601 76.6261 65.1949 77.4059 65.167C77.7332 65.1531 77.8237 65.2645 77.7889 65.5709C77.7471 65.9399 77.9491 66.4343 77.6984 66.6502C77.4825 66.8312 77.009 66.7129 76.6469 66.7129C76.0899 66.7129 75.5259 66.7198 74.9688 66.7129C74.746 66.7129 74.6764 66.7825 74.6833 66.9983C74.6972 67.4858 74.7042 67.9732 74.6833 68.4606C74.6694 68.7322 74.7738 68.7809 75.0176 68.7809C76.076 68.767 77.1413 68.7809 78.1997 68.767C78.4852 68.767 78.5688 68.8575 78.5479 69.1221C78.5131 69.5121 78.708 70.0064 78.4713 70.2571C78.2346 70.5078 77.7332 70.3337 77.3502 70.3337C75.9785 70.3476 74.6137 70.3337 73.2419 70.3407C72.9634 70.3407 72.8868 70.2641 72.8868 69.9925C72.9007 68.6556 72.8868 67.3117 72.8868 65.9747H72.8799Z" fill="#144444"/>
<path d="M110.579 65.9536C110.579 64.6445 110.586 63.3285 110.579 62.0194C110.579 61.727 110.628 61.6155 110.962 61.6155C112.598 61.6364 114.228 61.6295 115.864 61.6155C116.163 61.6155 116.247 61.6991 116.226 61.9846C116.198 62.3606 116.344 62.855 116.156 63.0778C115.934 63.3285 115.425 63.1474 115.042 63.1544C114.262 63.1683 113.476 63.1683 112.696 63.1544C112.452 63.1544 112.348 63.1962 112.361 63.4747C112.382 63.9482 112.382 64.4217 112.361 64.8952C112.355 65.118 112.424 65.1807 112.64 65.1737C113.462 65.1598 114.29 65.1737 115.112 65.1668C115.37 65.1668 115.495 65.2016 115.474 65.501C115.439 65.8909 115.592 66.3993 115.397 66.629C115.189 66.8728 114.659 66.6917 114.276 66.7056C113.733 66.7196 113.19 66.7196 112.64 66.7056C112.417 66.7056 112.355 66.7683 112.361 66.9911C112.375 67.4786 112.382 67.966 112.361 68.4534C112.348 68.711 112.424 68.7876 112.682 68.7807C113.74 68.7667 114.806 68.7807 115.864 68.7667C116.17 68.7667 116.247 68.8573 116.226 69.1428C116.205 69.4631 116.212 69.7834 116.226 70.1037C116.226 70.2917 116.163 70.3404 115.982 70.3404C114.262 70.3404 112.549 70.3335 110.83 70.3404C110.558 70.3404 110.593 70.1803 110.593 70.0132C110.593 68.6623 110.593 67.3045 110.593 65.9536H110.579Z" fill="#144444"/>
<path d="M173.634 65.9536C173.634 64.6445 173.641 63.3285 173.634 62.0194C173.634 61.727 173.683 61.6155 174.01 61.6155C175.646 61.6364 177.276 61.6295 178.912 61.6155C179.212 61.6155 179.295 61.6991 179.274 61.9846C179.246 62.3606 179.393 62.855 179.205 63.0778C178.982 63.3285 178.474 63.1474 178.091 63.1544C177.311 63.1683 176.524 63.1683 175.744 63.1544C175.5 63.1544 175.396 63.1962 175.41 63.4678C175.431 63.9412 175.431 64.4147 175.41 64.8882C175.403 65.1111 175.472 65.1737 175.688 65.1668C176.51 65.1528 177.339 65.1668 178.16 65.1598C178.418 65.1598 178.543 65.1946 178.522 65.494C178.487 65.884 178.641 66.3923 178.446 66.629C178.237 66.8728 177.708 66.6917 177.325 66.7056C176.781 66.7196 176.238 66.7196 175.688 66.7056C175.465 66.7056 175.403 66.7683 175.41 66.9911C175.424 67.4786 175.431 67.966 175.41 68.4534C175.396 68.711 175.465 68.7876 175.73 68.7807C176.788 68.7667 177.854 68.7807 178.912 68.7667C179.212 68.7667 179.295 68.8573 179.274 69.1428C179.253 69.4631 179.26 69.7834 179.274 70.1037C179.274 70.2917 179.212 70.3404 179.031 70.3404C177.311 70.3404 175.598 70.3335 173.878 70.3404C173.606 70.3404 173.641 70.1803 173.641 70.0132C173.641 68.6623 173.641 67.3045 173.641 65.9536H173.634Z" fill="#144444"/>
<path d="M136.75 65.9815C136.75 64.6445 136.757 63.3006 136.75 61.9637C136.75 61.6921 136.819 61.6155 137.091 61.6155C138.727 61.6295 140.357 61.6295 141.993 61.6155C142.279 61.6155 142.362 61.6991 142.334 61.9707C142.299 62.3536 142.501 62.8689 142.251 63.0917C142.035 63.2797 141.534 63.1544 141.158 63.1544C140.392 63.1544 139.619 63.1683 138.853 63.1544C138.595 63.1544 138.511 63.2171 138.518 63.4817C138.539 64.1084 138.539 64.7351 138.518 65.3617C138.505 65.6612 138.63 65.7029 138.888 65.7029C139.681 65.689 140.482 65.7029 141.276 65.696C141.527 65.696 141.666 65.7308 141.638 66.0302C141.61 66.3505 141.617 66.6708 141.638 66.9911C141.652 67.2209 141.561 67.2697 141.352 67.2697C140.531 67.2627 139.702 67.2697 138.881 67.2627C138.609 67.2627 138.518 67.3323 138.525 67.6109C138.546 68.4186 138.525 69.2263 138.539 70.034C138.539 70.2708 138.477 70.3544 138.233 70.3404C137.759 70.3195 137.147 70.5006 136.854 70.2638C136.555 70.0201 136.771 69.3795 136.764 68.913C136.75 67.9381 136.764 66.9633 136.764 65.9815H136.75Z" fill="#144444"/>
<path d="M60.8048 66.7474C60.8048 67.8337 60.7978 68.9199 60.8048 70.0131C60.8048 70.2638 60.7421 70.3613 60.4775 70.3474C60.1154 70.3265 59.7533 70.3195 59.3912 70.3474C59.0988 70.3683 59.0152 70.2847 59.0152 69.9853C59.0292 68.1052 59.0292 66.2182 59.0152 64.3381C59.0152 63.9621 59.1754 63.4677 58.9386 63.2588C58.7367 63.0778 58.2493 63.2031 57.8872 63.2031C57.5669 63.2031 57.2466 63.2031 56.9263 63.2031C56.7452 63.2031 56.6826 63.1405 56.6826 62.9594C56.6895 62.5973 56.6965 62.2352 56.6826 61.8732C56.6826 61.6852 56.7522 61.6364 56.9263 61.6364C58.9108 61.6364 60.8883 61.6364 62.8728 61.6364C63.0539 61.6364 63.1166 61.6991 63.1166 61.8801C63.1026 62.2283 63.1026 62.5764 63.1166 62.9246C63.1305 63.1474 63.04 63.2101 62.8241 63.2101C62.2949 63.1962 61.7587 63.231 61.2365 63.1962C60.8465 63.1683 60.7769 63.3145 60.7839 63.6697C60.8048 64.7002 60.7908 65.7308 60.7908 66.7683L60.8048 66.7474Z" fill="#144444"/>
<path d="M40.3952 36.7845C40.5623 36.9377 40.625 36.9865 40.6807 37.0492C41.6555 38.024 42.6304 39.0128 43.6191 39.9737C43.842 40.1965 43.7097 40.287 43.5634 40.4263C42.4145 41.5683 41.2795 42.7172 40.1236 43.8522C39.9147 44.0541 39.9078 44.1586 40.1236 44.3675C41.2795 45.5025 42.4145 46.6584 43.5704 47.7934C43.7793 48.0023 43.7793 48.1067 43.5704 48.3156C42.6234 49.2417 41.6764 50.1748 40.7573 51.1287C40.5205 51.3724 40.4091 51.3167 40.2072 51.1078C39.1488 50.0355 38.0764 48.9701 37.0111 47.9048C34.7968 45.6974 34.7689 42.6127 36.9554 40.3776C38.0486 39.2565 39.1697 38.1633 40.2698 37.0561C40.3325 36.9934 40.3534 36.882 40.4021 36.7845H40.3952Z" fill="#FEFEFE"/>
<path d="M29.2599 44.119C29.2599 41.842 29.2599 39.572 29.253 37.2951C29.253 36.9678 29.3296 36.8773 29.6638 36.8842C30.9589 36.9051 32.2611 36.8982 33.5562 36.8842C33.8278 36.8842 33.9462 36.926 33.9462 37.2394C33.9322 40.3937 33.9531 43.548 33.9322 46.6954C33.9113 49.1604 31.9965 51.2006 29.6429 51.3398C29.3365 51.3607 29.246 51.305 29.246 50.9778C29.2599 48.6869 29.253 46.4029 29.253 44.112L29.2599 44.119Z" fill="#FEFEFE"/>
<path d="M103.72 39.2377C104.277 39.2377 104.834 39.2377 105.398 39.2377C106.122 39.2447 106.776 39.4536 107.306 39.9619C108.072 40.693 108.023 41.8141 107.208 42.4895C106.665 42.9352 106.031 43.1162 105.349 43.1301C104.179 43.1441 103.002 43.1301 101.832 43.1371C101.582 43.1371 101.498 43.0814 101.505 42.8168C101.519 41.7445 101.526 40.6721 101.505 39.5928C101.505 39.2865 101.61 39.2238 101.888 39.2308C102.501 39.2516 103.114 39.2308 103.733 39.2308L103.72 39.2377Z" fill="#FEFEFE"/>
<path d="M75.0948 46.6034C75.4778 45.7121 75.8399 44.8765 76.202 44.034C76.5571 43.2193 76.9053 42.3976 77.2604 41.5829C77.3091 41.4646 77.3231 41.2905 77.518 41.2974C77.7061 41.2974 77.713 41.4715 77.7687 41.5899C78.4511 43.1566 79.1335 44.7233 79.8089 46.297C79.8577 46.4084 80.0318 46.5964 79.7114 46.5964C78.1935 46.5964 76.6755 46.5964 75.1018 46.5964L75.0948 46.6034Z" fill="#FEFEFE"/>
<path d="M121.455 46.6032C121.121 46.6032 120.773 46.6032 120.425 46.6032C119.283 46.6032 118.134 46.6032 116.992 46.6032C116.79 46.6032 116.672 46.6032 116.79 46.3316C117.493 44.7301 118.183 43.1216 118.879 41.5131C118.921 41.4087 118.949 41.2972 119.095 41.2972C119.213 41.2972 119.262 41.3738 119.304 41.4713C120.028 43.1564 120.745 44.8415 121.469 46.5266C121.469 46.5336 121.469 46.5545 121.455 46.6032Z" fill="#FEFEFE"/>
<path d="M119.441 64.4852C119.441 64.137 119.441 63.7888 119.441 63.4407C119.441 63.2457 119.462 63.1343 119.706 63.1413C120.179 63.1622 120.653 63.1413 121.126 63.1482C121.837 63.1761 122.24 63.6148 122.303 64.4086C122.366 65.1745 121.983 65.7525 121.307 65.8639C120.757 65.9544 120.193 65.8778 119.636 65.8987C119.455 65.8987 119.441 65.7873 119.441 65.655C119.441 65.265 119.441 64.8751 119.441 64.4852Z" fill="#FEFEFE"/>
<path d="M168.483 63.1475C168.65 63.1475 168.818 63.1475 168.985 63.1475C169.855 63.1475 170.322 63.614 170.335 64.4914C170.342 65.4036 169.89 65.884 169.006 65.898C168.588 65.898 168.17 65.891 167.752 65.898C167.55 65.898 167.488 65.8283 167.488 65.6334C167.494 64.8953 167.501 64.1572 167.488 63.4191C167.488 63.1893 167.564 63.1336 167.78 63.1475C168.017 63.1614 168.253 63.1475 168.49 63.1475H168.483Z" fill="#FEFEFE"/>
<path d="M133.429 66.0313C133.429 66.6302 133.394 67.229 133.227 67.8139C133.011 68.5798 132.523 68.928 131.674 68.928C130.79 68.928 130.253 68.6007 130.065 67.8278C129.766 66.6162 129.766 65.3907 130.065 64.1861C130.267 63.3714 130.769 63.0302 131.632 63.0232C132.489 63.0232 132.976 63.3644 133.213 64.1652C133.289 64.4159 133.338 64.6805 133.366 64.9451C133.401 65.3071 133.408 65.6692 133.429 66.0313Z" fill="#FEFEFE"/>
<path d="M162.364 66.0244C162.336 66.6232 162.343 67.243 162.162 67.8348C161.925 68.6077 161.445 68.935 160.546 68.9281C159.697 68.9281 159.182 68.5799 159.001 67.807C158.715 66.6093 158.708 65.3977 159.008 64.207C159.216 63.3714 159.732 63.0233 160.602 63.0302C161.472 63.0302 161.939 63.3993 162.176 64.2349C162.343 64.8198 162.343 65.4186 162.371 66.0244H162.364Z" fill="#FEFEFE"/>
<path d="M95.3325 65.9479C95.3325 66.6721 95.3046 67.3127 95.0957 67.9254C94.8659 68.6148 94.3924 68.9212 93.5847 68.9281C92.7422 68.9281 92.206 68.6426 92.018 67.9463C91.6559 66.6303 91.6489 65.3003 92.0528 63.9912C92.2687 63.3019 92.77 63.0164 93.5847 63.0233C94.3646 63.0233 94.8311 63.3367 95.0679 64.0052C95.1375 64.2001 95.1932 64.4021 95.228 64.611C95.3046 65.0775 95.3534 65.551 95.3325 65.9479Z" fill="#FEFEFE"/>
<path d="M84.5631 64.6871C84.5631 64.2693 84.57 63.8516 84.5631 63.4338C84.5631 63.2318 84.5979 63.1343 84.8346 63.1413C85.2664 63.1622 85.6981 63.1343 86.1298 63.1483C86.7565 63.1761 87.0907 63.4686 87.2369 64.0813C87.3135 64.4086 87.3135 64.7498 87.2648 65.0771C87.1464 65.9127 86.7356 66.2539 85.8861 66.2608C85.5379 66.2608 85.1898 66.2469 84.8416 66.2608C84.6188 66.2747 84.5561 66.1842 84.5631 65.9753C84.577 65.5436 84.5631 65.1119 84.5631 64.6802V64.6871Z" fill="#FEFEFE"/>
</svg>
