<svg width="200" height="100" viewBox="0 0 200 100" fill="none" xmlns="http://www.w3.org/2000/svg">
<path d="M88.3947 58.5155H85.9625C86.0057 58.355 86.0921 58.1945 86.0921 58.0279C86.0983 53.8487 86.0921 49.6634 86.0921 45.4842C86.0921 45.367 86.0921 45.2497 86.0921 45.1077C86.2403 45.1077 86.3452 45.1077 86.4502 45.1077C88.5367 45.1077 90.6231 45.1077 92.7158 45.1077C93.0615 45.1077 93.1356 45.0398 93.1356 44.6941C93.1356 43.8175 93.1356 42.9348 93.1356 42.0582C93.1356 41.731 93.0615 41.657 92.7282 41.657C87.0551 41.657 81.3821 41.657 75.7091 41.657C75.3634 41.657 75.2955 41.7249 75.2955 42.0767C75.2955 42.9286 75.2955 43.7805 75.2955 44.6324C75.2955 45.0521 75.3448 45.1077 75.7646 45.1077C77.8449 45.1077 79.9252 45.1077 81.9994 45.1077H82.3142C82.3142 45.2558 82.3142 45.3608 82.3142 45.4657C82.3142 49.6634 82.3142 53.8672 82.3204 58.0649C82.3204 58.2131 82.4192 58.3674 82.4685 58.5155H69.0916C69.1903 58.4785 69.2829 58.4415 69.3879 58.4106C71.8015 57.7563 73.3633 55.8179 73.3818 53.3364C73.4127 49.5646 73.3942 45.7929 73.3942 42.0273C73.3942 41.7249 73.3201 41.657 73.0114 41.657C72.0484 41.657 71.0916 41.657 70.1286 41.657C69.6163 41.657 69.5854 41.6878 69.5854 42.1878C69.5854 45.7559 69.5854 49.3239 69.5854 52.8919C69.5854 53.9598 69.1595 54.6018 68.1347 54.9228C67.6038 55.0895 67.0359 55.213 66.4804 55.2315C65.0544 55.287 63.6284 55.3056 62.2024 55.2747C61.4678 55.2623 60.7209 55.1759 60.0048 55.0154C58.9307 54.7747 58.2085 54.1697 58.2208 52.7499C58.2517 49.2004 58.227 45.6509 58.227 42.0952C58.227 41.7002 58.1776 41.6508 57.7887 41.6508C56.8257 41.6508 55.8689 41.6508 54.9059 41.6508C54.4614 41.6508 54.4182 41.694 54.4182 42.1323C54.4182 45.7867 54.4182 49.4473 54.4244 53.1018C54.4244 53.5401 54.4491 53.9845 54.5355 54.4105C54.9491 56.392 56.2516 57.5896 58.0788 58.2995C58.2887 58.3797 58.5109 58.4415 58.727 58.5094H50.8996C50.8996 58.5094 50.9304 58.4662 50.949 58.46C51.949 58.0155 52.3873 57.2439 52.3873 56.1636C52.3749 51.4721 52.3873 46.7806 52.3873 42.0891C52.3873 41.7187 52.3317 41.657 51.9613 41.657C51.0169 41.657 50.0786 41.657 49.1341 41.657C48.6464 41.657 48.6217 41.6816 48.6217 42.157C48.6217 45.6633 48.6217 49.1696 48.6217 52.6758C48.6217 52.7746 48.6217 52.8795 48.6217 53.0339C48.5106 52.9475 48.4427 52.8981 48.381 52.8425C46.9982 51.6141 45.6216 50.3795 44.245 49.151C41.603 46.8114 38.9671 44.4657 36.3188 42.1323C35.5842 41.4841 34.7324 41.3421 33.8373 41.7496C32.936 42.157 32.5101 42.8977 32.5101 43.8793C32.5101 48.6263 32.5101 53.3672 32.5101 58.1143C32.5101 58.2439 32.6027 58.3797 32.6582 58.5094H32.2878C32.2878 52.8302 32.2878 47.151 32.2878 41.4779C77.4313 41.4779 122.569 41.4779 167.712 41.4779V58.5094C167.607 58.5094 167.502 58.5094 167.397 58.5094C167.601 58.2933 167.601 58.2192 167.373 58.0217C164.749 55.7562 162.119 53.4907 159.496 51.2252C159.323 51.077 159.187 51.0832 159.014 51.2252C158.255 51.8919 157.483 52.5462 156.718 53.2129C156.428 53.4598 156.428 53.5339 156.724 53.787C157.817 54.7315 158.909 55.6698 160.002 56.6142C160.724 57.2439 161.44 57.8735 162.163 58.5032C157.582 58.5032 152.996 58.5032 148.415 58.5032C148.415 58.497 148.415 58.4847 148.428 58.4785C151.545 55.7871 154.662 53.1018 157.78 50.4103C158.138 50.1017 158.144 50.0523 157.792 49.7436C154.743 47.1078 151.687 44.478 148.644 41.8421C148.471 41.694 148.298 41.6323 148.07 41.6384C146.557 41.6446 145.039 41.6384 143.526 41.6384C143.458 41.6384 143.378 41.6199 143.316 41.6446C143.23 41.6755 143.113 41.7187 143.094 41.7866C143.069 41.8668 143.119 41.978 143.162 42.0644C143.187 42.1138 143.248 42.1446 143.298 42.1878C146.261 44.7435 149.23 47.3053 152.193 49.8609C152.267 49.9288 152.341 49.9967 152.428 50.0708C151.761 50.6511 151.119 51.2005 150.477 51.7499C148.076 53.8179 145.681 55.8858 143.279 57.96C143.001 58.1945 142.995 58.2501 143.187 58.497H141.125C141.174 58.3674 141.273 58.2316 141.273 58.1019C141.279 52.7499 141.279 47.3979 141.279 42.0459C141.279 41.7125 141.211 41.6384 140.884 41.6384C139.896 41.6384 138.909 41.6384 137.921 41.6384C137.569 41.6384 137.507 41.7002 137.507 42.052C137.507 47.3979 137.507 52.7376 137.507 58.0834C137.507 58.2192 137.588 58.355 137.631 58.497H133.983C133.983 58.497 134.013 58.4538 134.038 58.4476C135.038 58.0094 135.477 57.2315 135.477 56.1513C135.464 51.4659 135.477 46.7806 135.477 42.1014C135.477 41.694 135.427 41.6446 135.026 41.6446C134.075 41.6446 133.125 41.6446 132.174 41.6446C131.754 41.6446 131.711 41.6878 131.711 42.1138C131.711 45.6447 131.711 49.1819 131.711 52.7129V53.0277C131.594 52.9289 131.532 52.8796 131.476 52.8302C130.396 51.8734 129.322 50.9103 128.242 49.9474C125.365 47.3917 122.488 44.8422 119.606 42.2928C119.334 42.052 119.025 41.8236 118.692 41.6816C117.414 41.1261 115.587 41.9965 115.593 43.8854C115.605 48.614 115.593 53.3425 115.605 58.0711C115.605 58.2131 115.698 58.355 115.747 58.497H113.951C114.142 58.3118 114.062 58.1513 113.933 57.9661C110.649 53.3117 107.371 48.651 104.093 43.9904C103.698 43.4286 103.321 42.8484 102.883 42.3236C101.975 41.2372 100.463 41.2248 99.5062 42.2743C99.3271 42.4656 99.1728 42.6879 99.0247 42.8977C95.4875 47.9164 91.9565 52.9351 88.4255 57.9476C88.2959 58.1328 88.1848 58.3057 88.4132 58.4909L88.3947 58.5155ZM164.792 41.657C164.008 41.657 163.224 41.6508 162.44 41.6631C162.305 41.6631 162.138 41.7125 162.033 41.7989C160.243 43.3298 158.459 44.8731 156.669 46.4164C156.434 46.6201 156.434 46.7127 156.669 46.9226C157.416 47.5707 158.156 48.2127 158.903 48.8547C159.243 49.1449 159.249 49.1449 159.582 48.8547C162.163 46.6324 164.737 44.404 167.311 42.1755C167.41 42.0891 167.447 41.9347 167.515 41.8175C167.379 41.7619 167.243 41.6631 167.107 41.6631C166.329 41.6508 165.558 41.657 164.78 41.657H164.792Z" fill="white"/>
<path d="M32.6599 58.5163C32.6105 58.3866 32.5117 58.2508 32.5117 58.1212C32.5056 53.3741 32.5056 48.6332 32.5117 43.8861C32.5117 42.9108 32.9377 42.17 33.8389 41.7564C34.734 41.349 35.5859 41.491 36.3205 42.1392C38.9687 44.4726 41.6046 46.8183 44.2467 49.1579C45.6295 50.3864 47.006 51.6148 48.3826 52.8494C48.4444 52.905 48.5123 52.9544 48.6234 53.0408C48.6234 52.8864 48.6234 52.7815 48.6234 52.6827C48.6234 49.1764 48.6234 45.6702 48.6234 42.1639C48.6234 41.6885 48.6481 41.6638 49.1357 41.6638C50.0802 41.6638 51.0185 41.6638 51.963 41.6638C52.3272 41.6638 52.3889 41.7256 52.3889 42.096C52.3889 46.7875 52.3889 51.479 52.3889 56.1705C52.3889 57.2508 51.9568 58.0286 50.9506 58.4669C50.9321 58.4792 50.9136 58.5039 50.9012 58.5163H49.3148C48.8147 58.1335 48.29 57.7817 47.8209 57.3619C44.0492 54.0223 40.2836 50.6642 36.5119 47.3122C36.4501 47.2566 36.3884 47.2134 36.2773 47.127V47.5344C36.2773 51.0284 36.2773 54.5285 36.2773 58.0224C36.2773 58.1829 36.1909 58.3434 36.1476 58.5101H32.6599V58.5163Z" fill="black"/>
<path d="M115.731 58.5163C115.682 58.3743 115.589 58.2323 115.589 58.0903C115.583 53.3618 115.589 48.6332 115.577 43.9047C115.577 42.0157 117.398 41.1453 118.675 41.7009C119.009 41.8429 119.317 42.0713 119.589 42.312C122.472 44.8553 125.349 47.411 128.225 49.9666C129.305 50.9234 130.38 51.8864 131.46 52.8494C131.515 52.8988 131.577 52.9482 131.694 53.0469V52.7321C131.694 49.2011 131.694 45.664 131.694 42.133C131.694 41.7009 131.738 41.6639 132.157 41.6639C133.108 41.6639 134.059 41.6639 135.009 41.6639C135.411 41.6639 135.46 41.7132 135.46 42.1207C135.46 46.806 135.46 51.4913 135.46 56.1705C135.46 57.2508 135.028 58.0286 134.022 58.4669C134.003 58.4792 133.985 58.4978 133.966 58.5163H132.435C132.157 58.3373 131.843 58.1953 131.602 57.973C127.762 54.5779 123.929 51.1703 120.095 47.7628C119.867 47.5591 119.645 47.3616 119.361 47.1085V47.4912C119.361 51.0037 119.361 54.5161 119.361 58.0286C119.361 58.1891 119.274 58.3496 119.225 58.5101H115.737L115.731 58.5163Z" fill="black"/>
<path d="M88.3964 58.5156C88.1742 58.3304 88.2791 58.1576 88.4088 57.9724C91.9459 52.9537 95.4769 47.935 99.0079 42.9225C99.1622 42.7064 99.3104 42.4904 99.4894 42.299C100.446 41.2496 101.959 41.2619 102.866 42.3484C103.304 42.8731 103.681 43.4534 104.076 44.0151C107.354 48.6758 110.632 53.3302 113.916 57.9909C114.045 58.1761 114.126 58.3366 113.934 58.5218H109.706C109.619 58.423 109.527 58.3304 109.453 58.2193C108.755 57.2254 108.064 56.2316 107.36 55.2439C107.292 55.1451 107.144 55.0525 107.033 55.0525C103.119 55.0402 99.2116 55.0402 95.2979 55.0525C95.1929 55.0525 95.0448 55.1328 94.9831 55.2192C94.4954 55.8859 94.0262 56.5711 93.5509 57.244C93.2484 57.6761 92.9336 58.0958 92.6249 58.5218H88.3964V58.5156ZM104.78 51.5894C103.557 49.861 102.366 48.1881 101.162 46.4843C99.9462 48.2004 98.761 49.8795 97.5449 51.5894H104.78Z" fill="black"/>
<path d="M58.7262 58.5159C58.5102 58.448 58.2879 58.3863 58.0781 58.306C56.2508 57.5961 54.9483 56.3986 54.5347 54.417C54.4483 53.9911 54.4236 53.5466 54.4236 53.1083C54.4174 49.4539 54.4236 45.7933 54.4174 42.1388C54.4174 41.7005 54.4607 41.6573 54.9051 41.6573C55.8681 41.6573 56.8249 41.6573 57.7879 41.6573C58.1768 41.6573 58.2262 41.7129 58.2262 42.1018C58.2262 45.6513 58.2509 49.2008 58.22 52.7565C58.2077 54.1763 58.9361 54.7874 60.0041 55.022C60.7201 55.1825 61.4671 55.2627 62.2017 55.2812C63.6276 55.3059 65.0598 55.2936 66.4796 55.238C67.0352 55.2195 67.6031 55.096 68.134 54.9294C69.1587 54.6022 69.5846 53.9664 69.5846 52.8984C69.5846 49.3304 69.5846 45.7624 69.5846 42.1944C69.5846 41.6944 69.6155 41.6635 70.1279 41.6635C71.0909 41.6635 72.0477 41.6635 73.0107 41.6635C73.3193 41.6635 73.3934 41.7314 73.3934 42.0339C73.3934 45.8056 73.4119 49.5773 73.3811 53.3429C73.3625 55.8245 71.7946 57.7628 69.3871 58.4171C69.2883 58.4418 69.1896 58.485 69.0908 58.5221H58.7262V58.5159Z" fill="black"/>
<path d="M82.4694 58.5159C82.42 58.3678 82.3212 58.2134 82.3212 58.0653C82.3151 53.8676 82.3151 49.6638 82.3151 45.4661C82.3151 45.3611 82.3151 45.2562 82.3151 45.108H82.0002C79.9199 45.108 77.8396 45.108 75.7655 45.108C75.3519 45.108 75.2963 45.0587 75.2963 44.6327C75.2963 43.7808 75.2963 42.929 75.2963 42.0771C75.2963 41.7252 75.3642 41.6573 75.7099 41.6573C81.3829 41.6573 87.056 41.6573 92.729 41.6573C93.0623 41.6573 93.1364 41.7314 93.1364 42.0586C93.1364 42.9351 93.1364 43.8179 93.1364 44.6945C93.1364 45.0401 93.0623 45.108 92.7167 45.108C90.6302 45.108 88.5437 45.108 86.451 45.108C86.3461 45.108 86.2411 45.108 86.093 45.108C86.093 45.2439 86.093 45.3611 86.093 45.4846C86.093 49.6638 86.093 53.8491 86.093 58.0282C86.093 58.1887 86.0066 58.3554 85.9633 58.5159H82.4756H82.4694Z" fill="black"/>
<path d="M143.175 58.5157C142.99 58.2688 142.996 58.2194 143.268 57.9787C145.663 55.9107 148.064 53.8427 150.465 51.7686C151.107 51.2192 151.743 50.6636 152.416 50.0895C152.33 50.0093 152.256 49.9413 152.181 49.8796C149.218 47.324 146.249 44.7622 143.286 42.2065C143.237 42.1633 143.175 42.1324 143.15 42.0831C143.107 41.9966 143.058 41.8855 143.082 41.8053C143.101 41.7374 143.224 41.6942 143.305 41.6633C143.366 41.6386 143.447 41.6571 143.515 41.6571C145.027 41.6571 146.546 41.6571 148.058 41.6571C148.28 41.6571 148.459 41.7127 148.632 41.8608C151.681 44.4967 154.731 47.1264 157.78 49.7623C158.132 50.0648 158.132 50.1142 157.768 50.429C154.651 53.1205 151.533 55.8057 148.416 58.4972C148.416 58.4972 148.41 58.5157 148.404 58.5219H143.169L143.175 58.5157Z" fill="black"/>
<path d="M119.222 58.5158C119.271 58.3553 119.357 58.1948 119.357 58.0343C119.364 54.5219 119.357 51.0094 119.357 47.497V47.1142C119.641 47.3673 119.87 47.5649 120.092 47.7686C123.925 51.1699 127.759 54.5774 131.599 57.9788C131.845 58.1948 132.154 58.343 132.432 58.522H119.209L119.222 58.5158Z" fill="white"/>
<path d="M36.1473 58.5158C36.1906 58.3553 36.277 58.1948 36.277 58.0281C36.2831 54.5341 36.277 51.034 36.277 47.5401V47.1327C36.3819 47.2191 36.4498 47.2685 36.5115 47.3179C40.2771 50.6698 44.0427 54.0218 47.8206 57.3676C48.2897 57.7812 48.8144 58.1392 49.3144 58.5219H36.1473V58.5158Z" fill="white"/>
<path d="M137.625 58.5159C137.582 58.3801 137.502 58.2443 137.502 58.1023C137.496 52.7565 137.502 47.4168 137.502 42.0709C137.502 41.7129 137.564 41.6573 137.916 41.6573C138.903 41.6573 139.891 41.6573 140.879 41.6573C141.206 41.6573 141.274 41.7314 141.274 42.0647C141.274 47.4168 141.274 52.7688 141.268 58.1208C141.268 58.2505 141.169 58.3863 141.119 58.5159H137.632H137.625Z" fill="black"/>
<path d="M92.6223 58.5157C92.9309 58.0898 93.2458 57.6639 93.5483 57.2379C94.0236 56.5651 94.4927 55.886 94.9804 55.2132C95.0421 55.1268 95.1903 55.0465 95.2952 55.0465C99.2089 55.0403 103.116 55.0403 107.03 55.0465C107.141 55.0465 107.289 55.1453 107.357 55.2379C108.061 56.2256 108.752 57.2194 109.45 58.2133C109.524 58.3182 109.617 58.417 109.703 58.5157H92.6223Z" fill="white"/>
<path d="M162.166 58.5154C161.444 57.8858 160.728 57.2499 160.006 56.6265C158.913 55.682 157.82 54.7437 156.728 53.7992C156.431 53.5461 156.431 53.472 156.721 53.2251C157.487 52.5646 158.259 51.9041 159.018 51.2374C159.191 51.0893 159.327 51.0831 159.499 51.2374C162.123 53.5029 164.753 55.7684 167.376 58.0339C167.605 58.2315 167.605 58.3055 167.401 58.5216C165.654 58.5216 163.913 58.5216 162.166 58.5216V58.5154Z" fill="black"/>
<path d="M164.792 41.6569C165.569 41.6569 166.341 41.6507 167.119 41.6631C167.255 41.6631 167.39 41.7618 167.526 41.8174C167.458 41.9408 167.421 42.089 167.323 42.1754C164.748 44.4039 162.168 46.6262 159.594 48.8547C159.261 49.1386 159.254 49.1448 158.915 48.8547C158.168 48.2127 157.421 47.5645 156.68 46.9225C156.439 46.7126 156.439 46.62 156.68 46.4163C158.464 44.873 160.248 43.3359 162.045 41.7989C162.143 41.7124 162.31 41.6631 162.452 41.6631C163.236 41.6507 164.02 41.6569 164.804 41.6569H164.792Z" fill="black"/>
<path d="M104.778 51.5896H97.543C98.7529 49.8796 99.9443 48.2006 101.16 46.4845C102.364 48.1821 103.556 49.8611 104.778 51.5896Z" fill="white"/>
</svg>
