<svg width="200" height="100" viewBox="0 0 200 100" fill="none" xmlns="http://www.w3.org/2000/svg">
<path d="M40.8665 51.5487C40.8665 44.5243 40.8665 37.4998 40.8665 30.4754H159.141V69.5177H61.2968C61.3728 69.3172 61.518 69.1167 61.5111 68.9231C61.4834 68.2179 61.4005 67.5058 61.3452 66.8006C61.2829 66.0055 61.2276 65.2104 61.1585 64.3807C61.3452 64.3669 61.4558 64.3393 61.5664 64.3531C62.1264 64.4291 62.2924 64.1872 62.1956 63.6617C62.1333 63.3229 62.1264 62.9772 62.0919 62.6315C61.9812 61.553 61.8775 60.4744 61.7669 59.4166H59.2088C58.9461 62.6523 58.6764 65.8396 58.4345 69.0337C58.4206 69.1928 58.5727 69.3587 58.6488 69.5246H40.8734C40.8734 63.6894 40.8734 57.8541 40.8734 52.0188C41.0186 52.6895 41.1914 53.3532 41.2951 54.0239C41.3643 54.4663 41.5164 54.6323 41.9796 54.4732C42.3944 54.3281 42.83 54.2451 43.2586 54.1345C44.275 53.8718 45.2982 53.6159 46.3076 53.3532C46.5289 54.0354 46.9829 54.282 47.6696 54.093C47.8563 54.0446 48.043 54.0031 48.2297 53.9478C49.2806 53.6574 50.3246 53.3601 51.3824 53.0697C51.2164 52.1986 51.0574 51.3828 50.8984 50.5531C48.2642 50.7951 45.6854 51.0302 43.0996 51.2791C42.3598 51.3482 41.6201 51.4588 40.8803 51.5556L40.8665 51.5487ZM159.01 56.0565C157.544 56.0012 157.012 56.1256 157.005 53.9755C157.005 53.8233 157.005 53.6712 157.005 53.5122C157.005 49.599 157.005 45.6858 157.005 41.7726C157.005 41.5513 157.005 41.3301 157.005 41.1019H153.499V43.3005C153.181 43.0655 152.732 42.7405 152.296 42.4017C150.036 40.6318 147.512 40.3068 144.836 41.1572C141.02 42.3603 138.469 46.0522 138.566 50.2696C138.655 54.2313 140.384 57.2457 144.055 58.9465C147.194 60.3984 151.494 59.7969 153.638 56.6926C153.665 56.658 153.734 56.6442 153.811 56.6096C154.018 57.8956 154.695 58.8289 155.961 59.1193C156.936 59.3406 157.959 59.3475 159.003 59.4512V56.0634L159.01 56.0565ZM100.498 59.6724C105.884 59.6517 109.908 55.5518 109.88 50.1037C109.852 44.7455 105.787 40.7078 100.436 40.7217C95.0638 40.7355 91.0469 44.8492 91.0746 50.3042C91.1022 55.614 95.2021 59.6863 100.491 59.6655L100.498 59.6724ZM116.151 59.3267V51.5625C116.898 51.4035 117.437 51.4865 117.935 52.1364C119.712 54.4525 121.558 56.7133 123.404 58.9741C123.563 59.1746 123.901 59.3267 124.157 59.3337C125.367 59.3682 126.577 59.3544 127.794 59.3475C127.932 59.3475 128.063 59.3198 128.278 59.2922C128.057 59.0087 127.891 58.8013 127.725 58.5939C125.374 55.6763 123.037 52.7586 120.673 49.8548C120.389 49.5091 120.368 49.2948 120.645 48.9353C122.463 46.5085 124.254 44.061 126.052 41.6205C126.169 41.4615 126.273 41.2955 126.432 41.0674C125.146 41.0674 123.97 41.0812 122.802 41.0605C122.456 41.0605 122.249 41.1711 122.048 41.4545C120.631 43.4595 119.165 45.4369 117.79 47.4696C117.347 48.1264 116.856 48.1955 116.137 48.0434V34.9694H112.521V59.3337H116.165L116.151 59.3267ZM129.273 34.9556C129.273 35.2114 129.273 35.4326 129.273 35.6608C129.273 40.0925 129.273 44.5243 129.273 48.956C129.273 51.0855 129.253 53.2149 129.287 55.3444C129.322 57.7781 130.767 59.2576 133.194 59.3406C134.597 59.389 136.001 59.3544 137.404 59.3475C137.473 59.3475 137.542 59.3129 137.611 59.2922V56.0289C137.363 56.0289 137.148 56.0289 136.941 56.0289C136.077 56.0289 135.212 56.0496 134.348 56.015C133.373 55.9805 133.014 55.5933 132.965 54.6184C132.958 54.4663 132.958 54.3142 132.958 54.1552C132.958 51.0855 132.958 48.0157 132.958 44.946C132.958 44.7663 132.958 44.5796 132.958 44.3514H137.618V41.0466H132.952V34.9417H129.28L129.273 34.9556ZM69.0472 46.3357C71.944 44.9598 74.8202 43.5978 77.7032 42.2427C78.0351 42.0837 78.1319 41.9109 77.9245 41.5721C77.5442 40.9498 77.1847 40.3207 76.8321 39.6777C76.6454 39.3458 76.4588 39.3182 76.1476 39.5394C75.0345 40.3276 73.9076 41.095 72.7806 41.8625C72.6493 41.9523 72.4971 42.0284 72.345 42.1183C72.2068 41.8901 72.1307 41.6758 71.9786 41.5444C71.868 41.4476 71.6053 41.3716 71.5154 41.4407C70.2432 42.3188 68.9849 43.2245 67.7266 44.1233C68.176 44.8769 68.5978 45.5821 69.0472 46.3288V46.3357ZM51.7557 61.5392C51.9078 61.6567 52.0115 61.7189 52.0876 61.8019C52.4678 62.2305 52.7306 62.1268 53.0071 61.6705C53.3459 61.1174 53.74 60.592 54.1133 60.0596C54.5627 59.4028 55.0121 58.746 55.4546 58.1099C54.7632 57.543 54.1271 57.0314 53.5326 56.5474C52.4263 57.619 51.3201 58.6699 50.2278 59.7485C49.0524 60.91 47.9047 62.0923 46.7432 63.2676C46.5704 63.4405 46.3215 63.6271 46.6187 63.8829C47.3101 64.4775 48.0223 65.0583 48.7966 65.7013C49.8129 64.284 50.774 62.9358 51.7695 61.553L51.7557 61.5392ZM67.0698 43.425C69.3928 41.1918 71.709 38.9656 74.0251 36.7462C74.2809 36.4973 74.274 36.3107 73.9974 36.0894C73.472 35.6677 72.9396 35.2528 72.4557 34.7965C72.0547 34.4163 71.8265 34.4647 71.5154 34.9141C70.6996 36.1171 69.8353 37.2924 68.978 38.4954C68.8536 38.4125 68.7568 38.3572 68.6669 38.288C68.2843 37.9884 67.9548 38.0391 67.6782 38.4401C67.1459 39.2145 66.6066 39.9888 66.0742 40.7632C65.7977 41.1642 65.528 41.5721 65.2722 41.9523C65.9636 42.5193 66.5997 43.0378 67.0698 43.4181V43.425ZM58.2063 40.8116C58.0127 40.0994 57.8122 39.3804 57.6186 38.6683C56.9895 36.3798 56.3672 34.0913 55.7381 31.8029C55.5445 31.1046 55.5376 31.0976 54.8324 31.3535C54.3069 31.547 53.7884 31.7337 53.2629 31.9273C52.779 32.1025 52.643 32.4205 52.855 32.8814C53.4496 34.1812 54.0442 35.4879 54.6664 36.843C54.4175 36.9329 54.1963 36.9675 54.0442 37.0919C53.9197 37.1956 53.7745 37.4584 53.8229 37.5621C54.4659 38.9656 55.1366 40.3552 55.7934 41.738C56.5954 41.4269 57.349 41.1434 58.1925 40.8185L58.2063 40.8116ZM62.4721 59.23C63.3156 62.3135 64.166 65.3694 64.9957 68.4391C65.1063 68.8471 65.3068 68.9093 65.6663 68.771C66.2401 68.5498 66.814 68.3493 67.3948 68.1349C67.8972 67.9506 68.0354 67.6164 67.8096 67.1324C67.215 65.8326 66.6204 64.5398 66.0258 63.24C66.6757 62.9219 66.8486 62.4449 66.5444 61.8088C66.489 61.6913 66.4268 61.5668 66.3715 61.4493C65.8668 60.3984 65.369 59.3544 64.8712 58.3173C64.0485 58.6284 63.281 58.9188 62.4652 59.23H62.4721ZM51.6313 53.7335C48.7413 55.1093 45.8444 56.4852 42.9475 57.8472C42.6226 57.9993 42.5673 58.1721 42.747 58.4694C43.1134 59.0778 43.4799 59.6863 43.8187 60.3085C44.0261 60.6957 44.2335 60.7302 44.5861 60.4814C45.6508 59.7277 46.7294 58.9949 47.8079 58.2551C47.9739 58.1445 48.1467 58.0408 48.3265 57.9302C48.4094 58.0615 48.4786 58.1376 48.5131 58.2205C48.7275 58.7391 49.004 58.8082 49.4672 58.4418C50.1794 57.8818 50.933 57.384 51.6658 56.8654C52.1083 56.5474 52.5577 56.2363 52.9656 55.9459C52.5093 55.1854 52.0945 54.494 51.6313 53.7335ZM65.5004 57.944C67.3533 60.5505 69.1923 63.1293 71.0107 65.7151C71.2665 66.0815 71.467 66.0954 71.785 65.7981C72.2483 65.3694 72.7322 64.9546 73.2438 64.5812C73.7071 64.2425 73.7002 63.9867 73.2853 63.5995C72.2137 62.6177 71.1697 61.5945 70.0842 60.5574C70.3815 60.3085 70.582 60.2048 70.6857 60.032C70.7687 59.9006 70.8102 59.6033 70.7272 59.5203C69.6417 58.4141 68.5286 57.3287 67.4362 56.257C66.7725 56.8309 66.1503 57.3701 65.4935 57.9371L65.5004 57.944ZM69.1509 53.4707C68.7084 54.2589 68.3143 54.971 67.8995 55.7108C70.5544 57.543 73.2093 59.3682 75.8642 61.2004C76.1131 61.3732 76.279 61.3248 76.4242 61.069C76.6109 60.7372 76.8114 60.4053 76.998 60.0734C77.5327 59.147 77.3184 58.4556 76.3551 57.9993C75.3042 57.5015 74.2463 56.9968 73.1747 56.4921C73.3061 56.257 73.4651 56.0842 73.4997 55.8906C73.5273 55.7385 73.4513 55.455 73.3406 55.3997C71.9579 54.7429 70.5613 54.1137 69.1578 53.4707H69.1509ZM51.2787 47.2621C50.6426 47.0962 50.0134 46.9303 49.3912 46.7643C46.9644 46.1283 44.5308 45.506 42.104 44.8631C41.6615 44.7455 41.4541 44.8216 41.4057 45.2917C41.3643 45.7065 41.2675 46.1214 41.1983 46.5362C40.9563 47.8913 40.9563 47.8706 42.3184 47.9743C43.5559 48.0641 44.7935 48.2024 46.0518 48.32C46.038 48.4721 46.0311 48.5619 46.0103 48.6518C45.879 49.3916 45.8997 49.4123 46.6671 49.4607C47.4899 49.516 48.3126 49.599 49.1354 49.6612C49.723 49.7096 50.3038 49.7442 50.8707 49.7857C51.009 48.9284 51.1335 48.1402 51.2717 47.2552L51.2787 47.2621ZM69.3859 52.7725C72.5179 53.5883 75.6291 54.4041 78.7403 55.2199C79.1206 55.3167 79.2105 55.0955 79.2589 54.8051C79.3764 54.1276 79.4801 53.4431 79.6184 52.7725C79.7152 52.3092 79.5285 52.164 79.086 52.1364C78.1319 52.0742 77.1709 51.9774 76.2168 51.8875C75.6913 51.8391 75.1728 51.7699 74.6266 51.7077C74.6473 51.5349 74.6404 51.4381 74.6681 51.3482C74.8271 50.802 74.6128 50.5946 74.0528 50.5808C73.2508 50.5531 72.4488 50.4563 71.6398 50.3941C71.0176 50.3457 70.3954 50.2973 69.7869 50.2558C69.6487 51.127 69.5173 51.9151 69.379 52.7794L69.3859 52.7725ZM55.185 42.1044C53.3321 39.491 51.4722 36.8845 49.6193 34.2711C49.4119 33.9738 49.2114 33.9876 48.9556 34.2089C48.4025 34.6859 47.8494 35.163 47.2756 35.6193C46.9644 35.8682 46.9921 36.0549 47.2548 36.3107C48.2228 37.2717 49.1769 38.2465 50.1379 39.2145C50.2554 39.332 50.3522 39.4634 50.4697 39.5947C50.2969 39.7399 50.1724 39.8644 50.0342 39.9612C49.7438 40.1686 49.7576 40.3622 50.0065 40.6111C51.0643 41.6965 52.1083 42.8027 53.1385 43.8813C53.8852 43.2314 54.5074 42.699 55.185 42.1044ZM52.7582 44.386C52.7582 44.386 52.7513 44.3445 52.7375 44.3376C50.1033 42.5124 47.4691 40.694 44.8419 38.8688C44.5653 38.6752 44.3925 38.7512 44.2404 39.0278C44.0261 39.415 43.8048 39.7952 43.5836 40.1755C43.1181 40.9775 43.3116 41.5813 44.1643 41.9869C45.2706 42.5054 46.3699 43.0309 47.5037 43.5633C47.3724 43.8052 47.2272 43.9781 47.1926 44.1717C47.1649 44.3307 47.2341 44.6072 47.3447 44.6625C48.7413 45.3263 50.1448 45.9623 51.5345 46.5984C51.9631 45.831 52.3572 45.1189 52.7513 44.3998L52.7582 44.386ZM64.6292 41.5928C65.9774 38.6683 67.3325 35.7299 68.6669 32.7777C68.7153 32.674 68.5494 32.356 68.4111 32.2937C67.7958 32.0241 67.1389 31.8513 66.5305 31.5747C66.0051 31.3396 65.7977 31.4641 65.6594 32.0241C65.3068 33.4345 64.892 34.8242 64.491 36.2761C64.249 36.1862 64.0485 36.0687 63.8549 36.0687C63.6959 36.0687 63.4193 36.1724 63.3917 36.283C62.9768 37.7695 62.5897 39.2698 62.2025 40.7493C63.0391 41.0397 63.8134 41.3093 64.6292 41.5928ZM69.7939 49.516C70.3746 49.4607 70.9277 49.4123 71.4739 49.3639C74.0735 49.1289 76.6731 48.88 79.2727 48.6587C79.7152 48.6173 79.8327 48.4237 79.7497 48.0227C79.6529 47.5318 79.5838 47.0409 79.4939 46.55C79.2934 45.4576 79.2934 45.4576 78.1872 45.748C76.9151 46.0799 75.6429 46.4048 74.3501 46.7367C74.3017 46.5846 74.2602 46.5016 74.2463 46.4117C74.1449 45.9324 73.8638 45.7549 73.4029 45.8794C72.6423 46.0868 71.8887 46.2942 71.1282 46.5016C70.5129 46.6745 69.8906 46.8473 69.303 47.0132C69.4689 47.8706 69.6279 48.6518 69.7939 49.516ZM56.1944 63.7654C56.464 63.8553 56.6714 63.9659 56.8927 63.9728C57.0379 63.9728 57.2798 63.8553 57.3144 63.7447C57.7223 62.2582 58.1026 60.7579 58.4898 59.2783C57.6601 58.9949 56.8858 58.7252 56.1183 58.4625C56.0838 58.4902 56.0423 58.504 56.0284 58.5386C54.701 61.4285 53.3805 64.3116 52.0461 67.2016C51.9009 67.5127 51.9977 67.6579 52.2881 67.7616C52.8688 67.9621 53.4427 68.1764 54.0165 68.3838C54.8324 68.6811 54.8324 68.688 55.0743 67.8169C55.4477 66.4756 55.821 65.1344 56.2013 63.7585L56.1944 63.7654ZM61.4904 40.6733C61.7531 37.4238 62.0158 34.2158 62.2716 31.0147C62.2993 30.669 62.1126 30.586 61.8153 30.5929C61.0894 30.5999 60.3565 30.6068 59.6305 30.5929C59.2849 30.5929 59.1397 30.7243 59.1742 31.0769C59.2226 31.5332 59.2503 31.9964 59.2849 32.4528C59.3678 33.5175 59.4508 34.5822 59.5407 35.723C59.2779 35.723 59.0567 35.6746 58.87 35.7368C58.7179 35.7921 58.5036 35.9926 58.5174 36.1102C58.628 37.6312 58.7801 39.1522 58.9184 40.6733H61.4904Z" fill="white"/>
<path d="M58.6412 69.5117C58.5651 69.3458 58.42 69.1799 58.4269 69.0208C58.6758 65.8267 58.9385 62.6325 59.2012 59.4037H61.7593C61.863 60.4615 61.9737 61.5401 62.0843 62.6186C62.1189 62.9643 62.1258 63.31 62.188 63.6488C62.2848 64.1742 62.1188 64.4231 61.5588 64.3402C61.4482 64.3264 61.3376 64.354 61.1509 64.3678C61.2131 65.1975 61.2685 65.9926 61.3376 66.7877C61.3929 67.4929 61.4759 68.205 61.5035 68.9102C61.5104 69.1038 61.3652 69.3112 61.2892 69.5048H58.6343L58.6412 69.5117Z" fill="black"/>
<path d="M40.8659 51.5489C41.6057 51.459 42.3454 51.3484 43.0852 51.2723C45.6641 51.0234 48.2498 50.7884 50.884 50.5464C51.043 51.376 51.202 52.1919 51.368 53.063C50.3171 53.3603 49.2662 53.6507 48.2153 53.9411C48.0286 53.9895 47.8419 54.0309 47.6553 54.0863C46.9685 54.2706 46.5145 54.024 46.2932 53.3465C45.2769 53.6023 44.2606 53.865 43.2442 54.1277C42.8156 54.2384 42.38 54.3213 41.9652 54.4665C41.502 54.6324 41.3568 54.4665 41.2807 54.0171C41.1701 53.3396 41.0042 52.6758 40.859 52.0121C40.859 51.86 40.859 51.7079 40.859 51.5489H40.8659Z" fill="black"/>
<path d="M159.009 56.0565V59.4442C157.965 59.3405 156.941 59.3336 155.966 59.1124C154.694 58.822 154.024 57.8886 153.816 56.6027C153.74 56.6372 153.671 56.6441 153.643 56.6856C151.5 59.7968 147.193 60.3914 144.061 58.9395C140.39 57.2387 138.661 54.2243 138.571 50.2627C138.475 46.0453 141.019 42.3533 144.842 41.1503C147.518 40.3068 150.041 40.6318 152.302 42.3948C152.738 42.7336 153.187 43.0585 153.505 43.2936V41.095H157.01C157.01 41.3231 157.01 41.5444 157.01 41.7656C157.01 45.6788 157.01 49.5921 157.01 53.5053C157.01 53.6574 157.01 53.8095 157.01 53.9685C157.01 56.1187 157.55 55.9943 159.015 56.0496L159.009 56.0565ZM147.974 44.2477C144.725 44.2408 142.332 46.7505 142.319 50.1728C142.305 53.5882 144.704 56.1394 147.926 56.1533C151.134 56.1671 153.498 53.6712 153.519 50.242C153.54 46.7505 151.23 44.2546 147.974 44.2477Z" fill="black"/>
<path d="M100.495 59.6728C95.2056 59.6936 91.1057 55.6213 91.0781 50.3115C91.0504 44.8496 95.0673 40.7359 100.439 40.729C105.791 40.7152 109.856 44.7597 109.884 50.111C109.911 55.5522 105.887 59.6521 100.502 59.6797L100.495 59.6728ZM106.074 50.1871C106.074 49.9589 106.088 49.7239 106.074 49.4957C105.763 45.1746 100.965 42.7616 97.3835 45.1538C95.3854 46.4951 94.7424 48.5001 94.8737 50.8093C95.0881 54.4667 98.4482 56.8866 101.981 55.9463C104.498 55.2756 106.102 53.0287 106.074 50.1802V50.1871Z" fill="black"/>
<path d="M116.151 59.3262H112.507V34.9619H116.123V48.036C116.842 48.1881 117.333 48.1189 117.776 47.4621C119.152 45.4295 120.617 43.4521 122.035 41.4471C122.235 41.1636 122.436 41.0461 122.788 41.053C123.964 41.0738 125.132 41.0599 126.418 41.0599C126.259 41.2881 126.155 41.454 126.038 41.613C124.24 44.0536 122.449 46.5011 120.631 48.9279C120.362 49.2874 120.382 49.5017 120.659 49.8474C123.023 52.7512 125.367 55.6757 127.711 58.5864C127.877 58.7939 128.043 59.0013 128.264 59.2847C128.057 59.3124 127.918 59.3401 127.78 59.3401C126.57 59.3401 125.353 59.3608 124.143 59.3262C123.888 59.3193 123.549 59.1603 123.39 58.9667C121.544 56.7059 119.705 54.4451 117.921 52.1289C117.423 51.479 116.884 51.3961 116.137 51.5551V59.3193L116.151 59.3262Z" fill="black"/>
<path d="M129.273 34.9558H132.945V41.0607H137.611V44.3655H132.952C132.952 44.5936 132.952 44.7734 132.952 44.9601C132.952 48.0298 132.952 51.0995 132.952 54.1693C132.952 54.3214 132.952 54.4735 132.958 54.6325C133.007 55.6004 133.366 55.9945 134.341 56.0291C135.205 56.0636 136.07 56.0429 136.934 56.0429C137.141 56.0429 137.356 56.0429 137.605 56.0429V59.3062C137.535 59.327 137.466 59.3615 137.397 59.3615C135.994 59.3615 134.59 59.403 133.187 59.3546C130.76 59.2717 129.315 57.7921 129.28 55.3584C129.246 53.229 129.267 51.0995 129.267 48.9701C129.267 44.5383 129.267 40.1066 129.267 35.6748C129.267 35.4467 129.267 35.2254 129.267 34.9696L129.273 34.9558Z" fill="black"/>
<path d="M69.048 46.3362C68.5986 45.5826 68.1768 44.8774 67.7274 44.1307C68.9857 43.2319 70.2441 42.3262 71.5162 41.4481C71.6061 41.3859 71.8688 41.462 71.9794 41.5518C72.1315 41.6832 72.2076 41.8975 72.3459 42.1257C72.498 42.0358 72.6501 41.9598 72.7814 41.8699C73.9084 41.0955 75.0353 40.3281 76.1485 39.5468C76.4596 39.3256 76.6463 39.3532 76.8329 39.6851C77.1855 40.3212 77.552 40.9573 77.9253 41.5795C78.1258 41.9114 78.0359 42.0911 77.7041 42.2501C74.821 43.6052 71.9449 44.9742 69.048 46.3431V46.3362Z" fill="black"/>
<path d="M51.7549 61.5393C50.7593 62.9289 49.7983 64.2771 48.782 65.6875C48.0145 65.0446 47.3024 64.4707 46.6041 63.8692C46.3068 63.6134 46.5626 63.4336 46.7286 63.2539C47.8901 62.0785 49.0378 60.8963 50.2131 59.7347C51.2986 58.6562 52.4117 57.6053 53.5179 56.5337C54.1125 57.0176 54.7486 57.5362 55.44 58.0962C55.0044 58.7322 54.555 59.3891 54.0987 60.0459C53.7323 60.5851 53.3313 61.1037 52.9925 61.6568C52.7159 62.1062 52.4532 62.2168 52.0729 61.7882C51.9969 61.7052 51.8932 61.643 51.7411 61.5254L51.7549 61.5393Z" fill="black"/>
<path d="M67.0684 43.4246C66.6052 43.0443 65.9691 42.5258 65.2708 41.9589C65.5266 41.5786 65.7963 41.1707 66.0728 40.7697C66.6052 39.9953 67.1375 39.221 67.6768 38.4467C67.9534 38.0457 68.2829 37.9949 68.6655 38.2945C68.7554 38.3637 68.8522 38.419 68.9766 38.502C69.8339 37.299 70.6982 36.1236 71.514 34.9206C71.8182 34.4712 72.0533 34.4228 72.4543 34.8031C72.9451 35.2663 73.4706 35.6811 73.996 36.096C74.2726 36.3172 74.2795 36.5039 74.0237 36.7528C71.7076 38.9721 69.3984 41.1983 67.0684 43.4315V43.4246Z" fill="black"/>
<path d="M58.2027 40.8114C57.3593 41.1363 56.6057 41.4198 55.8037 41.7309C55.1468 40.3551 54.4693 38.9654 53.8332 37.555C53.7848 37.4444 53.9231 37.1885 54.0545 37.0848C54.1997 36.9604 54.4278 36.9327 54.6767 36.8359C54.0545 35.4739 53.4599 34.1741 52.8653 32.8743C52.6533 32.418 52.7892 32.1 53.2732 31.9202C53.7987 31.7266 54.3172 31.54 54.8426 31.3464C55.5409 31.0906 55.5548 31.0975 55.7483 31.7958C56.3775 34.0842 56.9997 36.3727 57.6289 38.6612C57.8225 39.3802 58.023 40.0923 58.2166 40.8045L58.2027 40.8114Z" fill="black"/>
<path d="M62.4704 59.2301C63.2862 58.919 64.0536 58.6286 64.8764 58.3174C65.3742 59.3545 65.8719 60.3985 66.3767 61.4494C66.432 61.5669 66.4942 61.6914 66.5495 61.8089C66.8537 62.445 66.6809 62.9221 66.031 63.2401C66.6256 64.533 67.2201 65.8328 67.8147 67.1326C68.036 67.6165 67.8977 67.9507 67.3999 68.1351C66.8261 68.3425 66.2453 68.5499 65.6714 68.7711C65.3119 68.9094 65.1114 68.8472 65.0008 68.4393C64.1712 65.3764 63.3277 62.3136 62.4773 59.2301H62.4704Z" fill="black"/>
<path d="M51.6284 53.7335C52.0847 54.494 52.4995 55.1785 52.9628 55.9459C52.5548 56.2363 52.1054 56.5544 51.663 56.8655C50.9301 57.3909 50.1696 57.8887 49.4644 58.4418C49.0011 58.8083 48.7246 58.7391 48.5103 58.2206C48.4757 58.1376 48.4066 58.0616 48.3236 57.9302C48.1438 58.0408 47.971 58.1445 47.8051 58.2551C46.7265 58.9949 45.6479 59.7278 44.5832 60.4814C44.2306 60.7303 44.0232 60.6957 43.8158 60.3086C43.4839 59.6794 43.1106 59.0779 42.7441 58.4695C42.5644 58.1722 42.6197 57.9993 42.9446 57.8472C45.8415 56.4852 48.7384 55.1025 51.6284 53.7335Z" fill="black"/>
<path d="M65.4998 57.9444C66.1567 57.3775 66.772 56.8451 67.4426 56.2644C68.535 57.3429 69.6481 58.4215 70.7336 59.5277C70.8166 59.6106 70.7751 59.901 70.6921 60.0393C70.5884 60.2122 70.381 60.3159 70.0906 60.5648C71.1761 61.6018 72.2201 62.6182 73.2917 63.6068C73.7065 63.9871 73.7204 64.2498 73.2502 64.5886C72.7386 64.9619 72.2616 65.3768 71.7914 65.8054C71.4734 66.0958 71.2798 66.082 71.0171 65.7225C69.1987 63.1367 67.3597 60.5578 65.5068 57.9513L65.4998 57.9444Z" fill="black"/>
<path d="M69.1502 53.4707C70.5537 54.1137 71.9503 54.7428 73.333 55.3996C73.4437 55.4549 73.5197 55.7315 73.4921 55.8905C73.4575 56.0841 73.3054 56.2569 73.1671 56.492C74.2388 57.0036 75.2897 57.5014 76.3475 57.9992C77.3108 58.4555 77.5251 59.1469 76.9904 60.0734C76.7969 60.4052 76.6033 60.7371 76.4166 61.069C76.2783 61.3248 76.1124 61.3732 75.8566 61.2003C73.2017 59.3682 70.5468 57.536 67.8919 55.7108C68.3067 54.971 68.7008 54.2588 69.1433 53.4707H69.1502Z" fill="black"/>
<path d="M51.2789 47.262C51.1406 48.1401 51.0092 48.9352 50.8779 49.7925C50.3109 49.751 49.7233 49.7164 49.1425 49.668C48.3197 49.6058 47.497 49.5229 46.6743 49.4675C45.9068 49.4122 45.8861 49.3984 46.0174 48.6586C46.0313 48.5687 46.0382 48.4719 46.0589 48.3268C44.8006 48.2092 43.563 48.0709 42.3255 47.9811C40.9635 47.8774 40.9635 47.8981 41.2054 46.543C41.2815 46.1282 41.3714 45.7133 41.4128 45.2985C41.4612 44.8284 41.6687 44.7523 42.1111 44.8698C44.5379 45.5197 46.9716 46.142 49.3983 46.7711C50.0275 46.9371 50.6566 47.103 51.2858 47.2689L51.2789 47.262Z" fill="black"/>
<path d="M69.3843 52.7733C69.5226 51.9022 69.6539 51.114 69.7922 50.2498C70.3937 50.2982 71.0229 50.3396 71.6451 50.388C72.4471 50.4503 73.2491 50.5471 74.058 50.5747C74.618 50.5954 74.8324 50.7959 74.6733 51.3421C74.6457 51.432 74.6526 51.5288 74.6319 51.7017C75.1781 51.7639 75.6966 51.8261 76.222 51.8814C77.1761 51.9713 78.1303 52.0681 79.0913 52.1303C79.5338 52.158 79.7204 52.3032 79.6236 52.7664C79.4854 53.4439 79.3817 54.1215 79.2641 54.799C79.2157 55.0963 79.1189 55.3176 78.7456 55.2139C75.6344 54.398 72.5231 53.5891 69.3912 52.7664L69.3843 52.7733Z" fill="black"/>
<path d="M55.1854 42.1043C54.5078 42.692 53.8856 43.2313 53.1389 43.8812C52.1087 42.8026 51.0647 41.7033 50.0069 40.611C49.758 40.3551 49.7442 40.1685 50.0346 39.9611C50.1728 39.8573 50.2973 39.7398 50.4701 39.5946C50.3526 39.4563 50.2558 39.3319 50.1383 39.2144C49.1773 38.2464 48.2231 37.2716 47.2552 36.3106C46.9925 36.0478 46.9648 35.8612 47.276 35.6192C47.8498 35.1698 48.4029 34.6927 48.956 34.2088C49.2118 33.9875 49.4123 33.9806 49.6197 34.271C51.4726 36.8844 53.3255 39.4978 55.1854 42.1043Z" fill="black"/>
<path d="M52.7572 44.3858C52.3631 45.098 51.9621 45.817 51.5404 46.5844C50.1507 45.9484 48.7403 45.3123 47.3506 44.6486C47.24 44.5933 47.1708 44.3167 47.1985 44.1577C47.2331 43.9641 47.3783 43.7913 47.5096 43.5493C46.3758 43.01 45.2696 42.4915 44.1703 41.9729C43.3176 41.5719 43.124 40.9681 43.5895 40.1615C43.8107 39.7812 44.0389 39.401 44.2463 39.0138C44.3984 38.7373 44.5713 38.6681 44.8478 38.8548C47.4751 40.68 50.1092 42.5053 52.7434 44.3236C52.7572 44.3305 52.7572 44.3582 52.7641 44.372L52.7572 44.3858Z" fill="black"/>
<path d="M64.628 41.5929C63.8122 41.3095 63.0378 41.0398 62.2013 40.7494C62.5884 39.2699 62.9756 37.7696 63.3904 36.2831C63.425 36.1725 63.6946 36.0688 63.8537 36.0688C64.0473 36.0688 64.2478 36.1932 64.4897 36.2762C64.8907 34.8312 65.3056 33.4346 65.6582 32.0242C65.7964 31.4711 65.9969 31.3397 66.5293 31.5748C67.1446 31.8444 67.7945 32.0242 68.4099 32.2938C68.5481 32.3561 68.7141 32.6672 68.6657 32.7778C67.3313 35.73 65.9762 38.6684 64.628 41.5929Z" fill="black"/>
<path d="M69.7929 49.5161C69.6201 48.6519 69.468 47.8706 69.3021 47.0133C69.8967 46.8474 70.512 46.6676 71.1273 46.5017C71.8878 46.2943 72.6414 46.0868 73.402 45.8794C73.8675 45.755 74.1486 45.9324 74.2454 46.4118C74.2662 46.5017 74.3008 46.5915 74.3491 46.7367C75.6351 46.4049 76.9142 46.0799 78.1863 45.7481C79.2856 45.4577 79.2856 45.4577 79.493 46.5501C79.5829 47.041 79.652 47.5318 79.7488 48.0227C79.8318 48.4237 79.7143 48.6173 79.2718 48.6588C76.6722 48.88 74.0726 49.1289 71.473 49.364C70.9199 49.4124 70.3668 49.4677 69.7929 49.5161Z" fill="black"/>
<path d="M56.193 63.766C55.8128 65.1418 55.4394 66.4831 55.0661 67.8244C54.8241 68.6886 54.831 68.6886 54.0083 68.3913C53.4344 68.177 52.8537 67.9696 52.2798 67.7691C51.9894 67.6654 51.8926 67.5202 52.0378 67.2091C53.3722 64.326 54.6927 61.436 56.0202 58.5461C56.034 58.5184 56.0755 58.4977 56.1101 58.47C56.8775 58.7327 57.6519 59.0024 58.4815 59.2858C58.0943 60.7654 57.721 62.2657 57.3062 63.7522C57.2785 63.8628 57.0296 63.9803 56.8844 63.9803C56.6701 63.9734 56.4558 63.8559 56.1861 63.7729L56.193 63.766Z" fill="black"/>
<path d="M61.4894 40.6735H58.9175C58.7792 39.1524 58.6271 37.6314 58.5165 36.1104C58.5096 35.9928 58.7239 35.7923 58.8691 35.737C59.0489 35.6748 59.277 35.7232 59.5397 35.7232C59.4499 34.5824 59.3669 33.5177 59.2839 32.453C59.2494 31.9966 59.2217 31.5334 59.1733 31.0771C59.1387 30.7245 59.2839 30.5931 59.6296 30.5931C60.3556 30.607 61.0884 30.6001 61.8144 30.5931C62.1117 30.5931 62.2983 30.6692 62.2707 31.0149C62.008 34.216 61.7522 37.424 61.4894 40.6735Z" fill="black"/>
<path d="M147.976 44.2486C151.233 44.2556 153.542 46.7514 153.521 50.2429C153.501 53.6722 151.143 56.1681 147.928 56.1542C144.699 56.1404 142.307 53.5892 142.321 50.1738C142.335 46.7514 144.727 44.2417 147.976 44.2486Z" fill="white"/>
<path d="M106.076 50.1869C106.104 53.0354 104.5 55.2824 101.983 55.953C98.443 56.8933 95.0898 54.4735 94.8755 50.8161C94.7372 48.5068 95.3802 46.5018 97.3852 45.1606C100.967 42.7615 105.765 45.1813 106.076 49.5024C106.09 49.7306 106.076 49.9587 106.076 50.1938V50.1869Z" fill="white"/>
</svg>
