<svg width="200" height="100" viewBox="0 0 200 100" fill="none" xmlns="http://www.w3.org/2000/svg">
<path d="M52.4507 57.5641C52.4272 57.6052 52.4096 57.6522 52.386 57.6933C52.0687 57.9284 51.7278 58.1106 51.3694 58.281C51.3459 58.2987 51.3165 58.3104 51.2871 58.3222C51.0814 58.3986 50.8816 58.4867 50.6759 58.5631C49.7944 58.8276 48.9011 58.9862 47.9785 58.9157C47.7434 58.8393 47.5025 58.8981 47.2674 58.8569C46.6386 58.7335 46.0098 58.5866 45.4221 58.3163C45.334 58.2693 45.2458 58.2164 45.1459 58.187C45.1165 58.1811 45.093 58.1694 45.0695 58.1517C44.9461 58.0636 44.8168 57.9989 44.6816 57.9343C44.6581 57.9225 44.6346 57.9108 44.6111 57.8932C44.5523 57.8579 44.4995 57.8109 44.4642 57.7462C44.3878 57.5993 44.2996 57.4877 44.1233 57.4348C43.9118 57.3701 43.806 57.1644 43.6591 57.0175C43.4945 56.853 43.3417 56.6884 43.1008 56.6473C43.0009 56.6062 42.9304 56.5415 42.8951 56.4416C42.8892 56.3476 42.8657 56.2653 42.7541 56.2477C42.7306 56.2359 42.7129 56.2124 42.6953 56.1948C42.7306 55.9186 42.5895 55.7775 42.3427 55.7129C42.3192 55.7011 42.2957 55.6835 42.2839 55.6541C42.3133 55.4426 42.1017 55.4249 42.0077 55.3133C41.4612 54.5199 41.1732 53.6325 41.0145 52.6981C40.9969 52.5865 40.9852 52.4807 40.9617 52.369C40.944 52.2691 40.9499 52.1751 40.944 52.0752C40.85 50.8822 41.0439 49.7304 41.5023 48.6255C41.5435 48.5433 41.5905 48.4669 41.6492 48.3963C41.6669 48.3728 41.6904 48.3552 41.7139 48.3376C42.0018 48.2259 42.0312 47.985 42.0195 47.7205C42.0195 47.6735 42.043 47.6382 42.0724 47.603C42.1135 47.5795 42.1546 47.5618 42.1958 47.5383C42.4015 47.3914 42.6307 47.2798 42.7776 47.0623C42.9833 46.8625 43.2653 46.8037 43.5004 46.6568C44.3819 46.2983 45.2928 46.1103 46.2448 46.1103C46.3683 46.1103 46.4917 46.1103 46.6151 46.1103C46.8031 46.122 46.9912 46.1044 47.1793 46.1338C47.3027 46.1632 47.432 46.1808 47.5554 46.2043C47.6259 46.222 47.6964 46.2455 47.7728 46.2513C47.8139 46.2513 47.861 46.2631 47.9021 46.2748C47.9726 46.2983 48.0431 46.3101 48.1137 46.3277C48.2371 46.3689 48.3781 46.3747 48.4721 46.4805C48.5603 46.6039 48.6132 46.7097 48.8189 46.7215C48.9834 46.7332 49.2361 46.7332 49.3243 46.9683C49.3243 46.9683 49.3184 46.98 49.3125 46.9918C49.3243 46.98 49.336 46.9683 49.3536 46.9565C49.5358 46.9859 49.718 47.0212 49.8238 47.1975C49.7944 47.2563 49.7533 47.2856 49.6827 47.2798C49.7709 47.3327 49.7768 47.2269 49.8238 47.2151C49.9296 47.1564 50.0295 47.1857 50.0941 47.2739C50.1881 47.3914 50.3116 47.4149 50.4467 47.4149C50.6935 47.4678 50.8581 47.6441 51.0344 47.7969C51.0873 47.8498 51.1402 47.8968 51.1989 47.9321C51.9218 48.6667 52.6681 49.3895 53.0384 50.3886C53.0501 50.4767 53.056 50.5707 53.1148 50.6471C53.1265 50.6706 53.1324 50.6942 53.1383 50.7235C53.1206 50.8352 53.1794 50.9175 53.2382 50.9997C53.2499 51.0232 53.2617 51.0468 53.2734 51.0703C53.3028 51.1702 53.2793 51.2818 53.3557 51.37C53.3733 51.3935 53.3851 51.417 53.391 51.4405C53.4204 51.5522 53.4086 51.6756 53.4909 51.7696C53.5085 51.8107 53.5144 51.846 53.5144 51.8871C53.5144 52.0634 53.5673 52.2221 53.6495 52.3749C53.82 53.3563 53.7847 54.3319 53.5496 55.2956C53.4615 55.66 53.3792 56.0302 53.1559 56.3417C52.9855 56.4592 52.8797 56.612 52.9443 56.8353C52.9443 56.8941 52.9267 56.947 52.8973 56.994C52.8209 57.1233 52.7563 57.2585 52.6505 57.3643C52.5741 57.4348 52.5153 57.5229 52.4213 57.5817L52.4507 57.5641Z" fill="#FEFEFE"/>
<path d="M62.8179 45.9981C62.6239 46.1568 62.4241 46.3096 62.3066 46.5447C62.2713 46.6739 62.1773 46.768 62.0833 46.8561C62.0422 47.003 61.954 47.1206 61.8482 47.2264C61.431 47.9198 61.237 48.6897 61.1019 49.4771C61.0901 49.5477 61.0666 49.6123 61.049 49.677C60.955 49.8591 61.0549 50.0648 60.9843 50.247C60.9843 50.2999 60.9785 50.3528 60.9726 50.4057C60.9138 50.5056 60.9197 50.6172 60.9197 50.7289C60.9079 53.7554 60.9197 56.7819 60.9197 59.8085C60.9197 60.1101 60.7649 60.261 60.4554 60.261C59.9559 60.261 59.4564 60.261 58.951 60.261C58.8393 60.261 58.7218 60.2845 58.6278 60.2081C58.5161 59.832 58.5808 59.4441 58.5749 59.0621C58.569 58.1277 58.569 57.1992 58.5749 56.2648C58.5749 55.3715 58.5749 54.4783 58.5749 53.5909C58.5749 52.8621 58.5749 52.1334 58.5749 51.3988C58.5749 50.6819 58.5749 49.959 58.5749 49.2421C58.5749 48.4899 58.5749 47.7435 58.5749 46.9913C58.5749 46.5682 58.5572 46.1392 58.5807 45.716C58.5866 45.5867 58.616 45.4751 58.7218 45.3928C58.9098 45.2812 59.1214 45.3399 59.3212 45.334C59.6503 45.3223 59.9853 45.334 60.3144 45.334C59.8266 45.334 59.333 45.334 58.8452 45.334C58.7335 45.334 58.6219 45.1754 58.5161 45.2929C58.428 45.3928 58.475 45.5162 58.5455 45.6279C58.5631 45.669 58.5631 45.7102 58.5572 45.7513C58.5102 45.863 58.4456 45.9687 58.5572 46.0804C58.5807 46.1333 58.5808 46.1862 58.5631 46.2449C58.5102 46.3507 58.4515 46.4624 58.5572 46.574C58.5807 46.6269 58.5808 46.6798 58.5631 46.7386C58.5102 46.8444 58.4456 46.956 58.5572 47.0677C58.5807 47.1206 58.5808 47.1735 58.5631 47.2322C58.5102 47.338 58.4456 47.4497 58.5572 47.5613C58.5807 47.6142 58.5808 47.6671 58.5631 47.7259C58.5102 47.8317 58.4456 47.9433 58.5572 48.055C58.5807 48.1079 58.5808 48.1608 58.5631 48.2195C58.5102 48.3253 58.4456 48.437 58.5572 48.5486C58.5807 48.6015 58.5808 48.6544 58.5631 48.7132C58.5102 48.819 58.4456 48.9306 58.5572 49.0423C58.5807 49.0952 58.5808 49.1481 58.5631 49.2068C58.5102 49.3126 58.4456 49.4243 58.5572 49.5359C58.5807 49.5888 58.5808 49.6417 58.5631 49.7005C58.5102 49.8062 58.4456 49.9179 58.5572 50.0296C58.5807 50.0825 58.5808 50.1353 58.5631 50.1941C58.5102 50.2999 58.4456 50.4116 58.5572 50.5232C58.5807 50.5761 58.5808 50.629 58.5631 50.6878C58.5102 50.7935 58.4456 50.9052 58.5572 51.0169C58.5807 51.0697 58.5808 51.1226 58.5631 51.1814C58.5102 51.2872 58.4456 51.3988 58.5572 51.5105C58.5807 51.5634 58.5808 51.6163 58.5631 51.675C58.5102 51.7808 58.4456 51.8925 58.5572 52.0041C58.5807 52.057 58.5808 52.1099 58.5631 52.1687C58.5102 52.2745 58.4456 52.3861 58.5572 52.4978C58.5807 52.5507 58.5808 52.6036 58.5631 52.6623C58.5102 52.7681 58.4456 52.8798 58.5572 52.9914C58.5807 53.0443 58.5808 53.0972 58.5631 53.156C58.5102 53.2618 58.4456 53.3734 58.5572 53.4851C58.5807 53.538 58.5808 53.5909 58.5631 53.6496C58.5102 53.7554 58.4456 53.8671 58.5572 53.9787C58.5807 54.0316 58.5808 54.0845 58.5631 54.1433C58.5102 54.2491 58.4456 54.3607 58.5572 54.4724C58.5807 54.5253 58.5808 54.5782 58.5631 54.6369C58.5102 54.7427 58.4456 54.8544 58.5572 54.966C58.5807 55.0189 58.5808 55.0718 58.5631 55.1306C58.5102 55.2364 58.4456 55.348 58.5572 55.4597C58.5807 55.5126 58.5808 55.5655 58.5631 55.6242C58.5102 55.73 58.4456 55.8417 58.5572 55.9533C58.5807 56.0062 58.5808 56.0591 58.5631 56.1179C58.5102 56.2236 58.4456 56.3353 58.5572 56.447C58.5807 56.4999 58.5808 56.5527 58.5631 56.6115C58.5102 56.7173 58.4456 56.829 58.5572 56.9406C58.5807 56.9935 58.5808 57.0464 58.5631 57.1052C58.5102 57.2109 58.4456 57.3226 58.5572 57.4343C58.5807 57.4871 58.5808 57.54 58.5631 57.5988C58.5102 57.7046 58.4456 57.8162 58.5572 57.9279C58.5807 57.9808 58.5808 58.0337 58.5631 58.0924C58.5102 58.1982 58.4456 58.3099 58.5572 58.4215C58.5807 58.4744 58.5808 58.5273 58.5631 58.5861C58.5102 58.6919 58.4456 58.8035 58.5572 58.9152C58.5807 58.9681 58.5808 59.021 58.5631 59.0797C58.5102 59.1855 58.4515 59.2972 58.5572 59.4088C58.5807 59.4617 58.5808 59.5146 58.5631 59.5734C58.4691 59.7027 58.4926 59.8261 58.569 59.9495C58.5807 60.02 58.569 60.0847 58.5337 60.1434C58.475 60.2198 58.4515 60.355 58.3222 60.3315C58.1811 60.3021 58.1929 60.1669 58.1811 60.0553C58.1694 59.926 58.1753 59.7908 58.1753 59.6557C58.1753 55.207 58.1753 50.7642 58.1753 46.3155C58.1753 46.051 58.1753 45.7983 58.0401 45.5456C57.899 45.2812 58.1517 44.8992 58.4573 44.8639C59.2331 44.7758 60.0088 44.8463 60.7845 44.8286C60.9138 44.8933 60.8433 45.0108 60.8433 45.099C60.8492 45.9746 60.8433 46.8502 60.8433 47.7964C61.1489 47.3615 61.3957 46.9737 61.6954 46.6269C62.9237 45.2106 64.4986 44.5407 66.3498 44.4467C67.1197 44.4055 67.8778 44.4819 68.63 44.6465C68.8239 44.6935 69.0355 44.6759 69.1883 44.8404C69.2118 44.905 69.2705 44.8874 69.3176 44.8874C69.5115 44.905 69.6878 44.9579 69.8053 45.1284C69.823 45.1401 69.8406 45.146 69.8582 45.1577C69.9405 45.1636 70.0051 45.1989 70.0463 45.2694C70.6868 45.7102 71.2451 46.2332 71.6271 46.9208C71.68 47.0148 71.7211 47.1206 71.7682 47.2205C71.7799 47.3615 71.7094 47.5202 71.8504 47.6319C71.8504 47.6612 71.8328 47.6906 71.821 47.7141C71.7447 47.8023 71.727 47.8904 71.8093 47.9845C72.0914 48.2783 71.9797 48.6191 71.9092 48.9482C71.8622 49.1833 71.7329 49.3949 71.7329 49.6417C71.7329 53.0267 71.7329 56.4117 71.7329 59.7967C71.7329 59.9671 71.7682 60.1434 71.6741 60.308C71.6447 60.3374 71.6095 60.3668 71.5742 60.3668C70.8279 60.3903 70.0815 60.3785 69.3352 60.3785C69.3293 60.2668 69.3117 60.1552 69.3117 60.0435C69.3117 57.0111 69.3117 53.9729 69.3117 50.9405C69.3117 50.247 69.2941 49.5594 69.2823 48.866C69.2882 48.7661 69.3234 48.6603 69.2647 48.5663C69.1413 48.0667 69.059 47.5555 68.8474 47.0736C68.3009 45.8453 67.3547 45.2106 66.0266 45.1342C65.0628 45.0755 64.1401 45.2048 63.3115 45.7513C63.1587 45.8865 63.0236 46.0451 62.8179 46.1098V45.9981Z" fill="#001E5F"/>
<path d="M119.653 59.4075C120.74 58.7023 120.958 57.2625 120.117 56.2752C119.436 55.4701 118.507 55.047 117.549 54.6944C116.315 54.2477 115.04 53.9304 113.817 53.4544C113.712 53.4132 113.612 53.3662 113.506 53.3251C113.277 53.1194 112.989 53.0489 112.701 52.9725C111.432 52.4083 110.274 51.709 109.733 50.3338C109.445 49.6051 109.381 48.8411 109.498 48.0595C109.58 47.9479 109.533 47.8245 109.533 47.7011C109.839 45.9086 111.026 45.0036 112.683 44.5805C113.976 44.2514 115.293 44.2749 116.609 44.3572C117.784 44.4336 118.942 44.6099 120.053 45.0095C120.446 45.1505 120.828 45.3092 121.169 45.5619C121.281 45.6794 121.398 45.7911 121.557 45.8499C121.733 45.9615 121.78 46.1202 121.78 46.3318C121.769 47.4895 121.78 48.6531 121.78 49.8931C121.616 49.564 121.492 49.2995 121.363 49.0409C121.146 48.6825 120.887 48.3416 120.746 47.9361C120.652 47.8774 120.587 47.7951 120.576 47.6834C120.47 47.6305 120.405 47.5483 120.388 47.4307C119.424 46.1085 118.137 45.2681 116.556 44.8508C115.951 44.6922 115.328 44.6863 114.711 44.6451C114.482 44.7157 114.229 44.5923 114 44.7098C113.641 44.8038 113.265 44.8567 112.918 44.9977C112.195 45.2798 111.637 45.7323 111.367 46.4787C111.267 46.5727 111.355 46.702 111.302 46.8019C111.243 47.8421 111.743 48.5943 112.548 49.1761C113.488 49.8519 114.57 50.2163 115.651 50.5807C116.962 51.0214 118.319 51.3329 119.583 51.9088C120.176 52.185 120.729 52.52 121.222 52.9666C122.268 53.9128 122.591 55.1175 122.486 56.475C122.445 57.0216 122.298 57.5328 122.092 58.0324C122.068 58.1029 122.057 58.1793 121.986 58.2204C121.869 58.3379 121.792 58.4849 121.722 58.6377C121.675 58.7434 121.598 58.8198 121.51 58.8845C121.393 58.9197 121.316 59.002 121.246 59.1019C121.222 59.1548 121.187 59.196 121.128 59.2077C120.928 59.2841 120.77 59.4251 120.629 59.5779C120.511 59.6367 120.423 59.5662 120.317 59.5074C120.3 59.4839 120.294 59.5603 120.317 59.5251C120.54 59.6778 120.294 59.7131 120.253 59.8013C120.059 59.9129 119.865 60.0246 119.641 60.0657C119.553 60.0892 119.424 59.9952 119.394 60.1656C118.636 60.4242 117.855 60.5594 117.05 60.5711C116.421 60.6005 115.792 60.5711 115.163 60.5887C114.817 60.577 114.47 60.5594 114.123 60.5476C114.105 60.5359 114.094 60.5182 114.1 60.4947C113.935 60.5123 113.77 60.5006 113.606 60.4947C113.553 60.5006 113.494 60.5241 113.447 60.483C113.324 60.4888 113.224 60.3831 113.095 60.4242C112.777 60.3948 112.448 60.4242 112.16 60.2538C111.473 60.0833 110.797 59.8718 110.156 59.5662C110.021 59.4957 109.88 59.4487 109.768 59.3429C109.721 59.3252 109.663 59.3311 109.645 59.2724C109.522 59.1489 109.281 59.1254 109.31 58.8727C109.245 58.4261 109.286 57.9795 109.281 57.5328C109.275 56.9334 109.281 56.334 109.281 55.7346C109.281 55.6347 109.31 55.5465 109.422 55.5347C109.539 55.523 109.516 55.6346 109.545 55.7052C109.563 55.7581 109.61 55.8051 109.663 55.8345C109.633 55.9285 109.68 55.9873 109.763 56.0284C110.908 58.1616 112.613 59.5779 115.005 60.0951C115.845 60.2773 116.703 60.3125 117.561 60.1774C117.661 60.148 117.761 60.1245 117.867 60.1186C117.978 60.1539 118.072 60.0833 118.172 60.054C118.284 59.9717 118.419 59.9717 118.548 59.9423C118.636 59.8542 118.766 59.86 118.871 59.8189C118.889 59.8248 118.901 59.8189 118.907 59.8071C119.136 59.6308 119.394 59.5133 119.653 59.384V59.4075Z" fill="#001E5F"/>
<path d="M126.71 46.8853C126.693 47.8785 127.157 48.6131 127.944 49.1773C128.943 49.8942 130.089 50.288 131.247 50.6523C132.264 50.9755 133.292 51.2811 134.297 51.6337C135.267 51.9805 136.154 52.4624 136.877 53.2205C137.735 54.1196 137.982 55.2127 137.911 56.3998C137.852 57.4458 137.494 58.3685 136.718 59.0913C135.984 59.773 135.102 60.1609 134.133 60.3725C133.486 60.5135 132.828 60.6134 132.164 60.6016C131.776 60.5899 131.388 60.584 131.006 60.6016C130.489 60.6134 129.978 60.584 129.466 60.5076C129.302 60.4195 129.114 60.5076 128.943 60.4489C128.785 60.4547 128.626 60.4606 128.479 60.3901C128.385 60.3019 128.279 60.3607 128.179 60.3607C127.01 60.1726 125.893 59.8612 124.918 59.1442C124.718 58.9973 124.636 58.8386 124.636 58.5859C124.647 57.4458 124.642 56.2999 124.642 55.1598C124.642 55.0834 124.642 55.007 124.665 54.9306C124.888 55.4007 125.082 55.8767 125.341 56.3234C126.557 58.4508 128.356 59.7495 130.783 60.1726C130.941 60.202 131.106 60.2255 131.265 60.249C131.741 60.3137 132.223 60.3137 132.699 60.249C133.392 60.1315 134.08 60.0081 134.703 59.6555C135.537 59.1795 136.078 58.533 136.031 57.5164C136.013 57.1402 135.878 56.8053 135.719 56.4762C135.608 56.3175 135.566 56.0942 135.337 56.0354C134.385 55.1715 133.21 54.7425 132.005 54.3723C130.612 53.9433 129.225 53.5202 127.903 52.8914C127.257 52.5858 126.646 52.2155 126.111 51.7336C125.047 50.7757 124.777 49.5357 124.883 48.1782C124.941 47.4319 125.123 46.7149 125.605 46.1096C125.711 46.0567 125.77 45.9392 125.899 45.9215C126.081 45.8922 126.217 46.0097 126.369 46.0626C126.399 46.0802 126.416 46.0979 126.434 46.1272C126.528 46.3741 126.792 46.5621 126.704 46.8736L126.71 46.8853Z" fill="#011E5F"/>
<path d="M157.035 59.3508C156.694 60.1265 156.077 60.5026 155.254 60.579C154.89 60.6201 154.531 60.6143 154.167 60.579C153.074 60.5437 152.257 59.8444 151.993 58.6984C151.934 58.4575 151.893 58.2107 151.846 57.9403C151.464 58.3165 151.141 58.722 150.688 58.9805C150.665 58.9982 150.635 58.9982 150.606 58.9864C150.535 58.9511 150.459 58.8924 150.547 58.8336C150.729 58.722 150.565 58.6338 150.547 58.5398C150.582 58.3576 150.741 58.2577 150.841 58.1225C151.07 57.8169 151.27 57.5055 151.405 57.147C151.64 56.6181 151.711 56.0598 151.781 55.4956C151.793 55.4133 151.793 55.3311 151.816 55.2547C151.852 55.1371 151.84 55.0137 151.84 54.8903C151.834 53.427 151.857 51.9637 151.828 50.4945C151.81 50.4475 151.805 50.4005 151.81 50.3476C151.81 50.2242 151.899 50.0949 151.816 49.9715C151.54 50.2007 151.358 50.5415 151.011 50.6884C150.923 50.6591 150.835 50.6297 150.864 50.7825C150.853 50.8412 150.823 50.8883 150.782 50.9235C150.606 51.0352 150.441 51.1821 150.236 51.2467C150.124 51.2644 150.03 51.188 149.93 51.1762C149.906 51.1645 149.889 51.1468 149.871 51.1233C149.871 51.041 149.801 50.9705 149.83 50.8765C150.171 50.6826 150.541 50.5239 150.841 50.2712C151.217 49.948 151.622 49.6424 151.846 49.1781C151.799 48.9548 151.875 48.7197 151.805 48.4964C151.746 47.7031 151.605 46.9391 151.182 46.2456C151.211 46.1105 151.076 46.1163 151.017 46.0517C150.988 46.0106 150.958 45.9694 150.929 45.9342C150.835 45.9165 150.864 45.8049 150.806 45.7637C150.759 45.7344 150.712 45.6991 150.688 45.6462C150 44.9234 149.101 44.7236 148.161 44.6589C146.574 44.5531 145.258 45.1584 144.118 46.2104C143.895 46.4161 143.683 46.6394 143.471 46.8568C143.16 47.1389 142.86 47.4269 142.725 47.8382C142.525 47.8911 142.543 48.085 142.478 48.2202C142.39 48.373 142.302 48.5317 142.214 48.6845C142.131 48.7491 142.09 48.6962 142.055 48.6316C141.967 48.4788 141.99 48.6962 141.938 48.6668C141.75 48.7374 141.814 48.8902 141.82 49.0253C141.82 49.1487 141.861 49.2604 141.896 49.3779C141.902 49.4367 141.902 49.4955 141.838 49.5307C141.855 49.7305 141.726 49.8716 141.661 50.0361C141.62 50.136 141.544 50.136 141.485 50.0361C141.432 49.4661 141.467 48.896 141.467 48.326C141.467 47.6854 141.438 47.0449 141.485 46.3984C142.037 45.8225 142.719 45.4405 143.448 45.1408C144.535 44.6942 145.669 44.4415 146.845 44.3709C147.579 44.3533 148.314 44.3886 149.043 44.3533C150.576 44.4532 152.028 44.7764 153.244 45.7931C154.408 46.7628 154.866 48.0615 154.878 49.5248C154.902 52.2928 154.884 55.0666 154.878 57.8346C154.878 57.8639 154.872 57.8933 154.866 57.9227C154.643 57.8639 154.69 57.6759 154.69 57.5231C154.69 56.1362 154.69 54.7493 154.69 53.3624C154.69 52.2105 154.69 51.0587 154.69 49.9068C154.69 52.4397 154.69 54.9785 154.69 57.5113C154.69 57.717 154.737 57.8933 154.878 58.0402L154.89 58.0579L154.878 58.0814C154.878 58.0814 154.896 58.1343 154.884 58.1637C154.573 58.2694 154.537 58.34 154.625 58.6926C154.696 58.6397 154.667 58.5398 154.725 58.481C154.937 58.4222 154.896 58.6397 154.984 58.7161C155.143 59.1568 155.36 59.5329 155.883 59.6093C156.183 59.6505 156.447 59.5741 156.706 59.4389C156.782 59.3978 156.841 59.3096 156.947 59.3273C156.976 59.3037 157.006 59.3096 157.035 59.339V59.3508Z" fill="#001E5F"/>
<path d="M82.6853 46.3089C83.5139 47.4842 83.749 48.8065 83.7431 50.211C83.7255 53.4609 83.7314 56.7166 83.7431 59.9664C83.7431 60.2426 83.6785 60.3249 83.3905 60.319C82.5854 60.2955 81.7744 60.319 80.9693 60.3073C80.8753 60.3073 80.7636 60.366 80.6872 60.2602C80.746 60.1133 80.7049 59.9605 80.7049 59.8077C80.7049 56.2934 80.7049 52.7792 80.7049 49.259C80.7049 49.1532 80.746 49.0357 80.6696 48.9358C80.5756 48.4186 80.5286 47.8897 80.3699 47.3843C79.8821 45.8211 78.7832 45.016 77.1494 44.9983C75.8859 44.9866 74.7576 45.3274 73.8056 46.1737C73.594 46.2383 73.5294 46.1149 73.5 45.9386C74.4402 45.1041 75.5451 44.6222 76.7733 44.4224C78.1837 44.1991 79.5765 44.2461 80.8929 44.8749C81.128 44.9866 81.3572 45.1276 81.5864 45.251C81.8214 45.3803 82.0448 45.5214 82.1917 45.7506C82.4444 45.8505 82.5854 46.0562 82.6794 46.2971L82.6853 46.3089Z" fill="#011E5F"/>
<path d="M90.675 45.8692C91.4273 45.1581 92.3264 44.7232 93.3313 44.5117C94.9063 44.1767 96.4636 44.2119 97.9269 44.9642C99.4725 45.7575 100.313 47.068 100.566 48.7723C100.624 49.1543 100.63 49.5421 100.63 49.93C100.63 53.2445 100.63 56.5531 100.63 59.8676C100.63 59.9792 100.618 60.0909 100.613 60.2025C100.301 60.3671 100.201 60.326 100.201 60.0204C100.201 56.6471 100.201 53.2739 100.201 49.9006C100.201 50.4589 100.201 51.0172 100.201 51.5814C100.201 54.3317 100.201 57.082 100.201 59.8382C100.201 60.2613 100.166 60.3025 99.7546 60.2966C99.1023 60.2907 98.45 60.3318 97.7977 60.2613C97.6331 60.2378 97.6566 60.1144 97.6566 60.0027C97.6566 59.5561 97.6566 59.1036 97.6566 58.657C97.6566 55.5893 97.6566 52.5216 97.6566 49.454C97.6566 49.3482 97.6978 49.2307 97.6155 49.1308C97.5685 48.931 97.5567 48.7253 97.5626 48.5196C97.4803 48.3844 97.5978 48.2199 97.4921 48.0906C97.3158 47.4148 97.1042 46.7566 96.6517 46.2042C96.5577 46.0866 96.4695 45.9632 96.3344 45.8809C96.1933 45.7281 95.9524 45.7105 95.8466 45.5107C95.6703 45.4578 95.4999 45.3873 95.3529 45.2697C95.2295 45.2286 95.1002 45.211 94.9827 45.1522L94.9592 45.1346H94.9357C94.6712 45.0758 94.3774 45.164 94.1247 45.0288C93.7074 45.0053 93.2961 45.0053 92.8965 45.1405C92.773 45.2462 92.6085 45.2169 92.4675 45.258C92.4498 45.258 92.4322 45.2697 92.4087 45.2756C92.3323 45.3285 92.2676 45.4049 92.156 45.3755C92.1384 45.3814 92.1207 45.3932 92.1031 45.399C92.0443 45.4578 91.9797 45.4989 91.8974 45.5048C91.8563 45.5048 91.8151 45.5048 91.7916 45.5518C91.6095 45.734 91.4214 45.9044 91.1746 45.9985C90.8043 46.2629 90.5634 46.6449 90.2754 46.9858C90.1226 46.8682 90.1344 46.8682 90.1638 46.6802C90.1814 46.5744 90.3224 46.4745 90.1814 46.3628C90.3048 46.1513 90.4988 46.0161 90.6927 45.8751C90.7338 45.9162 90.775 45.9632 90.8161 46.0102C90.7808 45.9573 90.7338 45.9221 90.6927 45.8809L90.675 45.8692Z" fill="#011E5F"/>
<path d="M90.1626 46.356C90.4036 46.3795 90.2919 46.5323 90.2508 46.6263C90.192 46.7556 90.1391 46.8614 90.2567 46.9789C89.7395 47.831 89.4516 48.7713 89.2694 49.741C89.1812 49.882 89.2694 50.0465 89.2106 50.1876C89.2106 50.3169 89.1989 50.452 89.1989 50.5813C89.146 51.1514 89.193 51.7273 89.1754 52.2973C89.1754 52.4266 89.193 52.5618 89.1518 52.6852V52.697C89.1989 53.0202 89.1695 53.3434 89.1695 53.6666C89.1695 54.7303 89.1695 55.794 89.1695 56.8577C89.1695 56.9693 89.1518 57.081 89.193 57.1868C89.193 58.1858 89.193 59.1849 89.193 60.1898C89.1283 60.2486 89.0461 60.2486 88.9638 60.2486C88.1234 60.2486 87.2889 60.2486 86.4485 60.2486C86.378 60.2486 86.3016 60.2486 86.2429 60.2015C86.1723 60.0899 86.1958 59.9665 86.1958 59.8431C86.1958 55.1358 86.1958 50.4344 86.1958 45.7271C86.1958 45.6037 86.1723 45.4803 86.237 45.3687C86.3369 45.2746 86.4662 45.2864 86.5837 45.2864C87.3359 45.2864 88.094 45.2864 88.8463 45.2864C88.9697 45.2864 89.0931 45.2746 89.193 45.3745V47.5489C89.5162 47.1082 89.7865 46.6851 90.1626 46.3501V46.356Z" fill="#001E5F"/>
<path d="M103.932 44.6523C104.779 44.6523 105.631 44.6523 106.477 44.6347C106.618 44.6347 106.653 44.6876 106.647 44.8169C106.641 44.9991 106.647 45.1812 106.647 45.3693C106.647 50.2117 106.647 55.0542 106.647 59.8966C106.647 59.9965 106.641 60.1023 106.636 60.2022C106.5 60.2786 106.371 60.2962 106.242 60.1963C106.154 60.0318 106.183 59.8555 106.183 59.685C106.183 55.1247 106.183 50.5643 106.183 46.004C106.183 45.8629 106.212 45.716 106.154 45.5867C106.071 45.6984 106.113 45.8277 106.113 45.9452C106.113 50.5349 106.113 55.1247 106.113 59.7085C106.113 59.879 106.148 60.0553 106.042 60.2139C105.966 60.2786 105.872 60.2668 105.778 60.261C105.119 60.261 104.461 60.2727 103.803 60.261C103.727 60.2492 103.668 60.2139 103.662 60.1258C103.662 60.0435 103.662 59.9612 103.662 59.879C103.662 55.0659 103.662 50.247 103.662 45.4339C103.721 45.2988 103.832 45.3164 103.944 45.3223C104.449 45.3399 104.955 45.3223 105.343 45.3282C105.031 45.3282 104.608 45.3282 104.179 45.3282C103.997 45.3282 103.838 45.287 103.697 45.1695C103.633 45.0578 103.674 44.9403 103.662 44.8228C103.697 44.6758 103.868 44.7522 103.938 44.6582L103.932 44.6523Z" fill="#011E5F"/>
<path d="M41.0321 52.3558C41.179 53.1316 41.3435 53.9014 41.702 54.6125C41.8195 54.8476 41.9253 55.0885 42.0899 55.3001C42.1957 55.4059 42.2721 55.5293 42.3249 55.6644C42.5306 55.7996 42.6364 56.0112 42.7539 56.2227C42.8538 56.2521 42.9185 56.3168 42.9302 56.4225C42.9714 56.4989 43.0302 56.5577 43.1007 56.593C43.418 56.7457 43.6178 57.0337 43.8823 57.257C43.9939 57.3511 44.1467 57.4098 44.2231 57.5509C44.3289 57.7154 44.4817 57.8094 44.6639 57.8682C44.7227 58.0328 44.9342 58.0093 45.0165 58.115C45.1164 58.2561 45.0518 58.0151 45.0988 58.0915C45.1164 58.1033 45.134 58.1092 45.1517 58.1209C45.2163 58.2032 45.3221 58.1973 45.4044 58.2384C46.0038 58.4676 46.6208 58.6439 47.2497 58.7732C47.4847 58.8966 47.7433 58.7615 47.9784 58.8496C48.9128 58.8614 49.8295 58.738 50.7287 58.4618C50.9109 58.4911 51.1224 58.3031 51.2752 58.5499C51.3222 58.4441 51.1871 58.3384 51.2928 58.2443C51.3046 58.2267 51.3222 58.2208 51.3399 58.2326C51.4574 58.1914 51.5691 58.162 51.6807 58.1033C51.8159 58.0328 51.9687 58.021 51.9746 58.2502C51.9393 58.2913 51.9099 58.3325 51.8746 58.3677C51.7042 58.4265 51.6337 58.5793 51.5397 58.7145C51.4927 58.7615 51.4456 58.8026 51.3986 58.8496C51.2282 58.973 51.0343 59.0729 50.9285 59.2669C49.9765 60.0485 48.8893 60.5245 47.6787 60.7302C47.5729 60.7106 47.4984 60.7184 47.4553 60.7537C46.2447 60.9829 45.0518 60.8595 43.9117 60.4246C41.2613 59.4255 39.651 57.5274 39.1162 54.7359C39.128 54.6419 39.1162 54.542 39.1221 54.4479C39.1221 54.4479 39.1104 54.4362 39.1045 54.4362C39.0986 54.4362 39.0927 54.4479 39.0869 54.4538C38.9106 53.4489 39.0163 52.4675 39.2808 51.4919C39.6687 50.0757 40.4561 48.9121 41.5375 47.9306C41.5903 47.8836 41.655 47.8542 41.7138 47.819C41.8901 47.8307 41.8195 48.0012 41.8842 48.0834C41.8842 48.201 41.8019 48.2832 41.7373 48.3773L41.7138 48.3655C41.608 48.3949 41.5727 48.4595 41.6197 48.5595C41.1672 49.676 40.9615 50.8396 41.0379 52.0444C41.0203 52.1443 40.9909 52.2442 41.0556 52.3441L41.0321 52.3558Z" fill="#011E5F"/>
<path d="M47.8999 46.3088C47.8646 46.3088 47.8235 46.3029 47.7882 46.297C47.7295 46.2617 47.6766 46.2265 47.6002 46.25C47.4709 46.2441 47.3416 46.2617 47.2241 46.1971C47.0301 46.0972 46.8244 46.1618 46.6246 46.1618C45.6432 46.1501 44.6912 46.3088 43.7627 46.6261C43.6686 46.6555 43.5864 46.6966 43.4923 46.7319C43.4571 46.6143 43.3689 46.632 43.2808 46.6379C43.1867 46.585 43.0398 46.5732 43.0575 46.4087L43.1103 46.3558C43.1985 46.3264 43.2573 46.2559 43.3101 46.1853C43.6275 45.7916 44.0447 45.5213 44.4679 45.2568C45.8548 44.3929 47.371 44.0521 48.9988 44.1696C49.0694 44.1696 49.134 44.199 49.2045 44.2166C49.2985 44.2872 49.4043 44.246 49.5042 44.2401C52.3545 44.7455 54.2703 46.3734 55.3222 49.0473C55.334 49.0826 55.334 49.1237 55.3398 49.1648C55.3633 49.394 55.5044 49.635 55.2869 49.8466C55.0754 49.9993 55.0342 50.2285 55.0284 50.4636C55.0225 50.9808 55.0225 51.4979 55.0284 51.921C55.0401 51.4744 54.999 50.9338 55.046 50.399C55.1283 50.2579 55.2282 50.1286 55.2811 49.9758C55.2987 49.9171 55.3516 49.8701 55.4221 49.8936C55.475 49.9112 55.5044 49.9523 55.5044 50.0052C55.5161 50.1345 55.5632 50.2697 55.4632 50.3813C55.3692 50.4695 55.3927 50.587 55.3927 50.6928C55.3927 51.1101 55.3927 51.5214 55.3927 51.9387C55.3927 51.5155 55.3927 51.0924 55.3927 50.6693C55.3927 50.5812 55.381 50.4871 55.4397 50.4048C55.6043 50.2991 55.5925 50.446 55.6219 50.5341C55.6631 50.6693 55.5984 50.8221 55.6983 50.9455C55.8629 53.067 55.187 54.9006 53.7825 56.4873C53.5004 56.8105 53.1537 57.0514 52.8305 57.3218C52.7306 57.3394 52.7364 57.2806 52.7658 57.2277C52.8187 57.1337 52.8716 57.0456 52.8716 56.9339C52.8716 56.8869 52.9539 56.881 52.9245 56.8222C52.901 56.6224 52.9891 56.4696 53.1184 56.3345C53.3829 55.7644 53.5474 55.165 53.6297 54.5421C53.7355 53.7899 53.7355 53.0435 53.6003 52.2913C53.5298 52.1561 53.518 52.0092 53.5063 51.8564C53.5004 51.8153 53.4887 51.78 53.4828 51.7389C53.3711 51.6331 53.424 51.4862 53.3711 51.3628C53.2595 51.2687 53.3006 51.1159 53.2477 50.9925C53.1654 50.9044 53.1537 50.7868 53.1243 50.6811C53.1302 50.6634 53.1243 50.6458 53.1067 50.634C53.0009 50.5811 53.0479 50.4636 52.995 50.3872C52.7247 49.7408 52.3427 49.1707 51.8549 48.6712C51.6199 48.4244 51.3907 48.1717 51.1556 47.9249C51.1438 47.8543 51.0792 47.8426 51.0263 47.8191C50.8383 47.7133 50.6972 47.5311 50.4857 47.4488C49.8451 47.0492 49.134 46.7906 48.4523 46.4851C48.3465 46.391 48.182 46.4498 48.0821 46.344C47.9469 46.2559 48.0174 46.2089 48.1173 46.1736C47.9939 46.1207 48.0174 46.3499 47.8881 46.2911L47.8999 46.3088Z" fill="#001E5F"/>
<path d="M143.515 60.4485C140.982 60.0665 139.948 58.4974 140.106 56.3524C140.218 54.8127 141.182 53.9312 142.457 53.2965C143.362 52.8499 144.332 52.5737 145.313 52.3269C146.635 51.9919 147.952 51.6452 149.227 51.1456C149.286 51.1692 149.345 51.175 149.403 51.1809C149.515 51.1868 149.662 51.0927 149.738 51.2397C149.815 51.3807 149.65 51.4512 149.609 51.557C149.433 51.7568 149.162 51.7921 148.945 51.9155C148.921 51.9273 148.892 51.939 148.869 51.9508C148.675 52.0213 148.492 52.1036 148.299 52.1741C148.022 52.2799 147.746 52.3798 147.464 52.4738C147.288 52.5267 147.111 52.5854 146.941 52.6442C146.917 52.656 146.888 52.6618 146.865 52.6677C146.759 52.6912 146.659 52.7265 146.559 52.7676C146.535 52.7794 146.506 52.7853 146.483 52.797C146.359 52.8323 146.242 52.8734 146.124 52.9204C145.595 53.1143 145.096 53.3612 144.637 53.6961C143.756 54.3485 143.409 55.2535 143.356 56.3113C143.321 57.0106 143.509 57.663 143.726 58.3094C143.709 58.4387 143.809 58.4916 143.897 58.5503C144.414 59.0851 144.972 59.5494 145.736 59.6845C147.158 59.9431 148.51 59.7786 149.774 59.044C149.879 58.9852 149.979 58.9088 150.109 58.9029C150.291 58.9264 150.444 58.9735 150.338 59.2085C150.302 59.2379 150.267 59.2614 150.232 59.2908C150.126 59.3378 149.991 59.2438 149.903 59.3672C149.826 59.426 149.762 59.4965 149.721 59.5788C148.534 60.2193 147.264 60.5602 145.913 60.6013C145.525 60.5837 145.137 60.5954 144.755 60.6013C144.484 60.5778 144.214 60.6013 143.95 60.5132C143.815 60.4191 143.656 60.5249 143.521 60.4485H143.515Z" fill="#011E5F"/>
<path d="M103.927 42.0844C103.398 41.6025 103.245 40.8385 103.545 40.1568C103.85 39.4633 104.532 39.0755 105.331 39.1401C106.013 39.193 106.642 39.7337 106.818 40.4095C107.159 41.7083 105.995 42.8425 104.791 42.5604C104.697 42.484 104.626 42.4017 104.462 42.3958C104.262 42.3958 104.103 42.196 103.921 42.0844H103.927Z" fill="#011E5F"/>
<path d="M136.832 45.7451C137.132 45.8744 137.214 46.1036 137.208 46.4268C137.185 47.4435 137.203 48.466 137.203 49.4827C137.203 49.5767 137.203 49.6766 137.167 49.7824C136.668 48.7187 136.145 47.6844 135.31 46.8499C135.169 46.7794 135.069 46.6795 134.999 46.5385C134.587 46.1095 134.111 45.7686 133.582 45.51C133.394 45.4807 133.242 45.3808 133.095 45.275C132.971 45.2632 132.871 45.2103 132.771 45.1457C132.677 45.0987 132.566 45.1045 132.484 45.0281C132.26 44.9576 132.037 44.893 131.814 44.8225C131.825 44.7226 131.908 44.7167 131.937 44.7108C131.737 44.7167 131.496 44.7578 131.249 44.7167C131.149 44.7167 131.05 44.7049 130.95 44.6991C130.903 44.6285 130.944 44.558 131.003 44.5639C131.414 44.5991 131.772 44.2994 132.19 44.3993C132.389 44.3993 132.595 44.3876 132.789 44.4581C132.918 44.5404 133.071 44.464 133.2 44.511C134.205 44.6168 135.181 44.8401 136.092 45.2808C136.327 45.3925 136.574 45.51 136.768 45.6922C136.803 45.7686 136.715 45.7921 136.703 45.8509C136.774 45.8509 136.779 45.7686 136.832 45.7451Z" fill="#011E5F"/>
<path d="M60.7983 44.7167C60.7043 44.8166 60.5868 44.7755 60.481 44.7755C59.9168 44.7755 59.3585 44.7813 58.7944 44.7755C58.6298 44.7755 58.5182 44.8107 58.5064 44.9753C58.3536 45.0223 58.4535 44.7343 58.3125 44.8401C58.2478 44.8871 58.0833 44.9694 58.2008 45.1222C58.2126 45.1398 58.2243 45.1516 58.2419 45.1692C57.9129 45.3984 58.3536 45.5571 58.3007 45.7863C58.2419 46.0272 58.289 46.2917 58.289 46.5502C58.289 50.9754 58.289 55.4006 58.289 59.8258C58.289 59.9433 58.2478 60.0668 58.336 60.1784C58.4418 60.1373 58.4183 59.9845 58.5299 59.961C58.6181 60.0197 58.5652 60.149 58.6533 60.2078C59.288 60.2078 59.9227 60.196 60.5574 60.2078C60.7983 60.2078 60.8689 60.1431 60.8689 59.9022C60.8571 56.8933 60.8512 53.8844 60.8571 50.8755C60.8571 50.7227 60.7631 50.5112 60.9864 50.4113C60.9864 53.6317 60.9864 56.8522 60.9864 60.0785C60.9864 60.2548 60.957 60.3312 60.7513 60.3253C59.8933 60.3136 59.0353 60.3136 58.1773 60.3253C57.9657 60.3253 57.9305 60.2489 57.9305 60.0609C57.9305 55.001 57.9305 49.947 57.9305 44.8871C57.9305 44.7402 57.9305 44.6403 58.1303 44.6403C58.9472 44.6521 59.764 44.6403 60.5809 44.6403C60.669 44.6403 60.7396 44.6579 60.8042 44.7167H60.7983Z" fill="#021F5F"/>
<path d="M71.9503 47.4665C71.9797 47.5311 72.0149 47.5899 72.0561 47.6839C72.4028 47.1668 72.7201 46.6379 73.1903 46.2382C73.3783 46.2206 73.3137 46.3617 73.3196 46.4498C73.3313 46.5203 73.4018 46.5732 73.3725 46.6555C73.3489 46.679 73.3313 46.7084 73.3078 46.7319C73.2255 46.8259 73.1198 46.726 73.014 46.7672C73.0727 46.8729 73.1315 46.9787 73.0786 47.1021C73.014 47.2549 72.9435 47.4136 72.8788 47.5664C72.8553 47.8837 72.726 48.1658 72.5791 48.442C72.5438 48.5537 72.5027 48.6595 72.4674 48.7711C72.3734 49.0121 72.3323 49.2589 72.3323 49.5233C72.3323 52.9495 72.3323 56.3698 72.3323 59.7959C72.3323 59.8958 72.3323 60.0016 72.3323 60.1015C72.3323 60.2719 72.2382 60.3072 72.0854 60.266C71.9738 60.2484 71.8386 60.2954 71.7505 60.1838C71.7152 60.1074 71.7211 60.0251 71.7211 59.9428C71.7211 56.4638 71.7152 52.9847 71.7211 49.5057C71.8445 49.1178 71.9444 48.7182 72.0326 48.3245C72.0678 48.1658 72.0149 48.0483 71.9091 47.9425C71.7975 47.825 71.7387 47.6898 71.8327 47.5311C71.8563 47.49 71.8798 47.4489 71.9385 47.4724L71.9503 47.4665Z" fill="#011E5E"/>
<path d="M159.473 46.1797C159.238 45.9447 159.138 45.6273 158.944 45.3687C158.915 45.3276 158.926 45.2277 158.832 45.3041C158.779 45.3452 158.803 45.3922 158.85 45.4275C158.797 45.7684 158.838 46.1151 158.826 46.4559C158.826 46.5793 158.844 46.7086 158.68 46.7439C158.597 46.8027 158.509 46.6792 158.427 46.7439C158.403 46.7498 158.38 46.7439 158.368 46.7204C158.368 45.974 158.368 45.2336 158.38 44.4872C158.38 44.3756 158.28 44.2051 158.468 44.1523C158.668 44.0935 158.756 44.2345 158.838 44.3814C159.073 44.8046 159.373 45.1924 159.579 45.6332C159.596 45.6685 159.637 45.6861 159.673 45.7213C159.931 45.3158 160.19 44.9221 160.448 44.5225C160.501 44.4931 160.548 44.4578 160.572 44.3991C160.607 44.2992 160.66 44.2169 160.783 44.2286C160.919 44.2463 160.954 44.3521 160.971 44.4637C160.971 45.1219 160.971 45.7742 160.971 46.4265C160.971 46.5265 160.995 46.6264 160.942 46.7204C160.572 46.7733 160.542 46.7556 160.542 46.4089C160.542 46.0622 160.542 45.7213 160.542 45.3746C160.542 45.3158 160.595 45.2042 160.46 45.2042C160.296 45.5157 160.119 45.8271 159.908 46.1092C159.773 46.1974 159.62 46.1621 159.473 46.168V46.1797Z" fill="#041E61"/>
<path d="M132.178 44.3989C131.772 44.3989 131.42 44.7045 130.997 44.6104C130.955 44.5987 130.938 44.6575 130.932 44.6986C130.585 44.6986 130.233 44.6986 129.886 44.6927C129.745 44.6927 129.598 44.6457 129.463 44.7221C129.128 44.8044 128.793 44.869 128.464 44.9748C127.835 45.1746 127.329 45.5448 126.953 46.0914C126.783 45.9915 126.765 45.7623 126.607 45.6506C126.571 45.5272 126.442 45.4332 126.513 45.2804C127.259 44.7515 128.117 44.5517 128.998 44.4283C129.992 44.2872 130.997 44.3284 131.996 44.3695C132.054 44.3695 132.113 44.393 132.172 44.4048L132.178 44.3989Z" fill="#021E62"/>
<path d="M85.7548 44.564V60.155C85.7548 60.155 85.7019 60.155 85.6784 60.155V44.5698C85.6784 44.5698 85.7313 44.564 85.7548 44.5581V44.564Z" fill="#FAFEFA"/>
<path d="M85.9889 44.8637V60.2549H85.9125V44.8813C85.9125 44.8813 85.9595 44.8754 85.9889 44.8696V44.8637Z" fill="#FCFBFD"/>
<path d="M89.2052 44.6518C89.2052 44.8575 89.1993 45.0573 89.1934 45.263C89.1288 45.3217 89.0465 45.3217 88.9642 45.3217C88.118 45.3217 87.2776 45.3217 86.4313 45.3217C86.3726 45.3217 86.3079 45.3217 86.255 45.2806C86.1669 45.069 86.161 44.8516 86.255 44.6341C87.2365 44.6106 88.2237 44.5871 89.2052 44.6459V44.6518Z" fill="#011E5F"/>
<path d="M72.0854 60.2018C72.1559 60.2253 72.2499 60.2958 72.2675 60.1489C72.2793 60.0666 72.2675 59.9844 72.2675 59.9021C72.2675 56.5993 72.2675 53.2907 72.2675 49.988C72.2675 49.5296 72.2382 49.0712 72.4438 48.6364C72.4438 48.6775 72.4556 48.7304 72.4615 48.7774C72.2793 51.6982 72.4203 54.6248 72.3792 57.5514C72.3674 58.3859 72.3792 59.2263 72.3792 60.0608C72.3792 60.2253 72.3674 60.3193 72.1559 60.3193C71.2567 60.3076 70.3576 60.3193 69.4585 60.3193C69.4114 60.3193 69.3527 60.3311 69.3292 60.2664C70.099 60.143 70.8747 60.2312 71.6505 60.2077C71.6622 60.2077 71.6799 60.2077 71.6916 60.2077C71.8209 60.2488 71.9502 60.2664 72.0795 60.2077L72.0854 60.2018Z" fill="#041E59"/>
<path d="M157.932 44.5233C157.749 44.5233 157.561 44.5468 157.379 44.535C157.191 44.5232 157.132 44.5879 157.138 44.776C157.15 45.3695 157.138 45.9572 157.15 46.5507C157.15 46.727 157.091 46.7682 156.927 46.774C156.756 46.774 156.697 46.7388 156.703 46.5566C156.715 46.0042 156.692 45.4577 156.715 44.9052C156.727 44.6232 156.668 44.4821 156.357 44.5409C156.257 44.5585 156.151 44.5409 156.051 44.5409C155.928 44.5409 155.834 44.5409 155.845 44.3705C155.857 44.2177 155.91 44.1471 156.069 44.1471C156.692 44.153 157.315 44.1589 157.937 44.1648C157.985 44.2823 157.985 44.4057 157.937 44.5233H157.932Z" fill="#011E60"/>
<path d="M97.7941 60.2031C98.3994 60.3089 99.0165 60.256 99.6276 60.2619C100.127 60.2678 100.127 60.2619 100.127 59.78C100.127 56.4538 100.127 53.1334 100.127 49.8072C100.127 49.6955 100.092 49.5721 100.186 49.437C100.28 49.5662 100.245 49.6896 100.245 49.8013C100.245 53.1746 100.245 56.5478 100.245 59.9269C100.245 60.303 100.245 60.303 100.597 60.2031C100.615 60.3089 100.556 60.3148 100.474 60.3148C99.5454 60.3148 98.6168 60.3148 97.6824 60.3148C97.6589 60.3148 97.6354 60.2854 97.6178 60.2678C97.6589 60.2031 97.7471 60.2678 97.7882 60.2031H97.7941Z" fill="#051B63"/>
<path d="M89.2045 44.6511C88.2231 44.6511 87.2417 44.6511 86.2603 44.6511C86.1839 44.9919 86.2309 45.3386 86.2309 45.6795C86.2309 50.4984 86.2309 55.3173 86.2309 60.1363C86.2309 60.195 86.2485 60.2597 86.2132 60.3126C86.084 60.2068 86.1427 60.0657 86.1427 59.9423C86.1427 55.0353 86.1427 50.1341 86.1427 45.227V44.5805C87.0536 44.5805 87.9586 44.5805 88.8637 44.5805C88.9812 44.5805 89.1105 44.5335 89.2104 44.6452L89.2045 44.6511Z" fill="#FCFBFD"/>
<path d="M154.87 58.0562C154.694 57.9974 154.624 57.8564 154.624 57.6801C154.624 54.9826 154.624 52.2793 154.624 49.5819C154.624 49.5408 154.641 49.5055 154.653 49.4467C154.8 49.5408 154.741 49.6759 154.741 49.7758C154.741 52.344 154.741 54.9121 154.741 57.4802C154.741 57.6389 154.718 57.8093 154.859 57.9328C154.859 57.9739 154.859 58.015 154.859 58.0562H154.87Z" fill="#001E62"/>
<path d="M103.69 45.3861C103.69 50.2227 103.69 55.0651 103.69 59.9017C103.69 60.0075 103.619 60.1603 103.807 60.2014C103.796 60.3424 103.713 60.2837 103.637 60.266C103.637 60.1661 103.619 60.0662 103.619 59.9605C103.619 54.9711 103.619 49.9759 103.619 44.9865C103.619 44.8807 103.555 44.7456 103.678 44.6574C103.713 44.6986 103.713 44.7397 103.678 44.775C103.678 44.8984 103.678 45.0218 103.678 45.1393C103.743 45.2216 103.743 45.3039 103.678 45.3861H103.69Z" fill="#0E1D3F"/>
<path d="M86.2052 60.3189C86.1994 60.2073 86.1876 60.0956 86.1876 59.984C86.1876 54.9829 86.1876 49.9818 86.1876 44.9806C86.1876 44.8749 86.1171 44.7397 86.2523 44.6574C86.2523 44.8631 86.2523 45.0629 86.2523 45.2686C86.2875 45.3097 86.2875 45.3509 86.2523 45.392C86.2523 50.3285 86.2523 55.2708 86.2523 60.2073C86.2875 60.2425 86.2816 60.2719 86.2523 60.3072C86.2346 60.3189 86.217 60.3248 86.1994 60.3248L86.2052 60.3189Z" fill="#0B1C45"/>
<path d="M80.6655 48.9422C80.7889 49.048 80.7301 49.189 80.7301 49.3124C80.7301 52.7973 80.7301 56.2823 80.736 59.7672C80.736 59.9141 80.6831 60.0669 80.7948 60.2079C80.83 60.2491 80.7301 60.2491 80.6831 60.2608C80.6772 60.1609 80.6655 60.061 80.6655 59.9611C80.6655 56.4409 80.6655 52.9149 80.6655 49.3947C80.6655 49.2419 80.6655 49.0891 80.6655 48.9422Z" fill="#0B1F40"/>
<path d="M97.7983 60.2016C97.7572 60.2721 97.6926 60.2604 97.6279 60.2663C97.622 60.1429 97.6103 60.0253 97.6103 59.9019C97.6103 56.4405 97.6103 52.9791 97.6103 49.5236C97.6103 49.3943 97.6103 49.2591 97.6103 49.1299C97.7396 49.2356 97.6749 49.3767 97.6749 49.5001C97.6749 52.9615 97.6749 56.417 97.6808 59.8784C97.6808 59.9901 97.5985 60.1546 97.7983 60.2075V60.2016Z" fill="#0C1D44"/>
<path d="M86.2589 45.3865C86.2589 45.3453 86.2589 45.3042 86.2589 45.263C87.2345 45.263 88.2159 45.263 89.1914 45.263C89.1914 45.3042 89.1914 45.3453 89.1914 45.3865C88.2159 45.3865 87.2345 45.3865 86.2589 45.3865Z" fill="#031C66"/>
<path d="M86.2589 60.3009C86.2589 60.2657 86.2589 60.2363 86.2589 60.201C87.2345 60.201 88.2159 60.201 89.1914 60.201C89.2149 60.3421 89.1092 60.3127 89.0386 60.3127C88.1101 60.3127 87.1875 60.3068 86.2589 60.3009Z" fill="#041E58"/>
<path d="M103.642 60.2661C103.707 60.2661 103.772 60.272 103.813 60.2015C104.547 60.2015 105.288 60.2015 106.022 60.2015C106.058 60.1721 106.099 60.1486 106.146 60.1486C106.193 60.1486 106.234 60.1721 106.269 60.2015C106.393 60.2015 106.51 60.2015 106.633 60.2015C106.645 60.2779 106.616 60.3131 106.539 60.3131C105.587 60.3131 104.635 60.3131 103.677 60.3072C103.666 60.3072 103.654 60.2779 103.642 60.2661Z" fill="#041E56"/>
<path d="M43.3077 46.608C43.4075 46.5904 43.519 46.5552 43.4897 46.7313C43.2783 46.8781 43.0141 46.9251 42.8144 47.0954C42.6735 47.2304 42.5208 47.3302 42.3212 47.3596C42.4151 47.0425 42.6676 46.8429 42.8731 46.608C43.0199 46.5376 43.1609 46.5376 43.3018 46.608H43.3077Z" fill="#082161"/>
<path d="M55.4546 50.4051C55.4428 50.2523 55.484 50.0936 55.3958 49.888C55.3018 50.1113 55.29 50.3228 55.0844 50.4051C54.9433 50.1642 55.1843 49.9996 55.2078 49.7939C55.39 49.7587 55.3194 49.6059 55.3312 49.5001C55.3429 49.3884 55.3312 49.2826 55.3312 49.171C55.5604 49.7469 55.6662 50.3405 55.6897 50.9575C55.5075 50.9164 55.5898 50.7695 55.5721 50.6637C55.5545 50.5638 55.6133 50.4286 55.4487 50.4051H55.4546Z" fill="#051E5C"/>
<path d="M126.639 45.6282C126.879 45.681 126.874 45.9159 126.956 46.0803C126.844 46.2154 126.844 46.3974 126.768 46.55C126.574 46.5383 126.551 46.368 126.504 46.2447C126.48 46.1801 126.421 46.1684 126.398 46.1214C126.363 46.0862 126.363 46.0451 126.392 46.0098C126.433 45.9511 126.562 45.9981 126.545 45.8689C126.539 45.9629 126.451 45.9687 126.398 46.004C126.169 46.0392 126.21 45.8513 126.192 45.7339C126.175 45.6047 126.28 45.5929 126.38 45.6047C126.433 45.6047 126.48 45.6047 126.533 45.5929C126.58 45.5929 126.615 45.5988 126.65 45.634L126.639 45.6282Z" fill="#011E5F"/>
<path d="M89.202 57.1993C89.155 57.1523 89.1491 57.0936 89.1491 57.0289C89.1491 55.5891 89.155 54.1434 89.1609 52.7036C89.2196 52.8094 89.2079 52.9211 89.2079 53.0327C89.2079 54.4196 89.2079 55.8124 89.2079 57.1993H89.202Z" fill="#102B66"/>
<path d="M109.263 58.8677C109.211 57.8158 109.252 56.7639 109.24 55.706C109.24 55.4592 109.24 55.2065 109.24 54.9186C109.369 55.0361 109.387 55.1654 109.416 55.2888C109.369 55.4005 109.352 55.518 109.305 55.6296C109.305 56.6111 109.305 57.5925 109.305 58.5739C109.305 58.6738 109.34 58.7796 109.269 58.8677H109.263Z" fill="#222850"/>
<path d="M141.479 46.403C141.479 47.502 141.485 48.6068 141.485 49.7058C141.485 49.8468 141.485 49.9937 141.555 50.123C141.632 50.2406 141.543 50.317 141.49 50.4051C141.402 50.4697 141.414 50.3816 141.414 50.3463C141.414 49.0652 141.414 47.7841 141.414 46.503C141.414 46.4677 141.449 46.4383 141.473 46.403H141.479Z" fill="#0D1E46"/>
<path d="M109.263 58.8685C109.263 57.8871 109.275 56.9057 109.281 55.9243C109.281 55.8009 109.287 55.6834 109.292 55.5599C109.334 55.5541 109.369 55.5599 109.339 55.6128C109.339 56.7353 109.339 57.8636 109.339 58.9861C109.316 59.0096 109.298 59.0096 109.281 58.9802C109.281 58.9449 109.275 58.9097 109.269 58.8744L109.263 58.8685Z" fill="#0A1D4E"/>
<path d="M120.752 47.9556C120.999 48.2961 121.21 48.6602 121.369 49.0595C121.328 49.0007 121.246 49.3237 121.193 49.0242C121.152 48.7894 121.028 48.5545 120.805 48.3959C120.647 48.2844 120.741 48.1082 120.752 47.9556Z" fill="#F5FAF9"/>
<path d="M51.9671 58.2555C51.9025 58.1205 51.7909 58.0676 51.6735 58.1675C51.5619 58.2614 51.4504 58.232 51.3329 58.2379C51.6148 58.0794 51.9025 57.9267 52.1726 57.7564C52.2489 57.7095 52.3135 57.6977 52.3899 57.6977C52.2842 57.9091 52.1491 58.097 51.9671 58.2555Z" fill="#06215D"/>
<path d="M126.517 45.6277C126.517 45.6277 126.488 45.657 126.476 45.6688C126.405 45.751 126.288 45.5631 126.253 45.6922C126.223 45.8038 126.253 45.9389 126.394 45.9976V46.1209C126.206 46.1679 126.088 45.9506 125.9 45.9976C125.848 45.933 125.865 45.8625 125.895 45.7921C125.912 45.7745 125.924 45.7568 125.942 45.7451C126.047 45.7216 126.106 45.657 126.141 45.5572C126.159 45.5396 126.182 45.522 126.2 45.5043C126.353 45.4221 126.446 45.4926 126.517 45.6277Z" fill="#021E62"/>
<path d="M72.5807 48.4479C72.6159 48.1367 72.7274 47.849 72.8801 47.573C73.2089 48.0075 72.8331 48.2072 72.5807 48.4479Z" fill="#F5FBF8"/>
<path d="M160.943 46.7323C160.943 45.9565 160.943 45.1808 160.938 44.3992C160.908 44.3228 160.879 44.2405 160.943 44.1641C160.955 44.1641 160.967 44.1759 160.967 44.1759C161.008 45.0221 161.014 45.8625 160.967 46.7088C160.967 46.7146 160.949 46.7205 160.943 46.7264V46.7323Z" fill="#102963"/>
<path d="M73.2556 46.4855C73.1323 46.4326 73.3789 46.2741 73.191 46.2389C73.2732 46.1214 73.3789 46.0216 73.5022 45.9511C73.602 46.0275 73.649 46.1801 73.8075 46.186C73.7899 46.2036 73.7664 46.2271 73.7488 46.2447C73.555 46.2623 73.5022 46.5677 73.2556 46.4913V46.4855Z" fill="#071F64"/>
<path d="M142.724 47.8416C142.748 47.3425 143.106 47.1017 143.47 46.861C143.223 47.1898 142.971 47.5186 142.724 47.8416Z" fill="#072258"/>
<path d="M149.036 44.3588C148.76 44.4587 148.478 44.4 148.196 44.4C147.744 44.4 147.285 44.4411 146.833 44.3765C147.567 44.3001 148.302 44.3059 149.031 44.3588H149.036Z" fill="#0D1F44"/>
<path d="M82.6824 46.3088C82.518 46.1268 82.3594 45.9447 82.195 45.7627C82.4475 45.6805 82.5239 46.0504 82.7705 45.9858C82.7998 46.1091 82.8644 46.2383 82.6824 46.3088Z" fill="#F6FBF8"/>
<path d="M89.1507 52.6979C89.1507 52.0515 89.1448 51.405 89.1389 50.7586C89.1389 50.6998 89.1389 50.6352 89.1918 50.5941C89.1801 51.2934 89.1624 51.9986 89.1507 52.6979Z" fill="#102B66"/>
<path d="M160.459 45.2155C160.623 45.1215 160.576 45.2684 160.576 45.3272C160.576 45.668 160.594 46.0148 160.576 46.3497C160.559 46.6377 160.653 46.767 160.946 46.7317C160.529 46.814 160.523 46.8081 160.523 46.4261C160.523 46.1029 160.523 45.7797 160.523 45.4565C160.523 45.3742 160.57 45.2743 160.465 45.2155H160.459Z" fill="#102963"/>
<path d="M149.603 51.5098C149.538 51.457 149.585 51.4218 149.626 51.3983C149.679 51.363 149.732 51.3219 149.697 51.2574C149.661 51.181 149.579 51.2221 149.538 51.2397C149.403 51.2867 149.292 51.3102 149.227 51.1458C149.292 51.0695 149.38 51.0695 149.468 51.0695C149.614 51.0695 149.767 51.0577 149.902 51.1399C149.961 51.1869 150.055 51.2104 150.037 51.3161C150.02 51.3337 150.002 51.3513 149.973 51.3572C149.896 51.3631 149.838 51.41 149.785 51.4629C149.726 51.504 149.673 51.5333 149.597 51.504L149.603 51.5098Z" fill="#001E5F"/>
<path d="M94.1193 45.0231C94.3952 45.0054 94.6712 45.0407 94.9296 45.1346C94.7241 45.2462 94.5009 45.1464 94.2837 45.2051C94.1662 45.2344 94.1017 45.1522 94.1134 45.0231H94.1193Z" fill="#F6FBFA"/>
<path d="M158.371 46.7209C158.371 46.7209 158.406 46.7327 158.43 46.7209C158.477 46.6916 158.518 46.6857 158.553 46.7327C158.77 46.7562 158.829 46.6504 158.829 46.4506C158.829 46.1098 158.794 45.763 158.853 45.4222C158.853 45.7748 158.864 46.1274 158.864 46.4741C158.864 46.8267 158.723 46.8972 158.371 46.7151V46.7209Z" fill="#E9EDEE"/>
<path d="M112.158 60.2722C112.469 60.3309 112.781 60.3838 113.092 60.4425C112.963 60.4249 112.839 60.6363 112.781 60.5423C112.622 60.3016 112.229 60.6539 112.158 60.2722Z" fill="#F5F9F7"/>
<path d="M115.17 60.6006C115.799 60.536 116.428 60.5654 117.057 60.583C116.428 60.6653 115.799 60.63 115.17 60.6006Z" fill="#11203E"/>
<path d="M103.926 42.0829C104.079 42.1064 104.202 42.1945 104.326 42.2826C104.384 42.3237 104.449 42.3941 104.513 42.3589C104.742 42.2415 104.742 42.4294 104.795 42.5527C104.455 42.494 104.155 42.353 103.926 42.0829Z" fill="#0B245B"/>
<path d="M119.651 59.4079C119.434 59.6017 119.187 59.7426 118.905 59.8307C118.882 59.8013 118.864 59.7719 118.841 59.7367C119.117 59.6428 119.334 59.402 119.651 59.4079Z" fill="#F3F9F8"/>
<path d="M82.2021 45.769C82.0025 45.6046 81.797 45.4343 81.5974 45.2699C81.7148 45.2699 81.8557 45.1994 81.8968 45.3932C81.8968 45.4167 81.9438 45.4578 81.9555 45.4519C82.4135 45.2699 82.0847 45.6985 82.2021 45.769Z" fill="#F6FBF8"/>
<path d="M141.496 50.4039C141.519 50.31 141.537 50.216 141.56 50.1221C141.654 49.9283 141.742 49.7287 141.836 49.5349C141.913 49.7521 141.725 50.2277 141.496 50.4039Z" fill="#F5FAF8"/>
<path d="M132.7 60.2552C132.7 60.2552 132.724 60.3199 132.694 60.3199C132.171 60.3199 131.654 60.3199 131.131 60.2729C131.178 60.267 131.225 60.2611 131.266 60.2552C131.742 60.2552 132.224 60.2552 132.7 60.2552Z" fill="#0E1F48"/>
<path d="M112.706 52.9793C112.982 52.9029 113.188 53.1084 113.428 53.1613C113.511 53.1789 113.511 53.267 113.511 53.3374C113.235 53.2376 112.959 53.1437 112.706 52.9851V52.9793Z" fill="#09225B"/>
<path d="M141.92 48.6304C142.002 48.5717 141.797 48.513 141.92 48.4719C141.973 48.4543 142.09 48.4367 142.102 48.5482C142.114 48.6246 142.131 48.6833 142.219 48.6891C142.178 48.789 142.143 48.8888 142.102 48.9827C142.055 49.018 142.102 49.1765 141.961 49.0943C141.885 48.9416 141.885 48.789 141.926 48.6304H141.92Z" fill="#062254"/>
<path d="M121.94 45.9972C121.805 45.8857 121.67 45.8093 121.77 45.6391C121.805 45.5803 121.864 45.4923 121.934 45.5451C122.075 45.6625 122.005 45.8152 121.934 45.9972H121.94Z" fill="#FBFDF5"/>
<path d="M73.0782 47.1028C73.0019 47.0617 73.0665 46.9972 73.0488 46.9384C73.0195 46.8504 72.8433 46.8269 72.9314 46.7094C73.0312 46.5685 73.1428 46.7388 73.2485 46.7329C73.2661 46.7329 73.2896 46.7329 73.3072 46.7329C73.2661 46.8797 73.178 46.9913 73.0782 47.1028Z" fill="#071F64"/>
<path d="M91.1647 45.9908C91.3409 45.7971 91.5523 45.6561 91.7813 45.5446C91.6697 45.8264 91.4936 46.0143 91.1647 45.9908Z" fill="#F5FAF9"/>
<path d="M114.096 60.5131C114.096 60.5131 114.114 60.5424 114.12 60.5542C114.108 60.6364 114.073 60.6892 113.985 60.6834C113.785 60.6657 113.609 60.6011 113.439 60.4955C113.474 60.4778 113.503 60.4661 113.539 60.4485C113.721 60.5189 113.914 60.4133 114.091 60.5131H114.096Z" fill="#F5F9F7"/>
<path d="M69.8165 45.0098C69.6521 44.9276 69.4936 44.8513 69.3292 44.7691C69.6404 44.5694 69.705 44.5988 69.8165 45.0098Z" fill="#F5FAF8"/>
<path d="M109.331 55.6066C109.331 55.6066 109.302 55.5713 109.284 55.5537C109.272 55.4422 109.237 55.313 109.413 55.2895C109.495 55.4715 109.572 55.6594 109.654 55.8414C109.542 55.8003 109.401 55.7945 109.46 55.6007C109.472 55.5596 109.378 55.5948 109.331 55.6007V55.6066Z" fill="#0C205E"/>
<path d="M126.394 46.1203C126.628 46.1145 126.534 46.3728 126.664 46.455C126.705 46.4785 126.734 46.5196 126.763 46.5548C126.763 46.6664 126.763 46.7838 126.705 46.8895C126.675 46.7075 126.617 46.5314 126.482 46.4022C126.399 46.32 126.388 46.226 126.394 46.1262V46.1203Z" fill="#021E62"/>
<path d="M126.517 45.627C126.4 45.6152 126.341 45.4626 126.2 45.5037C126.283 45.398 126.394 45.3275 126.517 45.2688C126.553 45.3862 126.682 45.4802 126.641 45.627C126.6 45.627 126.559 45.627 126.517 45.627Z" fill="#062358"/>
<path d="M149.898 51.1396C149.745 51.1748 149.593 51.1748 149.464 51.0691C149.558 50.9576 149.698 50.9282 149.828 50.8812C149.904 50.9517 149.933 51.0398 149.898 51.1396Z" fill="#011E5F"/>
<path d="M42.3201 47.3612C42.4846 47.2731 42.649 47.185 42.8134 47.0969C42.6724 47.3318 42.4845 47.4962 42.1968 47.5256C42.191 47.4375 42.2732 47.4081 42.3201 47.3612Z" fill="#F5FAF8"/>
<path d="M150.327 59.2131C150.339 59.0252 150.239 58.9665 150.069 58.9724C150.081 58.8139 150.187 58.7728 150.322 58.7786C150.416 58.855 150.498 58.9607 150.633 58.9724C150.65 58.9724 150.662 58.9724 150.68 58.9724C150.586 59.0898 150.474 59.1779 150.327 59.2073V59.2131Z" fill="#0E2558"/>
<path d="M41.8256 48.0775C41.7199 48.0246 41.7786 47.8837 41.6906 47.825C41.8021 47.7252 41.9019 47.596 42.0722 47.5901C42.0722 47.6312 42.0722 47.6665 42.0722 47.7076C42.0076 47.8426 41.9959 48.0188 41.8197 48.0834L41.8256 48.0775Z" fill="#092263"/>
<path d="M73.2582 46.4849C73.4461 46.4438 73.5107 46.1737 73.7515 46.2383C73.6282 46.3733 73.5049 46.5142 73.3757 46.6493C73.3346 46.5906 73.2935 46.5377 73.2582 46.479V46.4849Z" fill="#0C2459"/>
<path d="M160.944 44.1703C160.944 44.2466 160.944 44.3229 160.938 44.4051C160.814 44.2936 160.697 44.1703 160.626 44.4462C160.603 44.5402 160.521 44.5226 160.456 44.5285C160.562 44.3288 160.615 44.0587 160.944 44.1703Z" fill="#10234E"/>
<path d="M131.236 44.7158C131.482 44.7099 131.723 44.6042 131.976 44.6923C131.923 44.7334 131.858 44.7745 131.794 44.8215C131.606 44.7863 131.418 44.751 131.236 44.7158Z" fill="#021E62"/>
<path d="M62.8188 45.9979C62.9656 45.8511 63.1183 45.7219 63.312 45.6397C63.2357 45.8863 63.1183 46.0625 62.8188 45.9979Z" fill="#F5F9F8"/>
<path d="M154.858 58.175C154.858 58.175 154.875 58.1222 154.881 58.0987C154.916 58.3101 154.952 58.5214 154.987 58.7328C154.869 58.6858 154.875 58.5273 154.752 58.4921C154.64 58.3394 154.705 58.2455 154.858 58.1809V58.175Z" fill="#0B2255"/>
<path d="M50.9119 59.2718C50.9706 59.0251 51.1057 58.8607 51.3816 58.8549C51.2583 59.031 51.088 59.1602 50.9119 59.2718Z" fill="#06215D"/>
<path d="M141.989 49.1298C142.024 49.0829 142.065 49.0359 142.1 48.9889C142.153 49.1709 142.042 49.3295 142.018 49.5056C142.001 49.6583 141.901 49.5174 141.842 49.535C141.854 49.4821 141.86 49.4352 141.871 49.3823C141.871 49.3706 141.871 49.3588 141.866 49.3471C141.866 49.2649 141.901 49.2003 141.954 49.1475C141.965 49.1475 141.977 49.1357 141.989 49.1298Z" fill="#F5FAF8"/>
<path d="M133.087 45.2746C133.269 45.3098 133.427 45.3979 133.574 45.5094C133.298 45.668 133.204 45.4448 133.087 45.2746Z" fill="#F3F7F5"/>
<path d="M71.9517 47.4668C71.9165 47.4844 71.8813 47.5079 71.846 47.5255C71.5172 47.4316 71.7286 47.2554 71.7815 47.1027C71.8754 47.2084 71.9106 47.3376 71.9517 47.4668Z" fill="#021D64"/>
<path d="M144.747 60.6012C145.135 60.5484 145.522 60.5425 145.904 60.6012C145.516 60.6482 145.129 60.6306 144.747 60.6012Z" fill="#131E3A"/>
<path d="M130.999 60.6072C131.387 60.5368 131.774 60.5426 132.156 60.6072C131.768 60.6483 131.381 60.6424 130.999 60.6072Z" fill="#121F3F"/>
<path d="M154.16 60.5791C154.524 60.5791 154.882 60.5791 155.246 60.5791C154.882 60.6613 154.524 60.6613 154.16 60.5791Z" fill="#16233D"/>
<path d="M120.627 59.5959C120.721 59.3727 120.874 59.2318 121.126 59.226C120.985 59.3845 120.821 59.5078 120.627 59.5959Z" fill="#08225A"/>
<path d="M120.26 59.819C120.307 59.7074 120.418 59.5959 120.183 59.4961C120.395 59.4432 120.495 59.59 120.635 59.59C120.53 59.6957 120.395 59.7603 120.26 59.8131V59.819Z" fill="#08225A"/>
<path d="M136.83 45.7452C136.806 45.8215 136.883 45.9507 136.748 45.9683C136.695 45.9801 136.583 46.0035 136.56 45.9155C136.525 45.7628 136.695 45.7687 136.765 45.6923C136.789 45.71 136.806 45.7276 136.83 45.7393V45.7452Z" fill="#061D6B"/>
<path d="M120.386 47.4496C120.474 47.5142 120.533 47.6023 120.574 47.7021C120.527 47.7021 120.474 47.7021 120.427 47.7139C120.339 47.7197 120.269 47.6963 120.239 47.6082C120.181 47.4555 120.374 47.5377 120.386 47.4496Z" fill="#F5FAF9"/>
<path d="M135.339 56.0481C135.674 56.0187 135.656 56.283 135.721 56.4885C135.592 56.3417 135.468 56.1949 135.339 56.0481Z" fill="#0C2056"/>
<path d="M95.8413 45.5047C96.0292 45.5928 96.1995 45.7044 96.3287 45.8746C96.1701 45.7455 95.8531 45.8218 95.8413 45.5047Z" fill="#F6FBFA"/>
<path d="M142.478 48.2244C142.437 48.0717 142.52 47.9543 142.584 47.8251C142.655 47.6783 142.678 47.8544 142.725 47.8427C142.666 47.9836 142.584 48.1128 142.478 48.2244Z" fill="#072258"/>
<path d="M52.8767 56.9401C53.0059 57.0869 52.7651 57.1926 52.8356 57.3276C52.8062 57.3863 52.7593 57.4216 52.7005 57.4333C52.6477 57.4098 52.6125 57.3805 52.636 57.3159C52.7182 57.1867 52.8004 57.0634 52.8767 56.9342V56.9401Z" fill="#10255C"/>
<path d="M149.714 59.5854C149.709 59.4562 149.709 59.327 149.897 59.3446C149.973 59.2918 150.043 59.2683 150.079 59.3857C149.967 59.4738 149.85 59.5384 149.714 59.5854Z" fill="#092252"/>
<path d="M51.5298 58.7207C51.565 58.5328 51.6002 58.3391 51.8645 58.3743C51.7705 58.5035 51.6766 58.6385 51.5298 58.7207Z" fill="#06215D"/>
<path d="M95.3505 45.263C95.5384 45.2983 95.7028 45.3805 95.8437 45.5038C95.6323 45.5214 95.4444 45.4862 95.3505 45.263Z" fill="#F6FBFA"/>
<path d="M109.274 58.9729C109.274 58.9729 109.315 58.9729 109.333 58.9787C109.403 59.1079 109.585 59.1314 109.638 59.2782C109.532 59.1608 109.18 59.3252 109.274 58.9729Z" fill="#F0F6F8"/>
<path d="M119.398 60.1776C119.422 60.0954 119.24 60.0543 119.334 59.9839C119.457 59.8899 119.539 60.0543 119.645 60.0837C119.58 60.16 119.48 60.1483 119.398 60.1835V60.1776Z" fill="#0A2359"/>
<path d="M69.1945 44.7227C69.0066 44.6581 68.8246 44.5936 68.6367 44.529C68.8422 44.5407 69.083 44.4409 69.1945 44.7227Z" fill="#F5FAF8"/>
<path d="M159.472 46.1796C159.601 46.0621 159.76 46.1443 159.907 46.1209C159.789 46.344 159.631 46.2676 159.472 46.1796Z" fill="#0E2150"/>
<path d="M151.551 58.5968C151.551 58.6908 151.504 58.7319 151.422 58.726C151.369 58.726 151.322 58.7025 151.322 58.6438C151.322 58.5499 151.422 58.5675 151.469 58.5264C151.522 58.4794 151.54 58.5499 151.551 58.5968Z" fill="#FBFEEE"/>
<path d="M43.3104 46.6098C43.1694 46.5804 43.0226 46.6685 42.8817 46.6098C42.9287 46.5275 42.9815 46.4571 43.0637 46.416C43.1459 46.4806 43.2281 46.5452 43.3162 46.6098H43.3104Z" fill="#07215C"/>
<path d="M121.568 45.862C121.35 45.8796 121.25 45.7504 121.18 45.5743C121.333 45.6389 121.462 45.7387 121.568 45.862Z" fill="#112657"/>
<path d="M134.99 46.5382C135.113 46.6204 135.219 46.7261 135.301 46.8494C135.125 46.8201 134.937 46.8025 134.99 46.5382Z" fill="#F2FAFE"/>
<path d="M114.004 44.7225C114.228 44.564 114.474 44.6756 114.715 44.6579C114.486 44.7343 114.245 44.699 114.004 44.7225Z" fill="#0E2144"/>
<path d="M92.4551 45.2511C92.5902 45.1748 92.7311 45.1337 92.8837 45.1337C92.7898 45.3627 92.6078 45.257 92.4551 45.2511Z" fill="#F5FAF9"/>
<path d="M61.8497 47.2194C61.9026 47.0785 61.9789 46.9552 62.0846 46.8495C62.1492 47.0609 62.02 47.1548 61.8497 47.2194Z" fill="#F5F9F8"/>
<path d="M62.0788 46.8494C62.1258 46.7261 62.208 46.6263 62.302 46.5382C62.3372 46.5558 62.437 46.5382 62.3724 46.6087C62.2902 46.7026 62.2256 46.8318 62.0788 46.8494Z" fill="#F5F9F8"/>
<path d="M150.077 59.3849C150.024 59.3321 149.959 59.3439 149.895 59.3439C149.93 59.1853 149.953 59.1853 150.217 59.291C150.17 59.3204 150.118 59.3556 150.071 59.3849H150.077Z" fill="#092265"/>
<path d="M151.805 48.5014C151.882 48.7245 151.852 48.9535 151.846 49.1825C151.747 48.9593 151.805 48.7304 151.805 48.5014Z" fill="#E0E6EA"/>
<path d="M125.893 45.7919C125.893 45.8623 125.893 45.9269 125.898 45.9974C125.781 45.9974 125.734 46.1559 125.605 46.1207C125.675 45.9856 125.769 45.8799 125.893 45.7977V45.7919Z" fill="#0E204B"/>
<path d="M118.87 59.844C118.776 59.9203 118.664 59.9556 118.547 59.9673C118.535 59.6091 118.758 59.8734 118.87 59.844Z" fill="#F3F9F8"/>
<path d="M121.505 58.8628C121.576 58.7923 121.652 58.7277 121.722 58.6573C121.67 58.7982 121.675 58.9978 121.441 58.9802C121.37 58.8921 121.458 58.8921 121.505 58.8628Z" fill="#F0F7F6"/>
<path d="M118.548 59.9612C118.431 60.0316 118.308 60.0727 118.173 60.0727C118.255 59.8848 118.402 59.9259 118.548 59.9612Z" fill="#F3F9F8"/>
<path d="M92.1439 45.3629C92.2203 45.31 92.2966 45.263 92.3964 45.263C92.3788 45.3687 92.3025 45.4392 92.2144 45.4686C92.1557 45.4862 92.1557 45.4098 92.1439 45.3629Z" fill="#F5FAF9"/>
<path d="M142.012 49.6601C142.123 49.7658 142.123 49.8362 142.053 49.8949C142.041 49.9067 142 49.8949 141.977 49.8949C141.988 49.8303 142 49.7716 142.012 49.6659V49.6601Z" fill="#F5FAF8"/>
<path d="M150.81 45.7622C150.868 45.8033 150.933 45.8444 150.933 45.9325C150.868 45.956 150.798 46.0323 150.739 45.9619C150.669 45.8797 150.839 45.8444 150.81 45.7563V45.7622Z" fill="#F3F7F5"/>
<path d="M132.472 45.0214C132.577 45.039 132.683 45.0507 132.759 45.1388C132.565 45.3384 132.554 45.0977 132.472 45.0214Z" fill="#F3F7F5"/>
<path d="M109.761 59.3552C109.908 59.4022 110.032 59.4844 110.149 59.5783C109.99 59.5607 109.832 59.5255 109.761 59.3552Z" fill="#F0F6F8"/>
<path d="M52.6278 57.3224C52.6513 57.3635 52.6689 57.3987 52.6924 57.4399C52.6219 57.5044 52.5632 57.5808 52.4516 57.5632C52.5221 57.4927 52.528 57.3694 52.6278 57.3224Z" fill="#2E374B"/>
<path d="M62.8146 46.2028C62.8146 46.3261 62.8557 46.4142 62.7559 46.4612C62.7383 46.467 62.6913 46.4435 62.6854 46.4259C62.6561 46.332 62.7383 46.2909 62.8146 46.2028Z" fill="#F5F9F8"/>
<path d="M60.9852 50.2452C61.0087 50.0573 60.9089 49.8518 61.0498 49.6757C61.0439 49.8694 61.0498 50.0573 60.9852 50.2452Z" fill="#0D2249"/>
<path d="M103.69 44.7749C103.69 44.7338 103.69 44.6927 103.69 44.6574C103.772 44.6574 103.854 44.6574 103.936 44.6574C103.913 44.8218 103.789 44.7631 103.69 44.7807V44.7749Z" fill="#0A1D4F"/>
<path d="M151.023 46.0578C151.117 46.0872 151.346 46.005 151.188 46.2516C151.135 46.187 151.082 46.1224 151.023 46.0578Z" fill="#122856"/>
<path d="M143.344 52.4856C143.292 52.468 143.233 52.468 143.25 52.4152C143.256 52.3917 143.309 52.3741 143.344 52.3682C143.38 52.3682 143.438 52.3741 143.421 52.4328C143.415 52.4621 143.362 52.4739 143.344 52.4856Z" fill="#F8FEED"/>
<path d="M91.8848 45.4995C91.9376 45.4349 92.0081 45.3997 92.0903 45.3938C92.0844 45.476 92.0609 45.5641 91.9905 45.5994C91.9141 45.6346 91.9552 45.4995 91.8848 45.4995Z" fill="#F5FAF9"/>
<path d="M89.2139 50.1936C89.2139 50.0409 89.2197 49.8882 89.2256 49.7356C89.2256 49.7356 89.2432 49.7297 89.2491 49.7297C89.2608 49.7297 89.2667 49.7414 89.2726 49.7473C89.2726 49.9 89.2843 50.0526 89.2139 50.1936Z" fill="#0F1F46"/>
<path d="M128.939 60.4494C129.109 60.4729 129.297 60.3731 129.461 60.5081C129.285 60.5023 129.109 60.5316 128.939 60.4494Z" fill="#102044"/>
<path d="M120.578 47.7025C120.66 47.7671 120.707 47.8611 120.748 47.955C120.607 47.9257 120.478 47.8904 120.578 47.7025Z" fill="#F5FAF9"/>
<path d="M121.503 58.862C121.48 58.9031 121.462 58.9384 121.439 58.9795C121.374 59.0264 121.309 59.0734 121.245 59.1204C121.262 58.9677 121.351 58.8796 121.503 58.862Z" fill="#0F2458"/>
<path d="M94.9743 45.145C95.1093 45.145 95.2326 45.1861 95.3442 45.2624C95.2033 45.2742 95.0741 45.2624 94.9743 45.145Z" fill="#F6FBFA"/>
<path d="M129.467 44.7174C129.602 44.6059 129.743 44.6411 129.89 44.6881C129.749 44.6998 129.608 44.7057 129.467 44.7174Z" fill="#131E41"/>
<path d="M97.4807 48.0836C97.6216 48.2069 97.5277 48.3654 97.5512 48.5122C97.4807 48.3771 97.4925 48.2304 97.4807 48.0836Z" fill="#112542"/>
<path d="M143.511 60.4491C143.652 60.4726 143.817 60.3845 143.94 60.5137C143.793 60.5137 143.646 60.5313 143.511 60.4491Z" fill="#0F1C4C"/>
<path d="M70.0601 45.1513C69.9955 45.1161 69.9368 45.0809 69.8722 45.0398C70.0366 44.981 70.0718 45.0045 70.0601 45.1513Z" fill="#F5FAF8"/>
<path d="M133.194 44.5104C133.053 44.5163 132.906 44.5809 132.783 44.4576C132.924 44.4576 133.065 44.44 133.194 44.5104Z" fill="#0F1F44"/>
<path d="M109.755 56.0348C109.684 56.0348 109.608 56.0466 109.567 55.9761C109.531 55.9057 109.637 55.8939 109.649 55.8411C109.708 55.8939 109.743 55.9585 109.749 56.0348H109.755Z" fill="#0C205E"/>
<path d="M117.865 60.137C117.771 60.184 117.666 60.2074 117.56 60.1957C117.642 60.0665 117.748 60.0841 117.865 60.137Z" fill="#F3F9F8"/>
<path d="M39.065 54.46C39.065 54.46 39.1061 54.366 39.112 54.3954C39.1413 54.507 39.1531 54.6303 39.0944 54.7477C39.0826 54.6538 39.0709 54.5539 39.065 54.46Z" fill="#0E1B48"/>
<path d="M126.141 45.5573C126.164 45.7159 126.094 45.7687 125.941 45.7452C125.988 45.663 126.053 45.5984 126.141 45.5573Z" fill="#0A1A4D"/>
<path d="M157.034 59.3501C157.034 59.3501 156.975 59.3442 156.946 59.3383C156.946 59.2561 156.998 59.1445 157.069 59.1739C157.157 59.2091 157.081 59.2913 157.034 59.3501Z" fill="#333D58"/>
<path d="M157.935 44.5223C157.935 44.4049 157.935 44.2816 157.935 44.1641C158.035 44.2816 158.035 44.4049 157.935 44.5223Z" fill="#141C3A"/>
<path d="M109.537 47.7139C109.584 47.8372 109.631 47.9605 109.502 48.072C109.514 47.9546 109.526 47.8313 109.537 47.7139Z" fill="#0D1F37"/>
<path d="M111.311 46.8215C111.322 46.7099 111.246 46.5807 111.375 46.4985C111.363 46.6101 111.369 46.7216 111.311 46.8215Z" fill="#14233A"/>
<path d="M43.3081 46.1857C43.2964 46.3031 43.2318 46.3618 43.1085 46.356C43.1613 46.2796 43.2083 46.2033 43.3081 46.1857Z" fill="#07215C"/>
<path d="M49.5047 44.2402C49.399 44.2931 49.2933 44.3166 49.2052 44.2168C49.305 44.2226 49.4048 44.2344 49.5047 44.2402Z" fill="#0C1947"/>
<path d="M128.174 60.3611C128.279 60.3141 128.385 60.2789 128.473 60.3904C128.373 60.3787 128.273 60.3669 128.174 60.3611Z" fill="#121F3C"/>
<path d="M150.697 45.6511C150.762 45.6628 150.791 45.7039 150.815 45.7626C150.768 45.7803 150.726 45.8155 150.679 45.7626C150.65 45.7215 150.679 45.6863 150.697 45.657V45.6511Z" fill="#F3F7F5"/>
<path d="M121.99 58.2439L122.095 58.056C122.16 58.1734 122.113 58.2322 121.99 58.2439Z" fill="#F0F7F6"/>
<path d="M69.2645 48.4489C69.3584 48.5428 69.335 48.6426 69.2821 48.7483C69.2762 48.6485 69.2704 48.5487 69.2645 48.4489Z" fill="#111C3C"/>
<path d="M47.4412 60.7605C47.4999 60.6255 47.5821 60.6959 47.6644 60.737C47.588 60.7429 47.5176 60.7546 47.4412 60.7605Z" fill="#0E203C"/>
<path d="M48.4627 46.4985C49.2091 46.6807 49.8849 47.0098 50.4961 47.4623C50.3198 47.4799 50.1552 47.474 50.0553 47.2919C50.0024 47.192 49.8966 47.2272 49.8144 47.2213C49.6851 47.0685 49.5146 46.998 49.3207 46.9745C49.1797 46.7923 48.9211 46.7336 48.7624 46.7571C48.4921 46.7923 48.5097 46.6395 48.4627 46.4985Z" fill="#F8FBFA"/>
<path d="M44.1731 57.5514C43.8087 57.24 43.3973 56.9814 43.1035 56.5935C43.3856 56.57 43.5207 56.7875 43.697 56.952C43.8733 57.1107 43.9732 57.3751 44.2788 57.4045C44.4316 57.4163 44.4904 57.6043 44.5374 57.7513C44.3787 57.7513 44.2553 57.6925 44.1731 57.5573V57.5514Z" fill="#F6FAF8"/>
<path d="M42.7498 56.2221C42.5796 56.0577 42.4386 55.8756 42.3212 55.6701C42.6383 55.6525 42.8086 55.8404 42.7381 56.134C42.7322 56.1634 42.744 56.1927 42.7498 56.2221Z" fill="#F7FAF8"/>
<path d="M41.8282 48.0783C41.9339 47.9668 41.9456 47.7965 42.0806 47.7025C42.157 48.0313 42.0806 48.2838 41.7225 48.3837C41.7049 48.2604 41.8223 48.1899 41.834 48.0724L41.8282 48.0783Z" fill="#F5FAF8"/>
<path d="M51.2837 58.2507C51.2485 58.3505 51.3483 58.4092 51.3718 58.4914C51.3953 58.5736 51.3424 58.6323 51.2837 58.6617C51.1898 58.7087 51.1956 58.6088 51.1898 58.5736C51.178 58.4562 51.0958 58.5031 51.0312 58.4855C50.9255 58.4562 50.8199 58.5619 50.72 58.4679C50.9079 58.3974 51.0958 58.327 51.2779 58.2507H51.2837Z" fill="#06215D"/>
<path d="M45.0927 58.0916C44.9341 58.2208 44.6993 58.0975 44.6582 57.8626C44.805 57.9389 44.9459 58.0153 45.0927 58.0916Z" fill="#08225C"/>
<path d="M53.121 56.3414C53.0564 56.5058 52.9918 56.6643 52.9272 56.8287C52.8626 56.6115 52.7922 56.4001 53.121 56.3414Z" fill="#F4F9F7"/>
<path d="M47.8968 46.3088C48.0025 46.1033 48.1611 46.0739 48.3607 46.1502C48.3431 46.344 48.0554 46.115 48.0906 46.3557C48.0201 46.3675 47.9497 46.3557 47.8968 46.3088Z" fill="#072063"/>
<path d="M44.1726 57.5514C44.2959 57.616 44.4133 57.6806 44.5367 57.7452C44.5778 57.7863 44.6247 57.8215 44.6658 57.8626C44.4486 57.8391 44.2196 57.8391 44.1726 57.5455V57.5514Z" fill="#08225C"/>
<path d="M49.8141 47.2192C49.8259 47.3366 49.7906 47.3895 49.6614 47.3425C49.6086 47.319 49.5205 47.3073 49.5499 47.2368C49.6145 47.09 49.726 47.2368 49.8082 47.2192H49.8141Z" fill="#F8FBFA"/>
<path d="M47.9725 58.8502C47.7317 58.8149 47.4734 58.9382 47.2444 58.7738C47.491 58.7914 47.7376 58.7797 47.9725 58.8502Z" fill="#0E1F49"/>
<path d="M41.6038 48.5729C41.5334 48.5376 41.4512 48.5024 41.4981 48.4026C41.5451 48.3028 41.6214 48.338 41.6978 48.3791C41.6684 48.4437 41.6391 48.5083 41.6038 48.5729Z" fill="#092263"/>
<path d="M42.3268 55.6649C42.227 55.5592 42.1448 55.4418 42.0919 55.3009C42.2564 55.3713 42.3973 55.4477 42.3268 55.6649Z" fill="#F7FAF8"/>
<path d="M46.624 46.1622C46.8295 46.1211 47.035 46.0506 47.2229 46.1974C47.0233 46.1857 46.8237 46.1739 46.624 46.1622Z" fill="#131C3B"/>
<path d="M53.511 51.8679C53.5697 52.0029 53.5991 52.1497 53.6049 52.3024C53.4464 52.185 53.4758 52.0264 53.511 51.8679Z" fill="#F1F8F8"/>
<path d="M53.2499 51.0105C53.3263 51.122 53.3674 51.2453 53.3732 51.3804C53.1384 51.3217 53.2852 51.1338 53.2499 51.0105Z" fill="#F1F8F8"/>
<path d="M49.3128 46.9916C49.3011 47.068 49.2659 47.0915 49.2071 47.0973C49.1543 47.0973 49.0956 47.0973 49.0956 47.0327C49.0956 46.9799 49.1367 46.9447 49.1954 46.9623C49.2365 46.974 49.2717 46.9858 49.307 46.9975L49.3128 46.9916Z" fill="#F8FBFA"/>
<path d="M42.9308 56.4224C42.8604 56.3696 42.7899 56.3109 42.7547 56.2228C42.9484 56.17 43.0306 56.2228 42.9308 56.4224Z" fill="#F7FAF8"/>
<path d="M53.3762 51.3744C53.4525 51.486 53.4701 51.6151 53.4877 51.7502C53.2763 51.6738 53.4055 51.5036 53.3762 51.3744Z" fill="#F1F8F8"/>
<path d="M53.133 50.6934C53.2035 50.7874 53.2446 50.8931 53.2563 51.0105C53.1154 50.9459 53.0625 50.8461 53.133 50.6934Z" fill="#F1F8F8"/>
<path d="M47.5957 46.2499C47.6074 46.2088 47.5957 46.1383 47.6661 46.15C47.7366 46.1618 47.7483 46.244 47.7836 46.2968C47.7131 46.3086 47.6485 46.2968 47.5957 46.2499Z" fill="#072063"/>
<path d="M45.399 58.2387C45.2992 58.227 45.17 58.2857 45.1465 58.1213C45.2405 58.1389 45.3285 58.1682 45.399 58.2387Z" fill="#08225C"/>
<path d="M51.034 47.8373C51.0692 47.8138 51.1279 47.761 51.1397 47.7668C51.1984 47.8138 51.2101 47.8725 51.1631 47.943C51.122 47.9078 51.0809 47.8725 51.034 47.8373Z" fill="#0F285B"/>
<path d="M41.0316 52.3562C40.9317 52.2623 40.9552 52.1625 41.014 52.0568C41.014 52.1566 41.0257 52.2564 41.0316 52.3562Z" fill="#0E1D3D"/>
<path d="M53.0039 50.4049C53.0743 50.4753 53.0978 50.5634 53.1154 50.6515C52.9569 50.6221 53.0097 50.4988 53.0039 50.4049Z" fill="#F1F8F8"/>
<path d="M52.9841 56.1886C52.9841 56.236 52.9722 56.2657 52.9366 56.2538C52.9189 56.2479 52.9011 56.2123 52.8951 56.1886C52.8951 56.1767 52.9129 56.1589 52.9248 56.1411C52.9485 56.1589 52.9722 56.1767 52.99 56.1886H52.9841Z" fill="#F4F9F7"/>
<path d="M58.6495 60.2014C58.485 60.1838 58.5379 60.0545 58.5261 59.9546V59.7724C58.4438 59.6725 58.4615 59.5667 58.5261 59.4668V59.2846C58.4438 59.1847 58.4615 59.0789 58.5261 58.979V58.7969C58.4438 58.6969 58.4615 58.5912 58.5261 58.4913V58.3091C58.4438 58.2092 58.4615 58.1034 58.5261 58.0035V57.8213C58.4438 57.7214 58.4615 57.6156 58.5261 57.5157V57.3335C58.4438 57.2336 58.4615 57.1279 58.5261 57.028V56.8458C58.4438 56.7459 58.4615 56.6401 58.5261 56.5402V56.358C58.4438 56.2581 58.4615 56.1523 58.5261 56.0524V55.8702C58.4438 55.7703 58.4615 55.6645 58.5261 55.5646V55.3825C58.4438 55.2826 58.4615 55.1768 58.5261 55.0769V54.8947C58.4438 54.7948 58.4615 54.689 58.5261 54.5891V54.4069C58.4438 54.307 58.4615 54.2012 58.5261 54.1013V53.9192C58.4438 53.8193 58.4615 53.7135 58.5261 53.6136V53.4314C58.4438 53.3315 58.4615 53.2257 58.5261 53.1258V52.9436C58.4438 52.8437 58.4615 52.7379 58.5261 52.638V52.4559C58.4438 52.3559 58.4615 52.2502 58.5261 52.1503V51.9681C58.4438 51.8682 58.4615 51.7624 58.5261 51.6625V51.4803C58.4438 51.3804 58.4615 51.2746 58.5261 51.1747V50.9925C58.4438 50.8926 58.4615 50.7869 58.5261 50.687V50.5048C58.4438 50.4049 58.4615 50.2991 58.5261 50.1992V50.017C58.4438 49.9171 58.4615 49.8113 58.5261 49.7114V49.5292C58.4438 49.4293 58.4615 49.3235 58.5261 49.2236V49.0415C58.4438 48.9416 58.4615 48.8358 58.5261 48.7359V48.5537C58.4438 48.4538 58.4615 48.348 58.5261 48.2481V48.0659C58.4438 47.966 58.4615 47.8602 58.5261 47.7603V47.5782C58.4438 47.4783 58.4615 47.3725 58.5261 47.2726V47.0904C58.4438 46.9905 58.4615 46.8847 58.5261 46.7848V46.6026C58.4438 46.5027 58.4615 46.3969 58.5261 46.297V46.1148C58.4438 46.0149 58.4615 45.9092 58.5261 45.8093V45.6858C58.4497 45.439 58.4732 45.4096 58.7318 45.4038C58.7436 45.4155 58.7612 45.4273 58.7729 45.439C58.6495 45.6036 58.6495 45.7916 58.6495 45.9856C58.6495 50.7398 58.6495 55.5 58.6495 60.2543V60.2014Z" fill="#031B65"/>
<path d="M71.7796 49.4249C71.7796 53.0156 71.7796 56.6063 71.7796 60.197C71.7385 60.2322 71.6973 60.2322 71.6562 60.197V49.4249C71.6973 49.3897 71.7385 49.3897 71.7796 49.4249Z" fill="#031B65"/>
<path d="M71.7795 49.4233C71.7383 49.4233 71.6972 49.4233 71.6561 49.4233C71.6267 49.2235 71.7383 49.0413 71.8147 48.8885C71.944 48.6241 71.8735 48.3773 71.9029 48.1187C71.9088 48.0482 71.8852 48.0012 71.8089 47.9483C71.5973 47.8131 71.6149 47.6721 71.8441 47.5193C71.8735 47.6956 71.8735 47.8719 72.0851 47.9718C72.2202 48.0364 72.185 48.2362 72.138 48.3302C72.0557 48.4889 72.0792 48.6711 72.0145 48.8121C71.944 48.9826 71.9088 49.153 71.897 49.3293C71.897 49.3881 71.8382 49.4057 71.7853 49.4116L71.7795 49.4233Z" fill="#021D64"/>
<path d="M58.7692 45.263H60.6909C60.6909 45.3042 60.6909 45.3453 60.6909 45.3865H58.7692C58.7339 45.3453 58.7339 45.3042 58.7692 45.263Z" fill="#031B65"/>
<path d="M58.7696 45.2626C58.7696 45.3037 58.7696 45.3448 58.7696 45.3859C58.5817 45.3565 58.4995 45.4388 58.523 45.6325C58.294 45.5092 58.382 45.3154 58.4642 45.1804C58.5053 45.1099 58.7109 45.0688 58.7696 45.2685V45.2626Z" fill="#021F5F"/>
<path d="M58.5232 51.6276V51.9329C58.2942 51.8331 58.3941 51.7274 58.5232 51.6276Z" fill="#021F5F"/>
<path d="M58.5232 52.1208V52.4261C58.2942 52.3263 58.3941 52.2206 58.5232 52.1208Z" fill="#021F5F"/>
<path d="M58.5232 45.7507V46.0561C58.2942 45.9563 58.3941 45.8506 58.5232 45.7507Z" fill="#021F5F"/>
<path d="M58.5232 48.6892V48.9945C58.2942 48.8947 58.3941 48.789 58.5232 48.6892Z" fill="#021F5F"/>
<path d="M58.5232 52.6083V52.9136C58.2942 52.8138 58.3941 52.7081 58.5232 52.6083Z" fill="#021F5F"/>
<path d="M58.5232 58.9729V59.2782C58.2942 59.1784 58.3941 59.0727 58.5232 58.9729Z" fill="#021F5F"/>
<path d="M58.5232 53.0976V53.4029C58.2942 53.3031 58.3941 53.1974 58.5232 53.0976Z" fill="#021F5F"/>
<path d="M58.5232 46.7315V47.0368C58.2942 46.937 58.3941 46.8313 58.5232 46.7315Z" fill="#021F5F"/>
<path d="M58.5232 49.1823V49.4877C58.2942 49.3879 58.3941 49.2822 58.5232 49.1823Z" fill="#021F5F"/>
<path d="M58.5232 53.5907V53.8961C58.2942 53.7963 58.3941 53.6906 58.5232 53.5907Z" fill="#021F5F"/>
<path d="M58.5232 54.0783V54.3836C58.2942 54.2838 58.3941 54.1781 58.5232 54.0783Z" fill="#021F5F"/>
<path d="M58.5232 51.1399V51.4452C58.2942 51.3454 58.3941 51.2397 58.5232 51.1399Z" fill="#021F5F"/>
<path d="M58.5232 54.566V54.8714C58.2942 54.7715 58.3941 54.6658 58.5232 54.566Z" fill="#021F5F"/>
<path d="M58.5232 55.0592V55.3645C58.2942 55.2647 58.3941 55.159 58.5232 55.0592Z" fill="#021F5F"/>
<path d="M58.5232 59.4675V59.7728C58.2942 59.673 58.3941 59.5673 58.5232 59.4675Z" fill="#021F5F"/>
<path d="M58.5232 55.5481V55.8535C58.2942 55.7536 58.3941 55.6479 58.5232 55.5481Z" fill="#021F5F"/>
<path d="M58.5232 56.0359V56.3412C58.2942 56.2414 58.3941 56.1357 58.5232 56.0359Z" fill="#021F5F"/>
<path d="M58.5232 58.4867V58.7921C58.2942 58.6923 58.3941 58.5866 58.5232 58.4867Z" fill="#021F5F"/>
<path d="M58.5232 50.6523V50.9577C58.2942 50.8578 58.3941 50.7521 58.5232 50.6523Z" fill="#021F5F"/>
<path d="M58.5232 56.5292V56.8345C58.2942 56.7347 58.3941 56.629 58.5232 56.5292Z" fill="#021F5F"/>
<path d="M58.5232 46.2455V46.5508C58.2942 46.451 58.3941 46.3453 58.5232 46.2455Z" fill="#021F5F"/>
<path d="M58.5232 57.0167V57.3221C58.2942 57.2223 58.3941 57.1166 58.5232 57.0167Z" fill="#021F5F"/>
<path d="M58.5232 47.2192V47.5245C58.2942 47.4247 58.3941 47.319 58.5232 47.2192Z" fill="#021F5F"/>
<path d="M58.5232 57.5043V57.8096C58.2942 57.7098 58.3941 57.6041 58.5232 57.5043Z" fill="#021F5F"/>
<path d="M58.5232 48.2015V48.5068C58.2942 48.407 58.3941 48.3013 58.5232 48.2015Z" fill="#021F5F"/>
<path d="M58.5232 49.6701V49.9754C58.2942 49.8756 58.3941 49.7699 58.5232 49.6701Z" fill="#021F5F"/>
<path d="M58.5232 50.1588V50.4642C58.2942 50.3644 58.3941 50.2587 58.5232 50.1588Z" fill="#021F5F"/>
<path d="M58.5232 57.9976V58.303C58.2942 58.2031 58.3941 58.0974 58.5232 57.9976Z" fill="#021F5F"/>
<path d="M58.5232 47.7139V48.0192C58.2942 47.9194 58.3941 47.8137 58.5232 47.7139Z" fill="#021F5F"/>
<path d="M60.9411 47.8673C60.9411 47.8673 60.9646 47.9319 60.9646 47.9671C60.9646 48.0023 60.9587 48.061 60.9 48.0434C60.8765 48.0376 60.8589 47.9847 60.853 47.9495C60.853 47.9143 60.853 47.8673 60.9352 47.8731L60.9411 47.8673Z" fill="#082071"/>
<path d="M117.064 44.7753C117.176 44.787 117.299 44.7459 117.469 44.8634C117.27 44.9045 117.146 44.9338 117.064 44.7753Z" fill="#011D6A"/>
<path d="M114.098 60.5134C113.91 60.5075 113.722 60.5369 113.546 60.4488C113.746 60.4488 113.945 60.4194 114.139 60.4488C114.221 60.4605 114.116 60.484 114.098 60.5075V60.5134Z" fill="#0C1F4B"/>
<path d="M117.067 44.7748C116.961 44.7572 116.844 44.8159 116.703 44.6574C116.873 44.6691 117.002 44.5693 117.067 44.7748Z" fill="#011D6A"/>
<path d="M113.662 53.215C113.62 53.2032 113.596 53.1854 113.62 53.1558C113.632 53.138 113.668 53.1202 113.691 53.1202C113.703 53.1202 113.715 53.1558 113.727 53.1795C113.703 53.1913 113.679 53.2032 113.662 53.215Z" fill="#09225B"/>
<path d="M150.319 58.7731C150.225 58.8201 150.131 58.8788 150.073 58.967C149.497 59.3137 148.903 59.6076 148.239 59.7368C147.328 59.9073 146.417 59.966 145.512 59.7133C144.813 59.5194 144.266 59.1022 143.814 58.5439C143.749 58.5027 143.732 58.4322 143.696 58.3735C143.103 56.9865 143.032 55.6055 143.908 54.3126C144.437 53.531 145.259 53.1373 146.135 52.8434C146.259 52.7964 146.417 52.8434 146.511 52.7141C146.617 52.6848 146.752 52.7259 146.829 52.6084C146.84 52.5907 146.858 52.5907 146.876 52.5966C147.064 52.5437 147.281 52.5614 147.428 52.4027C147.716 52.3028 147.998 52.2087 148.286 52.1088C148.492 52.0736 148.727 52.1147 148.85 51.8796C148.868 51.862 148.885 51.862 148.909 51.862C149.015 51.8033 149.073 51.8503 149.115 51.9502C149.109 51.9678 149.097 51.9854 149.085 51.9972C149.068 52.0207 149.026 52.0442 149.062 52.0853C149.073 52.0501 149.068 52.0148 149.097 51.9913C149.162 51.8797 149.191 51.721 149.344 51.7151C149.591 51.7033 149.726 51.5505 149.861 51.386C149.884 51.3507 149.926 51.339 149.961 51.3214C149.984 51.3214 150.002 51.3214 150.014 51.3037C150.043 51.2156 150.149 51.2508 150.196 51.1979C150.378 51.0922 150.56 50.9923 150.742 50.8865C150.842 50.8336 150.954 50.816 151.066 50.8101C151.301 50.7983 151.506 50.7337 151.612 50.4927C151.636 50.434 151.677 50.3811 151.747 50.387C151.836 50.3987 151.847 50.4751 151.859 50.5456C151.865 50.6161 151.859 50.6867 151.859 50.7572C151.859 52.1088 151.859 53.4664 151.859 54.818C151.859 55.2705 151.789 55.7348 151.689 56.1638C151.606 56.5105 151.518 56.8631 151.442 57.2157C151.277 57.7388 150.919 58.1325 150.572 58.538C150.525 58.6555 150.466 58.7554 150.319 58.7672V58.7731Z" fill="#FEFEFE"/>
<path d="M154.16 58.1978V49.4709C154.16 49.4709 154.201 49.4709 154.219 49.4709V58.1978C154.219 58.1978 154.178 58.1978 154.16 58.1978Z" fill="#031B66"/>
<path d="M151.441 57.2215C151.441 57.0217 151.441 56.816 151.43 56.6162C151.43 56.4752 151.43 56.3518 151.588 56.293C151.665 56.2636 151.682 56.1872 151.676 56.1167C151.635 55.7641 151.735 55.4233 151.765 55.0765C151.853 53.9188 151.788 52.7552 151.8 51.5916C151.8 51.2096 151.8 50.8276 151.765 50.4339C151.6 51.0275 151.147 50.904 150.742 50.8923C150.766 50.857 150.795 50.8218 150.818 50.7924C150.836 50.6984 150.918 50.6807 150.989 50.6513C151.33 50.428 151.553 50.0754 151.853 49.8051C151.911 49.9638 151.894 50.1224 151.864 50.287C151.864 50.3281 151.864 50.3693 151.864 50.4104C151.906 50.7336 151.882 51.0568 151.882 51.3801C151.882 52.5789 151.882 53.7719 151.882 54.9708C151.882 55.0824 151.906 55.1941 151.859 55.2998C151.8 55.958 151.753 56.6221 151.43 57.2215H151.441Z" fill="#F9FBF9"/>
<path d="M151.87 55.3002C151.87 53.6665 151.87 52.0386 151.87 50.4049C151.947 50.4813 151.923 50.5753 151.923 50.6635C151.923 52.1209 151.923 53.5783 151.923 55.0358C151.923 55.1239 151.953 55.2238 151.87 55.2943V55.3002Z" fill="#0D1D3D"/>
<path d="M154.854 58.1752C154.772 58.2633 154.731 58.3631 154.748 58.4864C154.713 58.6097 154.837 58.8328 154.631 58.8328C154.402 58.8328 154.514 58.5921 154.514 58.4629C154.514 58.2574 154.572 58.0636 154.86 58.1752H154.854Z" fill="#001E62"/>
<path d="M144.744 45.2102C144.27 45.3002 143.937 45.3042 143.746 45.222C143.916 45.1104 143.922 45.1045 144.045 45.2748C144.104 45.3511 144.127 45.2807 144.151 45.2572C144.339 45.0517 144.538 45.1456 144.738 45.2161L144.744 45.2102Z" fill="#041B65"/>
<path d="M141.919 48.6308C142.018 48.7834 141.96 48.9655 141.989 49.1299C141.883 49.1827 141.895 49.2884 141.872 49.3824C141.684 49.2003 141.748 48.9596 141.737 48.7423C141.731 48.6249 141.866 48.6836 141.919 48.6308Z" fill="#041E68"/>
<path d="M150.316 58.774C150.398 58.6976 150.48 58.6213 150.568 58.545C150.662 58.6448 150.944 58.7329 150.586 58.8621C150.522 58.8855 150.633 58.9266 150.633 58.9678C150.486 58.9678 150.31 59.0147 150.322 58.774H150.316Z" fill="#051E65"/>
<path d="M150.995 50.6467C150.954 50.7171 150.895 50.7582 150.824 50.7876C150.871 50.6936 150.642 50.6408 150.777 50.5468C150.871 50.4823 150.93 50.5938 150.995 50.6467Z" fill="#0D2253"/>
<path d="M150.199 51.1987C150.14 51.2339 150.076 51.2691 150.017 51.3044C149.976 51.2515 149.935 51.1928 149.9 51.14C150.017 51.0754 150.099 51.1752 150.199 51.1987Z" fill="#011E5F"/>
<path d="M151.87 50.2822C151.87 50.1236 151.864 49.9592 151.858 49.8007C151.97 49.9592 151.946 50.1178 151.87 50.2822Z" fill="#0E1F40"/>
<path d="M90.6739 45.8686C90.7914 45.8862 90.8853 45.9391 90.9029 46.0682C90.9029 46.0917 90.8383 46.1505 90.8325 46.1446C90.7209 46.0917 90.7033 45.9802 90.6739 45.8686Z" fill="#001E5F"/>
<path d="M106.143 60.2022C106.102 60.2022 106.061 60.2022 106.02 60.2022C106.02 55.348 106.02 50.4938 106.02 45.6338C106.02 45.5339 105.997 45.4163 106.044 45.334C106.102 45.2341 106.126 45.334 106.143 45.3869C106.226 45.4927 106.202 45.622 106.202 45.7395C106.202 50.4409 106.202 55.1423 106.202 59.8496C106.202 59.9671 106.226 60.0964 106.143 60.2022Z" fill="#061B61"/>
<path d="M106.14 60.2021V45.3868C106.339 45.4339 106.257 45.5984 106.257 45.7159C106.257 47.6082 106.257 49.5064 106.257 51.3987V60.2021C106.216 60.2021 106.175 60.2021 106.134 60.2021H106.14Z" fill="#00205C"/>
<path d="M103.69 45.3862C103.69 45.3039 103.69 45.2217 103.69 45.1394C104.395 45.3862 105.135 45.1864 105.852 45.2863C105.852 45.3157 105.852 45.3509 105.852 45.3803H103.69V45.3862Z" fill="#041C66"/>
<path d="M55.2097 49.7937C55.2861 50.0229 55.0686 50.1874 55.0862 50.4049C55.0862 51.0454 55.0862 51.6801 55.0862 52.3266C54.9335 52.3207 54.9628 52.2267 54.9628 52.1679C54.9628 51.5391 54.9628 50.9044 54.9628 50.2756C54.9628 50.0817 55.0392 49.9112 55.2038 49.7996L55.2097 49.7937Z" fill="#031B66"/>
<path d="M55.4364 50.4234V52.3451C55.266 52.1042 55.2954 50.5586 55.4364 50.4234Z" fill="#051E5C"/>
<path d="M55.1573 49.6351C55.0575 49.6116 55.1045 49.5118 55.0634 49.4648C55.0047 49.4002 54.9342 49.3298 54.9988 49.2299C55.0047 49.2182 55.034 49.2064 55.0516 49.2123C55.1515 49.2475 55.175 49.3415 55.1984 49.4237C55.2161 49.4942 55.2454 49.5822 55.1573 49.6351Z" fill="#051E5C"/>
<path d="M149.101 51.9977C149.066 51.9155 149.001 51.8744 148.913 51.8744C149.142 51.7511 149.371 51.6336 149.6 51.5103C149.659 51.4868 149.717 51.4575 149.776 51.434C149.811 51.4105 149.835 51.34 149.899 51.3988C149.776 51.5162 149.852 51.8333 149.518 51.7452C149.324 51.6923 149.242 51.9155 149.101 51.9977Z" fill="#F6FAF9"/>
<path d="M148.854 51.8863C148.783 52.2562 148.537 52.1857 148.29 52.1153C148.478 52.0389 148.666 51.9626 148.854 51.8863Z" fill="#F6FAF9"/>
<path d="M147.439 52.4093C147.334 52.6911 147.087 52.5913 146.887 52.6031C147.064 52.5091 147.251 52.4563 147.439 52.4093Z" fill="#F2F8FA"/>
<path d="M145.133 60.026C145.321 59.9321 145.433 59.9438 145.586 59.9908C145.445 60.1082 145.327 60.0847 145.133 60.026Z" fill="#021B6C"/>
<path d="M146.836 52.6141C146.812 52.7609 146.771 52.7785 146.519 52.7198C146.613 52.6552 146.724 52.6258 146.836 52.6141Z" fill="#F2F8FA"/>
<path d="M146.516 52.7207C146.457 52.9615 146.269 52.8147 146.14 52.8499C146.257 52.7736 146.381 52.7384 146.516 52.7207Z" fill="#F2F8FA"/>
<path d="M143.695 58.3743C143.777 58.4037 143.794 58.4741 143.812 58.5446C143.706 58.5328 143.63 58.5035 143.695 58.3743Z" fill="#10275D"/>
<path d="M71.6562 60.201C71.6973 60.201 71.7384 60.201 71.7795 60.201C71.8793 60.201 71.985 60.201 72.0848 60.201C71.9439 60.295 71.7971 60.295 71.6562 60.201Z" fill="#041E56"/>
<path d="M160.672 45.2289C160.785 45.4638 160.789 45.6771 160.683 45.869C160.613 45.6634 160.63 45.4873 160.672 45.2289Z" fill="#011F63"/>
<path d="M160.708 46.2682C160.725 46.3856 160.86 46.462 160.819 46.5853C160.808 46.6264 160.714 46.6205 160.684 46.5853C160.602 46.4796 160.625 46.3739 160.708 46.2741V46.2682Z" fill="#011F63"/>
<path d="M158.551 46.7383C158.51 46.756 158.463 46.756 158.428 46.7266C158.44 46.662 158.457 46.6033 158.534 46.6209C158.61 46.6385 158.551 46.6972 158.551 46.7383Z" fill="#081D4F"/>
<path d="M126.464 45.751C126.564 45.751 126.64 45.7686 126.635 45.8802C126.629 45.9976 126.535 46.0035 126.458 45.9859C126.37 45.9683 126.535 45.8567 126.4 45.8039C126.335 45.7804 126.447 45.7686 126.464 45.7451V45.751Z" fill="#021E62"/>
<path d="M149.901 51.3985C149.86 51.4102 149.819 51.422 149.778 51.4337C149.789 51.3104 149.848 51.2634 149.965 51.328C149.942 51.3515 149.924 51.375 149.901 51.3985Z" fill="#011E5F"/>
<path d="M141.873 49.3824C141.926 49.3061 141.708 49.1005 141.99 49.1299C141.978 49.2297 141.937 49.3119 141.873 49.3824Z" fill="#0D2354"/>
<path d="M149.102 51.9988C149.102 51.9988 149.102 52.0223 149.102 52.0281C149.073 52.1045 149.173 52.216 149.032 52.2513C149.008 52.2513 148.955 52.2219 148.955 52.2102C148.967 52.1162 148.985 52.0223 149.102 51.9929V51.9988Z" fill="#F6FAF9"/>
<path d="M151.715 50.1229C151.756 50.117 151.768 50.1405 151.762 50.1698C151.756 50.2051 151.791 50.252 151.726 50.2638C151.715 50.2638 151.691 50.2403 151.685 50.2286C151.674 50.1933 151.674 50.1522 151.715 50.1287V50.1229Z" fill="#FEFEFE"/>
</svg>
