<svg width="200" height="100" viewBox="0 0 200 100" fill="none" xmlns="http://www.w3.org/2000/svg">
<path d="M104.061 55.6506V62.8153H100.068V42.5218H103.946V44.1524C104.029 44.1974 104.106 44.2487 104.19 44.2937C104.228 44.1845 104.241 44.0562 104.305 43.9663C106.45 41.0516 111.258 41.3854 113.37 44.3258C113.736 44.8394 114.076 45.3979 114.295 45.9886C115.245 48.5501 115.245 51.131 114.192 53.654C112.902 56.7484 109.814 58.2571 106.771 57.2171C105.801 56.8897 104.96 56.177 104.061 55.6442V55.6506ZM103.926 49.7378C104.113 50.5788 104.203 51.4263 104.491 52.1967C104.986 53.5063 106.039 54.1098 107.425 54.1291C108.799 54.1548 109.826 53.5513 110.353 52.2994C111.091 50.5403 111.059 48.7427 110.276 47.0029C109.717 45.7639 108.639 45.3016 107.323 45.3273C106.013 45.353 105.005 45.9115 104.543 47.1506C104.235 47.9659 104.132 48.8583 103.926 49.7442V49.7378Z" fill="black"/>
<path d="M30.9535 42.4962H34.8184V44.1526C34.8954 44.1975 34.9724 44.2424 35.0559 44.2874C35.0944 44.1782 35.1137 44.0563 35.1779 43.9664C37.3414 41.0517 42.0601 41.4305 44.1723 44.2168C45.7644 46.3161 46.0276 48.7172 45.7387 51.2338C45.5846 52.5884 45.1352 53.8467 44.352 54.9766C41.9188 58.4755 37.0332 58.1096 35.1843 55.593C35.1458 55.5416 35.0816 55.5095 34.9211 55.3875V62.8282H30.9535V42.4962ZM41.8611 49.7058C41.6364 48.8199 41.5015 47.8633 41.142 47.003C40.6284 45.7832 39.5563 45.3146 38.2659 45.321C36.9626 45.3274 35.9419 45.8539 35.4347 47.0801C34.7413 48.7621 34.6964 50.5019 35.3641 52.1968C35.8777 53.5 36.9241 54.1035 38.3108 54.1228C39.7168 54.142 40.7504 53.5129 41.2576 52.2225C41.5593 51.4585 41.6556 50.6046 41.8675 49.6994L41.8611 49.7058Z" fill="black"/>
<path d="M81.2962 57.5892C80.5322 57.4801 79.749 57.4287 79.0043 57.2554C76.2694 56.6198 74.5103 54.9442 73.7912 52.2286C73.3547 50.5658 73.3547 48.8902 73.7912 47.2274C74.5295 44.4219 76.3785 42.7463 79.1969 42.1428C80.7569 41.809 82.3298 41.8346 83.877 42.2455C86.4193 42.926 88.0885 44.5182 88.8076 47.0605C89.2955 48.7875 89.3019 50.5273 88.8461 52.2607C88.0115 55.445 85.5013 57.3324 81.9189 57.5122C81.7135 57.525 81.508 57.5122 81.3026 57.5122C81.3026 57.5379 81.3026 57.5636 81.2962 57.5892ZM84.9941 49.6991C84.8849 49.0507 84.8272 48.3637 84.6474 47.7089C84.2044 46.1103 83.0296 45.2501 81.3796 45.2308C79.6784 45.2115 78.4778 46.0526 77.9835 47.6511C77.5726 48.9865 77.5662 50.3475 77.9514 51.6893C78.4393 53.3777 79.6463 54.2637 81.3861 54.2444C83.0745 54.2252 84.243 53.32 84.6859 51.6187C84.8464 51.0088 84.8978 50.3668 85.0005 49.6991H84.9941Z" fill="black"/>
<path d="M132.065 49.8985C131.904 50.7908 131.821 51.7089 131.564 52.5756C130.691 55.5416 128.251 57.3199 124.816 57.4997C123.937 57.5446 123.032 57.4997 122.165 57.3328C118.64 56.6715 116.515 54.1549 116.329 50.4249C116.284 49.5454 116.329 48.6401 116.49 47.7735C117.119 44.3901 119.539 42.2523 123.083 41.9955C124.162 41.9184 125.285 41.9634 126.344 42.1817C129.997 42.9328 132.065 45.8218 132.065 49.8985ZM120.47 49.5967C120.521 50.1232 120.541 50.579 120.611 51.0284C120.669 51.3879 120.765 51.741 120.894 52.0813C121.446 53.5193 122.595 54.2705 124.194 54.2512C125.741 54.2319 126.864 53.4615 127.372 52.0171C127.84 50.6945 127.859 49.3335 127.532 47.9789C127.089 46.1492 125.882 45.2119 124.052 45.2376C122.3 45.2632 121.086 46.2583 120.682 48.0495C120.566 48.5824 120.528 49.1281 120.464 49.5967H120.47Z" fill="black"/>
<path d="M72.5918 49.757C72.4955 50.5017 72.457 51.2529 72.29 51.9847C71.5517 55.2974 69.0479 57.3005 65.3757 57.4931C64.4962 57.538 63.591 57.4931 62.7243 57.3262C59.2832 56.6777 57.171 54.2703 56.9142 50.6879C56.8436 49.68 56.8885 48.6271 57.0811 47.632C57.7231 44.3257 60.1563 42.2392 63.6423 41.9888C64.7016 41.9118 65.7994 41.9567 66.8395 42.1558C70.088 42.7849 72.1488 45.1731 72.4698 48.5115C72.5083 48.916 72.5147 49.3269 72.5404 49.7377C72.5532 49.7377 72.5725 49.7378 72.5853 49.7442L72.5918 49.757ZM68.4252 49.7634C68.2454 48.916 68.162 48.0878 67.8923 47.3303C67.3916 45.9371 66.3002 45.2759 64.8364 45.2374C63.2636 45.1924 62.0951 45.8601 61.5494 47.2083C60.8689 48.8839 60.8689 50.598 61.5558 52.2672C62.1336 53.6668 63.2892 54.2638 64.7722 54.2446C66.236 54.2253 67.3467 53.5897 67.8603 52.1966C68.1492 51.4198 68.2454 50.5724 68.4252 49.7634Z" fill="black"/>
<path d="M154.016 57.0174C152.783 57.0174 151.602 57.0174 150.414 57.0174C150.279 57.0174 150.151 56.9982 149.933 56.9725C149.933 56.7028 149.933 56.4589 149.933 56.2213C149.933 53.6983 149.933 51.1688 149.933 48.6458C149.933 48.4211 149.933 48.19 149.933 47.9653C149.881 46.2255 149.272 45.4486 147.885 45.3395C146.068 45.1918 144.745 46.0778 144.457 47.6507C144.392 48.0038 144.373 48.3761 144.373 48.7357C144.367 51.2138 144.373 53.6983 144.373 56.1764C144.373 56.4204 144.373 56.6707 144.373 56.9725H140.284V42.5019H144.264V44.0427C144.495 43.8757 144.617 43.8051 144.72 43.7088C146.768 41.847 149.13 41.6673 151.608 42.5596C153.162 43.1182 153.939 44.46 153.984 46.0264C154.074 49.6601 154.016 53.2938 154.016 57.0303V57.0174Z" fill="black"/>
<path d="M98.2093 37.2194V40.3459C97.7791 40.3459 97.3811 40.3331 96.9766 40.3459C95.8788 40.3845 95.6541 40.6156 95.6477 41.6877C95.6477 41.9124 95.6477 42.1371 95.6477 42.4324H98.19V45.193H95.7055V56.9801H91.6609V45.238H89.4717V42.4645H91.6352C91.6352 41.9766 91.6352 41.5593 91.6352 41.1356C91.648 38.7024 92.6752 37.4891 95.0827 37.2258C96.0907 37.1167 97.1179 37.2066 98.2093 37.2066V37.2194Z" fill="black"/>
<path d="M163.761 54.1928V57.101C162.15 57.1973 160.551 57.4285 158.978 56.8763C158.182 56.6003 157.681 56.0096 157.521 55.2007C157.38 54.4881 157.309 53.7562 157.303 53.0372C157.277 50.7132 157.29 48.3956 157.29 46.0715C157.29 45.8276 157.29 45.5772 157.29 45.2434H155.312V42.4635H157.283V38.5345H161.379V42.4442H163.742V45.2177H161.411C161.411 45.8083 161.411 46.3283 161.411 46.8483C161.411 48.8771 161.411 50.8993 161.411 52.9281C161.411 54.0259 161.553 54.1671 162.676 54.1992C163.016 54.212 163.357 54.1992 163.767 54.1992L163.761 54.1928Z" fill="black"/>
<path d="M56.3689 42.0983V46.0402C55.9066 46.0402 55.4636 46.0402 55.0207 46.0402C52.7159 46.0658 51.663 47.0994 51.6438 49.3849C51.6245 51.664 51.6438 53.9367 51.6438 56.2158C51.6438 56.4598 51.6438 56.7037 51.6438 56.9798H47.5221V42.5092H51.342V44.5379C52.0739 43.8702 52.7287 43.1512 53.5056 42.6119C54.3337 42.0341 55.3288 41.9699 56.3689 42.0983Z" fill="black"/>
<path d="M133.606 42.503H137.677V56.9736H133.606V42.503Z" fill="black"/>
<path d="M137.671 40.8078C137.491 40.8271 137.363 40.8464 137.228 40.8464C136.047 40.8464 134.865 40.8464 133.626 40.8464V37.3411H137.671V40.8014V40.8078Z" fill="black"/>
<path d="M169.046 55.8501C169.033 56.7489 168.321 57.423 167.403 57.4037C166.498 57.3781 165.804 56.6655 165.83 55.7731C165.856 54.9192 166.568 54.258 167.448 54.258C168.359 54.258 169.059 54.9513 169.046 55.8501ZM167.461 57.0571C168.128 57.0571 168.642 56.5114 168.635 55.818C168.629 55.1247 168.115 54.579 167.461 54.5725C166.774 54.5661 166.228 55.1375 166.247 55.8501C166.266 56.5371 166.786 57.0571 167.461 57.0571Z" fill="black"/>
<path d="M103.927 49.7379C104.133 48.8519 104.236 47.9596 104.544 47.1442C105.006 45.9052 106.014 45.3466 107.324 45.321C108.64 45.2953 109.718 45.7575 110.277 46.9966C111.06 48.7364 111.092 50.534 110.354 52.293C109.827 53.5449 108.794 54.1484 107.426 54.1227C106.04 54.097 104.987 53.5 104.492 52.1903C104.203 51.4199 104.114 50.5725 103.927 49.7315V49.7379Z" fill="white"/>
<path d="M41.8596 49.7054C41.6477 50.6107 41.5578 51.4645 41.2497 52.2285C40.7361 53.5189 39.7025 54.1481 38.3029 54.1288C36.9162 54.1095 35.8698 53.5061 35.3562 52.2028C34.6885 50.5015 34.7334 48.7681 35.4268 47.0861C35.934 45.8599 36.9547 45.3335 38.258 45.327C39.5484 45.3206 40.6269 45.7893 41.1341 47.0091C41.4936 47.8693 41.6285 48.8259 41.8532 49.7119L41.8596 49.7054Z" fill="white"/>
<path d="M84.9962 49.6988C84.887 50.3665 84.8421 51.0085 84.6816 51.6184C84.2386 53.3197 83.0702 54.2249 81.3817 54.2442C79.6419 54.2634 78.435 53.3839 77.9471 51.689C77.5619 50.3473 77.5683 48.9862 77.9792 47.6509C78.4735 46.0523 79.674 45.2177 81.3753 45.2306C83.0252 45.2434 84.2001 46.1101 84.6431 47.7087C84.8228 48.3635 84.8806 49.044 84.9898 49.6988H84.9962Z" fill="white"/>
<path d="M120.474 49.5971C120.538 49.122 120.57 48.5763 120.692 48.0499C121.09 46.2587 122.303 45.2636 124.062 45.2379C125.892 45.2123 127.099 46.1496 127.542 47.9793C127.869 49.3339 127.85 50.6949 127.381 52.0174C126.868 53.4619 125.751 54.2323 124.204 54.2516C122.605 54.2708 121.456 53.5261 120.904 52.0816C120.775 51.7414 120.679 51.3883 120.621 51.0288C120.551 50.5794 120.525 50.1235 120.48 49.5971H120.474Z" fill="white"/>
<path d="M68.4239 49.7645C68.2442 50.5799 68.1479 51.4273 67.859 52.1977C67.3454 53.5908 66.2283 54.2264 64.771 54.2457C63.2879 54.2649 62.1323 53.6679 61.5546 52.2683C60.8676 50.5991 60.8676 48.885 61.5481 47.2094C62.0938 45.8612 63.2623 45.1935 64.8352 45.2385C66.2989 45.277 67.3903 45.9382 67.8911 47.3314C68.1607 48.0889 68.2442 48.9171 68.4239 49.7645Z" fill="white"/>
<path d="M167.459 57.0573C166.785 57.0573 166.258 56.5436 166.246 55.8503C166.226 55.1377 166.772 54.5663 167.459 54.5727C168.12 54.5727 168.634 55.1248 168.634 55.8182C168.634 56.5115 168.127 57.0508 167.459 57.0573ZM166.907 56.6078C166.971 56.6078 167.042 56.6078 167.106 56.6078C167.17 56.4152 167.234 56.2227 167.331 55.9338C167.613 56.2227 167.819 56.4281 168.043 56.6592C168.075 56.197 168.146 55.8375 168.114 55.4908C168.101 55.3367 167.908 55.1184 167.761 55.0863C167.491 55.0221 167.189 55.0671 166.913 55.0671V56.6078H166.907Z" fill="white"/>
<path d="M166.907 56.6069V55.0662C167.189 55.0662 167.485 55.0212 167.754 55.0854C167.902 55.1239 168.094 55.3422 168.107 55.4899C168.139 55.8365 168.075 56.1896 168.037 56.6583C167.812 56.4336 167.607 56.2217 167.324 55.9328C167.228 56.2217 167.164 56.4143 167.099 56.6069C167.035 56.6069 166.965 56.6069 166.9 56.6069H166.907Z" fill="black"/>
</svg>
