<svg width="200" height="100" viewBox="0 0 200 100" fill="none" xmlns="http://www.w3.org/2000/svg">
<path d="M133.188 40.4869C138.273 40.4869 143.364 40.4548 148.449 40.4997C152.622 40.5318 156.005 43.6583 156.666 47.9918C157.096 50.7909 156.724 53.4424 155.1 55.8242C153.546 58.1033 151.357 59.3231 148.603 59.4964C147.665 59.5542 146.728 59.5028 145.72 59.5028C146.6 57.1916 147.46 54.9382 148.327 52.6848C149.296 50.1554 150.265 47.6323 151.241 45.1093C151.408 44.6791 151.492 44.4544 150.843 44.4608C147.601 44.4929 144.359 44.4801 141.117 44.4673C140.725 44.4673 140.513 44.5379 140.43 44.9809C140.199 46.1878 139.916 47.3819 139.634 48.6467H145.162C144.757 49.6353 144.391 50.547 144.025 51.4522C142.998 53.9817 141.971 56.5047 140.95 59.0406C140.822 59.3552 140.693 59.5413 140.282 59.5349C137.381 59.5092 134.472 59.5221 131.603 59.5221C136.758 53.5708 138.209 47.3241 133.182 40.4869H133.188Z" fill="#E95709"/>
<path d="M104.413 59.5222C104.862 57.5063 105.292 55.5482 105.729 53.5837C106.66 49.3979 107.61 45.212 108.521 41.0198C108.611 40.6089 108.753 40.4677 109.176 40.4741C110.435 40.4998 111.699 40.4998 112.958 40.4741C113.407 40.4613 113.497 40.5961 113.401 41.0134C112.046 47.0289 110.704 53.0508 109.369 59.0728C109.311 59.3296 109.285 59.5286 108.926 59.5222C107.443 59.5029 105.96 59.5157 104.419 59.5157L104.413 59.5222Z" fill="black"/>
<path d="M59.8534 41.3022C59.0253 40.8785 58.1393 40.6024 57.2148 40.5575C54.0434 40.4034 50.8655 40.5318 47.694 40.4804C47.2767 40.474 47.2831 40.7437 47.2318 40.9876C45.89 47.0096 44.5547 53.0379 43.2 59.0598C43.0973 59.5092 43.2514 59.5349 43.6109 59.5285C44.805 59.5157 45.9992 59.4836 47.1933 59.5413C47.8032 59.5734 48.0343 59.4001 48.1498 58.7902C48.4965 57.0119 48.9331 55.2528 49.3054 53.4809C49.3889 53.0893 49.5366 52.9673 49.9282 52.993C50.4867 53.0251 51.0581 53.0379 51.6166 52.993C52.0853 52.9544 52.2907 53.1342 52.4641 53.5515C53.2216 55.3876 54.0113 57.2173 54.7945 59.047C54.8908 59.2781 54.9293 59.5478 55.321 59.5413C56.7975 59.5157 58.2806 59.5349 59.8021 59.5349C59.7636 59.3937 59.7572 59.3038 59.7186 59.2268C58.8519 57.243 57.9981 55.2464 57.1057 53.2754C56.8938 52.8068 56.9452 52.672 57.4588 52.55C59.9818 51.9465 61.6446 50.3929 62.4022 47.9148C63.2625 45.0964 62.2738 42.5413 59.8663 41.315L59.8534 41.3022ZM55.995 48.8264C55.1605 49.0832 54.3002 48.9291 53.4527 48.9676C53.2987 48.9741 53.1382 48.9676 52.9841 48.9676C52.2907 48.9676 51.5909 48.9291 50.8976 48.9805C50.3583 49.019 50.3326 48.8136 50.4354 48.377C50.705 47.2728 50.9682 46.1621 51.1737 45.045C51.2635 44.5571 51.4754 44.4608 51.9312 44.4737C53.0996 44.5058 54.2681 44.4801 55.4365 44.4865C56.8617 44.4865 57.7092 45.0643 57.8504 46.1172C58.0045 47.2856 57.2084 48.454 56.0015 48.8264H55.995Z" fill="black"/>
<path d="M132.066 45.2632C130.666 42.1945 128.008 40.8912 124.805 40.5702C122.474 40.3391 120.124 40.5381 117.788 40.4739C117.325 40.4611 117.178 40.6344 117.088 41.0389C115.778 46.9966 114.462 52.9544 113.114 58.9057C112.973 59.5284 113.184 59.5348 113.666 59.5284C115.014 59.5092 116.369 59.522 117.916 59.522C119.784 59.4899 121.858 59.644 123.906 59.2524C127.758 58.5141 130.621 56.5239 132.014 52.781C132.932 50.3029 133.195 47.7478 132.059 45.2632H132.066ZM121.524 55.5095C121.229 55.5095 120.94 55.5095 120.644 55.5095C120.195 55.5095 119.739 55.471 119.296 55.5224C118.776 55.5801 118.763 55.3362 118.853 54.9446C119.322 52.8773 119.784 50.8037 120.246 48.7364C120.529 47.4717 120.824 46.207 121.094 44.9422C121.152 44.6854 121.171 44.4672 121.524 44.48C122.404 44.4993 123.283 44.4286 124.156 44.5185C126.435 44.7625 127.88 46.4317 127.944 48.8199C128.047 52.6398 125.35 55.4453 121.518 55.5159L121.524 55.5095Z" fill="black"/>
<path d="M83.1363 59.4065C81.7753 53.2305 80.4142 47.048 79.0661 40.872C78.989 40.5125 78.7836 40.4868 78.4883 40.4868C76.9346 40.4933 75.381 40.5125 73.8274 40.4804C73.3844 40.474 73.1533 40.6152 72.935 41.0004C69.6736 46.5858 66.393 52.1519 63.1124 57.7309C62.7786 58.3023 62.4448 58.8736 62.0596 59.5285C63.5747 59.5285 64.9871 59.5092 66.3995 59.5413C66.7975 59.5477 67.0029 59.4129 67.1891 59.0855C67.6257 58.3023 68.1007 57.5447 68.5437 56.7679C68.685 56.5175 68.8326 56.3634 69.16 56.3634C71.8372 56.3763 74.5207 56.3763 77.1978 56.3634C77.5253 56.3634 77.6793 56.4597 77.7435 56.7936C77.8912 57.5832 78.1031 58.36 78.2571 59.1497C78.3085 59.4193 78.392 59.5349 78.6809 59.5285C80.1639 59.5156 81.6469 59.5285 83.1235 59.5285C83.1235 59.4579 83.1363 59.4322 83.1299 59.4129L83.1363 59.4065ZM76.62 52.2611C76.3376 52.6206 75.5736 52.3574 75.015 52.3702C73.776 52.3895 72.5369 52.3702 71.1374 52.3702C72.5113 50.0397 73.8145 47.8184 75.2076 45.4431C75.6249 47.292 76.0101 48.974 76.3697 50.6625C76.4852 51.2082 76.8961 51.8951 76.6136 52.2546L76.62 52.2611Z" fill="black"/>
<path d="M104.334 44.7239C103.833 42.4577 101.753 40.7564 99.0569 40.5702C96.0459 40.3583 93.0285 40.5381 90.0176 40.4803C89.6003 40.4739 89.6003 40.7371 89.5489 40.9811C88.175 47.1314 86.814 53.2817 85.4273 59.5219C86.9745 59.5219 88.4575 59.5091 89.9405 59.5284C90.3193 59.5284 90.3129 59.3037 90.3642 59.0725C90.7045 57.5446 91.0576 56.0231 91.3914 54.4951C91.7188 52.9992 91.7124 52.9992 93.2147 52.9992C93.4394 52.9992 93.6641 52.9992 93.8888 52.9992C95.5516 52.9543 97.2208 53.1276 98.8707 52.8002C102.588 52.0555 105.124 48.3127 104.334 44.7239ZM97.4583 48.8969C96.6879 48.9932 95.8854 48.9161 95.1022 48.9161C95.1022 48.9354 95.1022 48.9482 95.1022 48.9675C94.4473 48.9675 93.7925 48.9482 93.1441 48.9675C92.7653 48.9803 92.6241 48.9097 92.7268 48.486C93.0157 47.2919 93.2853 46.0914 93.5229 44.8844C93.5935 44.5313 93.754 44.4671 94.0686 44.4735C95.1022 44.4864 96.1422 44.4735 97.1758 44.4735C98.6653 44.4735 99.5448 45.0706 99.6411 46.1235C99.7631 47.4845 98.8514 48.7107 97.4583 48.8841V48.8969Z" fill="black"/>
</svg>
