<svg width="200" height="100" viewBox="0 0 200 100" fill="none" xmlns="http://www.w3.org/2000/svg">
<path d="M68.7543 49.9262C70.9921 50.887 72.92 52.2398 74.2917 54.3005C76.1312 57.0628 75.3031 60.3183 73.4573 62.2083C72.3574 63.3335 71.011 64.0225 69.5319 64.4966C67.7114 65.0781 65.8276 65.2867 63.925 65.3247C60.1638 65.4068 56.5039 64.8063 52.9008 63.7823C48.9311 62.6571 45.1636 61.0768 41.6617 58.8833C39.8728 57.7645 38.204 56.4939 36.807 54.901C35.9853 53.9718 35.2836 52.9604 34.9296 51.753C34.5314 50.4003 34.6136 49.0918 35.4732 47.9161C36.0737 47.1006 36.9271 46.6265 37.8563 46.2852C39.1459 45.8111 40.4923 45.6278 41.8513 45.5203C42.2053 45.4887 42.5656 45.4824 42.9196 45.4634C42.9891 45.533 42.9512 45.6088 42.9196 45.6784C42.4455 46.9363 42.7173 48.0867 43.4443 49.1613C44.1333 50.1791 45.0182 51.0071 45.9917 51.753C47.8122 53.1437 49.835 54.1614 51.9779 54.9516C53.8616 55.6469 55.8022 56.1147 57.7934 56.3928C58.4508 56.4813 59.1145 56.5319 59.7719 56.5824C60.5241 56.6393 61.2701 56.6456 62.016 56.614C63.6595 56.5445 65.2714 56.279 66.7442 55.4825C67.6608 54.9832 68.4193 54.3194 68.8112 53.3144C69.0451 52.7265 69.0641 52.1197 68.9756 51.5065C68.9124 51.0767 68.8302 50.6531 68.7291 50.2296C68.7038 50.1285 68.6469 50.021 68.748 49.9199L68.7543 49.9262Z" fill="#ED0000"/>
<path d="M43.6666 43.6685C44.3872 41.6141 45.1079 39.5597 45.8348 37.5053C46.0244 36.968 46.2836 36.4623 46.6376 36.0072C47.3076 35.1602 48.2432 34.8694 49.2798 35.1918C49.8108 35.3561 50.2912 35.6279 50.7906 35.8555C51.2268 36.0514 51.6693 36.2158 52.156 36.2474C52.687 36.2853 53.1484 36.1336 53.553 35.8049C53.7805 35.6216 53.9955 35.432 54.2041 35.2297C54.7224 34.724 55.3166 34.566 56.0309 34.7303C57.4089 35.04 58.7364 35.5205 60.0448 36.0325C61.4924 36.5951 62.921 37.2082 64.2801 37.9731C64.4002 38.0426 64.5139 38.1121 64.634 38.1817C65.7466 38.8012 66.4166 39.7177 66.6884 40.9757C67.2004 43.3461 67.7694 45.7039 68.313 48.068C68.3256 48.1249 68.3319 48.1881 68.3383 48.245C68.6101 49.5472 67.8831 50.8241 66.6631 51.4625C65.8098 51.9113 64.8869 52.1452 63.9387 52.278C62.7693 52.4423 61.5935 52.4233 60.4178 52.3665C58.3761 52.2716 56.3786 51.905 54.419 51.3171C52.8134 50.8367 51.271 50.2172 49.7792 49.4524C48.2242 48.6496 46.764 47.7077 45.4492 46.5383C44.8803 46.0326 44.3683 45.4763 43.9511 44.8442C43.7109 44.4839 43.5655 44.1046 43.6729 43.6685H43.6666Z" fill="#ED0000"/>
<path d="M96.9109 57.928C95.4887 57.928 94.1043 57.928 92.7263 57.928C92.5746 57.928 92.543 57.8395 92.4924 57.7384C91.5758 55.9685 90.653 54.2048 89.7427 52.4286C89.6605 52.2642 89.5657 52.201 89.3761 52.201C88.5733 52.2137 87.7768 52.22 86.974 52.201C86.7148 52.1947 86.6706 52.2769 86.6769 52.5108C86.6896 54.2301 86.6769 55.9432 86.6896 57.6625C86.6896 57.8775 86.639 57.928 86.4241 57.9217C85.2989 57.9091 84.1737 57.9154 83.0485 57.9217C82.8779 57.9217 82.821 57.8901 82.821 57.7005C82.821 52.6182 82.821 47.5297 82.821 42.4474C82.821 42.2894 82.8526 42.2325 83.0296 42.2325C85.7224 42.2388 88.4152 42.2135 91.1018 42.2451C92.8591 42.2704 94.3888 42.8899 95.476 44.3311C97.2965 46.7458 96.3989 50.2731 93.6618 51.5436C93.4975 51.6195 93.4596 51.6637 93.5607 51.8407C94.6353 53.7687 95.6973 55.703 96.7592 57.6309C96.8035 57.7131 96.8477 57.789 96.9109 57.9091V57.928Z" fill="black"/>
<path d="M142.584 50.0909C142.584 52.6257 142.584 55.1605 142.584 57.689C142.584 57.8913 142.534 57.9355 142.332 57.9355C141.206 57.9229 140.081 57.9229 138.962 57.9355C138.741 57.9355 138.703 57.8723 138.703 57.6637C138.71 55.7863 138.703 53.9089 138.716 52.0252C138.716 51.8356 138.678 51.785 138.482 51.785C136.478 51.7913 134.481 51.7913 132.477 51.785C132.275 51.785 132.243 51.8419 132.249 52.0252C132.256 53.9152 132.249 55.799 132.256 57.689C132.256 57.8913 132.205 57.9418 132.003 57.9355C130.871 57.9229 129.74 57.9292 128.608 57.9355C128.431 57.9355 128.381 57.8913 128.381 57.708C128.393 52.6257 128.4 47.5435 128.4 42.4549C128.4 42.2653 128.463 42.24 128.627 42.24C129.759 42.2463 130.89 42.2463 132.022 42.24C132.218 42.24 132.256 42.2906 132.256 42.4739C132.249 44.3197 132.256 46.1655 132.243 48.0049C132.243 48.2135 132.287 48.2704 132.502 48.2704C134.487 48.2641 136.472 48.2578 138.457 48.2704C138.697 48.2704 138.729 48.1946 138.729 47.986C138.722 46.1591 138.729 44.3323 138.722 42.5055C138.722 42.3032 138.748 42.2337 138.975 42.2337C140.1 42.2463 141.225 42.2463 142.344 42.2337C142.54 42.2337 142.578 42.2906 142.578 42.4739C142.572 45.0087 142.578 47.5372 142.578 50.072L142.584 50.0909Z" fill="black"/>
<path d="M119.378 57.0744C118.721 57.5295 118.045 57.833 117.305 57.9783C114.208 58.5978 111.123 56.6572 110.333 53.5914C109.41 50.0136 111.698 46.5433 115.352 45.9933C116.736 45.7847 118.064 46.006 119.321 46.7013C119.321 46.5939 119.334 46.5054 119.334 46.4169C119.334 45.102 119.334 43.7809 119.334 42.4661C119.334 42.3018 119.378 42.2385 119.549 42.2006C120.611 41.9794 121.679 41.7518 122.735 41.5116C122.944 41.4674 122.969 41.5179 122.969 41.7076C122.969 47.0363 122.969 52.3651 122.969 57.7002C122.969 57.9025 122.912 57.9467 122.716 57.9467C121.679 57.9341 120.636 57.9404 119.6 57.9467C119.429 57.9467 119.359 57.9151 119.372 57.7255C119.391 57.5232 119.372 57.3209 119.372 57.0681L119.378 57.0744Z" fill="black"/>
<path d="M43.6648 43.6681C43.6459 44.6163 44.2527 45.2358 44.8342 45.8489C46.0353 47.1195 47.4702 48.093 48.9873 48.9463C51.7749 50.5203 54.7585 51.538 57.9255 52.0374C59.7712 52.3282 61.6297 52.423 63.4944 52.2523C64.5311 52.1575 65.5488 51.9489 66.4844 51.4685C67.7107 50.8427 68.3744 49.8692 68.3301 48.4659C68.3301 48.3901 68.3301 48.3142 68.3301 48.2384C68.4692 48.8009 68.6146 49.3635 68.7537 49.9261C68.8422 50.3749 68.9243 50.8237 69.0192 51.2725C69.3289 52.8149 68.8232 54.0475 67.6095 55.0147C66.6108 55.8048 65.4414 56.1967 64.2087 56.4433C62.5336 56.772 60.8395 56.753 59.1518 56.614C56.6802 56.4117 54.2781 55.8744 51.9519 55.0147C49.6004 54.1487 47.3943 53.0045 45.4474 51.4053C44.771 50.849 44.1516 50.2232 43.6206 49.5216C42.685 48.2889 42.3058 46.9678 42.9189 45.4697C43.1655 44.8692 43.4183 44.2686 43.6648 43.6681Z" fill="black"/>
<path d="M100.498 53.2647C100.941 54.2255 101.636 54.845 102.628 55.0536C103.741 55.2812 104.797 55.1295 105.694 54.3456C105.77 54.2824 105.808 54.2508 105.897 54.333C106.655 55.0157 107.42 55.692 108.197 56.3747C107.18 57.2407 106.042 57.8349 104.727 58.0499C103.178 58.3027 101.674 58.1889 100.245 57.4936C97.9761 56.3937 96.5222 54.0991 96.8193 51.3683C97.1164 48.6313 99.0507 46.5389 101.693 46.0016C105.043 45.3189 108.166 47.4176 108.811 50.7741C108.962 51.5517 108.969 52.3292 108.969 53.1067C108.969 53.2837 108.874 53.2647 108.76 53.2647C108.02 53.2647 107.281 53.2647 106.535 53.2647H100.505H100.498Z" fill="black"/>
<path d="M151.409 57.2395C151.1 57.4039 150.841 57.5808 150.55 57.6883C148.982 58.2825 147.408 58.371 145.866 57.663C144.115 56.8666 143.35 54.888 144.071 53.1434C144.488 52.132 145.309 51.5757 146.308 51.247C147.446 50.874 148.615 50.8614 149.791 50.9625C150.284 51.0068 150.771 51.089 151.245 51.2091C151.378 51.2407 151.403 51.2154 151.403 51.089C151.403 50.7919 151.416 50.4948 151.353 50.1977C151.201 49.496 150.664 49.0662 149.829 48.9398C148.849 48.7944 147.914 48.984 146.997 49.2874C146.561 49.4328 146.131 49.5972 145.708 49.7678C145.575 49.8184 145.518 49.8058 145.455 49.673C145.076 48.8829 144.696 48.099 144.311 47.3215C144.254 47.2078 144.254 47.1572 144.387 47.1003C146.327 46.2406 148.344 45.7539 150.48 45.8929C151.232 45.9435 151.966 46.0952 152.648 46.4176C154.235 47.1635 154.962 48.4783 154.987 50.1724C155.019 52.6946 154.994 55.223 155 57.7452C155 57.9095 154.943 57.9412 154.798 57.9348C153.736 57.9348 152.667 57.9348 151.605 57.9348C151.454 57.9348 151.39 57.9032 151.403 57.7389C151.416 57.5872 151.403 57.4355 151.403 57.2332L151.409 57.2395Z" fill="black"/>
<path d="M165.174 54.8005C165.174 55.3947 165.174 55.9699 165.174 56.5451C165.174 56.8865 165.174 57.2278 165.174 57.5628C165.174 57.6576 165.18 57.7398 165.047 57.7651C163.676 58.0812 162.298 58.2455 160.907 57.8789C159.232 57.4427 158.353 56.2796 158.334 54.4844C158.315 52.7777 158.328 51.0646 158.334 49.3579C158.334 49.1493 158.29 49.0861 158.069 49.0924C157.43 49.1051 156.792 49.0924 156.153 49.1051C155.957 49.1051 155.919 49.0482 155.919 48.8649C155.932 48.0178 155.932 47.1644 155.919 46.3174C155.919 46.1341 155.951 46.0709 156.153 46.0772C156.798 46.0899 157.449 46.0772 158.094 46.0898C158.303 46.0898 158.34 46.0266 158.34 45.837C158.328 44.971 158.34 44.105 158.334 43.239C158.334 43.081 158.385 43.0241 158.536 42.9925C159.624 42.7649 160.711 42.531 161.798 42.2845C161.981 42.2402 161.969 42.3287 161.969 42.4488C161.969 43.5803 161.969 44.7118 161.969 45.837C161.969 46.033 162.013 46.0898 162.215 46.0898C163.17 46.0772 164.124 46.0899 165.079 46.0772C165.262 46.0772 165.3 46.1278 165.3 46.2984C165.287 47.1581 165.287 48.0178 165.3 48.8712C165.3 49.0735 165.237 49.1051 165.06 49.0987C164.105 49.0924 163.151 49.0987 162.196 49.0924C162.019 49.0924 161.969 49.1367 161.969 49.32C161.975 50.7486 161.969 52.1772 161.969 53.6058C161.969 53.7511 161.988 53.8965 162.007 54.0356C162.083 54.6298 162.43 54.9458 163.062 55.0091C163.777 55.0849 164.472 54.9964 165.18 54.7941L165.174 54.8005Z" fill="black"/>
<path d="M88.9141 45.5393C89.4956 45.5583 90.2036 45.4887 90.9052 45.5772C91.6448 45.6721 92.1948 46.045 92.4286 46.7783C92.6499 47.4673 92.4286 48.2069 91.8913 48.643C91.5057 48.9591 91.0443 49.0792 90.5639 49.0792C89.3376 49.0855 88.1113 49.0792 86.8913 49.0855C86.7269 49.0855 86.6953 49.0349 86.6953 48.8832C86.6953 47.8402 86.7016 46.7972 86.6953 45.7479C86.6953 45.5583 86.7648 45.5267 86.9292 45.5267C87.5487 45.533 88.1682 45.5267 88.9141 45.5267V45.5393Z" fill="#FEFEFE"/>
<path d="M119.33 51.9871C119.33 52.6129 119.33 53.245 119.33 53.8708C119.33 53.972 119.33 54.0605 119.242 54.1426C117.965 55.3437 115.683 55.2994 114.501 54.0289C113.698 53.1629 113.502 52.1325 113.868 51.0263C114.241 49.9011 115.076 49.2627 116.22 49.0541C117.282 48.8644 118.262 49.1046 119.134 49.7557C119.279 49.8632 119.336 49.9707 119.336 50.154C119.324 50.7671 119.336 51.3803 119.336 51.9871H119.33Z" fill="#FEFEFE"/>
<path d="M105.348 50.7162C103.774 50.7162 102.206 50.7162 100.645 50.7162C100.487 50.7162 100.437 50.6909 100.493 50.5202C100.86 49.4456 101.815 48.8008 103.009 48.8325C104.065 48.8641 105.076 49.6542 105.361 50.6656C105.361 50.6719 105.361 50.6846 105.348 50.7099V50.7162Z" fill="#FEFEFE"/>
<path d="M151.148 54.2632C151.148 54.4086 151.129 54.554 151.148 54.6931C151.199 54.9712 151.054 55.0787 150.826 55.1735C149.909 55.5654 148.968 55.6918 147.988 55.4642C147.76 55.4137 147.558 55.3125 147.375 55.1608C146.863 54.7373 146.888 53.9661 147.438 53.5869C147.817 53.3277 148.253 53.2518 148.696 53.2329C149.454 53.1949 150.207 53.2898 150.952 53.4415C151.11 53.4731 151.161 53.5426 151.148 53.6943C151.136 53.8776 151.148 54.0673 151.148 54.2569V54.2632Z" fill="#FEFEFE"/>
</svg>
