<svg width="200" height="100" viewBox="0 0 200 100" fill="none" xmlns="http://www.w3.org/2000/svg">
<path d="M62.5689 49.6136C62.2556 58.8398 54.6239 65.9771 45.4673 65.6986C36.067 65.4131 29.2152 57.7326 29.3057 48.959C29.4032 39.3846 37.5014 31.8922 47.1176 32.5607C55.8842 33.1665 62.8196 40.5614 62.5689 49.6136Z" fill="#17D14F"/>
<path d="M75.9185 48.9665C77.0048 46.4667 78.0354 44.0922 79.0659 41.7248C79.1495 41.5298 79.2261 41.3279 79.3235 41.1399C79.6856 40.4296 80.2705 40.0536 81.0643 40.0675C81.8581 40.0884 82.4431 40.4714 82.7564 41.2095C83.7661 43.5561 84.7618 45.9027 85.7645 48.2493C85.8481 48.4442 85.9316 48.6392 86.057 48.9317C86.6836 47.4624 87.2964 46.0837 87.8604 44.698C88.4523 43.2358 89.1486 41.8222 89.6221 40.3112C89.9633 39.225 91.2097 38.7167 92.2612 39.1484C93.3126 39.5731 93.8209 40.7987 93.3196 41.8222C91.3142 45.8957 89.7474 50.1642 87.9301 54.3142C87.568 55.1498 87.0248 55.672 86.0987 55.7138C85.2562 55.7486 84.6365 55.2682 84.2256 54.3073C83.2299 51.9816 82.2411 49.6489 81.2454 47.3232C81.1758 47.163 81.0992 47.0098 80.9877 46.78C80.4446 48.0195 79.9363 49.1963 79.421 50.3661C78.8361 51.703 78.2442 53.04 77.6872 54.3908C77.346 55.2194 76.7681 55.7138 75.8698 55.7138C74.9437 55.7138 74.3727 55.1916 74.0176 54.349C72.5344 50.7908 71.0304 47.2396 69.5333 43.6884C69.2965 43.1313 69.0459 42.5882 68.7325 42.066C68.2799 41.307 68.3078 40.5271 68.83 39.8168C69.3244 39.1345 70.0416 38.8838 70.8493 39.0509C71.6571 39.218 72.1375 39.7472 72.4021 40.5549C73.0776 42.63 74.0663 44.5866 74.888 46.606C75.1944 47.358 75.5216 48.1031 75.9046 48.9874L75.9185 48.9665Z" fill="#061F33"/>
<path d="M147.855 40.2906C149.213 39.5804 150.571 39.274 152.005 39.2879C156.176 39.3367 159.644 42.6094 160.034 46.8917C160.403 50.9165 157.436 54.795 153.439 55.54C151.573 55.8882 149.784 55.6584 148.085 54.8019C147.862 54.6905 147.73 54.607 147.528 54.8924C146.992 55.6445 146.17 55.8743 145.355 55.5888C144.582 55.3172 144.102 54.6278 144.102 53.7296C144.102 49.0991 144.102 44.4685 144.102 39.838C144.102 37.9788 144.095 36.1266 144.102 34.2675C144.102 33.3483 144.694 32.6102 145.522 32.4222C146.414 32.2203 147.249 32.5893 147.667 33.3622C147.841 33.6826 147.869 34.0307 147.862 34.3858C147.862 36.3216 147.862 38.2504 147.862 40.2837L147.855 40.2906Z" fill="#061F33"/>
<path d="M141.311 47.4841C141.311 49.5174 141.311 51.5506 141.311 53.5839C141.311 54.6353 140.921 55.2759 140.106 55.5823C139.396 55.8469 138.337 55.6728 137.85 54.8303C137.641 54.4682 137.446 54.7606 137.286 54.8442C134.278 56.3204 130.782 55.8817 128.234 53.7092C125.532 51.3974 124.648 47.5746 126.047 44.2741C127.433 41.0083 130.789 39.0099 134.327 39.3232C135.371 39.4138 136.367 39.6853 137.293 40.1588C137.564 40.2981 137.718 40.3538 137.947 40.0404C138.463 39.3441 139.326 39.1213 140.092 39.3929C140.872 39.6714 141.318 40.3468 141.318 41.266C141.318 43.334 141.318 45.4091 141.318 47.4771L141.311 47.4841Z" fill="#061F33"/>
<path d="M109.772 47.4904C109.772 49.5585 109.772 51.6265 109.772 53.7016C109.772 54.6555 109.32 55.331 108.519 55.6025C107.711 55.8741 106.896 55.6373 106.36 54.8714C106.116 54.5232 105.949 54.746 105.754 54.8366C100.943 57.1762 95.3792 54.5859 94.0701 49.3914C92.7192 44.0367 97.2662 38.7794 102.753 39.3156C103.839 39.42 104.87 39.6846 105.824 40.193C106.082 40.3322 106.193 40.3044 106.374 40.0676C106.924 39.3504 107.774 39.1067 108.561 39.3922C109.326 39.6707 109.765 40.3462 109.765 41.2723C109.765 43.3403 109.765 45.4084 109.765 47.4834L109.772 47.4904Z" fill="#061F33"/>
<path d="M117.982 55.6994C115.984 55.6715 114.278 55.2537 112.774 54.1953C111.618 53.3806 111.562 51.8766 112.628 51.0619C113.303 50.5466 114.173 50.5745 114.967 51.1106C116.193 51.9323 117.537 52.0855 118.95 51.7791C119.159 51.7373 119.361 51.6468 119.549 51.5423C120.294 51.1176 120.308 50.2611 119.584 49.7946C118.985 49.4046 118.289 49.3907 117.613 49.3141C116.318 49.1679 115.072 48.8476 113.999 48.0677C111.493 46.2503 111.493 42.4206 113.999 40.4918C116.221 38.7788 120.141 38.9041 122.251 40.7424C122.905 41.3134 123.26 41.9888 123.031 42.8662C122.843 43.5904 122.355 44.036 121.624 44.2101C120.963 44.3633 120.392 44.1683 119.89 43.7296C118.943 42.908 117.864 42.908 116.75 43.2422C116.221 43.4024 115.907 43.8271 115.893 44.3842C115.886 44.9412 116.346 45.1223 116.764 45.2824C117.669 45.6306 118.651 45.561 119.584 45.7838C121.596 46.2712 123.149 47.3087 123.713 49.4046C124.402 51.9741 123.1 54.2928 120.496 55.2468C119.626 55.5671 118.713 55.6785 117.975 55.6924L117.982 55.6994Z" fill="#061F33"/>
<path d="M166.104 47.4974C166.104 49.5655 166.111 51.6405 166.104 53.7086C166.104 54.6556 165.617 55.338 164.816 55.6026C164.078 55.8463 163.257 55.6096 162.748 55.0038C162.421 54.6069 162.31 54.1334 162.31 53.639C162.31 49.5376 162.303 45.4294 162.31 41.328C162.31 40.3602 162.776 39.6847 163.563 39.3992C164.287 39.1346 165.13 39.3505 165.645 39.9354C166.021 40.3601 166.111 40.8615 166.111 41.4046C166.111 43.4379 166.111 45.4711 166.111 47.5044L166.104 47.4974Z" fill="#061F33"/>
<path d="M164.181 37.1425C162.747 37.1286 161.577 35.9588 161.584 34.5313C161.584 33.083 162.803 31.8853 164.244 31.9132C165.686 31.941 166.855 33.1108 166.855 34.5313C166.855 35.9797 165.651 37.1634 164.188 37.1425H164.181Z" fill="#061F33"/>
<path d="M160.771 65.7691C158.836 66.5629 157.471 65.6368 157.464 63.5687C157.464 63.4155 157.457 63.2554 157.464 63.1022C157.52 62.2387 157.791 61.4589 158.641 61.0968C159.525 60.7208 160.437 60.7417 161.266 61.3196C161.753 61.6538 161.976 62.1761 161.997 62.7262C162.039 63.8542 162.073 64.9962 161.99 66.1242C161.858 67.9138 160.479 68.2619 158.94 68.0182C158.592 67.9625 158.265 67.8232 157.986 67.5935C157.708 67.3637 157.526 67.0782 157.784 66.737C158.021 66.4236 158.32 66.4933 158.613 66.6952C158.891 66.8832 159.184 67.0294 159.525 67.0573C160.395 67.1339 160.82 66.723 160.764 65.7691H160.771Z" fill="#061F33"/>
<path d="M131.379 61.2009C131.379 60.407 131.379 59.6689 131.379 58.9239C131.379 58.527 131.539 58.2624 131.943 58.2554C132.367 58.2485 132.562 58.5061 132.562 58.9309C132.562 60.6299 132.569 62.3289 132.562 64.0279C132.555 65.1629 131.838 65.9219 130.696 66.0542C129.401 66.2074 128.412 65.6295 128.127 64.5362C128.001 64.0627 127.96 63.5753 128.008 63.0809C128.189 61.166 129.533 60.3931 131.393 61.1939L131.379 61.2009Z" fill="#061F33"/>
<path d="M95.0455 61.4097C95.4703 61.0337 95.8672 60.8944 96.3059 60.8735C97.4687 60.8039 98.179 61.4236 98.2138 62.5864C98.2416 63.5056 98.2138 64.4247 98.2207 65.3369C98.2207 65.7686 98.0258 66.0193 97.601 66.0123C97.2041 66.0123 97.03 65.7617 97.037 65.3508C97.0509 64.5918 97.0579 63.8259 97.037 63.0669C97.0161 62.287 96.7167 61.9598 96.0552 61.9667C95.3589 61.9667 95.0525 62.3149 95.0455 63.1017C95.0455 63.8259 95.0455 64.5431 95.0455 65.2673C95.0455 65.699 94.8854 66.0193 94.4188 66.0123C93.9453 66.0123 93.82 65.6781 93.82 65.2464C93.827 63.1783 93.82 61.1102 93.82 59.0352C93.82 58.6244 93.9105 58.2623 94.3979 58.2553C94.9063 58.2484 95.0386 58.6105 95.0386 59.0491C95.0386 59.7872 95.0386 60.5323 95.0386 61.4027L95.0455 61.4097Z" fill="#072034"/>
<path d="M156.662 63.9297C156.662 64.3962 156.662 64.8697 156.662 65.3363C156.662 65.6148 156.599 65.8446 156.327 65.956C156.063 66.0674 155.798 66.0396 155.645 65.7958C155.471 65.5104 155.366 65.6844 155.206 65.7958C154.134 66.4713 152.651 65.963 152.386 64.8489C152.149 63.874 152.727 63.0454 153.751 62.934C154.197 62.8852 154.649 62.92 155.102 62.8992C155.227 62.8992 155.401 62.9757 155.464 62.8017C155.527 62.6276 155.485 62.4465 155.366 62.3073C154.997 61.8547 154.517 61.8825 154.029 62.0357C153.814 62.1053 153.612 62.2516 153.417 62.37C153.152 62.5231 152.908 62.4744 152.734 62.2516C152.56 62.0288 152.588 61.785 152.762 61.5553C153.222 60.9425 154.524 60.6849 155.492 61.0191C156.306 61.2976 156.662 61.8199 156.669 62.7599C156.669 63.1498 156.669 63.5398 156.669 63.9297H156.662Z" fill="#061F33"/>
<path d="M165.499 63.8748C165.109 63.8748 164.72 63.8957 164.33 63.8748C163.961 63.847 163.954 64.0141 164.044 64.2857C164.204 64.7661 164.782 65.0794 165.381 64.9959C165.694 64.9541 165.987 64.8497 166.251 64.6756C166.551 64.4806 166.871 64.4737 167.066 64.8079C167.254 65.1282 167.115 65.4206 166.815 65.6087C165.924 66.1727 164.97 66.2353 164.016 65.8384C163.132 65.4694 162.874 64.6686 162.784 63.7982C162.742 63.3665 162.784 62.9418 162.881 62.524C163.181 61.2915 164.302 60.6648 165.722 60.9294C166.774 61.1313 167.435 62.1479 167.282 63.3247C167.233 63.6938 167.066 63.8957 166.676 63.8818C166.286 63.8748 165.896 63.8818 165.506 63.8818L165.499 63.8748Z" fill="#061F33"/>
<path d="M145.988 66.0685C144.47 66.0685 143.627 65.1563 143.62 63.4921C143.613 61.807 144.456 60.867 146.002 60.867C147.541 60.867 148.404 61.7931 148.404 63.4782C148.404 65.1563 147.555 66.0755 145.995 66.0685H145.988Z" fill="#061F33"/>
<path d="M119.812 66.0687C118.259 66.0687 117.41 65.1495 117.41 63.4714C117.41 61.7863 118.273 60.8532 119.812 60.8671C121.351 60.8811 122.207 61.8281 122.186 63.4992C122.166 65.1565 121.323 66.0617 119.805 66.0617L119.812 66.0687Z" fill="#061F33"/>
<path d="M101.349 66.0687C99.8169 66.0687 98.9395 65.1077 98.9604 63.4505C98.9813 61.7863 99.8099 60.8881 101.335 60.8672C102.874 60.8532 103.737 61.7793 103.744 63.4644C103.751 65.1495 102.909 66.0687 101.356 66.0687H101.349Z" fill="#061F33"/>
<path d="M122.934 62.9203C122.934 62.4747 122.934 62.0221 122.934 61.5764C122.934 61.1865 123.15 60.9288 123.54 60.9358C123.937 60.9358 124.111 61.1935 124.111 61.5973C124.104 62.3772 124.097 63.1571 124.111 63.937C124.125 64.4662 124.278 64.8909 124.912 64.9675C125.573 65.0441 125.991 64.7447 126.012 64.0901C126.04 63.3103 126.026 62.5304 126.012 61.7505C126.012 61.3118 126.109 60.9288 126.625 60.9358C127.126 60.9428 127.237 61.3257 127.237 61.7644C127.237 62.4468 127.237 63.1292 127.237 63.8116C127.244 65.6081 126.381 66.2069 124.598 66.0329C123.491 65.9284 122.955 65.2739 122.927 64.1458C122.913 63.735 122.927 63.3242 122.927 62.9134L122.934 62.9203Z" fill="#072033"/>
<path d="M137.744 66.0685C137.152 66.0267 136.525 65.8944 136.01 65.4487C135.752 65.2259 135.592 64.9544 135.843 64.634C136.087 64.3277 136.386 64.3764 136.672 64.5923C137.096 64.9126 137.57 65.0518 138.099 64.9543C138.294 64.9195 138.496 64.8778 138.538 64.641C138.586 64.3764 138.398 64.2441 138.197 64.1605C137.814 64.0074 137.424 63.8959 137.041 63.7497C136.163 63.4155 135.836 62.9002 135.954 62.0507C136.038 61.424 136.56 61.0062 137.389 60.9087C138.092 60.8252 138.754 60.9296 139.325 61.3822C139.568 61.5772 139.728 61.8348 139.52 62.1412C139.304 62.4615 139.004 62.4754 138.705 62.2596C138.357 62.0089 137.981 61.8766 137.549 61.9393C137.375 61.9602 137.194 62.0089 137.138 62.2108C137.075 62.4546 137.243 62.5869 137.424 62.6635C137.821 62.8236 138.238 62.942 138.635 63.1021C139.22 63.3389 139.714 63.6592 139.742 64.3834C139.777 65.4348 139.074 66.0476 137.744 66.0685Z" fill="#061F33"/>
<path d="M110.052 63.3937C110.219 61.3047 111.653 60.3438 113.387 61.0541C113.603 61.1376 113.805 61.2769 113.979 61.4231C114.278 61.6668 114.473 61.9802 114.146 62.3214C113.861 62.6208 113.568 62.4815 113.269 62.2448C112.405 61.5415 111.458 61.9105 111.291 63.0107C111.256 63.2405 111.256 63.4772 111.27 63.714C111.347 64.9674 112.224 65.42 113.29 64.7376C113.638 64.5148 113.979 64.3546 114.244 64.7933C114.508 65.232 114.181 65.4896 113.847 65.6776C112.934 66.1999 111.974 66.2695 111.054 65.7333C110.107 65.1832 110.066 64.2153 110.045 63.4006L110.052 63.3937Z" fill="#061F33"/>
<path d="M115.098 61.8413C115.098 60.9222 115.098 60.01 115.098 59.0909C115.098 58.6661 115.133 58.2623 115.669 58.2553C116.233 58.2553 116.282 58.6661 116.282 59.1187C116.275 60.8526 116.282 62.5934 116.282 64.3272C116.282 64.6266 116.254 64.8912 116.679 64.9608C116.936 65.0026 117.069 65.2812 117.013 65.5666C116.957 65.887 116.727 66.0193 116.421 66.0262C115.669 66.0471 115.126 65.5527 115.105 64.7659C115.077 63.791 115.105 62.8162 115.105 61.8413H115.098Z" fill="#092235"/>
<path d="M106.214 65.9991C105.462 65.9504 104.946 65.4073 104.932 64.5299C104.925 63.8266 104.932 63.1233 104.932 62.427C104.932 62.1833 104.953 61.9675 104.584 61.9883C104.341 62.0023 104.215 61.7934 104.208 61.5497C104.194 61.2781 104.313 61.0553 104.584 61.0553C104.946 61.0553 104.939 60.8533 104.932 60.6096C104.925 60.4564 104.932 60.2963 104.932 60.1431C104.946 59.7601 105.183 59.5651 105.531 59.5582C105.865 59.5582 106.06 59.781 106.102 60.1152C106.123 60.2475 106.116 60.3868 106.102 60.5261C106.074 60.8464 106.088 61.097 106.541 61.0483C106.861 61.0135 107.056 61.2224 107.049 61.5497C107.042 61.8839 106.826 62.044 106.506 62.0092C106.151 61.9675 106.088 62.1346 106.095 62.4409C106.116 63.1025 106.116 63.764 106.095 64.4324C106.088 64.7597 106.193 64.9407 106.534 64.9964C106.875 65.0521 107.063 65.268 106.994 65.6092C106.924 65.9504 106.659 66.0618 106.207 66.0061L106.214 65.9991Z" fill="#061F33"/>
<path d="M140.955 63.5402C140.955 63.2686 140.955 62.9901 140.955 62.7186C140.955 62.3704 141.087 61.9526 140.474 61.9456C140.321 61.9456 140.216 61.7228 140.209 61.5278C140.209 61.312 140.307 61.0822 140.502 61.0752C141.017 61.0544 140.948 60.7131 140.948 60.3928C140.948 60.1422 140.899 59.8706 141.136 59.6896C141.296 59.5642 141.47 59.4946 141.679 59.5781C141.888 59.6617 142.062 59.7801 142.076 60.0377C142.083 60.2327 142.097 60.4277 142.076 60.6226C142.048 60.9151 142.138 61.0613 142.459 61.0335C142.793 61.0056 143.05 61.1379 143.05 61.5139C143.05 61.883 142.828 62.0431 142.473 62.0013C142.097 61.9596 142.062 62.1545 142.069 62.454C142.083 63.0806 142.083 63.7073 142.069 64.3271C142.062 64.6891 142.166 64.9259 142.563 64.9955C142.918 65.0512 143.064 65.3019 142.981 65.6361C142.904 65.9634 142.654 66.0261 142.347 66.0121C141.477 65.9634 140.955 65.4203 140.934 64.5429C140.927 64.2087 140.934 63.8814 140.934 63.5472L140.955 63.5402Z" fill="#072034"/>
<path d="M149.219 63.4918C149.219 62.8651 149.219 62.2454 149.219 61.6187C149.219 61.3193 149.296 61.0756 149.602 60.9711C149.874 60.8736 150.131 60.9433 150.271 61.18C150.445 61.4794 150.542 61.3053 150.695 61.18C150.946 60.9711 151.246 60.8806 151.566 60.8876C151.879 60.9015 152.081 61.0756 152.102 61.3959C152.123 61.7022 151.977 61.9111 151.663 61.9877C150.48 62.2941 150.403 62.3916 150.403 63.6102C150.403 64.1951 150.403 64.78 150.403 65.3649C150.403 65.7618 150.201 66.0055 149.804 66.0055C149.414 66.0055 149.212 65.7688 149.219 65.3579C149.226 64.7312 149.219 64.1115 149.219 63.4848V63.4918Z" fill="#071F33"/>
<path d="M168.279 33.5918C168.279 32.7632 168.676 32.3663 169.49 32.3663C170.298 32.3663 170.702 32.7911 170.695 33.6127C170.681 34.4413 170.284 34.8452 169.477 34.8382C168.669 34.8382 168.279 34.4274 168.279 33.5918Z" fill="#0D2639"/>
<path d="M32.4466 50.6166C33.7139 51.7516 34.9255 52.8239 36.1301 53.9032C37.2094 54.8641 38.2957 55.825 39.3611 56.8069C39.6396 57.0645 39.7928 57.0506 40.0644 56.7929C43.5599 53.4924 47.0693 50.1988 50.5718 46.9052C50.6275 46.8564 50.6902 46.8077 50.7946 46.7311C50.913 47.0375 50.8573 47.3299 50.8573 47.6015C50.8643 48.8897 50.8573 50.1779 50.8643 51.473C50.8643 51.7446 50.7877 51.9396 50.5857 52.1345C47.3966 55.1357 44.2075 58.1368 41.0392 61.1589C40.6632 61.514 40.3777 61.5279 39.9251 61.2912C35.6984 59.0699 33.2126 55.6161 32.4536 50.916C32.4397 50.8464 32.4536 50.7767 32.4536 50.6166H32.4466Z" fill="#FEFEFE"/>
<path d="M41.1843 51.5782C41.1843 49.7608 41.1843 48.1175 41.1843 46.4811C41.1843 46.2305 41.3584 46.0982 41.5047 45.9519C44.652 42.9717 47.8064 39.9984 50.9537 37.0112C51.2462 36.7327 51.4899 36.6839 51.8589 36.8789C56.0926 39.0653 58.6132 42.4912 59.421 47.1775C59.4349 47.2471 59.407 47.3237 59.3931 47.4908C58.3556 46.5577 57.3738 45.6734 56.392 44.7891C55.1595 43.675 53.92 42.5748 52.7015 41.4398C52.416 41.1682 52.2628 41.1543 51.9634 41.4398C49.1224 44.1485 46.2605 46.8363 43.3986 49.5241C42.7093 50.1716 42.006 50.8192 41.1843 51.5852V51.5782Z" fill="#FEFEFE"/>
<path d="M38.1816 51.6966C37.2067 50.8192 36.3224 50.0323 35.445 49.2455C34.5886 48.4796 33.739 47.6997 32.8686 46.9477C32.6249 46.7388 32.5692 46.5577 32.6389 46.2513C32.8965 45.1024 33.2934 44.0161 33.8156 42.9647C33.9619 42.6722 34.0454 42.5817 34.3379 42.8463C35.5147 43.9256 36.7193 44.984 37.91 46.0494C38.098 46.2165 38.1885 46.3836 38.1885 46.6482C38.1746 48.2846 38.1885 49.9209 38.1885 51.7035L38.1816 51.6966Z" fill="#FEFEFE"/>
<path d="M53.9756 46.6755C54.8181 47.4345 55.6537 48.1865 56.4893 48.9455C57.3458 49.7184 58.2022 50.4913 59.0587 51.2643C59.2467 51.4314 59.3372 51.5776 59.2746 51.8631C59.0239 53.012 58.627 54.1052 58.1256 55.1706C57.9725 55.4979 57.8541 55.5118 57.5964 55.2681C56.4475 54.2097 55.2847 53.1652 54.1218 52.1138C53.9686 51.9745 53.8711 51.8352 53.8711 51.6124C53.8781 50.0109 53.8781 48.4093 53.8851 46.8078C53.8851 46.78 53.9268 46.7521 53.9756 46.6755Z" fill="#FEFEFE"/>
<path d="M43.9444 62.5375C46.2841 60.3302 48.5193 58.2273 50.8519 56.0199C50.8519 57.9557 50.8519 59.7452 50.8519 61.5348C50.8519 61.7646 50.7127 61.8203 50.5316 61.8829C48.4357 62.635 46.291 62.8578 43.9375 62.5375H43.9444Z" fill="#FEFEFE"/>
<path d="M41.1843 42.1002C41.1843 40.1922 41.1843 38.4514 41.1843 36.7176C41.1843 36.4948 41.247 36.3625 41.4768 36.2859C43.5101 35.5756 45.5921 35.3946 47.7228 35.6522C47.7715 35.6522 47.8133 35.7079 47.8969 35.7567C45.6895 37.8456 43.4892 39.9207 41.1843 42.1002Z" fill="#FEFEFE"/>
<path d="M38.1283 42.1779C37.3693 41.5025 36.673 40.8828 35.9767 40.27C35.8235 40.1377 35.8305 40.0333 35.9628 39.887C36.5964 39.1977 37.2997 38.5988 38.1283 38V42.1779Z" fill="#FCFEFD"/>
<path d="M53.9007 60.0935V55.9643C54.6458 56.6398 55.3073 57.2525 55.9967 57.8514C56.1986 58.0254 56.115 58.1299 55.9827 58.2692C55.3491 58.9028 54.7294 59.5504 53.9007 60.0865V60.0935Z" fill="#FBFDFC"/>
<path d="M147.855 47.4003C147.855 46.9895 147.889 46.5787 147.848 46.1678C147.778 45.5481 148.029 45.0816 148.405 44.6359C150.09 42.6514 153.063 42.5052 154.915 44.3226C156.781 46.1539 156.705 49.0854 154.741 50.8192C152.798 52.5322 149.832 52.2258 148.258 50.1647C147.973 49.7957 147.813 49.4127 147.848 48.9322C147.882 48.4239 147.855 47.9156 147.855 47.4073V47.4003Z" fill="#FEFEFE"/>
<path d="M137.548 47.4833C137.548 47.8176 137.506 48.1518 137.555 48.4791C137.736 49.6489 137.109 50.4079 136.266 51.0415C134.275 52.5386 131.448 52.093 129.979 50.0667C128.537 48.0752 129.018 45.2899 131.051 43.8555C133.063 42.435 135.856 42.9433 137.269 44.9766C137.45 45.2412 137.562 45.5127 137.548 45.847C137.527 46.3901 137.548 46.9402 137.548 47.4833Z" fill="#FEFEFE"/>
<path d="M106.013 47.4903C106.013 47.7619 105.978 48.0404 106.013 48.312C106.256 49.9692 105.254 50.8536 103.972 51.4942C101.87 52.5456 99.3071 51.6822 98.1651 49.6141C97.0162 47.5391 97.7194 44.9557 99.7736 43.6884C101.744 42.4768 104.355 43.0269 105.713 44.9348C105.922 45.2343 106.034 45.5406 106.02 45.9097C105.992 46.4389 106.02 46.9611 106.02 47.4903H106.013Z" fill="#FEFEFE"/>
<path d="M160.811 63.5749C160.811 64.1041 160.965 64.682 160.254 64.9466C159.614 65.1834 159.008 64.9675 158.778 64.3269C158.576 63.7629 158.583 63.178 158.778 62.607C158.952 62.0987 159.412 61.8132 159.913 61.8898C160.477 61.9733 160.77 62.3215 160.818 62.8716C160.839 63.1014 160.818 63.3381 160.818 63.5749H160.811Z" fill="#FDFDFD"/>
<path d="M131.386 63.3316C131.372 63.6031 131.393 63.8817 131.344 64.1463C131.247 64.6476 130.954 64.9958 130.404 65.0376C129.84 65.0793 129.464 64.8078 129.29 64.2855C129.116 63.7563 129.116 63.2062 129.29 62.6701C129.464 62.12 129.924 61.8136 130.446 61.8902C131.073 61.9738 131.386 62.3358 131.386 62.9765C131.386 63.0948 131.386 63.2132 131.386 63.3246C131.386 63.3246 131.393 63.3246 131.4 63.3246L131.386 63.3316Z" fill="#FDFDFE"/>
<path d="M154.699 63.8403C154.755 63.8403 154.818 63.8264 154.873 63.8403C155.075 63.896 155.382 63.6801 155.472 63.9935C155.556 64.2859 155.437 64.5645 155.201 64.7803C154.838 65.1006 154.414 65.1006 153.989 65.0101C153.69 64.9405 153.522 64.7176 153.543 64.4113C153.564 64.1049 153.745 63.903 154.059 63.8681C154.267 63.8403 154.483 63.8681 154.699 63.8681V63.8472V63.8403Z" fill="#FDFDFD"/>
<path d="M165.059 62.8997C164.885 62.8997 164.711 62.9136 164.537 62.8997C164.377 62.8858 164.154 62.9972 164.063 62.8092C163.966 62.5933 164.126 62.4053 164.272 62.2451C164.759 61.6951 165.706 61.7856 165.992 62.4123C166.124 62.7047 166.159 62.9484 165.7 62.8997C165.491 62.8788 165.275 62.8997 165.059 62.8997Z" fill="#F7F8F8"/>
<path d="M147.186 63.4845C147.186 64.5429 146.719 65.1069 145.898 65.0442C145.188 64.9885 144.791 64.3618 144.846 63.3731C144.902 62.3773 145.306 61.869 146.044 61.8899C146.782 61.9108 147.186 62.4748 147.186 63.4915V63.4845Z" fill="#FEFEFE"/>
<path d="M120.978 63.5469C120.936 64.5705 120.518 65.0788 119.738 65.044C119.007 65.0162 118.61 64.4313 118.631 63.4216C118.652 62.405 119.084 61.8618 119.836 61.8827C120.581 61.9036 121.02 62.5373 120.978 63.5469Z" fill="#FEFEFE"/>
<path d="M100.178 63.4923C100.199 63.2973 100.206 63.1024 100.234 62.9144C100.338 62.2738 100.735 61.9047 101.313 61.8908C101.919 61.8769 102.343 62.2459 102.462 62.9074C102.531 63.2764 102.531 63.6385 102.469 64.0076C102.35 64.69 101.967 65.0521 101.355 65.059C100.749 65.059 100.338 64.69 100.227 64.0215C100.199 63.8474 100.192 63.6734 100.171 63.4993L100.178 63.4923Z" fill="#FEFEFE"/>
<path d="M169.467 34.5595C168.868 34.5595 168.576 34.2322 168.583 33.5777C168.583 32.9441 168.917 32.6029 169.509 32.6168C170.087 32.6238 170.407 32.9858 170.4 33.6125C170.393 34.2462 170.08 34.5665 169.474 34.5595H169.467Z" fill="#FAFAFA"/>
<path d="M169.935 34.1897C169.608 34.2453 169.608 33.9044 169.392 33.8488C169.211 33.8766 169.35 34.2593 169.107 34.1688C168.905 34.0992 169.009 33.8627 169.002 33.7027C168.981 32.9791 169.211 32.7634 169.747 32.9791C169.976 33.0765 170.122 33.2783 169.997 33.48C169.844 33.7235 169.872 33.9462 169.941 34.1827L169.935 34.1897Z" fill="#253A4C"/>
<path d="M169.69 33.3687C169.669 33.494 169.572 33.5148 169.481 33.5148C169.37 33.5148 169.3 33.4522 169.321 33.334C169.335 33.2505 169.412 33.2157 169.488 33.2157C169.586 33.2157 169.683 33.2365 169.69 33.3618V33.3687Z" fill="#FEFEFE"/>
</svg>
