<svg width="200" height="100" viewBox="0 0 200 100" fill="none" xmlns="http://www.w3.org/2000/svg">
<path d="M67.9495 38.4098C62.7893 37.9384 58.6293 40.1235 54.5522 42.6781C54.8707 42.9775 55.151 42.9711 55.4886 42.8374C58.0178 41.8181 60.6233 41.3594 63.3499 41.8181C63.6302 41.869 63.9297 41.8818 64.2036 42.0793C61.7828 42.9393 59.4703 43.9777 57.2979 45.3155C52.6537 48.1759 49.0671 51.9664 46.9903 57.0692C46.5953 58.0376 46.2768 59.0314 46.0474 60.0571C45.9901 60.3119 45.8818 60.4138 45.627 60.4648C43.5119 60.8789 41.6008 60.2991 39.8234 59.2289C37.0968 57.5853 35.2557 55.2664 34.8862 52.0301C34.5358 48.9786 35.4723 46.252 37.4535 43.9267C39.7151 41.2702 42.5946 39.8687 46.1303 39.9642C46.5571 39.977 47.003 39.977 47.4107 40.0916C47.8885 40.2254 48.1561 40.0343 48.481 39.7349C50.4495 37.9193 52.7939 36.8172 55.4122 36.3203C58.4701 35.7405 61.528 35.8042 64.554 36.5623C65.7962 36.8745 66.8984 37.4797 67.9559 38.4098H67.9495Z" fill="#009BD9"/>
<path d="M57.5334 49.4497C58.0685 48.4941 58.8266 47.7487 59.6803 47.1117C62.1775 45.226 65.0252 44.2003 68.1086 43.7735C70.4529 43.4486 72.7782 43.5187 75.027 44.3086C78.0148 45.3598 79.8878 47.3729 80.2891 50.6027C80.5949 53.0554 79.3781 55.2405 77.0083 56.4955C75.887 57.088 74.6894 57.4256 73.4344 57.5658C73.2178 57.5913 73.0712 57.6422 72.9438 57.8461C70.7906 61.369 67.5479 63.242 63.5472 63.8408C60.4957 64.2995 57.4761 64.1084 54.6093 62.8215C54.157 62.6177 53.7429 62.5476 53.2332 62.5922C51.1883 62.7769 49.2516 62.5348 47.7163 60.9422C47.4615 60.6746 47.4233 60.5217 47.6845 60.2351C50.8761 56.6484 54.8068 54.304 59.5019 53.2656C62.7955 52.5394 66.0572 52.7687 69.2616 53.7944C70.472 54.183 71.7016 54.3932 72.9629 54.0747C74.4473 53.6988 75.3583 52.533 75.3328 51.106C75.3201 50.4817 75.0525 49.9912 74.6257 49.558C73.2751 48.1755 71.5996 47.4366 69.7139 47.169C66.3758 46.6976 63.1841 47.3665 60.0561 48.4495C59.2025 48.7425 58.3743 49.112 57.5398 49.4433L57.5334 49.4497Z" fill="#009BD9"/>
<path d="M153.539 54.5967C152.577 56.6034 151.131 58.0049 149.131 58.7885C147.322 59.4956 145.455 59.6677 143.588 59.037C141.709 58.3999 140.773 56.9347 140.683 55.0554C140.53 51.7809 141.365 48.7676 143.76 46.3977C145.971 44.2126 148.698 43.7284 151.634 44.5375C153.488 45.0472 154.431 46.4232 154.667 48.2962C154.845 49.7359 154.578 51.1311 154.246 52.5199C154.17 52.8448 153.941 52.8256 153.692 52.8256C150.857 52.8256 148.016 52.832 145.181 52.8129C144.716 52.8129 144.55 52.9403 144.538 53.4054C144.512 54.0806 144.487 54.7432 144.888 55.342C145.098 55.6542 145.353 55.9154 145.71 56.0173C146.856 56.3358 148.003 56.3231 148.914 55.4949C149.66 54.8196 150.443 54.5138 151.437 54.5903C152.106 54.6413 152.775 54.5967 153.546 54.5967H153.539Z" fill="#009BD9"/>
<path d="M97.0959 54.2906C97.6119 54.2906 98.1279 54.2906 98.6439 54.2906C98.7841 54.2906 98.9306 54.2397 98.9561 54.5008C99.1026 55.8641 99.4402 56.2209 100.746 56.4184C101.536 56.5331 102.326 56.4885 103.071 56.1572C103.275 56.068 103.479 55.9597 103.645 55.8196C104.422 55.1698 104.346 54.4499 103.441 54.0039C102.492 53.5325 101.415 53.4943 100.421 53.163C99.6696 52.9146 98.9178 52.6916 98.2171 52.3094C96.9748 51.6277 96.4588 50.5575 96.7391 49.1623C97.2424 46.6523 98.8732 45.1998 101.243 44.5181C102.874 44.0467 104.537 44.0531 106.18 44.4927C108.225 45.0342 109.257 46.6395 108.952 48.7227C108.913 48.9712 108.818 49.0285 108.588 49.0285C107.849 49.0158 107.11 49.0285 106.371 49.0285C105.868 49.0285 105.454 48.7992 105.244 48.3469C104.925 47.6461 104.39 47.3021 103.651 47.2129C102.995 47.1364 102.345 47.181 101.715 47.3849C101.447 47.4741 101.211 47.6015 101.027 47.8181C100.491 48.4233 100.568 48.9393 101.281 49.3152C102.141 49.7675 103.091 49.9586 104.027 50.1625C105.161 50.4109 106.244 50.7741 107.219 51.4047C108.308 52.1119 108.416 53.1885 108.181 54.3225C107.735 56.4694 106.473 57.9792 104.416 58.7309C102.199 59.5463 99.9117 59.6483 97.631 59.0494C95.4076 58.4633 94.6878 56.7305 95.1592 54.5709C95.2102 54.3352 95.3248 54.2779 95.5542 54.2842C96.0702 54.297 96.5862 54.2842 97.1022 54.2842L97.0959 54.2906Z" fill="#009BD9"/>
<path d="M130.593 44.1947C131.593 44.2138 132.581 44.2839 133.543 44.5833C135.39 45.163 136.161 46.3926 135.766 48.2719C135.365 50.1831 134.938 52.0879 134.435 53.9799C133.632 56.9932 131.268 58.9426 128.166 59.2548C126.905 59.3822 125.637 59.5415 124.376 59.2357C122.847 58.8662 121.904 57.9297 121.764 56.6747C121.49 54.1583 122.821 51.9031 125.153 50.8902C126.446 50.3232 127.828 50.1831 129.204 49.9728C129.886 49.8709 130.561 49.769 131.192 49.4632C131.491 49.323 131.759 49.1447 131.931 48.8516C132.294 48.2337 132.09 47.6985 131.409 47.4819C130.485 47.1889 129.555 47.1634 128.625 47.4437C128.357 47.5265 128.064 47.6157 127.911 47.8387C127.574 48.3292 127.102 48.3165 126.599 48.3037C125.841 48.291 125.089 48.3037 124.331 48.3037C123.758 48.3037 123.745 48.3037 124.006 47.7559C124.834 46.0613 126.217 45.0356 127.994 44.5196C128.841 44.2712 129.714 44.1947 130.593 44.2011V44.1947Z" fill="#009BD9"/>
<path d="M81.1888 59.0951C81.3225 58.5154 81.5009 57.993 81.5582 57.4515C81.6538 56.5151 82.1507 55.8971 82.8451 55.2919C85.6673 52.8647 88.4449 50.3802 91.2415 47.9148C91.3307 47.8383 91.4199 47.7619 91.5155 47.6854C91.3689 47.5007 91.2033 47.5771 91.0695 47.5771C89.4705 47.5708 87.8715 47.5771 86.2725 47.5771C85.0366 47.5771 84.4569 46.8509 84.7053 45.6405C84.8625 44.8972 85.3211 44.5256 86.0814 44.5256C89.5215 44.5256 92.9552 44.532 96.3953 44.5192C96.8476 44.5192 96.9687 44.6275 96.8285 45.0671C96.6884 45.5067 96.5673 45.9654 96.5227 46.4177C96.4336 47.3796 95.8984 48.004 95.1849 48.6028C92.3819 50.9535 89.6234 53.3552 86.8522 55.7378C86.814 55.7697 86.7885 55.8143 86.7503 55.8589C86.8777 56.0054 87.0433 55.929 87.1835 55.929C89.4896 55.929 91.7894 55.9417 94.0956 55.929C94.4714 55.929 94.6562 55.9481 94.5224 56.4131C94.2994 57.184 94.1529 57.9803 93.9809 58.7639C93.9299 58.9932 93.8726 59.1525 93.5604 59.1461C89.5024 59.1334 85.4443 59.1397 81.3926 59.1334C81.3416 59.1334 81.2907 59.1143 81.2015 59.1015L81.1888 59.0951Z" fill="#009BD9"/>
<path d="M120.923 48.9913C120.407 48.9913 119.891 48.9913 119.375 48.9913C119.203 48.9913 119.063 48.9913 118.954 48.7874C118.273 47.4942 117.279 47.1056 115.839 47.5515C115.107 47.7809 114.514 48.2077 114.094 48.8448C113.023 50.4756 112.546 52.2721 112.667 54.2088C112.737 55.3873 113.476 56.069 114.661 56.1645C115.699 56.2474 116.642 55.9989 117.406 55.2599C117.903 54.7758 118.483 54.5655 119.177 54.591C119.897 54.6165 120.624 54.6038 121.343 54.591C121.649 54.591 121.707 54.6611 121.554 54.935C120.146 57.4896 118.005 58.974 115.1 59.3307C114.227 59.439 113.355 59.4199 112.488 59.2479C110.469 58.8466 109.029 57.3622 108.87 55.2981C108.634 52.132 109.424 49.227 111.533 46.7998C113.329 44.723 115.693 43.984 118.387 44.2452C119.763 44.379 121.012 44.7994 121.904 45.927C122.541 46.7361 122.758 47.7044 122.872 48.7046C122.898 48.9594 122.764 48.9849 122.567 48.9785C122.019 48.9785 121.464 48.9785 120.917 48.9785L120.923 48.9913Z" fill="#009BD9"/>
<path d="M136.458 59.1332C135.961 59.1332 135.458 59.1205 134.961 59.1332C134.636 59.146 134.528 59.1077 134.617 58.7191C135.515 54.8649 136.388 50.998 137.267 47.1374C137.764 44.965 138.274 42.799 138.751 40.6203C138.821 40.3145 138.942 40.2317 139.229 40.2444C139.726 40.2635 140.229 40.2444 140.726 40.2508C141.994 40.2763 142.542 41.0025 142.255 42.2703C141.784 44.328 141.312 46.3793 140.841 48.437C140.057 51.8644 139.267 55.2854 138.496 58.7127C138.42 59.0631 138.28 59.146 137.955 59.1332C137.458 59.1077 136.955 59.1332 136.458 59.1332Z" fill="#009BD9"/>
<path d="M153.627 59.1322C154.277 56.3801 154.799 53.6535 155.576 50.9906C156.921 46.3911 160.463 44.5436 164.846 44.5054C165.145 44.5054 165.247 44.5691 165.151 44.8876C164.897 45.7604 164.667 46.6395 164.438 47.5123C164.38 47.7225 164.285 47.8117 164.049 47.8181C163.533 47.8308 163.024 47.9009 162.527 48.0411C160.666 48.5762 159.66 49.914 159.22 51.7041C158.653 54.0167 158.144 56.3419 157.64 58.6672C157.558 59.0494 157.398 59.145 157.029 59.1386C155.914 59.1131 154.799 59.1322 153.627 59.1322Z" fill="#009BD9"/>
<path d="M147.966 50.3544C147.163 50.3544 146.354 50.3416 145.551 50.3607C145.233 50.3671 145.226 50.2524 145.297 50.004C145.806 48.2075 147.59 47.1054 149.386 47.4812C150.514 47.7169 151.234 49.1439 150.775 50.2015C150.686 50.4117 150.527 50.3544 150.393 50.3544C149.59 50.3544 148.781 50.3544 147.979 50.3544H147.966Z" fill="#FEFEFE"/>
<path d="M131.249 52.234C131.071 53.2915 130.822 54.3172 130.058 55.1326C129.077 56.1837 127.847 56.5341 126.458 56.343C125.796 56.2538 125.414 55.776 125.477 55.1135C125.554 54.228 125.93 53.5081 126.79 53.1131C127.261 52.8965 127.758 52.7564 128.261 52.6608C129.242 52.4824 130.198 52.234 131.141 51.9091C131.402 51.9346 131.281 52.1002 131.255 52.234H131.249Z" fill="#FEFEFE"/>
<path d="M131.248 52.2341C131.216 52.1259 131.267 51.9859 131.134 51.9095C131.191 51.884 131.286 51.8331 131.293 51.8458C131.401 51.9859 131.331 52.1132 131.248 52.2341Z" fill="#B4E1F3"/>
</svg>
