<svg width="200" height="100" viewBox="0 0 200 100" fill="none" xmlns="http://www.w3.org/2000/svg">
<mask id="mask0_2_4456" style="mask-type:luminance" maskUnits="userSpaceOnUse" x="40" y="28" width="43" height="44">
<path d="M76.0493 67.9681L76.0094 67.8712L75.9125 67.6717L73.5985 61.4477C75.7928 62.4565 77.8276 63.7788 79.6629 65.4203C79.9022 65.597 80.096 65.8535 80.2556 66.1499C80.4323 66.4862 80.5349 66.8395 80.5349 67.2385C80.5349 68.5038 79.509 69.5298 78.2436 69.5298C77.2348 69.5298 76.3685 68.8971 76.0493 67.9681ZM57.041 31.7925C57.3374 30.9832 58.01 30.4303 58.7623 30.4075H58.7794C59.5318 30.4474 60.2043 30.9832 60.5007 31.7925L70.0419 57.9937C67.9273 57.458 65.7558 57.1844 63.5386 57.1844C58.8934 57.1844 54.3109 58.4098 50.3212 60.7409C48.3833 61.8695 46.605 63.2488 45.0034 64.8105L57.041 31.7925ZM58.5457 28.3101C57.0068 28.4298 55.6389 29.4956 55.069 31.0744L40.78 70.2992C40.5805 70.8521 40.8598 71.4448 41.4127 71.6443C41.5324 71.6842 41.6521 71.7013 41.766 71.7013C42.1023 71.7013 42.4158 71.5417 42.6153 71.2682C42.6552 71.2283 42.6723 71.1884 42.7122 71.1314C44.8267 67.5748 47.8077 64.5882 51.387 62.5135C55.0633 60.3819 59.2696 59.2362 63.5614 59.2362C66.1091 59.2362 68.6227 59.6295 70.9937 60.4047L74.0145 68.5266L74.1114 68.7033C74.7441 70.4417 76.3856 71.6101 78.2436 71.6101C80.6717 71.6101 82.6324 69.6324 82.6324 67.2214C82.6324 66.509 82.4557 65.7794 82.1194 65.1468C81.9826 64.9074 81.8401 64.6908 81.6862 64.4742C81.6292 64.3773 81.5665 64.2747 81.4867 64.1949C78.8991 61.784 75.8726 59.9487 72.6124 58.7404L72.3958 58.1875H72.3787L62.4785 31.0801C61.9028 29.5184 60.5634 28.4526 59.0017 28.3158C58.9447 28.3158 58.882 28.2987 58.825 28.2987H58.7452C58.6654 28.2987 58.6084 28.3158 58.5457 28.3158V28.3101Z" fill="white"/>
</mask>
<g mask="url(#mask0_2_4456)">
<path d="M82.6348 28.2915H40.5886V71.7055H82.6348V28.2915Z" fill="url(#paint0_linear_2_4456)"/>
</g>
<g opacity="0.3">
<mask id="mask1_2_4456" style="mask-type:luminance" maskUnits="userSpaceOnUse" x="42" y="57" width="41" height="15">
<path d="M73.6414 61.567C75.8358 62.5758 77.8706 63.8981 79.7059 65.5168C79.9452 65.7163 80.139 65.95 80.2986 66.2464C80.4753 66.5826 80.5779 66.936 80.5779 67.335H82.6697C82.6697 66.6225 82.493 65.893 82.1567 65.2603C82.037 65.0209 81.8774 64.8044 81.7235 64.5878C81.6665 64.4909 81.6038 64.3883 81.524 64.3085C78.9364 61.8975 75.9099 60.0623 72.6497 58.8539L73.6358 61.5613L73.6414 61.567ZM50.3699 60.8545C48.432 61.983 46.6537 63.3624 45.0521 64.924L42.6412 71.4045C42.6811 71.3646 42.6982 71.3247 42.7381 71.2677C44.8526 67.7112 47.8563 64.7246 51.4129 62.6499C55.0892 60.5182 59.2955 59.3726 63.5873 59.3726C65.9755 59.3726 68.546 59.7488 71.0196 60.541L70.0906 58.0902C67.976 57.5544 65.8045 57.2809 63.5873 57.2809C58.9421 57.298 54.3767 58.5234 50.3699 60.8545Z" fill="white"/>
</mask>
<g mask="url(#mask1_2_4456)">
<path d="M82.6754 57.2984H42.664V71.4049H82.6754V57.2984Z" fill="url(#paint1_linear_2_4456)"/>
</g>
</g>
<path d="M81.2883 38.4091H81.938L86.1671 47.557H85.4376L84.292 45.0093H78.9172L77.7488 47.557H77.0591L81.2883 38.4091ZM83.9956 44.4166L81.6074 39.1615L79.2193 44.4166H84.0013H83.9956Z" fill="#404041"/>
<path d="M90.1262 47.7169C89.5733 47.7169 89.0775 47.6371 88.6272 47.4604C88.1712 47.2838 87.778 47.0444 87.4417 46.7081C87.1054 46.3718 86.8489 45.9557 86.6722 45.4827C86.4955 44.9868 86.3929 44.4339 86.3929 43.8013V38.4835H87.0655V43.7215C87.0655 44.8101 87.3448 45.6366 87.8749 46.2122C88.4106 46.805 89.1801 47.0843 90.149 47.0843C91.1179 47.0843 91.8076 46.805 92.3605 46.2521C92.9133 45.6993 93.1698 44.8671 93.1698 43.7842V38.4664H93.8424V43.7044C93.8424 44.3541 93.7455 44.9298 93.5631 45.4257C93.3807 45.9215 93.1299 46.3319 92.7936 46.6682C92.4573 47.0045 92.0812 47.261 91.6252 47.4376C91.1692 47.6143 90.6791 47.7169 90.1262 47.7169Z" fill="#404041"/>
<path d="M97.8096 39.082H94.652V38.4664H101.663V39.082H98.4821V47.5573H97.8096V39.082Z" fill="#404041"/>
<path d="M106.444 47.7167C105.755 47.7167 105.139 47.5799 104.569 47.3405C104.016 47.084 103.52 46.7477 103.127 46.3146C102.734 45.8814 102.415 45.3855 102.198 44.8327C101.981 44.2798 101.884 43.687 101.884 43.0544V43.0373C101.884 42.4046 102.004 41.8119 102.221 41.259C102.437 40.6833 102.757 40.1932 103.15 39.76C103.543 39.3268 104.039 38.9906 104.592 38.7341C105.167 38.4776 105.777 38.3579 106.467 38.3579C107.157 38.3579 107.789 38.4947 108.342 38.7341C108.895 38.9906 109.391 39.3268 109.784 39.76C110.177 40.1932 110.497 40.689 110.713 41.2419C110.93 41.7948 111.027 42.3875 111.027 43.0202V43.0373C111.027 43.6699 110.907 44.2627 110.69 44.8156C110.474 45.3912 110.155 45.8814 109.761 46.3146C109.368 46.7477 108.889 47.084 108.319 47.3405C107.766 47.597 107.134 47.7167 106.444 47.7167ZM106.467 47.1011C107.02 47.1011 107.556 47.0042 108.029 46.7876C108.502 46.5711 108.901 46.2918 109.254 45.9156C109.59 45.5394 109.864 45.1233 110.046 44.6332C110.246 44.1373 110.326 43.6072 110.326 43.0544V43.0373C110.326 42.4844 110.229 41.9487 110.029 41.4585C109.83 40.9683 109.573 40.5295 109.22 40.1533C108.884 39.7771 108.468 39.5035 107.994 39.2812C107.521 39.0646 107.008 38.9678 106.433 38.9678C105.857 38.9678 105.344 39.0646 104.871 39.2812C104.398 39.4978 103.999 39.7771 103.646 40.1533C103.309 40.5295 103.036 40.9455 102.853 41.4357C102.654 41.9316 102.574 42.4616 102.574 43.0145V43.0316C102.574 43.5845 102.671 44.1202 102.87 44.6104C103.07 45.1006 103.326 45.5394 103.68 45.9156C104.016 46.2918 104.432 46.5654 104.905 46.7876C105.378 47.0042 105.914 47.1011 106.467 47.1011Z" fill="#404041"/>
<path d="M112.216 38.4664H112.849L116.502 43.8412L120.155 38.4664H120.788V47.5573H120.116V39.6748L116.502 44.9127H116.462L112.849 39.6748V47.5573H112.216V38.4664Z" fill="#404041"/>
<path d="M126.343 38.4096H126.993L131.222 47.5575H130.492L129.347 45.0098H123.972L122.803 47.5575H122.114L126.343 38.4096ZM129.044 44.417L126.656 39.162L124.268 44.417H129.05H129.044Z" fill="#404041"/>
<path d="M133.458 39.0819H130.295V38.4664H137.288V39.0819H134.125V47.5573H133.458V39.0819Z" fill="#404041"/>
<path d="M139.269 38.4664H138.596V47.5573H139.269V38.4664Z" fill="#404041"/>
<path d="M145.573 47.7167C144.884 47.7167 144.268 47.5799 143.698 47.3405C143.145 47.084 142.649 46.7477 142.256 46.3146C141.863 45.8814 141.544 45.3855 141.327 44.8327C141.11 44.2798 141.013 43.687 141.013 43.0544V43.0373C141.013 42.4046 141.133 41.8119 141.35 41.259C141.566 40.6833 141.885 40.1932 142.279 39.76C142.672 39.3268 143.168 38.9906 143.721 38.7341C144.296 38.4776 144.906 38.3579 145.596 38.3579C146.286 38.3579 146.918 38.4947 147.471 38.7341C148.024 38.9906 148.497 39.3268 148.913 39.76C149.306 40.1932 149.626 40.689 149.842 41.2419C150.059 41.7948 150.156 42.3875 150.156 43.0202V43.0373C150.156 43.6699 150.036 44.2627 149.819 44.8156C149.603 45.3912 149.284 45.8814 148.89 46.3146C148.497 46.7477 148.018 47.084 147.448 47.3405C146.895 47.597 146.263 47.7167 145.573 47.7167ZM145.613 47.1011C146.166 47.1011 146.702 47.0042 147.175 46.7876C147.648 46.5711 148.047 46.2918 148.4 45.9156C148.736 45.5394 149.01 45.1233 149.192 44.6332C149.392 44.1373 149.472 43.6072 149.472 43.0544V43.0373C149.472 42.4844 149.375 41.9487 149.175 41.4585C148.976 40.9683 148.719 40.5295 148.366 40.1533C148.03 39.7771 147.614 39.5035 147.141 39.2812C146.667 39.0589 146.155 38.9678 145.579 38.9678C145.003 38.9678 144.49 39.0646 144.017 39.2812C143.544 39.4978 143.145 39.7771 142.792 40.1533C142.455 40.5295 142.182 40.9455 141.999 41.4357C141.8 41.9316 141.72 42.4616 141.72 43.0145V43.0316C141.72 43.5845 141.817 44.1202 142.017 44.6104C142.216 45.1006 142.473 45.5394 142.826 45.9156C143.162 46.2918 143.578 46.5654 144.051 46.7876C144.524 47.0099 145.037 47.1011 145.613 47.1011Z" fill="#404041"/>
<path d="M151.436 38.4664H152.068L158.355 46.3718V38.4664H158.988V47.5573H158.475L152.068 39.4981V47.5573H151.436V38.4664Z" fill="#404041"/>
<path d="M85.1666 49.5349H87.0646L91.0543 58.9222H88.9227L88.0734 56.8304H84.1407L83.2915 58.9222H81.1997L85.1723 49.5349H85.1666ZM87.3211 55.0293L86.0786 52.0085L84.8361 55.0293H87.3268H87.3211Z" fill="#404041"/>
<path d="M91.6221 49.5928H93.5029L97.8689 55.3437V49.5928H99.9036V58.9231H98.1652L93.6397 52.9955V58.9231H91.6221V49.5928Z" fill="#404041"/>
<path d="M104.152 55.2468L100.578 49.5928H102.966L105.201 53.3489L107.452 49.5928H109.783L106.21 55.207V58.9231H104.152V55.2468Z" fill="#404041"/>
<path d="M109.746 49.5913H111.941L113.879 55.9179L115.97 49.5742H117.732L119.823 55.9179L121.744 49.5913H123.899L120.712 58.9786H118.917L116.825 52.8914L114.711 58.9786H112.932L109.746 49.5913Z" fill="#404041"/>
<path d="M125.082 49.5928H127.117V53.2918H130.907V49.5928H132.942V58.9231H130.907V55.1841H127.117V58.9231H125.082V49.5928Z" fill="#404041"/>
<path d="M134.585 49.5928H141.602V51.4338H136.62V53.309H141.009V55.1443H136.62V57.1049H141.681V58.9231H134.585V49.5928Z" fill="#404041"/>
<path d="M143.174 49.5918H147.443C148.628 49.5918 149.534 49.9053 150.15 50.5379C150.686 51.0737 150.942 51.7805 150.942 52.6696V52.6867C150.942 53.439 150.765 54.0489 150.389 54.522C150.013 54.995 149.54 55.3541 148.947 55.5707L151.221 58.8879H148.833L146.838 55.907H145.237V58.8879H143.179V49.5804L143.174 49.5918ZM147.306 54.1401C147.819 54.1401 148.195 54.0204 148.474 53.7867C148.753 53.5473 148.867 53.2339 148.867 52.8178V52.8007C148.867 52.3447 148.731 52.0084 148.434 51.7919C148.155 51.5753 147.762 51.4556 147.249 51.4556H145.214V54.1401H147.306Z" fill="#404041"/>
<path d="M152.211 49.5928H159.222V51.4338H154.223V53.3089H158.612V55.1442H154.223V57.1049H159.284V58.9231H152.211V49.5928Z" fill="#404041"/>
<path d="M116.584 62.536C117.53 62.536 118.026 63.0318 118.026 63.0318L117.672 63.5448C117.672 63.5448 117.256 63.1686 116.646 63.1686C115.774 63.1686 115.324 63.7614 115.324 64.4909C115.324 65.3402 115.9 65.876 116.629 65.876C117.222 65.876 117.598 65.4827 117.598 65.4827V65.0267H117.005V64.4169H118.231V66.4516H117.638V66.1153H117.621C117.621 66.1153 117.228 66.5314 116.492 66.5314C115.466 66.5314 114.594 65.7392 114.594 64.5137C114.594 63.408 115.444 62.536 116.589 62.536" fill="#F79837"/>
<path d="M120.218 63.6248C121.068 63.6248 121.757 64.2347 121.757 65.0896C121.757 65.9445 121.068 66.5544 120.235 66.5544C119.403 66.5544 118.696 65.9616 118.696 65.0896C118.679 64.2404 119.369 63.6248 120.218 63.6248ZM120.218 65.9559C120.674 65.9559 121.05 65.6026 121.05 65.0839C121.05 64.5652 120.674 64.2119 120.218 64.2119C119.762 64.2119 119.386 64.5652 119.386 65.0839C119.386 65.6026 119.762 65.9559 120.218 65.9559Z" fill="#F79837"/>
<path d="M123.639 62.5927H124.329V63.7953C124.329 63.9321 124.311 64.0347 124.311 64.0347H124.329C124.329 64.0347 124.568 63.6414 125.161 63.6414C125.913 63.6414 126.386 64.2342 126.386 65.1062C126.386 65.9782 125.85 66.571 125.104 66.571C124.528 66.571 124.272 66.1549 124.272 66.1549H124.254C124.254 66.1549 124.272 66.2347 124.272 66.3544V66.514H123.622V62.6041H123.639V62.5927ZM125.001 65.9554C125.377 65.9554 125.691 65.642 125.691 65.0834C125.691 64.5248 125.411 64.2114 125.001 64.2114C124.648 64.2114 124.311 64.4678 124.311 65.1005C124.311 65.5166 124.551 65.9497 125.001 65.9497" fill="#F79837"/>
<path d="M128.182 63.6244C128.991 63.6244 129.425 64.2171 129.425 64.9467C129.425 65.0265 129.408 65.2259 129.408 65.2259H127.492C127.532 65.7218 127.909 65.9555 128.325 65.9555C128.781 65.9555 129.134 65.6591 129.134 65.6591L129.39 66.155C129.39 66.155 128.957 66.5483 128.262 66.5483C127.333 66.5483 126.763 65.8757 126.763 65.0835C126.78 64.2114 127.356 63.6187 128.188 63.6187M128.718 64.7301C128.701 64.3539 128.479 64.1544 128.165 64.1544C127.812 64.1544 127.572 64.371 127.492 64.7301H128.718Z" fill="#F79837"/>
<path d="M132.371 67.0208C132.804 67.0208 133.163 66.8441 133.163 66.3483V66.1887C133.163 66.1317 133.181 66.0519 133.181 66.0519H133.163C133.004 66.2913 132.77 66.4281 132.394 66.4281C131.602 66.4281 131.151 65.7783 131.151 65.026C131.151 64.2736 131.585 63.6409 132.377 63.6409C132.987 63.6409 133.209 63.9943 133.209 63.9943H133.226V63.6808H133.876V66.2913C133.876 67.2374 133.124 67.6136 132.411 67.6136C132.058 67.6136 131.682 67.5167 131.425 67.3742L131.642 66.8384C131.602 66.8384 131.955 67.0151 132.371 67.0151M133.181 65.0032C133.181 64.3705 132.867 64.1938 132.491 64.1938C132.075 64.1938 131.841 64.4902 131.841 64.9633C131.841 65.4363 132.098 65.8125 132.531 65.8125C132.867 65.8296 133.181 65.6358 133.181 65.0032Z" fill="#F79837"/>
<path d="M134.625 63.6808H135.297V64.3534C135.417 63.9601 135.753 63.6409 136.186 63.6409C136.243 63.6409 136.306 63.658 136.306 63.658V64.3477C136.306 64.3477 136.226 64.3306 136.146 64.3306C135.85 64.3306 135.514 64.5073 135.394 64.9234C135.354 65.0601 135.337 65.2197 135.337 65.3793V66.4851H134.647V63.6808H134.63H134.625Z" fill="#F79837"/>
<path d="M137.979 63.6244C138.788 63.6244 139.221 64.2171 139.221 64.9467C139.221 65.0265 139.204 65.2259 139.204 65.2259H137.289C137.329 65.7218 137.705 65.9555 138.121 65.9555C138.577 65.9555 138.931 65.6591 138.931 65.6591L139.187 66.155C139.187 66.155 138.754 66.5483 138.059 66.5483C137.13 66.5483 136.56 65.8757 136.56 65.0835C136.577 64.2114 137.153 63.6187 137.985 63.6187M138.515 64.7301C138.498 64.3539 138.275 64.1544 137.962 64.1544C137.608 64.1544 137.369 64.371 137.289 64.7301H138.515Z" fill="#F79837"/>
<path d="M141.206 64.7296H141.303V64.6897C141.303 64.3135 141.063 64.1938 140.767 64.1938C140.374 64.1938 139.998 64.4731 139.998 64.4731L139.741 63.9772C139.741 63.9772 140.174 63.6409 140.83 63.6409C141.559 63.6409 141.998 64.0342 141.998 64.7467V66.4851H141.366V66.2457C141.366 66.126 141.383 66.0462 141.383 66.0462H141.366C141.366 66.0462 141.149 66.5421 140.516 66.5421C140.02 66.5421 139.57 66.2286 139.57 65.67C139.57 64.7809 140.756 64.7239 141.212 64.7239M140.687 65.9949C141.063 65.9949 141.32 65.6016 141.32 65.2653V65.2083H141.2C140.847 65.2083 140.271 65.2482 140.271 65.6415C140.254 65.8182 140.391 65.9949 140.687 65.9949Z" fill="#F79837"/>
<path d="M142.823 64.2739H142.47V63.721H142.846V62.9117H143.519V63.721H144.151V64.2739H143.519V65.3625C143.519 65.8185 143.872 65.8983 144.071 65.8983C144.151 65.8983 144.191 65.8812 144.191 65.8812V66.491C144.191 66.491 144.111 66.5081 143.974 66.5081C143.581 66.5081 142.806 66.3884 142.806 65.4594V64.2739H142.823Z" fill="#F79837"/>
<path d="M145.41 65.7792H144.721V66.4683H145.41V65.7792Z" fill="#F79837"/>
<defs>
<linearGradient id="paint0_linear_2_4456" x1="39.3013" y1="48.6786" x2="81.2414" y2="48.6786" gradientUnits="userSpaceOnUse">
<stop stop-color="#FFDD15"/>
<stop offset="0.03" stop-color="#FED217"/>
<stop offset="0.17" stop-color="#FAAD1C"/>
<stop offset="0.3" stop-color="#F68F20"/>
<stop offset="0.45" stop-color="#F37824"/>
<stop offset="0.6" stop-color="#F16726"/>
<stop offset="0.77" stop-color="#F05D28"/>
<stop offset="0.99" stop-color="#F05A28"/>
<stop offset="1" stop-color="#F05A28"/>
</linearGradient>
<linearGradient id="paint1_linear_2_4456" x1="46.1932" y1="67.7467" x2="86.2319" y2="67.7467" gradientUnits="userSpaceOnUse">
<stop stop-color="white"/>
<stop offset="0.33" stop-color="white"/>
<stop offset="0.37" stop-color="#FBFBFB"/>
<stop offset="0.42" stop-color="#EEEEEE"/>
<stop offset="0.47" stop-color="#D9D9D9"/>
<stop offset="0.52" stop-color="#BCBBBB"/>
<stop offset="0.58" stop-color="#969595"/>
<stop offset="0.63" stop-color="#686666"/>
<stop offset="0.68" stop-color="#332F30"/>
<stop offset="0.69" stop-color="#231F20"/>
<stop offset="0.93" stop-color="white"/>
<stop offset="1" stop-color="white"/>
</linearGradient>
</defs>
</svg>
