<svg width="200" height="100" viewBox="0 0 200 100" fill="none" xmlns="http://www.w3.org/2000/svg">
<path d="M83.6172 51.492L81.488 46.5766L79.377 51.492H83.6233H83.6172ZM80.5207 43.9911H82.5283L87.9547 56.3709H85.6673L84.4202 53.4022H78.5923L77.3208 56.3709H75.1004L80.5268 43.9911H80.5207Z" fill="#383838"/>
<path d="M90.4486 51.155V44.08H92.6143V51.0699C92.6143 53.3512 93.7945 54.58 95.7291 54.58C97.6636 54.58 98.8316 53.4242 98.8316 51.155V44.08H100.997V51.0516C100.997 54.7199 98.9168 56.5632 95.6987 56.5632C92.4805 56.5632 90.4486 54.7199 90.4486 51.155Z" fill="#383838"/>
<path d="M107.989 46.0814H104.083V44.08H114.085V46.0814H110.173V56.3686H107.989V46.0814Z" fill="#383838"/>
<path d="M126.425 50.2609V50.2244C126.425 47.8336 124.685 45.8504 122.233 45.8504C119.781 45.8504 118.078 47.7971 118.078 50.1879V50.2244C118.078 52.6091 119.824 54.5984 122.27 54.5984C124.715 54.5984 126.425 52.6456 126.425 50.2609ZM115.809 50.2609V50.2244C115.809 46.7629 118.486 43.8672 122.276 43.8672C126.066 43.8672 128.706 46.7264 128.706 50.1879V50.2244C128.706 53.6859 126.029 56.5816 122.245 56.5816C118.461 56.5816 115.815 53.7224 115.815 50.2609" fill="#383838"/>
<path d="M132.298 44.08H134.603L138.351 49.8897L142.104 44.08H144.41V56.3686H142.244V47.5536L138.351 53.3512H138.284L134.427 47.5901V56.3686H132.298V44.08Z" fill="#383838"/>
<path d="M158.607 50.2609V50.2244C158.607 47.8336 156.861 45.8504 154.415 45.8504C151.97 45.8504 150.26 47.7971 150.26 50.1879V50.2244C150.26 52.6092 152.006 54.5984 154.452 54.5984C156.898 54.5984 158.607 52.6457 158.607 50.2609ZM147.985 50.2609V50.2244C147.985 46.7629 150.662 43.8672 154.446 43.8672C158.23 43.8672 160.876 46.7264 160.876 50.1879V50.2244C160.876 53.6859 158.199 56.5817 154.415 56.5817C150.632 56.5817 147.985 53.7224 147.985 50.2609Z" fill="#383838"/>
<path d="M166.918 50.1208L162.604 44.08H165.159L168.219 48.4844L171.304 44.08H173.786L169.491 50.0843L173.962 56.3686H171.407L168.171 51.7147L164.91 56.3686H162.428L166.918 50.1208Z" fill="#383838"/>
<path d="M57.6475 63.0795L49.0576 47.4875L50.8158 44.6526L62.9827 66.3098H31.2635L29.2012 63.0855H57.6414L57.6475 63.0795ZM34.2383 57.872L34.1592 57.9937L52.4096 57.9693L54.0704 60.9867H29.1282L45.3102 33.6963H49.0455L34.2383 57.872ZM43.8441 55.8827L47.774 49.5437L51.2599 55.8706L43.8441 55.8827ZM41.3499 55.8888H37.931L50.9009 34.7183L66.5415 61.8019L64.7591 65.1418L50.9739 40.6132L50.907 40.4916L41.3499 55.8888ZM52.1359 32.6256L51.5458 31.6036H44.0935L26.0378 62.0514L30.0955 68.3964H65.4222L68.9445 61.808L68.9627 61.7715L52.1359 32.6256Z" fill="#009CC9"/>
</svg>
