<svg width="200" height="100" viewBox="0 0 200 100" fill="none" xmlns="http://www.w3.org/2000/svg">
<path d="M37.9507 69.9159H34.7932V73.7851H37.9369C39.2566 73.7851 40.1064 73.0389 40.1064 71.8436C40.1064 70.6483 39.2358 69.9159 37.9576 69.9159M37.7089 64.2435H34.7932V67.9952H37.7504C38.9457 67.9952 39.7402 67.2213 39.7402 66.0468C39.7402 64.9551 38.9457 64.2435 37.7089 64.2435ZM38.3791 75.8164H32.4786V62.2951H37.7504C39.2911 62.2951 39.982 62.454 40.7282 63.0067C41.2326 63.3522 41.6195 63.8358 41.8613 64.4231C42.0203 64.8515 42.1239 65.3351 42.1239 65.798C42.1239 67.3595 41.2533 68.4374 39.6711 68.8174C40.4795 68.9763 40.8042 69.0799 41.2948 69.4461C42.1032 70.0541 42.5523 71.0076 42.5523 72.1407C42.5523 74.4346 40.9908 75.8095 38.3791 75.8095" fill="#231F20"/>
<path d="M80.5611 74.4415C79.5661 75.54 78.3916 76.0237 76.7472 76.0237C75.1028 76.0237 73.8868 75.471 72.9747 74.3378C71.8969 72.9767 71.3304 71.1734 71.3304 69.0454C71.3304 64.8308 73.4998 62.0947 76.8232 62.0947C79.5799 62.0947 81.3418 63.7737 81.8738 66.8759L79.6007 67.1177C79.3174 65.9224 79.2138 65.6184 78.7923 65.0311C78.3847 64.4646 77.6385 64.0984 76.8646 64.0984C75.0406 64.0984 74.0042 65.881 74.0042 69.0039C74.0042 72.1269 75.0751 73.9717 76.9475 73.9717C78.3432 73.9717 79.421 72.8316 79.6007 71.1112L81.8738 71.3738C81.632 72.9145 81.3902 73.5226 80.5541 74.4346" fill="#231F20"/>
<path d="M88.6691 64.8035L86.7622 70.6625H90.5761L88.6691 64.8035ZM92.3172 75.8168L91.2255 72.6109H86.1335L85.0763 75.8168H82.893L87.3909 62.2954H90.3688L94.9081 75.8168H92.3103H92.3172Z" fill="#231F20"/>
<path d="M101.628 64.2231H99.2993V73.8338H101.344C103.694 73.8338 105.214 71.9269 105.214 68.9905C105.214 66.0541 103.735 64.2231 101.621 64.2231M101.241 75.8168H96.7982V62.2954H101.787C105.352 62.2954 107.887 65.0729 107.887 69.025C107.887 73.1843 105.29 75.8168 101.234 75.8168" fill="#231F20"/>
<path d="M110.469 75.8168V62.2955H119.168V64.3199H112.963V67.9887H117.952V69.9371H112.963V73.6888H119.265V75.8168H110.469Z" fill="#231F20"/>
<path d="M50.948 64.237H47.7007V68.3134H50.7407C52.4059 68.3134 53.3593 67.5672 53.3593 66.2475C53.3593 65.0108 52.4266 64.237 50.948 64.237ZM53.4422 69.8541L55.8121 75.8168H53.235L51.1276 70.2618H47.7007V75.8168H45.2894V62.2955H51.1276C54.1677 62.2955 55.8743 63.7326 55.8743 66.2683C55.8743 68.0094 55.1004 69.1287 53.4422 69.8541Z" fill="#231F20"/>
<path d="M63.6744 64.0779C61.5878 64.0779 60.51 65.7775 60.51 69.087C60.51 72.3966 61.6017 74.0548 63.5915 74.0548C64.6693 74.0548 65.6574 73.4468 66.1272 72.4933C66.5348 71.6849 66.7352 70.5656 66.7352 69.17C66.7352 65.8259 65.6781 64.0779 63.6744 64.0779ZM63.55 76.017C60.1024 76.017 57.8292 73.2187 57.8292 69.0249C57.8292 64.831 60.2198 62.088 63.6468 62.088C67.0737 62.088 69.3192 64.8862 69.3192 69.0801C69.3192 73.274 67.0116 76.017 63.5431 76.017" fill="#231F20"/>
<path d="M153.302 42.1816C148.548 42.1816 141.625 43.8053 131.49 51.0876H153.302C155.762 51.0876 157.751 49.0978 157.751 46.6381C157.751 44.1784 155.762 42.1816 153.302 42.1816ZM153.302 28.4392H131.49C141.625 35.7215 148.548 37.3452 153.302 37.3452C155.762 37.3452 157.751 35.3484 157.751 32.8888C157.751 30.4291 155.762 28.4323 153.302 28.4323M153.744 23.9828C158.664 23.9828 162.65 27.9694 162.65 32.8888C162.65 35.6593 161.386 38.1259 159.41 39.7634C161.386 41.394 162.65 43.8675 162.65 46.6381C162.65 51.5574 158.664 55.544 153.744 55.544H119.233C128.063 46.6174 136.478 42.0296 143.063 39.7634C136.478 37.4972 128.063 32.9095 119.233 23.9828H153.744Z" fill="#E52713"/>
<path d="M163.765 24.2735V26.6848H163.419V24.2735H162.646V23.9764H164.532V24.2735H163.765Z" fill="#E52713"/>
<path d="M167.197 26.6847V24.3218L166.313 26.6847H166.085L165.2 24.3218V26.6847H164.91V23.9763H165.414L166.23 26.1458L167.031 23.9763H167.522V26.6847H167.197Z" fill="#E52713"/>
</svg>
