<svg width="200" height="100" viewBox="0 0 200 100" fill="none" xmlns="http://www.w3.org/2000/svg">
<path d="M81.4926 57.8543V39.109H84.3568V55.2798H93.4529V57.8543H81.4863H81.4926ZM98.3126 57.8543H101.177V39.109H98.3126V57.8543ZM115.762 54.302C116.637 53.3242 116.882 52.2164 116.882 48.5466C116.882 44.8768 116.631 43.6452 115.762 42.6674C115.013 41.9124 113.968 41.5101 112.898 41.5658C111.865 41.5163 110.858 41.9186 110.153 42.6674C109.278 43.6452 109.033 44.753 109.033 48.4228C109.033 52.0927 109.159 53.2004 110.153 54.1782C110.902 54.9333 111.947 55.3355 113.017 55.2798C114.037 55.3726 115.038 55.0137 115.762 54.302ZM117.883 40.947C119.753 42.785 119.753 44.8706 119.753 48.5404C119.753 52.2103 119.753 54.1782 117.883 56.0163C116.914 57.0002 115.649 57.6501 114.27 57.8543V60.9176H111.406V57.8543C110.065 57.6501 108.838 57.0002 107.919 56.0163C106.049 54.1782 106.049 52.0927 106.049 48.5404C106.049 44.9881 106.049 42.9026 107.919 41.0646C109.215 39.734 111.035 39.0161 112.904 39.1028C114.761 38.9543 116.593 39.6226 117.89 40.9408M124.613 57.8543H127.477V39.109H124.613V57.8543ZM142.308 42.9088C143.302 44.0103 143.302 45.7246 143.302 48.2991C143.302 50.8735 143.302 52.9529 142.308 53.9369C141.47 54.8033 140.281 55.2551 139.066 55.1622H135.578V41.6834H139.066C140.281 41.5906 141.47 42.0424 142.308 42.9088ZM144.303 56.14C146.298 54.0545 146.173 51.1149 146.173 48.4228C146.173 45.7308 146.298 43.0325 144.303 40.947C142.994 39.7402 141.237 39.1213 139.443 39.2327H132.84V57.978H139.443C141.237 57.9595 142.962 57.3035 144.303 56.14Z" fill="black"/>
<path d="M72.8931 46.2195C72.8931 46.2876 72.8427 46.3433 72.7734 46.3433H70.0289C69.7645 46.3433 69.5253 46.4795 69.4057 46.7084L63.5514 55.651C63.3626 55.948 63.0353 56.1337 62.6764 56.1399H60.3096C60.2256 56.1399 60.1837 56.0986 60.1837 56.0161L59.0632 54.3019V54.0543C59.0632 53.9862 59.1135 53.9305 59.1828 53.9305H61.6756C61.9399 53.9305 62.1791 53.7944 62.2988 53.5654L68.153 44.6229C68.3418 44.3258 68.6692 44.1402 69.028 44.134H71.6467C71.7306 44.134 71.7726 44.1752 71.7726 44.2577L72.8931 45.972V46.2195ZM57.9364 52.5876L56.8159 50.8734V50.6258C56.8159 50.5577 56.8663 50.502 56.9355 50.502H59.6801C59.8186 50.5206 59.9571 50.4711 60.0515 50.3783C60.1774 50.3783 60.1774 50.2545 60.3033 50.1307L66.1638 41.3181L66.5352 40.953C66.68 40.854 66.8563 40.8107 67.0325 40.8292H69.3994C69.4833 40.8292 69.5253 40.8705 69.5253 40.953L70.6458 42.6673V42.9148C70.6458 42.9829 70.5954 43.0386 70.5262 43.0386H68.0334C67.8949 43.02 67.7564 43.0695 67.662 43.1624C67.5361 43.1624 67.5361 43.2861 67.4102 43.4099L61.556 52.3524C61.4426 52.4515 61.3167 52.5319 61.1846 52.6C61.0398 52.699 60.8635 52.7423 60.6873 52.7238H58.0686C57.9993 52.7238 57.9427 52.6743 57.9427 52.6062M75.8831 47.81L75.3858 47.0736L70.4003 39.2326L70.2744 39.1088H66.0379C65.8617 39.0902 65.6854 39.1336 65.5406 39.2326C65.2888 39.3564 65.1692 39.4801 65.1692 39.5977L59.315 48.5403C59.1891 48.664 59.1891 48.7878 59.0632 48.7878C58.9625 48.8806 58.824 48.924 58.6918 48.9116H53.9517C53.8678 48.9116 53.8258 48.9528 53.8258 49.0353V49.2829L54.3231 50.0193L59.3087 57.8603L59.4346 57.9841H63.671C63.8473 58.0026 64.0236 57.9593 64.1683 57.8603L64.5397 57.4952L70.394 48.5526C70.394 48.4289 70.5199 48.4289 70.6458 48.3051C70.7717 48.3051 70.8976 48.1813 71.0172 48.1813H75.7509C75.8349 48.1813 75.8768 48.1401 75.8768 48.0575C76.0027 47.9338 76.0027 47.81 75.8768 47.81" fill="#00DEFC"/>
</svg>
