<svg width="200" height="100" viewBox="0 0 200 100" fill="none" xmlns="http://www.w3.org/2000/svg">
<path d="M59.7627 39H55.5838V42.3937H58.7196C59.7307 42.3937 60.3194 42.3937 61.0426 42.5575C64.1336 43.1668 65.2983 46.5408 65.2983 49.7641C65.2983 52.9875 64.1272 56.3681 61.0426 56.9708C60.3386 57.1346 59.7307 57.1346 58.7196 57.1346H55.5838V60.5283H59.7627C66.5782 60.5283 69.0101 54.7957 69.0101 49.7641C69.0101 44.7326 66.5782 39 59.7627 39ZM141.837 52.9416C140.666 53.1251 139.482 53.3216 138.234 53.5837C136.679 53.9113 134.874 54.455 134.874 56.0929C134.874 57.1739 135.662 58.1435 137.422 58.1435C140.013 58.1435 141.709 56.355 141.805 53.885C141.818 53.5247 141.837 52.9482 141.837 52.9482M145.344 50.6289V60.5414H142.253V58.3597C140.826 60.2793 139.066 61 136.718 61C133.307 61 131.419 58.8052 131.419 56.1191C131.419 53.6295 132.654 52.0899 135.022 51.2841C137.089 50.6093 139.681 50.3145 141.888 49.9738C141.741 47.9428 140.64 47.2549 138.657 47.2549C137.39 47.2549 135.694 47.779 135.214 49.5152L131.995 48.48C132.398 47.1173 133.134 46.0232 134.222 45.1846C135.31 44.3657 136.801 43.9398 138.657 43.9398C143.648 43.9398 145.056 46.7767 145.248 48.6897C145.312 49.2793 145.344 49.9214 145.344 50.6224M107.472 43.9464C105.392 43.9464 103.664 44.7653 102.32 46.5867V44.3919H99.1649V60.5414H102.736V52.2537C102.736 49.5021 103.728 47.3204 106.435 47.3204C109.366 47.3204 110.115 49.81 110.115 52.7778V60.561H113.685V51.5331C113.685 47.6021 112.15 43.9464 107.478 43.9464M93.0853 42.7868H96.605V39.0197H93.0853V42.7868ZM93.0853 60.5414H96.605V44.3919H93.0853V60.5414ZM87.0057 60.5414H90.5254V39H87.0057V60.5414ZM126.734 50.7469C126.459 48.4014 125.435 47.0911 123.099 47.0911C120.763 47.0911 119.388 48.2704 118.952 50.7469H126.728H126.734ZM130.318 53.4789H118.895C119.138 55.9684 120.431 57.626 122.958 57.626C124.686 57.626 125.966 56.8398 126.657 55.3133L130.132 56.3943C128.897 59.3752 126.145 61 123.157 61C118.274 61 115.106 57.4949 115.106 52.6468C115.106 47.1239 118.498 43.9333 122.946 43.9333C128.129 43.9529 130.708 47.9821 130.324 53.4854M81.8732 50.7469C81.598 48.4014 80.5741 47.0911 78.2383 47.0911C75.9024 47.0911 74.5265 48.2704 74.1105 50.7469H81.8732ZM85.4378 53.4789H74.0145C74.2577 55.9684 75.5504 57.626 78.0783 57.626C79.8061 57.626 81.0733 56.8398 81.7772 55.3133L85.2522 56.3943C84.0171 59.3752 81.2653 61 78.2767 61C73.3938 61 70.226 57.4949 70.226 52.6468C70.226 47.1239 73.6178 43.9333 78.0655 43.9333C83.2491 43.9529 85.8281 47.9821 85.4442 53.4854M55.5838 57.1477H52V42.3937H55.5838V57.1543V57.1477ZM147.04 59.6373V59.7225H146.733V60.5414H146.637V59.7225H146.33V59.6373H147.034H147.04ZM148 59.6373V60.5545H147.917V59.8469L147.597 60.5545H147.533L147.213 59.8469V60.5545H147.117V59.6373H147.2L147.552 60.4104L147.904 59.6373H148Z" fill="#231556"/>
</svg>
