<svg width="200" height="100" viewBox="0 0 200 100" fill="none" xmlns="http://www.w3.org/2000/svg">
<path d="M169.149 53.4022H166.756L165.56 55.4638L166.756 57.5254H169.149L170.346 55.4638L169.149 53.4022ZM164.112 46.156H161.136L159.05 49.7454C158.792 50.1196 158.7 50.3528 158.111 50.3773H156.681V42.4255H154.006V57.5254H156.681V52.8132H157.853C158.418 52.8377 158.534 53.0464 158.743 53.4022L161.111 57.5315H164.112L160.829 51.8315L164.112 46.156ZM152.055 47.2359C151.632 46.9046 151.19 46.6284 150.693 46.4137C149.944 46.0824 149.147 45.9228 148.325 45.9228C147.269 45.9228 146.214 46.2051 145.3 46.745C144.385 47.2604 143.612 48.009 143.072 48.9232C142.533 49.8129 142.226 50.8252 142.226 51.856C142.226 52.8868 142.508 53.9176 143.072 54.8134C143.612 55.7277 144.385 56.4762 145.3 56.9916C146.962 57.9549 148.981 58.0715 150.742 57.2984C151.208 57.0898 151.681 56.8075 152.08 56.4762L150.883 54.3901C150.552 54.7398 150.178 55.022 149.76 55.2123C149.312 55.4209 148.822 55.5436 148.355 55.5436C147.748 55.5436 147.159 55.3779 146.643 55.0527C146.128 54.7275 145.68 54.2551 145.398 53.7152C145.091 53.1507 144.932 52.5187 144.932 51.8867C144.932 51.2547 145.097 50.6228 145.398 50.0828C145.68 49.5429 146.122 49.0766 146.643 48.7453C147.159 48.4139 147.748 48.2544 148.355 48.2544C149.319 48.2544 150.233 48.6778 150.865 49.3772L151.779 47.782L152.061 47.242L152.055 47.2359ZM135.575 45.8983C134.145 45.8983 132.642 46.2971 131.047 47.0948L132.077 48.8986C133.016 48.4507 133.998 48.101 135.035 48.101C136.937 48.101 137.636 49.0889 137.753 50.3773H134.636C132.077 50.3773 129.991 51.9235 129.991 54.1508C129.991 56.378 131.82 57.7831 134.237 57.7831C135.55 57.7831 136.912 57.2922 137.753 56.2369V57.5254H140.446V50.7025C140.446 47.8188 138.569 45.8983 135.569 45.8983H135.575ZM137.753 53.6354C137.753 54.7153 136.673 55.8381 134.845 55.8381C133.581 55.8381 132.617 55.157 132.617 54.0772C132.617 52.9973 133.697 52.2978 135.035 52.2978H137.753V53.6354ZM125.346 42.4255H128.022V57.5254H125.346V42.4255ZM120.493 49.5552C121.898 48.8066 122.628 47.6776 122.628 46.2235C122.628 45.5424 122.438 44.8614 122.064 44.2785C121.665 43.6895 121.125 43.2231 120.493 42.9164C119.812 42.585 119.064 42.4255 118.192 42.4501H110.854V57.5254H118.475C119.389 57.5009 120.235 57.3352 120.959 56.9855C121.665 56.6541 122.248 56.1633 122.671 55.5313C123.095 54.8993 123.303 54.1692 123.279 53.4206C123.279 52.623 123.021 51.8499 122.555 51.1934C122.039 50.5123 121.358 49.9724 120.493 49.549V49.5552ZM113.486 44.8184H117.499C118.18 44.8184 118.72 44.9841 119.162 45.3338C119.585 45.6406 119.818 46.156 119.818 46.6714C119.818 47.1868 119.61 47.6347 119.162 47.9844C118.714 48.3342 118.174 48.4998 117.499 48.4998H113.486V44.8184ZM119.72 54.5496C119.254 54.9484 118.64 55.157 117.892 55.157H113.486V50.8682H117.892C118.64 50.8682 119.254 51.0768 119.72 51.4756C120.567 52.1996 120.683 53.4943 119.953 54.3349C119.904 54.3839 119.812 54.476 119.72 54.5435V54.5496ZM100.589 46.4812C99.9325 46.1069 99.1594 45.9167 98.4109 45.9167C97.7053 45.9167 97.0058 46.0824 96.3738 46.4076C95.7848 46.7143 95.2694 47.1561 94.8951 47.6961V46.1499H92.22V57.5254H94.8951V50.3528C94.9872 49.7454 95.3185 49.1809 95.8093 48.8312C96.3247 48.4078 96.9813 48.1992 97.6378 48.2237C98.3434 48.2237 98.9017 48.4569 99.3496 48.9477C99.7975 49.4386 100.031 50.0706 100.006 50.8498V57.5561H102.583V50.3344C102.608 49.5368 102.417 48.7637 102.043 48.0581C101.736 47.377 101.221 46.8371 100.589 46.4873V46.4812ZM87.5937 46.7389C85.7162 45.659 83.4214 45.659 81.5684 46.7389C80.6542 47.2543 79.8811 48.0028 79.3412 48.9171C78.8013 49.8067 78.4945 50.8191 78.4945 51.8499C78.4945 52.8807 78.7767 53.9115 79.3412 54.8073C79.8811 55.7215 80.6542 56.4701 81.5684 56.9855C83.446 58.0653 85.7407 58.0653 87.5937 56.9855C88.5079 56.4455 89.281 55.697 89.8209 54.8073C90.3609 53.9176 90.6676 52.9052 90.6676 51.8499C90.6676 50.7946 90.3854 49.7883 89.8209 48.9171C89.281 48.0028 88.5079 47.2543 87.5937 46.7389ZM87.5507 53.6845C87.2439 54.2244 86.8267 54.6907 86.2868 55.022C85.7714 55.3534 85.1824 55.5129 84.5749 55.5129C83.9675 55.5129 83.3785 55.3472 82.8631 55.022C82.3231 54.6907 81.8998 54.2244 81.5991 53.6845C81.2923 53.12 81.1328 52.488 81.1328 51.856C81.1328 51.2241 81.2985 50.5921 81.5991 50.0522C81.9059 49.5122 82.3477 49.0459 82.8631 48.7146C83.3785 48.3832 83.9675 48.2237 84.5749 48.2237C85.1824 48.2237 85.7714 48.3894 86.2868 48.7146C87.3667 49.3956 88.0232 50.5921 88.0232 51.856C88.0477 52.488 87.882 53.12 87.5569 53.6845H87.5507ZM74.5615 46.6714C73.7639 46.156 72.8251 45.8983 71.8863 45.9228C70.3156 45.8983 68.8124 46.6714 67.9472 47.9844V42.4501H65.2721V57.5499H67.9472V55.7215C68.8124 57.0346 70.3156 57.8076 71.8863 57.7831C72.8251 57.8076 73.7639 57.5254 74.5615 57.0346C75.3591 56.5192 76.0157 55.789 76.4145 54.9239C76.8808 53.9606 77.1201 52.9052 77.1201 51.8499C77.1201 50.7946 76.8869 49.7392 76.4145 48.8005C76.0157 47.9353 75.3591 47.1807 74.5615 46.6653V46.6714ZM73.5062 54.4821C72.8987 55.1632 72.1011 55.5129 71.1623 55.5129C70.2236 55.5129 69.4505 55.1632 68.8615 54.4821C68.254 53.8011 67.9472 52.9114 67.9472 51.856C67.9472 50.8007 68.2786 49.911 68.8615 49.23C69.4505 48.5489 70.2236 48.1992 71.1623 48.1992C72.1011 48.1992 72.8987 48.5489 73.5062 49.23C74.1136 49.911 74.4204 50.7762 74.4204 51.856C74.4449 52.9114 74.1136 53.8011 73.5062 54.4821ZM59.1978 48.009V46.1805H56.5226V57.5561H59.1978V52.0708C59.1978 50.9909 59.572 50.1258 60.3206 49.4693C61.0691 48.8127 62.057 48.555 63.2534 48.555V46.1867C62.0324 46.1621 60.02 47.0518 59.1978 48.0151V48.009ZM49.6568 45.8983C48.2272 45.8983 46.7239 46.2971 45.1287 47.0948L46.1595 48.8986C47.0982 48.4507 48.0799 48.101 49.1169 48.101C51.0189 48.101 51.7184 49.0889 51.835 50.3773H48.718C46.1595 50.3773 44.0733 51.9235 44.0733 54.1508C44.0733 56.378 45.9018 57.7831 48.3192 57.7831C49.6323 57.7831 50.9944 57.2922 51.835 56.2369V57.5254H54.5285V50.7025C54.5285 47.8188 52.651 45.8983 49.6507 45.8983H49.6568ZM51.835 53.6354C51.835 54.7153 50.7551 55.8381 48.9266 55.8381C47.6627 55.8381 46.6994 55.157 46.6994 54.0772C46.6994 52.9973 47.7793 52.2978 49.1169 52.2978H51.835V53.6354ZM41.3307 53.6354C39.312 55.697 36.0049 55.7706 33.9433 53.752C31.8817 51.7333 31.8081 48.4262 33.8268 46.3646C35.8454 44.303 39.1525 44.2294 41.2141 46.248C41.2632 46.2971 41.2816 46.3155 41.3307 46.3646L42.6437 44.0883C41.2141 42.8673 39.3857 42.1862 37.5082 42.1862C33.1702 42.1924 29.6545 45.6836 29.6545 50.0031C29.6545 54.3226 33.1702 57.8138 37.5082 57.8138C39.3857 57.8138 41.2141 57.1573 42.6437 55.9363L41.3307 53.6354Z" fill="#0A0A0A"/>
</svg>
