<svg width="200" height="100" viewBox="0 0 200 100" fill="none" xmlns="http://www.w3.org/2000/svg">
<path fill-rule="evenodd" clip-rule="evenodd" d="M29.6872 38.5655C29.6872 38.5655 29.443 38.6395 29.1839 38.6691C28.3623 38.7432 27.6369 38.8764 27.674 38.9356C27.6962 38.9726 27.6295 38.9726 27.5333 38.9504C27.4371 38.9282 27.3557 38.9356 27.3557 38.9726C27.3557 39.0096 27.104 39.091 26.8005 39.1651C26.4971 39.2317 26.2454 39.3131 26.2454 39.3427C26.2454 39.3723 26.0382 39.4463 25.7939 39.5129C25.5422 39.5796 25.3424 39.661 25.3424 39.6906C25.3424 39.7202 25.1869 39.8016 24.9945 39.8608C24.802 39.9275 24.6096 40.0163 24.5578 40.0607C24.5134 40.1051 24.3283 40.2013 24.1581 40.2753C23.9878 40.3494 23.8176 40.453 23.788 40.4974C23.7584 40.5492 23.6992 40.5862 23.6548 40.5862C23.6104 40.5862 23.3661 40.7342 23.0996 40.9193C22.8332 41.1043 22.5593 41.282 22.4927 41.319C22.4261 41.356 22.2928 41.4596 22.204 41.541C22.1152 41.6225 21.8265 41.8741 21.56 42.0962C21.2936 42.3182 20.9383 42.6587 20.7607 42.8438C20.583 43.0288 20.2943 43.3397 20.1167 43.5247C19.939 43.7098 19.791 43.8726 19.791 43.8874C19.791 43.9392 19.5468 44.2945 19.4653 44.3685C19.4209 44.4056 19.2655 44.6276 19.1174 44.8571C18.9694 45.0865 18.8214 45.2864 18.7918 45.3012C18.7622 45.316 18.7548 45.353 18.777 45.39C18.7992 45.427 18.7844 45.4566 18.7548 45.4566C18.7252 45.4566 18.6289 45.5898 18.5623 45.7527C18.4883 45.9155 18.3921 46.0858 18.3403 46.1376C18.2884 46.1894 18.2514 46.256 18.2514 46.2856C18.2514 46.3152 18.1922 46.4855 18.1182 46.6631C18.0442 46.8408 17.985 47.0036 17.985 47.0258C17.985 47.048 17.9554 47.085 17.9184 47.1146C17.8369 47.1664 17.4668 48.3063 17.5187 48.3581C17.5409 48.3803 17.5557 48.3581 17.5557 48.3211C17.5557 48.2841 17.7481 48.1953 17.9924 48.1213C18.2366 48.0472 18.4661 47.951 18.5179 47.8992C18.5697 47.8474 18.6733 47.8104 18.7474 47.8104C18.8214 47.8104 18.9028 47.766 18.925 47.7068C18.9472 47.6476 19.0212 47.6031 19.0952 47.6031C19.1693 47.6031 19.2285 47.5735 19.2285 47.5439C19.2285 47.5143 19.3913 47.4329 19.5838 47.3663C19.7836 47.2997 19.9909 47.196 20.0501 47.122C20.1093 47.048 20.2943 46.9592 20.4572 46.9074C20.62 46.8556 20.7533 46.7889 20.7533 46.7593C20.7533 46.6853 21.6933 46.2486 21.9894 46.182C22.1152 46.1524 22.2188 46.108 22.2188 46.0784C22.2188 46.0488 22.4631 45.9525 22.7591 45.8563C23.0552 45.7675 23.3069 45.6639 23.3217 45.6417C23.3365 45.612 23.5215 45.538 23.7362 45.4714C23.9508 45.4048 24.1729 45.3086 24.2247 45.2568C24.2765 45.205 24.3357 45.1679 24.3653 45.1679C24.58 45.1679 25.2462 45.0199 25.2758 44.9681C25.298 44.9311 25.4386 44.8867 25.594 44.8645C25.7495 44.8423 25.9715 44.7978 26.09 44.7534C26.2084 44.709 26.3342 44.6868 26.3712 44.6942C26.4897 44.7238 27.1262 44.598 27.215 44.5314C27.2743 44.487 27.3039 44.487 27.3039 44.5388C27.3039 44.5832 27.3483 44.6202 27.4075 44.6202C27.4667 44.6202 27.5111 44.5906 27.5111 44.5536C27.5111 44.5166 27.5555 44.487 27.6147 44.487C27.674 44.487 27.7184 44.524 27.7184 44.5758C27.7184 44.635 27.7406 44.6276 27.7924 44.561C27.8442 44.4796 27.8738 44.4796 27.9034 44.5462C27.9478 44.6498 28.3475 44.6646 28.3475 44.561C28.3475 44.4574 28.6806 44.4722 28.7102 44.5684C28.725 44.6128 28.9841 44.6572 29.3616 44.672C30.0795 44.7016 30.124 44.709 30.6643 44.8275C30.8863 44.8793 31.064 44.9459 31.064 44.9829C31.064 45.0199 31.1232 45.0495 31.1898 45.0495C31.3453 45.0495 31.745 45.242 31.9152 45.3974C31.9818 45.464 32.1076 45.501 32.1965 45.4788C32.3149 45.4566 32.3741 45.4936 32.4333 45.6269C32.4777 45.7231 32.5592 45.8045 32.6036 45.8045C32.7664 45.8045 33.0699 45.9747 33.0699 46.0636C33.0699 46.108 33.0995 46.1524 33.1365 46.1524C33.1735 46.1524 33.2253 46.2264 33.2475 46.3078C33.2771 46.3966 33.3586 46.5077 33.4252 46.5521C33.4918 46.5965 33.5584 46.6779 33.5584 46.7297C33.5584 46.7741 33.6398 46.8852 33.7286 46.974C33.8249 47.0628 33.8989 47.1812 33.8989 47.233C33.8989 47.2849 33.9285 47.3293 33.9655 47.3293C34.0025 47.3293 34.0321 47.3885 34.0321 47.4699C34.0321 47.5513 34.0617 47.6105 34.1061 47.6105C34.1505 47.6105 34.417 47.7882 34.7131 48.0102C35.9788 48.9577 36.4747 49.2685 37.3999 49.7201C38.4584 50.2308 38.3622 50.2234 38.6657 49.8459C38.8137 49.6682 38.9839 49.461 39.0506 49.387C39.1172 49.313 39.169 49.2315 39.169 49.2019C39.169 49.1723 39.2134 49.1057 39.2578 49.0613C39.5243 48.7948 39.5169 48.7134 39.169 48.3137C38.9839 48.0991 38.7767 47.8178 38.7027 47.6846C38.6287 47.5513 38.5324 47.4033 38.4806 47.3515C38.4362 47.2997 38.3918 47.2256 38.3918 47.1812C38.3918 47.1368 38.3178 46.9444 38.2216 46.7445C37.807 45.8711 37.807 43.4803 38.2216 43.0214C38.2734 42.9622 38.3178 42.866 38.3178 42.7994C38.3178 42.7327 38.4288 42.5255 38.562 42.3256C38.6953 42.1258 38.8063 41.9407 38.8063 41.9037C38.8063 41.7409 37.0373 40.7565 36.0602 40.379C35.0314 39.9719 34.9722 39.9423 35.0906 39.8756C35.1498 39.8386 35.246 39.8312 35.2978 39.8534C35.4977 39.9275 35.7049 39.8016 35.5791 39.6758C35.4755 39.5722 35.4903 39.5648 35.7123 39.5204C36.0232 39.4611 35.964 39.3797 35.5347 39.2687C35.3422 39.2169 35.1868 39.1577 35.1868 39.1281C35.1868 39.0984 35.0462 39.0614 34.8759 39.0318C34.7057 39.0096 34.5502 38.9578 34.528 38.9208C34.5058 38.8838 34.4466 38.8764 34.3874 38.8986C34.3282 38.9208 34.2468 38.8986 34.195 38.8616C34.1431 38.8172 33.7583 38.7506 33.3289 38.6987C32.8996 38.6469 32.5518 38.5951 32.5518 38.5655C32.5518 38.4989 29.7169 38.4915 29.6724 38.5655M40.1978 49.9347C39.8129 50.4899 39.9388 50.5861 40.901 50.4973C41.9965 50.3936 43.0846 50.1124 42.4036 50.1124C42.1075 50.1124 41.2637 49.8977 41.2637 49.8237C41.2637 49.7867 41.2193 49.7719 41.1601 49.7941C41.1009 49.8163 41.0565 49.8089 41.0565 49.7793C41.0565 49.7275 40.6568 49.5572 40.5309 49.5572C40.4939 49.5572 40.3459 49.7275 40.2052 49.9347" fill="#F07CB6"/>
<path fill-rule="evenodd" clip-rule="evenodd" d="M35.0491 49.0393C34.9307 49.1577 34.6568 49.1799 34.6568 49.0763C34.6568 49.0393 34.5754 49.0097 34.4866 49.0097C34.3978 49.0097 34.309 49.0467 34.309 49.0985C34.309 49.1577 34.2867 49.1503 34.2423 49.0837C34.1831 48.9875 34.1683 48.9875 34.1091 49.0837C34.0573 49.1577 33.9019 49.1873 33.5392 49.1947C33.2579 49.1947 32.9026 49.2243 32.7398 49.2465C32.5695 49.2687 32.4289 49.2613 32.4067 49.2169C32.3697 49.1503 31.9552 49.1651 31.4 49.2539C31.3038 49.2687 31.0892 49.2983 30.9189 49.3206C30.7487 49.3428 30.5858 49.3946 30.5562 49.4464C30.5118 49.513 30.5044 49.513 30.497 49.4464C30.497 49.402 30.4304 49.3576 30.3564 49.3576C30.2824 49.3576 30.2157 49.3946 30.2157 49.4464C30.2157 49.5056 30.1935 49.4982 30.1491 49.4316C30.1047 49.365 30.0825 49.3576 30.0825 49.4168C30.0825 49.4612 30.0159 49.5056 29.9419 49.5056C29.8679 49.5056 29.8012 49.4686 29.8012 49.4168C29.8012 49.3576 29.7864 49.3502 29.7494 49.402C29.6606 49.5352 29.2387 49.6462 29.1351 49.5648C29.0833 49.5204 29.0092 49.513 28.9574 49.5426C28.913 49.5722 28.7132 49.6018 28.5207 49.6092C28.3283 49.6166 28.01 49.6462 27.8176 49.6684C27.4401 49.7203 27.1144 49.587 26.5518 49.1725C26.426 49.0763 26.3224 49.0393 26.3224 49.0763C26.3224 49.1133 26.389 49.1799 26.463 49.2243C26.6185 49.3058 28.2395 50.5196 28.3949 50.6603C28.4467 50.7121 28.5133 50.7491 28.5503 50.7491C28.654 50.7491 28.6244 50.8601 28.4615 51.0452C27.8546 51.7335 27.5215 52.3257 27.7213 52.3849C27.7954 52.4071 27.8546 52.4589 27.8546 52.4959C27.8546 52.5329 27.9064 52.5848 27.973 52.607C28.0692 52.644 29.0907 53.3619 29.3423 53.584C29.3793 53.6136 29.6014 53.7839 29.8309 53.9541C30.0603 54.1243 30.2824 54.3094 30.3342 54.3686C30.3786 54.4278 30.423 54.45 30.423 54.4204C30.423 54.3908 30.4822 54.4204 30.5488 54.4796C31.0744 54.9459 31.2372 55.0126 31.4074 54.8127C31.9182 54.1984 33.9167 53.9319 34.7679 54.3686C34.9159 54.4426 35.0787 54.5092 35.1232 54.5092C35.1972 54.5092 35.8485 53.7246 35.8485 53.6284C35.8485 53.6062 35.9151 53.5174 35.9966 53.436C36.078 53.3545 36.3445 53.0215 36.5887 52.6958C36.833 52.3701 37.0846 52.0444 37.1364 51.963C37.1957 51.889 37.4547 51.5411 37.7138 51.2006C37.9729 50.8601 38.2393 50.5122 38.2985 50.4456C38.454 50.268 38.417 50.231 37.9877 50.0903C37.6176 49.9719 36.2482 49.2835 36.0558 49.1207C35.9226 49.0097 35.4858 48.9949 35.4118 49.1059C35.3748 49.1577 35.36 49.1503 35.36 49.0689C35.36 48.9209 35.1972 48.9135 35.0565 49.0541M45.0416 49.7943C44.8269 49.9497 43.9017 50.1125 43.2652 50.1125C42.8359 50.1125 42.6804 50.1348 42.6212 50.2236C42.451 50.4604 39.8011 50.6751 39.8011 50.453C39.8011 50.3716 39.6827 50.5122 38.8241 51.6447C38.6316 51.8964 38.4244 52.1777 38.3652 52.2739C38.3059 52.3701 38.1579 52.5552 38.0543 52.6884C37.9507 52.8216 37.8322 52.9623 37.81 52.9993C37.2179 53.8061 36.9884 54.1169 36.4777 54.7609C36.0706 55.2716 36.078 55.2568 36.2852 55.5085C36.7145 56.034 36.9662 56.7594 36.9662 57.4848C36.9662 57.9141 37.0698 58.0547 37.1068 57.6698C37.129 57.4774 37.1883 57.4107 37.5435 57.2109C38.5428 56.6484 39.8085 55.7379 41.7034 54.2132C44.5235 51.9482 44.7233 51.9186 44.6493 53.8431C44.4272 59.424 40.4969 64.4647 35.0713 66.1301C34.1461 66.4114 34.1165 66.4188 34.0795 66.2115L34.0499 66.0561V66.2115C34.0351 66.3003 34.0055 66.3669 33.9685 66.3669C33.85 66.3669 33.8204 65.9006 33.8945 65.2419C33.9389 64.8718 33.9537 64.3907 33.9389 64.1612C33.9167 63.9392 33.8722 63.4136 33.8352 62.9917C33.7982 62.5402 33.739 62.2219 33.6946 62.2071C33.5984 62.1775 33.591 61.9111 33.6872 61.9111C33.7242 61.9111 33.7538 61.8666 33.7538 61.8074C33.7538 61.7482 33.7242 61.7038 33.6872 61.7038C33.6502 61.7038 33.6206 61.6594 33.6206 61.6002C33.6206 61.541 33.591 61.4966 33.554 61.4966C33.517 61.4966 33.4874 61.4373 33.4874 61.3559C33.4874 61.2597 33.4429 61.2153 33.3467 61.2153C33.2727 61.2153 33.2061 61.1857 33.2061 61.1561C33.2061 61.1265 33.0877 61.0746 32.947 61.0598C31.5777 60.8748 30.4896 59.8385 30.0825 58.3212C29.8975 57.6402 29.9641 56.9148 30.2824 56.1228C30.3638 55.923 30.2231 55.5973 30.0529 55.5899C30.0159 55.5899 29.8605 55.4789 29.6902 55.3456C29.5274 55.2124 29.3719 55.1014 29.3497 55.1014C29.3127 55.1014 28.3653 54.3538 28.0988 54.1095C28.0248 54.0429 27.9434 53.9837 27.9212 53.9837C27.899 53.9837 27.7879 53.9023 27.6769 53.8061C27.5659 53.7098 27.4179 53.6136 27.3512 53.5914C27.2846 53.5692 27.2328 53.5248 27.2328 53.4878C27.2328 53.4286 26.8775 53.2139 26.7813 53.2139C26.7591 53.2139 26.7443 53.2509 26.7443 53.2879C26.7443 53.3768 26.3298 53.9171 26.204 53.9985C26.1595 54.0281 26.1151 54.0947 26.1151 54.1391C26.1151 54.1836 26.0263 54.3094 25.9227 54.413L25.7302 54.5981L25.4712 54.3834C25.3305 54.265 25.0493 54.0503 24.8494 53.9023C24.6496 53.7542 24.4053 53.5692 24.3165 53.4878C24.2203 53.4064 23.865 53.1399 23.5245 52.8882C22.8953 52.4293 22.5549 52.1629 22.3698 52C22.3106 51.9482 22.1922 51.8668 22.1108 51.8224C21.9479 51.741 22.0293 51.4819 22.2662 51.3116C22.3106 51.2746 22.3106 51.2598 22.2662 51.2598C22.1922 51.2598 21.8887 51.6225 21.8887 51.7113C21.8887 51.7335 21.9701 51.8298 22.0589 51.926C22.2884 52.1555 22.281 52.2147 22.0145 52.2665C21.7629 52.3183 21.6222 52.4367 21.6592 52.5552C21.674 52.5996 21.6 52.6514 21.489 52.681C21.378 52.7032 21.2447 52.7846 21.1929 52.8586C21.1411 52.9326 21.0523 52.9919 21.0079 52.9919C20.9635 52.9919 20.9191 53.0363 20.9191 53.0955C20.9191 53.1547 20.8598 53.1991 20.7858 53.1991C20.7118 53.1991 20.6378 53.2435 20.6156 53.3027C20.5934 53.3619 20.5342 53.4064 20.4824 53.4064C20.4305 53.4064 20.3565 53.4656 20.3047 53.547C20.2603 53.621 20.1715 53.6876 20.1123 53.6876C20.053 53.6876 19.9568 53.7394 19.8902 53.8061C19.8236 53.8727 19.6163 54.0207 19.4387 54.1391C19.1204 54.339 19.0168 54.5462 19.1944 54.6129C19.2388 54.6277 19.1796 54.6647 19.0538 54.6943C18.928 54.7239 18.8243 54.7683 18.8243 54.7979C18.8243 54.8275 18.7429 54.8719 18.6541 54.9015C18.5579 54.9237 18.4765 54.9755 18.4765 55.02C18.4765 55.1162 18.2988 55.2938 18.2026 55.2938C18.1582 55.2938 18.1286 55.3382 18.1286 55.39C18.1286 55.4419 18.0472 55.5085 17.9509 55.5307C17.8547 55.5529 17.7733 55.6047 17.7733 55.6417C17.7733 55.6787 17.7363 55.7083 17.6993 55.7083C17.603 55.7083 17.4254 55.886 17.4254 55.9822C17.4254 56.0266 17.381 56.0562 17.3292 56.0562C17.2774 56.0562 17.2107 56.1006 17.1959 56.1598C17.1367 56.3153 16.9739 56.2857 16.8851 56.108C16.8184 55.9748 16.811 55.997 16.8481 56.2635C16.8703 56.4337 16.9147 56.6039 16.9369 56.6484C16.9665 56.6854 17.0405 56.9518 17.1145 57.2405C17.1811 57.5292 17.2626 57.7956 17.2922 57.8326C17.3144 57.8697 17.381 58.0399 17.4328 58.2175C17.5808 58.7135 18.6541 60.8748 18.8169 61.0006C18.8391 61.0228 18.9206 61.1561 19.002 61.2967C19.076 61.4373 19.1574 61.5558 19.187 61.5558C19.2166 61.5558 19.2536 61.615 19.2759 61.6816C19.2981 61.7482 19.3795 61.874 19.4535 61.9555C19.5275 62.0369 19.7348 62.2811 19.9124 62.5032C20.2899 62.9769 21.2891 63.9688 21.7777 64.3685C21.9701 64.5239 22.17 64.6941 22.2292 64.7534C22.2884 64.8126 22.5401 64.9902 22.7917 65.1531C23.036 65.3159 23.2876 65.4861 23.3395 65.5305C23.4653 65.6416 23.7466 65.797 24.6422 66.2337C25.0197 66.4188 25.4046 66.6112 25.5008 66.6556C25.597 66.7074 25.7969 66.7815 25.9523 66.8259C26.1077 66.8703 26.3298 66.9591 26.4556 67.0109C26.5815 67.0701 26.9219 67.1663 27.218 67.2256C27.5141 67.2922 27.7731 67.3588 27.7879 67.3884C27.8694 67.4994 29.446 67.6771 30.6747 67.7067C32.2809 67.7511 34.6716 67.5512 34.6716 67.3662C34.6716 67.3366 34.7309 67.307 34.7975 67.307C34.9677 67.307 36.0114 67.0331 36.0928 66.9665C36.1298 66.9369 36.2556 66.8925 36.3741 66.8629C36.7886 66.7666 38.5428 65.9006 39.1201 65.5083C39.1794 65.4713 39.3422 65.3603 39.4828 65.2641C39.8307 65.0346 40.1564 64.7978 40.3118 64.6719C40.3784 64.6127 40.5487 64.4721 40.6893 64.3611C40.9336 64.1612 42.1845 62.9399 42.3547 62.7253C42.3991 62.666 42.599 62.4366 42.784 62.2071C42.9691 61.9777 43.1911 61.6816 43.2652 61.5484C43.3392 61.4151 43.4354 61.2819 43.4798 61.2523C43.5242 61.2227 43.5982 61.1043 43.6427 60.9932C43.6871 60.8822 43.7537 60.786 43.7833 60.786C43.8129 60.786 43.8943 60.6527 43.9609 60.4899C44.0349 60.3271 44.109 60.179 44.1386 60.1568C44.22 60.0902 44.4791 59.5425 44.4791 59.4314C44.4791 59.3722 44.5087 59.3278 44.5383 59.3278C44.5679 59.3278 44.6567 59.1576 44.7233 58.9429C44.7899 58.7283 44.8714 58.558 44.901 58.558C44.9306 58.558 44.9972 58.3656 45.0638 58.1213C45.1304 57.8771 45.2266 57.5958 45.2785 57.4774C45.3303 57.3663 45.4265 56.9888 45.4857 56.641C45.5449 56.2931 45.6263 55.9526 45.6633 55.8786C45.9372 55.2272 45.9298 50.6159 45.6559 50.3198C45.6189 50.2828 45.5967 50.1866 45.5967 50.0977C45.5967 50.0089 45.5523 49.8979 45.4931 49.8387C45.4339 49.7795 45.4117 49.7203 45.4339 49.698C45.5227 49.6092 45.2044 49.661 45.0638 49.7499M139.459 50.194C139.459 50.194 139.304 50.2532 139.163 50.2532C138.823 50.2532 138.075 50.4308 137.69 50.6085C136.92 50.9564 136.195 51.3783 135.988 51.6077C135.951 51.6521 135.847 51.7335 135.766 51.7928C135.218 52.1703 134.271 53.6284 134.041 54.4648C133.974 54.6943 133.908 54.9311 133.886 54.9829C133.797 55.2198 133.782 55.3382 133.745 56.2487C133.708 57.2405 133.841 58.1435 134.13 58.8023C134.189 58.9355 134.234 59.0688 134.226 59.0984C134.219 59.128 134.241 59.1502 134.271 59.1502C134.3 59.1502 134.374 59.276 134.426 59.4388C134.478 59.5943 134.559 59.7423 134.604 59.7571C134.648 59.7719 134.737 59.9052 134.803 60.0532C134.937 60.3567 136.084 61.4966 136.447 61.689C137.387 62.1923 137.883 62.4144 138.149 62.4588C138.319 62.481 138.453 62.5254 138.453 62.555C138.453 62.629 139.578 62.7623 140.192 62.7623C140.806 62.7623 141.931 62.629 141.931 62.5476C141.931 62.518 142.065 62.4736 142.228 62.444C142.39 62.4144 142.753 62.2885 143.027 62.1627C143.308 62.0369 143.56 61.9259 143.589 61.9259C143.619 61.9259 143.7 61.8666 143.775 61.7852C143.841 61.7112 143.945 61.6446 143.997 61.6446C144.048 61.6446 144.13 61.5854 144.174 61.504C144.219 61.4299 144.285 61.3633 144.322 61.3633C144.433 61.3633 145.455 60.2752 145.61 59.994C145.655 59.9126 145.729 59.8089 145.773 59.7571C145.847 59.6757 146.188 59.0391 146.21 58.9355C146.21 58.9133 146.254 58.8171 146.291 58.7135C146.336 58.6098 146.41 58.3286 146.454 58.0843C146.506 57.8401 146.572 57.6254 146.609 57.5958C146.706 57.5292 146.698 55.3604 146.609 55.2346C146.565 55.1828 146.498 54.9459 146.454 54.7091C146.41 54.4722 146.276 54.0873 146.165 53.8579C146.054 53.6284 145.958 53.4212 145.958 53.3842C145.958 53.3471 145.914 53.2657 145.854 53.1917C145.795 53.1177 145.61 52.8586 145.433 52.6292C144.84 51.8224 143.649 50.9119 142.864 50.6603C142.709 50.6085 142.568 50.5493 142.553 50.5196C142.531 50.49 142.25 50.416 141.924 50.3568C141.598 50.2976 141.169 50.2162 140.977 50.1718C140.562 50.0903 139.504 50.0977 139.452 50.1866M122.465 56.4041V62.4884H125.248V58.9577L126.795 58.9281C127.676 58.9133 128.401 58.8689 128.482 58.8245C128.556 58.7875 128.838 58.6987 129.104 58.6394C129.371 58.5728 129.607 58.4988 129.622 58.4692C129.644 58.4396 129.741 58.3952 129.837 58.3656C130.629 58.1731 131.717 56.937 131.969 55.9526C132.198 55.057 132.25 53.7913 132.057 53.5544C132.028 53.5174 131.983 53.3619 131.954 53.2065C131.835 52.5552 130.969 51.3635 130.392 51.0748C130.296 51.023 130.133 50.9342 130.037 50.8749C129.94 50.8157 129.704 50.7195 129.519 50.6677C129.334 50.6159 129.141 50.5567 129.104 50.5271C128.904 50.379 127.831 50.3198 125.248 50.3198H122.465V56.4041ZM149.126 50.4752C149.111 50.5196 149.104 53.2657 149.111 56.5743L149.126 62.5846L150.377 62.6068C151.065 62.6216 151.702 62.6068 151.783 62.592L151.939 62.555V50.3938H150.547C149.496 50.3938 149.148 50.416 149.119 50.4826M155.121 51.0008C155.07 52.1999 155.07 62.4588 155.121 62.5402C155.166 62.6068 155.484 62.6216 156.491 62.6068L157.808 62.5846L157.845 58.9355C157.868 56.9296 157.89 55.279 157.897 55.2642C157.927 55.2272 158.082 55.4123 158.415 55.8564C158.593 56.0932 158.778 56.3375 158.83 56.3967C158.882 56.4559 159.015 56.6188 159.118 56.7668C159.281 56.9888 159.607 57.4181 160.31 58.3508C160.651 58.8023 161.021 59.276 161.132 59.387C161.198 59.461 161.272 59.5795 161.295 59.6461C161.317 59.7127 161.369 59.7719 161.398 59.7719C161.428 59.7719 161.487 59.8237 161.509 59.8904C161.554 60.0088 162.22 60.8896 162.538 61.2449C162.634 61.3485 162.708 61.4595 162.708 61.4966C162.708 61.5336 162.775 61.6298 162.856 61.7186C162.938 61.8074 163.13 62.0517 163.278 62.2515L163.56 62.6142H165.891L165.928 62.2811C165.943 62.0961 165.958 59.3574 165.95 56.182V50.4086H163.226L163.212 54.0059C163.189 57.9881 163.226 57.7512 162.782 57.1147C162.686 56.9814 162.575 56.8334 162.523 56.7816C162.472 56.7298 162.434 56.6632 162.434 56.641C162.434 56.6188 162.383 56.5299 162.316 56.4485C162.02 56.108 159.792 53.1695 159.792 53.1103C159.792 53.0807 159.725 52.9919 159.637 52.9104C159.466 52.7402 159.304 52.5403 158.896 51.9704C158.748 51.7632 158.578 51.5411 158.526 51.4819C158.475 51.4227 158.393 51.3116 158.349 51.2302C158.304 51.1488 158.23 51.0378 158.186 50.986C158.141 50.9342 158.008 50.7787 157.905 50.6307L157.712 50.3716H155.159L155.129 50.9786L155.121 51.0008ZM168.208 51.7039V53.0363H171.842L171.813 57.8178L171.783 62.5994L173.16 62.6586C173.915 62.6956 174.559 62.6956 174.588 62.6734C174.618 62.6512 174.648 60.4677 174.662 57.8326L174.685 53.0437H178.356V51.7928C178.356 51.1044 178.326 50.5271 178.297 50.5048C178.267 50.4826 175.98 50.4456 173.219 50.4234L168.208 50.379V51.7113V51.7039ZM179.888 50.6677C179.888 50.8601 179.91 50.8749 180.132 50.8749H180.377V52.2739L180.599 52.2517L180.828 52.2295L180.85 51.5485L180.872 50.8675H181.117C181.339 50.8675 181.361 50.8527 181.361 50.6603V50.453H179.903V50.6603L179.888 50.6677ZM181.701 51.3635V52.2665H182.116V51.3264L182.301 51.5855C182.523 51.9038 182.627 51.9112 182.79 51.6299L182.915 51.4153L182.952 51.8224C182.989 52.2221 182.989 52.2295 183.211 52.2517L183.441 52.2739V50.4604H183.234C183.063 50.4604 182.989 50.5197 182.797 50.8009L182.567 51.1414L182.331 50.8009C182.146 50.5271 182.057 50.4604 181.894 50.4604H181.694V51.3635H181.701ZM22.6141 50.7713C22.5104 50.9045 22.4216 51.0378 22.4216 51.0674C22.4216 51.1266 22.6585 50.8527 22.7695 50.6529C22.8805 50.4678 22.8213 50.5048 22.6067 50.7713M141.273 52.9548C142.361 53.3397 143.094 54.0133 143.404 54.9015C143.478 55.1162 143.582 55.3382 143.626 55.3974C143.812 55.6195 143.73 57.2627 143.501 57.8697C142.575 60.3567 139.474 60.9414 137.609 58.9873C137.461 58.8319 137.342 58.6691 137.342 58.6246C137.342 58.5802 137.313 58.5358 137.276 58.5358C137.239 58.5358 137.113 58.3286 137.002 58.0769C136.573 57.1591 136.55 55.812 136.95 54.9681C137.054 54.7535 137.135 54.5536 137.135 54.524C137.135 54.3094 138.453 53.0289 138.46 53.2361C138.46 53.2657 138.49 53.2435 138.519 53.1991C138.778 52.792 140.399 52.6514 141.28 52.9623M128.009 52.9919C128.815 53.1991 129.208 53.6654 129.26 54.4648C129.304 55.168 128.904 56.0266 128.534 56.0266C128.49 56.0266 128.423 56.071 128.394 56.1228C128.29 56.3079 127.787 56.3745 126.513 56.3745H125.248V52.8956H126.447C127.231 52.8956 127.772 52.9252 128.009 52.9919Z" fill="#DF116E"/>
<path fill-rule="evenodd" clip-rule="evenodd" d="M43.7985 52.6964C43.4432 52.8889 43.31 52.9851 41.6446 54.3248C40.2826 55.4203 38.6838 56.6046 38.3433 56.7896C38.1583 56.8858 38.0399 57.0413 38.0177 57.2115C37.9436 57.8259 37.84 59.1138 37.84 59.3506C37.84 59.5135 37.8178 59.6467 37.7882 59.6467C37.7364 59.6467 37.6402 60.4609 37.5365 61.7636C37.5143 62.0671 37.4625 62.3336 37.4329 62.3558C37.4033 62.378 37.3589 62.8591 37.3293 63.4365C37.3071 64.0064 37.2627 64.5097 37.2405 64.5467C37.2183 64.5837 37.1813 64.7614 37.1591 64.9464C37.1072 65.3313 37.1591 65.3387 37.7216 64.9908C37.8992 64.8798 38.0769 64.791 38.1213 64.791C38.1657 64.791 38.2027 64.7688 38.2175 64.7392C38.2323 64.7096 38.447 64.5467 38.6912 64.3839C39.9125 63.5623 41.8222 61.6082 42.4143 60.5793C42.4736 60.4757 42.629 60.2093 42.7548 60.002C43.8059 58.27 44.4646 56.2049 44.6127 54.1768C44.7311 52.5854 44.5683 52.3041 43.7985 52.7112M30.2976 55.9162C30.342 56.0124 30.3864 56.0568 30.4012 56.0198C30.4382 55.9236 30.3568 55.746 30.2828 55.746C30.2458 55.746 30.2532 55.82 30.2976 55.9162Z" fill="#C41B4C"/>
<path fill-rule="evenodd" clip-rule="evenodd" d="M47.6898 32.312C47.2087 32.3638 46.6092 32.5118 46.5426 32.5932C46.5204 32.6154 46.3649 32.682 46.1947 32.7339C46.0244 32.7857 45.7358 32.9337 45.5507 33.0595C45.3731 33.1854 45.2028 33.289 45.188 33.289C45.1066 33.289 44.0555 34.3993 43.9371 34.6139C43.8631 34.7472 43.7817 34.8656 43.7521 34.8878C43.53 35.0432 43.0637 36.4718 43.0637 36.9899C43.0637 37.1305 43.0341 37.249 42.9897 37.249C42.9527 37.249 42.9231 37.4784 42.9231 37.8041C42.9231 38.1298 42.9527 38.3592 42.9897 38.3592C43.0267 38.3592 43.0563 38.4555 43.0563 38.5739C43.0563 38.8626 43.2561 39.7582 43.3672 39.9284C43.4116 40.0025 43.5078 40.2171 43.5818 40.3947C43.6484 40.5798 43.7373 40.7278 43.7669 40.7278C43.7965 40.7278 43.8557 40.8092 43.8927 40.9055C43.9297 41.0017 44.0037 41.0979 44.0629 41.1201C44.1222 41.1423 44.1666 41.2015 44.1666 41.2534C44.1666 41.3422 44.9808 42.1934 45.0696 42.1934C45.0992 42.1934 45.2102 42.2748 45.3213 42.371C45.4323 42.4673 45.5507 42.5413 45.5803 42.5413C45.6099 42.5413 45.7506 42.6153 45.8912 42.7115C46.0318 42.8077 46.2909 42.9188 46.4611 42.9706C46.6314 43.0224 46.7868 43.0816 46.809 43.1038C47.0163 43.3629 50.2139 43.3629 50.2139 43.1038C50.2139 43.0742 50.3693 43.015 50.5617 42.9632C50.7542 42.9114 50.9466 42.8373 50.9985 42.7929C51.0429 42.7485 51.2057 42.6597 51.3537 42.5857C51.7905 42.3858 52.427 41.8381 52.9747 41.1867C53.219 40.8907 53.6113 40.1505 53.7001 39.8026C53.7445 39.625 53.8037 39.4769 53.8334 39.4769C54.0924 39.4769 54.0998 36.3385 53.8408 36.1387C53.8185 36.1165 53.7223 35.8796 53.6261 35.5984C53.5373 35.3245 53.4337 35.095 53.404 35.095C53.3744 35.095 53.3226 35.0062 53.2856 34.9026C53.1376 34.5029 52.0717 33.3852 51.6054 33.1484C51.5092 33.0965 51.413 33.0373 51.3982 33.0077C51.3389 32.9263 50.9244 32.7339 50.8134 32.7339C50.7542 32.7339 50.6654 32.6894 50.6136 32.6376C50.3767 32.4008 48.6225 32.2083 47.675 32.3194M59.7548 50.0615C59.5476 50.0985 59.3551 50.1504 59.3403 50.18C59.3255 50.2096 59.1997 50.254 59.059 50.2762C58.7852 50.328 57.6675 50.8535 57.6675 50.9349C57.6675 50.9646 57.5713 51.0238 57.4602 51.0756C57.216 51.1866 56.1353 52.2377 56.1353 52.3709C56.1353 52.4227 56.0835 52.4819 56.0317 52.5041C55.9725 52.5263 55.8763 52.6522 55.8244 52.7928C55.7652 52.926 55.6986 53.0371 55.6616 53.0371C55.6246 53.0371 55.5506 53.2073 55.484 53.422C55.4173 53.6292 55.3433 53.8069 55.3137 53.8069C55.2545 53.8069 55.025 54.7395 55.0324 54.9689C55.0324 55.0504 54.9954 55.1318 54.951 55.1466C54.8474 55.1836 54.8326 57.4115 54.9362 57.4856C54.9732 57.5078 55.0473 57.7594 55.0917 58.0407C55.1435 58.322 55.2175 58.581 55.2619 58.6328C55.3063 58.6772 55.3877 58.8549 55.447 59.0251C55.5062 59.1954 55.5802 59.3656 55.6172 59.41C55.6542 59.4544 55.7652 59.6247 55.8541 59.7949C56.0465 60.1428 56.0687 60.1724 56.609 60.7424C56.8311 60.9718 57.1124 61.2235 57.2308 61.2975C57.3492 61.3715 57.4602 61.4455 57.4602 61.4677C57.4602 61.4899 57.5787 61.5714 57.7193 61.6454C57.8599 61.7194 58.0154 61.8156 58.0598 61.8526C58.1042 61.8896 58.2744 61.9711 58.4447 62.0229C58.6149 62.0747 58.7852 62.1561 58.837 62.2005C59.2515 62.6002 63.4335 62.578 63.7148 62.1783C63.737 62.1487 63.8924 62.0747 64.0627 62.0229C64.2329 61.9711 64.418 61.8674 64.4772 61.8008C64.5364 61.7342 64.6178 61.675 64.6548 61.675C64.8991 61.675 66.0834 60.5573 66.0834 60.3353C66.0834 60.2094 64.8325 58.8401 64.5364 58.6328C64.3958 58.5366 64.2033 58.6106 63.959 58.8549C63.7222 59.0992 63.5149 59.2472 63.2115 59.4026C63.0486 59.484 62.908 59.5729 62.8858 59.6025C62.834 59.6765 62.116 59.8763 61.9013 59.8763C61.7903 59.8763 61.7089 59.906 61.7089 59.943C61.7089 59.98 61.509 60.0096 61.2574 60.0096C61.0057 60.0096 60.8059 59.98 60.8059 59.943C60.8059 59.906 60.7393 59.8763 60.6504 59.8763C60.421 59.8763 59.6882 59.6617 59.6882 59.5877C59.6882 59.5581 59.5846 59.4766 59.4661 59.4174C59.2071 59.2842 58.4373 58.507 58.4373 58.3738C58.4373 58.322 58.3929 58.2627 58.3411 58.2257C58.2893 58.1961 58.193 57.9963 58.1264 57.789C58.0598 57.5818 57.971 57.3301 57.9266 57.2413C57.8229 57.0266 57.8155 55.302 57.9192 55.2354C57.9562 55.2058 58.045 55.0208 58.1116 54.8209C58.1782 54.6211 58.3041 54.3472 58.4077 54.2214C58.5039 54.0955 58.5853 53.9697 58.5853 53.9475C58.5853 53.8143 59.3403 53.1703 59.6882 53.0075C59.8288 52.9408 59.9843 52.852 60.0287 52.815C60.1619 52.6892 61.1464 52.5633 61.5757 52.6078C62.0494 52.6596 62.6267 52.8002 62.6267 52.852C62.6267 52.8742 62.7822 52.9556 62.9746 53.0297C63.1671 53.1037 63.3225 53.1925 63.3225 53.2221C63.3225 53.2517 63.3965 53.3109 63.4779 53.3479C63.7222 53.4516 63.8998 53.5774 64.0331 53.7476C64.2773 54.0437 64.4476 53.9549 65.1137 53.1407C65.2544 52.9704 65.432 52.7632 65.506 52.6818C66.187 51.9416 66.187 51.9268 65.9501 51.7047C65.8687 51.6307 65.7133 51.4827 65.6097 51.3791C65.4986 51.2754 65.3876 51.1866 65.3506 51.1866C65.3136 51.1866 65.2322 51.1274 65.1655 51.0534C65.0027 50.8757 63.9664 50.3724 63.6482 50.3132C63.5075 50.2836 63.3891 50.2466 63.3891 50.217C63.3891 50.0319 60.6208 49.9357 59.777 50.0911M97.6743 50.0911C97.5633 50.1133 97.4523 50.1504 97.4301 50.18C97.4079 50.2096 97.1932 50.2688 96.9416 50.3206C96.4679 50.4094 95.5426 50.8165 95.3132 51.0312C95.2391 51.0978 95.1503 51.157 95.1133 51.157C95.0393 51.157 94.9135 51.2606 94.3361 51.838C93.6626 52.5041 92.9816 53.5626 92.9816 53.9475C92.9816 54.0141 92.9446 54.0807 92.9076 54.0881C92.8262 54.1177 92.6411 54.8949 92.6337 55.2428C92.6337 55.3686 92.5967 55.4723 92.5597 55.4723C92.5153 55.4723 92.4931 55.8201 92.4931 56.3753C92.4931 56.9304 92.5227 57.2783 92.5597 57.2783C92.5967 57.2783 92.6263 57.3745 92.6263 57.493C92.6263 57.789 92.841 58.6698 92.915 58.6698C92.9446 58.6698 92.9742 58.7143 92.9742 58.7735C92.9742 59.0769 93.5293 60.0392 93.9512 60.4685C94.0475 60.5721 94.1659 60.7202 94.2177 60.809C94.2621 60.8978 94.3287 60.9644 94.3657 60.9644C94.4027 60.9644 94.5286 61.0606 94.6618 61.1791C95.0171 61.5047 95.0837 61.564 95.2762 61.6602C95.3724 61.712 95.4686 61.7712 95.4834 61.8008C95.5722 61.9341 96.6381 62.3634 97.06 62.4374C97.3191 62.4818 97.5559 62.5558 97.5781 62.5928C97.6447 62.689 100.058 62.689 100.124 62.5928C100.154 62.5558 100.428 62.4744 100.746 62.4078C101.316 62.2967 102.138 61.9415 102.397 61.712C102.471 61.6454 102.574 61.5862 102.619 61.5862C102.663 61.5862 102.745 61.527 102.782 61.4455C102.819 61.3641 102.893 61.3049 102.944 61.3049C103.033 61.3049 103.825 60.5055 103.825 60.4241C103.825 60.3205 102.108 58.6624 101.997 58.6624C101.93 58.6624 101.79 58.7587 101.694 58.8697C101.59 58.9807 101.471 59.0769 101.434 59.0769C101.397 59.0769 101.316 59.1362 101.272 59.2176C101.227 59.2916 101.146 59.3582 101.101 59.3582C101.057 59.3582 100.879 59.447 100.724 59.5581C100.568 59.6691 100.309 59.7801 100.169 59.8097C100.028 59.8393 99.8875 59.8985 99.8579 59.943C99.7913 60.0466 98.0814 60.054 98.0074 59.9504C97.9778 59.9134 97.8298 59.8393 97.6818 59.7875C97.097 59.5877 96.5641 59.1658 96.1718 58.5662C96.0682 58.4108 95.9497 58.2405 95.9127 58.1961C95.8757 58.1517 95.7869 57.9001 95.7203 57.641C95.6537 57.3819 95.5722 57.1525 95.5352 57.1229C95.4464 57.0563 95.4538 55.7165 95.55 55.5241C95.5944 55.4353 95.6833 55.1836 95.7499 54.9615C95.8165 54.7395 95.8905 54.5618 95.9127 54.5618C95.9349 54.5618 96.0089 54.4434 96.0756 54.3028C96.1866 54.0511 96.9268 53.2443 97.0452 53.2443C97.0822 53.2443 97.171 53.1851 97.245 53.1111C97.3265 53.0371 97.4967 52.9556 97.6225 52.9334C97.7558 52.9112 97.8594 52.8594 97.8594 52.8298C97.8594 52.6226 99.621 52.6152 99.9985 52.8224C100.065 52.8594 100.258 52.9482 100.435 53.0297C100.916 53.2443 101.331 53.5034 101.612 53.7698C101.923 54.0659 102.019 54.0659 102.278 53.7624C102.389 53.6292 102.634 53.3701 102.819 53.1777C103.004 52.9852 103.152 52.8076 103.152 52.778C103.152 52.7484 103.263 52.6152 103.396 52.4893C103.81 52.0896 103.781 51.7862 103.315 51.4975C103.189 51.4161 103.085 51.3346 103.085 51.305C103.085 51.2754 102.959 51.194 102.811 51.12C102.656 51.046 102.53 50.9646 102.53 50.9349C102.53 50.8017 101.101 50.254 100.746 50.254C100.657 50.254 100.576 50.217 100.561 50.1726C100.531 50.0837 98.1407 50.0245 97.6892 50.0985M68.0967 56.2346V62.356H70.8798V57.5596H75.6687L75.5873 62.4226H78.437L78.4814 60.6387C78.5036 59.6543 78.5258 56.923 78.5258 54.5544V50.254H77.5192C76.89 50.254 76.5125 50.2244 76.5125 50.1874C76.5125 50.1504 76.3275 50.1207 76.098 50.1207H75.6835V54.9171H70.8872V53.0075C70.8872 51.7269 70.9094 51.0978 70.9612 51.0978C71.0056 51.0978 71.0278 50.9201 71.013 50.6315L70.9908 50.1652L69.5474 50.1429L68.1041 50.1207V56.242L68.0967 56.2346ZM81.5162 56.3383V62.4226H90.8351V59.8541H84.2993V57.5596H89.9987V57.0563C89.9987 56.7824 90.0209 56.1976 90.0431 55.7683L90.0875 54.9837H84.2919V52.667L87.5561 52.7114L90.8203 52.7558V50.2614H81.5014V56.3457L81.5162 56.3383ZM105.639 56.3383V62.4226H106.394C106.808 62.4226 107.437 62.4448 107.785 62.467L108.422 62.5114V58.7957L108.97 58.2627C109.266 57.9667 109.532 57.678 109.562 57.6114C109.584 57.5448 109.658 57.493 109.717 57.493C109.776 57.493 109.85 57.5448 109.873 57.6114C109.917 57.7372 110.354 58.3294 110.442 58.396C110.472 58.4182 110.554 58.5366 110.628 58.6772C110.702 58.8105 110.813 58.9585 110.887 59.0103C110.953 59.0621 111.005 59.1288 111.005 59.1658C111.005 59.225 111.39 59.7801 111.59 59.9948C111.642 60.054 111.723 60.1798 111.775 60.276C111.827 60.3723 111.923 60.4907 111.989 60.5425C112.056 60.5943 112.115 60.6757 112.115 60.7276C112.115 60.7794 112.167 60.8682 112.234 60.9126C112.3 60.9644 112.419 61.1199 112.493 61.2679C112.567 61.4085 112.656 61.5269 112.685 61.5269C112.715 61.5269 112.789 61.638 112.855 61.7712C112.922 61.9044 112.996 62.0155 113.018 62.0155C113.041 62.0155 113.129 62.1265 113.211 62.2597L113.351 62.504H116.712L116.667 62.3115C116.645 62.2079 116.564 62.0673 116.482 62.0081C116.408 61.9415 116.349 61.8674 116.349 61.8378C116.349 61.8082 116.246 61.6602 116.12 61.5047C115.994 61.3493 115.846 61.1495 115.801 61.0606C115.713 60.8904 115.594 60.7424 115.328 60.4685C115.239 60.3797 115.172 60.2834 115.172 60.2538C115.172 60.2242 115.069 60.0688 114.943 59.9134C114.817 59.7579 114.691 59.5729 114.669 59.5063C114.647 59.4396 114.595 59.3878 114.558 59.3878C114.521 59.3878 114.476 59.3286 114.454 59.262C114.432 59.1954 114.358 59.0769 114.291 59.0029C114.225 58.9289 114.092 58.7587 113.995 58.6254C113.899 58.4922 113.773 58.322 113.699 58.2479C113.633 58.1739 113.573 58.0703 113.573 58.0259C113.573 57.9815 113.514 57.9001 113.433 57.863C113.359 57.8186 113.292 57.7594 113.292 57.7224C113.292 57.6558 112.848 57.0488 112.641 56.8194C112.589 56.7602 112.5 56.6269 112.456 56.5233C112.411 56.4197 112.345 56.3309 112.315 56.3309C112.286 56.3309 112.197 56.2272 112.123 56.1014C112.049 55.9756 111.915 55.7905 111.834 55.6869L111.686 55.5019L112.596 54.5914C113.092 54.0881 113.499 53.6588 113.499 53.6366C113.499 53.6144 113.855 53.2443 114.284 52.815C114.972 52.1266 115.572 51.5049 116.334 50.6759C116.46 50.5426 116.564 50.4094 116.564 50.3872C116.564 50.365 115.801 50.3428 114.869 50.3428H113.174L112.685 50.8461C111.745 51.8158 110.968 52.6374 110.916 52.741C110.887 52.8002 110.628 53.0667 110.339 53.3405C110.05 53.6144 109.821 53.8661 109.821 53.8957C109.821 53.9253 109.562 54.214 109.251 54.5322C108.94 54.8505 108.629 55.1688 108.57 55.2428C108.474 55.3538 108.466 55.1022 108.444 52.815L108.429 50.2614H105.646V56.3457L105.639 56.3383Z" fill="#040404"/>
<path fill-rule="evenodd" clip-rule="evenodd" d="M27.1941 44.533C27.1497 44.5996 26.4909 44.7328 26.3503 44.7032C26.3133 44.6958 26.1948 44.7254 26.069 44.7698C25.9506 44.8142 25.7285 44.8661 25.5731 44.8809C25.4176 44.8957 25.277 44.9475 25.2548 44.9845C25.2252 45.0363 24.559 45.1843 24.3444 45.1843C24.3222 45.1843 24.2556 45.2287 24.2037 45.2732C24.1519 45.325 23.9299 45.4212 23.7152 45.4878C23.5006 45.5544 23.3081 45.6358 23.3007 45.658C23.2859 45.6877 23.0343 45.7839 22.7382 45.8727C22.4421 45.9615 22.1979 46.0651 22.1979 46.0948C22.1979 46.1244 22.0942 46.1688 21.9684 46.1984C21.6723 46.265 20.7323 46.7017 20.7323 46.7757C20.7323 46.8053 20.5991 46.8719 20.4362 46.9238C20.2734 46.9756 20.0883 47.0718 20.0291 47.1384C19.9699 47.205 19.7553 47.3161 19.5628 47.3827C19.363 47.4493 19.2075 47.5307 19.2075 47.5603C19.2075 47.5899 19.1483 47.6195 19.0743 47.6195C19.0003 47.6195 18.9263 47.6639 18.904 47.7232C18.8818 47.7824 18.8004 47.8268 18.7264 47.8268C18.6524 47.8268 18.5414 47.8712 18.4821 47.9304C18.4229 47.9896 18.3341 48.034 18.2897 48.034C18.1639 48.034 17.9936 48.1821 17.9344 48.3301C17.9122 48.3967 17.8234 48.4485 17.742 48.4485C17.6531 48.4485 17.5791 48.5003 17.5569 48.5818C17.5347 48.6558 17.4607 48.7298 17.3867 48.752C17.2756 48.7816 17.2682 48.7668 17.3275 48.6928C17.3719 48.641 17.4163 48.53 17.4237 48.4411C17.4311 48.3523 17.4829 48.1895 17.5273 48.0858C17.6235 47.849 17.6235 47.7602 17.5421 47.7602C17.5051 47.7602 17.4607 47.8564 17.4311 47.9674C17.4015 48.0784 17.3423 48.2635 17.2904 48.3671C17.2386 48.4707 17.1424 48.789 17.0832 49.0777C17.0166 49.3664 16.9352 49.6624 16.9056 49.7365C16.6465 50.3138 16.5799 52.5788 16.8315 52.2309C16.8537 52.1939 16.987 52.1642 17.1202 52.1568C17.2534 52.1494 17.3719 52.1124 17.3867 52.0754C17.4015 52.0384 17.6309 51.9422 17.9122 51.8534C18.1861 51.772 18.4303 51.6757 18.4451 51.6461C18.4599 51.6165 18.6598 51.5425 18.8818 51.4685C19.1039 51.4019 19.2815 51.3204 19.2815 51.2908C19.2815 51.2612 19.363 51.2242 19.4592 51.1946C19.5554 51.1724 19.6294 51.1206 19.6294 51.0762C19.6294 51.0318 19.6886 51.0244 19.7775 51.054C19.8885 51.091 19.9551 51.054 20.0365 50.9578C20.0957 50.8763 20.2512 50.7949 20.3918 50.7801C20.7619 50.7357 21.2874 50.5284 21.5169 50.336C21.5835 50.2842 21.6723 50.262 21.7093 50.2842C21.7537 50.3138 21.8574 50.2842 21.9388 50.2324C22.0202 50.1806 22.3089 50.0621 22.5828 49.9733C23.0787 49.8105 23.6116 49.3664 24.1445 48.6558C24.2408 48.53 24.3814 48.3597 24.4628 48.2783C24.5442 48.1969 24.6257 48.071 24.6553 48.0044C24.7071 47.8564 24.8625 47.849 24.9809 47.9822C25.0254 48.0414 25.2622 48.1969 25.5065 48.3301L25.9432 48.5744L26.3133 48.4633C26.5205 48.4041 26.7056 48.3301 26.7204 48.3005C26.7426 48.2709 26.935 48.1969 27.1571 48.1303C27.4013 48.0562 27.5568 47.9748 27.5568 47.9156C27.5568 47.8638 27.6086 47.8268 27.6752 47.8342C27.838 47.8564 28.593 47.5973 28.593 47.5233C28.593 47.4937 28.6596 47.4641 28.7337 47.4641C28.8225 47.4641 28.8595 47.4345 28.8299 47.3827C28.7929 47.3309 28.8299 47.3161 28.9335 47.3383C29.0297 47.3605 29.0667 47.3531 29.0371 47.3013C29.0075 47.2568 29.0371 47.242 29.1112 47.2716C29.2444 47.3235 29.5257 47.205 29.4664 47.1162C29.4442 47.0866 29.5923 47.0348 29.7921 47.0126C30.1252 46.9682 30.3917 46.8719 30.4731 46.7683C30.4953 46.7461 30.7025 46.6647 30.9394 46.5907C31.1763 46.5167 31.3761 46.4352 31.3761 46.413C31.3761 45.9689 32.6788 46.6721 35.4027 48.5744C35.8024 48.8556 36.1059 49.0481 36.0837 49.0111C36.0615 48.9741 35.8616 48.8186 35.6396 48.6706C35.4175 48.5226 34.9956 48.2117 34.6995 47.997C34.4035 47.7824 34.1296 47.5973 34.0926 47.5973C34.0556 47.5973 34.0186 47.5381 34.0186 47.4567C34.0186 47.3753 33.989 47.3161 33.9519 47.3161C33.9149 47.3161 33.8853 47.2716 33.8853 47.2198C33.8853 47.168 33.8113 47.0496 33.7151 46.9608C33.6189 46.8719 33.5448 46.7609 33.5448 46.7165C33.5448 46.6721 33.4856 46.5907 33.4116 46.5389C33.3376 46.4871 33.2636 46.376 33.234 46.2946C33.2044 46.2058 33.1526 46.1392 33.1229 46.1392C33.0933 46.1392 33.0563 46.1022 33.0563 46.0503C33.0563 45.9615 32.7529 45.7913 32.59 45.7913C32.5382 45.7913 32.4642 45.7099 32.4198 45.6136C32.3606 45.4804 32.3013 45.4434 32.1829 45.4656C32.0941 45.4804 31.9683 45.4434 31.9016 45.3842C31.7314 45.2287 31.3317 45.0363 31.1763 45.0363C31.1022 45.0363 31.0504 45.0067 31.0504 44.9697C31.0504 44.9327 30.8728 44.8661 30.6507 44.8142C30.1104 44.6958 30.066 44.6884 29.348 44.6588C28.9705 44.644 28.7189 44.5996 28.6967 44.5552C28.667 44.459 28.334 44.4515 28.334 44.5478C28.334 44.6514 27.9343 44.6366 27.8899 44.533C27.8602 44.4664 27.838 44.4738 27.7788 44.5478C27.727 44.6218 27.7048 44.6218 27.7048 44.5626C27.7048 44.5182 27.6604 44.4738 27.6012 44.4738C27.542 44.4738 27.4976 44.5034 27.4976 44.5404C27.4976 44.6366 27.3051 44.6292 27.2755 44.5256C27.2533 44.4664 27.2311 44.4664 27.2015 44.5182M18.0158 46.6351C17.8826 46.8645 17.8678 46.9164 17.964 46.9164C18.0232 46.9164 18.2009 46.4945 18.1565 46.4574C18.1417 46.4426 18.0824 46.5241 18.0158 46.6351ZM17.6457 47.4493C17.6161 47.5233 17.5865 47.6047 17.5717 47.6343C17.5569 47.6639 17.5717 47.6861 17.6161 47.6861C17.6975 47.6861 17.7938 47.4197 17.7346 47.3605C17.7124 47.3383 17.6753 47.3827 17.6457 47.4493ZM39.8808 50.262C39.7772 50.4322 39.866 50.5358 40.1177 50.521C40.2361 50.521 40.2361 50.5062 40.1029 50.484C39.9326 50.447 39.903 50.3286 40.0288 50.2028C40.0733 50.1584 40.0807 50.1213 40.0436 50.1213C40.0066 50.1213 39.9326 50.188 39.8808 50.2694" fill="#E54B94"/>
<path fill-rule="evenodd" clip-rule="evenodd" d="M155.088 50.9503C155.088 51.276 155.103 51.4092 155.118 51.2464C155.133 51.0836 155.133 50.8171 155.118 50.6543C155.103 50.4914 155.088 50.6247 155.088 50.9503ZM44.6085 54.1849C44.6085 54.3404 44.6233 54.3922 44.6381 54.3034C44.6529 54.2145 44.6529 54.0887 44.6381 54.0221C44.6233 53.9555 44.6085 54.0221 44.6085 54.1775M44.3568 55.8577C44.3272 55.9984 44.3198 56.1242 44.342 56.139C44.3568 56.1538 44.3938 56.0576 44.4235 55.917C44.4457 55.7763 44.4605 55.6505 44.4383 55.6357C44.4161 55.6209 44.3864 55.7171 44.3568 55.8577ZM38.9313 56.3463L38.724 56.5239L38.9535 56.3759C39.0793 56.2944 39.183 56.213 39.183 56.1982C39.183 56.1464 39.1534 56.1612 38.9387 56.3463M38.465 56.6571C38.3095 56.7904 38.3095 56.7978 38.4502 56.7238C38.5316 56.6867 38.6204 56.6201 38.6426 56.5831C38.7092 56.4721 38.6426 56.5017 38.4576 56.6571M37.8062 57.0568C37.6508 57.1531 37.4213 57.2937 37.3029 57.3603C37.1327 57.4491 37.0882 57.5232 37.0882 57.6934C37.0882 57.8118 37.0586 57.908 37.029 57.908C36.9994 57.908 36.955 58.0413 36.9328 58.2041C36.8884 58.589 36.7182 59.1812 36.6663 59.1293C36.6441 59.1071 36.5553 59.2478 36.4739 59.4402C36.3925 59.6327 36.2963 59.7881 36.2592 59.7881C36.2222 59.7881 36.1926 59.8177 36.1926 59.8547C36.1926 59.9732 35.9632 60.1952 35.8817 60.1508C35.8373 60.1286 35.8299 60.136 35.8595 60.1656C35.9262 60.2396 35.7485 60.4025 35.4969 60.4913C35.3784 60.5283 35.2896 60.6097 35.2896 60.6615C35.2896 60.7133 35.2674 60.7503 35.2378 60.7429C35.1564 60.7207 34.7345 60.9206 34.7345 60.9872C34.7345 61.0168 34.7049 61.039 34.6604 61.039C34.616 61.039 34.6086 61.002 34.6308 60.9502C34.653 60.9058 34.6308 60.9206 34.5716 60.9946C34.4902 61.0908 34.32 61.1352 33.8166 61.1723C33.4614 61.2019 33.2393 61.2315 33.3281 61.2389C33.4317 61.2389 33.4836 61.2907 33.4836 61.3869C33.4836 61.4609 33.5132 61.5275 33.5502 61.5275C33.5872 61.5275 33.6168 61.572 33.6168 61.6312C33.6168 61.6904 33.6464 61.7348 33.6834 61.7348C33.7204 61.7348 33.75 61.7792 33.75 61.8384C33.75 61.8976 33.7204 61.942 33.6834 61.942C33.5872 61.942 33.5946 62.2011 33.6908 62.2381C33.7352 62.2529 33.7944 62.5786 33.8314 63.0227C33.8685 63.4446 33.9129 63.9701 33.9351 64.1922C33.9573 64.4143 33.9351 64.9028 33.8907 65.2729C33.8166 65.9242 33.8462 66.3979 33.9573 66.3979C33.9869 66.3979 34.0239 66.3313 34.0461 66.2425L34.0757 66.0871V66.2425C34.0979 66.4794 35.1416 66.2203 36.4961 65.6504L37.1179 65.3839L37.1401 65.073C37.1549 64.9028 37.1919 64.6881 37.2289 64.5919C37.2659 64.4957 37.3103 63.9627 37.3325 63.4076C37.3547 62.8525 37.3991 62.3861 37.4287 62.3639C37.4583 62.3417 37.5027 62.0753 37.5324 61.7718C37.6434 60.4617 37.7396 59.6549 37.784 59.6549C37.8136 59.6549 37.8358 59.5216 37.8358 59.3588C37.8358 59.196 37.8728 58.6704 37.9172 58.1967C37.9617 57.7156 37.9987 57.2789 38.0061 57.2197C38.0061 57.1605 38.0431 57.079 38.0801 57.0272C38.2059 56.8718 38.1023 56.8866 37.8062 57.0716M43.2392 59.0849C43.1799 59.196 43.1503 59.2922 43.1651 59.2922C43.1799 59.2922 43.2466 59.196 43.3058 59.0849C43.365 58.9739 43.3946 58.8777 43.3798 58.8777C43.365 58.8777 43.2984 58.9739 43.2392 59.0849ZM41.7736 61.4239C41.67 61.5645 41.6182 61.6608 41.6552 61.6312C41.744 61.5794 42.0475 61.1723 41.9957 61.1723C41.9808 61.1723 41.8772 61.2907 41.7662 61.4239M165.932 62.3195C165.932 62.475 165.947 62.5268 165.961 62.438C165.976 62.3491 165.976 62.2233 165.961 62.1567C165.947 62.0901 165.932 62.1567 165.932 62.3121M40.5597 62.8229L39.9676 63.4298L40.5745 62.8377C41.137 62.2899 41.2111 62.2085 41.1666 62.2085C41.1592 62.2085 40.8854 62.4824 40.5597 62.8155" fill="#C41854"/>
<path fill-rule="evenodd" clip-rule="evenodd" d="M30.4208 38.4633C30.48 38.5225 31.8567 38.5521 31.953 38.4929C32.0122 38.4559 31.7235 38.4337 31.2202 38.4337C30.7613 38.4337 30.406 38.4485 30.4208 38.4633ZM29.4734 38.5743C29.3401 38.6335 29.3401 38.6335 29.4882 38.6409C29.5696 38.6409 29.6584 38.6113 29.6806 38.5743C29.7324 38.4929 29.6658 38.4929 29.4734 38.5743ZM32.5673 38.5743C32.5673 38.6113 32.6857 38.6409 32.8264 38.6409C33.0188 38.6409 33.0632 38.6261 32.9818 38.5743C32.8486 38.4855 32.5673 38.4855 32.5673 38.5743ZM33.2779 38.6927C33.3445 38.7075 33.4555 38.7075 33.5221 38.6927C33.5888 38.6779 33.537 38.6631 33.4037 38.6631C33.2705 38.6631 33.2187 38.6779 33.2853 38.6927M34.2031 38.8556C34.2253 38.8926 34.2919 38.9222 34.3438 38.9222C34.3956 38.9222 34.4474 38.8926 34.4474 38.8556C34.4474 38.8186 34.3808 38.789 34.3067 38.789C34.2327 38.789 34.1809 38.8186 34.2031 38.8556ZM34.551 38.9148C34.662 39.0258 35.1357 39.085 35.1357 38.9888C35.1357 38.9444 35.0913 38.9222 35.0321 38.9444C34.9729 38.9666 34.9285 38.9518 34.9285 38.9148C34.9285 38.8778 34.8249 38.8482 34.7064 38.8482C34.5658 38.8482 34.5066 38.8704 34.551 38.9148ZM35.2098 39.1146C35.2098 39.1146 35.3652 39.2109 35.5576 39.2627C35.9944 39.3737 36.0536 39.4551 35.7353 39.5143C35.5132 39.5587 35.4984 39.5661 35.6021 39.6698C35.7279 39.7956 35.5206 39.9288 35.3208 39.8474C35.269 39.8252 35.1728 39.84 35.1135 39.8696C34.9951 39.9362 35.0543 39.9658 36.0832 40.3729C36.7049 40.6172 38.0817 41.3278 38.5258 41.6387C38.8219 41.8385 38.9625 41.8903 38.9625 41.7793C38.9625 41.7497 39.0883 41.572 39.2438 41.4018L39.525 41.0835L39.3844 40.9429C39.3104 40.8689 39.1179 40.7356 38.9625 40.6616C38.807 40.5802 38.6812 40.484 38.6812 40.447C38.6812 40.41 38.6294 40.3803 38.5702 40.3803C38.4444 40.3803 38.0373 40.1805 37.978 40.0917C37.9558 40.0621 37.8004 39.9881 37.6302 39.9288C37.4599 39.8696 37.2749 39.7808 37.2157 39.7364C37.1564 39.692 36.9196 39.5884 36.6901 39.5143C36.4607 39.4403 36.2386 39.3589 36.2016 39.3293C36.0314 39.2035 35.195 39.0258 35.195 39.1146M17.8303 48.1745C17.7341 48.2115 17.623 48.2263 17.5712 48.2115C17.5194 48.1893 17.4602 48.2115 17.438 48.2559C17.4084 48.3003 17.4232 48.3151 17.4676 48.2855C17.5786 48.2189 17.5712 48.2707 17.4158 48.5446C17.29 48.774 17.29 48.7814 17.4158 48.7518C17.4824 48.737 17.5564 48.6556 17.5786 48.589C17.6008 48.5076 17.6748 48.4557 17.7637 48.4557C17.8451 48.4557 17.9339 48.4039 17.9561 48.3373C17.9783 48.2707 18.0375 48.1893 18.0745 48.1671C18.1782 48.093 18.0449 48.1079 17.8377 48.1893" fill="#FC5AAC"/>
<path fill-rule="evenodd" clip-rule="evenodd" d="M31.5474 46.3374C31.4586 46.3522 31.392 46.3892 31.392 46.4188C31.392 46.4484 31.1995 46.5298 30.9552 46.6038C30.7184 46.6779 30.5037 46.7519 30.4889 46.7815C30.4075 46.8851 30.141 46.9813 29.808 47.0258C29.6081 47.0554 29.4675 47.0998 29.4823 47.1294C29.5341 47.2182 29.2602 47.3366 29.127 47.2848C29.053 47.2552 29.0234 47.2626 29.053 47.3144C29.0826 47.3662 29.053 47.3736 28.9494 47.3514C28.8457 47.3218 28.8161 47.3366 28.8457 47.3958C28.8753 47.4477 28.8457 47.4773 28.7495 47.4773C28.6681 47.4773 28.6089 47.4995 28.6089 47.5365C28.6089 47.6105 27.8465 47.8622 27.691 47.8474C27.6244 47.84 27.5726 47.877 27.5726 47.9288C27.5726 47.988 27.4172 48.0694 27.1729 48.1434C26.9509 48.21 26.7584 48.2841 26.7362 48.3137C26.714 48.3433 26.529 48.4173 26.3291 48.4765L25.9516 48.5875L25.5593 48.3729C25.1522 48.1434 25.241 48.2841 25.7074 48.5949C25.848 48.6912 25.9664 48.7948 25.9664 48.817C25.9664 48.8466 26.0034 48.8688 26.0552 48.8688C26.1737 48.8688 26.6696 49.2537 26.6252 49.3055C26.6104 49.3277 26.6104 49.3351 26.64 49.3203C26.6622 49.3055 26.8546 49.3795 27.0693 49.498C27.4098 49.683 27.4986 49.7052 27.8095 49.6608C28.0019 49.6386 28.3202 49.609 28.5126 49.6016C28.7051 49.5942 28.9049 49.5646 28.9494 49.535C28.9938 49.5054 29.0752 49.5128 29.127 49.5572C29.2306 49.6386 29.6525 49.5276 29.7414 49.3943C29.7784 49.3425 29.7932 49.3499 29.7932 49.4091C29.7932 49.4535 29.8598 49.498 29.9338 49.498C30.0078 49.498 30.0744 49.461 30.0744 49.4091C30.0744 49.3499 30.0966 49.3573 30.141 49.4239C30.1855 49.4906 30.2077 49.498 30.2077 49.4387C30.2077 49.3943 30.2743 49.3499 30.3483 49.3499C30.4223 49.3499 30.4889 49.3869 30.4889 49.4387C30.4889 49.5054 30.5037 49.5054 30.5481 49.4387C30.5778 49.3943 30.7406 49.3351 30.9108 49.3129C31.0811 49.2907 31.2957 49.2611 31.392 49.2463C31.9471 49.1649 32.3616 49.1501 32.3986 49.2093C32.4208 49.2537 32.5614 49.2611 32.7317 49.2389C32.8945 49.2167 33.2498 49.1945 33.5311 49.1871C33.8938 49.1797 34.0566 49.1501 34.101 49.0761C34.1602 48.9798 34.175 48.9798 34.2343 49.0761C34.2787 49.1427 34.3009 49.1501 34.3009 49.0909C34.3009 49.0464 34.3823 49.002 34.4785 49.002C34.5747 49.002 34.6488 49.0316 34.6488 49.0687C34.6488 49.1723 34.9226 49.1501 35.0411 49.0316C35.1817 48.891 35.3445 48.8984 35.3445 49.0464C35.3445 49.1279 35.3593 49.1427 35.3963 49.0835C35.463 48.9798 35.8997 48.9872 36.0403 49.0983C36.1809 49.2167 37.1876 49.757 37.2616 49.757C37.2912 49.757 37.0395 49.5942 36.6991 49.4017C36.3586 49.2093 35.7664 48.8244 35.3815 48.5579C33.6125 47.3292 31.8657 46.2412 31.725 46.2856C31.7102 46.2856 31.6288 46.3078 31.54 46.3226M24.8561 47.9584C24.8561 47.9584 24.9302 48.062 25.0116 48.1064C25.1152 48.1607 25.1226 48.1385 25.0338 48.0398C24.8858 47.877 24.8561 47.8622 24.8561 47.9584ZM24.3602 48.3951C24.3059 48.4987 24.3282 48.5061 24.4268 48.4173C24.5897 48.2693 24.6045 48.2397 24.5083 48.2397C24.4713 48.2397 24.4046 48.3137 24.3602 48.3951ZM24.1012 48.7356C23.5608 49.4165 23.0649 49.8236 22.5912 49.9791C22.3247 50.0679 22.0361 50.1789 21.9472 50.2381C21.8658 50.29 21.7622 50.3196 21.7178 50.29C21.6734 50.2603 21.5845 50.29 21.5253 50.3418C21.2959 50.5342 20.7703 50.7415 20.4003 50.7859C20.2596 50.8007 20.1116 50.8821 20.045 50.9635C19.9635 51.0671 19.8895 51.0968 19.7859 51.0597C19.6971 51.0301 19.6379 51.0449 19.6379 51.082C19.6379 51.119 19.5564 51.1782 19.4676 51.2004C19.3714 51.2226 19.29 51.267 19.29 51.2966C19.29 51.3262 19.1123 51.4002 18.8903 51.4742C18.6682 51.5409 18.4758 51.6223 18.4536 51.6519C18.4314 51.6815 18.1945 51.7703 17.9206 51.8591C17.6468 51.9406 17.4099 52.0442 17.3951 52.0812C17.3803 52.1182 17.2619 52.1552 17.1286 52.1626C16.9954 52.17 16.8622 52.207 16.84 52.2366C16.7512 52.3551 16.6697 52.2144 16.6475 51.9184C16.6401 51.7555 16.6105 51.6075 16.5883 51.5853C16.4995 51.5039 16.6327 55.2418 16.7289 55.6489C16.8844 56.3076 17.0472 56.5149 17.1657 56.204C17.1879 56.1448 17.2471 56.1004 17.2989 56.1004C17.3507 56.1004 17.3951 56.0634 17.3951 56.0264C17.3951 55.9301 17.5728 55.7525 17.669 55.7525C17.7134 55.7525 17.743 55.7229 17.743 55.6859C17.743 55.6489 17.8244 55.5971 17.9206 55.5749C18.0169 55.5527 18.0983 55.486 18.0983 55.4342C18.0983 55.3824 18.1353 55.338 18.1723 55.338C18.2685 55.338 18.4462 55.1604 18.4462 55.0641C18.4462 55.0271 18.5276 54.9679 18.6238 54.9457C18.72 54.9235 18.7941 54.8791 18.7941 54.8421C18.7941 54.8051 18.8977 54.7607 19.0235 54.7385C19.1493 54.7162 19.2086 54.6718 19.1641 54.657C18.9791 54.5904 19.0901 54.3906 19.4084 54.1833C19.5935 54.0723 19.7933 53.9168 19.8599 53.8502C19.9265 53.7836 20.0302 53.7318 20.082 53.7318C20.1338 53.7318 20.2226 53.6726 20.2744 53.5912C20.3188 53.5172 20.4003 53.4505 20.4521 53.4505C20.5039 53.4505 20.5631 53.4061 20.5853 53.3469C20.6075 53.2877 20.6815 53.2433 20.7555 53.2433C20.8296 53.2433 20.8888 53.1989 20.8888 53.1397C20.8888 53.0804 20.9258 53.036 20.9776 53.036C21.0294 53.036 21.1108 52.9768 21.1626 52.9028C21.2145 52.8288 21.3477 52.7474 21.4587 52.7252C21.5697 52.703 21.6438 52.6437 21.629 52.5993C21.5919 52.4809 21.7326 52.3699 21.9842 52.3107C22.2507 52.2514 22.2581 52.1922 22.0287 51.9702C21.7992 51.7407 21.8066 51.7259 22.1323 51.378C22.2877 51.2152 22.4135 51.0671 22.4135 51.0523C22.4135 51.0301 23.7533 49.2833 24.2418 48.6764C24.2788 48.6319 24.2936 48.5875 24.264 48.5875C24.2344 48.5875 24.1678 48.6542 24.1012 48.743M37.3652 49.8088C37.3652 49.8532 37.8611 50.0531 37.8982 50.0235C37.913 50.0087 37.8019 49.9495 37.6465 49.8829C37.4911 49.8236 37.3652 49.7866 37.3652 49.8088ZM42.5835 50.1641C42.5835 50.2085 42.4651 50.2752 42.3245 50.3122L42.0654 50.3862L42.3096 50.3492C42.5613 50.3122 42.7167 50.2085 42.6353 50.1345C42.6131 50.1049 42.5909 50.1197 42.5909 50.1641" fill="#E8348C"/>
</svg>
