<svg width="200" height="100" viewBox="0 0 200 100" fill="none" xmlns="http://www.w3.org/2000/svg">
<path d="M118.092 21.6914V21.8387C117.722 22.2069 117.352 22.1333 116.982 21.8387V21.6914H118.092Z" fill="#F1FAFD"/>
<path d="M130.019 52.9414C129.945 56.6266 126.834 59.5748 123.13 59.4273C119.501 59.3536 116.39 56.2581 116.538 52.8677C116.686 49.1088 119.723 46.3818 123.649 46.4555C127.13 46.5292 130.019 49.4773 129.945 52.9414H130.019Z" fill="#00BBEA"/>
<path d="M79.6476 50.1406C77.5735 49.4773 75.7217 49.0351 74.2402 50.8777C73.3513 51.9832 73.3513 53.6047 74.2402 54.6366C75.7217 56.4791 77.6476 56.258 79.7217 55.3736C79.7217 56.4054 79.7217 57.2899 79.7217 58.248C79.7217 58.5429 79.5735 58.6166 79.3513 58.6903C77.2772 59.6484 73.6476 58.9851 71.9439 57.2899C70.018 55.3736 69.4995 53.0888 70.3143 50.5829C71.2032 47.9295 73.2772 46.6028 76.018 46.308C77.055 46.2343 78.018 46.308 79.055 46.5291C79.4254 46.6029 79.7217 46.6766 79.7217 47.1925C79.7217 48.0769 79.7217 49.0351 79.7217 49.9932L79.6476 50.1406Z" fill="#00BBEA"/>
<path d="M113.203 55.4479C113.203 56.4797 113.203 57.2905 113.203 58.1749C113.203 58.5434 113.055 58.6908 112.759 58.7645C110.833 59.2068 108.833 59.3542 106.981 58.396C104.24 56.9957 102.981 54.2686 103.648 51.2468C104.24 48.5934 106.685 46.6034 109.648 46.3823C109.87 46.3823 110.166 46.3823 110.388 46.3823C113.203 46.3823 113.574 46.8245 113.203 49.6253C113.203 50.0675 112.981 50.0675 112.685 49.9201C111.944 49.6253 111.203 49.4779 110.463 49.5516C108.685 49.5516 107.203 50.952 107.129 52.6471C107.055 54.3423 108.388 55.8164 110.166 56.0375C111.203 56.1849 112.166 55.8164 113.203 55.4479Z" fill="#00BBEA"/>
<path d="M94.6115 59.1329C94.167 59.1329 93.8707 59.1329 93.6485 59.1329C91.5004 58.9855 91.2041 58.5433 91.5744 56.4795C91.6485 56.0373 91.9448 56.111 92.167 56.1847C93.13 56.4058 94.093 56.5533 95.0559 56.4795C95.4263 56.4795 95.7967 56.4058 96.167 56.2584C96.5374 56.111 96.9078 55.8162 96.9078 55.374C96.9078 54.8581 96.6115 54.5633 96.167 54.4158C95.5744 54.1947 95.0559 54.0473 94.4633 53.8262C92.2411 53.0155 91.3522 51.7625 91.5744 49.8462C91.7967 48.0773 93.2781 46.7507 95.4263 46.5296C96.5374 46.3821 97.7226 46.5296 98.8337 46.7507C99.2781 46.8244 99.5004 47.0455 99.4263 47.4877C99.4263 48.0773 99.5744 48.8881 99.2781 49.3303C98.9818 49.6988 98.167 49.2566 97.5744 49.1829C96.9078 49.1829 96.3152 49.1092 95.7226 49.3303C95.2781 49.4777 94.9818 49.6988 94.9818 50.141C94.9818 50.5833 95.2781 50.8781 95.5744 51.0255C96.093 51.2466 96.6855 51.394 97.2781 51.6151C99.3522 52.2784 100.389 53.6051 100.241 55.374C100.167 57.2166 98.9818 58.4696 96.9078 58.9855C96.0189 59.2066 95.13 59.2803 94.4633 59.2066L94.6115 59.1329Z" fill="#00BBEA"/>
<path d="M116.908 21.9124C117.278 21.9124 117.649 21.9124 118.019 21.9124C118.76 22.2809 119.056 22.8705 119.056 23.6812C119.056 28.9879 119.056 34.2946 119.056 39.6012C119.056 40.412 118.76 41.149 117.871 41.3701C116.76 41.6649 115.871 40.9279 115.871 39.6012C115.871 35.0316 115.871 30.462 115.871 25.9661C115.871 25.229 115.871 24.492 115.871 23.8286C115.871 23.0179 116.093 22.3546 116.834 21.9861L116.908 21.9124Z" fill="#01BBEA"/>
<path d="M84.0186 31.715C84.0186 34.2946 84.0186 36.8743 84.0186 39.4539C84.0186 40.6332 83.426 41.2965 82.463 41.2965C81.5 41.2965 80.7593 40.5594 80.7593 39.4539C80.7593 34.2209 80.7593 28.988 80.7593 23.8287C80.7593 22.6495 81.3519 21.9124 82.3889 21.9124C83.426 21.9124 83.9445 22.5757 83.9445 23.8287C83.9445 26.482 83.9445 29.1354 83.9445 31.715H84.0186Z" fill="#01BBEA"/>
<path d="M87.2765 52.7948C87.2765 54.6374 87.2765 56.48 87.2765 58.2489C87.2765 58.7648 87.1284 58.9123 86.6098 58.986C84.0913 59.0597 84.0913 59.0597 84.0913 56.6274C84.0913 53.6056 84.0913 50.51 84.0913 47.4882C84.0913 46.8985 84.2395 46.6774 84.9061 46.6774C87.3506 46.6774 87.3506 46.6774 87.3506 49.036C87.3506 51.3945 87.3506 51.5419 87.3506 52.7948H87.2765Z" fill="#01BBEA"/>
<path d="M71.351 71.3679C71.351 69.4516 71.351 67.5353 71.351 65.619C71.351 65.0294 71.4251 64.7345 72.0917 64.8082C73.7214 64.882 75.351 64.7345 77.0547 64.9557C79.2769 65.2505 80.6103 66.5034 80.7584 68.4934C80.9806 70.9994 79.2769 72.9157 76.5362 72.9894C75.4251 72.9894 74.2399 72.9894 73.1288 72.9894C72.6103 72.9894 72.388 73.1368 72.388 73.6527C72.388 74.832 72.388 76.0112 72.388 77.1168C72.388 77.4853 72.6103 78.0749 71.8695 78.0012C71.0547 78.0012 71.351 77.4116 71.351 77.0431C71.351 75.1268 71.351 73.2842 71.351 71.3679Z" fill="#03BCE9"/>
<path d="M75.2786 33.042C75.2786 34.2213 75.2786 35.4005 75.2786 36.5061C75.2786 37.6116 74.686 38.275 73.723 38.275C72.8341 38.275 72.0934 37.6854 72.0934 36.5798C72.0934 34.1476 72.0934 31.7154 72.0934 29.3568C72.0934 28.3987 72.8341 27.8091 73.649 27.7354C74.5378 27.7354 75.2045 28.3987 75.2786 29.3568C75.2786 30.6098 75.2786 31.7891 75.2786 33.042Z" fill="#01BBEA"/>
<path d="M124.685 32.8944C124.685 31.7888 124.685 30.6096 124.685 29.504C124.685 28.4722 125.352 27.8088 126.315 27.8088C127.204 27.8088 127.87 28.4722 127.944 29.504C127.944 31.7888 127.944 34.0737 127.944 36.3585C127.944 37.464 127.278 38.1274 126.315 38.1274C125.352 38.1274 124.759 37.3903 124.759 36.3585C124.759 35.1792 124.759 33.9999 124.759 32.8944H124.685Z" fill="#01BBEA"/>
<path d="M89.65 32.9681C89.65 31.7888 89.65 30.6833 89.65 29.504C89.65 28.4722 90.3167 27.8088 91.1315 27.8088C92.0204 27.8088 92.7611 28.4722 92.7611 29.504C92.7611 31.8625 92.7611 34.2948 92.7611 36.6533C92.7611 37.6851 92.0945 38.3485 91.1315 38.3485C90.2426 38.3485 89.65 37.6851 89.65 36.6533C89.65 35.4003 89.65 34.2211 89.65 32.9681Z" fill="#00BBEA"/>
<path d="M110.316 32.9683C110.316 34.1476 110.316 35.3268 110.316 36.5798C110.316 37.6116 109.723 38.2013 108.76 38.2013C107.797 38.2013 107.13 37.6116 107.13 36.5061C107.13 34.1476 107.13 31.7154 107.13 29.3568C107.13 28.325 107.723 27.7354 108.686 27.7354C109.649 27.7354 110.242 28.325 110.316 29.4305C110.316 30.6098 110.316 31.7891 110.316 33.042V32.9683Z" fill="#00BBEA"/>
<path d="M122.166 75.4212C121.722 77.4849 119.351 78.6641 116.981 78.0745C115.055 77.5586 113.722 76.0845 113.499 74.0208C113.351 72.7678 113.499 71.4412 114.166 70.2619C115.277 68.4193 117.351 67.6086 119.425 68.2719C121.129 68.7878 122.536 70.9989 122.462 72.8415C122.462 73.4312 122.092 73.3575 121.722 73.3575C119.573 73.3575 117.499 73.3575 115.351 73.3575C114.611 73.3575 114.462 73.5786 114.611 74.2419C114.833 75.716 115.87 76.8952 117.277 77.1901C118.907 77.5586 120.092 77.1164 120.981 75.716C121.178 75.4212 121.573 75.2983 122.166 75.3475V75.4212Z" fill="#02BCE9"/>
<path d="M88.5385 76.6743C87.5014 77.9273 86.094 78.4432 84.4644 78.2221C83.1311 78.0747 82.1681 77.1902 81.9459 76.0847C81.7237 74.8317 82.3162 73.7261 83.5755 73.1365C84.9088 72.4732 86.4644 72.3995 87.8718 72.1784C88.4644 72.1047 88.6866 71.8836 88.6125 71.2939C88.5385 70.041 88.02 69.3776 86.7607 69.0828C85.3533 68.788 83.9459 69.2302 83.4274 70.1884C83.3533 70.3358 83.2792 70.4832 83.2792 70.6306C83.057 71.0728 82.6866 70.9254 82.3903 70.8517C82.02 70.778 82.3903 70.4095 82.3903 70.1884V70.041C82.9829 68.7143 84.9829 67.9035 86.9088 68.2721C88.5385 68.5669 89.6496 69.7461 89.6496 71.3676C89.6496 73.2839 89.6496 75.2739 89.6496 77.1902C89.6496 77.485 89.8718 77.9273 89.2792 78.001C88.6125 78.001 88.8348 77.5587 88.7607 77.1902C88.7607 77.0428 88.7607 76.8217 88.5385 76.6743Z" fill="#02BCE9"/>
<path d="M104.981 69.9671C105.87 68.7878 106.981 68.1982 108.388 68.1982C110.24 68.1982 111.647 69.4511 111.721 71.2937C111.721 73.3574 111.721 75.3474 111.721 77.4111C111.721 77.8534 111.647 78.0008 111.129 78.0008C110.536 78.0008 110.61 77.6323 110.61 77.3374C110.61 75.4948 110.61 73.6523 110.61 71.8834C110.61 70.0408 109.795 69.1563 108.166 69.0826C106.61 69.0089 105.203 70.1145 105.129 71.6623C105.055 73.5048 105.129 75.3474 105.055 77.2637C105.055 77.4848 105.129 77.8534 104.907 78.0008C104.758 78.0745 104.462 78.0745 104.24 78.0008C103.944 78.0008 104.018 77.706 104.018 77.4848C104.018 74.6841 104.018 71.8834 104.018 69.0826C104.018 68.7878 104.018 68.493 104.462 68.493C104.833 68.493 104.981 68.7141 104.981 69.0089C104.981 69.3037 104.981 69.5248 105.055 69.9671H104.981Z" fill="#04BCE9"/>
<path d="M66.5371 35.1055C66.5371 35.6215 66.5371 36.1374 66.5371 36.727C66.5371 37.6115 65.9445 38.2011 65.0557 38.2748C64.1668 38.2748 63.426 37.8326 63.352 36.9481C63.2779 35.7689 63.2779 34.5159 63.352 33.2629C63.352 32.4522 64.2408 31.8626 65.0557 31.9363C65.8705 31.9363 66.4631 32.5996 66.4631 33.4103C66.4631 34 66.4631 34.5159 66.4631 35.1055H66.5371Z" fill="#01BCEA"/>
<path d="M133.5 35.032C133.5 34.5161 133.5 33.9264 133.5 33.4105C133.5 32.5998 134.166 32.0101 134.907 31.9364C135.648 31.8627 136.463 32.3786 136.537 33.1894C136.759 34.4424 136.759 35.769 136.537 37.022C136.389 37.8327 135.796 38.2012 134.981 38.2012C134.166 38.2012 133.574 37.6116 133.5 36.8009C133.5 36.2112 133.5 35.6953 133.5 35.1057V35.032Z" fill="#01BCEA"/>
<path d="M101.572 35.0316C101.572 35.6212 101.572 36.2108 101.572 36.8005C101.498 37.6112 100.831 38.1271 100.016 38.1271C99.2013 38.1271 98.5346 37.5375 98.4606 36.7267C98.4606 35.5475 98.4606 34.3682 98.4606 33.2627C98.4606 32.4519 99.2013 31.8623 100.016 31.8623C100.757 31.8623 101.424 32.4519 101.572 33.189C101.572 33.2627 101.572 33.4101 101.572 33.4838C101.572 33.9997 101.572 34.5156 101.572 34.9579V35.0316Z" fill="#00BBEA"/>
<path d="M99.1296 72.989C99.1296 72.0308 99.1296 71.0727 99.1296 70.0408C99.1296 69.5249 99.0555 69.1564 98.3888 69.2301C98.0925 69.2301 97.6481 69.3775 97.6481 68.7878C97.6481 68.2719 98.0925 68.4193 98.3888 68.4193C98.9814 68.4193 99.2036 68.1982 99.1296 67.6823C99.1296 67.3138 99.1296 66.9453 99.1296 66.5767C99.1296 66.2082 99.3518 66.1345 99.6481 66.1345C99.9444 66.1345 100.093 66.2819 100.093 66.5767C100.093 67.1664 99.8703 67.9034 100.241 68.3456C100.611 68.7879 101.352 68.493 101.944 68.493C102.241 68.493 102.389 68.6404 102.389 68.9353C102.389 69.3038 102.167 69.3038 101.87 69.3038C101.278 69.3038 100.463 69.009 100.167 69.5249C99.8703 69.9671 100.093 70.7778 100.093 71.3675C100.093 72.8416 100.093 74.2419 100.093 75.716C100.093 77.1164 100.463 77.4849 101.944 77.4112C102.167 77.4112 102.537 77.1164 102.611 77.6323C102.611 78.0745 102.389 78.1482 102.018 78.2219C100.167 78.5904 99.1296 77.7797 99.0555 75.8634C99.0555 74.9053 99.0555 73.9471 99.0555 73.0627L99.1296 72.989Z" fill="#02BCE9"/>
<path d="M125.353 69.8936C126.094 68.7143 127.057 68.051 128.464 68.1984C128.909 68.1984 129.205 68.3458 129.205 68.8618C129.205 69.5251 128.761 69.1566 128.464 69.1566C126.835 69.0829 125.65 70.1884 125.502 72.1047C125.353 73.7999 125.502 75.5688 125.502 77.264C125.502 77.7062 125.502 78.001 124.909 78.001C124.613 78.001 124.464 77.9273 124.464 77.5588C124.464 74.6844 124.464 71.8099 124.464 68.9355C124.464 68.6407 124.539 68.4932 124.909 68.4932C125.205 68.4932 125.353 68.6407 125.353 68.9355C125.353 69.304 125.353 69.5988 125.353 69.9673V69.8936Z" fill="#06BDEA"/>
<path d="M92.6115 70.0407C93.2782 68.7141 94.1671 68.0507 95.6486 68.1244C96.0189 68.1244 96.3893 68.1244 96.3893 68.7141C96.3893 69.3774 95.9449 69.0826 95.6486 69.0826C93.8708 69.0089 92.6856 70.3355 92.6115 72.3993C92.6115 74.0207 92.6115 75.6422 92.6115 77.19C92.6115 77.5585 92.6856 77.8533 92.093 77.927C91.5745 77.927 91.5745 77.6322 91.5745 77.2637C91.5745 74.5367 91.5745 71.8096 91.5745 69.0826C91.5745 68.7878 91.5004 68.4929 91.9449 68.4192C92.4634 68.4192 92.3893 68.7141 92.4634 69.0089C92.4634 69.3037 92.5375 69.5248 92.6115 69.967V70.0407Z" fill="#02BCE9"/>
<path d="M123.353 49.5515C125.279 49.5515 126.686 50.9519 126.686 52.7944C126.686 54.5633 125.131 55.9637 123.353 55.9637C121.501 55.9637 119.946 54.4896 120.02 52.7208C120.02 50.8782 121.501 49.4778 123.427 49.4778L123.353 49.5515Z" fill="#FEFEFE"/>
<path d="M74.7588 65.6928C75.2774 65.6928 75.7959 65.6928 76.3144 65.6928C78.3885 65.7665 79.7218 67.0932 79.6477 69.0095C79.6477 70.7784 78.1663 72.105 76.1663 72.105C75.1292 72.105 74.1663 72.105 73.1292 72.105C72.6107 72.105 72.3885 72.105 72.3885 71.4417C72.3885 69.7465 72.3885 68.0513 72.3885 66.3562C72.3885 65.9139 72.5366 65.6928 72.9811 65.7665C73.5737 65.7665 74.1663 65.7665 74.7588 65.7665V65.6928Z" fill="#FEFEFE"/>
<path d="M117.945 72.6206C117.056 72.6206 116.093 72.6206 115.204 72.6206C114.685 72.6206 114.537 72.3995 114.611 71.9573C114.833 70.3358 116.315 68.9354 117.945 68.9354C119.574 68.9354 121.056 70.2621 121.278 71.8836C121.352 72.4732 121.278 72.6943 120.611 72.6206C119.722 72.6206 118.833 72.6206 117.945 72.6206Z" fill="#FDFEFE"/>
<path d="M88.6116 73.9471C88.9079 76.7478 85.8708 78.0008 84.019 77.1163C83.3523 76.8215 82.9819 76.3056 82.9079 75.5686C82.9079 74.9052 83.1301 74.3893 83.7227 74.0208C85.056 73.1363 86.6856 73.1363 88.1671 72.9152C88.9079 72.8415 88.3893 73.6523 88.5375 73.9471H88.6116Z" fill="#FDFEFE"/>
</svg>
