<svg width="200" height="100" viewBox="0 0 200 100" fill="none" xmlns="http://www.w3.org/2000/svg">
<path d="M62.7795 78.4267C61.9004 78.758 60.913 78.9236 59.8046 78.9236C56.1672 78.9236 54.3389 77.1654 54.3389 73.6426C54.3389 70.3046 56.1608 68.642 59.8046 68.642C60.9194 68.642 61.9132 68.8076 62.7795 69.1389V70.8397C61.9004 70.4575 60.9576 70.2728 59.9384 70.2728C57.4986 70.2728 56.2819 71.4003 56.2819 73.6426C56.2819 76.0824 57.4986 77.2992 59.9384 77.2992C60.9513 77.2992 61.9004 77.1144 62.7795 76.7322V78.4331V78.4267ZM63.7605 73.7892C63.7605 70.3492 65.4614 68.6292 68.8504 68.6292C72.2394 68.6292 73.8638 70.3492 73.8638 73.7892C73.8638 77.2291 72.1948 78.9236 68.8504 78.9236C65.506 78.9236 63.9134 77.21 63.7605 73.7892ZM68.8504 77.2864C70.8952 77.2864 71.9145 76.1079 71.9145 73.7509C71.9145 71.3939 70.8952 70.2728 68.8504 70.2728C66.8055 70.2728 65.7098 71.4322 65.7098 73.7509C65.7098 76.0697 66.7609 77.2864 68.8504 77.2864ZM75.3417 78.8471V68.7057H77.291L80.7309 76.401L84.1008 68.7057H85.98V78.8535H84.2409V71.7825L81.489 78.8471H79.8837L77.0744 71.7825V78.8471H75.3417ZM88.1077 78.8471V68.7057H90.0633L93.5033 76.401L96.8731 68.7057H98.7524V78.8535H97.0133V71.7825L94.2613 78.8471H92.656L89.8468 71.7825V78.8471H88.1077ZM110.232 68.7057L105.785 78.8535H103.759L99.5041 68.7057H101.74L104.874 76.471L108.008 68.6993H110.225L110.232 68.7057ZM108.161 78.8471L112.468 68.6993H114.493L118.895 78.8471H116.869L115.589 76.0761H112.41L113.06 74.4453H115.098L113.442 70.6295L110.098 78.8344H108.161V78.8471ZM119.144 74.8594V68.7057H121.023V74.8594C121.023 76.4774 121.851 77.2864 123.501 77.2864C125.151 77.2864 125.979 76.4774 125.979 74.8594V68.7057H127.858V74.8594C127.858 77.5667 126.399 78.9108 123.494 78.9108C120.59 78.9108 119.144 77.5667 119.144 74.8594ZM131.642 68.7057V77.2163H136.381V78.8471H129.763V68.7057H131.642ZM143.045 68.7057V70.3365H140.14V78.8471H138.261V70.3365H135.356V68.7057H143.051H143.045ZM144.905 69.0369C145.02 69.0369 145.102 69.056 145.16 69.107C145.217 69.158 145.243 69.2217 145.243 69.3172C145.243 69.4128 145.217 69.4701 145.166 69.5083C145.115 69.5466 145.058 69.572 144.988 69.5784L145.262 70.0052H145.102L144.841 69.5912H144.682V70.0052H144.529V69.0306H144.905V69.0369ZM144.848 69.4701H144.943C144.943 69.4701 145 69.4637 145.026 69.451C145.045 69.4383 145.071 69.4255 145.083 69.4C145.096 69.3746 145.102 69.3491 145.102 69.3109C145.102 69.279 145.096 69.2535 145.083 69.2344C145.071 69.2153 145.058 69.2026 145.032 69.1898C145.007 69.1771 144.988 69.1707 144.962 69.1707C144.937 69.1643 144.911 69.1643 144.886 69.1643H144.688V69.4765H144.848V69.4701Z" fill="#0B2E44"/>
<path d="M144.834 68.6931C144.375 68.6931 144.006 69.0686 144.006 69.5205C144.006 69.9724 144.382 70.3479 144.834 70.3479C145.286 70.3479 145.661 69.9724 145.661 69.5205C145.661 69.0686 145.286 68.6931 144.834 68.6931ZM144.834 70.2334C144.439 70.2334 144.121 69.9151 144.121 69.5205C144.121 69.1259 144.439 68.8076 144.834 68.8076C145.228 68.8076 145.547 69.1259 145.547 69.5205C145.547 69.9151 145.228 70.2334 144.834 70.2334Z" fill="#0B2E44"/>
<path d="M99.9988 21.0764L81.7225 31.6129V51.9021L99.9988 62.4577L118.275 51.9021V31.6129L99.9988 21.0764ZM115.122 50.093L100.005 58.8202L84.8885 50.093V33.4411L100.005 24.7139L115.122 33.4411V50.093Z" fill="#FF4A6A"/>
<path d="M98.9181 54.6095C98.9181 54.7624 98.7461 54.858 98.606 54.7815L87.974 48.6406C87.7893 48.5323 87.6619 48.3285 87.6619 48.1119V36.225C87.6619 36.0721 87.8339 35.9765 87.974 36.053L98.606 42.1939C98.7907 42.3022 98.9181 42.5061 98.9181 42.7226V54.6095ZM110.678 34.4286L100.498 40.3083C100.249 40.4485 99.9437 40.4485 99.6953 40.3083L89.5156 34.4286C89.3755 34.3521 89.3755 34.1483 89.5156 34.0718L99.6953 28.1921C99.9437 28.0519 100.249 28.0519 100.498 28.1921L110.678 34.0718C110.799 34.1674 110.799 34.3521 110.678 34.4286ZM110.678 49.456L101.441 54.7815C101.301 54.858 101.129 54.7688 101.129 54.6095V43.9457C101.129 43.7928 101.301 43.6973 101.441 43.7737L110.678 49.0993C110.799 49.1757 110.799 49.3605 110.678 49.456Z" fill="#FF4A6A"/>
</svg>
