<svg width="200" height="100" viewBox="0 0 200 100" fill="none" xmlns="http://www.w3.org/2000/svg">
<mask id="mask0_2_4520" style="mask-type:luminance" maskUnits="userSpaceOnUse" x="26" y="33" width="30" height="34">
<path d="M27.9742 58.03L34.2926 54.3677L40.6356 58.0177V65.3176L27.9742 58.03ZM35.1085 53.9015L41.0343 50.4785L46.9663 53.9015L41.0527 57.3184L35.1085 53.9015ZM41.4576 58.0238L54.53 50.4724V57.7784L41.4637 65.3238L41.4515 58.0238H41.4576ZM34.6975 46.35L40.6233 42.9209V49.773L34.6975 53.196V46.35ZM41.4453 49.7669V42.9148L47.3773 46.3439V53.196L41.4453 49.7669ZM27.5447 42.7062L33.8816 46.35V53.6684L27.5631 57.3245L27.5447 42.7062ZM27.9557 41.9946L40.6233 34.6701V41.9701L34.2865 45.6384L27.9557 41.9946ZM41.4453 41.9762V34.6701L54.1068 41.9823L47.7883 45.6323L41.4453 41.9701V41.9762ZM40.8626 33.5905L26.9313 41.6449L26.9006 41.6633L26.7289 41.9639L26.7473 58.0361V58.0729L26.919 58.3735L40.8503 66.3912L40.881 66.4096H41.2245L55.1373 58.3735L55.168 58.3551L55.3398 58.0545V49.6933L54.7938 49.3804L48.187 53.196V46.3439L55.1864 42.3013V41.6695L41.2429 33.6089L41.2122 33.5905H40.8626Z" fill="white"/>
</mask>
<g mask="url(#mask0_2_4520)">
<path d="M55.3459 33.5905H26.7289V66.4034H55.3459V33.5905Z" fill="url(#paint0_linear_2_4520)"/>
</g>
<path d="M67.9744 56.7553H66.5513V61.5463H65.3796V56.7553H63.9809V55.7861H67.9744V56.7553Z" fill="#173159"/>
<path d="M69.8867 57.6445C70.0952 57.3562 70.4265 57.1906 70.7823 57.1906C71.1258 57.1722 71.4632 57.3256 71.6718 57.6016C71.8988 57.9697 72.0092 58.3991 71.9785 58.8285V61.5522H70.8559V58.8408C70.8682 58.6506 70.8314 58.4604 70.7393 58.2948C70.6535 58.1782 70.5062 58.1169 70.359 58.123C70.1627 58.123 69.9787 58.2273 69.8867 58.4052V61.546H68.7702V55.4668H69.8867V57.6384V57.6445Z" fill="#173159"/>
<path d="M74.5519 61.6258C74.0489 61.6564 73.5642 61.4663 73.2084 61.1105C72.8649 60.6995 72.6931 60.1719 72.7238 59.6382V59.2947C72.687 58.7365 72.8465 58.1844 73.1655 57.7304C73.4783 57.3562 73.9507 57.1538 74.4353 57.1783C74.9015 57.1477 75.3493 57.3378 75.6499 57.6936C75.9505 58.1414 76.0977 58.6813 76.0671 59.2211V59.7732H73.8403C73.8403 60.0247 73.9078 60.2639 74.0489 60.4725C74.1961 60.632 74.4046 60.7117 74.6194 60.6933C74.969 60.6995 75.3125 60.5645 75.5579 60.3069L75.9996 60.9817C75.8462 61.1841 75.6377 61.3436 75.3984 61.4417C75.1285 61.5583 74.8402 61.6196 74.5457 61.6135L74.5519 61.6258ZM73.8464 59.0002H74.9629V58.896C74.969 58.6935 74.9261 58.4972 74.8341 58.3132C74.7482 58.1782 74.5825 58.0985 74.423 58.1169C74.2513 58.1046 74.0918 58.1844 73.9936 58.3255C73.8894 58.534 73.8341 58.7671 73.8403 59.0002H73.8464Z" fill="#173159"/>
<path d="M80.2473 55.7861H79.0818V61.5463H80.2473V55.7861Z" fill="#173159"/>
<path d="M81.096 59.277C81.0592 58.731 81.1819 58.1851 81.4518 57.7066C81.6849 57.3631 82.0776 57.1668 82.4886 57.1913C82.8198 57.1913 83.1265 57.3508 83.3106 57.6207V55.4737H84.4393V61.5529H83.421L83.3719 61.1173C83.1879 61.4363 82.8505 61.6326 82.4824 61.6326C82.0714 61.651 81.6849 61.4609 81.4518 61.1173C81.1881 60.6572 81.0592 60.1297 81.0899 59.6083V59.2831L81.096 59.277ZM82.2186 59.5592C82.2002 59.8598 82.2432 60.1604 82.3536 60.4425C82.4395 60.6082 82.6174 60.7063 82.8075 60.6941C83.0222 60.6941 83.2124 60.5836 83.3106 60.3935V58.4366C83.2247 58.2403 83.0284 58.1176 82.8137 58.1176C82.6296 58.1053 82.4517 58.2035 82.3597 58.3691C82.2432 58.6513 82.1941 58.9519 82.2186 59.2586V59.5592Z" fill="#173159"/>
<path d="M87.0401 61.6257C86.5371 61.6564 86.0525 61.4662 85.6967 61.1104C85.3532 60.6994 85.1814 60.1719 85.2121 59.6382V59.2946C85.1753 58.7364 85.3348 58.1843 85.6537 57.7304C85.9666 57.3562 86.439 57.1537 86.9236 57.1783C87.3898 57.1476 87.8376 57.3378 88.1382 57.6936C88.4388 58.1414 88.586 58.6812 88.5553 59.221V59.7731H86.3285C86.3285 60.0246 86.396 60.2639 86.5371 60.4724C86.6843 60.6319 86.8929 60.7117 87.1076 60.6933C87.4573 60.6994 87.8008 60.5645 88.0462 60.3068L88.4878 60.9816C88.3345 61.184 88.1259 61.3435 87.8867 61.4417C87.6168 61.5582 87.3284 61.6196 87.034 61.6134L87.0401 61.6257ZM86.3347 59.0002H87.4511V58.8959C87.4573 58.6935 87.4143 58.4972 87.3223 58.3131C87.2364 58.1782 87.0708 58.0984 86.9113 58.1168C86.7395 58.1046 86.58 58.1843 86.4819 58.3254C86.3776 58.534 86.3224 58.7609 86.3285 59.0002H86.3347Z" fill="#173159"/>
<path d="M90.4131 57.2645L90.4437 57.6878C90.6707 57.3688 91.0449 57.1786 91.4375 57.1848C92.1736 57.1848 92.554 57.7001 92.5724 58.7306V61.5463H91.4498V58.8165C91.462 58.6325 91.4252 58.4485 91.3394 58.289C91.2535 58.1724 91.1062 58.1111 90.959 58.1233C90.7505 58.1233 90.5664 58.246 90.4867 58.4362V61.5463H89.3641V57.2645H90.4192H90.4131Z" fill="#173159"/>
<path d="M94.8795 56.2152V57.2703H95.4561V58.1107H94.8795V60.2394C94.8672 60.362 94.8917 60.4786 94.9469 60.589C95.0144 60.6626 95.1187 60.6994 95.2107 60.681C95.2966 60.681 95.3886 60.6749 95.4745 60.6504V61.5214C95.2659 61.5951 95.0574 61.6319 94.8488 61.6257C94.1249 61.6257 93.763 61.2086 93.7507 60.3804V58.1046H93.2538V57.2642H93.7507V56.209H94.8733L94.8795 56.2152Z" fill="#173159"/>
<path d="M96.2679 56.1601C96.2679 56.0006 96.3231 55.8472 96.4335 55.7307C96.6911 55.5099 97.0653 55.5099 97.323 55.7307C97.4334 55.8472 97.4947 56.0006 97.4886 56.1601C97.4886 56.4975 97.231 56.7735 96.8874 56.7797C96.5439 56.7858 96.274 56.522 96.2679 56.1785V56.154V56.1601ZM97.4457 61.5461H96.3231V57.2643H97.4457V61.5461Z" fill="#173159"/>
<path d="M99.8124 56.2152V57.2703H100.389V58.1107H99.8124V60.2394C99.8001 60.362 99.8247 60.4786 99.8799 60.589C99.9473 60.6626 100.052 60.6994 100.144 60.681C100.23 60.681 100.322 60.6749 100.407 60.6504V61.5214C100.199 61.5951 99.9903 61.6319 99.7817 61.6257C99.0579 61.6257 98.6959 61.2086 98.6837 60.3804V58.1046H98.1868V57.2642H98.6837V56.209H99.8063L99.8124 56.2152Z" fill="#173159"/>
<path d="M102.579 59.6807L103.149 57.2637H104.346L102.935 62.1897C102.72 62.9197 102.327 63.2755 101.745 63.2755C101.591 63.2755 101.438 63.2448 101.284 63.2018V62.3246H101.413C101.548 62.3369 101.689 62.3001 101.806 62.2265C101.91 62.1345 101.978 62.0118 102.008 61.8768L102.094 61.5885L100.855 57.2637H102.057L102.573 59.6807H102.579Z" fill="#173159"/>
<path d="M109.429 60.0376C109.441 59.8413 109.38 59.6511 109.251 59.5039C109.055 59.3383 108.834 59.2156 108.595 59.1297C108.122 58.9763 107.693 58.7126 107.35 58.3568C107.098 58.0685 106.963 57.6943 106.969 57.3139C106.951 56.8661 107.141 56.4367 107.484 56.1484C108.135 55.6515 109.012 55.5656 109.742 55.9337C110.012 56.0748 110.233 56.2956 110.38 56.5655C110.533 56.8477 110.607 57.1667 110.601 57.4918H109.441C109.454 57.2771 109.398 57.0563 109.27 56.8784C109.147 56.7312 108.963 56.6575 108.773 56.6637C108.595 56.6514 108.423 56.7189 108.3 56.8416C108.184 56.9704 108.122 57.1483 108.129 57.3262C108.129 57.4918 108.202 57.6452 108.319 57.7556C108.515 57.9274 108.748 58.0623 108.994 58.1543C109.46 58.2954 109.883 58.5531 110.22 58.9027C110.478 59.2156 110.619 59.6205 110.601 60.0315C110.625 60.4731 110.447 60.9087 110.122 61.2093C109.754 61.5099 109.294 61.6571 108.822 61.6325C108.472 61.6325 108.122 61.5589 107.803 61.4056C107.503 61.2584 107.258 61.0314 107.086 60.7492C106.908 60.4425 106.816 60.0928 106.828 59.737H107.994C107.969 59.9947 108.037 60.2523 108.19 60.4609C108.356 60.6265 108.589 60.7124 108.822 60.6878C109.233 60.6878 109.435 60.4731 109.435 60.0437L109.429 60.0376Z" fill="#173159"/>
<path d="M113.085 61.6257C112.582 61.6564 112.097 61.4662 111.741 61.1104C111.398 60.6994 111.226 60.1719 111.257 59.6382V59.2946C111.22 58.7364 111.379 58.1843 111.698 57.7304C112.011 57.3562 112.483 57.1537 112.968 57.1783C113.434 57.1476 113.882 57.3378 114.183 57.6936C114.483 58.1414 114.631 58.6812 114.6 59.221V59.7731H112.373C112.373 60.0246 112.441 60.2639 112.582 60.4724C112.729 60.6319 112.937 60.7117 113.152 60.6933C113.502 60.6994 113.845 60.5645 114.091 60.3068L114.532 60.9816C114.379 61.184 114.17 61.3435 113.931 61.4417C113.661 61.5582 113.373 61.6196 113.079 61.6134L113.085 61.6257ZM112.379 59.0002H113.496V58.8959C113.502 58.6935 113.459 58.4972 113.367 58.3131C113.281 58.1782 113.115 58.0984 112.956 58.1168C112.784 58.1046 112.625 58.1843 112.526 58.3254C112.422 58.534 112.367 58.7609 112.373 59.0002H112.379Z" fill="#173159"/>
<path d="M116.9 60.7C117.225 60.7 117.391 60.4852 117.397 60.0681H118.452C118.464 60.4914 118.311 60.8963 118.023 61.1968C117.734 61.4852 117.335 61.6447 116.931 61.6262C116.452 61.6569 115.986 61.4668 115.667 61.111C115.348 60.6754 115.188 60.1356 115.225 59.5958V59.2522C115.188 58.7063 115.342 58.1603 115.655 57.7125C115.968 57.3444 116.44 57.1481 116.924 57.1849C117.342 57.1604 117.747 57.3199 118.041 57.6205C118.335 57.964 118.483 58.4118 118.458 58.8596H117.403C117.409 58.6695 117.372 58.4732 117.286 58.3014C117.207 58.1726 117.059 58.0928 116.906 58.1051C116.734 58.0928 116.575 58.1726 116.483 58.3137C116.379 58.5713 116.329 58.8412 116.348 59.1173V59.5528C116.342 59.7982 116.354 60.0436 116.397 60.2828C116.421 60.3994 116.483 60.5036 116.569 60.5895C116.667 60.6631 116.783 60.7 116.906 60.6877L116.9 60.7Z" fill="#173159"/>
<path d="M121.388 61.1598C121.173 61.4603 120.824 61.6382 120.456 61.6321C120.112 61.6505 119.775 61.5033 119.56 61.2272C119.333 60.8776 119.229 60.4604 119.253 60.0433V57.2705H120.37V60.074C120.37 60.4911 120.511 60.6997 120.787 60.6997C121.02 60.7119 121.241 60.577 121.345 60.3684V57.2767H122.474V61.5585H121.419L121.388 61.1659V61.1598Z" fill="#173159"/>
<path d="M125.589 58.3502L125.214 58.3195C124.938 58.3011 124.687 58.4668 124.595 58.7244V61.5524H123.472V57.2705H124.527L124.558 57.7368C124.668 57.4239 124.957 57.2092 125.288 57.1969C125.392 57.1969 125.496 57.2092 125.595 57.246L125.582 58.3502H125.589Z" fill="#173159"/>
<path d="M126.372 56.1601C126.372 56.0006 126.427 55.8472 126.537 55.7307C126.795 55.5099 127.169 55.5099 127.427 55.7307C127.537 55.8472 127.599 56.0006 127.593 56.1601C127.593 56.4975 127.335 56.7735 126.991 56.7797C126.648 56.7858 126.378 56.522 126.372 56.1785V56.154V56.1601ZM127.543 61.5461H126.421V57.2643H127.543V61.5461Z" fill="#173159"/>
<path d="M129.871 56.2152V57.2703H130.447V58.1107H129.871V60.2394C129.858 60.362 129.883 60.4786 129.938 60.589C130.006 60.6626 130.11 60.6994 130.202 60.681C130.288 60.681 130.38 60.6749 130.466 60.6504V61.5214C130.257 61.5951 130.049 61.6319 129.84 61.6257C129.116 61.6257 128.754 61.2086 128.742 60.3804V58.1046H128.245V57.2642H128.742V56.209H129.865L129.871 56.2152Z" fill="#173159"/>
<path d="M132.677 59.6807L133.247 57.2637H134.443L133.032 62.1897C132.818 62.9197 132.425 63.2755 131.842 63.2755C131.689 63.2755 131.536 63.2448 131.382 63.2018V62.3246H131.511C131.646 62.3369 131.787 62.3001 131.904 62.2265C132.008 62.1345 132.076 62.0118 132.106 61.8768L132.192 61.5885L130.959 57.2637H132.161L132.677 59.6807Z" fill="#173159"/>
<path d="M140.994 59.6322C141.006 60.1843 140.81 60.718 140.436 61.1228C140.043 61.4786 139.528 61.6627 138.994 61.632C138.424 61.6688 137.866 61.4295 137.498 60.9879C137.117 60.4542 136.933 59.8039 136.976 59.1537V58.1844C136.933 57.5281 137.123 56.8839 137.516 56.3502C138.307 55.5405 139.589 55.4914 140.442 56.2337C140.798 56.657 140.994 57.1907 141 57.7428H139.835C139.853 57.4483 139.792 57.16 139.645 56.9023C139.485 56.7306 139.252 56.6447 139.013 56.6692C138.749 56.6447 138.498 56.7735 138.35 56.9944C138.197 57.3318 138.123 57.6998 138.142 58.0679V59.1537C138.111 59.5585 138.179 59.9634 138.332 60.3315C138.473 60.5523 138.731 60.675 138.988 60.6505C139.221 60.6811 139.461 60.5953 139.62 60.4296C139.761 60.1843 139.835 59.9021 139.816 59.6199H140.988L140.994 59.6322Z" fill="#173159"/>
<path d="M141.645 59.2709C141.615 58.725 141.774 58.1851 142.105 57.7434C142.762 57.038 143.86 57.0012 144.565 57.6576L144.651 57.7434C144.983 58.1851 145.142 58.7311 145.111 59.2771V59.547C145.142 60.0929 144.983 60.6328 144.657 61.0744C143.989 61.7799 142.878 61.8106 142.173 61.148L142.099 61.0744C141.768 60.6328 141.609 60.0868 141.639 59.5408V59.2709H141.645ZM142.768 59.5531C142.768 60.3199 142.97 60.7002 143.381 60.7002C143.762 60.7002 143.964 60.3812 143.989 59.7433V59.2709C144.013 58.9703 143.952 58.6697 143.829 58.406C143.743 58.2342 143.565 58.1176 143.369 58.1238C143.179 58.1238 143.007 58.2342 142.928 58.406C142.805 58.6759 142.75 58.9765 142.768 59.2709V59.5531Z" fill="#173159"/>
<path d="M146.944 57.2654L146.974 57.658C147.207 57.3513 147.575 57.1734 147.968 57.1857C148.361 57.1673 148.729 57.4004 148.876 57.7623C149.091 57.3942 149.495 57.1673 149.925 57.1857C150.673 57.1857 151.06 57.701 151.078 58.7377V61.5411H149.962V58.8052C149.974 58.6211 149.937 58.4371 149.857 58.2776C149.778 58.1672 149.643 58.1058 149.508 58.1181C149.299 58.1181 149.146 58.2469 149.041 58.5046V58.6395L149.048 61.5472H147.931V58.8174C147.943 58.6334 147.913 58.4494 147.833 58.2837C147.753 58.1672 147.618 58.1058 147.483 58.1181C147.281 58.1181 147.103 58.2469 147.023 58.431V61.5411H145.907V57.2593H146.956L146.944 57.2654Z" fill="#173159"/>
<path d="M155.441 59.5409C155.472 60.0808 155.355 60.6145 155.098 61.0868C154.877 61.4426 154.484 61.645 154.067 61.6266C153.736 61.6328 153.423 61.4733 153.227 61.2034V63.1909H152.11V57.2651H153.147L153.19 57.6577C153.38 57.3571 153.711 57.1792 154.067 57.1853C154.472 57.1608 154.864 57.3509 155.098 57.6822C155.361 58.1484 155.484 58.676 155.453 59.2097V59.5409H155.441ZM154.325 59.2587C154.343 58.9582 154.3 58.6576 154.19 58.3815C154.104 58.2098 153.92 58.1116 153.73 58.1239C153.521 58.1116 153.325 58.2282 153.227 58.4122V60.4182C153.325 60.6022 153.527 60.7126 153.736 60.6942C153.932 60.7065 154.122 60.596 154.196 60.412C154.294 60.1298 154.337 59.8354 154.325 59.5348V59.2526V59.2587Z" fill="#173159"/>
<path d="M158.354 61.5465C158.311 61.4422 158.28 61.3318 158.262 61.2152C158.078 61.479 157.771 61.6385 157.446 61.6262C157.109 61.6385 156.79 61.5036 156.551 61.2704C156.311 61.0251 156.183 60.6938 156.195 60.3503C156.17 59.9577 156.33 59.5712 156.624 59.3074C156.98 59.0375 157.416 58.9087 157.863 58.9332H158.207V58.5897C158.219 58.4486 158.182 58.3014 158.109 58.1848C158.035 58.099 157.931 58.056 157.82 58.0622C157.538 58.0622 157.397 58.2278 157.397 58.5529H156.281C156.275 58.1726 156.434 57.8168 156.722 57.5714C157.035 57.3076 157.44 57.1727 157.845 57.1849C158.244 57.1604 158.636 57.2892 158.937 57.553C159.207 57.829 159.348 58.2094 159.323 58.602V60.6141C159.317 60.9147 159.366 61.2091 159.483 61.479V61.5465H158.36H158.354ZM157.692 60.749C157.802 60.749 157.912 60.7245 158.011 60.6754C158.09 60.6325 158.158 60.5711 158.207 60.4975V59.608H157.937C157.765 59.6019 157.6 59.6632 157.489 59.7921C157.373 59.927 157.317 60.0988 157.324 60.2767C157.324 60.5895 157.446 60.749 157.692 60.749Z" fill="#173159"/>
<path d="M161.369 57.2645L161.4 57.6878C161.627 57.3688 162.001 57.1786 162.394 57.1848C163.13 57.1848 163.51 57.7001 163.529 58.7306V61.5463H162.406V58.8165C162.418 58.6325 162.381 58.4485 162.296 58.289C162.21 58.1724 162.062 58.1111 161.915 58.1233C161.707 58.1233 161.523 58.246 161.443 58.4362V61.5463H160.32V57.2645H161.375H161.369Z" fill="#173159"/>
<path d="M165.905 59.6807L166.476 57.2637H167.672L166.261 62.1897C166.046 62.9197 165.654 63.2755 165.071 63.2755C164.917 63.2755 164.764 63.2448 164.611 63.2018V62.3246H164.74C164.875 62.3369 165.016 62.3001 165.132 62.2265C165.236 62.1345 165.304 62.0118 165.335 61.8768L165.421 61.5885L164.188 57.2637H165.39L165.905 59.6807Z" fill="#173159"/>
<path d="M171.842 39.8979C171.842 40.0697 171.719 40.1924 171.498 40.1924H171.057V39.6035H171.486C171.707 39.6035 171.842 39.7016 171.842 39.9041M172.29 39.8734C172.29 39.4562 171.983 39.2109 171.504 39.2109H170.615V41.2168H171.057V40.5727H171.406L171.836 41.2168H172.351L171.86 40.4991C172.13 40.4132 172.308 40.1556 172.29 39.8734ZM173.056 40.266C173.056 41.1861 172.308 41.9284 171.388 41.9284C170.468 41.9284 169.725 41.18 169.725 40.2599C169.725 39.3397 170.474 38.5974 171.394 38.5974C172.308 38.5974 173.05 39.3397 173.056 40.2537V40.266ZM173.271 40.266C173.271 39.2293 172.425 38.3827 171.382 38.3889C170.345 38.3889 169.498 39.2354 169.505 40.2783C169.505 41.315 170.345 42.1554 171.382 42.1554C172.412 42.1615 173.259 41.3395 173.271 40.3028V40.266Z" fill="#173159"/>
<path d="M150.826 42.6831C150.826 43.7382 150.059 44.4498 148.722 44.4498H145.937V40.8612H148.667C150.004 40.8612 150.826 41.4685 150.826 42.6463V42.6831ZM153.985 50.8787L150.936 46.4189C152.599 45.8791 153.697 44.2903 153.611 42.5481V42.5113C153.611 39.941 151.844 38.389 148.9 38.389H143.188V50.8848H145.937V46.8852H148.096L150.777 50.8848H153.991L153.985 50.8787ZM136.189 45.646H132.87L134.533 41.5912L136.195 45.646H136.189ZM141.189 50.8787L135.833 38.2908H133.3L127.944 50.8725H130.748L131.889 48.0691H137.171L138.312 50.8725H141.183L141.189 50.8787ZM117.111 44.7565V39.6895H120.964C122.982 39.6895 124.16 40.6158 124.16 42.1555V42.1923C124.16 43.7995 122.822 44.7627 120.945 44.7627H117.105L117.111 44.7565ZM115.7 50.8787H117.111V46.0202H120.681L124.307 50.8725H126.037L122.197 45.7687C124.16 45.4129 125.589 44.1983 125.589 42.1249V42.088C125.607 41.174 125.258 40.2845 124.626 39.622C123.65 38.7509 122.374 38.3031 121.074 38.3706H115.7V50.8664V50.8787ZM103.842 50.8787H112.964V49.5966H105.253V45.2227H112.069V43.9406H105.253V39.6711H112.878V38.389H103.842V50.8848V50.8787ZM92.1011 49.615V45.2043H96.0455C98.2232 45.2043 99.3642 45.9895 99.3642 47.3452V47.382C99.3642 48.7746 98.1864 49.615 96.2909 49.615H92.095H92.1011ZM92.1011 43.9529V39.6527H95.9044C97.6895 39.6527 98.671 40.4563 98.671 41.6893V41.7261C98.671 43.1861 97.4932 43.9529 95.8001 43.9529H92.1072H92.1011ZM90.7086 50.8787H96.2602C98.99 50.8787 100.794 49.6088 100.794 47.4679V47.4311C100.794 45.7196 99.5973 44.8608 98.119 44.413C99.3274 43.9713 100.125 42.8119 100.1 41.5237V41.4869C100.113 40.7385 99.8243 40.0207 99.2968 39.4871C98.395 38.708 97.2233 38.3092 96.0333 38.3767H90.7147V50.8725L90.7086 50.8787ZM81.7278 50.8787H83.1571V45.9159L88.353 38.3829H86.7089L82.4639 44.6338L78.2496 38.3829H76.5381L81.7339 45.9343V50.8787H81.7278ZM70.238 51.0934C72.1458 51.1302 73.9739 50.3266 75.2376 48.8972L74.3113 47.9894C73.1151 49.1304 71.9925 49.7929 70.281 49.7929C67.5328 49.7929 65.4409 47.5231 65.4409 44.6338V44.597C65.4409 41.7261 67.5082 39.4748 70.281 39.4748C71.7716 39.4809 73.1887 40.1066 74.207 41.1863L75.1701 40.1496C73.8942 38.8307 72.1274 38.1129 70.2994 38.1682C66.6187 38.1682 63.9809 41.0943 63.9809 44.6338V44.6706C63.9809 48.2531 66.6371 51.0934 70.2442 51.0934" fill="#173159"/>
<path d="M167.735 50.8778L162.416 43.6822L167.502 38.382H164.183L159.116 43.8478V38.382H156.362V50.8778H159.116V47.0561L160.558 45.5593L164.435 50.8778H167.735Z" fill="#173159"/>
<defs>
<linearGradient id="paint0_linear_2_4520" x1="40.8705" y1="38.1146" x2="40.8705" y2="68.7449" gradientUnits="userSpaceOnUse">
<stop stop-color="#4AC7F4"/>
<stop offset="0.05" stop-color="#4AC7F4"/>
<stop offset="0.8" stop-color="#2B3383"/>
<stop offset="1" stop-color="#2B3383"/>
</linearGradient>
</defs>
</svg>
