<svg width="200" height="100" viewBox="0 0 200 100" fill="none" xmlns="http://www.w3.org/2000/svg">
<path d="M129.068 20.9322H70.9322V79.0678H129.068V20.9322Z" fill="#632CA6"/>
<path d="M82.319 67.1724H83.5576C84.7246 67.1724 85.3081 66.4843 85.3081 65.1137C85.3081 63.9467 84.7246 63.3576 83.5576 63.3576H82.319V67.1724ZM83.7172 68.0807H81.2731V62.4549H83.7172C85.4787 62.4549 86.3595 63.3411 86.3595 65.1137C86.3595 67.0899 85.4787 68.0807 83.7172 68.0807Z" fill="white"/>
<path d="M87.4486 68.0807H86.3752L88.7697 62.4549H89.8927L92.3368 68.0807H91.2138L90.5037 66.5449H88.6982L89.056 65.6421H90.2285L89.3037 63.5283L87.4486 68.0807Z" fill="white"/>
<path d="M91.7476 62.4549H96.0193V63.3577H94.4064V68.0807H93.3605V63.3577H91.7476V62.4549Z" fill="white"/>
<path d="M96.5576 68.0807H95.4842L97.8733 62.4549H98.9962L101.44 68.0807H100.317L99.6072 66.5449H97.8017L98.165 65.6421H99.332L98.4127 63.5283L96.5576 68.0807Z" fill="white"/>
<path d="M103.18 67.1724H104.418C105.585 67.1724 106.174 66.4843 106.174 65.1137C106.174 63.9467 105.591 63.3576 104.418 63.3576H103.18V67.1724ZM104.578 68.0807H102.134V62.4549H104.578C106.339 62.4549 107.22 63.3411 107.22 65.1137C107.22 67.0899 106.339 68.0807 104.578 68.0807Z" fill="white"/>
<path d="M110.756 67.2127C111.89 67.2127 112.457 66.5576 112.457 65.2475C112.457 63.9373 111.89 63.3153 110.756 63.3153C109.622 63.3153 109.011 63.9594 109.011 65.2475C109.011 66.5356 109.595 67.2127 110.756 67.2127ZM107.927 65.275C107.927 63.3704 108.868 62.418 110.756 62.418C112.644 62.418 113.542 63.3704 113.542 65.275C113.542 67.1796 112.611 68.1209 110.756 68.1209C108.901 68.1209 108.009 67.1741 107.927 65.275Z" fill="white"/>
<path d="M117.897 65.8028V67.1184C117.655 67.179 117.44 67.212 117.253 67.212C115.976 67.212 115.337 66.5349 115.337 65.1862C115.337 63.9422 116.014 63.3146 117.363 63.3146C117.93 63.3146 118.453 63.4192 118.937 63.6284V62.6816C118.453 62.4999 117.897 62.4063 117.281 62.4063C115.26 62.4063 114.247 63.3311 114.247 65.1807C114.247 67.1349 115.244 68.1093 117.231 68.1093C117.914 68.1093 118.486 68.0102 118.937 67.812V64.8725H117.253L116.901 65.7973H117.897V65.8028Z" fill="white"/>
<path d="M97.7119 38.2566C98.7413 37.5575 100.062 37.8328 99.8423 38.0419C99.4184 38.4438 99.9799 38.3227 100.04 39.0658C100.084 39.6108 99.9083 39.9135 99.7542 40.0842C99.4349 40.1282 99.0441 40.2053 98.5762 40.3594C98.301 40.4475 98.0587 40.5521 97.8441 40.6512C97.789 40.6126 97.7285 40.5686 97.6569 40.5081C96.9303 39.8805 96.9578 38.7741 97.7119 38.2566ZM103.85 42.5833C104.037 42.4402 104.885 42.165 105.666 42.0714C106.079 42.0219 106.663 41.9943 106.789 42.0659C107.037 42.2035 107.037 42.6274 106.866 43.0182C106.619 43.5907 106.266 44.2183 105.87 44.2678C105.22 44.3504 104.609 44.0036 103.91 43.4806C103.663 43.2935 103.508 42.8366 103.844 42.5778M105.028 37.0346C105.986 37.4804 105.859 38.3282 105.886 38.8236C105.892 38.9667 105.886 39.0603 105.881 39.1319C105.749 39.0603 105.54 39.0053 105.209 39.0218C105.11 39.0218 105.017 39.0383 104.929 39.0493C104.576 38.8621 104.367 38.4878 104.175 38.097C104.158 38.0584 104.141 38.0309 104.13 37.9979C104.13 37.9814 104.119 37.9704 104.114 37.9539C104.114 37.9484 104.114 37.9428 104.108 37.9318C104.004 37.596 104.075 37.53 104.119 37.4254C104.164 37.3208 104.34 37.2327 104.081 37.1447C104.059 37.1392 104.031 37.1337 103.998 37.1281C104.169 36.919 104.675 36.8694 105.033 37.0346M99.8203 47.1523C98.7909 46.4917 97.723 45.5449 97.2606 45.0164C97.1835 44.9559 97.1945 44.6972 97.1945 44.6972C97.6129 45.0219 99.3579 46.2715 101.202 46.8385C101.852 47.0422 102.853 47.1137 103.718 46.6238C104.378 46.2495 105.176 45.5944 105.65 44.9229L105.738 45.0715C105.738 45.1706 105.518 45.6605 105.408 45.8587C105.611 45.9743 105.76 46.0073 105.98 46.0678L107.505 45.8311C108.055 44.9449 108.446 43.5192 108.028 42.1595C107.791 41.3778 106.542 39.8255 106.453 39.7429C106.14 39.4401 106.509 38.2786 105.886 37.0125C105.231 35.6694 103.519 34.2712 102.776 33.6657C102.996 33.8253 104.34 34.3703 104.973 35.1244C105.033 35.0474 105.055 34.64 105.11 34.5354C104.571 33.8308 104.527 32.5702 104.527 32.2344C104.527 31.6179 104.213 30.9188 104.213 30.9188C104.213 30.9188 104.753 31.3482 104.89 32.0803C105.055 32.95 105.408 33.6381 105.87 34.2161C106.751 35.3116 107.543 35.8731 107.945 35.4657C108.424 34.9813 107.461 32.8069 106.222 31.5904C104.78 30.1757 104.406 30.3573 103.558 30.6601C102.881 30.9023 102.518 32.8179 100.762 32.7794C100.464 32.7464 99.6937 32.7244 99.3193 32.7299C99.5175 32.4546 99.6881 32.2399 99.6881 32.2399C99.6881 32.2399 99.0991 32.4766 98.5982 32.7794L98.5597 32.7188C98.7303 32.361 98.912 32.1353 98.912 32.1353C98.912 32.1353 98.4386 32.4161 98.0092 32.7574C98.0863 32.3335 98.3835 32.0583 98.3835 32.0583C98.3835 32.0583 97.789 32.1684 97.0294 32.9996C96.1651 33.2363 95.9614 33.3904 95.2733 33.6932C94.1559 33.451 93.6274 33.0546 93.1265 32.3335C92.7412 31.783 92.0641 31.695 91.365 31.9812C90.3521 32.3996 89.0695 32.9776 89.0695 32.9776C89.0695 32.9776 89.4879 32.9611 89.9227 32.9776C89.3282 33.2033 88.7502 33.517 88.7502 33.517C88.7502 33.517 89.031 33.506 89.3723 33.517C89.1356 33.7152 89.0034 33.8088 88.7777 33.9574C88.2328 34.3538 87.7924 34.8106 87.7924 34.8106C87.7924 34.8106 88.1612 34.64 88.497 34.5464C88.2658 35.0804 87.8034 35.4712 87.886 36.1263C87.9685 36.7208 88.7007 37.9484 89.642 38.7025C89.7246 38.7686 91.0127 39.9631 91.987 39.4732C92.9614 38.9832 93.3412 38.5484 93.5008 37.8768C93.688 37.1061 93.5834 36.5281 93.1815 34.8602C93.0494 34.3097 92.7026 33.1757 92.5375 32.6363L92.576 32.6088C92.8953 33.2803 93.71 35.0474 94.0348 36.2364C94.5467 38.086 94.3871 39.0273 94.1504 39.3741C93.4458 40.4145 91.6347 40.5521 90.809 39.9741C90.6824 41.9668 91.1283 42.8476 91.2769 43.288C91.1998 43.7944 91.5301 44.7412 91.5301 44.7412C91.5301 44.7412 91.5686 44.3118 91.7173 44.0861C91.7558 44.5926 92.0145 45.1926 92.0145 45.1926C92.0145 45.1926 91.998 44.8238 92.1136 44.5045C92.2788 44.7797 92.3944 44.8458 92.5485 45.055C92.7026 45.5944 93.0109 45.9908 93.0109 45.9908C93.0109 45.9908 92.9614 45.699 92.9889 45.4018C93.743 46.1284 93.8751 47.1853 93.9467 47.9945C94.1559 50.2294 90.4237 52.0075 89.697 53.4057C89.1466 54.2314 88.8218 55.5415 89.7466 56.3177C91.9925 58.1838 91.1283 58.6957 92.2567 59.5159C93.7981 60.6389 95.7302 60.138 96.3853 59.2242C97.2991 57.9471 97.0624 56.747 96.7266 55.6241C96.4624 54.7433 95.7412 53.2846 94.844 52.7176C93.9302 52.1396 93.0439 52.0295 92.2953 52.1066L92.3668 52.0295C93.4458 51.8148 94.5797 51.9304 95.3944 52.4589C96.3247 53.0534 97.1725 54.0773 97.6184 55.6461C98.1193 55.5745 98.1909 55.5415 98.6533 55.4755L97.6129 47.3945L99.8093 47.1523H99.8203ZM100.415 57.2755L100.294 56.158L102.628 52.5965L105.275 53.3726L107.554 49.5689L110.285 51.3689L112.36 47.0147L113.098 54.9415L100.409 57.2755H100.415ZM113.131 45.3908L104.791 46.9046C104.587 47.1688 104.075 47.6367 103.828 47.7633C102.776 48.2918 102.061 48.1431 101.45 47.978C101.053 47.8789 100.822 47.8239 100.497 47.6752L98.4606 47.956L99.6937 58.2664L113.984 55.6901L113.136 45.3963L113.131 45.3908Z" fill="white"/>
</svg>
