<svg width="200" height="100" viewBox="0 0 200 100" fill="none" xmlns="http://www.w3.org/2000/svg">
<path d="M182.623 47.1789C182.623 45.154 181.466 44.2862 179.296 43.8523C177.055 43.4183 175.753 43.2014 175.753 41.6104C175.753 40.0194 176.621 39.8024 178.212 39.8024C179.803 39.8024 180.887 40.6703 180.887 41.8273L181.104 42.0443H181.972L182.189 41.8273C182.189 39.5855 180.381 38.7177 178.212 38.7177C176.042 38.7177 174.451 40.0917 174.451 41.6104C174.451 43.1291 175.825 44.2862 177.995 44.7201C180.237 45.154 181.321 45.3709 181.321 47.1789C181.321 48.9869 180.67 49.2038 178.429 49.2038C176.187 49.2038 175.536 48.0467 175.536 46.745L175.319 46.528H174.451L174.234 46.745C174.234 48.7699 175.825 50.2886 178.429 50.2886C181.321 50.2886 182.623 48.9869 182.623 47.1789ZM173.149 44.937L173.366 44.7201V44.0692C173.366 40.9595 171.558 38.7177 168.521 38.7177C165.484 38.7177 163.676 40.9595 163.676 44.0692V44.5031C163.676 47.6128 165.267 50.2886 168.738 50.2886C172.209 50.2886 172.932 48.2637 173.149 46.9619L172.932 46.745H172.065L171.848 46.9619C171.414 48.336 170.474 49.2038 168.738 49.2038C165.845 49.2038 164.977 46.528 164.977 45.2263L165.194 45.0094H173.149V44.937ZM171.848 43.8523H165.194L164.977 43.6353C164.977 42.0443 165.845 39.8748 168.521 39.8748C171.197 39.8748 172.065 42.1166 172.065 43.6353L171.775 43.8523H171.848ZM162.085 49.8547V39.2239L161.868 39.0069H161L160.783 39.2239V49.8547L161 50.0716H161.868L162.085 49.8547ZM162.085 36.982V35.608L161.868 35.391H161L160.783 35.608V36.982L161 37.199H161.868L162.085 36.982ZM153.696 49.1315C151.454 49.1315 150.152 47.5405 150.152 44.5031C150.152 41.4658 151.526 39.8748 153.696 39.8748C155.865 39.8748 157.239 41.4658 157.239 44.5031C157.239 47.6128 155.865 49.1315 153.696 49.1315ZM157.239 48.4806C157.239 51.3734 156.588 53.5429 153.913 53.5429C151.237 53.5429 151.237 52.6751 151.02 51.518L150.803 51.301H149.935L149.718 51.518C149.935 53.326 151.309 54.6277 153.913 54.6277C156.516 54.6277 158.541 52.8197 158.541 48.4083V39.1516L158.324 38.9346H157.673L157.456 39.1516L157.239 40.5256H157.022C156.588 39.6578 155.431 38.7177 153.479 38.7177C150.369 38.7177 148.85 41.1765 148.85 44.5031C148.85 47.8298 150.441 50.2886 153.479 50.2886C156.516 50.2886 156.588 49.4208 157.022 48.4806H157.239ZM142.848 39.8748C145.09 39.8748 146.609 41.6827 146.609 44.5031C146.609 47.3235 145.018 49.1315 142.848 49.1315C140.678 49.1315 139.087 47.3235 139.087 44.5031C139.087 41.6827 140.678 39.8748 142.848 39.8748ZM142.848 50.2886C145.741 50.2886 147.91 48.2637 147.91 44.5031C147.91 40.7426 145.668 38.7177 142.848 38.7177C140.028 38.7177 137.786 40.7426 137.786 44.5031C137.786 48.2637 139.955 50.2886 142.848 50.2886ZM136.195 49.8547V34.8125L135.978 34.5955H135.11L134.893 34.8125V49.8547L135.11 50.0716H135.978L136.195 49.8547ZM128.312 39.8748C130.554 39.8748 132.073 41.6827 132.073 44.5031C132.073 47.3235 130.482 49.1315 128.312 49.1315C126.143 49.1315 124.551 47.3235 124.551 44.5031C124.551 41.6827 126.143 39.8748 128.312 39.8748ZM128.312 50.2886C131.205 50.2886 133.374 48.2637 133.374 44.5031C133.374 40.7426 131.132 38.7177 128.312 38.7177C125.492 38.7177 123.25 40.7426 123.25 44.5031C123.25 48.2637 125.419 50.2886 128.312 50.2886ZM121.876 49.8547V43.2014C121.876 40.3087 120.285 38.79 117.898 38.79C115.512 38.79 115.005 39.4408 114.355 40.5979H114.138L113.921 39.2239L113.704 39.0069H113.053L112.836 39.2239V49.8547L113.053 50.0716H113.921L114.138 49.8547V43.8523C114.138 41.3934 115.295 39.8748 117.681 39.8748C120.068 39.8748 120.574 41.0319 120.574 43.2014V49.8547L120.791 50.0716H121.659L121.948 49.8547H121.876ZM110.594 49.8547V43.2014C110.594 40.3087 109.003 38.79 106.617 38.79C104.23 38.79 103.724 39.4408 103.073 40.5979H102.856V34.8125L102.639 34.5955H101.771L101.554 34.8125V49.8547L101.771 50.0716H102.639L102.856 49.8547V43.8523C102.856 41.3934 104.013 39.8748 106.4 39.8748C108.786 39.8748 109.292 41.0319 109.292 43.2014V49.8547L109.509 50.0716H110.377L110.666 49.8547H110.594ZM91.5744 44.5031C91.5744 41.3934 93.1654 39.8748 95.3349 39.8748C97.5045 39.8748 98.4446 41.2488 98.6616 42.5505L98.8785 42.7675H99.7463L99.9633 42.5505C99.7463 40.3087 97.9384 38.79 95.3349 38.79C92.7315 38.79 90.2726 40.5979 90.2726 44.5754C90.2726 48.5529 92.5145 50.3609 95.3349 50.3609C98.1553 50.3609 99.7463 48.7699 99.9633 46.6004L99.7463 46.3834H98.8785L98.6616 46.6004C98.4446 47.9744 97.5045 49.2761 95.3349 49.2761C93.0931 49.2761 91.5744 47.7574 91.5744 44.6478M89.1156 44.937L89.3325 44.7201V44.0692C89.3325 40.9595 87.5246 38.7177 84.4872 38.7177C81.4498 38.7177 79.6419 40.9595 79.6419 44.0692V44.5031C79.6419 47.6128 81.2329 50.2886 84.7041 50.2886C88.1754 50.2886 88.8986 48.2637 89.1156 46.9619L88.8986 46.745H88.0308L87.8138 46.9619C87.3799 48.336 86.4398 49.2038 84.7041 49.2038C81.8114 49.2038 80.9436 46.528 80.9436 45.2263L81.1606 45.0094H89.1156V44.937ZM87.7415 43.8523H81.0882L80.8713 43.6353C80.8713 42.0443 81.7391 39.8748 84.4149 39.8748C87.0906 39.8748 87.9585 42.1166 87.9585 43.6353L87.6692 43.8523H87.7415ZM81.8114 35.4633V34.8125L81.5945 34.5955H70.0959L69.8789 34.8125V35.4633L70.0959 35.6803H74.9412L75.1581 35.8973V49.8547L75.3751 50.0716H76.2429L76.4599 49.8547V35.8973L76.6768 35.6803H81.5221L81.8114 35.4633Z" fill="#9B9B9A"/>
<path d="M69.88 46.9622V50.0719H59.9001V34.5958H63.4437V46.9622H69.9523H69.88ZM23.741 50.0719C27.3569 50.0719 30.3942 47.6131 31.2621 44.2864L40.0126 51.1566L48.7631 44.2864V50.0719H58.743V46.9622H52.2343V34.5958H48.6908V40.3812L40.3018 46.9622L38.4216 45.5158L42.4714 42.3338L46.8828 38.9349L44.3517 36.9823L35.9627 43.5632L34.0825 42.1169L42.4714 35.5359L39.9402 33.5833L31.1897 40.4535C30.3219 37.1269 27.2846 34.6681 23.6686 34.6681H17.377V50.1442H23.6686L23.741 50.0719ZM20.9205 46.9622V37.6331H23.741C26.0551 37.6331 28.0077 39.7304 28.0077 42.3338C28.0077 44.9373 26.1275 47.0345 23.741 47.0345H20.9205V46.9622Z" fill="#0A85C7"/>
<path d="M83.1133 60.6313H81.233L81.0884 60.7759V66.0551L80.9437 66.1998H79.7867L79.642 66.0551V60.7759L79.4974 60.6313H77.6171L77.4725 60.4866V59.5465L77.6171 59.4019H82.8963L83.041 59.5465V60.4866L83.1133 60.6313Z" fill="#59595C"/>
<path d="M86.2957 66.1274H85.1386L84.994 65.9828V59.6188L85.1386 59.4741H86.2957L86.4403 59.6188V65.9828L86.2957 66.1274Z" fill="#59595C"/>
<path d="M93.6719 60.6313H91.7916L91.647 60.7759V66.0551L91.5023 66.1998H90.3452L90.2006 66.0551V60.7759L90.056 60.6313H88.1757L88.0311 60.4866V59.5465L88.1757 59.4019H93.5273L93.6719 59.5465V60.4866H93.5273L93.6719 60.6313Z" fill="#59595C"/>
<path d="M100.109 66.1274H99.2416L99.0969 65.9828L98.5907 64.7533L98.3738 64.6087H95.9873L95.7703 64.7533L95.2641 65.9828L95.1194 66.1274H94.2516L94.107 65.9828V65.0426L96.2765 59.5464L96.4212 59.4018H97.6506L97.7952 59.5464L99.9648 65.0426V65.9828L99.8201 66.1274H100.109ZM97.4336 61.2098H97.289L96.4212 63.4516L96.5658 63.5963H98.1568L98.3015 63.4516L97.4336 61.2098Z" fill="#59595C"/>
<path d="M102.207 59.4741H103.509L103.726 59.6188L106.257 63.9578H106.401V59.6188L106.546 59.4741H107.703L107.848 59.6188V65.9828L107.703 66.1274H106.401L106.184 65.9828L103.653 61.6437H103.509V65.9828L103.364 66.1274H102.207L102.062 65.9828V59.6188L102.207 59.4741Z" fill="#59595C"/>
<path d="M111.319 66.1274H110.162L110.017 65.9828V59.6188L110.162 59.4741H111.319L111.464 59.6188V65.9828L111.319 66.1274Z" fill="#59595C"/>
<path d="M119.125 63.5963C119.125 65.3319 118.185 66.272 116.449 66.272C114.713 66.272 113.773 65.3319 113.773 63.5963V59.6188L113.918 59.4741H115.075L115.22 59.6188V63.5963C115.22 64.5364 115.581 65.1149 116.521 65.1149C117.461 65.1149 117.823 64.5364 117.823 63.5963V59.6188L117.968 59.4741H119.125L119.269 59.6188V63.5963H119.125Z" fill="#59595C"/>
<path d="M128.531 66.1274H127.374L127.229 65.9828V62.2945H127.084L125.566 65.9828L125.421 66.1274H124.336L124.192 65.9828L122.673 62.2945H122.528V65.9828L122.384 66.1274H121.226L121.082 65.9828V59.6188L121.226 59.4741H122.673L122.817 59.6188L124.698 64.2471H124.842L126.723 59.6188L126.867 59.4741H128.314L128.458 59.6188V66.1274H128.531Z" fill="#59595C"/>
<path d="M138.002 63.4523H136.194L136.05 63.5969V66.0558L135.905 66.2004H134.748L134.603 66.0558V59.6918L134.748 59.5471H137.858C139.159 59.5471 140.1 60.198 140.1 61.4997C140.1 62.8014 139.159 63.5246 137.858 63.5246L138.002 63.4523ZM138.002 60.6319H136.194L136.05 60.7765V62.2952L136.194 62.4398H138.002C138.581 62.4398 138.942 62.2229 138.942 61.572C138.942 60.9212 138.509 60.6319 138.002 60.6319Z" fill="#59595C"/>
<path d="M146.606 66.1275H145.738L145.593 65.9828L145.087 64.7534L144.87 64.6088H142.484L142.267 64.7534L141.76 65.9828L141.616 66.1275H140.748L140.603 65.9828V65.0427L142.773 59.5465L142.918 59.4019H144.147L144.292 59.5465L146.461 65.0427V65.9828L146.316 66.1275H146.606ZM143.858 61.2098H143.713L142.845 63.4517L142.99 63.5963H144.581L144.725 63.4517L143.858 61.2098Z" fill="#59595C"/>
<path d="M152.612 63.38V63.5246L153.842 65.1156V66.0558L153.697 66.2004H153.119L152.902 66.0558L151.021 63.5969L150.804 63.4523H149.864L149.72 63.5969V66.0558L149.575 66.2004H148.418L148.273 66.0558V59.6918L148.418 59.5471H151.528C152.829 59.5471 153.769 60.198 153.769 61.4997C153.769 62.5845 153.119 63.2354 152.395 63.38H152.612ZM151.745 60.6319H149.937L149.792 60.7765V62.2952L149.937 62.4398H151.745C152.323 62.4398 152.685 62.2229 152.685 61.572C152.685 60.9212 152.251 60.6319 151.745 60.6319Z" fill="#59595C"/>
<path d="M160.564 60.6313H158.684L158.54 60.7759V66.0551L158.395 66.1998H157.238L157.093 66.0551V60.7759L156.949 60.6313H155.068L154.924 60.4866V59.5465L155.068 59.4019H160.348L160.492 59.5465V60.4866L160.564 60.6313Z" fill="#59595C"/>
<path d="M162.447 59.4741H163.749L163.966 59.6188L166.497 63.9578H166.642V59.6188L166.786 59.4741H167.943L168.088 59.6188V65.9828L167.943 66.1274H166.642L166.425 65.9828L163.894 61.6437H163.749V65.9828L163.604 66.1274H162.447L162.303 65.9828V59.6188L162.447 59.4741Z" fill="#59595C"/>
<path d="M174.665 66.1274H170.254L170.109 65.9828V59.6188L170.254 59.4741H174.665L174.81 59.6188V60.5589L174.665 60.7035H171.556L171.411 60.8482V62.1499L171.556 62.2945H174.448L174.593 62.4392V63.3793L174.448 63.5239H171.556L171.411 63.6686V65.1873L171.556 65.3319H174.665L174.81 65.4765V66.4167H174.665V66.1274Z" fill="#59595C"/>
<path d="M181.032 63.38V63.5246L182.262 65.1156V66.0558L182.117 66.2004H181.538L181.322 66.0558L179.441 63.5969L179.224 63.4523H178.284L178.14 63.5969V66.0558L177.995 66.2004H176.838L176.693 66.0558V59.6918L176.838 59.5471H179.947C181.249 59.5471 182.189 60.198 182.189 61.4997C182.189 62.5845 181.538 63.2354 180.815 63.38H181.032ZM180.237 60.6319H178.429L178.284 60.7765V62.2952L178.429 62.4398H180.237C180.815 62.4398 181.177 62.2229 181.177 61.572C181.177 60.9212 180.815 60.6319 180.237 60.6319Z" fill="#59595C"/>
</svg>
