<svg width="200" height="100" viewBox="0 0 200 100" fill="none" xmlns="http://www.w3.org/2000/svg">
<g opacity="0.85">
<path d="M83.4212 50.8106H53.3474V66.2376H68.3969C76.4501 66.2376 83.027 59.4091 83.4212 50.8106Z" fill="#6DBE50"/>
</g>
<path d="M68.3969 33.7626H53.3474V49.1896H83.438C83.0354 40.5911 76.4585 33.7626 68.3969 33.7626Z" fill="#6DBE50"/>
<path d="M131.618 33.7628C123.565 33.7628 116.971 40.6081 116.585 49.1898H146.642C146.273 40.5913 139.68 33.7628 131.618 33.7628Z" fill="#6DBE50"/>
<g opacity="0.85">
<path d="M146.653 50.8108H116.579C116.965 59.4093 123.541 66.2378 131.612 66.2378C139.665 66.2378 146.258 59.4093 146.644 50.8108" fill="#6DBE50"/>
</g>
<path d="M84.95 33.7628V49.9952C84.95 58.686 91.2752 65.7913 99.253 66.2107V33.7628H84.95Z" fill="#6DBE50"/>
<g opacity="0.85">
<path d="M115.051 33.7622H100.764V66.2269H115.051V49.9946V33.7622Z" fill="#6DBE50"/>
</g>
</svg>
