<svg width="200" height="100" viewBox="0 0 200 100" fill="none" xmlns="http://www.w3.org/2000/svg">
<path d="M32.1705 49.8089V38.1758H53.8967V31.9605H25.9553V56.0242L32.0845 61.9737H53.8967L54.0687 55.8913H26.2602L32.1705 49.8089Z" fill="#452284"/>
<path d="M50.0431 43.8975H38.1597V49.9329H50.0431V43.8975Z" fill="#452284"/>
<path d="M65.5466 37.9659V39.8188V54.1179V55.9707H67.6809H78.54V54.1179H67.6809V47.84H77.4299V45.9872H67.6809V39.8188H78.54V37.9659H67.6809H65.5466Z" fill="#452284"/>
<path d="M93.9469 42.6642H91.6328L87.7003 47.8397L83.893 42.6642H81.4147L86.5511 49.3173L81.2661 55.9704H83.5255L87.7785 50.7089L91.6875 55.9704H94.1345L88.8105 49.1923L93.9469 42.6642Z" fill="#452284"/>
<path d="M100.016 38.6763H98.0384L98.0149 42.6713H96.123V44.5554H98.0384V52.7252C98.0384 55.5709 100.266 56.2198 101.658 56.2198C103.05 56.2198 104.105 55.7585 104.105 55.7585V53.9291C103.018 54.5155 102.252 54.4842 102.252 54.4842C100.212 54.4842 100.055 52.475 100.055 52.475V44.5241H104.261V42.6713H100.024V38.6763H100.016Z" fill="#452284"/>
<path d="M133.703 60.028H132.811V61.8261H131.951V62.6782H132.811V66.3527C132.811 67.6348 133.812 67.9241 134.437 67.9241C135.063 67.9241 135.54 67.713 135.54 67.713V66.8921C135.055 67.1579 134.703 67.1423 134.703 67.1423C133.788 67.1423 133.718 66.2354 133.718 66.2354V62.6626H135.61V61.8261H133.703V60.028Z" fill="#452284"/>
<path d="M109.671 46.0398V42.6703H107.63V55.9765H109.639V50.0661C109.639 50.0661 109.764 44.617 115.057 44.5544V42.4514C115.057 42.4514 111.836 41.8338 109.671 46.0398Z" fill="#452284"/>
<path d="M154.694 63.2633V61.731H153.764V67.7821H154.679V65.0927C154.679 65.0927 154.733 62.6144 157.141 62.5831V61.6293C157.141 61.6293 155.679 61.3479 154.694 63.2633Z" fill="#452284"/>
<path d="M128.728 53.8349L127.587 52.6309C127.587 52.6309 126.164 54.6089 123.412 54.6089C120.66 54.6089 118.768 52.2557 118.737 50.1526H129.353C129.353 50.1526 129.877 42.4128 123.193 42.4128C116.509 42.4128 116.727 49.5037 116.727 49.7461C116.727 49.9885 117.126 56.2116 123.506 56.2116C123.506 56.2116 126.445 56.5243 128.736 53.8271L128.728 53.8349ZM122.974 44.0859C126.969 44.0859 127.211 48.5109 127.211 48.5109H118.737C118.737 48.5109 118.987 44.0859 122.974 44.0859Z" fill="#452284"/>
<path d="M128.648 61.6936C125.614 61.6936 125.716 64.9068 125.716 65.0241C125.716 65.1413 125.896 67.9558 128.788 67.9558C128.788 67.9558 130.125 68.0965 131.165 66.8769L130.649 66.3297C130.649 66.3297 130 67.2287 128.749 67.2287C127.498 67.2287 126.646 66.1577 126.631 65.2039H131.446C131.446 65.2039 131.689 61.6936 128.655 61.6936H128.648ZM126.623 64.4612C126.623 64.4612 126.732 62.4519 128.546 62.4519C130.36 62.4519 130.469 64.4612 130.469 64.4612H126.623Z" fill="#452284"/>
<path d="M162.739 42.414C156.054 42.414 156.273 49.5049 156.273 49.7473C156.273 49.9896 156.672 56.2127 163.051 56.2127C163.051 56.2127 165.991 56.5254 168.282 53.8282L167.14 52.6243C167.14 52.6243 165.717 54.6022 162.965 54.6022C160.213 54.6022 158.321 52.249 158.29 50.146H168.907C168.907 50.146 169.431 42.4062 162.746 42.4062L162.739 42.414ZM158.282 48.512C158.282 48.512 158.533 44.0871 162.52 44.0871C166.507 44.0871 166.757 48.512 166.757 48.512H158.282Z" fill="#452284"/>
<path d="M147.912 42.4142C144.66 42.4142 143.269 44.9863 143.269 44.9863C141.658 42.0467 138.937 42.4142 138.937 42.4142C136.553 42.4142 135.271 43.9465 134.731 44.8143V42.6331H132.691V55.908H134.731V47.7773C135.028 46.3388 135.873 44.0872 138.32 44.0872C141.642 44.0872 141.783 47.3629 141.791 47.8555V55.908H143.831V47.9258C143.831 47.1831 144.168 44.2123 147.475 44.2123C150.782 44.2123 150.883 47.4333 150.883 47.4333V55.908H152.924V47.0893H152.892C152.744 44.5954 151.008 42.4142 147.905 42.4142H147.912Z" fill="#452284"/>
<path d="M172.098 41.6387C171.019 41.6387 170.151 42.5143 170.151 43.5854C170.151 44.6565 171.027 45.5321 172.098 45.5321C173.169 45.5321 174.045 44.6565 174.045 43.5854C174.045 42.5143 173.169 41.6387 172.098 41.6387ZM172.098 45.2506C171.176 45.2506 170.433 44.5079 170.433 43.5854C170.433 42.6629 171.176 41.9202 172.098 41.9202C173.021 41.9202 173.763 42.6629 173.763 43.5854C173.763 44.5079 173.021 45.2506 172.098 45.2506Z" fill="#452284"/>
<path d="M172.949 43.131C172.949 42.5446 172.441 42.5134 172.441 42.5134H171.331V44.5695H171.581V43.7642H172.105L172.722 44.5695H173.121L172.503 43.733C172.503 43.733 172.949 43.7173 172.949 43.131ZM172.285 43.5375H171.573V42.787H172.316C172.316 42.787 172.582 42.8339 172.582 43.1701C172.582 43.5062 172.285 43.5375 172.285 43.5375Z" fill="#452284"/>
<path d="M122.029 61.6533C120.966 61.6533 120.301 62.224 119.965 62.6228V61.7628H118.988V67.7748H119.965V63.7329C120.192 63.0606 120.731 62.4195 121.841 62.4195C123.209 62.4195 123.397 64.202 123.397 64.202V67.7748H124.374V63.7173H124.343C124.194 62.5524 123.483 61.6533 122.029 61.6533Z" fill="#452284"/>
<path d="M143.153 66.5787L141.55 61.7941H140.737L139.134 66.5787L137.579 61.7941H136.539L138.65 67.9624H139.533L141.105 63.1622L142.754 67.9624H143.614L145.678 61.7941H144.685L143.153 66.5787Z" fill="#452284"/>
<path d="M149.334 61.6131C147.559 61.6131 146.12 63.0516 146.12 64.8263C146.12 66.601 147.559 68.0395 149.334 68.0395C151.108 68.0395 152.547 66.601 152.547 64.8263C152.547 63.0516 151.108 61.6131 149.334 61.6131ZM149.334 67.1795C148.036 67.1795 146.98 66.1241 146.98 64.8263C146.98 63.5285 148.036 62.4731 149.334 62.4731C150.631 62.4731 151.687 63.5285 151.687 64.8263C151.687 66.1241 150.631 67.1795 149.334 67.1795Z" fill="#452284"/>
<path d="M163.625 61.7864H162.445L159.2 65.0934V59.2221H158.286V67.7828H159.2V66.2739L160.389 65.0699L162.57 67.7828H163.751L161.085 64.3898L163.625 61.7864Z" fill="#452284"/>
<path d="M167.288 64.5291C165.678 63.9428 165.326 63.7239 165.326 63.3095C165.326 62.8952 165.881 62.3948 166.53 62.3948C167.179 62.3948 168.297 63.0594 168.297 63.0594L168.711 62.473C168.352 62.1212 167.32 61.613 166.577 61.613C165.834 61.613 164.458 62.1056 164.458 63.3486C164.458 64.5917 165.514 64.9122 166.053 65.0529C166.593 65.1937 168.015 65.3344 168.015 66.2569C168.015 67.1794 166.78 67.1794 166.78 67.1794C165.436 67.1794 164.693 66.4602 164.693 66.4602L164.153 67.0934C164.153 67.0934 165.037 67.9456 166.812 67.9456C168.586 67.9456 168.836 66.5227 168.836 66.2569C168.836 65.9911 168.899 65.1155 167.288 64.5213V64.5291Z" fill="#452284"/>
</svg>
