<svg width="200" height="100" viewBox="0 0 200 100" fill="none" xmlns="http://www.w3.org/2000/svg">
<path fill-rule="evenodd" clip-rule="evenodd" d="M34.2456 42.2645C34.3915 42.2645 34.4645 42.2645 34.6105 42.2645C39.792 42.2645 45.0466 42.2645 50.2281 42.2645H50.593V45.5485H37.9675V48.0299H48.8415V51.241H37.9675V57.0064C37.8946 57.0064 37.8216 57.0064 37.7486 57.0064C36.6539 57.0064 35.5592 57.0064 34.4645 57.0064C34.4645 57.0064 34.3915 57.0064 34.3185 57.0064V42.2645H34.2456Z" fill="black"/>
<path fill-rule="evenodd" clip-rule="evenodd" d="M65.6269 42.1183C65.6269 43.3589 65.6269 44.5996 65.6269 45.9132C65.6269 46.0592 65.6269 46.1322 65.408 46.0592C65.408 46.0592 65.408 46.0592 65.335 46.0592C63.5835 46.0592 61.832 46.0592 60.0805 46.0592C59.8615 46.0592 59.7885 46.0592 59.7885 45.7673C59.7885 44.5266 59.7885 43.3589 59.7885 42.1183H65.6269Z" fill="#ED3026"/>
<path fill-rule="evenodd" clip-rule="evenodd" d="M70.9558 42.1183C71.3207 42.3372 71.7586 42.5562 72.0505 42.8481C72.8533 43.6509 73.2182 44.6726 73.2912 45.7673C73.2912 45.9862 73.2912 46.0592 72.9993 46.0592C71.1748 46.0592 69.3503 46.0592 67.5258 46.0592C67.3068 46.0592 67.2338 46.0592 67.2338 45.7673C67.2338 44.6726 67.2338 43.5049 67.2338 42.4102C67.2338 42.3372 67.2338 42.1913 67.2338 42.1183H70.9558Z" fill="#ED3026"/>
<path fill-rule="evenodd" clip-rule="evenodd" d="M58.1095 42.1183C58.1095 43.3589 58.1095 44.5266 58.1095 45.7673C58.1095 45.9862 58.1095 46.1322 57.8176 46.1322C55.9931 46.1322 54.1686 46.1322 52.4171 46.1322C52.2711 46.1322 52.1982 46.1322 52.1982 45.9862C52.0522 44.7456 53.1469 42.9211 54.2416 42.3372C54.3876 42.3372 54.4605 42.2643 54.6065 42.1913H58.2555L58.1095 42.1183Z" fill="#ED3026"/>
<path fill-rule="evenodd" clip-rule="evenodd" d="M163.784 57.8817C163.346 57.8087 162.908 57.5898 162.616 57.2979C162.105 56.714 162.032 55.9113 162.397 55.2544C162.762 54.5976 163.492 54.2327 164.295 54.3787C165.025 54.5246 165.608 55.1085 165.754 55.7653V55.9113V56.2762C165.754 56.2762 165.754 56.4221 165.754 56.4951C165.608 57.0789 165.244 57.5168 164.733 57.7358C164.514 57.8087 164.368 57.8817 164.149 57.8817H163.857H163.784ZM164.003 54.5246C163.127 54.5246 162.47 55.1815 162.397 56.0572C162.397 56.933 163.054 57.6628 163.93 57.6628C164.806 57.6628 165.535 56.933 165.535 56.0572C165.535 55.1815 164.806 54.5247 164.003 54.4517V54.5246Z" fill="black"/>
<path fill-rule="evenodd" clip-rule="evenodd" d="M91.2412 50.5111C91.8981 50.876 92.19 51.4598 92.263 52.1167C92.263 53.7222 92.263 55.2548 92.263 56.8604C92.263 56.8604 92.263 56.8604 92.263 57.0063H88.7599V56.7144C88.7599 55.1818 88.7599 53.6492 88.7599 52.1167C88.7599 51.5328 88.541 51.2409 87.9572 51.2409C87.6652 51.2409 87.4463 51.2409 87.1544 51.2409C84.746 51.2409 82.2647 51.2409 79.8564 51.2409H79.4915V57.0063H75.9155V42.2644H76.2074C79.9294 42.2644 83.6513 42.2644 87.3733 42.2644C88.1761 42.2644 88.9789 42.2644 89.7087 42.5563C91.1683 42.9942 92.044 43.87 92.263 45.3296C92.4089 46.3513 92.4089 47.373 92.3359 48.3217C92.3359 49.0515 91.8981 49.7083 91.3872 50.2922C91.3872 50.2922 91.3142 50.3652 91.2412 50.4381V50.5111ZM79.5645 48.0298C79.6375 48.0298 79.7104 48.0298 79.7834 48.0298C82.2647 48.0298 84.746 48.0298 87.2274 48.0298C87.5193 48.0298 87.8842 48.0298 88.1761 48.0298C88.541 48.0298 88.8329 47.7379 88.8329 47.3C88.8329 46.9351 88.8329 46.6432 88.8329 46.2783C88.8329 45.9134 88.614 45.6215 88.2491 45.5485C88.0301 45.5485 87.8842 45.5485 87.6652 45.5485C85.038 45.5485 82.4837 45.5485 79.8564 45.5485C79.7834 45.5485 79.7104 45.5485 79.5645 45.5485V48.0298Z" fill="black"/>
<path fill-rule="evenodd" clip-rule="evenodd" d="M134.959 57.0064V42.2645H149.482V45.5485H138.608V48.0299H146.198V51.241H138.608V53.7223H149.555V57.0064H134.959Z" fill="black"/>
<path fill-rule="evenodd" clip-rule="evenodd" d="M119.56 45.5485V57.0063H115.984V42.2644H116.276C120.071 42.2644 123.866 42.2644 127.661 42.2644C128.536 42.2644 129.412 42.4104 130.142 42.8482C131.383 43.5051 132.039 44.5998 132.331 45.9134C132.477 46.4972 132.477 47.0811 132.477 47.7379C132.477 50.803 132.477 53.7952 132.477 56.8604C132.477 56.9333 132.477 57.0063 132.477 57.1523H128.901V56.7874C128.901 53.6492 128.901 50.5111 128.901 47.373C128.901 47.0811 128.901 46.7162 128.755 46.4243C128.682 45.9864 128.317 45.7674 127.88 45.6945C127.807 45.6945 127.661 45.6945 127.588 45.6945C125.033 45.6945 122.406 45.6945 119.852 45.6945C119.779 45.6945 119.706 45.6945 119.56 45.6945V45.5485Z" fill="black"/>
<path fill-rule="evenodd" clip-rule="evenodd" d="M97.6659 45.5485H94.2358V42.2644H107.737V45.5485H101.242V57.0063H97.5929V45.5485H97.6659Z" fill="black"/>
<path fill-rule="evenodd" clip-rule="evenodd" d="M151.232 45.5485V42.2644H164.733V45.5485H158.238V57.0063H154.662V45.5485H151.232Z" fill="black"/>
<path fill-rule="evenodd" clip-rule="evenodd" d="M113.21 57.0063H109.634V42.2644H113.21V57.0063Z" fill="black"/>
<path fill-rule="evenodd" clip-rule="evenodd" d="M70.226 51.6052C69.3503 51.6052 68.4015 51.6052 67.5258 51.6052C67.3068 51.6052 67.2338 51.6052 67.2338 51.3133C67.2338 50.1456 67.2338 49.0509 67.2338 47.8832C67.2338 47.6643 67.2339 47.6643 67.4528 47.6643C69.2773 47.6643 71.1748 47.6643 72.9993 47.6643C73.1452 47.6643 73.2182 47.6643 73.2182 47.8832C73.2182 49.0509 73.2182 50.2186 73.2182 51.3863C73.2182 51.6052 73.1452 51.6052 72.9993 51.6052C72.0505 51.6052 71.1748 51.6052 70.226 51.6052Z" fill="#ED3026"/>
<path fill-rule="evenodd" clip-rule="evenodd" d="M58.1107 47.6643V51.6052C58.0377 51.6052 57.9648 51.6052 57.8188 51.6052C55.9943 51.6052 54.1698 51.6052 52.4183 51.6052C52.1994 51.6052 52.1264 51.5322 52.1264 51.3133C52.1264 50.2186 52.1264 49.0509 52.1264 47.9562C52.1264 47.7373 52.1264 47.6643 52.4183 47.6643C54.2428 47.6643 56.0673 47.6643 57.8918 47.6643C57.8918 47.6643 58.0377 47.6643 58.1107 47.6643Z" fill="#ED3026"/>
<path fill-rule="evenodd" clip-rule="evenodd" d="M59.7885 57.152V53.2841C59.8615 53.2841 60.0075 53.2841 60.0805 53.2841C61.832 53.2841 63.5835 53.2841 65.408 53.2841C65.6269 53.2841 65.6999 53.357 65.6999 53.576C65.6999 54.6707 65.6999 55.8383 65.6999 56.933C65.6999 57.079 65.6999 57.225 65.481 57.225C63.6565 57.225 61.832 57.225 60.0075 57.225C60.0075 57.225 60.0075 57.225 59.8615 57.225L59.7885 57.152Z" fill="#ED3026"/>
<path fill-rule="evenodd" clip-rule="evenodd" d="M67.2328 57.1519V53.284C67.3058 53.284 67.3788 53.284 67.4517 53.284C69.2762 53.284 71.1007 53.284 72.9252 53.284C73.1442 53.284 73.2171 53.284 73.2171 53.5759C73.0712 54.9625 72.5603 56.2032 71.3197 57.006C71.1007 57.1519 70.8818 57.2249 70.5899 57.2249C69.5681 57.2249 68.4734 57.2249 67.4517 57.2249H67.1598L67.2328 57.1519Z" fill="#ED3026"/>
<path fill-rule="evenodd" clip-rule="evenodd" d="M58.1107 53.2843V57.1523C58.0377 57.1523 57.9648 57.1523 57.8188 57.1523C56.8701 57.1523 55.9213 57.1523 54.9726 57.1523C54.3158 57.1523 53.8049 56.9333 53.367 56.4955C52.7102 55.7657 52.3453 54.9629 52.1264 53.9412C52.1264 53.7222 52.1264 53.5033 52.1264 53.2114H58.1107V53.2843Z" fill="#ED3026"/>
<path fill-rule="evenodd" clip-rule="evenodd" d="M163.566 56.2036V57.0064C163.493 57.0064 163.42 57.0064 163.347 57.0064V55.0359C163.712 55.0359 164.004 55.0359 164.369 55.0359C164.588 55.0359 164.734 55.0359 164.807 55.3278C164.807 55.5468 164.807 55.7657 164.734 55.9117C164.734 56.2036 164.88 56.5685 164.953 56.8604C164.734 56.8604 164.661 56.8604 164.661 56.6415C164.661 56.0576 164.661 55.9846 164.004 56.0576C163.931 56.0576 163.785 56.0576 163.712 56.0576L163.566 56.2036ZM163.566 55.9117C163.785 55.9117 164.004 55.9117 164.223 55.9117C164.442 55.9117 164.515 55.7657 164.515 55.6197C164.515 55.4738 164.515 55.3278 164.296 55.3278C164.077 55.3278 163.785 55.3278 163.566 55.3278V55.9846V55.9117Z" fill="black"/>
</svg>
