<svg width="200" height="100" viewBox="0 0 200 100" fill="none" xmlns="http://www.w3.org/2000/svg">
<path d="M83.4069 57.5667V51.4338H78.015V57.5667H75.2694V43.025H78.015V49.0058H83.4069V43.025H86.1525V57.5667M96.2218 57.5667H94.0386L93.8401 56.8456C92.9007 57.4609 91.7958 57.785 90.6711 57.785C88.7261 57.785 87.8991 56.4553 87.8991 54.616C87.8991 52.4527 88.8385 51.6257 91.0019 51.6257H93.5557V50.5076C93.5557 49.33 93.2315 48.9132 91.5246 48.9132C90.5322 48.9198 89.5464 49.0256 88.5805 49.2307L88.2563 47.1996C89.4472 46.8689 90.6711 46.7035 91.9017 46.6968C95.2427 46.6968 96.2218 47.8745 96.2218 50.5407V57.5535V57.5667ZM93.5557 53.5443H91.5907C90.7174 53.5443 90.4793 53.7824 90.4793 54.5962C90.4793 55.3372 90.7174 55.668 91.551 55.668C92.2523 55.6547 92.947 55.4695 93.5557 55.1188V53.5509V53.5443ZM101.376 57.7784C100.132 57.7586 98.8947 57.5535 97.7104 57.1632L98.0809 55.1321C99.113 55.4298 100.178 55.582 101.25 55.5886C102.428 55.5886 102.606 55.3107 102.606 54.5168C102.606 53.8618 102.474 53.531 100.747 53.1209C98.1471 52.4857 97.8427 51.8308 97.8427 49.7798C97.8427 47.7289 98.7822 46.7035 101.819 46.7035C102.891 46.7035 103.962 46.8292 105.008 47.0739L104.73 49.191C103.764 49.0124 102.785 48.9132 101.806 48.8867C100.648 48.8867 100.449 49.1646 100.449 49.8063C100.449 50.6598 100.516 50.7259 101.958 51.0964C104.935 51.8837 105.219 52.274 105.219 54.4506C105.219 56.6273 104.584 57.7784 101.376 57.7784ZM113.139 57.5667V50.1503C113.139 49.5814 112.9 49.2969 112.285 49.2969C111.63 49.2969 110.472 49.6872 109.513 50.19V57.5601H106.847V42.5884L109.513 42.2179V47.7422C110.717 47.1203 112.047 46.7696 113.397 46.7167C115.163 46.7167 115.798 47.9605 115.798 49.8592V57.5667H113.139ZM117.77 45.4266V42.3502H120.436V45.4266H117.77ZM117.77 57.5667V46.935H120.436V57.5667H117.77ZM122.288 47.021C122.288 44.3548 123.837 42.8067 127.462 42.8067C128.792 42.8067 130.122 42.9655 131.412 43.2897L131.107 45.6648C129.93 45.4398 128.739 45.3207 127.535 45.2943C125.636 45.2943 125.027 45.9492 125.027 47.4907V53.0812C125.027 54.6293 125.643 55.2776 127.535 55.2776C128.732 55.2512 129.93 55.1321 131.107 54.9071L131.412 57.2889C130.122 57.6064 128.792 57.7718 127.462 57.7718C123.837 57.7718 122.288 56.2237 122.288 53.5575V47.021ZM136.876 57.7784C133.231 57.7784 132.252 55.7738 132.252 53.5906V50.9045C132.252 48.7213 133.238 46.7167 136.876 46.7167C140.515 46.7167 141.501 48.7213 141.501 50.9045V53.5906C141.494 55.7738 140.515 57.7784 136.876 57.7784ZM136.876 48.9926C135.454 48.9926 134.911 49.6277 134.911 50.8251V53.6766C134.911 54.8741 135.461 55.5092 136.876 55.5092C138.292 55.5092 138.841 54.8741 138.841 53.6766V50.8185C138.841 49.6211 138.292 48.9859 136.876 48.9859V48.9992V48.9926ZM148.567 49.1579C147.587 49.6012 146.648 50.1172 145.748 50.7061V57.5733H143.082V46.935H145.331L145.51 48.1126C146.377 47.5238 147.316 47.0541 148.309 46.7167L148.567 49.1646V49.1579ZM158.669 54.0272C158.669 56.3891 157.617 57.7784 155.156 57.7784C154.203 57.7652 153.251 57.666 152.318 57.4741V61.867L149.652 62.2375V46.935H151.769L152.047 47.8282C153.019 47.1004 154.197 46.7101 155.407 46.7167C157.544 46.7167 158.682 47.9803 158.682 50.4083V54.0272H158.669ZM152.318 55.2247C153.092 55.3967 153.886 55.4893 154.68 55.5026C155.639 55.5026 156.009 55.0461 156.009 54.0802V50.329C156.009 49.4557 155.685 48.9727 154.7 48.9727C153.82 49.0058 152.973 49.3432 152.318 49.932V55.2181V55.2247Z" fill="black"/>
<path d="M53.9275 33.9868L41.3177 41.2642V58.7367L46.0547 61.4691V43.9966L53.9275 39.4515" fill="black"/>
<path d="M58.9607 33.9868V47.8999H53.926V42.7065L49.1891 45.4388V63.262L53.926 66.001V52.1275H58.9607V57.2812L63.6977 54.5489V36.7191" fill="black"/>
<path d="M58.9631 66.0133L71.5729 58.7359V41.27L66.836 38.5376V56.0101L58.9631 60.5552" fill="black"/>
</svg>
