<svg width="200" height="100" viewBox="0 0 200 100" fill="none" xmlns="http://www.w3.org/2000/svg">
<path d="M76.4679 32.6753H37.1466V25.3881H76.4679V32.6753ZM79.2727 22.5765H34.3351V35.4868H79.2727V22.5765Z" fill="#00B188"/>
<path d="M37.1464 56.81H34.3349V43.8998H37.1464V48.9995H42.1656V43.8998H44.9771V56.81H42.1656V51.4621H37.1464V56.81ZM49.2313 51.1534H52.5797C52.5193 50.2006 52.1301 49.543 51.0296 49.543C50.1976 49.543 49.4796 49.8919 49.2313 51.1534ZM51.3517 57.018C48.4999 57.018 46.5607 55.2197 46.5607 52.2673C46.5607 49.3148 48.4596 47.4159 50.9759 47.4159C53.7204 47.4159 55.0825 49.2544 55.0825 51.9989V53.0322H49.2246C49.5534 54.4548 50.6673 54.8305 51.7879 54.8305C52.7608 54.8305 53.4587 54.6225 54.3243 54.0857H54.4316V56.2128C53.6868 56.7496 52.6266 57.018 51.345 57.018M62.4234 51.4017L60.9807 56.81H58.5248L55.7133 47.7245V47.6172H58.3973L59.9272 53.0524L61.3699 47.6172H63.5574L65.0202 53.0524L66.5702 47.6172H69.1469V47.7245L66.3354 56.81H63.8795L62.4167 51.4017H62.4234ZM73.7232 57.018C71.4887 57.018 70.5829 56.1323 70.5829 54.0455V43.9065H73.3072V53.8576C73.3072 54.5018 73.5555 54.7232 74.0923 54.7232C74.2734 54.7232 74.5486 54.6628 74.7096 54.5957H74.7499V56.8436C74.5217 56.9308 74.1325 57.018 73.7232 57.018ZM78.1787 51.1534H81.5271C81.4667 50.2006 81.0775 49.543 79.977 49.543C79.1517 49.543 78.427 49.8919 78.1787 51.1534ZM80.3058 57.018C77.454 57.018 75.5148 55.2197 75.5148 52.2673C75.5148 49.3148 77.4138 47.4159 79.9301 47.4159C82.6745 47.4159 84.0366 49.2544 84.0366 51.9989V53.0322H78.172C78.5008 54.4548 79.6147 54.8305 80.7286 54.8305C81.7015 54.8305 82.3994 54.6225 83.2717 54.0857H83.3791V56.2128C82.6409 56.7496 81.5807 57.018 80.2991 57.018M95.2358 47.6239H97.2556V49.8114H95.2358V53.5489C95.2358 54.3541 95.5445 54.7232 96.3698 54.7232C96.598 54.7232 96.8865 54.7031 97.1952 54.5957H97.2556V56.7429C96.9066 56.8704 96.3698 57.0113 95.5847 57.0113C93.3704 57.0113 92.5048 55.9981 92.5048 53.663V49.8047H89.0155V53.5422C89.0155 54.3474 89.3242 54.7165 90.1496 54.7165C90.3777 54.7165 90.6662 54.6963 90.9749 54.589H91.0353V56.7362C90.6864 56.8637 90.1496 57.0046 89.3645 57.0046C87.1501 57.0046 86.2845 55.9914 86.2845 53.6563V49.798H84.8821V47.6105H86.2845V45.0942H89.0088V47.6105H92.4981V45.0942H95.2224V47.6239H95.2358ZM106.448 50.2475C107.871 50.2475 108.555 49.4423 108.555 48.2882C108.555 47.1341 107.878 46.2886 106.448 46.2886H104.67V50.2543H106.448V50.2475ZM111.407 48.2882C111.407 51.0997 109.528 52.6229 106.677 52.6229H104.677V56.8167H101.872V43.9065H106.683C109.528 43.9065 111.407 45.4364 111.407 48.2882ZM117.399 53.9247V53.1396C116.983 52.9115 116.446 52.8309 115.89 52.8309C115.004 52.8309 114.467 53.1597 114.467 53.9046C114.467 54.6494 115.004 54.9983 115.809 54.9983C116.614 54.9983 117.151 54.6024 117.399 53.9247ZM117.48 55.9042C116.883 56.6289 115.99 56.9778 115.044 56.9778C113.246 56.9778 111.783 55.884 111.783 53.9381C111.783 52.1398 113.246 50.9454 115.353 50.9454C116.017 50.9454 116.695 51.0528 117.399 51.2541V51.093C117.399 50.0999 116.842 49.6705 115.38 49.6705C114.447 49.6705 113.561 49.9389 112.796 50.375H112.696V48.1875C113.4 47.7782 114.641 47.4226 115.856 47.4226C118.627 47.4226 120.13 48.7445 120.13 51.0595V56.8235H117.487V55.9109L117.48 55.9042ZM121.506 52.227C121.506 49.2746 123.593 47.4159 126.317 47.4159C127.29 47.4159 128.196 47.6239 128.874 48.1204V50.4556H128.766C128.169 50.006 127.464 49.7309 126.659 49.7309C125.297 49.7309 124.264 50.6636 124.264 52.2337C124.264 53.8039 125.297 54.7165 126.659 54.7165C127.464 54.7165 128.169 54.4481 128.766 53.9918H128.874V56.3269C128.189 56.8235 127.283 57.0315 126.317 57.0315C123.593 57.0315 121.506 55.1996 121.506 52.2404M133.322 52.6431V56.8167H130.598V43.9065H133.322V51.2541L136.067 47.6172H139.167V47.7245L135.866 51.8982L139.167 56.7094V56.8167H136.047L133.322 52.6431ZM145.28 53.9247V53.1396C144.871 52.9115 144.327 52.8309 143.77 52.8309C142.884 52.8309 142.348 53.1597 142.348 53.9046C142.348 54.6494 142.884 54.9983 143.69 54.9983C144.495 54.9983 145.032 54.6024 145.28 53.9247ZM145.36 55.9042C144.763 56.6289 143.871 56.9778 142.925 56.9778C141.126 56.9778 139.663 55.884 139.663 53.9381C139.663 52.1398 141.126 50.9454 143.233 50.9454C143.898 50.9454 144.575 51.0528 145.28 51.2541V51.093C145.28 50.0999 144.723 49.6705 143.26 49.6705C142.327 49.6705 141.442 49.9389 140.677 50.375H140.569V48.1875C141.274 47.7782 142.515 47.4226 143.73 47.4226C146.501 47.4226 148.004 48.7445 148.004 51.0595V56.8235H145.36V55.9109V55.9042ZM152.594 49.1135C153.09 48.1003 153.815 47.5232 154.828 47.5232C155.204 47.5232 155.566 47.6105 155.714 47.691V50.2945H155.613C155.305 50.167 154.929 50.0865 154.412 50.0865C153.567 50.0865 152.903 50.5831 152.681 51.5292V56.8167H149.957V47.6306H152.601V49.1202L152.594 49.1135ZM162.934 53.6898V50.7374C162.485 50.0731 161.881 49.7845 161.203 49.7845C160.002 49.7845 159.203 50.6502 159.203 52.2203C159.203 53.7905 160.009 54.636 161.203 54.636C161.887 54.636 162.485 54.3474 162.934 53.6831V53.6898ZM163.021 55.8639C162.444 56.6087 161.532 57.018 160.297 57.018C157.942 57.018 156.439 54.8708 156.439 52.227C156.439 49.5832 157.949 47.4159 160.297 47.4159C161.498 47.4159 162.364 47.7916 162.941 48.4694V43.9065H165.665V56.81H163.021V55.8639ZM34.3349 61.024H42.3065V62.5941H36.1332V66.5397H41.7294V68.0696H36.1332V72.3641H42.3065V73.9342H34.3349V61.024ZM48.8958 64.6609C50.9424 64.6609 52.0764 66.0029 52.0764 68.2105V73.9342H50.3653V68.2575C50.3653 67.0832 49.7681 66.2377 48.4664 66.2377C47.3927 66.2377 46.4869 66.9222 46.1782 67.8884V73.9409H44.4671V64.8555H46.1782V66.1773C46.715 65.3319 47.6209 64.6676 48.9025 64.6676M56.6862 64.842H59.0214V66.3048H56.6862V71.1965C56.6862 72.2232 57.223 72.5788 58.196 72.5788C58.4644 72.5788 58.753 72.5385 58.961 72.4513H59.0214V73.9141C58.7731 74.0215 58.4242 74.0953 57.9477 74.0953C55.8206 74.0953 54.9752 73.1223 54.9752 71.3508V66.2914H53.405V64.8286H54.9752V62.413H56.6862V64.842ZM61.8866 68.499H66.4092C66.3488 67.157 65.6845 66.1237 64.2821 66.1237C62.987 66.1237 62.1416 67.0966 61.8866 68.499ZM64.5907 74.1154C61.9268 74.1154 60.1084 72.3372 60.1084 69.4921C60.1084 66.6471 61.7993 64.6609 64.262 64.6609C66.7246 64.6609 68.0599 66.4592 68.0599 69.1231V69.9082H61.8262C62.0074 71.7467 63.195 72.6325 64.8189 72.6325C65.8321 72.6325 66.5501 72.4043 67.362 71.8071H67.4224V73.3169C66.6776 73.894 65.7046 74.1221 64.584 74.1221M71.7974 66.2512C72.1933 65.2782 73.0589 64.7011 74.0453 64.7011C74.4412 64.7011 74.7901 64.7615 74.931 64.842V66.533H74.8706C74.6224 66.4122 74.2063 66.3518 73.797 66.3518C72.8643 66.3518 72.0859 66.9691 71.7974 68.0025V73.9275H70.0863V64.842H71.7974V66.2512ZM80.4736 72.5654C82.1645 72.5654 83.1576 71.2233 83.1576 69.3848C83.1576 67.5462 82.1645 66.2042 80.4736 66.2042C79.5409 66.2042 78.6753 66.7611 78.2257 67.6469V71.1428C78.6753 72.0286 79.5476 72.5587 80.4736 72.5587V72.5654ZM80.7688 64.6609C83.473 64.6609 84.9224 66.8752 84.9224 69.3915C84.9224 71.9078 83.4797 74.1221 80.7688 74.1221C79.6549 74.1221 78.7021 73.545 78.2257 72.921V77.4235H76.5146V64.8487H78.2257V65.8754C78.6954 65.2379 79.6482 64.6609 80.7688 64.6609ZM88.6532 66.2512C89.0491 65.2782 89.9147 64.7011 90.9011 64.7011C91.297 64.7011 91.6459 64.7615 91.7868 64.842V66.533H91.7264C91.4782 66.4122 91.0621 66.3518 90.6528 66.3518C89.7201 66.3518 88.9417 66.9691 88.6532 68.0025V73.9275H86.9421V64.842H88.6532V66.2512ZM94.2696 61.1716C94.8668 61.1716 95.3633 61.6413 95.3633 62.2452C95.3633 62.8491 94.8668 63.3188 94.2696 63.3188C93.6724 63.3188 93.1758 62.8491 93.1758 62.2452C93.1758 61.648 93.6925 61.1716 94.2696 61.1716ZM93.4241 73.9342H95.1352V64.8487H93.4241V73.9342ZM101.248 68.6265C102.55 69.0359 103.993 69.5794 103.993 71.3106C103.993 73.1693 102.463 74.1221 100.503 74.1221C99.3022 74.1221 98.1077 73.8336 97.4233 73.2968V71.6662H97.5106C98.2755 72.3708 99.4095 72.6794 100.483 72.6794C101.456 72.6794 102.322 72.3037 102.322 71.5253C102.322 70.7469 101.604 70.5322 100.174 70.0625C98.8928 69.6465 97.4703 69.1768 97.4703 67.459C97.4703 65.7412 98.913 64.6676 100.752 64.6676C101.825 64.6676 102.771 64.8957 103.543 65.4124V67.0698H103.483C102.744 66.4726 101.872 66.117 100.799 66.117C99.7249 66.117 99.1277 66.5867 99.1277 67.2308C99.1277 67.9421 99.7853 68.1434 101.248 68.6198M107.26 68.499H111.783C111.723 67.157 111.065 66.1237 109.656 66.1237C108.361 66.1237 107.515 67.0966 107.26 68.499ZM109.965 74.1154C107.301 74.1154 105.482 72.3372 105.482 69.4921C105.482 66.6471 107.173 64.6609 109.636 64.6609C112.098 64.6609 113.434 66.4592 113.434 69.1231V69.9082H107.2C107.381 71.7467 108.562 72.6325 110.193 72.6325C111.206 72.6325 111.924 72.4043 112.736 71.8071H112.796V73.3169C112.051 73.894 111.078 74.1221 109.958 74.1221" fill="#231F20"/>
</svg>
