<svg width="200" height="100" viewBox="0 0 200 100" fill="none" xmlns="http://www.w3.org/2000/svg">
<path d="M61.5789 34.6315V36.7324H76.5355V34.6315H61.5789ZM78.6573 34.6315V36.7324H99.9739C99.9739 36.7324 97.7948 34.6315 94.9119 34.6315H78.6573ZM104.15 34.6315V36.7324H117.047L116.281 34.6315H104.15ZM126.29 34.6315L125.524 36.7324H138.301V34.6315H126.29ZM61.5789 38.7239V40.8248H76.5355V38.7239H61.5789ZM78.6573 38.7239V40.8248H102.445C102.445 40.8248 102.169 39.2087 101.684 38.7239H78.6573ZM104.15 38.7239V40.8248H118.46L117.751 38.7239H104.15ZM124.763 38.7239L124.054 40.8248H138.306V38.7239H124.763ZM65.8798 42.811V44.9171H72.3598V42.811H65.8798ZM82.9529 42.811V44.9171H89.4329V42.811H82.9529ZM95.7304 42.811V44.9171H102.21C102.21 44.9171 102.622 43.8067 102.622 42.811H95.7356H95.7304ZM108.451 42.811V44.9171H119.935L119.169 42.811H108.451ZM123.35 42.811L122.583 44.9171H134.125V42.811H123.355H123.35ZM65.8798 46.9033V49.0043H72.3598V46.9033H65.8798ZM82.9529 46.9033V49.0043H99.4995C99.4995 49.0043 100.881 47.9251 101.324 46.9033H82.9529ZM108.451 46.9033V49.0043H114.931V47.8313L115.342 49.0043H127.208L127.651 47.8313V49.0043H134.131V46.9033H121.968L121.322 48.6862L120.675 46.9033H108.456H108.451ZM65.8798 50.9957V53.0966H72.3598V50.9957H65.8798ZM82.9529 50.9957V53.0966H101.324C100.881 52.0748 99.4995 50.9957 99.4995 50.9957H82.9529ZM108.451 50.9957V53.0966H114.931V50.9957H108.451ZM116.103 50.9957L116.885 53.0966H125.784L126.53 50.9957H116.103ZM127.645 50.9957V53.0966H134.125V50.9957H127.645ZM65.8798 55.0828V57.1837H72.3598V55.0828H65.8798ZM82.9529 55.0828V57.1837H89.4329V55.0828H82.9529ZM95.7304 55.0828V57.1837H102.617C102.617 56.1932 102.205 55.0828 102.205 55.0828H95.7252H95.7304ZM108.451 55.0828V57.1837H114.931V55.0828H108.451ZM117.574 55.0828L118.335 57.1837H124.299L125.065 55.0828H117.574ZM127.645 55.0828V57.1837H134.125V55.0828H127.645ZM61.6936 59.1752V61.2813H76.6502V59.1752H61.6936ZM78.6573 59.1752V61.2813H101.684C102.169 60.8017 102.445 59.1752 102.445 59.1752H78.6573ZM104.27 59.1752V61.2813H114.931V59.1752H104.27ZM119.049 59.1752L119.831 61.2813H122.865L123.595 59.1752H119.049ZM127.645 59.1752V61.2813H138.421V59.1752H127.645ZM61.6936 63.2675V65.3684H76.6502V63.2675H61.6936ZM78.6573 63.2675V65.3684H94.9119C97.7948 65.3684 99.9739 63.2675 99.9739 63.2675H78.6573ZM104.27 63.2675V65.3684H114.931V63.2675H104.27ZM120.529 63.2675L121.28 65.3632H121.411L122.172 63.2675H120.529ZM127.645 63.2675V65.3684H138.421V63.2675H127.645Z" fill="#1F70C1"/>
</svg>
