<svg width="200" height="100" viewBox="0 0 200 100" fill="none" xmlns="http://www.w3.org/2000/svg">
<path d="M98.9807 58.9329H99.6387L103.046 63.6329V58.9329H103.634V64.6375H103.076L99.5623 59.7906V64.6375H98.9748V58.9329H98.9807ZM105.091 58.9329H108.856V59.5028H105.69V61.3945H108.78V61.9644H105.69V64.0794H108.886V64.6375H105.085V58.9329H105.091ZM111.923 59.5145H109.779V58.9447H114.673V59.5145H112.528V64.6492H111.911V59.5145H111.929H111.923ZM115.401 58.9329H116.03L117.534 63.6446L119.067 58.9329H119.59L121.123 63.6446L122.639 58.9329H123.227L121.394 64.6845H120.853L119.308 59.9258L117.775 64.6845H117.252L115.407 58.9329H115.401ZM123.767 61.7823C123.767 59.7554 124.801 58.8389 126.634 58.8389C128.467 58.8389 129.519 59.7554 129.519 61.7823C129.519 63.8091 128.467 64.7256 126.634 64.7256C124.801 64.7432 123.767 63.8267 123.767 61.7823ZM128.902 61.7999C128.902 60.2548 128.179 59.4264 126.634 59.4264C125.089 59.4264 124.384 60.2548 124.384 61.7999C124.384 63.345 125.089 64.1851 126.634 64.1851C128.179 64.1675 128.902 63.345 128.902 61.7999ZM133.044 62.311H131.334V64.6375H130.735V58.9329H133.196C134.518 58.9329 135.118 59.4558 135.118 60.6014C135.118 61.5943 134.653 62.1641 133.661 62.2992L135.041 64.6434H134.395L133.044 62.3169V62.311ZM133.226 61.7529C134.037 61.7529 134.53 61.512 134.53 60.6131C134.53 59.7143 134.048 59.5028 133.196 59.5028H131.334V61.7705H133.226V61.7529ZM138.167 61.6178L137.027 62.8632V64.6492H136.439V58.9447H137.027V62.0995L139.911 58.9447H140.616L138.572 61.1654L140.898 64.6316H140.205L138.161 61.6119L138.167 61.6178ZM141.392 64.0676L141.709 63.6035C142.402 64.0382 143.06 64.1734 143.754 64.1734C144.94 64.1734 145.452 63.8444 145.452 63.063C145.452 62.2816 144.776 62.1347 143.754 61.9526C142.52 61.7411 141.697 61.5296 141.697 60.3781C141.697 59.2795 142.402 58.8448 143.754 58.8448C144.653 58.8448 145.287 59.0387 145.734 59.3559L145.405 59.8494C144.999 59.5791 144.382 59.397 143.736 59.397C142.714 59.397 142.279 59.6849 142.279 60.3605C142.279 61.0831 142.878 61.2183 143.883 61.4121C145.128 61.6354 146.027 61.8175 146.027 63.0512C146.027 64.1792 145.305 64.7315 143.748 64.7315C142.89 64.7139 142.126 64.5494 141.392 64.0735V64.0676ZM152.008 35.345C143.989 35.345 143.648 38.9346 143.648 44.0105V56.4596H145.54V44.0047C145.54 40.1742 145.387 37.1133 152.008 37.1133C152.713 37.1133 153.342 37.1427 153.917 37.2191V35.4214C153.33 35.3744 152.701 35.345 152.008 35.345ZM58.4259 48.3639V35.7621H60.3647V48.405C60.3647 52.0357 60.3353 55.1024 66.9857 55.1024C73.6362 55.1024 73.4541 52.0416 73.4541 48.2111V35.7621H75.3458V48.2111C75.3458 53.2871 74.9992 56.8767 66.9857 56.8767C58.9723 56.8767 58.4259 53.2871 58.4259 48.3639ZM95.4675 43.8578V56.4537H93.5288V43.8284C93.5288 40.1977 93.5757 37.131 86.9077 37.131C80.2396 37.131 80.4394 40.1918 80.4394 44.0223V56.4713H78.5476V44.0047C78.5476 38.9287 78.8943 35.3391 86.9077 35.3391C94.9211 35.3391 95.4675 38.9405 95.4675 43.8519V43.8578ZM98.9807 35.7915H100.825V56.4537H98.9807V35.7915ZM104.292 35.7915H113.962C118.768 35.7915 120.93 38.1767 120.93 42.4126C120.93 46.6484 118.785 49.2745 113.932 49.2745H106.142V56.4537H104.298V35.7915H104.292ZM113.991 47.4298C117.34 47.4298 118.991 45.8083 118.991 42.5066C118.991 39.2048 117.205 37.6597 113.903 37.6597H106.142V47.4356H113.997L113.991 47.4298ZM123.091 46.0491C123.091 39.9509 124.83 35.2686 132.627 35.2686C140.423 35.2686 140.957 40.6736 140.916 46.3958H124.954C125.001 51.4247 126.246 55.1788 132.791 55.1788C136.275 55.1788 137.867 54.2329 139.565 52.9875L140.628 54.3857C138.736 55.7839 136.498 56.8767 132.791 56.8767C124.607 56.8767 123.091 52.1473 123.091 46.0491ZM124.995 44.6509H139.077C138.883 40.5208 138.625 37.0076 132.609 37.0076C126.593 37.0076 125.224 40.1448 124.995 44.6509ZM46.8053 60.9421C54.8246 60.9421 55.1653 57.3525 55.1653 52.2766V35.7621H53.2736V52.2766C53.2736 56.1071 53.4264 59.1679 46.8053 59.1679C46.5527 59.1679 46.3118 59.1679 46.0827 59.1503V60.9363H46.8053V60.9421ZM149.682 56.5594C148.959 56.5594 148.377 55.9719 148.377 55.2552C148.377 54.5384 148.965 53.9509 149.682 53.9509C150.398 53.9509 150.986 54.5384 150.986 55.2552C150.986 55.9719 150.398 56.5594 149.682 56.5594ZM149.682 54.1096C149.053 54.1096 148.542 54.6207 148.542 55.2493C148.542 55.8779 149.053 56.3891 149.682 56.3891C150.31 56.3891 150.821 55.8779 150.821 55.2493C150.821 54.6207 150.31 54.1096 149.682 54.1096Z" fill="black"/>
</svg>
