<svg width="200" height="100" viewBox="0 0 200 100" fill="none" xmlns="http://www.w3.org/2000/svg">
<path d="M37.8287 38.9918C37.9863 38.9684 38.1731 38.9568 38.3949 38.9451C38.6167 38.9334 38.8094 38.9334 38.9903 38.9334C39.1888 38.9334 39.3873 38.9334 39.5857 38.9451C39.7842 38.9568 39.9593 38.9684 40.1111 38.9918V60.9817C39.9593 60.9992 39.7784 61.0167 39.5857 61.0284C39.3873 61.0342 39.1888 61.04 38.9903 61.04C38.7743 61.04 38.5583 61.0342 38.3482 61.0284C38.138 61.0167 37.9688 60.9992 37.8345 60.9817V38.9918H37.8287Z" fill="#F16823"/>
<path d="M55.3633 45.3827C55.5384 45.3593 55.7077 45.3418 55.877 45.336C56.0404 45.3243 56.198 45.3243 56.3556 45.3243C56.5308 45.3243 56.6942 45.3243 56.8518 45.336C57.0036 45.3418 57.1729 45.3652 57.348 45.3827C57.3889 45.7505 57.4239 46.2058 57.4473 46.7545C57.4648 47.3032 57.4764 47.7877 57.4764 48.1905C57.6983 47.8228 57.9843 47.455 58.3346 47.0756C58.6848 46.6961 59.0993 46.3576 59.5721 46.0482C60.0449 45.7446 60.5878 45.4936 61.2066 45.301C61.8254 45.1083 62.4909 45.0091 63.2205 45.0091C65.1528 45.0091 66.5596 45.5461 67.4411 46.6144C68.3225 47.6827 68.7603 49.1887 68.7603 51.1268V60.9747C68.6261 60.9922 68.4451 61.0097 68.2174 61.0214C67.9898 61.0272 67.8088 61.033 67.6746 61.033C67.5695 61.033 67.3885 61.0272 67.1433 61.0214C66.904 61.0097 66.7172 60.9922 66.5829 60.9747V51.7397C66.5829 50.0118 66.2911 48.7626 65.7132 48.0096C65.1294 47.2565 64.2538 46.8829 63.0921 46.8829C62.3216 46.8829 61.5977 47.0289 60.9147 47.3091C60.2317 47.5951 59.6422 48.0037 59.1518 48.5525C58.6556 49.0895 58.2645 49.7608 57.9785 50.5547C57.6924 51.3486 57.5523 52.2593 57.5523 53.275V60.9805C57.4181 60.998 57.2371 61.0155 57.0094 61.0272C56.7759 61.033 56.595 61.0389 56.4666 61.0389C56.3556 61.0389 56.1805 61.033 55.9353 61.0272C55.6902 61.0155 55.5092 60.998 55.3749 60.9805V45.3827H55.3633Z" fill="#F16823"/>
<path d="M88.0899 45.3823C88.2184 45.359 88.3935 45.3415 88.6036 45.3356C88.8138 45.324 89.0239 45.324 89.2458 45.324C89.4209 45.324 89.6369 45.324 89.8879 45.3356C90.1389 45.3415 90.3315 45.3648 90.4658 45.3823L94.1901 58.6568L98.3464 45.3823C98.5216 45.359 98.7142 45.3415 98.9243 45.3356C99.1345 45.324 99.3622 45.324 99.6015 45.324H100.144C100.331 45.324 100.518 45.3473 100.693 45.3882L104.849 58.4759L108.58 45.3882C108.708 45.3648 108.871 45.3473 109.058 45.3415C109.245 45.3298 109.426 45.3298 109.601 45.3298C109.776 45.3298 109.975 45.3298 110.197 45.3415C110.413 45.3473 110.594 45.3707 110.728 45.3882L105.877 60.9802C105.48 61.0385 105.095 61.0736 104.721 61.0736C104.301 61.0736 103.915 61.0385 103.565 60.9802L99.5081 48.0734L95.2584 60.9802C94.8614 61.0385 94.4762 61.0736 94.1026 61.0736C93.6881 61.0736 93.297 61.0385 92.9467 60.9802L88.1016 45.3823H88.0899Z" fill="#F16823"/>
<path d="M113.542 38.9905C113.763 38.9671 114.073 38.938 114.481 38.8971C114.89 38.8562 115.322 38.8154 115.783 38.7745C116.244 38.7336 116.711 38.7045 117.184 38.6811C117.657 38.6636 118.077 38.6519 118.451 38.6519C121.043 38.6519 123.033 39.1131 124.423 40.0471C125.806 40.9752 126.501 42.4171 126.501 44.3727C126.501 45.009 126.402 45.5869 126.186 46.1006C125.975 46.6259 125.695 47.0929 125.345 47.5074C124.995 47.9277 124.58 48.2838 124.107 48.564C123.635 48.85 123.144 49.066 122.636 49.212C123.319 49.2937 123.979 49.463 124.615 49.714C125.252 49.9708 125.818 50.3269 126.314 50.7822C126.81 51.2434 127.201 51.8096 127.499 52.4926C127.791 53.1756 127.948 53.9929 127.948 54.9561C127.948 56.0593 127.709 57.0109 127.242 57.7989C126.769 58.5987 126.11 59.2583 125.263 59.7895C124.417 60.3207 123.419 60.7118 122.263 60.9687C121.107 61.2255 119.852 61.3481 118.486 61.3481C118.136 61.3481 117.739 61.3423 117.301 61.3189C116.863 61.2956 116.419 61.2722 115.964 61.243C115.515 61.2139 115.071 61.173 114.645 61.1205C114.219 61.0679 113.845 61.0212 113.542 60.9862V38.9905ZM118.953 48.348C120.733 48.348 122.035 47.9802 122.864 47.2447C123.687 46.515 124.102 45.5577 124.102 44.3727C124.102 43.2752 123.664 42.3529 122.8 41.6057C121.93 40.8643 120.564 40.4907 118.696 40.4907C118.124 40.4907 117.581 40.5141 117.062 40.5549C116.548 40.5958 116.133 40.6367 115.824 40.6775V48.3538H118.953V48.348ZM115.818 59.2641C116.128 59.305 116.536 59.3459 117.056 59.3692C117.575 59.3984 118.112 59.4101 118.69 59.4101C119.548 59.4101 120.389 59.34 121.212 59.1999C122.035 59.054 122.765 58.8088 123.407 58.4644C124.043 58.12 124.551 57.6588 124.936 57.0867C125.322 56.5205 125.514 55.8025 125.514 54.9502C125.514 54.0979 125.351 53.3741 125.018 52.7962C124.691 52.2124 124.242 51.7396 123.664 51.3718C123.092 51.0041 122.42 50.7414 121.656 50.5779C120.885 50.4203 120.062 50.3328 119.181 50.3328H115.818V59.2641Z" fill="#F16823"/>
<path d="M132.721 53.4843C132.721 55.5624 133.241 57.086 134.28 58.0725C135.307 59.0474 136.86 59.5377 138.926 59.5377C139.761 59.5377 140.538 59.4677 141.25 59.3393C141.968 59.205 142.668 59.024 143.345 58.8022C143.456 59.024 143.544 59.3042 143.614 59.6253C143.678 59.9522 143.719 60.2441 143.748 60.5126C143.112 60.7811 142.359 60.9796 141.501 61.1255C140.643 61.2715 139.715 61.3357 138.693 61.3357C137.239 61.3357 135.996 61.1372 134.957 60.7403C133.912 60.3433 133.054 59.7888 132.383 59.0766C131.705 58.3586 131.215 57.5121 130.894 56.5256C130.579 55.5332 130.421 54.4474 130.421 53.2683C130.421 52.0891 130.567 51.0559 130.865 50.0576C131.157 49.0594 131.606 48.178 132.213 47.4249C132.82 46.6661 133.591 46.0765 134.543 45.6503C135.488 45.2242 136.615 45.014 137.94 45.014C139.032 45.014 140.012 45.1892 140.87 45.5394C141.728 45.8838 142.446 46.3683 143.036 46.9871C143.614 47.6117 144.052 48.3531 144.35 49.217C144.647 50.0868 144.793 51.0267 144.793 52.0482C144.793 52.235 144.793 52.4685 144.776 52.7546C144.764 53.0406 144.746 53.2799 144.729 53.4901H132.715L132.721 53.4843ZM142.622 51.7972C142.622 51.1726 142.528 50.548 142.359 49.9351C142.184 49.3221 141.909 48.7851 141.536 48.3297C141.162 47.8686 140.684 47.495 140.082 47.2148C139.493 46.9287 138.775 46.7886 137.946 46.7886C136.405 46.7886 135.202 47.2265 134.35 48.1079C133.486 48.9835 132.978 50.2211 132.797 51.8031H142.627L142.622 51.7972Z" fill="#F16823"/>
<path d="M41.6503 49.7211L49.9979 38.9917C50.1731 38.9684 50.354 38.9567 50.5408 38.945C50.7276 38.9333 50.9086 38.9333 51.0837 38.9333C51.3289 38.9333 51.5565 38.9333 51.7784 38.945C52.0002 38.9567 52.2279 38.9684 52.473 38.9917L44.3589 49.5109L53.7281 60.9816C53.4888 60.9991 53.2377 61.0166 52.9867 61.0283C52.7357 61.0341 52.4905 61.04 52.2454 61.04C52.0469 61.04 51.8426 61.0341 51.6324 61.0283C51.4223 61.0166 51.218 60.9991 51.0195 60.9816L41.6503 49.7211Z" fill="#F16823"/>
<path d="M79.4767 61.2673C74.8942 61.2673 71.1874 57.5488 71.1874 52.9664C71.1874 48.384 74.9001 44.6655 79.4767 44.6655C84.0533 44.6655 87.7659 48.384 87.7659 52.9664C87.7659 57.5488 84.0533 61.2673 79.4767 61.2673ZM84.2459 48.6992C83.1368 47.4558 81.619 46.7203 79.9553 46.621C78.2975 46.5276 76.698 47.0822 75.4546 48.1855C74.3513 49.172 73.645 50.4855 73.4407 51.9332L72.314 51.8923L73.9427 54.776L75.9858 52.0266L74.7191 51.9857C74.9117 50.8882 75.4546 49.8959 76.3011 49.1428C77.2876 48.2614 78.5602 47.8236 79.8794 47.8936C81.2046 47.9695 82.4071 48.5591 83.2885 49.5456C84.17 50.538 84.6137 51.8047 84.5319 53.1298C84.4561 54.4491 83.8665 55.6633 82.8858 56.5448L83.7264 57.5021C84.9697 56.393 85.7053 54.8694 85.7987 53.2116C85.8979 51.5537 85.3433 49.9484 84.2342 48.705L84.2459 48.6992Z" fill="#F16823"/>
<path d="M145.622 56.1826L145.389 55.8791L155.277 39.0087C155.692 38.8686 156.007 38.816 156.351 38.816C157.034 38.8219 157.192 38.9036 157.496 38.9912L148.529 54.3963H156.334V47.7357C156.731 47.6774 157.104 47.6482 157.455 47.6482C157.805 47.6482 158.173 47.6774 158.546 47.7357V54.3963H162.072C162.136 54.7407 162.171 54.9275 162.171 55.2311C162.171 55.558 162.136 55.8732 162.072 56.1768H158.546V61.0569C158.354 61.0978 158.155 61.1211 157.968 61.1211H156.883C156.696 61.1211 156.509 61.0978 156.34 61.0569V56.1768H145.628L145.622 56.1826Z" fill="#F16823"/>
</svg>
