<svg width="200" height="100" viewBox="0 0 200 100" fill="none" xmlns="http://www.w3.org/2000/svg">
<path d="M35.118 36.1649H48.2596C48.2596 40.5234 48.2596 44.948 48.2596 49.3065H35.118V36.1649Z" fill="#F25022"/>
<path d="M48.3264 36.165H49.6471C49.6471 40.5235 49.6471 44.9481 49.6471 49.3066C54.0056 49.3066 58.4302 49.3066 62.7887 49.3066C62.7887 44.9481 62.7887 40.5235 62.7887 36.165H164.751V46.4009C163.827 46.4009 162.902 46.4009 161.912 46.4009C161.912 45.2122 161.912 44.0236 161.912 42.8349C160.987 43.099 160.063 43.4292 159.072 43.6934C159.072 44.6179 159.072 45.4764 159.072 46.4009C157.685 46.4009 156.298 46.4009 154.912 46.4009C154.912 45.6745 154.912 44.9481 154.912 44.2877C154.978 43.7594 155.308 43.1651 155.836 42.967C156.497 42.7028 157.289 42.9009 157.949 43.1651C157.949 42.3726 157.949 41.5141 157.949 40.7217C156.563 40.3254 155.044 40.3915 153.789 41.1839C152.997 41.7122 152.468 42.5047 152.204 43.3632C151.874 44.3537 152.072 45.4104 152.006 46.4009C151.346 46.4009 150.685 46.4009 150.025 46.4009C150.025 47.1934 150.025 47.9198 150.025 48.7123C150.685 48.7123 151.346 48.7123 152.006 48.7123C152.006 51.8821 152.006 55.1179 152.006 58.2878H154.846C154.846 55.0519 154.846 51.8821 154.846 48.6462C156.232 48.6462 157.619 48.6462 159.006 48.6462C159.006 50.6934 159.006 52.7406 159.006 54.7877C159.006 55.7123 159.204 56.7689 159.798 57.4953C160.327 58.1557 161.185 58.4859 162.044 58.5519C162.902 58.5519 163.827 58.5519 164.619 58.1557V63.8349H62.8547V50.6934C58.4962 50.6934 54.0717 50.6934 49.7132 50.6934C49.7132 55.0519 49.7132 59.4764 49.7132 63.8349H48.3924C48.3924 59.4764 48.3924 55.0519 48.3924 50.6934C44.0339 50.6934 39.6094 50.6934 35.2509 50.6934V49.3726H48.3924C48.3924 45.0141 48.3924 40.5896 48.3924 36.2311L48.3264 36.165Z" fill="#FEFEFE"/>
<path d="M49.6434 36.165H62.785C62.785 40.5235 62.785 44.9481 62.785 49.3066C58.4265 49.3066 54.0019 49.3066 49.6434 49.3066C49.6434 44.9481 49.6434 40.5235 49.6434 36.165Z" fill="#80BA01"/>
<path d="M153.92 41.1839C155.108 40.3914 156.693 40.3254 158.08 40.7216C158.08 41.5141 158.08 42.3726 158.08 43.165C157.42 42.9009 156.693 42.7028 155.967 42.9669C155.439 43.165 155.108 43.7594 155.042 44.2877C154.91 45.0141 155.042 45.7405 155.042 46.4009C156.429 46.4009 157.816 46.4009 159.203 46.4009C159.203 45.4764 159.203 44.6179 159.203 43.6933C160.127 43.4292 161.052 43.099 162.042 42.8348C162.042 44.0235 162.042 45.2122 162.042 46.4009C162.967 46.4009 163.891 46.4009 164.882 46.4009V48.7122C163.957 48.7122 162.967 48.7122 162.042 48.7122C162.042 50.033 162.042 51.3537 162.042 52.6745C162.042 53.4009 162.042 54.1273 162.042 54.8538C162.042 55.316 162.24 55.7783 162.637 55.9764C163.297 56.3726 164.156 56.1745 164.816 55.7783V58.0896C164.023 58.4198 163.099 58.5519 162.24 58.4859C161.382 58.4859 160.523 58.0896 159.995 57.4292C159.335 56.7028 159.203 55.6462 159.203 54.7217C159.203 52.6745 159.203 50.6273 159.203 48.5802C157.816 48.5802 156.429 48.5802 155.042 48.5802C155.042 51.816 155.042 54.9858 155.042 58.2217H152.203C152.203 55.0519 152.203 51.816 152.203 48.6462C151.542 48.6462 150.882 48.6462 150.222 48.6462C150.222 47.8537 150.222 47.1273 150.222 46.3349C150.882 46.3349 151.542 46.3349 152.203 46.3349C152.203 45.3443 152.071 44.2877 152.401 43.2971C152.665 42.4386 153.193 41.5801 153.986 41.1179L153.92 41.1839Z" fill="#777777"/>
<path d="M92.9036 41.3819C93.4979 41.3159 94.0923 41.514 94.4885 41.9102C94.9507 42.3725 95.0168 43.1649 94.6866 43.7593C94.2904 44.4196 93.4979 44.6838 92.7715 44.5517C92.0451 44.4196 91.3847 43.7593 91.4507 42.9668C91.4507 42.1744 92.1111 41.4479 92.9036 41.3819Z" fill="#777777"/>
<path d="M71.1083 41.7125H75.2687C76.5894 45.0144 77.8441 48.2503 79.1649 51.5522C79.4951 52.3446 79.8253 53.2031 80.1555 53.9956C81.8064 49.9012 83.5234 45.8069 85.1744 41.7125C86.4951 41.7125 87.8159 41.7125 89.1366 41.7125C89.1366 47.2597 89.1366 52.8069 89.1366 58.3541C88.1461 58.3541 87.2215 58.3541 86.231 58.3541C86.231 54.2597 86.231 50.1654 86.231 46.071C86.231 45.8729 86.231 45.6748 86.231 45.5427C86.231 45.6088 86.0989 45.7408 86.0989 45.8069C84.4479 49.9673 82.797 54.1277 81.146 58.3541C80.4857 58.3541 79.7593 58.3541 79.0989 58.3541C77.3819 54.1937 75.7309 49.9673 74.0139 45.8069C74.0139 45.7408 73.9479 45.6088 73.8819 45.5427C73.8819 47.3257 73.8819 49.1088 73.8819 50.8918C73.8819 53.4012 73.8819 55.8447 73.8819 58.3541C72.9573 58.3541 72.0988 58.3541 71.1743 58.3541C71.1743 52.8069 71.1743 47.2597 71.1743 41.7125H71.1083Z" fill="#777777"/>
<path d="M100.759 46.4007C102.145 46.0045 103.598 46.0045 104.985 46.4007C105.249 46.4667 105.513 46.5988 105.778 46.7309C105.778 47.6554 105.778 48.5139 105.778 49.4384C104.853 48.712 103.664 48.3158 102.542 48.4479C101.617 48.5139 100.759 49.0422 100.164 49.7686C99.4379 50.6932 99.3059 51.9479 99.4379 53.0705C99.504 53.929 99.9002 54.8535 100.561 55.4479C101.287 56.1083 102.278 56.3064 103.202 56.2403C104.127 56.1083 104.985 55.712 105.778 55.1837C105.778 56.0422 105.778 56.9007 105.778 57.7592C104.589 58.4196 103.202 58.6177 101.881 58.5517C100.495 58.4856 99.1738 57.9573 98.1832 57.0328C97.1266 55.9762 96.5323 54.5234 96.4662 53.0705C96.4002 51.5517 96.7304 49.9007 97.5889 48.646C98.3153 47.5233 99.504 46.7969 100.759 46.4007Z" fill="#777777"/>
<path d="M120.043 46.2027C121.43 46.0046 122.883 46.1367 124.138 46.665C125.26 47.1933 126.119 48.0518 126.647 49.1744C127.175 50.3631 127.307 51.6839 127.241 52.9386C127.175 54.1933 126.779 55.4481 125.987 56.3726C125.194 57.4292 124.006 58.1556 122.685 58.4198C121.562 58.6179 120.439 58.6179 119.317 58.4198C117.996 58.1556 116.807 57.3632 116.015 56.3066C115.09 55.0518 114.826 53.4009 114.958 51.882C115.024 50.5613 115.421 49.2405 116.279 48.2499C117.204 47.1273 118.59 46.4009 120.043 46.2688V46.2027Z" fill="#777777"/>
<path d="M131.865 46.2687C133.186 46.0045 134.572 46.2687 135.827 46.6649C135.827 47.5234 135.827 48.3819 135.827 49.3064C134.969 48.7121 133.912 48.3819 132.855 48.4479C132.327 48.4479 131.733 48.7121 131.469 49.1744C131.271 49.7027 131.469 50.363 131.865 50.6272C132.657 51.1555 133.648 51.4196 134.44 51.8819C135.101 52.2781 135.761 52.7404 136.091 53.4668C136.686 54.7876 136.422 56.5046 135.365 57.4951C134.308 58.4857 132.789 58.7499 131.403 58.6838C130.412 58.6838 129.421 58.4197 128.497 58.0234C128.497 57.0989 128.497 56.1744 128.497 55.2498C129.289 55.7781 130.148 56.1744 131.072 56.3725C131.733 56.5046 132.459 56.5046 133.054 56.1744C133.648 55.9102 133.714 55.0517 133.384 54.5234C133.054 54.1272 132.591 53.9291 132.129 53.731C131.271 53.3347 130.412 53.0706 129.686 52.4762C129.157 52.08 128.761 51.4857 128.629 50.8913C128.431 49.9668 128.497 48.9102 129.025 48.0517C129.686 47.0611 130.742 46.5328 131.865 46.3347V46.2687Z" fill="#777777"/>
<path d="M142.76 46.2028C144.213 46.0047 145.666 46.1368 146.987 46.7972C148.109 47.3915 148.968 48.3821 149.43 49.5708C149.76 50.4953 149.892 51.4198 149.892 52.4104C149.892 53.8632 149.496 55.3161 148.572 56.4387C147.713 57.5614 146.458 58.2878 145.072 58.4859C143.751 58.684 142.298 58.618 141.043 58.1557C139.789 57.6274 138.666 56.6368 138.138 55.3161C137.543 53.9953 137.543 52.5425 137.675 51.1557C137.874 49.7689 138.468 48.4481 139.524 47.5236C140.383 46.7311 141.506 46.3349 142.694 46.2028H142.76Z" fill="#777777"/>
<path d="M112.186 46.5991C112.978 46.1368 113.969 46.0708 114.827 46.4009C114.827 47.3255 114.827 48.3161 114.827 49.2406C114.233 48.8444 113.573 48.7123 112.912 48.7783C112.12 48.8444 111.459 49.5047 111.129 50.2312C110.799 50.9576 110.733 51.8161 110.733 52.6746C110.733 54.5897 110.733 56.4387 110.733 58.3538H107.893C107.893 54.3915 107.893 50.4293 107.893 46.467C108.818 46.467 109.742 46.467 110.733 46.467C110.733 47.1274 110.733 47.8538 110.733 48.5142C111.063 47.7877 111.459 47.0613 112.186 46.6651V46.5991Z" fill="#777777"/>
<path d="M91.712 46.4667C92.6365 46.4667 93.6271 46.4667 94.5516 46.4667C94.5516 50.429 94.5516 54.3913 94.5516 58.3536H91.712C91.712 54.3913 91.712 50.429 91.712 46.4667Z" fill="#777777"/>
<path d="M120.901 48.4478C121.759 48.4478 122.684 48.6459 123.278 49.2402C123.938 49.9006 124.202 50.8251 124.268 51.7497C124.268 52.7402 124.268 53.7308 123.872 54.6553C123.608 55.2497 123.08 55.778 122.485 56.0421C121.759 56.3063 120.901 56.3723 120.174 56.1742C119.382 55.9761 118.721 55.3817 118.391 54.7214C117.929 53.7968 117.863 52.7402 117.929 51.7497C117.995 50.8251 118.325 49.9006 119.051 49.2402C119.58 48.7779 120.24 48.5138 120.901 48.5138V48.4478Z" fill="#FEFEFE"/>
<path d="M143.553 48.4478C144.345 48.4478 145.204 48.5798 145.864 49.1081C146.458 49.5704 146.722 50.2968 146.921 51.0232C147.053 51.8817 147.053 52.7402 146.921 53.5987C146.788 54.193 146.59 54.8534 146.194 55.3157C145.798 55.844 145.137 56.1082 144.543 56.2402C143.883 56.3723 143.156 56.2402 142.496 56.0421C141.836 55.778 141.307 55.1836 140.977 54.4572C140.647 53.6647 140.581 52.7402 140.647 51.8817C140.647 51.0232 140.977 50.1647 141.505 49.5044C142.034 48.91 142.826 48.5798 143.553 48.5138V48.4478Z" fill="#FEFEFE"/>
<path d="M161.977 48.7123C162.902 48.7123 163.893 48.7123 164.817 48.7123V55.8444C164.223 56.2406 163.298 56.4387 162.638 56.0425C162.242 55.8444 162.043 55.3161 162.043 54.9198C161.977 54.1934 162.043 53.467 162.043 52.7406C162.043 51.4198 162.043 50.0991 162.043 48.7783L161.977 48.7123Z" fill="#FEFEFE"/>
<path d="M35.118 50.6935C39.4765 50.6935 43.9011 50.6935 48.2596 50.6935C48.2596 55.052 48.2596 59.4765 48.2596 63.835H35.118V50.6935Z" fill="#02A4EF"/>
<path d="M49.6434 50.6935C54.0019 50.6935 58.4265 50.6935 62.785 50.6935V63.835H49.6434C49.6434 59.4765 49.6434 55.052 49.6434 50.6935Z" fill="#FFB902"/>
</svg>
