<svg width="200" height="100" viewBox="0 0 200 100" fill="none" xmlns="http://www.w3.org/2000/svg">
<path d="M38.5262 60.4933V45.6749H53.0722C56.1049 45.6749 57.6424 47.2125 57.6424 50.2451V60.5115H53.7502V49.9364C53.8349 49.5066 53.502 49.1192 53.0722 49.0345H49.9971V60.4509H46.1473V49.0587H42.4185V60.4933H38.5262ZM60.4511 60.4933H64.301V45.6749H60.4511V60.4872V60.4933ZM60.3906 43.2597H64.3676V39.4885H60.3906V43.2597ZM71.5407 60.4933V49.0587H75.2695V60.4509H79.1617V49.0163H82.2367C82.6665 49.1011 82.9752 49.4885 82.9147 49.9183V60.4933H86.7646V50.227C86.7646 47.1943 85.227 45.6568 82.1944 45.6568H67.6484V60.4691H71.5407V60.4872V60.4933ZM93.4413 49.9183V49.6701C93.526 49.2403 93.9135 48.9316 94.3432 48.9921H97.8057C98.2355 49.0769 98.5442 49.4643 98.4837 49.8941V51.474H93.4837L93.4413 49.9183ZM89.5914 55.9231C89.5914 58.9558 91.129 60.4933 94.1798 60.5115H102.358V57.1277H94.1435C93.7137 57.0429 93.405 56.6555 93.4655 56.2258V54.543H102.358V50.2209C102.358 47.1883 100.82 45.6507 97.7875 45.6507H94.1374C91.1047 45.6507 89.5672 47.1883 89.5672 50.2209V55.917M105.082 55.9231C105.082 58.9558 106.619 60.4933 109.652 60.5115H116.577V57.1277H109.652C109.222 57.0429 108.913 56.6555 108.974 56.2258V49.6882C109.059 49.2585 109.446 48.9497 109.876 49.0103H116.559V45.6265H109.634C106.601 45.6265 105.064 47.164 105.064 50.1967V55.911M122.769 55.4933V55.2451C122.854 54.8153 123.241 54.5066 123.671 54.5672H127.321V57.0853H123.429C122.999 57.0006 122.691 56.6132 122.751 56.1834V55.4873H122.769V55.4933ZM131.208 60.4933V50.227C131.208 47.1943 129.67 45.6568 126.637 45.6568H119.67V49.0405H126.68C127.109 49.1253 127.418 49.5127 127.358 49.9425V51.5587H123.465C120.433 51.5163 118.895 53.0115 118.895 56.0078C118.895 59.0042 120.433 60.4933 123.465 60.4933H131.214H131.208ZM134.077 60.4933H140.76C143.792 60.4933 145.33 58.9558 145.33 55.9231C145.33 53.6047 144.143 52.2367 141.783 51.8432L138.75 51.3287C138.199 51.2439 137.933 50.8141 137.933 50.118C137.933 49.4219 138.241 49.0527 138.877 49.0527H144.658V45.6689H138.653C135.62 45.6689 134.083 47.2064 134.083 50.2391C134.083 52.5575 135.269 53.9255 137.63 54.319L140.663 54.8335C141.214 54.9546 141.48 55.3844 141.48 56.0805C141.48 56.7766 141.171 57.1458 140.536 57.1458H134.083V60.4872L134.077 60.4933ZM147.806 55.9231C147.806 58.9558 149.343 60.4933 152.394 60.5115H156.843V57.1277H152.394C151.964 57.0429 151.655 56.6555 151.716 56.2258V49.0345H156.51V45.6507H151.674V41.0866H147.781V55.9231M160.796 47.1519L161.268 45.8626V47.1519H161.474V45.6144H161.207L160.735 46.9038L160.263 45.6144H159.997V47.1519H160.203V45.8626L160.675 47.1519H160.796ZM159.361 45.7778H159.833V45.6144H158.726V45.7778H159.198V47.1519H159.361V45.7778Z" fill="#000066"/>
</svg>
