<svg width="200" height="100" viewBox="0 0 200 100" fill="none" xmlns="http://www.w3.org/2000/svg">
<path d="M68.0915 53.8283C67.588 53.2135 67.0582 52.6315 66.4892 52.0756L54.7304 40.768V60.1263H57.8303V48.0601C58.2554 48.6029 58.7132 49.113 59.2037 49.5839L71.1915 61.0615V41.7555H68.0785V53.8283H68.0915Z" fill="#10192A"/>
<path d="M111.229 51.0038C110.634 50.5918 109.986 50.2779 109.299 50.0621C108.619 49.8332 107.906 49.637 107.187 49.467C106.468 49.2969 105.761 49.14 105.094 49.0026C104.493 48.8849 103.904 48.7083 103.335 48.486C102.903 48.3225 102.511 48.0739 102.184 47.7535C101.922 47.4657 101.785 47.0799 101.805 46.6875C101.785 46.2493 101.883 45.8111 102.086 45.4253C102.269 45.1048 102.531 44.8301 102.851 44.6339C103.204 44.4181 103.597 44.2612 104.002 44.1827C104.46 44.0911 104.924 44.0388 105.389 44.0388C106.389 43.9865 107.383 44.2612 108.214 44.8236C108.959 45.4383 109.404 46.3539 109.43 47.3218V47.6815H112.439V47.2761C112.426 46.3474 112.223 45.4318 111.837 44.5881C111.484 43.8557 110.967 43.2082 110.326 42.7046C109.672 42.1945 108.927 41.8283 108.129 41.6125C106.448 41.1678 104.682 41.1678 103.002 41.6125C102.236 41.8087 101.517 42.1291 100.863 42.5673C100.209 43.0251 99.6727 43.6268 99.2868 44.32C98.8748 45.0983 98.6721 45.9681 98.6917 46.8444C98.6197 48.3421 99.3718 49.7547 100.654 50.533C101.242 50.9057 101.877 51.1935 102.537 51.4028C103.217 51.6121 103.924 51.8017 104.65 51.9587L106.729 52.423C107.331 52.5473 107.92 52.7369 108.482 52.9789C108.92 53.1686 109.313 53.4498 109.633 53.8095C109.901 54.1626 110.039 54.6008 110.019 55.0455C110.104 55.9807 109.62 56.8702 108.796 57.3149C108.377 57.5438 107.926 57.7008 107.455 57.7858C106.337 58.0016 105.186 57.9689 104.081 57.6942C103.538 57.5569 103.021 57.3149 102.563 56.9879C102.138 56.6674 101.785 56.2554 101.537 55.7846C101.268 55.2417 101.131 54.6466 101.151 54.0384V53.646H98.1162V54.0384C98.09 55.0652 98.3058 56.0854 98.7375 57.0141C99.1364 57.8316 99.7185 58.5444 100.444 59.1003C101.183 59.6497 102.021 60.0551 102.916 60.2971C103.871 60.5587 104.859 60.6895 105.846 60.683C106.703 60.683 107.553 60.5849 108.39 60.3887C109.221 60.2121 110.012 59.8916 110.738 59.4469C111.445 58.9957 112.046 58.3875 112.491 57.6746C112.968 56.8767 113.21 55.9611 113.191 55.0325C113.217 54.2019 113.034 53.3844 112.654 52.6454C112.314 51.9979 111.824 51.442 111.229 51.0169V51.0038Z" fill="#10192A"/>
<path d="M131.389 52.8613C131.389 56.0004 129.996 57.5242 127.131 57.5242C124.267 57.5242 122.874 55.9939 122.874 52.8613V41.7564H119.578V53.1359C119.578 58.0867 122.122 60.598 127.118 60.598C132.115 60.598 134.705 58.0932 134.705 53.1359V41.7564H131.376L131.395 52.8613H131.389Z" fill="#10192A"/>
<path d="M155.686 53.8281C155.183 53.2198 154.653 52.6378 154.084 52.0819L142.338 40.7612V60.1195H145.438V48.0533C145.863 48.5961 146.321 49.1062 146.812 49.5771L158.78 61.0547V41.7553H155.68V53.8281H155.686Z" fill="#10192A"/>
<path d="M169.861 41.7564H166.532V60.1271H169.861V41.7564Z" fill="#10192A"/>
<path d="M85.2127 40.7678L76.2007 60.126H79.7257L81.8054 55.5088H88.6004L90.6736 60.126H94.2575L85.2062 40.7678H85.2127ZM82.7537 52.8601L84.5849 48.7661C84.853 48.1056 85.0689 47.4254 85.2324 46.7322C85.4155 47.4254 85.6444 48.1056 85.9125 48.7661L87.7437 52.8601H82.7603H82.7537Z" fill="#10192A"/>
<path d="M46.5281 40.5595L30.1389 47.917V44.9151L46.5281 37.5577V40.5595Z" fill="#54AC00"/>
<path d="M46.5281 47.8181L30.1389 55.1756V52.1737L46.5281 44.8163V47.8181Z" fill="#54AC00"/>
<path d="M46.5281 55.085L30.1389 62.4425V59.4341L46.5281 52.0832V55.085Z" fill="#54AC00"/>
</svg>
