<svg width="200" height="100" viewBox="0 0 200 100" fill="none" xmlns="http://www.w3.org/2000/svg">
<path d="M36.8843 45.0236C36.6751 45.5035 36.3798 45.9896 35.9429 46.4018C35.0262 47.3185 33.8757 47.6876 32.676 47.7369L37.1611 52.222C37.2288 51.0284 37.5733 49.8779 38.4962 48.955C38.9084 48.5428 39.3945 48.2414 39.8744 48.0137C38.4962 47.5092 37.3888 46.4018 36.8843 45.0236Z" fill="#FF8300"/>
<path d="M35.8933 55.1625C37.5975 53.4583 37.5975 50.702 35.8933 48.9977C34.1891 47.2935 31.4328 47.2935 29.7285 48.9977C28.0243 50.702 28.0243 53.4583 29.7285 55.1625C31.4328 56.8667 34.1891 56.8667 35.8933 55.1625Z" fill="#FF8300"/>
<path d="M44.7225 40.1927C46.4267 41.897 46.4267 44.6533 44.7225 46.3575C43.0183 48.0617 40.262 48.0617 38.5577 46.3575C36.8535 44.6533 36.8535 41.897 38.5577 40.1927C40.262 38.4885 43.0183 38.4885 44.7225 40.1927Z" fill="#55565A"/>
<path d="M62.3796 40.1927C60.6754 38.4885 57.9191 38.4885 56.2148 40.1927C55.3842 41.0233 54.972 42.0754 54.9474 43.1336C54.8797 44.3272 54.5352 45.4777 53.6123 46.4006C53.2001 46.8128 52.7141 47.1389 52.2342 47.3419C53.6369 47.8464 54.7382 48.9538 55.2489 50.3566C55.4581 49.8521 55.7534 49.3907 56.1902 48.9785C57.1069 48.0617 58.2574 47.6926 59.4572 47.6434C60.54 47.6188 61.5982 47.1819 62.3981 46.376C64.0777 44.6533 64.0777 41.8908 62.3734 40.1927H62.3796ZM60.8599 44.8378C60.4477 45.2501 59.8694 45.4838 59.2972 45.4838C58.725 45.4838 58.1467 45.2562 57.7345 44.8378C56.8608 43.9642 56.8608 42.5614 57.7345 41.6878C58.1467 41.2756 58.725 41.0418 59.2972 41.0418C59.8694 41.0418 60.4477 41.2694 60.8599 41.6878C61.2722 42.1061 61.5059 42.6783 61.5059 43.2505C61.5306 43.8719 61.2968 44.4256 60.8599 44.8378Z" fill="#00A7CE"/>
<path d="M53.5484 49.0196C55.2527 50.7238 55.2527 53.4801 53.5484 55.1843C51.8442 56.8886 49.0879 56.8886 47.3837 55.1843C45.6794 53.4801 45.6794 50.7238 47.3837 49.0196C49.0879 47.3153 51.8442 47.3153 53.5484 49.0196Z" fill="#55565A"/>
<path d="M47.3406 46.4005C46.4239 45.4838 46.0548 44.3333 46.0055 43.1335L41.5019 47.6187C42.6955 47.6864 43.846 48.0309 44.7689 48.9538C45.6856 49.8705 46.0548 51.021 46.104 52.2207L50.5891 47.7356C49.414 47.6925 48.2697 47.3234 47.3468 46.4005" fill="#55565A"/>
<path d="M101.465 56.5155C99.2566 56.5155 97.8785 55.1619 97.8785 52.9963V39.7315C97.8785 39.2024 98.2722 38.8148 98.7952 38.8148C99.3182 38.8148 99.7119 39.227 99.7119 39.7315V44.2351H102.954C103.434 44.2351 103.853 44.6474 103.853 45.1334C103.853 45.6194 103.44 46.0071 102.954 46.0071H99.7119V52.8794C99.7119 54.1468 100.333 54.7436 101.644 54.7436C102.124 54.7436 102.425 54.6513 102.634 54.5836C102.751 54.5405 102.844 54.5159 102.954 54.5159C103.416 54.5159 103.828 54.9281 103.828 55.3896C103.828 55.7587 103.619 56.054 103.231 56.1955C102.794 56.3309 102.222 56.5155 101.459 56.5155H101.465Z" fill="#55565A"/>
<path d="M111.235 56.5146C109.648 56.5146 107.808 55.8932 106.547 54.9518C106.387 54.835 106.203 54.5396 106.203 54.2382C106.203 53.7583 106.615 53.3214 107.119 53.3214C107.329 53.3214 107.532 53.3891 107.692 53.506C108.842 54.3366 110.036 54.7488 111.303 54.7488C112.73 54.7488 113.715 53.9921 113.715 52.9338V52.8908C113.715 51.9002 112.749 51.4449 110.934 50.9343L110.891 50.9097L110.848 50.8851C109.008 50.356 106.732 49.6915 106.732 47.4151V47.372C106.732 45.3232 108.479 43.8282 110.891 43.8282C112.158 43.8282 113.579 44.2219 114.798 44.911L114.822 44.9356C115.124 45.1448 115.284 45.4155 115.284 45.7416C115.284 46.2215 114.871 46.6583 114.367 46.6583C114.182 46.6583 113.998 46.6153 113.862 46.523C112.872 45.9508 111.838 45.6247 110.848 45.6247C109.513 45.6247 108.596 46.2892 108.596 47.2551V47.2982C108.596 48.2641 109.814 48.6763 111.537 49.1808C113.057 49.593 115.585 50.3067 115.585 52.7677V52.8108C115.561 54.9272 113.746 56.5146 111.242 56.5146H111.235Z" fill="#55565A"/>
<path d="M119.557 56.3798C119.028 56.3798 118.616 55.986 118.616 55.463V39.7312C118.616 39.2021 119.009 38.7899 119.532 38.7899C120.055 38.7899 120.449 39.2021 120.449 39.7312V55.4323C120.474 55.986 120.08 56.3736 119.551 56.3736L119.557 56.3798Z" fill="#55565A"/>
<path d="M136.921 56.5399C133.427 56.5399 130.67 53.759 130.67 50.1967V50.1536C130.67 46.5668 133.427 43.7612 136.971 43.7612C140.514 43.7612 143.222 46.5421 143.222 50.1044V50.1475C143.222 53.759 140.465 56.5399 136.921 56.5399ZM136.921 45.5516C134.46 45.5516 132.596 47.5081 132.596 50.129V50.1721C132.596 52.75 134.503 54.7926 136.964 54.7926C139.425 54.7926 141.29 52.8361 141.29 50.2152V50.1721C141.29 47.5758 139.382 45.5516 136.921 45.5516Z" fill="#55565A"/>
<path d="M89.1933 56.5399C85.7664 56.5399 83.1947 53.8021 83.1947 50.1721V50.129C83.1947 46.5668 85.7479 43.7612 89.0087 43.7612C92.2695 43.7612 94.6444 46.4314 94.6444 50.086C94.6444 50.5474 94.2076 50.9842 93.7277 50.9842H87.4768C86.9723 50.9842 86.6031 50.6151 86.6031 50.1352C86.6031 49.6553 86.9723 49.2615 87.4768 49.2615H92.6941C92.4418 47.4712 91.359 45.5393 88.9718 45.5393C87.0153 45.5393 85.4526 47.102 85.1327 49.3108L85.0896 49.6799C85.0466 50.0737 85.0466 50.4182 85.0896 50.7381V50.7627C85.3173 53.1314 87.0215 54.7865 89.2056 54.7865C90.5407 54.7865 91.642 54.325 92.6756 53.316C92.8602 53.1314 93.0694 53.0638 93.297 53.0638C93.8015 53.0638 94.2137 53.4575 94.2137 53.962C94.2137 54.122 94.1707 54.3742 93.9123 54.608C92.5587 55.9862 91.156 56.5645 89.1995 56.5645L89.1933 56.5399Z" fill="#55565A"/>
<path d="M146.537 61.2102C146.007 61.2102 145.595 60.8164 145.595 60.2688V49.6005C145.595 46.0812 148.309 43.7864 151.526 43.7864C155.021 43.7864 157.777 46.5673 157.777 50.1296V50.1726C157.777 53.7595 155.021 56.5651 151.477 56.5651C149.89 56.5651 148.462 55.9929 147.429 54.9346V60.2688C147.429 60.8226 147.06 61.2102 146.53 61.2102H146.537ZM147.435 50.7018C147.644 53.0212 149.207 54.6578 151.323 54.7685H151.551C152.308 54.7685 153.021 54.584 153.643 54.2148C153.71 54.1717 153.76 54.1471 153.827 54.0979C154.332 53.7534 154.769 53.3166 155.095 52.7444C155.138 52.6767 155.162 52.6275 155.212 52.5598C155.279 52.4429 155.347 52.3075 155.396 52.166C155.648 51.5446 155.79 50.8802 155.79 50.1911V50.148C155.79 49.5943 155.698 49.0467 155.538 48.5361C155.495 48.4007 155.445 48.2592 155.378 48.1239C155.335 47.9885 155.261 47.847 155.193 47.7301C154.799 47.041 154.276 46.4627 153.606 46.0751C153.538 46.032 153.489 46.0074 153.421 45.9828C153.304 45.9151 153.169 45.8659 153.027 45.8228C152.751 45.7306 152.474 45.6383 152.197 45.5952C152.062 45.5706 151.895 45.5521 151.76 45.5521H151.532C149.305 45.5521 147.693 47.1825 147.466 49.6005V50.7018H147.441H147.435Z" fill="#55565A"/>
<path d="M128.548 56.3806C128.296 56.3806 128.068 56.2883 127.883 56.1038L122.18 50.3327C121.835 49.9882 121.811 49.4591 122.137 49.0899L122.162 49.0469L127.36 44.2418C127.52 44.0572 127.729 43.9649 127.957 43.9403C128.209 43.9157 128.437 43.9834 128.622 44.1495C129.015 44.4694 129.058 45.0662 128.738 45.46L128.695 45.5031L124.1 49.6867L129.181 54.8364C129.366 55.0209 129.458 55.2486 129.458 55.5008C129.458 55.7531 129.366 55.9807 129.181 56.1468C129.046 56.2822 128.812 56.3745 128.56 56.3745L128.548 56.3806Z" fill="#55565A"/>
<path d="M79.5987 56.5392C79.0696 56.5392 78.6574 56.127 78.6574 55.5979V49.1624C78.6574 46.9106 77.4146 45.5755 75.3227 45.5755C73.2309 45.5755 71.9881 46.9106 71.9881 49.1624V55.5979C71.9881 56.127 71.5759 56.5392 71.0468 56.5392C70.5176 56.5392 70.13 56.1454 70.13 55.5979V48.9778C70.13 45.8523 72.105 43.8282 75.1443 43.8282H75.4642C78.522 43.8282 80.4785 45.8523 80.4785 48.9778V55.5979C80.5031 56.1516 80.134 56.5392 79.6048 56.5392H79.5987Z" fill="#55565A"/>
<path d="M166.099 56.5399C162.672 56.5399 160.1 53.8021 160.1 50.1721V50.129C160.1 46.5668 162.653 43.7612 165.914 43.7612C169.175 43.7612 171.55 46.4314 171.55 50.086C171.55 50.5659 171.137 50.9842 170.633 50.9842H164.357C163.853 50.9842 163.484 50.6151 163.484 50.1352C163.484 49.6553 163.853 49.2615 164.357 49.2615H169.575C169.322 47.4712 168.24 45.5393 165.852 45.5393C163.896 45.5393 162.333 47.102 162.013 49.3108L161.97 49.6799C161.927 50.0737 161.927 50.4182 161.97 50.7381V50.7627C162.198 53.1314 163.902 54.7865 166.086 54.7865C167.421 54.7865 168.523 54.325 169.556 53.316C169.741 53.1314 169.95 53.0638 170.178 53.0638C170.682 53.0638 171.094 53.4575 171.094 53.962C171.094 54.122 171.051 54.3742 170.793 54.608C169.458 55.9862 168.055 56.5645 166.105 56.5645L166.099 56.5399Z" fill="#55565A"/>
</svg>
