<svg width="200" height="100" viewBox="0 0 200 100" fill="none" xmlns="http://www.w3.org/2000/svg">
<path d="M47.8167 43.5751C48.9461 44.7359 49.5108 46.4676 49.5108 48.7515V57.7114H45.2066V49.448C45.2066 48.2057 44.9493 47.2833 44.4348 46.6684C43.9203 46.0598 43.1737 45.7524 42.2011 45.7524C41.1156 45.7524 40.2498 46.1037 39.6098 46.8127C38.9635 47.5218 38.6435 48.5696 38.6435 49.9688V57.7052H34.3392V43.3681L38.449 41.4042V43.8889C39.02 43.23 39.7227 42.7218 40.5698 42.3642C41.4168 42.0065 42.3454 41.8246 43.3556 41.8246C45.194 41.8246 46.6811 42.4081 47.8105 43.5689" fill="#053856"/>
<path d="M52.7078 43.3731V57.7102H57.0121V41.4092L52.7078 43.3731Z" fill="#053856"/>
<path d="M57.0121 36.416V40.0991L52.7078 42.063V38.3799L57.0121 36.416Z" fill="#053856"/>
<path d="M78.5406 38.3862V42.0693L82.8386 40.0928V36.416L78.5406 38.3862Z" fill="#053856"/>
<path d="M73.7961 43.5751C74.9255 44.7359 75.4902 46.4676 75.4902 48.7515V57.7114H71.1859V49.448C71.1859 48.2057 70.9287 47.2833 70.4142 46.6684C69.8997 46.0598 69.153 45.7524 68.1805 45.7524C67.095 45.7524 66.2291 46.1037 65.5891 46.8127C64.9429 47.5218 64.6229 48.5696 64.6229 49.9688V57.7052H60.3186V43.3681L64.4284 41.4042V43.8889C64.9993 43.23 65.7021 42.7218 66.5491 42.3642C67.3962 42.0065 68.3248 41.8246 69.335 41.8246C71.1734 41.8246 72.6604 42.4081 73.7898 43.5689" fill="#053856"/>
<path d="M82.8386 41.4478V57.6797C82.8386 59.4993 82.343 60.9424 81.3641 62.0028C80.3791 63.0569 79.005 63.584 77.2418 63.584C75.736 63.584 74.5878 63.2953 73.7972 62.7118L74.9517 59.424C75.4474 59.7942 76.056 59.9762 76.7713 59.9762C77.3234 59.9762 77.7563 59.7879 78.0701 59.4115C78.3838 59.035 78.5406 58.464 78.5406 57.7111V43.4179L82.8449 41.4478H82.8386Z" fill="#053856"/>
<path d="M101.184 43.3685V57.7056H97.0742V55.9048C96.0076 57.2601 94.4641 57.9377 92.4437 57.9377C91.0445 57.9377 89.7833 57.6114 88.6539 56.9464C87.5246 56.2875 86.6336 55.3464 85.9936 54.1229C85.3473 52.8993 85.0273 51.4876 85.0273 49.8751C85.0273 48.2625 85.3473 46.8508 85.9936 45.6273C86.6399 44.4037 87.5246 43.4689 88.6539 42.8038C89.7833 42.1449 91.0508 41.8124 92.4437 41.8124C94.3386 41.8124 95.8194 42.4461 96.886 43.701V41.3857L101.19 43.3496L101.184 43.3685ZM95.8884 53.0436C96.6037 52.2593 96.9613 51.2052 96.9613 49.8876C96.9613 48.57 96.6037 47.5159 95.8884 46.7316C95.1731 45.9473 94.2696 45.552 93.1841 45.552C92.0986 45.552 91.17 45.9473 90.4547 46.7316C89.7394 47.5159 89.3818 48.57 89.3818 49.8876C89.3818 51.2052 89.7394 52.2593 90.4547 53.0436C91.17 53.828 92.0798 54.2232 93.1841 54.2232C94.2884 54.2232 95.1731 53.828 95.8884 53.0436Z" fill="#053856"/>
<path d="M149.98 45.9229C149.321 46.5064 148.913 47.297 148.769 48.3071H156.078C155.928 47.3158 155.526 46.5252 154.867 45.9354C154.209 45.3456 153.393 45.0507 152.439 45.0507C151.485 45.0507 150.645 45.3393 149.986 45.9229M159.071 55.2153C157.672 56.8968 155.639 57.7313 152.96 57.7313C151.291 57.7313 149.804 57.3863 148.524 56.6961C147.231 56.0122 146.24 55.0522 145.544 53.8286C144.841 52.6114 144.496 51.2248 144.496 49.675C144.496 48.1252 144.841 46.7636 145.531 45.5338C146.221 44.3041 147.162 43.3441 148.367 42.6539C149.572 41.97 150.921 41.6186 152.408 41.6186C153.895 41.6186 155.175 41.9449 156.354 42.61C157.534 43.2688 158.45 44.2099 159.128 45.4397C159.799 46.6758 160.132 48.1001 160.132 49.7314C160.132 49.7879 160.1 50.1957 160.05 50.9487H148.825C149.026 51.9212 149.503 52.6867 150.262 53.2514C151.015 53.8161 151.95 54.0859 153.073 54.0859C153.851 54.0859 154.529 53.9667 155.125 53.7283C155.269 53.6718 155.407 53.6028 155.545 53.5275L159.071 55.209V55.2153Z" fill="#00A6CE"/>
<path d="M108.694 56.6883C107.088 55.7785 105.827 54.5236 104.911 52.9236C104.001 51.3236 103.549 49.5291 103.549 47.5276C103.549 45.526 104.001 43.7316 104.911 42.1316C105.82 40.5316 107.082 39.2767 108.694 38.3669C110.3 37.4571 112.107 36.9991 114.115 36.9991C116.123 36.9991 117.924 37.4571 119.524 38.3669C121.124 39.2767 122.385 40.5316 123.301 42.1316C124.223 43.7316 124.681 45.5323 124.681 47.5276C124.681 49.5229 124.223 51.3236 123.301 52.9236C122.379 54.5236 121.124 55.7785 119.524 56.6883C117.924 57.5981 116.123 58.0561 114.115 58.0561C112.107 58.0561 110.307 57.5981 108.694 56.6883ZM117.209 53.2122C118.125 52.6601 118.852 51.8883 119.373 50.897C119.894 49.9056 120.158 48.7825 120.158 47.5213C120.158 46.2602 119.894 45.137 119.373 44.1457C118.852 43.1543 118.125 42.3888 117.209 41.8304C116.286 41.2783 115.257 41.0022 114.122 41.0022C112.986 41.0022 111.951 41.2783 111.035 41.8304C110.112 42.3826 109.391 43.1543 108.87 44.1457C108.349 45.137 108.086 46.2602 108.086 47.5213C108.086 48.7825 108.349 49.9056 108.87 50.897C109.391 51.8883 110.112 52.6538 111.035 53.2122C111.957 53.7644 112.986 54.0405 114.122 54.0405C115.257 54.0405 116.292 53.7644 117.209 53.2122Z" fill="#00A6CE"/>
<path d="M140.533 43.5751C141.663 44.7359 142.227 46.4676 142.227 48.7515V57.7114H137.923V49.448C137.923 48.2057 137.666 47.2833 137.151 46.6684C136.637 46.0598 135.89 45.7524 134.918 45.7524C133.832 45.7524 132.966 46.1037 132.326 46.8127C131.68 47.5218 131.36 48.5696 131.36 49.9688V57.7052H127.056V43.3681L131.165 41.4042V43.8889C131.736 43.23 132.439 42.7218 133.286 42.3642C134.133 42.0065 135.062 41.8246 136.072 41.8246C137.911 41.8246 139.398 42.4081 140.527 43.5689" fill="#00A6CE"/>
<path d="M165.504 54.674C165.391 54.4105 165.24 54.1846 165.046 53.9838C164.851 53.7831 164.619 53.6325 164.349 53.5258C164.086 53.4191 163.797 53.3627 163.484 53.3627C163.17 53.3627 162.887 53.4191 162.618 53.5321C162.354 53.645 162.122 53.8019 161.921 54.0027C161.72 54.2034 161.57 54.4356 161.457 54.6991C161.344 54.9627 161.288 55.2513 161.288 55.5524C161.288 55.8536 161.344 56.1422 161.451 56.4058C161.557 56.6693 161.714 56.9015 161.909 57.1022C162.109 57.303 162.335 57.4599 162.605 57.5728C162.869 57.6858 163.157 57.7422 163.465 57.7422C163.772 57.7422 164.061 57.6858 164.324 57.5728C164.588 57.4599 164.82 57.303 165.021 57.1022C165.222 56.9015 165.378 56.6693 165.491 56.4058C165.604 56.1422 165.661 55.8536 165.661 55.5399C165.661 55.2262 165.604 54.9438 165.498 54.6803M165.171 56.2677C165.077 56.4936 164.952 56.6944 164.782 56.8575C164.613 57.0269 164.418 57.1587 164.199 57.2528C163.979 57.3469 163.735 57.3971 163.471 57.3971C163.207 57.3971 162.975 57.3532 162.756 57.2591C162.53 57.165 162.342 57.0332 162.172 56.8638C162.009 56.6944 161.877 56.4999 161.789 56.274C161.695 56.0481 161.651 55.8097 161.651 55.5524C161.651 55.2952 161.695 55.0505 161.789 54.8309C161.884 54.605 162.009 54.4105 162.172 54.2411C162.335 54.0717 162.53 53.9399 162.756 53.8458C162.982 53.7517 163.226 53.7078 163.49 53.7078C163.753 53.7078 163.998 53.7517 164.218 53.8458C164.437 53.9399 164.632 54.0654 164.795 54.2348C164.958 54.4042 165.084 54.5925 165.178 54.8183C165.266 55.0442 165.316 55.2826 165.316 55.5399C165.316 55.7972 165.272 56.0419 165.178 56.2677" fill="#00A6CE"/>
<path d="M164.341 55.804C164.523 55.6534 164.61 55.4464 164.61 55.1766C164.61 54.9068 164.516 54.7123 164.341 54.5554C164.165 54.3985 163.908 54.3295 163.588 54.3295H162.571V56.7703H163.104V56.0299H163.588C163.588 56.0299 163.625 56.0236 163.65 56.0236L164.14 56.7766H164.673L164.121 55.9232C164.203 55.8919 164.284 55.8605 164.347 55.8103M163.098 55.6095V54.7499H163.556C163.732 54.7499 163.864 54.7876 163.958 54.8629C164.052 54.9381 164.102 55.0448 164.102 55.1766C164.102 55.3083 164.052 55.4213 163.958 55.4966C163.864 55.5719 163.732 55.6095 163.556 55.6095H163.098Z" fill="#00A6CE"/>
</svg>
