<svg width="200" height="100" viewBox="0 0 200 100" fill="none" xmlns="http://www.w3.org/2000/svg">
<path d="M87.9979 40.6971C85.9305 40.6971 83.7828 41.263 81.1247 42.6925L82.6014 46.3594C84.9098 45.0651 86.8165 44.4992 88.2129 44.4992C89.7971 44.4992 90.4953 45.0924 90.4953 45.8742V45.9275C90.4953 46.4673 90.0652 46.7639 89.0186 46.8718L87.1934 47.0605C82.6286 47.5457 80.749 49.541 80.749 52.2909V52.4795C80.749 55.0953 82.8968 57.144 85.9305 57.144C87.9282 57.144 89.6636 56.297 90.7185 54.8023L91.0588 56.8747H95.1935V47.465C95.1935 43.0164 92.643 40.6971 87.9979 40.6971ZM87.595 53.5566C86.0652 53.5566 85.3398 52.9635 85.3398 52.0465V51.9931C85.3398 51.184 85.7958 50.5909 87.4603 50.3489L88.1857 50.2409C89.2454 50.0926 89.8963 49.8969 90.4953 49.5327V50.7261C90.4953 52.5329 89.3671 53.5566 87.595 53.5566Z" fill="black"/>
<path d="M35.8541 54.1196L49.1207 40.8046L43.8282 35.4935L38.5357 40.8046L41.1702 43.4477L27.9094 56.7651L33.196 62.0797L38.4885 56.7651L35.8541 54.1196Z" fill="#F04E23"/>
<path d="M33.2508 35.4919L19.9856 48.8126L25.275 54.124L38.5402 40.8034L33.2508 35.4919Z" fill="#F04E23"/>
<path d="M51.7488 43.4535L38.4836 56.7742L43.773 62.0857L57.0382 48.765L51.7488 43.4535Z" fill="#F04E23"/>
<path d="M102.569 35.3052H97.8704V56.8721H102.569V35.3052Z" fill="black"/>
<path d="M72.8508 40.6971C70.7149 40.6971 68.9996 41.6462 68.0556 43.1326L67.6965 40.9664H63.5618V62.2605H68.26V54.8782C69.1543 56.2626 70.846 57.1381 72.8508 57.1381C76.6099 57.1381 79.6708 53.7951 79.6708 49.1839V48.6442C79.6708 44.0366 76.6099 40.6924 72.8508 40.6924M74.8378 49.0511C74.8378 51.477 73.5761 53.2304 71.4816 53.2304C69.387 53.2304 68.1253 51.4782 68.1253 49.0511V48.7818C68.1253 46.3546 69.387 44.6024 71.4816 44.6024C73.5761 44.6024 74.8378 46.3546 74.8378 48.7818V49.0511Z" fill="black"/>
<path d="M166.003 40.6971C161.197 40.6971 157.814 44.0401 157.814 48.6513V49.1911C157.814 53.801 161.197 57.1452 166.003 57.1452C170.809 57.1452 174.192 53.8022 174.192 49.1911V48.6513C174.192 44.0413 170.809 40.6971 166.003 40.6971ZM169.359 49.0558C169.359 51.4818 168.097 53.2351 166.003 53.2351C163.908 53.2351 162.647 51.483 162.647 49.0558V48.7865C162.647 46.3594 163.908 44.6072 166.003 44.6072C168.097 44.6072 169.359 46.3594 169.359 48.7865V49.0558Z" fill="black"/>
<path d="M178.524 41.6686V41.5879C178.524 41.13 178.175 40.8062 177.557 40.8062H176.484V43.2867H176.994V42.4504H177.561L177.988 43.2867H178.551L178.027 42.3056C178.345 42.2072 178.524 41.9675 178.524 41.6686ZM176.993 41.2641H177.556C177.879 41.2641 178.012 41.372 178.012 41.6152V41.6425C178.012 41.8584 177.878 41.9925 177.556 41.9925H176.993V41.2641Z" fill="black"/>
<path d="M177.464 39.4845C176.014 39.4845 174.913 40.5901 174.913 42.0457C174.913 43.5013 176.014 44.6069 177.464 44.6069C178.913 44.6069 180.014 43.5013 180.014 42.0457C180.014 40.5901 178.913 39.4845 177.464 39.4845ZM177.464 44.2558C176.202 44.2558 175.289 43.3388 175.289 42.0445C175.289 40.7503 176.202 39.8333 177.464 39.8333C178.726 39.8333 179.639 40.7503 179.639 42.0445C179.639 43.3388 178.726 44.2558 177.464 44.2558Z" fill="black"/>
<path d="M144.002 35.3052H139.304V56.8721H144.002V35.3052Z" fill="black"/>
<path d="M153.243 53.2306C151.874 53.2306 151.364 52.5567 151.364 51.1011V44.6026H156.895V40.963H151.364V37.3223L146.665 38.0234V51.5591C146.665 55.2532 148.545 57.1406 152.304 57.1406C153.968 57.1406 155.928 56.6281 157.54 55.7111L156.198 52.3681C155.256 52.8806 153.941 53.2317 153.243 53.2317" fill="black"/>
<path d="M129.369 40.6971C127.302 40.6971 125.154 41.263 122.496 42.6925L123.973 46.3594C126.281 45.0651 128.188 44.4992 129.584 44.4992C131.168 44.4992 131.867 45.0924 131.867 45.8742V45.9275C131.867 46.4673 131.437 46.7639 130.39 46.8718L128.565 47.0605C124 47.5457 122.12 49.541 122.12 52.2909V52.4795C122.12 55.0953 124.268 57.144 127.302 57.144C129.298 57.144 131.035 56.297 132.09 54.8023L132.43 56.8747H136.565V47.465C136.565 43.0164 134.014 40.6971 129.369 40.6971ZM128.966 53.5566C127.435 53.5566 126.711 52.9635 126.711 52.0465V51.9931C126.711 51.184 127.167 50.5909 128.832 50.3489L129.557 50.2409C130.617 50.0926 131.268 49.8969 131.866 49.5327V50.7261C131.866 52.5329 130.738 53.5566 128.966 53.5566Z" fill="black"/>
<path d="M112.854 40.6971C108.049 40.6971 104.665 44.0401 104.665 48.6513V49.1911C104.665 53.801 108.049 57.1452 112.854 57.1452C117.66 57.1452 121.044 53.8022 121.044 49.1911V48.6513C121.042 44.0413 117.66 40.6971 112.854 40.6971ZM116.21 49.0558C116.21 51.4818 114.948 53.2351 112.853 53.2351C110.759 53.2351 109.497 51.483 109.497 49.0558V48.7865C109.497 46.3594 110.759 44.6072 112.853 44.6072C114.948 44.6072 116.21 46.3594 116.21 48.7865V49.0558Z" fill="black"/>
<path d="M134.909 64.5832L133.207 62.3292H133.196V64.5832H132.085V60.704H133.29L134.956 62.8986H134.968V60.704H136.078V64.5832H134.909Z" fill="black"/>
<path d="M138.714 63.0291V63.6341H141.076L140.958 64.5832H137.544V60.704H140.958V61.6412H138.714V62.175H140.486V63.0291H138.714Z" fill="black"/>
<path d="M143.439 64.5832V61.7005H142.021V60.704H145.801L145.919 61.7005H144.502V64.5832H143.439Z" fill="black"/>
<path d="M151.59 63.3969L152.181 60.704H153.362L152.299 64.5832H150.881L150.172 62.2343H150.054L149.345 64.5832H147.81L146.865 60.704H148.046L148.755 63.3969L149.582 60.704H150.763L151.472 63.3969H151.59Z" fill="black"/>
<path d="M154.189 62.6377C154.189 61.3731 155.044 60.5807 156.397 60.5807C157.749 60.5807 158.606 61.3731 158.606 62.6377C158.606 63.9023 157.751 64.6948 156.397 64.6948C155.044 64.6948 154.189 63.9011 154.189 62.6377ZM157.452 62.6377C157.452 61.9675 157.065 61.5677 156.397 61.5677C155.728 61.5677 155.342 61.9675 155.342 62.6377C155.342 63.3092 155.728 63.7078 156.391 63.7078C157.059 63.7078 157.452 63.308 157.452 62.6377Z" fill="black"/>
<path d="M159.857 60.704H162.11C163.136 60.704 163.639 61.1915 163.639 62.0955C163.639 62.7159 163.385 63.1383 162.888 63.3376L163.805 64.5856H162.491L161.779 63.5653H161.017V64.5856H159.857V60.704ZM161.96 62.6554C162.346 62.6554 162.484 62.4395 162.484 62.1453C162.484 61.8511 162.346 61.6412 161.96 61.6412H161.016V62.6554H161.96Z" fill="black"/>
<path d="M167.772 62.5665L169.308 64.5713V64.5832H168.008L166.827 63.0884H166.354V64.5832H165.173V60.704H166.354V62.1275H166.827L167.89 60.704H169.308L167.772 62.5665Z" fill="black"/>
<path d="M170.258 64.3224V63.2583H170.264C170.91 63.5857 171.54 63.7459 172.086 63.7459C172.5 63.7459 172.709 63.6462 172.709 63.4517C172.709 63.2571 172.571 63.2073 171.743 63.0744C170.838 62.9309 170.236 62.6581 170.236 61.8763C170.236 61.1503 170.871 60.5903 172.113 60.5903C172.61 60.5903 173.129 60.6959 173.61 60.9011V61.9546L173.604 61.9605C173.145 61.6948 172.527 61.5275 172.03 61.5275C171.588 61.5275 171.412 61.6331 171.412 61.8098C171.412 62.0376 171.683 62.059 172.362 62.1764C173.267 62.3318 173.869 62.5869 173.869 63.4078C173.869 64.0448 173.395 64.6831 172.031 64.6831C171.358 64.6831 170.822 64.5443 170.258 64.3224Z" fill="black"/>
</svg>
