<svg width="200" height="100" viewBox="0 0 200 100" fill="none" xmlns="http://www.w3.org/2000/svg">
<path d="M93.7286 41.6084H92.7887V51.1981C92.7458 51.2983 92.6551 51.3746 92.4643 51.3412C92.4643 51.3412 92.3402 51.3174 92.2543 51.222C91.1904 49.5807 87.1017 43.9557 85.7897 42.1618C85.7897 42.1523 85.7801 42.1475 85.7753 42.1428C85.7753 42.1428 85.7324 42.1046 85.7085 42.0855C85.699 42.0712 85.6895 42.0569 85.6751 42.0521C85.3412 41.7515 84.907 41.6036 84.325 41.6036H79.2391C78.5998 41.6036 78.1084 41.7849 77.7648 42.1428C77.4166 42.5054 77.2448 42.992 77.24 43.5931H77.2305V58.0922H83.1799C83.1799 58.0922 83.1465 50.4347 83.1322 48.1781C83.1561 48.0302 83.2658 47.8107 83.719 47.8679C83.719 47.8679 83.8956 47.8823 83.9671 48.0111C85.1169 49.8431 92.636 58.0922 92.636 58.0922H98.8145V41.6084H93.7286Z" fill="#27387D"/>
<path d="M145.621 42.4378C144.987 41.9321 144.009 41.6649 142.697 41.622H142.721L142.473 41.6172C142.42 41.6172 142.372 41.6172 142.315 41.6172H131.103H130.736C129.228 41.6172 128.069 41.9321 127.258 42.5666C126.447 43.2012 126.032 44.0552 126.013 45.1191V45.1573C126.013 45.1573 126.013 45.1859 126.013 45.2002V58.101H132.31V53.7927H142.492C145.254 53.7927 146.638 52.6859 146.638 50.4626V45.1716C146.638 43.9025 146.299 42.9912 145.626 42.4378H145.621ZM140.225 50.1716H132.215V45.8968H140.225V50.1716Z" fill="#27387D"/>
<path d="M121.827 42.5626C121.016 41.928 119.857 41.6132 118.349 41.6132H106.369C104.862 41.6132 103.702 41.928 102.891 42.5626C102.056 43.2162 101.646 44.0893 101.646 45.1914V58.0969H107.939V53.7028H116.756V58.0969H123.053V45.1914C123.053 44.075 122.648 43.1971 121.837 42.5626H121.827ZM116.751 50.6685H107.934V45.8975H116.751V50.6685Z" fill="#27387D"/>
<path d="M74.7793 45.7708V53.8099C74.7793 54.5017 74.6744 55.1124 74.4692 55.6419C74.2927 55.4988 74.1114 55.3604 73.9301 55.2269C72.5608 54.2345 70.8576 53.4139 68.8728 52.7841C68.8442 52.7746 68.8108 52.765 68.7822 52.7555V45.3795H60.0084V54.077H66.5923C66.7068 54.1582 66.8166 54.2393 66.9263 54.3204C67.537 54.7641 68.0999 55.203 68.5961 55.6228C69.4597 56.348 70.1467 57.0303 70.6429 57.6553C70.7478 57.7841 70.8433 57.9177 70.9339 58.0465C70.4568 58.1181 69.9368 58.1562 69.369 58.1562L58.787 58.161C55.1658 58.161 53.3624 56.7106 53.3624 53.8099V45.7708C53.3624 42.8509 55.1706 41.391 58.787 41.391H69.3547C69.3547 41.391 69.3929 41.391 69.412 41.391H69.9368V41.4053C73.162 41.558 74.7793 43.0084 74.7793 45.7708Z" fill="#27387D"/>
<path d="M76.5535 58.5946H71.6012C71.5058 58.3942 71.3913 58.1938 71.2529 57.9886C71.1384 57.8169 71.0096 57.6404 70.8713 57.4686C70.3131 56.7673 69.5736 56.0612 68.7816 55.398C68.2329 54.9352 67.6556 54.4915 67.0974 54.086C66.4438 53.6089 65.814 53.1795 65.2653 52.8264C64.7405 52.4829 64.2968 52.211 63.9867 52.0249C65.8331 52.2873 67.4171 52.6499 68.772 53.0793C70.9762 53.7759 72.5793 54.6346 73.7434 55.4791C73.9533 55.6318 74.1489 55.7844 74.335 55.9371C75.69 57.0583 76.3006 58.0888 76.544 58.6089L76.5535 58.5946Z" fill="#EC2727"/>
</svg>
