<svg width="200" height="100" viewBox="0 0 200 100" fill="none" xmlns="http://www.w3.org/2000/svg">
<path fill-rule="evenodd" clip-rule="evenodd" d="M66.0443 35.5266C73.9593 35.5266 77.9406 39.7632 77.9406 39.7632C77.9406 39.7632 78.395 42.8964 78.1051 49.2102C77.668 58.7437 66.0486 64.469 66.0486 64.4733C66.0486 64.4733 54.4293 58.748 53.9922 49.2102C53.7022 42.9007 54.1566 39.7632 54.1566 39.7632C54.1523 39.7632 58.1293 35.5266 66.0443 35.5266Z" fill="#ED2E26"/>
<path fill-rule="evenodd" clip-rule="evenodd" d="M92.8165 54.9298C90.0815 54.9298 87.8572 52.7055 87.8572 49.9705C87.8572 47.2355 90.0815 45.0112 92.8165 45.0112C95.5515 45.0112 97.7758 47.2355 97.7758 49.9705C97.7758 52.7055 95.5515 54.9298 92.8165 54.9298ZM92.8165 43.0118C88.978 43.0118 85.8535 46.1363 85.8535 49.9748C85.8535 52.2987 86.8315 54.3672 88.6794 55.9641C90.4104 57.4571 92.8901 58.487 95.7549 58.963C96.166 58.738 96.9406 57.9807 97.1873 57.4571C95.0754 57.0936 94.1104 56.7301 94.1104 56.7301C94.1104 56.7301 94.3787 56.7171 94.924 56.5656C97.7455 55.7737 99.8097 52.9911 99.7838 49.9748C99.7492 46.1363 96.6593 43.0118 92.8208 43.0118" fill="#262626"/>
<path fill-rule="evenodd" clip-rule="evenodd" d="M144.893 54.5981V54.9399H145.101C145.161 54.9399 145.209 54.9226 145.243 54.8923C145.278 54.862 145.295 54.8188 145.295 54.7668C145.295 54.6543 145.23 54.5937 145.101 54.5937H144.893V54.5981ZM145.503 54.7625C145.503 54.8491 145.481 54.9226 145.434 54.9875C145.386 55.0481 145.321 55.0914 145.243 55.1174L145.546 55.5934H145.313L145.036 55.1304H144.897V55.5934H144.698V54.4163H145.131C145.243 54.4163 145.334 54.4466 145.403 54.5115C145.473 54.5764 145.507 54.6587 145.507 54.7668L145.503 54.7625ZM144.443 55.6626C144.599 55.8228 144.802 55.9007 145.049 55.9007C145.295 55.9007 145.499 55.8228 145.654 55.6626C145.81 55.5025 145.888 55.2948 145.888 55.0395C145.888 54.7842 145.81 54.5764 145.654 54.4163C145.499 54.2562 145.295 54.1783 145.049 54.1783C144.802 54.1783 144.599 54.2562 144.443 54.4163C144.287 54.5764 144.209 54.7798 144.209 55.0395C144.209 55.2991 144.287 55.5025 144.443 55.6626ZM144.291 54.2692C144.49 54.0701 144.741 53.9706 145.049 53.9706C145.356 53.9706 145.607 54.0701 145.806 54.2692C146.005 54.4682 146.105 54.7236 146.105 55.0395C146.105 55.3554 146.005 55.615 145.806 55.8141C145.607 56.0132 145.356 56.1127 145.049 56.1127C144.741 56.1127 144.486 56.0132 144.291 55.8141C144.092 55.615 143.993 55.3597 143.993 55.0395C143.993 54.7192 144.092 54.4682 144.291 54.2692Z" fill="#262626"/>
<path fill-rule="evenodd" clip-rule="evenodd" d="M131.313 53.1732L128.963 46.933H126.869L130.301 55.6399L128.782 59.2491C129.781 59.2491 130.872 59.1798 131.3 58.1282C132.304 55.6616 135.792 46.933 135.792 46.933H133.698L131.313 53.1732ZM123.454 56.2847C123.454 56.2847 125.398 56.2501 125.398 54.9302V43.0771H123.454V56.2847ZM116.509 54.4628C115.332 54.4628 113.575 53.6796 113.549 51.5158V51.4985C113.549 49.7934 114.808 48.5038 116.479 48.5038C117.725 48.5038 118.737 49.153 119.192 50.2522C119.369 50.6243 119.456 51.0571 119.439 51.5115C119.421 51.9702 119.322 52.4073 119.14 52.7838C118.681 53.8353 117.699 54.4628 116.509 54.4628ZM119.421 48.162C118.88 47.4047 117.82 46.6733 116.266 46.6733C113.609 46.6733 111.606 48.7419 111.606 51.4812C111.606 52.7621 112.043 53.9522 112.839 54.835C113.7 55.787 114.886 56.2934 116.266 56.2934C117.647 56.2934 118.755 55.7481 119.421 54.809V56.2847C119.421 56.2847 121.364 56.2544 121.364 54.9302V46.933H119.421V48.162ZM108.062 52.0048C108.062 53.5757 107.248 54.4498 105.768 54.4628C104.266 54.4628 103.539 53.6103 103.539 51.8577V46.933H101.596V52.2471C101.596 53.0131 101.726 54.108 102.341 54.9648C102.968 55.839 103.963 56.2847 105.296 56.2934C105.314 56.2934 105.331 56.2934 105.353 56.2934C106.945 56.2934 107.767 55.5707 108.165 55.0081V56.2847C108.165 56.2847 110.013 56.2544 110.013 54.9951V46.933H108.07V52.0005L108.062 52.0048ZM140.457 50.6287C139.445 50.1916 138.713 49.8151 138.726 49.2265C138.735 48.8371 139.246 48.4692 139.778 48.4865C140.345 48.5082 140.769 48.8977 141.003 49.2136C141.003 49.2136 142.067 48.3048 142.193 48.2096C141.643 47.2965 140.708 46.7858 139.657 46.7642C138.159 46.7296 136.917 47.9023 136.887 49.378C136.857 50.6546 137.605 51.1826 138.588 51.7408L140.202 52.6496C140.574 52.9093 140.752 53.104 140.743 53.5065C140.73 54.1339 140.202 54.5407 139.523 54.584C139.021 54.6143 138.609 54.3244 138.22 53.9176C137.463 53.1256 136.299 53.5065 135.944 53.619C136.684 55.3197 138.086 56.3107 139.484 56.3453C141.245 56.3842 142.656 55.0817 142.69 53.3853C142.708 52.5674 142.348 51.5504 140.453 50.6373" fill="#262626"/>
<path fill-rule="evenodd" clip-rule="evenodd" d="M60.106 48.0579C60.106 44.6868 62.7717 41.9431 66.0477 41.9431C69.3236 41.9431 71.9937 44.6089 71.9937 47.8891C71.9937 50.5073 69.7433 52.6581 68.008 53.7659C68.6788 54.1511 70.1674 54.5535 71.5869 54.6833C73.6641 53.0778 74.9277 50.5938 74.9277 47.8891C74.9277 42.9904 70.9421 39.0048 66.0433 39.0048C61.1446 39.0048 57.1633 42.9947 57.1633 47.8891C57.1633 50.8492 58.3966 53.476 60.7248 55.4883C62.9015 57.3707 66.0909 58.6257 69.7174 59.2229C70.505 58.7901 71.8465 57.5049 72.3528 56.7562C69.3236 56.3667 66.4544 55.6267 64.533 54.6184C61.5946 53.0778 60.106 50.8708 60.106 48.0579Z" fill="white"/>
</svg>
