<svg width="200" height="100" viewBox="0 0 200 100" fill="none" xmlns="http://www.w3.org/2000/svg">
<path d="M39.5059 42.8584H44.8769C48.195 42.8584 49.9584 44.7093 49.9584 47.4486C49.9584 49.414 48.9219 50.5649 47.2191 51.2581L50.4834 57.2079H47.5691L44.3384 51.2581H42.0837V57.2079H39.4857L39.5126 42.8584H39.5059ZM44.5 49.0303C46.4047 49.0303 47.2729 48.4851 47.2729 47.0381C47.2729 45.766 46.4047 45.0458 44.4461 45.0458H42.05V49.0909L44.5067 49.0303H44.5ZM61.36 51.635C61.36 48.3707 63.3522 46.0621 66.4954 46.0621C69.1203 46.0621 70.9443 47.5631 71.1462 49.9322H68.6895C68.5482 48.862 67.6194 48.0813 66.5559 48.115C64.9945 48.115 63.958 49.4409 63.958 51.5812C63.958 53.7215 64.9945 55.1013 66.5559 55.1013C67.6261 55.1618 68.5482 54.3811 68.6895 53.284H71.1462C70.9443 55.5926 69.2414 57.181 66.5559 57.181C63.2647 57.2079 61.36 54.8993 61.36 51.635ZM71.7519 51.635C71.7519 48.3169 73.7442 46.0621 76.921 46.0621C80.0978 46.0621 82.09 48.3169 82.09 51.635C82.09 54.9532 80.0978 57.2079 76.921 57.2079C73.7442 57.2079 71.7519 54.9532 71.7519 51.635ZM79.4584 51.635C79.4584 49.6697 78.5902 48.0813 76.8604 48.0813C75.1307 48.0813 74.2624 49.6428 74.2624 51.635C74.2624 53.6273 75.097 55.1551 76.8604 55.1551C78.6238 55.1551 79.4584 53.6542 79.4584 51.635ZM82.7833 46.4054H85.2399V48.2226H85.3274C85.6707 47.0381 86.7408 46.2304 87.9523 46.2573C88.2418 46.2573 88.5312 46.3179 88.8744 46.3179V48.6534C88.4706 48.5659 88.0937 48.5121 87.6899 48.5121C86.4178 48.4246 85.3544 49.3803 85.2332 50.6456V57.2012H82.6958L82.7833 46.4054ZM89.1302 51.8369C89.1302 48.2294 91.0955 46.3246 93.5791 46.3246C94.905 46.2641 96.1165 47.0179 96.6684 48.2294H96.7559V42.8584H99.2933V57.2079H96.8097V55.5051H96.6684C96.2646 56.2858 95.4569 57.2079 93.5791 57.2079C91.0955 57.2079 89.1302 55.3907 89.1302 51.8369ZM96.8367 51.8369C96.8367 49.7303 95.9684 48.4313 94.2992 48.4313C92.6301 48.4313 91.7618 49.8447 91.7618 51.8369C91.7618 53.8292 92.6301 55.357 94.2992 55.357C95.9684 55.357 96.8367 53.9436 96.8367 51.8369ZM111.301 51.8369C111.301 48.2294 113.266 46.3246 115.749 46.3246C117.075 46.2641 118.287 47.0179 118.839 48.2294H118.926V42.8584H121.464V57.2079H118.98V55.5051H118.839C118.435 56.2858 117.627 57.2079 115.749 57.2079C113.212 57.2079 111.301 55.3907 111.301 51.8369ZM118.98 51.8369C118.98 49.7303 118.112 48.4313 116.443 48.4313C114.774 48.4313 113.905 49.8447 113.905 51.8369C113.905 53.8292 114.774 55.357 116.443 55.357C118.112 55.357 118.98 53.9436 118.98 51.8369ZM127.239 42.8584H136.48V45.0526H129.897V49.064H135.847V51.2581H129.843V57.2079H127.245V42.8584H127.239ZM143.87 46.4054H146.407V57.1473H143.95V55.2426H143.863C143.372 56.4541 142.248 57.1473 140.632 57.1473C138.526 57.1473 137.025 55.8214 137.025 53.2504V46.4054H139.562V52.8465C139.562 54.2061 140.397 55.1013 141.615 55.1013C142.833 55.1013 143.924 54.0648 143.924 52.7927V52.6513L143.863 46.4189L143.87 46.4054ZM153.393 48.4246H151.26V53.9975C151.26 55.034 151.751 55.2695 152.444 55.2695C152.673 55.2695 152.936 55.209 153.165 55.182L153.595 57.1743C153.104 57.3156 152.613 57.4031 152.094 57.4031C150.19 57.4637 148.716 56.481 148.716 54.4282V48.4246H147.215V46.4592H148.716V43.8613H151.253V46.4592H153.387V48.4246H153.393ZM161.423 46.4054H163.96V57.1473H161.504V55.2426H161.362C160.871 56.4541 159.747 57.1473 158.132 57.1473C156.025 57.1473 154.578 55.8214 154.578 53.2504V46.4054H157.115V52.8465C157.115 54.2061 157.95 55.1013 159.168 55.1013C160.386 55.1013 161.477 54.0648 161.477 52.7927V52.6513L161.416 46.4189L161.423 46.4054ZM165.549 46.4054H168.005V48.2226H168.093C168.436 47.0381 169.506 46.2304 170.718 46.2573C171.007 46.2573 171.351 46.3179 171.64 46.3179V48.6534C171.236 48.5659 170.859 48.5121 170.455 48.5121C169.183 48.4246 168.12 49.3803 167.999 50.6456V57.2012H165.461L165.549 46.4054ZM181.83 45.0526C181.83 43.7266 182.9 42.6565 184.226 42.6565C185.552 42.6565 186.622 43.7266 186.622 45.0526C186.622 46.3785 185.552 47.4486 184.226 47.4486C182.84 47.4486 181.83 46.3516 181.83 45.0526ZM186.131 45.0526C186.131 43.9824 185.263 43.0872 184.165 43.0872C183.068 43.0872 182.2 43.9555 182.2 45.0526C182.2 46.1496 183.068 47.0179 184.165 47.0179C185.236 46.991 186.131 46.1227 186.131 45.0526ZM183.391 43.9218H184.462C184.865 43.9218 185.155 44.2112 185.155 44.6151C185.155 44.8439 185.014 45.1602 184.751 45.2477L185.242 46.116H184.812L184.408 45.3352H183.829V46.116H183.425L183.398 43.9218H183.391ZM184.314 44.992C184.515 44.992 184.717 44.7901 184.717 44.5882V44.5276C184.717 44.3257 184.576 44.1237 184.374 44.1237H183.768V44.9045H184.314V44.992ZM171.727 51.8908C171.727 48.5726 173.72 46.3179 176.809 46.3179C179.434 46.3179 181.742 47.9938 181.742 51.7427V52.5235H174.204C174.204 54.3744 175.328 55.2628 176.944 55.2628C178.014 55.2628 178.909 55.034 179.252 54.0782H181.736C181.305 55.9291 179.629 57.255 176.944 57.255C173.713 57.1945 171.721 55.2359 171.721 51.8841L171.727 51.8908ZM179.293 50.7937C179.353 49.4678 178.37 48.3371 177.038 48.2563H176.836C175.422 48.2563 174.238 49.3803 174.238 50.7937H179.293ZM100.417 51.8908C100.417 48.5726 102.41 46.3179 105.499 46.3179C108.124 46.3179 110.432 47.9938 110.432 51.7427V52.5235H102.894C102.894 54.3744 104.018 55.2628 105.633 55.2628C106.704 55.2628 107.599 55.034 107.942 54.0782H110.426C109.995 55.9291 108.319 57.255 105.633 57.255C102.403 57.1945 100.411 55.2359 100.411 51.8841L100.417 51.8908ZM107.982 50.7937C108.043 49.4678 107.06 48.3371 105.728 48.2563H105.526C104.112 48.2563 102.928 49.3803 102.928 50.7937H107.982ZM50.5911 51.8908C50.5911 48.5726 52.5833 46.3179 55.6727 46.3179C58.2976 46.3179 60.6061 47.9938 60.6061 51.7427V52.5235H53.1285C53.1285 54.3744 54.2525 55.2628 55.8678 55.2628C56.938 55.2628 57.8332 55.034 58.1764 54.0782H60.66C60.2292 55.9291 58.5533 57.255 55.8678 57.255C52.6035 57.1945 50.5844 55.2359 50.5844 51.8841L50.5911 51.8908ZM58.2101 50.7937C58.2706 49.4678 57.288 48.3371 55.9553 48.2563H55.7534C54.34 48.2563 53.1554 49.3803 53.1554 50.7937H58.2101ZM24.6381 48.5121C23.7699 48.5121 23.0228 49.2322 23.0228 50.1274C23.0228 51.0226 23.743 51.7427 24.6381 51.7427C25.5333 51.7427 26.2534 51.0226 26.2534 50.1274C26.2265 49.2322 25.4996 48.5121 24.6381 48.5121ZM34.1349 48.5121C33.2667 48.5121 32.5196 49.2322 32.5196 50.1274C32.5196 51.0226 33.2397 51.7427 34.1349 51.7427C35.0301 51.7427 35.7502 51.0226 35.7502 50.1274C35.7502 49.2322 35.0301 48.5121 34.1349 48.5121ZM14.9932 48.5121C14.125 48.5121 13.3779 49.2322 13.3779 50.1274C13.3779 51.0226 14.0981 51.7427 14.9932 51.7427C15.8884 51.7427 16.6086 51.0226 16.6086 50.1274C16.6086 49.2322 15.8884 48.5121 14.9932 48.5121ZM23.2516 59.1665V54.4349C23.2516 53.7148 23.8304 53.109 24.5775 53.109C25.3246 53.109 25.9035 53.6878 25.9035 54.4349V59.1665C25.9035 59.8867 25.3246 60.4924 24.5775 60.4924C23.8237 60.5194 23.2516 59.9473 23.2516 59.1665ZM28.0438 56.7704V43.4911C27.9832 42.7709 28.5889 42.1315 29.3158 42.0777C30.0427 42.0238 30.6754 42.6228 30.7293 43.3497V43.4911V56.7166V56.7772C30.6687 57.4973 30.036 58.0492 29.3158 58.0492C28.6226 57.9887 28.1043 57.4435 28.0438 56.7772V56.7704ZM18.4595 56.7704V43.4911C18.4595 42.7709 19.0383 42.1652 19.7854 42.1652C20.5325 42.1652 21.1113 42.744 21.1113 43.4911V56.7166V56.7772C21.1113 57.4973 20.5325 58.1031 19.7854 58.1031C19.0652 58.0762 18.4595 57.4973 18.4595 56.7772V56.7704ZM23.2516 45.5708V40.8325C23.2516 40.1123 23.8304 39.5066 24.5775 39.5066C25.3246 39.5066 25.9035 40.0854 25.9035 40.8325V45.5641V45.6247C25.9035 46.3448 25.3246 46.9506 24.5775 46.9506C23.8304 46.9506 23.2516 46.3448 23.2516 45.5641V45.5708Z" fill="#222222"/>
</svg>
