<svg width="200" height="100" viewBox="0 0 200 100" fill="none" xmlns="http://www.w3.org/2000/svg">
<path d="M108.558 57.035C108.558 60.6862 106.819 62.5146 103.329 62.5146C99.8385 62.5146 98.2491 60.7307 98.2491 57.1684V50.155H101.067V57.2073C101.067 59.169 101.856 60.1583 103.434 60.1583C105.012 60.1583 105.757 59.2079 105.757 57.3129V50.1606H108.569V57.0517V57.0406L108.558 57.035Z" fill="black"/>
<path d="M119.711 61.869C118.805 62.3025 117.61 62.5137 116.149 62.5137C114.231 62.5137 112.731 61.9635 111.636 60.8687C110.541 59.7739 109.991 58.3123 109.991 56.4839C109.991 54.5389 110.608 52.9661 111.836 51.7546C113.064 50.5431 114.665 49.9374 116.626 49.9374C117.844 49.9374 118.866 50.0874 119.7 50.3875V53.0273C118.866 52.5382 117.916 52.2993 116.849 52.2993C115.676 52.2993 114.731 52.6549 114.015 53.3718C113.298 54.0887 112.936 55.0668 112.936 56.2894C112.936 57.512 113.275 58.4012 113.953 59.1014C114.631 59.8017 115.548 60.1518 116.688 60.1518C117.827 60.1518 118.788 59.8906 119.694 59.3738V61.8746H119.705L119.711 61.869Z" fill="black"/>
<path d="M144.125 57.0353C144.125 60.6864 142.386 62.5148 138.896 62.5148C135.406 62.5148 133.816 60.7309 133.816 57.1686V50.1553H136.634V57.2075C136.634 59.1693 137.423 60.1585 139.001 60.1585C140.58 60.1585 141.324 59.2082 141.324 57.3131V50.1608H144.136V57.0519V57.0408L144.125 57.0353Z" fill="black"/>
<path d="M145.713 61.8301V59.1181C146.219 59.5294 146.763 59.8406 147.358 60.0462C147.953 60.2518 148.542 60.3574 149.147 60.3574C149.498 60.3574 149.809 60.3241 150.075 60.2629C150.342 60.2018 150.559 60.1129 150.737 60.0017C150.915 59.8906 151.048 59.7628 151.131 59.6127C151.215 59.4627 151.259 59.296 151.259 59.1237C151.259 58.8903 151.193 58.6735 151.048 58.4901C150.904 58.3067 150.72 58.1345 150.481 57.9733C150.242 57.8121 149.959 57.6621 149.625 57.5176C149.297 57.3676 148.942 57.2231 148.558 57.0675C147.58 56.6729 146.858 56.1894 146.38 55.617C145.902 55.0501 145.663 54.3555 145.663 53.5497C145.663 52.9217 145.791 52.3715 146.052 51.9214C146.313 51.4656 146.669 51.0933 147.113 50.7988C147.564 50.5042 148.08 50.2875 148.675 50.1486C149.27 50.0152 149.892 49.9374 150.553 49.9374C151.215 49.9374 151.776 49.9763 152.276 50.0541C152.776 50.1263 153.238 50.243 153.666 50.4042V52.9383C153.454 52.7939 153.227 52.6716 152.988 52.566C152.743 52.4604 152.487 52.3659 152.226 52.2993C151.965 52.2326 151.709 52.177 151.448 52.1436C151.187 52.1103 150.948 52.0936 150.715 52.0936C150.392 52.0936 150.103 52.127 149.842 52.1825C149.581 52.2437 149.359 52.327 149.181 52.4382C149.003 52.5438 148.858 52.6716 148.758 52.8216C148.658 52.9717 148.608 53.1384 148.608 53.3274C148.608 53.533 148.664 53.7108 148.775 53.8775C148.886 54.0387 149.042 54.1943 149.242 54.3332C149.448 54.4777 149.692 54.6167 149.981 54.7612C150.27 54.8945 150.598 55.0446 150.965 55.1891C151.465 55.3947 151.909 55.6114 152.304 55.8393C152.699 56.0671 153.038 56.3283 153.321 56.6173C153.604 56.9063 153.821 57.2342 153.977 57.6065C154.127 57.9789 154.205 58.4068 154.205 58.8958C154.205 59.5738 154.077 60.1407 153.81 60.6075C153.543 61.0743 153.188 61.4411 152.737 61.7245C152.287 62.0079 151.759 62.2136 151.165 62.3414C150.57 62.4692 149.931 62.5248 149.264 62.5248C148.597 62.5248 147.93 62.4692 147.313 62.3581C146.697 62.2469 146.158 62.0746 145.707 61.8523V61.8412L145.713 61.8301Z" fill="black"/>
<path d="M124.486 62.3024H121.674V50.1484H124.486V62.3024Z" fill="black"/>
<path d="M125.584 57.0196L129.93 62.3046H133.476L128.04 55.9415L132.392 50.1451H129.041L125.601 55.2134L125.584 57.0196Z" fill="black"/>
<path d="M94.1874 57.5686C94.5264 57.4074 94.8432 57.2129 95.121 56.974C96.0213 56.2182 96.4715 55.2345 96.4715 54.0119C96.4715 51.4277 94.9043 50.1384 91.7588 50.1384H85.957V62.2923H88.769V52.2391H91.2754C92.7703 52.2391 93.515 52.8615 93.515 54.1119C93.515 55.3623 92.7703 56.0292 91.2754 56.0292V56.0403H89.6859L94.6764 62.2923H98.222L94.1818 57.563V57.5742L94.1874 57.5686Z" fill="black"/>
<path d="M82.9465 39.4304L82.1796 38.4634L78.0282 40.2362L76.2776 39.0525L73.4712 39.6582L70.398 41.0309L69.6033 42.8037L71.0815 44.5431L72.2097 44.8766L75.194 41.7756L72.5542 46.0825L70.5202 45.4267L70.0534 44.7487L66.6468 48.9723L56.0378 51.7621C55.6654 51.7621 55.1264 51.7732 55.1264 51.7732C45.2954 47.5608 50.9473 41.9145 51.0028 41.8534C50.9361 41.8923 42.9391 45.9269 51.9809 53.3737L50.2859 55.2966L49.0855 60.7261L46.0457 63.1436L42.7168 70.3737H45.879L46.3958 69.1511L45.1732 68.851L47.1683 65.3776C48.2075 64.8219 51.9254 63.327 52.6534 62.8212L57.5938 56.6137L63.1234 58.3531L63.9014 54.9187L64.1737 55.4911L64.6017 60.3871L62.2676 70.8572H65.5742V69.7901L64.3405 69.2733L68.3584 60.2482C68.3584 60.2482 74.4715 56.358 74.466 56.3191C74.4493 56.2191 77.428 47.0384 77.428 47.0384L81.1237 46.7216L82.2018 45.2322L77.8226 45.2433L82.902 41.5032L82.952 39.4581V39.4359L82.9465 39.4304Z" fill="black"/>
<path d="M69.3591 60.8029L73.3826 58.2521L69.0312 68.3831L70.2761 68.861V69.8725L67.364 69.878L69.3591 60.8029Z" fill="black"/>
<path d="M59.2176 63.0879L54.6217 65.422L52.9267 68.4118L54.2104 68.7675L53.6936 69.8679H50.8593L53.0656 64.0049C53.2768 63.8771 55.6109 61.7931 55.6109 61.7931L55.8109 60.4704L57.9616 57.7695L61.1571 58.781L59.2232 63.0768L59.2176 63.0879Z" fill="black"/>
<path d="M76.6293 51.1564L67.4097 47.6886L68.3322 46.5382L77.0183 49.6614L76.6293 51.1564Z" fill="#F47920"/>
<path d="M157.284 50.902C157.284 51.6078 156.717 52.158 155.983 52.158C155.25 52.158 154.672 51.6078 154.672 50.902C154.672 50.1962 155.25 49.6627 155.983 49.6627C156.717 49.6627 157.284 50.2129 157.284 50.902ZM154.999 50.902C154.999 51.4522 155.422 51.8912 155.994 51.8912C156.567 51.8912 156.961 51.4522 156.961 50.9076C156.961 50.3629 156.55 49.9072 155.983 49.9072C155.416 49.9072 154.999 50.3518 154.999 50.8965H154.994L154.999 50.902ZM155.783 51.5522H155.489V50.3129C155.605 50.2907 155.766 50.274 155.978 50.274C156.217 50.274 156.328 50.3129 156.422 50.3685C156.489 50.4241 156.544 50.5241 156.544 50.6408C156.544 50.7742 156.433 50.8798 156.278 50.9298V50.9409C156.4 50.9854 156.467 51.0743 156.511 51.241C156.55 51.43 156.572 51.5078 156.606 51.5522H156.289C156.25 51.5078 156.228 51.3911 156.189 51.2521C156.166 51.1187 156.089 51.0521 155.922 51.0521H155.777V51.5522H155.783ZM155.789 50.8464H155.933C156.094 50.8464 156.228 50.7909 156.228 50.6686C156.228 50.5575 156.139 50.4797 155.955 50.4797C155.878 50.4797 155.828 50.4852 155.794 50.4908V50.8464H155.789Z" fill="#231F20"/>
<path d="M86.0091 39.324V45.2259H88.8322V37.2955L86.0091 39.324Z" fill="#F47920"/>
<path d="M92.0494 34.9764V45.2241H94.8725V32.9424L92.0494 34.9764Z" fill="#F47920"/>
<path d="M98.2429 30.521V45.2258H101.066V28.4871L98.2429 30.521Z" fill="#F47920"/>
<path d="M89.2198 71.2627C88.8864 71.4238 88.4473 71.5016 87.9083 71.5016C87.2025 71.5016 86.6523 71.296 86.2466 70.8848C85.841 70.4735 85.6409 69.9234 85.6409 69.2287C85.6409 68.4951 85.8687 67.9005 86.3189 67.4448C86.769 66.9891 87.3581 66.7612 88.0861 66.7612C88.5307 66.7612 88.9142 66.8168 89.2143 66.9279V67.9227C88.903 67.7393 88.5585 67.6448 88.1639 67.6448C87.7304 67.6448 87.3859 67.7782 87.1191 68.0505C86.8524 68.3228 86.7246 68.6841 86.7246 69.1509C86.7246 69.6177 86.8468 69.9456 87.1025 70.2123C87.3581 70.4791 87.6915 70.6069 88.1083 70.6069C88.5251 70.6069 88.8808 70.5069 89.2143 70.3124V71.2571L89.2198 71.2627Z" fill="#F47920"/>
<path d="M92.5945 71.5131C91.9387 71.5131 91.4052 71.2964 90.9884 70.8685C90.5716 70.4406 90.3715 69.8848 90.3715 69.1957C90.3715 68.5066 90.5827 67.8842 90.9995 67.434C91.4163 66.9839 91.9776 66.7616 92.6667 66.7616C93.3225 66.7616 93.8504 66.9783 94.2561 67.4062C94.6618 67.8342 94.8619 68.401 94.8619 69.1012C94.8619 69.8015 94.6507 70.4017 94.2339 70.8407C93.8171 71.2797 93.2725 71.502 92.5945 71.502V71.5131ZM92.6389 67.6563C92.2721 67.6563 91.9887 67.7897 91.772 68.062C91.5552 68.3343 91.4496 68.69 91.4496 69.1401C91.4496 69.5903 91.5552 69.9571 91.772 70.2127C91.9887 70.4683 92.2666 70.6073 92.6111 70.6073C92.9557 70.6073 93.2447 70.4795 93.4558 70.2238C93.667 69.9682 93.7726 69.6125 93.7726 69.1568C93.7726 68.7011 93.6726 68.3121 93.4725 68.0453C93.2725 67.7786 92.989 67.6508 92.6389 67.6508V67.6563Z" fill="#F47920"/>
<path d="M101.574 71.429H100.557V68.6892C100.557 68.3947 100.568 68.0668 100.596 67.7056H100.574C100.518 67.989 100.473 68.1891 100.429 68.3113L99.3565 71.429H98.5118L97.417 68.3391C97.3836 68.2613 97.3392 68.0446 97.2725 67.6945H97.2391C97.2725 68.1446 97.2836 68.5392 97.2836 68.8837V71.4234H96.3499V66.8386H97.8615L98.8007 69.5562C98.873 69.7729 98.9286 69.9952 98.9619 70.2119H98.9786C99.0341 69.9563 99.0953 69.734 99.162 69.5506L100.101 66.8386H101.579V71.4234H101.574V71.429Z" fill="#F47920"/>
<path d="M108.559 71.429H107.542V68.6892C107.542 68.3947 107.553 68.0668 107.581 67.7056H107.559C107.503 67.989 107.459 68.1891 107.414 68.3113L106.342 71.429H105.497L104.402 68.3391C104.369 68.2613 104.324 68.0446 104.258 67.6945H104.224C104.258 68.1446 104.269 68.5392 104.269 68.8837V71.4234H103.335V66.8386H104.847L105.786 69.5562C105.858 69.7729 105.914 69.9952 105.947 70.2119H105.964C106.019 69.9563 106.08 69.734 106.147 69.5506L107.086 66.8386H108.565V71.4234H108.559V71.429Z" fill="#F47920"/>
<path d="M110.116 71.2513V70.2288C110.299 70.3844 110.505 70.5011 110.722 70.5789C110.938 70.6567 111.161 70.6956 111.383 70.6956C111.511 70.6956 111.622 70.6845 111.722 70.6567C111.822 70.6289 111.9 70.6011 111.961 70.5567C112.027 70.5122 112.072 70.4622 112.111 70.4066C112.15 70.351 112.161 70.2899 112.161 70.2232C112.161 70.1343 112.139 70.0565 112.089 69.9843C112.039 69.912 111.966 69.8509 111.877 69.7842C111.789 69.7175 111.688 69.6675 111.561 69.6119C111.433 69.5563 111.305 69.5008 111.166 69.4452C110.81 69.2951 110.544 69.1118 110.366 68.895C110.188 68.6783 110.099 68.4171 110.099 68.117C110.099 67.878 110.149 67.6724 110.244 67.5001C110.338 67.3278 110.471 67.1834 110.633 67.0722C110.799 66.9611 110.988 66.8833 111.205 66.8277C111.422 66.7721 111.65 66.7499 111.894 66.7499C112.139 66.7499 112.344 66.761 112.528 66.7943C112.711 66.8277 112.878 66.8666 113.039 66.9222V67.878C112.967 67.8224 112.878 67.778 112.783 67.7335C112.689 67.6891 112.6 67.6613 112.505 67.6335C112.411 67.6057 112.316 67.5835 112.222 67.5724C112.128 67.5613 112.039 67.5557 111.95 67.5557C111.833 67.5557 111.727 67.5668 111.627 67.589C111.527 67.6113 111.45 67.6446 111.388 67.6835C111.327 67.7224 111.272 67.7724 111.233 67.8336C111.194 67.8947 111.177 67.9503 111.177 68.0225C111.177 68.0948 111.194 68.1726 111.238 68.2281C111.283 68.2837 111.338 68.3448 111.411 68.4004C111.483 68.456 111.577 68.506 111.683 68.5616C111.789 68.6171 111.911 68.6672 112.05 68.7227C112.233 68.795 112.394 68.8839 112.544 68.9673C112.694 69.0506 112.817 69.1507 112.922 69.2562C113.028 69.3618 113.106 69.4897 113.161 69.6286C113.217 69.7675 113.239 69.9287 113.239 70.1176C113.239 70.3733 113.189 70.5844 113.089 70.7623C112.989 70.9401 112.861 71.0791 112.694 71.1846C112.528 71.2902 112.339 71.368 112.116 71.4181C111.894 71.4681 111.666 71.4847 111.416 71.4847C111.166 71.4847 110.922 71.4681 110.699 71.4236C110.471 71.3791 110.271 71.318 110.105 71.2347V71.2569L110.116 71.2513Z" fill="#F47920"/>
<path d="M118.001 71.263C117.668 71.4242 117.229 71.502 116.69 71.502C115.984 71.502 115.434 71.2964 115.028 70.8851C114.622 70.4739 114.422 69.9237 114.422 69.2291C114.422 68.4955 114.65 67.9009 115.1 67.4451C115.55 66.9894 116.139 66.7616 116.867 66.7616C117.312 66.7616 117.695 66.8172 117.995 66.9283V67.9231C117.684 67.7397 117.34 67.6452 116.945 67.6452C116.512 67.6452 116.167 67.7786 115.9 68.0509C115.634 68.3232 115.506 68.6844 115.506 69.1513C115.506 69.6181 115.628 69.946 115.884 70.2127C116.139 70.4795 116.473 70.6073 116.89 70.6073C117.306 70.6073 117.662 70.5072 117.995 70.3127V71.2575L118.001 71.263Z" fill="#F47920"/>
<path d="M121.379 71.5131C120.723 71.5131 120.189 71.2964 119.773 70.8685C119.356 70.4406 119.156 69.8848 119.156 69.1957C119.156 68.5066 119.367 67.8842 119.784 67.434C120.201 66.9839 120.762 66.7616 121.451 66.7616C122.107 66.7616 122.635 66.9783 123.04 67.4062C123.441 67.8342 123.646 68.401 123.646 69.1012C123.646 69.8015 123.435 70.4017 123.018 70.8407C122.596 71.2797 122.057 71.502 121.379 71.502V71.5131ZM121.423 67.6563C121.056 67.6563 120.773 67.7897 120.556 68.062C120.34 68.3343 120.234 68.69 120.234 69.1401C120.234 69.5903 120.34 69.9571 120.556 70.2127C120.773 70.4683 121.051 70.6073 121.395 70.6073C121.74 70.6073 122.029 70.4795 122.24 70.2238C122.451 69.9682 122.557 69.6125 122.557 69.1568C122.557 68.7011 122.457 68.3121 122.257 68.0453C122.057 67.7786 121.773 67.6508 121.423 67.6508V67.6563Z" fill="#F47920"/>
<path d="M126.162 69.8496V71.4334H125.128V66.8486H126.745C127.901 66.8486 128.479 67.3377 128.479 68.3102C128.479 68.7715 128.313 69.1438 127.985 69.4272C127.651 69.7107 127.212 69.8552 126.656 69.8552H126.156L126.162 69.8496ZM126.162 67.6378V69.066H126.568C127.118 69.066 127.396 68.827 127.396 68.3436C127.396 67.8601 127.118 67.6378 126.568 67.6378H126.162Z" fill="#F47920"/>
<path d="M132.622 71.4284H129.872V66.8436H132.517V67.6828H130.905V68.6998H132.406V69.5389H130.905V70.5893H132.622V71.4284Z" fill="#F47920"/>
</svg>
