<svg width="200" height="100" viewBox="0 0 200 100" fill="none" xmlns="http://www.w3.org/2000/svg">
<path d="M33.1338 49.273C32.2729 48.894 31.3671 48.6242 30.4935 48.2773C29.6647 47.9432 28.8168 47.6413 28.0523 47.1916C27.0437 46.6006 26.7225 45.5727 27.0951 44.5448C27.3713 43.7932 27.9174 43.2986 28.6433 43.003C30.3521 42.3092 32.4849 42.8746 33.6284 44.3264C33.7376 44.4613 33.8404 44.5962 33.9561 44.7568C34.7334 44.1787 35.485 43.6198 36.2687 43.0287C35.9925 42.7397 35.7741 42.4891 35.5364 42.2578C33.031 39.8231 28.669 39.5083 25.958 41.5512C23.3049 43.5491 23.2342 47.8533 26.4334 49.5492C27.3585 50.0375 28.3671 50.3715 29.3435 50.7698C30.3714 51.1938 31.4314 51.5536 32.4335 52.0418C33.0952 52.363 33.5385 52.9476 33.6349 53.7313C33.8083 55.1896 32.8961 56.5323 31.3864 56.9177C29.6262 57.3674 28.0587 56.9241 26.7482 55.6714C26.337 55.2795 25.9966 54.8106 25.6111 54.3609C24.7953 54.984 23.9794 55.62 23.1571 56.2496V56.346C23.2406 56.4423 23.3241 56.5387 23.4076 56.635C25.7653 59.3589 28.7268 60.2968 32.2023 59.4938C34.6499 58.9285 36.3715 56.847 36.5707 54.4316C36.757 52.1125 35.6199 50.3779 33.1466 49.2794L33.1338 49.273Z" fill="black"/>
<path d="M123.614 46.2207C123.293 46.2142 123.138 46.3106 123.036 46.6318C122.49 48.347 121.911 50.0559 121.34 51.7647C120.89 53.1137 120.434 54.4628 119.946 55.9211C119.843 55.6513 119.772 55.4907 119.714 55.3301C118.654 52.4199 117.594 49.5162 116.547 46.5997C116.444 46.3106 116.303 46.195 116.001 46.2142C115.507 46.2399 115.005 46.2464 114.517 46.2142C114.106 46.1821 113.939 46.362 113.811 46.7282C112.751 49.6383 111.671 52.542 110.599 55.4457C110.554 55.5678 110.496 55.6834 110.399 55.9018C110.239 55.42 110.117 55.041 109.995 54.6684C109.134 51.9959 108.279 49.3171 107.412 46.6511C107.361 46.4969 107.213 46.2592 107.097 46.2592C106.23 46.2271 105.356 46.2399 104.431 46.2399C104.965 47.8524 105.472 49.3813 105.98 50.9038C106.911 53.7048 107.843 56.5057 108.755 59.313C108.877 59.6856 109.037 59.8141 109.423 59.7948C110.014 59.7627 110.605 59.7691 111.196 59.7948C111.53 59.8077 111.723 59.7177 111.826 59.3773C111.96 58.9212 112.153 58.4779 112.32 58.0282C113.252 55.5678 114.183 53.1073 115.166 50.512C115.275 50.8011 115.34 50.9617 115.397 51.1223C116.419 53.8589 117.44 56.5956 118.449 59.3323C118.571 59.6664 118.725 59.8077 119.098 59.7884C119.702 59.7563 120.312 59.7627 120.922 59.7884C121.23 59.8013 121.353 59.6856 121.455 59.3965C122.836 55.4007 124.237 51.4114 125.625 47.4155C125.753 47.0429 125.869 46.6703 126.01 46.2335C125.162 46.2335 124.378 46.2464 123.601 46.2271L123.614 46.2207Z" fill="black"/>
<path d="M97.9668 46.2348C95.0888 46.0292 92.5063 47.4939 91.3049 50.0122C90.0972 52.5369 90.5597 55.6783 92.4292 57.7019C94.3757 59.809 98.0695 60.4064 100.768 59.051C102.02 58.4214 102.958 57.4835 103.626 56.2115C102.849 55.7811 102.097 55.3699 101.365 54.9588C99.8298 57.053 98.2815 57.6826 96.168 57.1044C94.6712 56.6933 93.5277 55.4213 93.3864 53.9438H104.076C104.089 53.7125 104.095 53.5198 104.115 53.3335C104.384 49.524 101.77 46.5046 97.9732 46.2348H97.9668ZM93.5662 51.5411C93.7397 49.9801 95.699 48.5989 97.6199 48.676C99.5278 48.7467 101.115 50.0186 101.172 51.5411H93.5598H93.5662Z" fill="black"/>
<path d="M46.3278 46.3683C42.5183 45.5846 39.03 47.7881 38.1884 51.482C37.3533 55.1437 39.4218 58.6384 42.9872 59.525C46.4884 60.3986 49.8032 58.8697 50.9596 56.1844C50.2208 55.7733 49.482 55.3685 48.7432 54.9574C47.1244 57.0774 45.5633 57.7069 43.4883 57.0902C41.9915 56.6405 40.8544 55.3429 40.7581 53.9295H51.435C51.8846 50.165 49.8097 47.0879 46.3214 46.3683H46.3278ZM40.9572 51.5398C41.0536 50.422 42.5954 48.6489 44.8181 48.6682C46.8289 48.6875 48.4863 49.9273 48.5762 51.5398H40.9572Z" fill="black"/>
<path d="M163.769 46.229C162.689 46.229 161.764 46.2097 160.839 46.2419C160.602 46.2483 160.306 46.3768 160.146 46.5438C158.295 48.5096 156.471 50.5011 154.64 52.4861C154.518 52.621 154.434 52.788 154.332 52.9358C154.274 52.8908 154.21 52.8523 154.152 52.8073V40.5372H151.441V59.7004H154.197V53.1414C154.409 53.2185 154.499 53.3469 154.608 53.4626C156.465 55.4669 158.315 57.4776 160.178 59.4756C160.3 59.604 160.48 59.7582 160.634 59.7646C161.649 59.7903 162.67 59.7775 163.794 59.7775C161.655 57.4648 159.587 55.2292 157.512 52.9872C159.593 50.7387 161.63 48.5288 163.762 46.229H163.769Z" fill="black"/>
<path d="M133.087 46.2137C129.264 46.0981 126.117 49.1688 126.104 52.9012C126.091 56.7108 129.059 59.7237 132.836 59.7429C136.53 59.7622 139.556 56.7814 139.633 53.1518C139.716 49.3551 136.671 46.3229 133.087 46.2137ZM132.862 56.9099C130.665 56.9099 128.808 55.0405 128.84 52.8627C128.872 50.6657 130.684 48.8862 132.881 48.8926C135.065 48.8926 136.883 50.7235 136.877 52.9077C136.877 55.079 135.033 56.9099 132.855 56.9099H132.862Z" fill="black"/>
<path d="M79.7718 46.2673H76.9195C76.9195 46.4921 76.9195 46.6849 76.9195 46.8712C76.9195 49.1903 76.9323 51.5094 76.9195 53.8285C76.9002 55.82 74.9987 57.2847 73.0586 56.8414C71.5746 56.5009 70.5724 55.2482 70.566 53.6743C70.5532 51.3745 70.566 49.0682 70.566 46.7684V46.2609H67.7522C67.7394 46.3958 67.7201 46.505 67.7201 46.6142C67.7201 49.0104 67.7201 51.413 67.7201 53.8092C67.7201 54.1433 67.7522 54.4837 67.8165 54.8114C68.4268 57.9656 71.157 59.9635 74.0736 59.7515C77.4334 59.501 79.7782 56.9699 79.7782 53.7514C79.7782 51.4323 79.7782 49.1132 79.7782 46.7941V46.2673H79.7718Z" fill="black"/>
<path d="M172.358 52.286C171.761 52.0675 171.137 51.9134 170.527 51.7399C169.641 51.4894 168.722 51.3095 167.861 50.9819C166.981 50.6414 166.878 49.6778 167.598 49.0546C167.784 48.894 168.022 48.7591 168.253 48.6756C169.544 48.2002 171.054 48.5857 171.985 49.6071C172.088 49.7227 172.197 49.8319 172.313 49.9604C173.077 49.5429 173.816 49.1381 174.594 48.7077C174.478 48.5471 174.401 48.4122 174.298 48.2901C172.461 45.9839 168.259 45.425 165.895 47.2045C164.63 48.1552 164.097 49.4208 164.437 50.9947C164.707 52.2474 165.587 52.9733 166.724 53.3652C167.656 53.6864 168.632 53.8727 169.589 54.1361C170.187 54.3031 170.797 54.4509 171.362 54.7014C171.979 54.9777 172.133 55.5237 171.876 56.1469C171.626 56.7507 171.125 57.0398 170.527 57.194C168.998 57.5859 167.444 57.0077 166.506 55.7229C166.435 55.6265 166.345 55.5366 166.255 55.4209C165.433 55.8578 164.636 56.2882 163.73 56.7764C164.193 57.3096 164.566 57.83 165.028 58.2475C166.422 59.5003 168.131 59.8279 169.936 59.7508C171.247 59.6994 172.448 59.3268 173.45 58.4274C175.262 56.8021 175.531 53.4616 172.352 52.286H172.358Z" fill="black"/>
<path d="M58.8799 56.9999C57.1904 56.5503 55.9569 55.0213 55.867 53.2611C55.7642 51.3403 56.76 49.7407 58.4624 49.0919C59.2782 48.7835 60.1198 48.7257 60.9549 48.9505C62.2012 49.2846 63.062 50.094 63.5952 51.2632C64.4432 50.9035 65.2462 50.563 66.0428 50.2225C65.1884 47.5244 61.8029 45.732 58.6808 46.2909C55.2888 46.9012 52.9569 49.8114 53.1046 53.274C53.2524 56.8522 56.0662 59.5182 59.4195 59.7495C62.8629 59.9872 65.4582 57.7323 66.1006 55.6316C65.2848 55.2847 64.4625 54.9378 63.653 54.5973C62.259 56.7687 60.775 57.501 58.8735 56.9935L58.8799 56.9999Z" fill="black"/>
<path d="M87.4804 46.2273C84.384 46.2594 81.8272 48.8419 81.8208 51.9448C81.8208 54.3731 81.8208 56.8078 81.8208 59.2361C81.8208 59.4032 81.8336 59.5766 81.8465 59.7565H84.6602V59.1526C84.6602 56.8014 84.6602 54.4502 84.6602 52.1054C84.6602 50.3195 85.9322 49.0475 87.7053 49.0475C88.3734 49.0475 89.0351 49.0475 89.716 49.0475V46.2337C88.9516 46.2337 88.2192 46.2337 87.4868 46.2337L87.4804 46.2273Z" fill="black"/>
<path d="M147.073 46.2273C144.221 46.3044 141.709 48.6684 141.606 51.5143C141.51 54.1803 141.568 56.8528 141.561 59.5252C141.561 59.5959 141.6 59.673 141.619 59.7501H144.369V59.1719C144.369 56.8399 144.369 54.5015 144.369 52.1696C144.375 50.3066 145.653 49.041 147.504 49.041C148.14 49.041 148.776 49.041 149.424 49.041V46.2208C148.621 46.2208 147.844 46.2016 147.067 46.2208L147.073 46.2273Z" fill="black"/>
<path d="M174.646 41.3264C173.432 41.3264 172.449 42.3093 172.449 43.5235C172.449 44.7376 173.432 45.7141 174.646 45.7205C175.86 45.7205 176.836 44.7376 176.843 43.5235C176.843 42.3093 175.86 41.3264 174.646 41.3264ZM174.646 45.1423C173.746 45.1423 173.021 44.4164 173.021 43.517C173.021 42.6177 173.746 41.8917 174.646 41.8917C175.545 41.8917 176.271 42.6177 176.271 43.517C176.271 44.4164 175.545 45.1423 174.646 45.1423Z" fill="black"/>
<path d="M175.185 43.6275C175.3 43.5247 175.358 43.377 175.358 43.1842C175.358 43.0108 175.3 42.8759 175.185 42.7795C175.069 42.6832 174.908 42.6382 174.696 42.6382H173.996V44.4434H174.362V43.7817H174.696C174.696 43.7817 174.696 43.7817 174.709 43.7817L174.998 44.4434H175.435L175.063 43.6982C175.108 43.6789 175.153 43.6596 175.191 43.6275H175.185ZM174.362 42.9465H174.696C174.78 42.9465 174.851 42.9722 174.896 43.0172C174.941 43.0622 174.966 43.1264 174.966 43.2099C174.966 43.2934 174.941 43.3577 174.896 43.4027C174.851 43.4476 174.78 43.4733 174.696 43.4733H174.362V42.9465Z" fill="black"/>
</svg>
