<svg width="200" height="100" viewBox="0 0 200 100" fill="none" xmlns="http://www.w3.org/2000/svg">
<path d="M134.811 51.5377V49.3855C135.256 49.5587 135.72 49.6453 136.202 49.6576C137.396 49.6576 137.835 48.6496 138.2 47.7714L133.828 38.3956H136.734L139.245 44.3266H139.431L141.465 38.3956H144.286L140.661 47.9878C139.783 50.3503 138.8 51.8531 136.784 51.8531C136.122 51.8531 135.473 51.7418 134.842 51.5253M128.459 44.6853V40.3499H127.148V38.3895H128.54L129.047 35.4456H131.168V38.3895H133.314V40.3499H131.168V44.574C131.15 44.7471 131.168 44.9141 131.23 45.0749C131.286 45.2357 131.372 45.3841 131.496 45.5078C131.613 45.6315 131.756 45.7305 131.917 45.7923C132.077 45.8603 132.244 45.8851 132.417 45.8789C132.745 45.8665 133.067 45.8232 133.382 45.7552V47.6786C132.789 47.8641 132.176 47.9569 131.552 47.9693C129.665 47.9693 128.453 46.6458 128.453 44.6915M123.543 38.3895H126.252V47.6786H123.543V38.3895ZM123.264 35.526C123.264 35.3096 123.308 35.1055 123.388 34.9076C123.468 34.7097 123.586 34.5365 123.741 34.3819C123.895 34.2335 124.068 34.116 124.266 34.0356C124.464 33.9552 124.674 33.9119 124.891 33.9119C125.107 33.9119 125.311 33.9552 125.516 34.0356C125.713 34.116 125.893 34.2335 126.041 34.3819C126.196 34.5303 126.313 34.7097 126.394 34.9076C126.474 35.1055 126.517 35.3096 126.517 35.526C126.517 35.7425 126.474 35.9466 126.394 36.1445C126.313 36.3424 126.196 36.5155 126.041 36.6702C125.887 36.8186 125.713 36.9361 125.516 37.0165C125.318 37.0969 125.107 37.1402 124.891 37.1402C124.674 37.1402 124.47 37.0969 124.266 37.0165C124.068 36.9361 123.889 36.8186 123.741 36.6702C123.586 36.5217 123.468 36.3424 123.388 36.1445C123.308 35.9466 123.264 35.7425 123.264 35.526ZM116.424 38.3895H119.096V39.6573H119.294C119.504 39.212 119.813 38.8533 120.228 38.5874C120.648 38.3214 121.1 38.1854 121.601 38.1854C121.972 38.1854 122.324 38.2596 122.658 38.4204V40.8323C122.17 40.6221 121.663 40.5046 121.131 40.4922C119.943 40.4922 119.139 41.4693 119.139 42.9041V47.6786H116.43L116.418 38.3895H116.424ZM114.983 47.6786H112.275V46.3737H112.089C111.811 46.856 111.433 47.2395 110.945 47.524C110.462 47.8085 109.937 47.9507 109.374 47.9569C107.253 47.9569 105.843 46.3242 105.843 44.0916V38.3895H108.551V43.7019C108.551 44.8399 109.207 45.6377 110.308 45.6377C110.574 45.6377 110.834 45.582 111.075 45.4831C111.322 45.3779 111.539 45.2295 111.724 45.044C111.91 44.8523 112.052 44.6358 112.151 44.3884C112.25 44.141 112.293 43.8875 112.287 43.6215V38.3895H114.977V47.6786H114.983ZM95.0816 43.034C95.0816 40.0778 97.1534 38.0988 100.171 38.0988C102.719 38.0988 104.655 39.515 104.964 41.7105L102.416 42.0383C102.355 41.7909 102.256 41.5683 102.12 41.3518C101.983 41.1416 101.81 40.956 101.612 40.8014C101.415 40.6468 101.192 40.5231 100.951 40.4427C100.709 40.3623 100.462 40.319 100.209 40.3128C98.8356 40.3128 97.7904 41.4322 97.7904 43.034C97.7904 44.6358 98.817 45.7614 100.209 45.7614C100.462 45.7614 100.716 45.7243 100.957 45.6439C101.198 45.5635 101.427 45.446 101.631 45.2914C101.835 45.1368 102.008 44.9512 102.15 44.7409C102.293 44.5307 102.398 44.3018 102.46 44.0545L105.008 44.3637C104.655 46.5592 102.701 47.9754 100.196 47.9754C97.209 47.9754 95.1063 45.984 95.1063 43.0464M91.6553 42.1434C91.6244 41.859 91.5378 41.593 91.408 41.3395C91.2781 41.0859 91.1049 40.8633 90.8885 40.6777C90.672 40.486 90.4308 40.3438 90.1649 40.2448C89.899 40.1459 89.6206 40.0902 89.33 40.0902C89.0393 40.0902 88.7672 40.1397 88.4951 40.2448C88.2291 40.3438 87.9879 40.4922 87.7715 40.6777C87.555 40.8694 87.3819 41.0859 87.252 41.3395C87.1221 41.593 87.0355 41.859 87.0046 42.1434H91.6492H91.6553ZM84.2278 42.9598C84.2278 40.0593 86.3738 38.0988 89.3918 38.0988C92.4099 38.0988 94.426 40.0778 94.426 42.9969C94.4322 43.269 94.426 43.5411 94.3889 43.8071H87.0293C87.0664 44.0668 87.1407 44.3204 87.2582 44.5554C87.3757 44.7904 87.5241 45.0069 87.7096 45.1986C87.8952 45.3903 88.0993 45.5511 88.3343 45.6748C88.5693 45.7985 88.8167 45.8913 89.0764 45.9407C89.3362 45.9902 89.6021 45.9964 89.868 45.9655C90.134 45.9346 90.3875 45.8603 90.6287 45.749C90.8699 45.6377 91.0864 45.4893 91.2843 45.3099C91.4822 45.1306 91.643 44.9265 91.7729 44.6977L94.1044 45.279C93.5169 46.9488 91.7048 47.9631 89.4351 47.9631C86.38 47.9631 84.2587 45.9469 84.2587 42.9536M72.0752 43.436H74.9695C74.9695 44.8523 76.0704 45.7366 77.969 45.7366C79.5399 45.7366 80.4799 45.1182 80.4799 44.0854C80.4799 42.8547 79.1379 42.5949 77.5856 42.3661C75.2973 42.0383 72.2051 41.6363 72.2051 38.5193C72.2051 36.0332 74.2707 34.419 77.6041 34.419C80.9376 34.419 83.1331 36.1939 83.1331 38.8966H80.3501C80.3501 37.5051 79.3296 36.7011 77.6969 36.7011C76.1693 36.7011 75.2602 37.3381 75.2602 38.3029C75.2602 39.5521 76.7198 39.7686 78.371 40.0098C80.6593 40.3499 83.5289 40.8447 83.5289 43.906C83.5289 46.4293 81.352 48.0249 77.8886 48.0249C74.4253 48.0249 72.1061 46.1943 72.0876 43.436" fill="#141414"/>
<path d="M55.96 55.1973L58.8419 53.546V46.9409L53.0718 43.6384L47.2955 46.9409V53.546L53.0718 56.8485L55.9538 55.1911L55.96 55.1973ZM64.6183 50.2435L61.1549 48.2644V61.4684L66.9251 58.172V51.5608L64.6245 50.2435H64.6183ZM55.3786 58.172L53.078 59.4893L47.3016 62.7857L53.078 66.0882L58.8481 62.7857V56.1806L55.3848 58.1658L55.3786 58.172ZM47.3016 56.1868L44.9948 54.8695L39.2247 51.5608V58.172L44.9948 61.4684L47.3016 60.1511L50.765 58.172L47.3016 56.1868ZM39.2247 42.3211V48.9262L41.5315 50.2497L44.9886 52.2349V39.0186L39.2247 42.3211ZM53.078 34.3926L47.3016 37.6951V44.3002L50.765 42.3149L53.0718 40.9915L58.8419 37.6951L53.078 34.3926ZM61.1549 39.0186L58.8481 40.3421L55.3848 42.3211L58.8481 44.3063L61.1549 45.6298L66.9251 48.9262V42.3211L61.1549 39.0248V39.0186Z" fill="#6641F3"/>
<path d="M158.159 61.0499C158.184 60.7098 158.135 60.382 158.017 60.0604C157.9 59.7388 157.726 59.4543 157.491 59.207C157.256 58.9596 156.984 58.7679 156.669 58.6318C156.353 58.4957 156.026 58.4277 155.679 58.4277C155.333 58.4277 155.005 58.4957 154.69 58.6318C154.374 58.7679 154.102 58.9596 153.867 59.207C153.632 59.4543 153.459 59.7388 153.342 60.0604C153.224 60.382 153.181 60.7098 153.199 61.0499C153.175 61.3901 153.224 61.7179 153.342 62.0395C153.459 62.3611 153.632 62.6455 153.867 62.8929C154.102 63.1403 154.374 63.332 154.69 63.4681C155.005 63.6041 155.333 63.6722 155.679 63.6722C156.026 63.6722 156.353 63.6041 156.669 63.4681C156.984 63.332 157.256 63.1403 157.491 62.8929C157.726 62.6455 157.9 62.3611 158.017 62.0395C158.135 61.7179 158.178 61.3901 158.159 61.0499ZM150.49 61.0499C150.49 58.1123 152.358 56.1147 154.9 56.1147C155.488 56.09 156.05 56.2075 156.576 56.4672C157.108 56.727 157.541 57.0919 157.881 57.5681H158.067V52.2308H160.775V65.6945H158.067V64.5133H157.881C157.547 64.9957 157.12 65.3667 156.595 65.6265C156.069 65.8862 155.506 66.0037 154.919 65.979C152.34 65.979 150.49 64.0061 150.49 61.0499ZM144.102 56.4054H146.774V57.6732H146.971C147.182 57.2279 147.491 56.8692 147.905 56.6033C148.32 56.3373 148.777 56.2013 149.278 56.2013C149.649 56.2013 150.002 56.2755 150.336 56.4363V58.8483C149.847 58.638 149.34 58.5205 148.808 58.5019C147.615 58.5019 146.811 59.4791 146.811 60.9139V65.6883H144.102V56.3992V56.4054ZM140.119 62.1322V61.4829L138.196 61.7179C136.86 61.8787 136.346 62.4044 136.346 63.0414C136.346 63.6784 136.897 64.1669 137.831 64.1669C139.185 64.1669 140.125 63.2949 140.125 62.1508M133.687 63.2702C133.687 61.5262 135.171 60.4562 138.115 60.0975L140.113 59.8625V59.4791C140.113 58.5885 139.488 57.9886 138.406 57.9886C137.416 57.9886 136.742 58.5328 136.761 59.4543H134.108C134.108 57.4382 135.808 56.1209 138.449 56.1209C141.09 56.1209 142.815 57.4629 142.815 59.5657V65.6883H140.113V64.5071H139.927C139.34 65.4286 138.264 65.9172 136.922 65.9172C135.004 65.9172 133.681 64.9091 133.681 63.2516M123.39 61.0499C123.39 58.0938 125.456 56.1147 128.48 56.1147C131.028 56.1147 132.964 57.531 133.279 59.7265L130.731 60.0542C130.669 59.8069 130.564 59.578 130.428 59.3678C130.286 59.1575 130.119 58.972 129.915 58.8173C129.711 58.6627 129.488 58.5452 129.247 58.4586C129.005 58.3782 128.752 58.3349 128.498 58.3349C127.125 58.3349 126.086 59.4543 126.086 61.0561C126.086 62.6579 127.107 63.7773 128.48 63.7773C128.74 63.7773 128.987 63.7402 129.234 63.6598C129.476 63.5794 129.704 63.4619 129.908 63.3073C130.113 63.1527 130.286 62.9671 130.428 62.7569C130.57 62.5466 130.675 62.3178 130.737 62.0704L133.285 62.3796C132.939 64.5751 130.978 65.9914 128.474 65.9914C125.487 65.9914 123.384 64 123.384 61.0623M119.964 60.1594C119.927 59.8811 119.846 59.6151 119.71 59.3616C119.574 59.1142 119.401 58.8916 119.191 58.706C118.974 58.5205 118.733 58.3721 118.467 58.2731C118.201 58.1741 117.923 58.1247 117.638 58.1247C117.354 58.1247 117.076 58.1741 116.81 58.2731C116.544 58.3721 116.303 58.5143 116.086 58.706C115.87 58.8916 115.696 59.1142 115.567 59.3616C115.43 59.6151 115.35 59.8811 115.313 60.1594H119.964ZM112.536 60.9757C112.536 58.0752 114.676 56.1147 117.694 56.1147C120.712 56.1147 122.728 58.0937 122.728 61.0128C122.734 61.285 122.728 61.5571 122.685 61.823H115.332C115.369 62.0828 115.443 62.3301 115.56 62.5713C115.678 62.8063 115.826 63.0228 116.012 63.2145C116.197 63.4062 116.401 63.5609 116.636 63.6907C116.871 63.8144 117.119 63.901 117.379 63.9505C117.638 64 117.904 64.0061 118.164 63.9752C118.43 63.9443 118.677 63.8701 118.919 63.7588C119.16 63.6474 119.376 63.5052 119.574 63.3258C119.772 63.1465 119.933 62.9424 120.063 62.7136L122.37 63.2949C121.782 64.9647 119.97 65.979 117.706 65.979C114.651 65.979 112.53 63.9628 112.53 60.9695M106.141 56.4054H108.832V57.6732H109.036C109.24 57.2279 109.549 56.8754 109.963 56.6095C110.378 56.3435 110.829 56.2075 111.324 56.2075C111.695 56.2075 112.048 56.2879 112.382 56.4425V58.8544C111.893 58.6442 111.386 58.5267 110.854 58.5081C109.66 58.5081 108.856 59.4853 108.856 60.9201V65.6945H106.148L106.135 56.4054H106.141ZM102.431 61.0499C102.431 59.5038 101.41 58.4215 99.963 58.4215C98.5159 58.4215 97.4707 59.5038 97.4707 61.0499C97.4707 62.5961 98.4911 63.6969 99.963 63.6969C101.435 63.6969 102.431 62.5899 102.431 61.0499ZM94.7619 61.0499C94.7619 58.0566 96.8275 56.1147 99.963 56.1147C103.099 56.1147 105.158 58.0566 105.158 61.0499C105.158 64.0432 103.074 65.979 99.963 65.979C96.8522 65.979 94.7619 64.0432 94.7619 61.0499ZM84.2173 61.0499C84.2173 58.0938 86.2829 56.1147 89.3071 56.1147C91.8551 56.1147 93.7909 57.531 94.1063 59.7265L91.5583 60.0542C91.4964 59.8069 91.3913 59.578 91.2552 59.3678C91.113 59.1575 90.946 58.972 90.7419 58.8173C90.5378 58.6627 90.3152 58.5452 90.074 58.4586C89.8328 58.3782 89.5792 58.3349 89.3257 58.3349C87.9527 58.3349 86.9137 59.4543 86.9137 61.0561C86.9137 62.6579 87.9527 63.7835 89.3257 63.7835C89.5792 63.7835 89.8328 63.7464 90.074 63.666C90.3152 63.5856 90.544 63.4681 90.7481 63.3135C90.9522 63.1589 91.1254 62.9733 91.2676 62.7631C91.4099 62.5528 91.515 62.324 91.5768 62.0766L94.1249 62.3858C93.7785 64.5813 91.8242 65.9976 89.3133 65.9976C86.3262 65.9976 84.2235 64.0061 84.2235 61.0685M72.0709 61.4458H74.9652C74.9652 62.862 76.0599 63.7464 77.9647 63.7464C79.5356 63.7464 80.4695 63.1279 80.4695 62.0951C80.4695 60.8644 79.1336 60.6047 77.5813 60.3758C75.2868 60.0481 72.2008 59.6461 72.2008 56.5291C72.2008 54.0429 74.2664 52.4287 77.5998 52.4287C80.9333 52.4287 83.1288 54.2037 83.1288 56.9063H80.3148C80.3148 55.5148 79.2944 54.7108 77.6617 54.7108C76.1341 54.7108 75.225 55.3478 75.225 56.3126C75.225 57.5619 76.6845 57.7783 78.3358 58.0195C80.6241 58.3597 83.4937 58.8544 83.4937 61.9158C83.4937 64.4391 81.3167 66.0347 77.8534 66.0347C74.3901 66.0347 72.0709 64.204 72.0523 61.4458" fill="#141414"/>
</svg>
