<svg width="200" height="100" viewBox="0 0 200 100" fill="none" xmlns="http://www.w3.org/2000/svg">
<path d="M35.3426 37.0042H31.8455V57.9362H35.3426V37.0042Z" fill="#6B0AEA"/>
<path fill-rule="evenodd" clip-rule="evenodd" d="M36.1947 62.9793L39.6918 60.8095V42.6919C38.658 41.9261 37.4646 41.39 36.1947 41.1411V62.9793Z" fill="#6B0AEA"/>
<path fill-rule="evenodd" clip-rule="evenodd" d="M27.4927 60.8261L30.9899 62.9958V41.1512C29.7263 41.4001 28.5265 41.9234 27.4927 42.6892V60.8197V60.8261Z" fill="#6B0AEA"/>
<path fill-rule="evenodd" clip-rule="evenodd" d="M40.5411 37.9992V60.4373L42.1684 59.429C43.349 58.6504 44.0574 57.323 44.0383 55.9063V45.3062C44.0383 42.2494 40.5475 37.9928 40.5475 37.9928L40.5411 37.9992Z" fill="#6B0AEA"/>
<path fill-rule="evenodd" clip-rule="evenodd" d="M23.1567 55.8939C23.1376 57.3107 23.8396 58.6381 25.0266 59.4167L26.6539 60.425V37.9996C26.6539 37.9996 23.1567 42.2499 23.1567 45.3067V55.8939Z" fill="#6B0AEA"/>
<path fill-rule="evenodd" clip-rule="evenodd" d="M127.92 58.179V41.6759L130.447 40.6101V58.179H127.92ZM123.944 51.2676C123.97 50.3677 123.606 49.4998 122.943 48.8872C122.292 48.2937 121.443 47.9746 120.562 48.0001C119.694 47.9746 118.852 48.2937 118.22 48.8872C117.569 49.519 117.186 50.3677 117.135 51.2676H123.938H123.944ZM120.518 58.3768C118.743 58.3768 117.295 57.8088 116.184 56.6665C115.074 55.5242 114.512 54.0117 114.525 52.1227C114.525 50.2401 115.087 48.7276 116.21 47.5917C117.333 46.4558 118.788 45.8878 120.575 45.8942C122.362 45.8942 123.81 46.4366 124.908 47.5215C126.012 48.6064 126.567 50.0295 126.574 51.7909C126.574 52.1865 126.548 52.5822 126.484 52.9715H117.11C117.122 53.8777 117.493 54.7392 118.144 55.3774C118.782 55.9773 119.637 56.29 120.511 56.2644C121.89 56.2644 122.86 55.7029 123.421 54.5733H126.153C125.795 55.6837 125.087 56.6473 124.136 57.3238C123.077 58.0513 121.807 58.4215 120.518 58.3768ZM104.633 46.092V47.9874C105.444 46.5834 106.752 45.8814 108.539 45.8814C109.815 45.8367 111.047 46.3345 111.947 47.2343C112.853 48.1405 113.3 49.4041 113.3 51.0314V58.1853H110.792V51.4271C110.792 50.3422 110.524 49.5126 109.981 48.9382C109.394 48.3384 108.577 48.0257 107.741 48.0703C106.893 48.0193 106.069 48.332 105.463 48.9319C104.908 49.5062 104.633 50.3358 104.633 51.4207V58.1853H102.1V46.092H104.633ZM97.3966 58.179V46.092H99.9301V58.1853H97.3966V58.179ZM95.5586 48.1278H92.5784V54.8158C92.5465 55.1732 92.6613 55.5242 92.8975 55.7922C93.1081 55.99 93.4782 56.0858 93.9951 56.0858H95.5523V58.1726H93.5548C91.2063 58.1726 90.0321 57.0558 90.0321 54.8158V44.1392L92.5848 43.0798V46.0856H95.565V48.1278H95.5586ZM80.2042 46.092V47.9874C81.0083 46.5898 82.3166 45.8942 84.1226 45.8942C85.399 45.8495 86.6306 46.3473 87.5304 47.2471C88.4366 48.1533 88.8834 49.4169 88.8834 51.0442V58.1853H86.369V51.4271C86.369 50.3422 86.1009 49.5126 85.5585 48.9382C84.9714 48.3384 84.1545 48.0257 83.3185 48.0703C82.4697 48.0193 81.6337 48.332 81.0339 48.9319C80.4787 49.5062 80.2042 50.3358 80.1979 51.4207V58.1853H77.6643V46.092H80.2042ZM73.7013 51.2676C73.7268 50.3677 73.363 49.4998 72.6993 48.8872C72.042 48.2873 71.1869 47.9746 70.2998 48.0001C69.4319 47.9746 68.5895 48.2937 67.9577 48.8872C67.3068 49.5126 66.9239 50.3677 66.8728 51.2676H73.7013ZM70.2615 58.3768C68.4874 58.3768 67.0388 57.8088 65.9284 56.6665C64.8179 55.5242 64.2627 54.0117 64.2627 52.1227C64.2627 50.2401 64.8243 48.7276 65.9475 47.5917C67.0707 46.4558 68.5257 45.8878 70.3126 45.8942C72.0995 45.8942 73.5417 46.4366 74.6458 47.5215C75.7498 48.6064 76.305 50.0295 76.3114 51.7909C76.3114 52.1865 76.2859 52.5822 76.2221 52.9715H66.8473C66.8601 53.8777 67.2366 54.7456 67.8812 55.3774C68.5193 55.9773 69.3681 56.2964 70.2488 56.2644C71.6272 56.2644 72.5972 55.7029 73.1588 54.5733H75.8902C75.5328 55.6837 74.8245 56.6473 73.8736 57.3238C72.8142 58.0513 71.5443 58.4215 70.2552 58.3768H70.2615ZM57.6385 44.771C56.9812 44.7391 56.3239 44.9433 55.7942 45.339C55.3092 45.7474 55.0412 46.36 55.0858 46.9982C55.0539 47.6619 55.3858 48.2937 55.941 48.6511C56.56 49.0531 57.2556 49.3403 57.9831 49.4871C58.7808 49.6658 59.5786 49.87 60.3826 50.0933C61.1676 50.3167 61.8696 50.757 62.4184 51.3633C62.98 51.9759 63.2608 52.8438 63.2608 53.9734C63.2608 55.103 62.7822 56.1113 61.8185 56.9983C60.8549 57.8918 59.5658 58.3449 57.9576 58.3513C56.3494 58.3576 55.0348 57.9875 54.0265 57.2281C53.0373 56.5197 52.4629 55.3582 52.514 54.133H55.2262C55.2581 54.7456 55.5325 55.32 55.9856 55.7348C56.4324 56.1304 57.0833 56.3283 57.9448 56.3283C58.6787 56.3729 59.4062 56.1368 59.9742 55.6709C60.8357 54.9115 60.9634 53.616 60.2614 52.7098C59.9423 52.3588 59.5339 52.1036 59.0872 51.9504C58.5702 51.7717 58.0342 51.6186 57.4981 51.4973C56.9174 51.3697 56.3366 51.2165 55.7559 51.0378C55.2007 50.8719 54.6646 50.6422 54.1541 50.355C53.6563 50.0614 53.2479 49.6402 52.9735 49.1361C52.6544 48.5298 52.4949 47.8597 52.5204 47.1769C52.4757 45.9388 53.0182 44.7455 53.9754 43.9605C54.9454 43.15 56.2026 42.7416 57.7534 42.7416C59.3041 42.7416 60.5358 43.0862 61.4612 43.7691C62.3865 44.471 62.9034 45.4921 63.0055 46.8195H60.2103C60.1593 46.2515 59.8913 45.7219 59.4509 45.3517C58.9468 44.9433 58.3022 44.7327 57.6513 44.771H57.6385Z" fill="black"/>
<path fill-rule="evenodd" clip-rule="evenodd" d="M167.524 46.7747C166.695 46.7619 165.871 46.947 165.131 47.3171C164.397 47.6873 163.784 48.2616 163.363 48.97C162.891 49.806 162.649 50.7505 162.661 51.7077H172.164C172.253 50.7569 172.055 49.7996 171.608 48.9572C171.213 48.2425 170.607 47.6681 169.879 47.3044C169.151 46.947 168.341 46.7619 167.524 46.7747ZM167.479 57.2662C168.571 57.3045 169.643 56.9854 170.543 56.36C171.36 55.7793 171.908 54.8858 172.055 53.8903H173.102C172.91 55.1028 172.266 56.1877 171.289 56.9344C170.307 57.7002 169.056 58.0895 167.531 58.0895C166.478 58.1086 165.437 57.8597 164.506 57.3619C163.625 56.8769 162.897 56.1494 162.425 55.2624C161.902 54.2604 161.64 53.1372 161.672 52.0141C161.647 50.8973 161.908 49.7932 162.425 48.8041C162.904 47.917 163.625 47.1895 164.499 46.7045C165.431 46.2067 166.471 45.9514 167.524 45.977C168.584 45.9514 169.624 46.2003 170.549 46.7045C171.36 47.1512 172.023 47.8149 172.476 48.619C172.91 49.3912 173.134 50.2655 173.134 51.1525C173.134 51.5418 173.095 51.9247 173.025 52.3076H162.674C162.655 53.2776 162.897 54.2349 163.376 55.0837C163.784 55.792 164.397 56.3664 165.131 56.7365C165.865 57.0939 166.675 57.279 167.492 57.2662H167.479ZM155.144 45.8876C156.56 45.8876 157.715 46.3216 158.609 47.1959C159.496 48.0638 159.943 49.3529 159.936 51.044V57.9427H158.941V51.0951C158.941 49.6784 158.577 48.5871 157.856 47.8468C157.135 47.1065 156.139 46.7236 154.876 46.7236C153.701 46.6726 152.553 47.1257 151.736 47.9744C150.944 48.8104 150.549 50.0357 150.549 51.6631V57.9427H149.553V46.1237H150.549V49.238C150.785 48.2233 151.391 47.3299 152.246 46.7364C153.101 46.1684 154.11 45.8685 155.137 45.8876H155.144ZM140.121 43.6285C138.96 43.6094 137.817 43.9029 136.803 44.4773C135.813 45.0452 135.003 45.8812 134.473 46.8895C133.886 48.0191 133.593 49.2763 133.618 50.5463C133.586 51.8162 133.88 53.0734 134.473 54.203C135.009 55.2113 135.813 56.0473 136.803 56.6153C138.864 57.7448 141.359 57.7448 143.427 56.6153C144.422 56.0473 145.233 55.2113 145.769 54.203C146.356 53.0798 146.65 51.8226 146.624 50.5463C146.656 49.2763 146.362 48.0191 145.769 46.8895C145.233 45.8749 144.422 45.0389 143.427 44.4773C142.419 43.9093 141.283 43.6157 140.121 43.6221V43.6285ZM140.121 42.7351C141.48 42.7159 142.814 43.0541 143.995 43.7242C145.131 44.3752 146.062 45.3324 146.675 46.4875C147.332 47.7383 147.664 49.1359 147.639 50.5527C147.664 51.963 147.332 53.3542 146.675 54.5987C146.056 55.7601 145.131 56.7174 143.995 57.3747C141.589 58.7085 138.66 58.7085 136.254 57.3747C135.111 56.7174 134.173 55.7537 133.542 54.5923C132.884 53.3478 132.552 51.9566 132.578 50.5463C132.552 49.1295 132.884 47.7319 133.554 46.4811C134.18 45.3196 135.118 44.356 136.267 43.7115C137.441 43.0478 138.775 42.7095 140.121 42.7287V42.7351Z" fill="black"/>
<path d="M175.82 47.7176L175.552 47.3095H175.329V47.7176H175.061V46.4359H175.641C175.947 46.4359 176.126 46.5953 176.126 46.8568C176.132 47.0353 176.024 47.1947 175.858 47.2521L176.17 47.7112H175.82V47.7176ZM175.82 46.8759C175.82 46.7547 175.737 46.691 175.597 46.691H175.329V47.0608H175.616C175.756 47.0608 175.833 46.9907 175.833 46.8823H175.826L175.82 46.8759Z" fill="black"/>
<path d="M175.529 48.4269C174.801 48.4269 174.214 47.8398 174.214 47.1122C174.214 46.3847 174.801 45.7976 175.529 45.7976C176.256 45.7976 176.843 46.3847 176.843 47.1122C176.843 47.8461 176.256 48.4269 175.529 48.4269ZM175.529 46.0912C174.961 46.0912 174.501 46.5506 174.501 47.1186C174.501 47.6866 174.961 48.1461 175.529 48.1461C176.096 48.1461 176.556 47.6866 176.556 47.1186C176.556 46.5506 176.096 46.0912 175.529 46.0912Z" fill="black"/>
</svg>
