<svg width="200" height="100" viewBox="0 0 200 100" fill="none" xmlns="http://www.w3.org/2000/svg">
<path d="M46.5645 37.8409C49.0856 37.8409 51.206 38.6684 52.932 40.3621C54.6256 42.0557 55.4854 44.1373 55.4854 46.5873C55.4854 49.0373 54.6192 51.1189 52.932 52.8125C51.2383 54.5062 49.1567 55.366 46.7067 55.366C44.2567 55.366 42.1364 54.4998 40.4492 52.8125C38.7555 51.1189 37.8957 49.0696 37.8957 46.6584C37.8957 45.0423 38.2901 43.562 39.0464 42.198C39.8027 40.834 40.8823 39.7544 42.214 38.9593C43.5456 38.2417 45.0195 37.8409 46.5645 37.8409ZM46.6356 39.457C45.4138 39.457 44.2244 39.7803 43.1125 40.4267C41.9942 41.0732 41.1344 41.9394 40.5203 43.0189C39.9062 44.0985 39.5829 45.3203 39.5829 46.6519C39.5829 48.6301 40.2682 50.3237 41.6322 51.6877C42.9962 53.0517 44.6575 53.737 46.5968 53.737C47.8897 53.737 49.0792 53.4137 50.1975 52.7996C51.3159 52.1855 52.1756 51.3257 52.7898 50.2074C53.4039 49.1278 53.7271 47.906 53.7271 46.5744C53.7271 45.2427 53.4039 44.0533 52.7898 42.9737C52.1756 41.8941 51.3159 41.0279 50.1652 40.3815C49.0856 39.7673 47.8962 39.4441 46.6421 39.4441L46.6356 39.457Z" fill="#68686B"/>
<path d="M60.0239 55.5073V37.7689H60.4182L72.2223 51.3701V37.7689H73.987V55.5073H73.5539L61.821 42.0872V55.5073H60.0239Z" fill="#68686B"/>
<path d="M78.7737 37.7689H80.4286V55.4685H78.7737V37.7689Z" fill="#68686B"/>
<path d="M138.786 37.7689H135.367L130.583 50.5749L140.228 50.6137L142.064 55.4362H145.554L138.786 37.7689ZM134.759 48.4869L137.131 42.4427L139.471 48.4869H134.759Z" fill="#68686B"/>
<path d="M149.183 37.7689H152.531V52.1975H159.222V55.3974H149.183V37.7689Z" fill="#68686B"/>
<path d="M162.785 37.7689H166.133V52.1975H172.824V55.3974H162.785V37.7689Z" fill="#68686B"/>
<path d="M135.84 62.8444C135.84 62.8444 127.637 59.8967 125.84 54.9643C123.823 49.4566 131.309 48.2025 139.008 48.4158C143.145 48.5257 148.22 49.1722 148.22 49.1722C148.22 49.1722 136.273 50.6849 131.955 54.1756C127.708 57.5953 135.84 62.8444 135.84 62.8444Z" fill="#FF6C0E"/>
<path d="M100.212 51.2225C98.6281 52.9873 96.7211 53.8858 94.4198 53.8858C92.2994 53.8858 90.4959 53.2006 89.0931 51.8366C87.6903 50.4662 86.9728 48.7402 86.9728 46.7297C86.9728 45.3593 87.296 44.1375 87.9101 43.0579C88.5242 41.9784 89.4228 41.1122 90.5734 40.4657C91.7241 39.8193 92.9459 39.496 94.2776 39.496C95.4993 39.496 96.6177 39.7482 97.6585 40.2136C98.6281 40.679 99.4944 41.3643 100.18 42.2628V39.9615C99.6754 39.5284 99.1 39.0241 98.4859 38.7397C97.2253 38.1256 95.8226 37.8024 94.2388 37.8024C91.6465 37.8024 89.4874 38.6298 87.7614 40.3235C86.0354 42.0172 85.1692 44.0664 85.1692 46.5099C85.1692 48.9535 85.8867 50.8282 87.2895 52.4831C88.9832 54.4289 91.3169 55.4308 94.2323 55.4308C95.7773 55.4308 97.1801 55.1399 98.4406 54.5646C99.0548 54.2737 99.6301 53.776 100.167 53.3752V51.216H100.205L100.212 51.2225Z" fill="#68686B"/>
<path d="M28.8265 45.7926C24.8315 44.9652 24.0752 43.9244 24.0752 42.3018V42.263C24.0752 40.537 25.7301 39.2765 27.9991 39.2765C29.9061 39.2765 31.4188 39.8518 32.8927 41.1447L33.0349 41.2546L33.0737 41.2158V39.2377C31.5287 38.1969 30.016 37.7638 28.0379 37.7638C24.8703 37.7703 22.4591 39.7484 22.4591 42.3729V42.4117C22.4591 45.0751 24.1528 46.4778 28.2512 47.3441C32.1363 48.1327 32.8539 49.1412 32.8539 50.7637V50.8025C32.8539 52.6708 31.1602 53.9701 28.7877 53.9701C26.4153 53.9701 24.7927 53.2849 22.8857 51.5265L22.7435 51.4167L22.7047 51.4554V53.4723C24.5406 54.8428 26.4088 55.4892 28.7166 55.4892C32.0975 55.4892 34.4764 53.5434 34.4764 50.7379V50.6991C34.4764 48.0745 32.7828 46.633 28.8265 45.8055V45.7926Z" fill="#68686B"/>
<path d="M125.55 37.7707L121.516 49.7493L121.445 50.0014L121.335 49.7493L117.379 37.7319H114.179L110.184 49.7493L110.113 50.0014L110.003 49.7493L105.976 37.7707H101.98L108.348 55.4703H111.658L115.653 43.9184L115.724 43.6663L115.795 43.9184L119.79 55.4703H123.067L129.435 37.7707H125.55Z" fill="#68686B"/>
<path d="M175.524 41.1117C174.444 41.1117 173.546 40.2132 173.546 39.1336C173.546 38.0541 174.444 37.1555 175.524 37.1555C176.604 37.1555 177.541 38.0541 177.541 39.1336C177.541 40.2132 176.642 41.1117 175.524 41.1117ZM175.524 37.3688C174.554 37.3688 173.798 38.1575 173.798 39.0948C173.798 40.0322 174.587 40.8208 175.524 40.8208C176.461 40.8208 177.25 40.0322 177.25 39.0948C177.289 38.1575 176.494 37.3688 175.524 37.3688ZM176.028 40.2843L175.492 39.3857H175.278V40.2843H174.664V37.9119H175.705C176.28 37.9119 176.532 38.2739 176.532 38.6294C176.532 38.9203 176.39 39.166 176.099 39.2758L176.785 40.2455H176.028V40.2843ZM175.233 38.3062V38.9526H175.524C175.776 38.9526 175.886 38.8427 175.886 38.6294C175.886 38.4161 175.776 38.3062 175.524 38.3062H175.233Z" fill="#68686B"/>
</svg>
