<svg width="200" height="100" viewBox="0 0 200 100" fill="none" xmlns="http://www.w3.org/2000/svg">
<path d="M49.1429 55.5131H56.9293C58.2984 55.5131 59.0365 55.3947 59.4534 55.0961C59.9887 54.7693 60.2873 54.2059 60.2873 53.5186C60.2873 52.7185 59.8704 52.0311 59.1886 51.7043C58.8337 51.4959 58.1463 51.4057 57.3463 51.4057H54.1967C52.1459 51.4057 50.8106 51.0508 49.9147 50.2789C48.8724 49.3887 48.309 47.9914 48.309 46.504C48.309 44.3404 49.526 42.4361 51.2782 41.8107C52.0501 41.5121 52.9403 41.4557 54.9348 41.4557H63.403V44.5151H55.763C54.1573 44.5433 54.0108 44.5433 53.4756 44.6616C52.76 44.8419 52.3149 45.4954 52.3149 46.4138C52.3149 47.1857 52.6699 47.8111 53.2953 48.0759C53.8023 48.3125 54.2193 48.3407 55.4363 48.3407H58.1688C60.693 48.3407 62.0339 48.7295 63.0424 49.738C63.8143 50.5099 64.3214 52.0255 64.3214 53.5129C64.3214 55.3271 63.4875 57.0174 62.1522 57.8513C61.3184 58.3865 60.2197 58.533 57.6956 58.533H49.1429V55.5018V55.5131ZM74.1024 41.3374C71.6966 41.3374 69.5837 41.929 68.2484 42.9995C66.5525 44.3348 65.6623 46.8308 65.6623 50.1042C65.6623 52.3917 66.1356 54.2623 67.1498 55.6596C68.4851 57.5921 71.0712 58.6626 74.339 58.6626C76.6547 58.6626 78.5872 58.0992 79.8662 57.0568C81.5621 55.6877 82.5086 53.2256 82.5086 50.2507V49.7774L82.4804 49.3042V48.8309L82.4185 48.3858L82.3565 47.9407L82.2663 47.4956L82.1762 47.0787L82.0861 46.6617L82.0241 46.4533L81.9621 46.2448L81.9001 46.0645L81.8381 45.8842L81.7762 45.7039L81.7142 45.5236L81.6522 45.3433L81.5621 45.163L81.4719 45.0165L81.3818 44.87L81.2916 44.7236L81.2015 44.5771L81.1113 44.4306L81.0212 44.2841L80.931 44.1376L80.8409 44.0193C79.5619 42.2952 77.128 41.343 74.0629 41.343L74.1024 41.3374ZM74.1362 44.2503C77.1956 44.2503 78.5365 46.0307 78.5365 50.0479C78.5365 54.0651 77.1392 55.8117 74.1362 55.8117C71.1332 55.8117 69.6795 53.9975 69.6795 49.9859V48.4421L69.7077 48.2956L69.7359 48.1492L69.764 48.0027L69.7922 47.8562L69.8204 47.7379L69.8486 47.6195L69.8767 47.5012L69.9049 47.3829L69.9331 47.2646L69.9612 47.1463L69.9894 47.0279L70.0176 46.9096L70.0458 46.7913L70.0739 46.7012L70.1021 46.611L70.1303 46.5209L70.1584 46.4307L70.1866 46.3406L70.2148 46.2504L70.2768 46.1603L70.3387 46.0701L70.4007 45.98C71.1444 44.8813 72.4516 44.2559 74.1137 44.2559L74.1362 44.2503ZM84.5031 41.4839V58.5724H88.1259V52.6002H93.9799C95.9406 52.6002 96.8646 52.3354 97.8449 51.5015C99.0337 50.493 99.7493 48.8253 99.7493 47.0449C99.7493 45.5293 99.214 44.132 98.2055 43.0333C97.0787 41.7825 96.0363 41.4557 93.0333 41.4557H84.5031V41.4839ZM88.1316 44.5151H93.1516C93.7432 44.5151 94.194 44.5771 94.4869 44.6616C95.287 44.9264 95.7377 45.7603 95.7377 46.8927C95.7377 47.8449 95.4391 48.6731 94.994 49.0337L94.9658 49.0619L94.9377 49.0901L94.9095 49.1182L94.8813 49.1464L94.8532 49.1746L94.825 49.2028L94.7968 49.2309L94.7348 49.2591L94.6729 49.2873L94.6109 49.3154L94.5489 49.3436L94.4869 49.3718L94.425 49.3999H94.363L94.301 49.4281L94.239 49.4563H88.1147V44.5151H88.1316ZM115.294 58.5724H111.671V51.5297H105.074V58.5724H101.451V41.4839H105.074V48.4703H111.671V41.4839H115.294V58.5724ZM125.931 41.3374C123.526 41.3374 121.413 41.929 120.077 42.9995C118.382 44.3348 117.491 46.8308 117.491 50.1042C117.491 52.3917 117.965 54.2623 118.979 55.6596C120.314 57.5921 122.9 58.6626 126.168 58.6626C128.484 58.6626 130.416 58.0992 131.695 57.0568C133.391 55.6877 134.338 53.2256 134.338 50.2507V49.7774L134.31 49.3042L134.281 48.8309L134.219 48.3858L134.191 47.9407L134.129 47.4956L134.039 47.0787L133.949 46.6617L133.887 46.4533L133.825 46.2448L133.763 46.0645L133.701 45.8842L133.639 45.7039L133.577 45.5236L133.515 45.3433L133.453 45.163L133.363 45.0165L133.273 44.87L133.183 44.7236L133.093 44.5771L133.002 44.4306L132.912 44.2841L132.822 44.1376L132.732 44.0193C131.363 42.2952 128.929 41.343 125.898 41.343L125.931 41.3374ZM125.931 44.2503C128.991 44.2503 130.332 46.0307 130.332 50.0479C130.332 54.0651 128.934 55.8117 125.931 55.8117C122.928 55.8117 121.475 53.9975 121.475 49.9859V48.4421L121.503 48.2956L121.531 48.1492L121.559 48.0027L121.587 47.8562L121.616 47.7379L121.644 47.6195L121.672 47.5012L121.7 47.3829L121.728 47.2646L121.756 47.1463L121.785 47.0279L121.813 46.9096L121.841 46.7913L121.869 46.7012L121.897 46.611L121.926 46.5209L121.954 46.4307L121.982 46.3406L122.01 46.2504L122.072 46.1603L122.134 46.0701L122.196 45.98C122.94 44.8813 124.247 44.2559 125.909 44.2559L125.931 44.2503ZM136.512 55.5131H144.299C145.668 55.5131 146.406 55.3947 146.823 55.0961C147.358 54.7693 147.657 54.2059 147.657 53.5186C147.657 52.7185 147.24 52.0311 146.558 51.7043C146.203 51.4959 145.55 51.4057 144.716 51.4057H141.566C139.516 51.4057 138.18 51.0508 137.284 50.2789C136.276 49.3887 135.679 47.9914 135.679 46.504C135.679 44.3348 136.896 42.4304 138.648 41.8107C139.42 41.5121 140.31 41.4557 142.304 41.4557H150.773V44.5151H143.133C141.527 44.5433 141.38 44.5433 140.845 44.6616C140.13 44.8419 139.685 45.4954 139.685 46.4138C139.685 47.1857 140.039 47.8111 140.665 48.0759C141.172 48.3125 141.589 48.3407 142.806 48.3407H145.538C148.063 48.3407 149.404 48.7295 150.412 49.738C151.184 50.5099 151.691 52.0255 151.691 53.5129C151.691 55.3271 150.857 57.0174 149.522 57.8513C148.688 58.3865 147.589 58.533 145.065 58.533H136.479L136.507 55.5018L136.512 55.5131Z" fill="#007AFF"/>
</svg>
