<svg width="200" height="100" viewBox="0 0 200 100" fill="none" xmlns="http://www.w3.org/2000/svg">
<path d="M53.8361 53.6869C53.8361 54.4392 53.6744 55.1791 53.3449 55.8506C53.0154 56.5096 52.5491 57.0754 51.9647 57.5293C51.374 57.9956 50.6714 58.35 49.857 58.6049C49.0425 58.8598 48.1534 58.9903 47.1835 58.9903C46.0271 58.9903 44.9826 58.8349 44.0748 58.5178C43.1609 58.207 42.2407 57.6785 41.3205 56.9448L42.8438 54.4703C43.5712 55.0796 44.2303 55.5273 44.8209 55.8133C45.3805 56.0868 46.0022 56.236 46.6302 56.236C47.3887 56.236 47.9918 56.0433 48.4581 55.6516C48.9244 55.2599 49.142 54.7377 49.142 54.0724C49.142 53.7926 49.0984 53.5253 49.0114 53.2766C48.9306 53.0279 48.7751 52.773 48.5575 52.5118C48.2778 52.201 47.9731 51.915 47.6374 51.6601C47.1462 51.2746 46.6426 50.8953 46.1328 50.5285C45.6665 50.199 45.2002 49.8508 44.7525 49.5026C44.3173 49.1545 43.9069 48.7752 43.5277 48.3711C43.1609 47.967 42.8624 47.5131 42.6448 47.0219C42.4148 46.4872 42.3029 45.909 42.3091 45.3246C42.3091 44.5971 42.4645 43.9195 42.763 43.3164C43.0614 42.7133 43.4842 42.2035 44.0126 41.7745C44.5411 41.3455 45.1691 41.0159 45.9214 40.7797C46.7048 40.5372 47.5192 40.4129 48.3399 40.4253C49.2601 40.4253 50.1492 40.5434 51.0072 40.7921C51.8527 41.0346 52.6548 41.3952 53.3946 41.8677L52.0144 44.0935C51.0756 43.4345 50.0808 43.0988 49.0425 43.0988C48.4145 43.0988 47.8861 43.2604 47.4757 43.5899C47.0654 43.9195 46.854 44.3298 46.854 44.8334C46.854 45.3059 47.0343 45.7349 47.4011 46.1142C47.7679 46.4997 48.3959 47.0219 49.2912 47.712C50.1927 48.3711 50.945 48.9555 51.5294 49.4467C52.1201 49.9379 52.5864 50.4166 52.9346 50.8518C53.2827 51.2932 53.5066 51.7285 53.6496 52.1823C53.7863 52.6486 53.8485 53.1398 53.8485 53.6869H53.8361ZM69.479 49.5089C69.479 50.1928 69.4044 50.9326 69.2614 51.7285C69.1308 52.4932 68.8883 53.2393 68.5339 53.9294C68.1858 54.6071 67.7381 55.1604 67.1848 55.5894C66.6252 56.0247 65.9164 56.2485 65.0709 56.2485C63.6471 56.2485 62.5217 55.6827 61.7073 54.5387C60.8866 53.4071 60.4762 51.8466 60.4762 49.8633C60.4762 47.8799 60.8866 46.2199 61.7259 45.0199C62.559 43.8262 63.6844 43.2293 65.1082 43.2293C66.5319 43.2293 67.5267 43.7951 68.3101 44.908C69.0935 46.0334 69.4852 47.569 69.4852 49.5026L69.479 49.5089ZM74.4218 49.3348C74.4218 48.0105 74.229 46.8043 73.856 45.7287C73.4705 44.6407 72.942 43.7081 72.2395 42.9247C71.5369 42.1413 70.7162 41.5382 69.7588 41.0968C68.8013 40.6553 67.7443 40.4377 66.5817 40.4377C65.3071 40.4377 64.1818 40.6864 63.2181 41.1589C62.2482 41.6439 61.3467 42.4024 60.526 43.4407L60.5011 40.8543H55.95V67.4211H60.4949V56.1987C60.9425 56.721 61.3715 57.1562 61.7881 57.5106C62.1984 57.865 62.615 58.1572 63.044 58.381C63.473 58.5986 63.9206 58.7665 64.3932 58.8536C64.8657 58.9406 65.3755 58.9903 65.9164 58.9903C67.0791 58.9966 68.2293 58.7479 69.2924 58.2691C70.3307 57.7842 71.2385 57.1065 71.9908 56.2298C72.7431 55.3532 73.34 54.3335 73.7689 53.1709C74.2104 52.002 74.4156 50.715 74.4156 49.3286L74.4218 49.3348ZM76.4486 58.5738H81.1179V32.579H76.4486V58.5738ZM101.045 58.58V40.8419H96.3753V50.3855C96.3753 51.2373 96.338 51.8901 96.2634 52.3564C96.2012 52.7916 96.0769 53.2144 95.909 53.6185C95.2499 55.0796 94.0376 55.8195 92.278 55.8195C90.8978 55.8195 89.9403 55.3283 89.3932 54.3335C89.1694 53.9356 89.0201 53.5066 88.9455 53.0528C88.8647 52.5802 88.8212 51.8901 88.8212 50.9886V40.8419H84.1519V50.914C84.1519 51.5979 84.1644 52.1823 84.1706 52.6486C84.1893 53.4009 84.2701 54.147 84.4255 54.8869C84.4815 55.1729 84.5685 55.4464 84.6929 55.7014C85.1219 56.7894 85.8058 57.6101 86.7632 58.1696C87.7207 58.7292 88.8958 59.0028 90.2823 59.0028C91.532 59.0028 92.6386 58.7852 93.5837 58.3437C94.5349 57.9023 95.4551 57.1935 96.3504 56.1987L96.3628 58.5738L101.051 58.5862L101.045 58.58ZM121.164 58.5738V48.5203C121.164 47.8364 121.151 47.252 121.145 46.767C121.133 46.282 121.108 45.8655 121.052 45.5049C121.008 45.194 120.953 44.8831 120.878 44.5723C120.803 44.2987 120.722 44.0314 120.629 43.7765C120.2 42.7195 119.516 41.8926 118.559 41.3206C117.601 40.7486 116.426 40.4502 115.027 40.4502C113.778 40.4502 112.671 40.6678 111.726 41.1092C110.781 41.5506 109.855 42.2656 108.959 43.2542L108.947 40.8792H104.246V58.58H108.953V49.0301C108.953 48.2094 108.978 47.5566 109.046 47.1027C109.102 46.6489 109.22 46.2199 109.382 45.8033C109.68 45.0883 110.159 44.5598 110.787 44.1992C111.415 43.8386 112.161 43.6521 113.038 43.6521C114.418 43.6521 115.376 44.1433 115.923 45.1381C116.134 45.5111 116.277 45.9401 116.358 46.4064C116.439 46.8727 116.488 47.569 116.488 48.4643V58.5676H121.151L121.164 58.5738ZM140.487 57.3987L133.375 48.5514L139.387 42.104L135.849 40.5807L129.595 47.8426H129.103V32.579H124.397V58.5738H129.103V49.1545L136.148 58.9282L140.5 57.4049L140.487 57.3987ZM158.679 51.0446V48.1473L144.529 41.0408V44.2303L155.496 49.571L144.529 54.9864V58.1013L158.679 51.0446ZM145.897 36.4524C145.032 36.4524 144.33 37.1674 144.33 38.044C144.33 38.9207 145.032 39.6419 145.897 39.6419C146.761 39.6419 147.463 38.9393 147.463 38.044C147.476 37.1798 146.786 36.4648 145.915 36.4524C145.909 36.4524 145.903 36.4524 145.89 36.4524H145.897ZM145.909 36.7011C146.612 36.7011 147.177 37.3042 147.177 38.0503C147.177 38.7963 146.612 39.3994 145.909 39.3932C145.2 39.3932 144.628 38.8026 144.628 38.044C144.628 37.2855 145.194 36.7011 145.909 36.7011ZM145.604 38.2057H145.797C146.027 38.2057 146.133 38.2865 146.183 38.5166C146.22 38.7528 146.263 38.9083 146.301 38.9642H146.599C146.568 38.9083 146.525 38.8026 146.487 38.529C146.45 38.2617 146.35 38.1249 146.189 38.1V38.0813C146.382 38.0254 146.537 37.8824 146.537 37.6523C146.537 37.4907 146.481 37.3601 146.375 37.2855C146.263 37.2047 146.096 37.1487 145.828 37.1487C145.617 37.1487 145.474 37.1674 145.325 37.1923V38.9642H145.604V38.2057ZM145.604 37.385C145.648 37.3726 145.716 37.3663 145.803 37.3663C146.12 37.3663 146.232 37.5218 146.232 37.6772C146.232 37.8948 146.033 37.9757 145.803 37.9757H145.604V37.385Z" fill="#0C1724"/>
</svg>
