<svg width="200" height="100" viewBox="0 0 200 100" fill="none" xmlns="http://www.w3.org/2000/svg">
<path d="M161.534 67.1494L162.118 67.2632C162.58 67.2632 162.893 67.1067 163.135 66.5377L163.583 65.5065L160.731 58.6149H161.89L164.152 64.205L166.427 58.6149H167.573L164.152 66.8222C163.746 67.8108 163.049 68.1949 162.146 68.202L161.385 68.1095L161.541 67.1494" fill="#475464"/>
<path d="M76.426 65.4374V60.971C76.426 59.7548 75.8001 59.3921 74.8827 59.3921C74.0506 59.3921 73.2754 59.9041 72.8628 60.4518V65.4374H71.8031V58.6169H72.8628V59.6054C73.3465 59.0294 74.2782 58.4462 75.3094 58.4462C76.7176 58.4462 77.4715 59.1645 77.4715 60.6509V65.4374H76.426Z" fill="#475464"/>
<path d="M78.8603 62.0164C78.8603 60.0393 80.2756 58.4462 82.2243 58.4462C84.2868 58.4462 85.4959 60.0535 85.4959 62.1089V62.372H79.9911C80.0765 63.6593 80.9655 64.7333 82.4377 64.7333C83.2271 64.7333 84.0023 64.4203 84.55 63.8585L85.062 64.5412C84.3722 65.224 83.4547 65.608 82.3452 65.608C80.3112 65.608 78.8603 64.1501 78.8603 62.0164ZM82.2101 59.321C80.7521 59.321 80.0338 60.5442 79.9769 61.5826H84.4575C84.4433 60.5798 83.7676 59.321 82.2172 59.321" fill="#475464"/>
<path d="M87.0675 64.0132V59.554H85.9366V58.6223H87.0675V56.7589H88.1414V58.6223H89.5282V59.554H88.1414V63.7928C88.1414 64.3048 88.369 64.6747 88.817 64.6747C89.13 64.6747 89.3931 64.5324 89.5354 64.376L89.8483 65.1725C89.578 65.4286 89.2011 65.6206 88.5895 65.6206C87.5724 65.6206 87.0604 65.0303 87.0604 64.0204" fill="#475464"/>
<path d="M96.564 65.436L94.7788 59.9597L93.0008 65.436H91.934L89.7648 58.6155H90.8672L92.5385 64.0491L94.3237 58.6155H95.2482L97.0262 64.0491L98.6976 58.6155H99.8071L97.6308 65.436" fill="#475464"/>
<path d="M100.272 62.0235C100.272 60.0464 101.567 58.4462 103.643 58.4462C105.72 58.4462 107.022 60.0393 107.022 62.0235C107.022 64.0078 105.72 65.608 103.643 65.608C101.567 65.608 100.272 63.9936 100.272 62.0235ZM105.905 62.0235C105.905 60.6367 105.101 59.3992 103.643 59.3992C102.185 59.3992 101.382 60.6438 101.382 62.0235C101.382 63.4033 102.185 64.6621 103.643 64.6621C105.101 64.6621 105.905 63.4175 105.905 62.0235Z" fill="#475464"/>
<path d="M108.397 65.4348V58.6143H109.457V59.7025C110.012 58.9984 110.801 58.4579 111.733 58.4579V59.5531L111.32 59.5247C110.659 59.5247 109.763 60.0581 109.457 60.6128V65.4491H108.397" fill="#475464"/>
<path d="M117.353 65.4369L114.913 62.3716L113.768 63.4882V65.4369H112.701V56.0134H113.768V62.2436L117.353 58.6165H118.697L115.674 61.7102L118.704 65.4369" fill="#475464"/>
<path d="M122.338 64.5392L122.879 63.7783C123.334 64.2974 124.188 64.7526 125.126 64.7526C126.172 64.7526 126.755 64.2548 126.755 63.5791C126.755 61.922 122.53 62.939 122.53 60.4071C122.53 59.3403 123.434 58.4513 125.062 58.4513C126.236 58.4513 127.054 58.8851 127.587 59.4328L127.089 60.1724C126.677 59.6746 125.944 59.3047 125.055 59.3047C124.166 59.3047 123.54 59.7741 123.54 60.3858C123.54 61.8651 127.765 60.8907 127.765 63.5436C127.765 64.6957 126.847 65.6132 125.098 65.6132C123.974 65.6132 123.042 65.2576 122.345 64.5392" fill="#475464"/>
<path d="M128.734 62.0164C128.734 60.0393 130.149 58.4462 132.098 58.4462C134.16 58.4462 135.377 60.0535 135.377 62.1089V62.372H129.865C129.95 63.6593 130.839 64.7333 132.304 64.7333C133.094 64.7333 133.876 64.4203 134.423 63.8585L134.936 64.5412C134.246 65.224 133.321 65.608 132.226 65.608C130.185 65.608 128.734 64.1501 128.734 62.0164ZM132.084 59.321C130.626 59.321 129.907 60.5442 129.85 61.5826H134.331C134.317 60.5798 133.634 59.321 132.084 59.321Z" fill="#475464"/>
<path d="M136.328 62.0235C136.328 60.0037 137.701 58.4462 139.728 58.4462C140.98 58.4462 141.712 58.9511 142.231 59.6339L141.527 60.2669C141.072 59.641 140.489 59.3921 139.785 59.3921C138.348 59.3921 137.424 60.5016 137.424 62.0164C137.424 63.5313 138.348 64.655 139.785 64.655C140.489 64.655 141.072 64.3705 141.527 63.766L142.231 64.4132C141.712 65.096 140.972 65.608 139.728 65.608C137.701 65.608 136.328 64.0434 136.328 62.0235Z" fill="#475464"/>
<path d="M147.99 65.4368V64.4766C147.464 65.0669 146.575 65.6075 145.551 65.6075C144.129 65.6075 143.382 64.8963 143.382 63.4241V58.6092H144.434V63.104C144.434 64.2988 145.046 64.6544 145.978 64.6544C146.803 64.6544 147.585 64.1779 147.983 63.6161V58.6021H149.043V65.4225H147.983" fill="#475464"/>
<path d="M150.813 65.4348V58.6143H151.873V59.7025C152.421 58.9984 153.217 58.4579 154.149 58.4579V59.5531L153.744 59.5247C153.075 59.5247 152.186 60.0581 151.88 60.6128V65.4491H150.82" fill="#475464"/>
<path d="M154.938 56.9365C154.938 56.5382 155.258 56.2111 155.664 56.2111C156.069 56.2111 156.368 56.5311 156.368 56.9365C156.368 57.3419 156.055 57.6406 155.664 57.6406C155.272 57.6406 154.938 57.3348 154.938 56.9365ZM156.183 65.4354H155.123V58.6149H156.183V65.4354Z" fill="#475464"/>
<path d="M158.16 64.0132V59.554H157.03V58.6223H158.16V56.7589H159.234V58.6223H160.621V59.554H159.234V63.7928C159.234 64.3048 159.462 64.6747 159.917 64.6747C160.23 64.6747 160.493 64.5324 160.628 64.376L160.941 65.1725C160.671 65.4286 160.294 65.6206 159.682 65.6206C158.665 65.6206 158.16 65.0303 158.16 64.0204" fill="#475464"/>
<path d="M72.0118 50.0878V41.9374H69.4088V38.3315H72.0118V34.05H76.1368V38.3315H79.323V41.9374H76.1368V48.9854C76.1368 49.9954 76.656 50.7421 77.5663 50.7421C78.1851 50.7421 78.7612 50.5145 78.9888 50.2585L79.8707 53.402C79.2519 53.9568 78.1495 54.412 76.4284 54.412C73.5338 54.412 72.0118 52.9184 72.0118 50.0878Z" fill="#475464"/>
<path d="M80.2579 46.1624C80.2579 41.6106 83.6362 37.9408 88.3728 37.9408C93.1095 37.9408 96.2317 41.4471 96.2317 46.5464V47.5208H84.575C84.8666 49.4339 86.4241 51.0342 89.0912 51.0342C90.4211 51.0342 92.2418 50.4794 93.2517 49.5051L95.1009 52.2361C93.5433 53.6656 91.0683 54.4124 88.636 54.4124C83.8638 54.4124 80.265 51.1977 80.265 46.1624M88.3728 41.3261C85.8054 41.3261 84.703 43.1113 84.5465 44.6688H92.2703C92.1422 43.1824 91.1039 41.3261 88.3728 41.3261Z" fill="#475464"/>
<path d="M108.366 54.0294V44.5419C108.366 42.3727 107.228 41.6188 105.478 41.6188C103.857 41.6188 102.619 42.5292 101.908 43.4395V54.0294H97.783V38.3401H101.908V40.3529C102.911 39.1865 104.86 37.949 107.391 37.949C110.862 37.949 112.519 39.8977 112.519 42.9559V54.0294H108.366Z" fill="#475464"/>
<path d="M124.275 54.0212V52.3641C123.201 53.6585 121.344 54.4124 119.303 54.4124C116.8 54.4124 113.884 52.7197 113.884 49.2135C113.884 45.5152 116.8 44.1497 119.303 44.1497C121.416 44.1497 123.229 44.8253 124.275 46.0628V44.0856C124.275 42.4925 122.909 41.4542 120.832 41.4542C119.168 41.4542 117.618 42.1014 116.316 43.3033L114.695 40.4087C116.615 38.6876 119.076 37.9408 121.544 37.9408C125.149 37.9408 128.428 39.3703 128.428 43.8865V54.0212H124.275ZM124.275 50.2589V48.3102C123.592 47.3999 122.29 46.9091 120.967 46.9091C119.339 46.9091 118.009 47.7839 118.009 49.2775C118.009 50.771 119.339 51.6173 120.967 51.6173C122.29 51.6173 123.592 51.1622 124.275 50.2589Z" fill="#475464"/>
<path d="M130.193 54.0296V32.3662H134.318V40.3531C135.556 38.7315 137.313 37.9492 139.162 37.9492C143.159 37.9492 146.11 41.0714 146.11 46.1637C146.11 51.2559 143.123 54.4137 139.162 54.4137C137.284 54.4137 135.563 53.5674 134.318 52.0098V54.0296H130.193ZM137.889 50.7439C140.257 50.7439 141.857 48.8947 141.857 46.1637C141.857 43.4326 140.264 41.6119 137.889 41.6119C136.53 41.6119 135.03 42.3943 134.318 43.4326V48.9872C135.037 49.9971 136.537 50.7439 137.889 50.7439Z" fill="#475464"/>
<path d="M151.629 32.3662H147.497V54.0296H151.629V32.3662Z" fill="#475464"/>
<path d="M153.172 46.1624C153.172 41.6106 156.55 37.9408 161.294 37.9408C166.038 37.9408 169.153 41.4471 169.153 46.5464V47.5208H157.489C157.781 49.4339 159.338 51.0342 162.005 51.0342C163.335 51.0342 165.156 50.4794 166.166 49.5051L168.015 52.2361C166.45 53.6656 163.99 54.4124 161.55 54.4124C156.778 54.4124 153.172 51.1977 153.172 46.1624ZM161.294 41.3261C158.727 41.3261 157.624 43.1113 157.468 44.6688H165.192C165.064 43.1824 164.025 41.3261 161.294 41.3261Z" fill="#475464"/>
<path d="M61.0078 37.1439C61.1073 37.4995 61.4558 38.8081 61.7901 40.0527L64.4216 49.8816C64.7558 51.1333 65.1114 52.4348 65.2039 52.7976C65.3319 53.331 65.1754 53.907 64.8056 54.3053C64.5425 54.5756 63.5823 55.5286 62.672 56.439L55.4674 63.6364C54.5571 64.5467 53.6041 65.5069 53.3338 65.77C52.9355 66.1398 52.3595 66.2963 51.8332 66.1754C51.4776 66.0829 50.1618 65.7273 48.9243 65.3931L39.0883 62.7616C37.8437 62.4273 36.5351 62.0788 36.1723 61.9722C35.9021 61.9081 35.6816 61.7517 35.4896 61.5597C35.3047 61.3676 35.1482 61.14 35.07 60.8698C34.9775 60.5142 34.6219 59.2056 34.2876 57.968L31.6562 48.132C31.3219 46.8874 30.9734 45.5788 30.8738 45.2232L31.2508 45.1236L31.6277 45.024C31.7273 45.3868 32.0758 46.6883 32.4029 47.9329L35.0415 57.776C35.3687 59.0206 35.7243 60.3222 35.8238 60.692L36.0301 61.0262L36.3715 61.2396C36.7271 61.3392 38.0428 61.6877 39.2874 62.0219L49.1163 64.6605C50.361 64.9948 51.6696 65.3504 52.0323 65.4429L52.7862 65.2437C53.0493 64.9877 54.0023 64.0204 54.9198 63.1101L62.1172 55.9127C63.0276 55.0165 63.9806 54.0493 64.2438 53.779L64.45 53.0323C64.3504 52.6695 64.0019 51.3538 63.6677 50.1163L61.0291 40.2945C60.7019 39.0499 60.3463 37.7413 60.2468 37.3857L60.0334 37.0443L59.6991 36.8309C59.3435 36.7314 58.0349 36.3829 56.7832 36.0486L46.9543 33.41C45.7097 33.0757 44.401 32.7272 44.0454 32.6277L43.2915 32.8268C43.0284 33.09 42.0683 34.0501 41.1579 34.9604L33.9676 42.1223C33.0572 43.0327 32.0971 43.9928 31.8411 44.2559L31.6419 45.0098L31.265 45.1094L30.8881 45.209C30.7672 44.6756 30.9165 44.0995 31.2934 43.7012C31.5566 43.4381 32.5167 42.4779 33.4271 41.5676L40.6103 34.3772C41.5277 33.4669 42.4808 32.5068 42.7439 32.2507C43.1422 31.8738 43.7183 31.7173 44.2517 31.8382C44.6073 31.9378 45.9159 32.2934 47.1676 32.6206L57.0037 35.2591C58.2483 35.5934 59.5498 35.9419 59.9125 36.0415C60.1756 36.1126 60.4032 36.2691 60.6024 36.4611C60.7873 36.6531 60.9437 36.8807 61.0149 37.1439" fill="#139BAB"/>
<path d="M48.6801 34.5417C48.9361 34.6911 49.9105 35.2529 50.8279 35.7792L58.0965 39.9682C59.0211 40.4945 59.9812 41.0564 60.2515 41.2057C60.6284 41.4404 60.8702 41.8743 60.8915 42.3223V55.686C60.8702 56.134 60.6284 56.5608 60.2515 56.7955C59.9812 56.9519 59.014 57.5138 58.0965 58.0401L50.8279 62.2362C49.9105 62.7696 48.9432 63.3315 48.6801 63.4808L48.0329 63.6373L47.3928 63.4808C47.1297 63.3244 46.1624 62.7696 45.2378 62.2362L37.9693 58.0401C37.0518 57.5138 36.0846 56.9519 35.8214 56.7955L35.9779 56.5181L36.1415 56.2407C36.4117 56.3972 37.379 56.9519 38.2964 57.4853L45.565 61.6815C46.4824 62.2078 47.4497 62.7767 47.7128 62.919L48.0329 62.9972L48.3529 62.919C48.6161 62.7625 49.5833 62.2078 50.5079 61.6815L57.7693 57.4853C58.6868 56.9519 59.6612 56.3972 59.9243 56.2407L60.2515 55.686V42.3295L59.9314 41.7676C59.6612 41.6183 58.6939 41.0564 57.7693 40.5301L50.5079 36.3411C49.5904 35.8006 48.6232 35.2458 48.3529 35.0965L48.0258 35.0253L47.7057 35.0965C47.4426 35.2458 46.4682 35.8006 45.5579 36.3411L38.2893 40.5301C37.3719 41.0564 36.4046 41.6183 36.1344 41.7676L35.8143 42.3295V55.6931L36.1344 56.2478L35.9708 56.5252L35.8143 56.8026C35.4303 56.5679 35.1813 56.1411 35.1671 55.6931C35.1671 55.3944 35.1671 54.2707 35.1671 53.2038V44.8116V42.3295C35.1813 41.8814 35.4231 41.4476 35.8143 41.2129C36.0775 41.0564 37.0518 40.5017 37.9622 39.9754L45.2307 35.7863C46.1482 35.2529 47.1154 34.6911 47.3857 34.5488L48.0258 34.3853L48.673 34.5488" fill="#139BAB"/>
<path d="M39.3387 39.3985C39.6018 39.3345 40.562 39.0713 41.4723 38.8295L48.6911 36.895C49.6085 36.6532 50.5687 36.3901 50.8247 36.319C51.2159 36.2336 51.6355 36.3403 51.9342 36.6177C52.1262 36.8097 52.8303 37.5209 53.4989 38.1823L58.7831 43.4666C59.4517 44.1352 60.1558 44.8393 60.3478 45.0313C60.6252 45.3229 60.7319 45.7496 60.6394 46.1408C60.5683 46.4039 60.3122 47.364 60.0704 48.2744L58.1359 55.4861C57.887 56.4035 57.631 57.3636 57.567 57.6197L57.2612 58.1317L56.7633 58.4376C56.5002 58.5087 55.5329 58.7647 54.6297 59.0065L47.418 60.941C46.5077 61.1828 45.5475 61.4389 45.2773 61.51L45.2062 61.2326L45.1279 60.9553C45.3982 60.877 46.3583 60.6281 47.2687 60.3863L54.4874 58.4518C55.3978 58.1958 56.3579 57.9397 56.6211 57.8757L56.87 57.7192L57.0265 57.4703C57.0976 57.2001 57.3536 56.247 57.5954 55.3296L59.5299 48.1108C59.7788 47.2005 60.0349 46.2403 60.106 45.9772L59.9637 45.4224C59.7717 45.2304 59.0605 44.5263 58.392 43.8578L53.1148 38.5735C52.4463 37.905 51.7422 37.2009 51.5501 37.016L50.9954 36.8666C50.7323 36.9377 49.7721 37.1938 48.8547 37.4356L41.643 39.3701C40.7327 39.6119 39.7654 39.875 39.5094 39.939L39.2605 40.0955L39.104 40.3515C39.0329 40.6147 38.7768 41.5748 38.5279 42.4852L36.5934 49.6968C36.3445 50.6143 36.0956 51.5673 36.0245 51.8376L36.1667 52.3852C36.3658 52.5772 37.0628 53.2884 37.7314 53.9498L43.0156 59.2341C43.6771 59.9027 44.3812 60.5996 44.5803 60.7988L45.1279 60.9481L45.2062 61.2255L45.2773 61.5029C44.8861 61.5953 44.4665 61.4815 44.1749 61.2042C43.9758 61.0193 43.2717 60.3152 42.6031 59.6395L37.326 54.3623C36.6574 53.6938 35.9533 52.9897 35.7613 52.8048C35.4839 52.5061 35.3701 52.0936 35.4626 51.6953C35.5337 51.4322 35.7969 50.472 36.0387 49.5617L37.9732 42.3429C38.2221 41.4326 38.4781 40.4724 38.5421 40.2093L38.848 39.6972L39.3529 39.3914" fill="#139BAB"/>
<path d="M37.4296 59.6117C31.5763 53.7513 31.5763 44.2567 37.4296 38.4035C43.2828 32.5431 52.7846 32.5431 58.6449 38.4035C64.4982 44.2567 64.4982 53.7513 58.6449 59.6117C52.7846 65.4721 43.2899 65.4721 37.4296 59.6117ZM58.1542 59.1423C63.7443 53.5451 63.7656 44.4914 58.1898 38.9084C52.6139 33.3396 43.5602 33.3539 37.963 38.9511C32.3729 44.5483 32.3587 53.602 37.9345 59.1779C43.5104 64.7537 52.5712 64.7466 58.1613 59.1494" fill="#139BAB"/>
<path d="M48.5198 38.147C48.7189 38.2608 49.4373 38.6804 50.1129 39.0645L55.4968 42.1796C56.1724 42.5707 56.8907 42.9904 57.097 43.097C57.3815 43.2748 57.5593 43.5878 57.5735 43.922V53.8221C57.5593 54.1563 57.3815 54.4693 57.097 54.6471C56.8978 54.7609 56.1795 55.1734 55.4968 55.5645L50.1129 58.6725C49.4302 59.0637 48.7189 59.4762 48.5198 59.5971L48.0433 59.7109L47.5668 59.5971C47.3676 59.4762 46.6564 59.0637 45.9737 58.6725L40.5898 55.5645C39.9142 55.1734 39.1959 54.7609 38.9967 54.6471L39.1176 54.4408L39.2385 54.2346C39.4377 54.3484 40.1489 54.7609 40.8316 55.152L46.2155 58.2671C46.8911 58.6583 47.6166 59.0708 47.8086 59.1846L48.0433 59.2415L48.278 59.1846C48.4771 59.0708 49.1955 58.6583 49.8711 58.2671L55.255 55.152C55.9377 54.7609 56.6489 54.3484 56.8481 54.2346L57.0899 53.8221V43.922L56.8481 43.5095C56.6489 43.3958 55.9306 42.9832 55.2478 42.5921L49.864 39.4912C49.1883 39.0929 48.47 38.6875 48.2709 38.5738L48.0362 38.5169L47.8015 38.5738C47.6023 38.6875 46.884 39.0929 46.2013 39.4912L40.8245 42.5921C40.1418 42.9832 39.4306 43.4029 39.2314 43.5095L38.9896 43.922V53.8221L39.2314 54.2346L39.1105 54.4408L38.9896 54.6471C38.7051 54.4693 38.5273 54.1563 38.5131 53.8221V43.922C38.5273 43.5878 38.7051 43.2748 38.9896 43.097C39.1887 42.9832 39.9071 42.5707 40.5827 42.1796L45.9666 39.0645C46.6493 38.6804 47.3605 38.2608 47.5597 38.147L48.0362 38.0261L48.5127 38.147" fill="#139BAB"/>
<path d="M40.1904 56.7242C35.852 52.3787 35.852 45.3519 40.1904 41.0135C44.5288 36.6752 51.5626 36.6752 55.901 41.0135C60.2394 45.3519 60.2394 52.3858 55.901 56.7242C51.5626 61.0625 44.5359 61.0696 40.1904 56.7242ZM55.5241 56.3757C59.6704 52.2293 59.6775 45.5297 55.5525 41.3976C51.4204 37.2655 44.7137 37.2797 40.5744 41.4189C36.4281 45.5653 36.4139 52.272 40.546 56.397C44.6781 60.5291 51.3848 60.5149 55.5241 56.3757Z" fill="#139BAB"/>
</svg>
