<svg width="200" height="100" viewBox="0 0 200 100" fill="none" xmlns="http://www.w3.org/2000/svg">
<path fill-rule="evenodd" clip-rule="evenodd" d="M109.058 41.2685C109.058 42.8188 108.147 44.0795 107.025 44.0795C105.903 44.0795 104.992 42.8188 104.992 41.2685C104.992 39.7181 105.903 38.4634 107.025 38.4634C108.147 38.4634 109.058 39.7181 109.058 41.2685ZM51.1469 29.994L50.3988 34.9646H54.0424L51.8466 50.8479H56.1477L58.3917 34.9646H61.8965L62.5903 29.994H51.1469ZM127.661 29.7768L126.913 34.7475H130.557L128.361 50.6307H132.656L134.9 34.7475H138.405L139.105 29.7768H127.655H127.661ZM72.1214 47.4878C72.3567 45.7867 72.5859 42.3784 71.3734 41.4555C72.1214 40.7678 73.5209 40.3033 73.7079 36.159C73.8949 32.0148 71.9344 30.1327 68.7553 29.9457L62.9643 29.994L60.0205 50.7996H64.2733L65.2988 43.3436C65.2988 43.3436 66.7405 43.3496 66.7466 43.3436C67.8143 43.416 68.1521 43.5849 67.953 45.9013C67.6997 48.1574 67.7841 50.4196 68.0556 50.8056C68.0556 50.8237 70.4203 50.8056 72.5919 50.8056V49.4242C72.5919 49.4242 71.8922 49.195 72.1274 47.4878H72.1214ZM69.5335 36.6235C69.3827 38.6926 67.5006 38.4453 67.5006 38.4453H66.0046L66.5415 34.7173C66.5415 34.7173 68.0737 34.7354 68.0737 34.7173C68.8639 34.7475 69.6843 34.5182 69.5335 36.6235ZM92.553 37.1242C92.9753 32.9981 91.1053 30.1327 87.9262 29.9517L82.1351 30L79.1913 50.8056H83.4442L84.4214 43.7176H86.1225C90.7313 43.7176 92.0885 41.733 92.5591 37.1242H92.553ZM88.3123 36.9915C88.1615 39.0546 86.5991 38.8133 86.5991 38.8133H85.1031L85.658 34.7354C86.0501 34.7354 86.4664 34.7716 87.2385 34.7716C88.0288 34.8018 88.4631 34.8862 88.3123 36.9915ZM104.992 37.1242C105.414 32.9981 103.544 30.1327 100.365 29.9517L94.5679 30L91.6241 50.8056H95.8769L96.8541 43.7176H98.5552C103.164 43.7176 104.521 41.733 104.992 37.1242ZM100.757 36.9915C100.612 39.0546 99.0439 38.8133 99.0439 38.8133H97.5478L98.1028 34.7354C98.4949 34.7354 98.9112 34.7716 99.6833 34.7716C100.474 34.8018 100.914 34.8862 100.763 36.9915H100.757ZM80.3496 29.9638H76.1812L73.1831 50.7694H77.3515L80.3496 29.9638ZM113.817 45.6842L115.965 29.9638H111.712L109.564 45.6902L108.859 50.8358H119.403L120.109 45.6902H113.823L113.817 45.6842ZM127.04 29.7889H122.733L119.831 50.5643H124.132L127.04 29.7889ZM148.913 34.7233L149.601 29.7406H139.708V29.7889H139.551L137.325 45.7264H137.283L136.613 50.5764H146.917L147.586 45.7264H141.632L142.121 42.2216H147.387L148.057 37.3715H142.803L143.177 34.7233H148.926H148.913Z" fill="#040404"/>
<path d="M80.7203 70.2594L81.8423 66.652H77.6799V65.5662H82.168L83.2418 62.0855H77.6799V61.06H83.5494L84.6835 57.3742H73.1919V70.2594H80.7263M117.572 65.4697L115.141 57.3682H108.928V70.2534H112.806V62.176H112.837L115.237 70.2534H121.517V57.3682H117.602V65.4697H117.572ZM105.013 66.9536C106.448 66.9536 107.57 65.8135 107.57 64.3658C107.57 62.918 106.509 61.6391 105.073 61.6391C103.637 61.6391 102.503 62.918 102.503 64.3658C102.503 65.8135 103.571 66.9536 105.007 66.9536H105.013ZM102.956 57.3682H91.0054V61.054H94.7757V70.2534H100.844C100.464 70.0302 97.8884 68.0395 97.8884 64.2934C97.8884 61.1927 99.8187 58.1464 102.95 57.3622L102.956 57.3682ZM86.6983 66.839L85.6366 70.2534H91.856L90.8607 66.839H86.6983ZM88.8217 59.8415L90.0101 63.9495H87.5851L88.8217 59.8415Z" fill="#007BC1"/>
<path d="M59.1727 60.4519H60.2223L62.587 65.8931C62.7197 65.4588 65.006 60.4519 65.006 60.4519H66.0013L62.0199 70.0072H60.9221L62.0441 67.1539L59.1727 60.4519Z" fill="black"/>
<path d="M52.7514 57.3689H51.9008V67.3645H52.7514V57.3689Z" fill="black"/>
<path d="M55.1233 60.2039C53.398 60.2039 51.9985 61.8205 51.9985 63.8172C51.9985 65.814 53.398 67.4306 55.1233 67.4306C56.8486 67.4306 58.2481 65.814 58.2481 63.8172C58.2481 61.8205 56.8486 60.2039 55.1233 60.2039ZM55.1233 66.6223C53.7781 66.6223 52.6923 65.3615 52.6923 63.8112C52.6923 62.2609 53.7781 61.0001 55.1233 61.0001C56.4685 61.0001 57.5543 62.2609 57.5543 63.8112C57.5543 65.3615 56.4685 66.6223 55.1233 66.6223Z" fill="black"/>
</svg>
