<svg width="200" height="100" viewBox="0 0 200 100" fill="none" xmlns="http://www.w3.org/2000/svg">
<path d="M71.5435 53.5637C71.5435 55.9041 72.7665 57.1023 75.2373 57.1023C77.708 57.1023 78.931 55.9352 78.931 53.5637V41.2347H81.8674V53.5079C81.8674 55.6434 81.3149 57.1892 80.1788 58.1825C79.0738 59.1757 77.4163 59.6413 75.2062 59.6413C72.9962 59.6413 71.3387 59.1447 70.2337 58.1825C69.1286 57.1892 68.5761 55.6434 68.5761 53.5079V41.2347H71.5125V53.5637H71.5435Z" fill="#131520"/>
<path d="M85.4494 65.0485V46.1143H88.2988V46.9337C89.5218 46.2012 90.6578 45.8225 91.7008 45.8225C93.4452 45.8225 94.724 46.3502 95.5125 47.4304C96.3257 48.5106 96.7354 50.2922 96.7354 52.8065C96.7354 55.3207 96.2698 57.1024 95.3386 58.1267C94.4074 59.151 92.8927 59.6725 90.8317 59.6725C90.1053 59.6725 89.2921 59.5855 88.3299 59.4365V65.0485H85.4494ZM91.1793 48.3926C90.3661 48.3926 89.5218 48.5664 88.7085 48.9451L88.2988 49.1189V56.9223C89.0003 57.0651 89.7825 57.1272 90.6268 57.1272C91.8187 57.1272 92.632 56.7795 93.0976 56.1029C93.5632 55.4014 93.7929 54.2343 93.7929 52.5706C93.7929 49.7956 92.9175 48.3926 91.1731 48.3926" fill="#131520"/>
<path d="M107.297 52.4269V49.8257H112.443V59.0321C111.977 59.1501 111.015 59.2929 109.562 59.4419C108.11 59.5908 107.061 59.6467 106.421 59.6467C103.684 59.6467 101.796 58.8893 100.747 57.3684C99.698 55.8475 99.2076 53.4822 99.2076 50.2417C99.2076 47.0011 99.729 44.6297 100.809 43.1708C101.883 41.6809 103.721 40.9484 106.334 40.9484C107.874 40.9484 109.625 41.1222 111.543 41.476L112.474 41.6499L112.356 43.9903C110.233 43.6985 108.315 43.5805 106.626 43.5805C104.938 43.5805 103.777 44.0461 103.162 45.0146C102.554 45.9768 102.231 47.7337 102.231 50.3037C102.231 52.8738 102.523 54.6555 103.106 55.6488C103.69 56.6421 104.882 57.1077 106.688 57.1077C107.967 57.1077 108.929 57.0208 109.569 56.8718V52.4331H107.297V52.4269Z" fill="#131520"/>
<path d="M123.735 46.114H126.585V59.3494H123.735V58.5299C122.456 59.2625 121.264 59.6411 120.184 59.6411C118.378 59.6411 117.161 59.1445 116.546 58.1823C115.938 57.189 115.615 55.4942 115.615 53.0421V46.1202H118.496V53.0731C118.496 54.6499 118.645 55.7301 118.905 56.2888C119.166 56.8414 119.781 57.1083 120.737 57.1083C121.693 57.1083 122.568 56.9345 123.357 56.5806L123.766 56.4316V46.1202H123.735V46.114Z" fill="#131520"/>
<path d="M139.828 50.2049V56.2514C139.859 56.6301 139.946 56.9219 140.12 57.0957C140.294 57.2695 140.586 57.3875 140.964 57.4434L140.877 59.6348C139.363 59.6348 138.202 59.312 137.357 58.6415C135.961 59.2871 134.533 59.6348 133.111 59.6348C130.491 59.6348 129.182 58.2318 129.182 55.4258C129.182 54.0786 129.529 53.1164 130.256 52.5018C130.957 51.8872 132.062 51.5396 133.546 51.4216L136.948 51.1299V50.1676C136.948 49.4661 136.805 48.9695 136.482 48.6777C136.159 48.386 135.725 48.237 135.116 48.237C133.98 48.237 132.584 48.2928 130.895 48.4418L130.051 48.4977L129.933 46.4553C131.851 45.9897 133.602 45.7538 135.228 45.7538C136.855 45.7538 137.991 46.1076 138.717 46.8029C139.474 47.5603 139.822 48.6715 139.822 50.1925M133.918 53.4765C132.695 53.5944 132.087 54.2338 132.087 55.463C132.087 56.6922 132.608 57.3068 133.689 57.3068C134.564 57.3068 135.495 57.1578 136.482 56.8971L136.948 56.7481V53.1847L133.924 53.4765H133.918Z" fill="#131520"/>
<path d="M143.436 59.3496V46.1143H146.285V47.6911C147.769 46.7289 149.284 46.0832 150.767 45.8225V48.7154C149.253 49.0072 147.974 49.4169 146.9 49.8825L146.316 50.1184V59.3496H143.436Z" fill="#131520"/>
<path d="M163.568 40.6199V59.3493H160.718V58.6478C159.439 59.2934 158.247 59.641 157.198 59.641C155.485 59.641 154.2 59.1134 153.418 58.0953C152.629 57.0461 152.226 55.3203 152.226 52.862C152.226 50.4036 152.66 48.6281 153.567 47.5169C154.442 46.4057 155.839 45.8532 157.726 45.8532C158.365 45.8532 159.352 45.9711 160.724 46.2008V40.6509H163.574V40.6199H163.568ZM160.253 56.6054L160.687 56.4315V48.5723C159.638 48.3984 158.651 48.3115 157.751 48.3115C155.975 48.3115 155.075 49.8014 155.075 52.7502C155.075 54.3891 155.28 55.4941 155.684 56.1398C156.093 56.7543 156.757 57.0772 157.664 57.0772C158.57 57.0772 159.439 56.9344 160.253 56.6116" fill="#131520"/>
<path d="M60.7309 49.9006C59.9177 51.6823 58.9865 53.3212 58.1422 54.7242C57.2669 56.2451 56.4288 57.6171 55.3486 59.138C54.9389 59.7216 54.4733 60.3672 53.9518 61.0377C52.6109 62.7014 50.5747 64.2224 48.3336 63.6078C46.0615 62.9621 44.8448 60.8887 43.5597 59.076C41.5794 56.3321 39.717 53.3212 38.2085 49.9875C36.762 46.7718 35.4211 42.7118 37.4883 39.4402C38.0409 38.5649 38.7672 37.8634 39.5804 37.2798C40.1329 36.9012 40.7413 36.6094 41.3559 36.3424C45.6021 34.5856 50.8975 34.6477 55.2928 35.672C56.6585 35.9948 57.9373 36.4604 59.0734 37.1619C59.8308 37.6275 60.5012 38.2421 61.0537 38.9746C61.898 40.0858 62.3077 41.2529 62.4195 42.4511C62.7423 44.9343 61.8111 47.5664 60.7309 49.9006Z" fill="#131520"/>
</svg>
