<svg width="200" height="100" viewBox="0 0 200 100" fill="none" xmlns="http://www.w3.org/2000/svg">
<path d="M65.6033 40.6086C64.7238 40.1288 63.651 40.4953 63.1979 41.4148L56.7547 55.2875C56.6014 55.5873 56.4748 55.7939 56.135 55.7939C55.7952 55.7939 55.6619 55.5873 55.5153 55.2875L49.0721 41.4148C48.619 40.4886 47.5462 40.1288 46.6667 40.6086C45.7938 41.0817 45.4473 42.2144 45.9004 43.1406L52.1904 55.9804L52.9034 57.4397C53.5297 58.719 54.7691 59.5119 56.135 59.5119C57.5009 59.5119 58.7403 58.719 59.3666 57.4397L60.0796 55.9804L66.3763 43.1406C66.8227 42.2211 66.4829 41.0883 65.6033 40.6086Z" fill="#00B336"/>
<path d="M151.087 40.3947C149.875 40.3947 148.815 41.1476 148.309 42.187C146.67 45.5253 141.859 55.46 141.839 55.4933C141.805 55.5533 141.699 55.7865 141.492 55.7865C141.299 55.7865 141.186 55.5666 141.146 55.4933C139.553 52.1951 136.402 45.6852 134.749 42.3136C134.116 41.0143 133.05 40.3947 131.897 40.3947C130.125 40.3947 128.692 41.8939 128.692 43.9261V57.5789C128.692 58.4118 129.165 59.178 129.898 59.4179C131.084 59.8044 132.104 58.7716 132.104 57.5389L131.857 44.226C131.857 44.086 132.024 44.0394 132.084 44.1593L138.654 57.459C139.267 58.7316 140.32 59.4912 141.492 59.4912C142.665 59.4912 143.718 58.7316 144.331 57.459L150.907 44.1593C150.974 44.0327 151.141 44.086 151.141 44.2326L150.887 57.6189C150.887 58.6783 151.68 59.5312 152.646 59.4979C153.579 59.4646 154.299 58.5717 154.299 57.5389V43.9328C154.299 41.8739 152.86 40.4013 151.087 40.3947Z" fill="#00B336"/>
<path d="M126.503 56.7332L119.26 42.4475C118.634 41.1748 117.394 40.3885 116.035 40.3885C115.182 40.3885 114.382 40.6951 113.743 41.2414C113.363 41.5679 113.036 41.9744 112.803 42.4475L105.6 56.6666C105.6 56.6666 105.587 56.6999 105.58 56.7132L105.567 56.7332C105.234 57.3929 105.314 58.1725 105.707 58.7388C105.72 58.7522 105.727 58.7655 105.74 58.7855C105.754 58.8055 105.767 58.8188 105.774 58.8321C105.9 58.9987 106.06 59.1453 106.247 59.2586C106.86 59.625 107.579 59.5717 108.126 59.1919C108.132 59.1919 108.139 59.1786 108.146 59.1786C108.186 59.152 108.226 59.1186 108.259 59.092C108.292 59.0653 108.319 59.0387 108.346 59.012C108.359 58.9987 108.372 58.9854 108.386 58.9787C108.512 58.8454 108.625 58.6922 108.712 58.519L108.979 57.9526L110.485 54.7943C110.524 54.7143 110.604 54.661 110.684 54.661H117.341C118.234 54.661 118.953 53.9014 118.953 52.9619C118.953 52.0224 118.227 51.2628 117.341 51.2628H112.37C112.264 51.2628 112.197 51.1495 112.237 51.0496L112.61 50.2633L115.329 44.7796L115.342 44.7529C115.342 44.7529 115.355 44.7329 115.355 44.7196C115.402 44.6263 115.542 44.2398 115.808 44.1599C115.955 44.1132 116.108 44.1199 116.208 44.1532C116.481 44.2332 116.608 44.573 116.728 44.8262L123.331 58.5323C123.651 59.1653 124.271 59.5318 124.91 59.5318C125.11 59.5318 125.317 59.4918 125.517 59.4185C125.53 59.4185 125.543 59.4118 125.55 59.4052C125.597 59.3852 125.643 59.3585 125.69 59.3319C125.71 59.3252 125.723 59.3185 125.743 59.3052C125.756 59.3052 125.763 59.2919 125.77 59.2852C125.783 59.2786 125.796 59.2719 125.81 59.2586C125.83 59.2452 125.85 59.2319 125.87 59.2186C125.89 59.2053 125.903 59.1919 125.916 59.1853C125.943 59.1653 125.97 59.1453 125.996 59.1253C126.023 59.0986 126.056 59.0787 126.083 59.052C126.09 59.0453 126.096 59.0387 126.103 59.032C126.696 58.459 126.869 57.5261 126.476 56.7532L126.503 56.7332Z" fill="#00B336"/>
<path d="M70.4674 52.0222H82.6543C82.8875 52.0222 84.7731 51.8689 84.7731 49.7367C84.7731 44.4862 80.7153 40.2151 75.7246 40.2151C70.7339 40.2151 66.6827 44.4862 66.6827 49.7434C66.6827 49.8633 66.6894 50.1965 66.6894 50.2431C66.6827 56.2399 70.534 59.4716 75.638 59.7647C75.8845 59.7781 76.1177 59.7847 76.3509 59.7847C78.3099 59.7847 79.969 59.2783 81.7681 58.1389C81.9546 58.0257 82.6742 57.5459 83.4072 56.5997C83.9935 55.8468 84.0402 54.7207 83.4072 54.1344C82.4943 53.2882 81.5482 53.7479 80.7086 54.4609C79.3893 55.587 78.3632 56.4598 75.7313 56.4665C73.2459 56.4665 70.9005 55.0472 70.3408 52.2221C70.3208 52.1221 70.3741 52.0355 70.4674 52.0355V52.0222ZM70.3274 48.504C70.6673 45.7522 72.5596 43.3134 75.7113 43.3134C78.8629 43.3134 80.8619 45.7055 81.1817 48.504C81.195 48.604 81.1284 48.7039 81.0284 48.7039H70.4807C70.3808 48.7039 70.3141 48.6106 70.3274 48.504Z" fill="#00B336"/>
<path d="M90.5206 52.0222H102.707C102.941 52.0222 104.826 51.8689 104.826 49.7367C104.826 44.4862 100.768 40.2151 95.7778 40.2151C90.7871 40.2151 86.7292 44.4862 86.7292 49.7434C86.7292 49.8633 86.7359 50.1965 86.7359 50.2431C86.7292 56.2399 90.5805 59.4716 95.6845 59.7647C95.931 59.7781 96.1642 59.7847 96.3974 59.7847C98.3564 59.7847 100.016 59.2783 101.815 58.1389C102.001 58.0257 102.721 57.5459 103.454 56.5997C104.04 55.8468 104.087 54.7207 103.454 54.1344C102.541 53.2882 101.595 53.7479 100.755 54.4609C99.4358 55.587 98.4097 56.4598 95.7778 56.4665C93.2924 56.4665 90.947 55.0472 90.3873 52.2221C90.3673 52.1221 90.4206 52.0355 90.5139 52.0355L90.5206 52.0222ZM90.3806 48.504C90.7205 45.7522 92.6128 43.3134 95.7644 43.3134C98.9161 43.3134 100.915 45.7055 101.235 48.504C101.248 48.604 101.182 48.7039 101.082 48.7039H90.5272C90.4339 48.7039 90.3606 48.6106 90.374 48.504H90.3806Z" fill="#00B336"/>
</svg>
