<svg width="200" height="100" viewBox="0 0 200 100" fill="none" xmlns="http://www.w3.org/2000/svg">
<path d="M53.9716 49.9126L60.1298 43.5218L68.2943 43.4171C65.6077 38.2475 60.1996 34.7119 53.9716 34.7119C47.7437 34.7119 42.3356 38.2475 39.6432 43.4171L47.5401 43.5218L53.9716 49.9126Z" fill="#272727"/>
<path d="M39.6078 43.4852C38.4738 45.695 37.8283 48.1955 37.8283 50.8472C37.8283 57.0926 41.3814 62.5123 46.5743 65.1931L53.8548 57.8835L39.6078 43.4852Z" fill="#272727"/>
<path d="M70.1075 50.8548C70.1075 48.174 69.4504 45.6503 68.2932 43.4231L53.8543 57.8911L61.1871 65.2879C66.4731 62.6362 70.1075 57.17 70.1075 50.8548Z" fill="#272727"/>
<path d="M82.9332 43.4463L79.1301 43.4754L84.7126 58.1353H88.0912L93.6097 43.4754L89.9695 43.4637L86.3757 53.2564L82.9332 43.4463Z" fill="#272727"/>
<path d="M96.3973 43.3826V58.1355H107.051V55.0942H99.7468V52.0529H105.678V49.1628H99.7468V46.5751H107.051V43.3826H96.3973Z" fill="#272727"/>
<path d="M149.146 43.4463L145.343 43.4754L150.931 58.1353H154.31L159.823 43.4754L156.182 43.4637L152.589 53.2564L149.146 43.4463Z" fill="#272727"/>
<path d="M132.297 43.3804H128.645V58.1333H132.297V43.3804Z" fill="#272727"/>
<path d="M136.707 43.3804H124.234V46.5729H136.707V43.3804Z" fill="#272727"/>
<path d="M142.639 43.3826H139.296V58.1355H142.639V43.3826Z" fill="#272727"/>
<path d="M159.065 56.0061H158.762V58.2856H159.065V56.0061Z" fill="#272727"/>
<path d="M160.436 55.8553H160.134V58.2919H160.436V55.8553Z" fill="#272727"/>
<path d="M160.16 55.8553L161.032 58.2919H161.218L161.311 57.9372L160.55 55.8553H160.16Z" fill="#272727"/>
<path d="M162.172 55.8553L161.3 58.2919H161.119L161.02 57.9372L161.782 55.8553H162.172Z" fill="#272727"/>
<path d="M162.108 55.8553H161.805V58.2919H162.108V55.8553Z" fill="#272727"/>
<path d="M159.984 55.8553H158.006V56.1577H159.984V55.8553Z" fill="#272727"/>
<path d="M114.194 43.3802H110.85V58.1332H114.194V43.3802Z" fill="#272727"/>
<path d="M114.205 43.3688H117.02C117.369 43.3688 117.915 43.4211 117.991 43.4327C118.753 43.5607 122.341 44.369 122.341 48.3989C122.341 52.4287 118.154 53.1324 117.514 53.2021C117.468 53.2021 117.421 53.2079 117.369 53.2079H114.199C113.426 53.2079 113.426 50.3992 114.199 50.3992H117.124C117.34 50.3992 117.555 50.3469 117.752 50.2539C118.206 50.0271 118.91 49.4979 118.91 48.4047C118.91 47.1486 117.892 46.7299 117.438 46.602C117.322 46.5671 117.2 46.5555 117.072 46.5555H114.199C113.426 46.5555 113.426 43.3746 114.199 43.3746L114.205 43.3688Z" fill="#272727"/>
<path d="M115.568 53.122L119.103 58.1347H122.947L118.126 51.3193L115.568 53.122Z" fill="#272727"/>
</svg>
