<svg width="200" height="100" viewBox="0 0 200 100" fill="none" xmlns="http://www.w3.org/2000/svg">
<path fill-rule="evenodd" clip-rule="evenodd" d="M45.7312 53.1074C46.6923 50.8648 47.5894 48.6862 48.4864 46.5718C48.8708 45.6748 49.2553 44.7777 49.6397 43.9448C51.626 39.7159 56.816 39.3314 59.7634 42.2148C60.276 42.7274 60.5323 42.5992 60.9808 42.2148C63.2234 40.4207 65.7864 39.7799 68.6057 40.677C69.5027 40.9974 70.3357 41.4459 70.9764 42.1507C71.4249 42.6633 71.6812 42.5992 72.1297 42.1507C74.5646 40.2285 77.3197 39.5877 80.2031 40.8051C82.5738 41.8303 83.9194 43.7525 83.9194 46.4437C83.9194 49.9037 83.9194 53.3637 83.9194 56.8237C83.9194 58.7459 82.702 59.8992 80.8438 59.7711C79.4342 59.707 78.4731 58.4896 78.409 56.8237C78.409 54.0044 78.409 51.1211 78.409 48.3018C78.409 48.0455 78.409 47.8533 78.409 47.597C78.2808 46.1233 77.3838 45.1622 76.0383 44.9699C74.5005 44.7777 73.2831 45.5466 72.8986 46.8922C72.7705 47.3407 72.7705 47.7251 72.7705 48.1736C72.7705 50.9929 72.7705 53.8122 72.7705 56.6314C72.7705 58.2333 72.0016 59.3225 70.7842 59.6429C69.1183 60.0914 67.6446 59.1303 67.3883 57.4644C67.3242 57.0799 67.3242 56.6955 67.3242 56.3111C67.3242 53.4918 67.3242 50.6085 67.3242 47.7892C67.3242 46.6999 66.9397 45.7388 65.8505 45.2903C64.7612 44.7777 63.672 44.8418 62.6468 45.6107C61.8138 46.2514 61.6216 47.1485 61.6216 48.1096C61.6216 51.057 61.6216 54.0044 61.6216 56.8877C61.6216 58.6818 60.4683 59.7711 58.7383 59.7711C57.2005 59.7711 56.1112 58.5536 56.1112 56.7596C56.1112 53.2996 56.1112 49.9037 56.1112 46.4437C56.1112 42.9837 56.1112 46.0592 56.1112 45.867C56.1112 45.4825 55.919 45.1622 55.5346 45.034C55.086 44.9059 54.7657 45.0981 54.5734 45.5466C53.9968 46.764 53.4201 47.9814 52.9075 49.1988C51.7542 51.6977 50.6008 54.2607 49.4475 56.7596C49.1912 57.2722 48.8708 57.8488 48.5505 58.2974C47.1408 60.2837 44.3857 60.2837 42.912 58.2974C42.2071 57.4003 41.8227 56.3111 41.3101 55.2859C39.5801 51.5696 37.9142 47.8533 36.1842 44.137C35.4794 42.5351 35.9279 41.0614 37.4016 40.4207C38.8753 39.7159 40.4131 40.4207 41.0538 42.0225C42.5275 45.4185 43.9371 48.8785 45.4108 52.2744C45.4749 52.4666 45.6031 52.6588 45.7312 52.9792V53.1074Z" fill="#727175"/>
<path fill-rule="evenodd" clip-rule="evenodd" d="M98.6574 45.4186C97.9525 47.4049 97.2477 49.3912 96.5429 51.4416C95.71 53.7483 94.877 56.119 94.1081 58.4257C93.7877 59.3227 93.3392 59.7072 92.6344 59.7072C91.8655 59.7072 91.2888 59.3227 90.9685 58.4897C89.0463 53.2357 87.1881 47.9175 85.2659 42.6635C84.9455 41.7664 85.2659 41.0616 86.0348 40.8053C86.8677 40.4849 87.6366 40.8694 87.957 41.8305C89.4307 45.9953 90.8403 50.1601 92.25 54.2609C92.314 54.5172 92.4422 54.8375 92.5703 55.222C93.2751 53.2357 93.9159 51.3775 94.5566 49.4553C95.4537 46.9564 96.2866 44.4575 97.1837 41.9586C97.504 40.9335 97.8885 40.6772 98.7214 40.6772C99.5544 40.6772 99.9388 40.9975 100.259 41.9586C101.669 46.0594 103.078 50.1601 104.488 54.1968C104.616 54.4531 104.68 54.7734 104.808 55.1579C105.513 53.0434 106.218 51.1212 106.923 49.1349C107.756 46.7001 108.653 44.2653 109.486 41.8305C109.678 41.3179 109.934 40.8053 110.575 40.6772C111.728 40.4849 112.497 41.382 112.113 42.4712C111.664 43.8168 111.152 45.1623 110.639 46.572C109.23 50.4164 107.884 54.3249 106.474 58.1694C106.474 58.2975 106.41 58.3616 106.346 58.4897C106.026 59.2586 105.449 59.6431 104.744 59.6431C104.04 59.6431 103.527 59.2586 103.271 58.4257C102.63 56.5035 101.925 54.6453 101.284 52.7231C100.516 50.4164 99.6825 48.1097 98.9137 45.8672C98.9137 45.6749 98.9137 45.4827 98.5933 45.3546L98.6574 45.4186Z" fill="#737276"/>
<path fill-rule="evenodd" clip-rule="evenodd" d="M125.89 56.7592C124.609 58.297 123.135 59.2581 121.277 59.5785C118.522 60.091 115.959 59.8347 113.844 57.7844C111.281 55.3496 111.858 50.9925 114.933 49.1984C116.279 48.4296 117.753 48.1092 119.226 47.981C121.277 47.8529 123.263 47.981 125.249 48.5577C125.826 48.6859 125.89 48.5577 125.89 48.0451C125.89 45.1618 124.16 43.3036 121.341 43.1755C119.547 43.0473 117.817 43.1755 116.151 43.9444C115.446 44.2647 114.741 43.9444 114.485 43.3036C114.229 42.6629 114.485 42.0222 115.062 41.7659C118.329 40.4203 121.661 40.164 124.929 41.5096C127.172 42.4066 128.197 44.3288 128.453 46.6355C128.709 49.0703 128.517 51.5051 128.581 53.9399C128.581 55.3496 128.581 56.7592 128.581 58.2329C128.581 59.1299 128.133 59.6425 127.364 59.7707C126.531 59.8347 125.89 59.3221 125.826 58.4892C125.826 58.0407 125.826 57.5281 125.826 56.8873L125.89 56.7592ZM120.7 50.0955C119.29 50.0955 117.881 50.2877 116.599 51.1207C114.677 52.4022 114.613 55.2214 116.471 56.631C117.881 57.7203 119.483 57.8484 121.213 57.5281C123.391 57.0796 125.185 56.0544 125.826 53.7477C126.018 53.0429 125.89 52.274 125.954 51.5051C125.954 51.0566 125.826 50.8644 125.378 50.7362C123.84 50.3518 122.302 50.1596 120.7 50.0955Z" fill="#737276"/>
<path fill-rule="evenodd" clip-rule="evenodd" d="M151.711 51.2488C149.661 51.2488 147.611 51.2488 145.56 51.2488C145.048 51.2488 144.92 51.377 145.048 51.8896C145.56 54.3244 146.778 56.2466 149.148 57.0155C151.776 57.9125 154.146 57.2718 156.261 55.4777C156.581 55.1573 156.901 54.901 157.414 54.9651C157.927 54.9651 158.311 55.2855 158.439 55.734C158.631 56.2466 158.439 56.6951 158.119 57.0796C156.773 58.361 155.235 59.3221 153.441 59.6425C150.366 60.2192 147.483 59.6425 145.112 57.464C143.51 55.9903 142.613 54.1962 142.293 52.0818C141.78 48.814 142.421 45.8025 144.727 43.3036C147.034 40.8047 149.917 40.0999 153.121 40.9329C156.325 41.7659 158.119 44.0725 158.952 47.1481C159.208 47.981 159.272 48.814 159.272 49.647C159.272 50.8003 158.824 51.1847 157.67 51.1847C155.684 51.1847 153.634 51.1847 151.647 51.1847L151.711 51.2488ZM150.75 49.1344H154.851C156.133 49.1344 156.581 48.515 156.197 47.2762C155.236 43.9444 152.288 42.2144 149.213 43.1755C146.65 43.9444 145.304 46.3151 144.92 48.7499C144.856 49.1984 145.176 49.1344 145.432 49.1344C147.162 49.1344 148.892 49.1344 150.686 49.1344H150.75Z" fill="#737276"/>
<path fill-rule="evenodd" clip-rule="evenodd" d="M134.731 44.9696C135.628 43.3037 136.845 42.0863 138.447 41.3174C139.28 40.933 140.113 40.6767 141.01 40.6767C141.779 40.6767 142.292 41.1252 142.356 41.83C142.42 42.663 142.035 43.2396 141.267 43.4319C140.946 43.4959 140.562 43.56 140.241 43.6241C137.166 44.393 135.115 46.7637 134.731 50.1596C134.411 52.7867 134.667 55.4778 134.603 58.1048C134.603 59.13 133.834 59.7708 132.937 59.5785C132.232 59.4504 131.848 58.9378 131.848 58.1048C131.848 56.1185 131.848 54.0682 131.848 52.0819C131.848 48.8141 131.848 45.5463 131.848 42.2785C131.848 41.3174 132.36 40.6126 133.193 40.6126C134.09 40.6126 134.603 41.2533 134.603 42.2785C134.603 43.1115 134.603 43.9445 134.603 44.7774C134.603 44.7774 134.603 44.7774 134.603 45.0337L134.731 44.9696Z" fill="#727175"/>
<path fill-rule="evenodd" clip-rule="evenodd" d="M164.143 42.9193C164.143 44.2648 163.181 45.2259 161.836 45.2259C160.49 45.2259 159.529 44.2648 159.529 42.9193C159.529 41.5737 160.554 40.6126 161.836 40.6126C163.181 40.6126 164.143 41.5737 164.143 42.9193ZM161.836 41.1252C160.811 41.1252 159.978 41.8941 159.978 42.9193C159.978 43.9445 160.811 44.8415 161.836 44.8415C162.797 44.8415 163.694 43.9445 163.694 42.9833C163.694 41.9582 162.861 41.1252 161.836 41.1252Z" fill="#737276"/>
<path fill-rule="evenodd" clip-rule="evenodd" d="M161.64 41.8301C162.729 41.8301 162.986 42.2146 162.537 43.1116C162.409 43.3679 162.537 43.432 162.665 43.5601C162.729 43.6883 162.793 43.8805 162.665 44.0087C162.537 44.1368 162.345 44.0086 162.281 43.8805C162.217 43.7524 162.089 43.6883 162.024 43.5601C161.832 43.3038 161.576 43.1116 161.512 43.6883C161.512 43.8805 161.448 44.0727 161.191 44.0727C160.935 44.0727 160.999 43.8164 160.999 43.6242C160.999 43.3038 160.999 42.9835 160.999 42.6631C160.999 42.0864 160.999 41.6379 161.704 41.8301H161.64ZM162.281 42.5349C162.217 42.3427 162.024 42.2786 161.832 42.2786C161.64 42.2786 161.512 42.3427 161.512 42.599C161.512 42.8553 161.64 42.9194 161.832 42.9194C162.024 42.9194 162.217 42.8553 162.281 42.599V42.5349Z" fill="#737276"/>
<path fill-rule="evenodd" clip-rule="evenodd" d="M162.282 42.5345C162.282 42.7906 162.026 42.8546 161.834 42.8546C161.642 42.8546 161.514 42.8546 161.514 42.5345C161.514 42.2784 161.642 42.2144 161.834 42.2144C162.026 42.2144 162.218 42.2144 162.282 42.4705V42.5345Z" fill="#FEFEFE"/>
</svg>
