<svg width="200" height="100" viewBox="0 0 200 100" fill="none" xmlns="http://www.w3.org/2000/svg">
<path d="M85.8432 52.8765C85.8944 52.984 86.0429 52.9789 86.0838 52.8714L89.9438 42.8017C90.1281 42.3205 90.5888 42.0082 91.1007 42.0031L94.6996 41.9826C95.3856 41.9826 95.9487 42.5304 95.9538 43.2164C95.9538 43.3648 95.9282 43.5133 95.877 43.6566L87.1691 67.1695C87.1538 67.2054 86.8671 67.4562 86.6879 67.5944C86.6009 67.661 86.4934 67.6712 86.3807 67.6405C86.0275 67.5381 85.7357 67.2822 85.5924 66.9392L80.9441 55.7382C80.7956 55.4054 80.4014 55.2621 80.0738 55.4105C79.9356 55.472 79.8229 55.5795 79.7564 55.7126L73.9306 67.3692C73.8999 67.4357 73.818 67.4613 73.7514 67.4255C73.7207 67.4102 73.7003 67.3846 73.69 67.3538L64.5777 43.6669C64.332 43.027 64.6493 42.3052 65.2893 42.0594C65.4326 42.0031 65.5862 41.9775 65.7398 41.9775H69.6509C70.1679 41.9775 70.6287 42.2949 70.813 42.7761L74.6729 52.8714C74.7139 52.9789 74.8675 52.984 74.9135 52.8816L79.7769 42.2898C79.9304 41.957 80.3195 41.8137 80.6523 41.9673C80.7956 42.0338 80.9133 42.1465 80.9748 42.2898L85.8381 52.8816L85.8432 52.8765ZM130.166 32.4505C130.135 32.3072 129.833 32.3072 129.803 32.4505C129.577 33.5512 129.106 35.2149 128.226 36.1006C127.345 36.9862 125.682 37.4521 124.576 37.6773C124.432 37.708 124.432 38.0101 124.576 38.0408C125.676 38.266 127.34 38.737 128.226 39.6175C129.378 40.7745 129.777 42.3512 129.915 43.2983C129.925 43.3597 130.115 43.3648 130.125 43.3085C130.33 42.2949 130.806 40.5646 131.748 39.6226C132.634 38.737 134.297 38.2712 135.398 38.0408C135.541 38.0101 135.541 37.708 135.398 37.6773C134.297 37.4521 132.634 36.9811 131.748 36.1006C130.862 35.2201 130.396 33.5563 130.166 32.4505ZM97.3155 43.3597C97.3155 42.6686 97.8735 42.1157 98.5595 42.1157H102.322C103.013 42.1157 103.566 42.6737 103.566 43.3597V66.3965C103.566 67.0825 103.008 67.6405 102.322 67.6405H98.5595C97.8735 67.6405 97.3155 67.0825 97.3155 66.3965V43.3546V43.3597ZM114.429 48.6991C114.511 48.5353 114.445 48.3408 114.281 48.2589C114.235 48.2384 114.184 48.2231 114.132 48.2231H106.694C106.008 48.2231 105.45 47.6651 105.45 46.9791V43.3546C105.45 42.6686 106.008 42.1106 106.694 42.1106H123.849C124.381 42.1106 125.098 42.5458 124.842 43.0116L114.931 61.5537C114.849 61.7175 114.911 61.9172 115.069 62.0042C115.115 62.0298 115.167 62.04 115.218 62.04H124.279C124.965 62.04 125.523 62.598 125.523 63.284V66.3863C125.523 67.0774 124.965 67.6303 124.279 67.6303H106.085C105.486 67.6303 105.368 66.76 105.634 66.2225L114.424 48.694L114.429 48.6991Z" fill="#325FE8"/>
</svg>
